<?xml version="1.0" standalone="no"?>
<!DOCTYPE svg PUBLIC "-//W3C//DTD SVG 20010904//EN"
 "http://www.w3.org/TR/2001/REC-SVG-20010904/DTD/svg10.dtd">
<svg version="1.0" xmlns="http://www.w3.org/2000/svg"
 width="1024.000000pt" height="1024.000000pt" viewBox="0 0 1024.000000 1024.000000"
 preserveAspectRatio="xMidYMid meet">
<metadata>
Created by potrace 1.16, written by Peter Selinger 2001-2019
</metadata>
<g transform="translate(0.000000,1024.000000) scale(0.100000,-0.100000)"
fill="#000000" stroke="none">
<path d="M5110 9265 c0 -21 -186 -862 -531 -2395 -44 -195 -94 -420 -111 -500
-17 -80 -34 -149 -38 -153 -8 -9 -745 1025 -1074 1508 -65 95 -68 98 -62 60 3
-22 33 -254 66 -515 33 -261 106 -825 161 -1254 55 -428 98 -780 95 -783 -2
-2 -84 63 -183 145 -98 83 -338 284 -533 448 -195 164 -441 370 -545 459 -105
88 -195 164 -202 168 -6 4 -1 -26 12 -66 12 -39 56 -180 97 -312 42 -132 109
-348 151 -480 41 -132 193 -618 337 -1080 144 -462 318 -1020 387 -1240 92
-296 137 -426 174 -500 179 -356 491 -688 836 -891 565 -333 1231 -358 1831
-69 342 165 621 410 835 735 136 206 168 287 372 945 103 330 229 735 280 900
317 1017 635 2048 635 2059 0 4 -95 -73 -211 -171 -752 -632 -1255 -1053
-1259 -1053 -3 0 67 579 156 1288 89 708 159 1289 156 1292 -2 3 -7 -1 -9 -8
-7 -17 -251 -369 -603 -868 -480 -680 -514 -725 -522 -706 -5 9 -66 278 -137
597 -72 319 -153 679 -181 800 -116 499 -360 1611 -360 1638 0 9 -4 17 -10 17
-5 0 -10 -7 -10 -15z m83 -3378 c171 -585 390 -1313 397 -1320 4 -5 115 156
246 357 132 201 243 365 247 366 5 0 6 -4 3 -8 -7 -11 -107 -1383 -101 -1390
2 -2 629 494 712 564 58 50 66 53 54 22 -5 -13 -93 -309 -195 -658 -103 -349
-199 -662 -213 -695 -124 -284 -385 -554 -664 -684 -192 -90 -352 -125 -569
-124 -211 1 -390 44 -576 139 -272 138 -523 409 -644 692 -23 55 -412 1353
-407 1358 1 1 176 -137 390 -307 213 -170 389 -309 390 -309 1 0 1 19 -1 43
-10 121 -78 1313 -76 1315 1 2 105 -149 230 -337 125 -187 230 -339 233 -337
3 2 110 351 236 775 127 424 232 771 235 771 3 0 36 -105 73 -233z"/>
</g>
</svg>
