<?xml version="1.0" standalone="no"?>
<!DOCTYPE svg PUBLIC "-//W3C//DTD SVG 20010904//EN"
 "http://www.w3.org/TR/2001/REC-SVG-20010904/DTD/svg10.dtd">
<svg version="1.0" xmlns="http://www.w3.org/2000/svg"
 width="1024.000000pt" height="1024.000000pt" viewBox="0 0 1024.000000 1024.000000"
 preserveAspectRatio="xMidYMid meet">
<metadata>
Created by potrace 1.16, written by Peter Selinger 2001-2019
</metadata>
<g transform="translate(0.000000,1024.000000) scale(0.100000,-0.100000)"
fill="#000000" stroke="none">
<path d="M3043 8690 c-407 -5 -423 -6 -450 -26 -41 -30 -65 -81 -59 -128 9
-79 72 -126 167 -126 l56 0 7 -167 c4 -93 14 -215 22 -273 65 -457 251 -858
552 -1195 49 -54 489 -500 1156 -1172 l420 -422 -800 -803 c-440 -442 -835
-843 -878 -893 -164 -188 -306 -440 -385 -682 -77 -232 -101 -414 -101 -754
l0 -206 -62 -7 c-65 -6 -98 -23 -130 -67 -44 -59 -28 -146 36 -192 l31 -22
2470 -3 c1713 -2 2481 0 2507 8 20 5 50 26 67 45 25 29 31 44 31 83 0 88 -53
139 -156 149 l-54 6 0 242 c0 351 -27 533 -116 774 -73 196 -202 423 -337 591
-33 41 -432 447 -886 902 l-825 827 740 743 c406 409 781 792 833 852 284 331
422 589 510 956 45 184 61 304 68 503 l6 177 49 0 c100 0 168 56 168 138 0 60
-29 108 -78 129 -33 14 -241 16 -2097 17 -1133 1 -2250 -1 -2482 -4z m4134
-472 c-6 -204 -22 -326 -62 -468 -71 -251 -171 -451 -334 -665 -85 -111 -553
-594 -1226 -1265 l-437 -435 -759 765 c-418 421 -796 808 -840 860 -187 221
-317 466 -393 738 -47 166 -58 250 -63 460 l-6 202 2063 0 2063 0 -6 -192z
m-1234 -4070 c448 -453 836 -848 862 -878 162 -191 311 -505 359 -758 18 -97
39 -371 34 -459 l-3 -62 -976 974 c-737 736 -987 980 -1020 995 -54 24 -109
25 -157 3 -24 -11 -392 -374 -1017 -1001 l-980 -985 -3 59 c-6 100 16 378 38
484 45 222 131 428 261 625 60 91 120 157 377 419 487 495 1396 1406 1403
1406 4 0 374 -370 822 -822z m-113 -1205 c387 -390 793 -798 902 -908 l198
-200 -1805 -1 c-993 -1 -1804 2 -1803 6 5 12 1790 1810 1797 1810 4 0 324
-318 711 -707z"/>
<path d="M7010 6243 c-23 -9 -60 -45 -76 -75 -17 -32 -18 -76 -3 -115 5 -15
159 -178 342 -360 l332 -333 -860 0 c-799 0 -862 -1 -894 -18 -47 -23 -72 -61
-78 -113 -6 -60 21 -108 77 -136 l44 -23 850 0 851 0 -332 -332 c-350 -352
-363 -368 -349 -443 17 -91 131 -145 214 -101 15 8 237 225 494 483 409 411
467 473 473 506 16 85 28 70 -475 572 -258 258 -480 475 -492 482 -23 12 -91
16 -118 6z"/>
</g>
</svg>
