<?xml version="1.0" standalone="no"?>
<!DOCTYPE svg PUBLIC "-//W3C//DTD SVG 20010904//EN"
 "http://www.w3.org/TR/2001/REC-SVG-20010904/DTD/svg10.dtd">
<svg version="1.0" xmlns="http://www.w3.org/2000/svg"
 width="1024.000000pt" height="1024.000000pt" viewBox="0 0 1024.000000 1024.000000"
 preserveAspectRatio="xMidYMid meet">
<metadata>
Created by potrace 1.16, written by Peter Selinger 2001-2019
</metadata>
<g transform="translate(0.000000,1024.000000) scale(0.100000,-0.100000)"
fill="#000000" stroke="none">
<path d="M5580 8903 c-72 -14 -242 -105 -456 -244 -66 -43 -133 -81 -150 -85
-44 -9 -95 13 -264 116 -201 122 -330 187 -386 196 -107 16 -173 -43 -382
-344 -74 -105 -145 -198 -158 -206 -42 -28 -135 -20 -335 30 -292 72 -355 69
-406 -22 -26 -46 -64 -191 -92 -354 -25 -140 -35 -176 -60 -217 -37 -60 -62
-66 -311 -73 -265 -7 -290 -14 -328 -91 -33 -67 -37 -152 -17 -362 20 -204 14
-297 -23 -347 -11 -15 -109 -71 -254 -146 -130 -66 -259 -138 -287 -159 -115
-84 -104 -146 55 -332 166 -193 183 -253 106 -373 -42 -66 -176 -230 -285
-349 -115 -126 -150 -184 -150 -255 -1 -90 40 -144 234 -302 264 -216 266
-229 79 -559 -143 -252 -168 -340 -114 -405 35 -41 91 -68 264 -125 213 -71
274 -102 310 -160 37 -60 24 -177 -55 -465 -15 -52 -29 -130 -32 -172 -11
-142 26 -165 342 -208 310 -43 381 -77 424 -201 11 -30 33 -160 50 -289 36
-271 51 -332 91 -371 40 -41 84 -38 297 17 296 77 308 79 359 66 90 -24 111
-48 289 -338 133 -218 166 -254 225 -254 56 0 93 17 244 114 189 120 230 140
296 140 36 0 65 -6 85 -18 17 -10 109 -99 205 -197 187 -190 214 -208 281
-189 53 16 73 34 178 169 248 319 300 342 509 230 367 -197 410 -212 466 -168
37 29 55 68 125 281 64 193 86 236 134 272 46 34 139 27 365 -28 198 -48 231
-51 279 -20 45 28 55 67 69 271 20 296 26 303 274 348 163 30 281 60 321 81
70 36 75 103 19 260 -131 364 -137 393 -101 467 34 71 81 92 372 165 184 47
250 74 285 115 45 53 33 95 -89 325 -126 236 -147 287 -147 350 0 77 44 122
200 209 36 20 102 61 148 91 191 127 184 162 -82 427 -191 190 -237 254 -244
340 -2 29 1 69 8 89 14 45 102 165 203 278 91 102 127 154 127 182 0 65 -98
141 -357 274 -175 90 -232 136 -234 186 -2 73 6 111 63 286 52 161 59 193 56
244 -4 52 -9 63 -40 91 -51 47 -122 70 -368 119 -329 65 -318 54 -331 358 -9
239 -15 291 -35 329 -17 33 -32 39 -102 39 -56 0 -103 -14 -424 -129 -49 -17
-95 -31 -103 -31 -47 0 -65 62 -105 370 -31 228 -58 275 -159 274 -47 0 -77
-10 -189 -63 -218 -102 -257 -111 -311 -65 -17 14 -81 107 -143 206 -126 204
-176 271 -216 292 -34 17 -79 25 -112 19z m24 -374 c54 -15 113 -79 225 -243
52 -76 107 -154 123 -172 44 -50 88 -47 216 15 140 69 203 79 285 46 32 -13
56 -79 82 -226 29 -165 48 -227 77 -265 20 -24 26 -26 72 -21 28 3 110 20 181
37 134 33 254 48 300 36 52 -13 85 -147 100 -406 8 -119 17 -150 57 -187 35
-33 77 -48 283 -99 195 -49 240 -69 264 -119 20 -41 3 -123 -58 -282 -58 -152
-69 -208 -48 -249 30 -58 51 -70 369 -217 171 -79 169 -125 -13 -322 -126
-137 -153 -182 -153 -250 0 -71 27 -116 151 -250 207 -223 253 -284 253 -340
0 -39 -59 -95 -206 -196 -168 -114 -177 -125 -172 -202 4 -50 19 -88 108 -262
113 -223 129 -279 95 -331 -23 -35 -70 -54 -293 -118 -284 -82 -351 -121 -360
-214 -4 -41 6 -80 61 -243 76 -222 89 -303 60 -359 -23 -44 -67 -61 -262 -99
-164 -33 -174 -36 -215 -64 -40 -28 -54 -69 -66 -199 -13 -149 -26 -201 -57
-229 -39 -37 -142 -32 -309 14 -157 44 -187 46 -218 13 -12 -14 -55 -109 -95
-213 -87 -221 -114 -279 -140 -293 -52 -27 -142 1 -331 104 -213 117 -253 129
-323 98 -45 -20 -83 -61 -207 -222 -40 -52 -98 -121 -128 -153 -47 -47 -62
-57 -91 -57 -47 0 -77 25 -232 193 -144 156 -182 187 -238 194 -47 6 -93 -16
-221 -108 -186 -132 -265 -157 -329 -104 -35 30 -106 124 -216 285 -98 145
-110 158 -164 182 -52 24 -110 19 -235 -18 -124 -38 -210 -54 -287 -54 -120 0
-134 27 -194 353 -42 230 -49 257 -77 292 -29 37 -60 49 -248 90 -220 49 -288
71 -322 105 -25 26 -28 35 -28 99 0 42 15 144 35 245 39 194 43 252 19 302
-22 45 -66 75 -254 169 -178 89 -212 112 -235 161 -25 52 -14 90 69 244 117
214 128 240 133 301 8 87 -16 126 -192 308 -89 93 -161 177 -173 203 -54 111
-29 159 310 600 99 130 92 187 -52 458 -46 85 -51 136 -20 187 27 45 82 82
227 155 159 81 212 120 242 181 l24 49 -17 141 c-26 224 -17 310 34 349 33 24
153 38 335 38 77 0 157 5 177 11 60 16 74 56 108 324 28 215 46 292 77 323 23
23 30 24 86 19 34 -4 134 -27 222 -53 187 -54 276 -65 323 -40 24 12 62 62
137 177 140 214 209 306 248 329 84 51 183 6 427 -196 124 -102 174 -128 237
-121 52 6 84 27 233 157 176 155 278 218 350 220 14 0 43 -5 64 -11z"/>
<path d="M4501 7767 c-45 -16 -75 -56 -156 -207 -36 -69 -82 -140 -101 -157
-47 -46 -88 -44 -252 11 -174 59 -233 71 -276 56 -72 -23 -99 -83 -140 -309
-15 -79 -34 -157 -43 -172 -29 -48 -71 -60 -237 -70 -338 -19 -331 -16 -330
-141 0 -62 8 -110 32 -193 41 -138 51 -248 29 -292 -21 -41 -45 -59 -204 -154
-73 -44 -156 -102 -185 -128 -53 -48 -53 -49 -53 -107 1 -49 10 -81 58 -190
59 -136 69 -190 47 -250 -6 -15 -50 -68 -99 -118 -108 -112 -121 -131 -121
-177 0 -46 37 -98 121 -170 128 -110 151 -134 171 -173 28 -56 20 -124 -32
-272 -97 -271 -104 -320 -59 -378 27 -35 71 -56 210 -104 156 -54 203 -77 243
-122 49 -55 53 -90 27 -256 -40 -253 -25 -369 51 -411 29 -16 60 -18 268 -19
261 0 276 -3 324 -67 31 -41 37 -56 97 -255 55 -182 85 -250 126 -282 48 -37
105 -19 323 103 141 79 186 97 242 97 66 0 110 -32 225 -163 59 -67 144 -159
188 -204 69 -71 86 -83 114 -83 65 0 77 12 290 283 157 200 195 207 415 85
271 -150 292 -157 346 -112 43 37 54 62 131 292 37 111 74 213 83 227 34 51
98 54 346 14 157 -26 245 -23 271 10 26 31 25 148 -1 351 -24 186 -25 239 -5
287 32 75 79 103 266 158 144 43 206 75 215 111 10 38 -9 91 -98 276 -108 225
-107 259 4 364 29 27 87 75 128 105 41 31 90 72 108 93 65 75 36 152 -125 332
-132 146 -157 179 -188 246 -41 87 -33 122 56 254 77 115 109 180 109 226 0
89 -55 138 -276 249 -189 94 -229 124 -244 179 -6 24 -10 127 -8 259 l3 219
-24 26 c-22 23 -32 26 -95 26 -39 0 -125 -7 -191 -15 -65 -8 -151 -15 -190
-15 -93 0 -108 14 -136 136 -37 162 -60 222 -98 265 -67 75 -137 66 -366 -49
-178 -88 -286 -165 -270 -191 10 -17 57 -13 173 14 215 49 281 44 309 -24 8
-20 30 -106 48 -192 18 -86 40 -170 49 -187 26 -51 72 -59 229 -39 73 10 162
17 199 17 106 0 113 -23 82 -281 -24 -206 -15 -219 237 -315 252 -96 273 -133
163 -290 -73 -104 -114 -186 -114 -226 0 -49 24 -86 145 -219 189 -209 211
-247 180 -313 -10 -20 -63 -76 -123 -128 -58 -51 -118 -111 -134 -132 -48 -66
-37 -123 61 -338 67 -145 60 -200 -31 -242 -29 -14 -104 -41 -166 -60 -197
-62 -203 -72 -177 -329 18 -173 15 -235 -11 -274 -18 -28 -71 -30 -214 -8 -52
8 -127 15 -167 15 -62 0 -75 -3 -101 -25 -38 -32 -72 -114 -122 -299 -22 -81
-47 -161 -55 -177 -32 -61 -81 -50 -270 61 -114 67 -167 90 -208 90 -41 0
-101 -46 -203 -157 -205 -222 -220 -234 -281 -218 -31 7 -95 71 -201 197 -83
101 -134 138 -197 145 -62 7 -114 -8 -265 -77 -145 -67 -195 -79 -240 -60 -43
18 -63 63 -111 242 -46 172 -56 195 -100 232 l-32 27 -221 -3 c-121 -2 -231 1
-244 5 -44 16 -47 38 -44 270 4 238 -1 271 -48 310 -15 13 -81 43 -147 67
-226 82 -249 102 -240 204 2 34 27 130 56 217 54 166 62 228 34 269 -9 14 -55
66 -103 115 -47 50 -96 112 -109 138 -21 43 -22 53 -12 88 12 41 54 88 134
153 27 21 56 53 64 72 18 37 15 49 -72 273 -59 153 -43 182 174 306 139 79
181 118 181 170 0 18 -14 89 -30 157 -17 68 -33 150 -37 183 -5 55 -3 64 19
89 32 38 89 43 236 21 180 -26 240 -6 266 88 8 29 22 102 31 162 22 147 40
211 67 230 40 27 113 19 253 -31 141 -49 199 -57 239 -30 17 11 49 64 91 150
68 139 114 196 158 196 34 0 115 -52 196 -125 41 -37 88 -76 105 -86 47 -29
105 -25 155 11 79 57 406 490 399 528 -2 9 -12 18 -22 20 -43 9 -95 -14 -212
-93 -152 -104 -174 -115 -219 -115 -52 0 -94 21 -209 104 -161 118 -235 148
-305 123z"/>
<path d="M5756 6451 c-3 -4 20 -50 52 -101 43 -70 87 -121 182 -213 69 -66
135 -134 148 -151 29 -39 42 -89 52 -197 10 -106 27 -140 119 -244 94 -105
116 -150 116 -240 0 -60 -6 -83 -40 -160 -47 -107 -50 -171 -16 -299 38 -145
27 -183 -86 -284 -98 -88 -119 -125 -148 -269 -43 -204 -67 -239 -259 -371
-75 -51 -116 -99 -116 -134 0 -24 32 -23 103 1 76 26 242 113 310 161 74 54
110 126 134 270 21 133 32 160 85 204 24 19 72 59 108 89 119 97 134 163 79
329 -19 56 -33 123 -36 169 -5 68 -2 86 30 180 47 140 51 161 37 222 -17 73
-53 131 -130 212 -37 39 -72 80 -79 92 -6 12 -18 72 -26 133 -20 156 -43 202
-158 315 -197 193 -429 338 -461 286z"/>
<path d="M4116 6409 c-67 -16 -158 -72 -234 -143 -60 -58 -81 -86 -117 -160
-24 -50 -55 -131 -69 -180 -36 -125 -61 -170 -119 -219 -109 -91 -167 -150
-178 -185 -22 -66 -6 -142 56 -273 68 -141 68 -143 0 -303 -76 -178 -83 -268
-24 -339 17 -20 75 -64 129 -98 151 -92 184 -138 226 -316 53 -227 98 -274
309 -323 142 -33 178 -55 300 -186 72 -76 125 -124 159 -142 50 -26 55 -27
236 -28 178 -1 189 -2 289 -32 57 -18 118 -32 137 -32 43 0 84 16 84 33 0 18
-191 153 -269 190 -59 28 -76 31 -205 37 -182 8 -207 20 -335 158 -103 112
-148 141 -305 192 -159 52 -197 103 -216 284 -12 113 -31 150 -111 209 -115
86 -159 128 -180 169 -27 53 -22 81 32 200 29 64 44 111 47 151 4 55 1 65 -51
170 -101 205 -99 215 110 394 81 70 93 99 103 251 8 115 11 131 44 196 19 39
65 105 102 146 71 81 124 156 124 177 0 15 -17 15 -74 2z"/>
<path d="M4850 6181 c-111 -25 -177 -50 -278 -108 -328 -189 -519 -547 -499
-937 14 -267 106 -484 286 -670 198 -204 422 -298 711 -297 278 0 506 95 700
291 197 199 290 430 290 718 0 308 -95 538 -306 743 -127 123 -277 208 -444
254 -101 27 -350 30 -460 6z"/>
</g>
</svg>
