<?xml version="1.0" standalone="no"?>
<!DOCTYPE svg PUBLIC "-//W3C//DTD SVG 20010904//EN"
 "http://www.w3.org/TR/2001/REC-SVG-20010904/DTD/svg10.dtd">
<svg version="1.0" xmlns="http://www.w3.org/2000/svg"
 width="1024.000000pt" height="1024.000000pt" viewBox="0 0 1024.000000 1024.000000"
 preserveAspectRatio="xMidYMid meet">
<metadata>
Created by potrace 1.16, written by Peter Selinger 2001-2019
</metadata>
<g transform="translate(0.000000,1024.000000) scale(0.100000,-0.100000)"
fill="#000000" stroke="none">
<path d="M4840 7890 c-880 -83 -1710 -527 -2556 -1365 -207 -206 -359 -370
-496 -534 -67 -81 -78 -100 -78 -132 0 -43 18 -67 205 -274 556 -616 1049
-1023 1600 -1323 410 -222 831 -360 1265 -414 158 -20 595 -17 745 5 243 35
420 78 640 154 544 189 1058 510 1580 984 228 208 588 579 755 780 55 66 64
105 33 149 -80 119 -615 668 -853 878 -716 630 -1411 976 -2165 1078 -132 18
-542 26 -675 14z m470 -310 c712 -53 1395 -372 2117 -987 198 -169 725 -697
721 -723 -7 -44 -499 -548 -713 -731 -783 -670 -1525 -988 -2301 -989 -791 0
-1543 321 -2324 994 -206 177 -710 691 -710 723 0 30 447 483 670 679 861 755
1700 1097 2540 1034z"/>
<path d="M4950 7394 c-202 -24 -366 -71 -535 -155 -157 -78 -286 -170 -410
-294 -125 -125 -218 -255 -294 -410 -68 -137 -102 -235 -133 -379 -32 -147
-32 -425 0 -581 62 -309 185 -543 407 -773 244 -255 562 -418 905 -467 724
-103 1425 288 1699 949 125 299 150 612 76 924 -95 398 -359 757 -712 969
-162 97 -338 163 -530 198 -84 16 -395 28 -473 19z m463 -348 c565 -129 967
-622 967 -1186 0 -167 -58 -391 -145 -559 -265 -512 -860 -759 -1461 -606
-309 78 -617 329 -764 622 -47 94 -62 135 -97 258 -33 121 -43 356 -19 490 41
238 147 443 321 624 111 115 192 177 315 240 145 74 276 115 430 135 76 9 386
-3 453 -18z"/>
<path d="M4945 6825 c-372 -69 -684 -361 -782 -732 -34 -132 -36 -315 -5 -446
97 -396 403 -683 801 -751 532 -91 1033 252 1143 783 25 122 20 304 -12 426
-47 179 -178 384 -322 505 -220 185 -537 268 -823 215z m354 -332 c113 -29
199 -80 292 -172 72 -71 95 -102 128 -171 178 -371 -7 -795 -399 -915 -82 -25
-239 -30 -329 -11 -243 51 -450 252 -506 488 -8 35 -15 101 -15 148 0 430 410
743 829 633z"/>
<path d="M5013 6236 c-68 -22 -127 -61 -181 -121 -69 -76 -96 -145 -96 -255 0
-75 4 -93 31 -152 42 -90 109 -160 192 -201 61 -30 72 -32 171 -32 97 0 110 2
172 32 296 140 297 554 2 704 -59 29 -77 34 -158 36 -57 2 -107 -2 -133 -11z"/>
<path d="M5083 3645 c-39 -27 -360 -549 -443 -720 -130 -269 -102 -522 80
-706 117 -118 242 -171 405 -172 164 -1 297 53 410 167 182 184 212 433 85
701 -77 162 -379 665 -431 718 -31 30 -72 35 -106 12z"/>
</g>
</svg>
