<?xml version="1.0" standalone="no"?>
<!DOCTYPE svg PUBLIC "-//W3C//DTD SVG 20010904//EN"
 "http://www.w3.org/TR/2001/REC-SVG-20010904/DTD/svg10.dtd">
<svg version="1.0" xmlns="http://www.w3.org/2000/svg"
 width="1024.000000pt" height="1024.000000pt" viewBox="0 0 1024.000000 1024.000000"
 preserveAspectRatio="xMidYMid meet">
<metadata>
Created by potrace 1.16, written by Peter Selinger 2001-2019
</metadata>
<g transform="translate(0.000000,1024.000000) scale(0.100000,-0.100000)"
fill="#000000" stroke="none">
<path d="M5053 9060 c-66 -40 -63 5 -63 -891 0 -796 0 -812 20 -844 55 -89
183 -81 232 16 17 32 18 92 18 827 0 867 2 833 -59 885 -40 33 -101 36 -148 7z"/>
<path d="M3204 8580 c-11 -4 -33 -22 -47 -40 -38 -45 -37 -103 4 -172 17 -29
88 -156 157 -283 69 -126 187 -338 262 -470 76 -132 177 -311 226 -398 49 -87
104 -176 122 -198 64 -75 156 -70 209 10 49 73 34 112 -202 516 -111 190 -167
291 -280 500 -58 106 -218 393 -252 450 -46 78 -129 113 -199 85z"/>
<path d="M6915 8557 c-40 -19 -55 -38 -105 -132 -24 -44 -116 -206 -205 -360
-295 -511 -468 -817 -502 -891 -20 -43 -22 -58 -14 -99 11 -61 39 -98 83 -109
49 -12 86 0 122 38 32 34 55 72 301 511 83 149 231 408 328 577 97 169 179
318 183 332 8 33 -11 88 -41 116 -30 28 -106 37 -150 17z"/>
<path d="M8270 7202 c-59 -30 -509 -291 -625 -362 -60 -37 -166 -100 -235
-140 -257 -150 -446 -270 -479 -304 -27 -28 -35 -45 -38 -83 -5 -58 10 -89 57
-121 65 -44 93 -34 385 138 143 85 307 184 365 220 58 36 168 101 245 144 115
64 401 248 466 299 29 22 52 68 51 99 -3 103 -100 158 -192 110z"/>
<path d="M1817 7190 c-74 -58 -60 -176 26 -228 18 -10 84 -51 147 -89 63 -39
178 -105 255 -148 77 -43 304 -177 504 -297 200 -120 381 -228 403 -239 102
-52 201 4 200 115 -1 74 20 58 -457 351 -179 110 -362 223 -408 251 -45 28
-179 107 -297 175 -206 118 -218 123 -280 127 -56 3 -69 1 -93 -18z"/>
<path d="M4960 6887 c-3 -3 -43 -11 -90 -17 -329 -44 -610 -179 -911 -436
-278 -238 -460 -570 -535 -978 -24 -127 -26 -157 -22 -325 7 -274 55 -476 164
-699 106 -214 337 -496 514 -626 134 -99 292 -183 442 -237 537 -192 1085
-129 1562 178 280 180 513 477 634 808 79 215 106 339 117 540 15 280 -44 572
-170 830 -196 404 -568 740 -955 863 -90 29 -278 74 -365 87 -57 8 -379 18
-385 12z m440 -287 c302 -63 552 -198 764 -414 244 -249 376 -532 406 -872 25
-275 -27 -549 -152 -799 -73 -146 -139 -237 -263 -360 -244 -243 -480 -364
-806 -415 -115 -18 -420 -8 -534 18 -219 50 -428 149 -595 280 -91 72 -257
249 -312 332 -108 163 -188 352 -229 535 -9 40 -14 129 -13 265 0 174 3 221
22 307 63 291 197 524 424 738 275 259 467 346 903 409 71 10 285 -3 385 -24z"/>
<path d="M1350 5314 c-40 -14 -62 -31 -82 -62 -44 -71 -1 -170 84 -192 24 -7
310 -10 810 -8 840 3 804 1 848 60 46 63 29 143 -40 183 -34 20 -51 20 -820
22 -432 1 -792 -1 -800 -3z"/>
<path d="M7283 5305 c-89 -38 -98 -176 -16 -231 27 -18 61 -19 808 -22 533 -2
792 0 817 8 53 15 88 61 88 116 0 57 -22 99 -63 121 -30 17 -88 18 -817 20
-661 2 -790 0 -817 -12z"/>
<path d="M3067 4150 c-93 -53 -368 -222 -507 -312 -71 -45 -470 -278 -682
-397 -31 -17 -68 -46 -82 -62 -64 -76 2 -219 102 -219 63 0 43 -11 752 413
703 420 693 413 705 481 16 80 -52 146 -150 146 -43 0 -65 -8 -138 -50z"/>
<path d="M6914 4166 c-30 -30 -34 -40 -34 -85 0 -44 5 -56 33 -86 17 -19 124
-90 237 -158 113 -68 254 -154 314 -190 101 -63 316 -188 686 -399 168 -96
197 -104 255 -68 43 26 59 67 51 125 -10 62 -47 98 -191 180 -66 38 -175 104
-242 147 -66 43 -201 124 -300 181 -98 57 -275 161 -393 232 -236 142 -262
154 -333 155 -43 0 -53 -4 -83 -34z"/>
<path d="M3975 3385 c-46 -25 -64 -45 -105 -115 -155 -267 -685 -1201 -721
-1272 -26 -50 -25 -127 1 -160 43 -55 132 -62 193 -15 18 14 58 71 94 133 133
235 437 771 564 994 156 275 169 306 148 363 -8 22 -26 49 -40 59 -36 27 -97
33 -134 13z"/>
<path d="M6152 3379 c-24 -12 -50 -35 -58 -52 -30 -58 -16 -100 117 -334 108
-193 386 -673 519 -898 25 -44 70 -122 100 -173 57 -103 91 -132 151 -132 68
0 139 74 139 145 0 16 -12 50 -26 75 -15 25 -34 59 -44 75 -10 17 -87 152
-172 300 -233 406 -383 665 -469 811 -72 122 -133 194 -162 194 -7 0 -21 3
-32 5 -11 3 -39 -4 -63 -16z"/>
<path d="M5037 3050 c-22 -19 -41 -47 -47 -70 -7 -26 -10 -299 -8 -807 3 -856
-1 -799 71 -843 64 -39 165 -10 193 55 21 51 21 1572 0 1613 -27 52 -62 75
-119 80 -49 4 -57 1 -90 -28z"/>
</g>
</svg>
