<?xml version="1.0" standalone="no"?>
<!DOCTYPE svg PUBLIC "-//W3C//DTD SVG 20010904//EN"
 "http://www.w3.org/TR/2001/REC-SVG-20010904/DTD/svg10.dtd">
<svg version="1.0" xmlns="http://www.w3.org/2000/svg"
 width="1024.000000pt" height="1024.000000pt" viewBox="0 0 1024.000000 1024.000000"
 preserveAspectRatio="xMidYMid meet">
<metadata>
Created by potrace 1.16, written by Peter Selinger 2001-2019
</metadata>
<g transform="translate(0.000000,1024.000000) scale(0.100000,-0.100000)"
fill="#000000" stroke="none">
<path d="M5054 8896 c-21 -9 -75 -68 -158 -173 -69 -87 -155 -194 -190 -238
-35 -44 -129 -161 -208 -259 -78 -98 -154 -193 -168 -210 -14 -17 -74 -92
-135 -167 -60 -75 -207 -263 -325 -419 -782 -1032 -1195 -1749 -1385 -2405
-88 -306 -119 -513 -120 -810 0 -245 3 -282 34 -470 152 -905 740 -1667 1586
-2054 349 -159 780 -255 1129 -250 424 5 785 81 1146 242 591 263 1059 709
1350 1287 117 232 217 547 246 775 3 22 9 54 14 70 14 43 30 278 30 423 0 294
-77 684 -204 1027 -148 404 -385 845 -729 1360 -76 113 -375 526 -457 631 -34
43 -113 148 -176 232 -113 152 -250 323 -719 902 -136 168 -281 346 -322 396
-97 121 -154 147 -239 110z m453 -806 c173 -212 325 -396 337 -410 20 -23 105
-129 172 -215 13 -16 69 -89 126 -161 347 -444 502 -657 731 -1011 277 -427
495 -862 620 -1233 33 -99 91 -330 102 -402 43 -300 47 -346 41 -513 -3 -93
-8 -183 -10 -200 -2 -16 -9 -68 -16 -115 -6 -47 -15 -101 -20 -120 -5 -19 -23
-91 -41 -160 -45 -179 -146 -425 -244 -595 -105 -181 -298 -430 -436 -560
-308 -290 -689 -499 -1111 -610 -73 -19 -151 -37 -173 -40 -39 -6 -62 -10
-115 -20 -123 -25 -507 -25 -670 -1 -443 66 -795 209 -1155 469 -143 104 -151
110 -279 235 -591 579 -861 1436 -701 2232 11 59 36 177 40 197 3 12 26 86 51
165 154 481 453 1040 895 1673 82 118 436 586 563 746 56 69 115 143 131 164
17 22 66 82 110 135 44 53 139 167 210 254 250 303 390 474 425 516 l34 43 34
-39 c19 -21 176 -212 349 -424z"/>
<path d="M4407 5027 c-15 -7 -47 -37 -70 -68 -146 -195 -393 -289 -629 -240
-123 26 -188 -14 -188 -117 0 -50 3 -58 38 -92 49 -49 91 -61 238 -67 250 -11
448 62 635 233 123 113 159 166 159 236 0 60 -29 104 -77 117 -48 14 -71 13
-106 -2z"/>
<path d="M5718 5015 c-83 -47 -74 -160 20 -266 127 -143 320 -255 505 -293
144 -30 355 -16 422 28 85 56 85 193 1 228 -39 16 -91 16 -180 0 -119 -22
-275 13 -402 89 -59 36 -135 106 -194 179 -33 40 -40 43 -90 47 -37 2 -64 -2
-82 -12z"/>
<path d="M4965 3883 c-433 -54 -792 -270 -1057 -636 -79 -110 -92 -154 -64
-220 11 -28 26 -43 58 -57 54 -25 62 -25 112 0 32 15 51 36 86 96 86 147 270
318 443 411 126 68 215 99 402 139 71 15 249 15 354 0 263 -39 484 -144 669
-319 78 -75 185 -210 208 -262 19 -47 55 -74 105 -81 112 -15 177 88 126 199
-60 131 -260 350 -427 468 -106 75 -258 154 -372 193 -68 23 -100 31 -203 51
-108 21 -341 31 -440 18z"/>
</g>
</svg>
