<?xml version="1.0" standalone="no"?>
<!DOCTYPE svg PUBLIC "-//W3C//DTD SVG 20010904//EN"
 "http://www.w3.org/TR/2001/REC-SVG-20010904/DTD/svg10.dtd">
<svg version="1.0" xmlns="http://www.w3.org/2000/svg"
 width="1024.000000pt" height="1024.000000pt" viewBox="0 0 1024.000000 1024.000000"
 preserveAspectRatio="xMidYMid meet">
<metadata>
Created by potrace 1.16, written by Peter Selinger 2001-2019
</metadata>
<g transform="translate(0.000000,1024.000000) scale(0.100000,-0.100000)"
fill="#000000" stroke="none">
<path d="M5040 9018 c-18 -13 -43 -41 -54 -63 -20 -39 -21 -55 -24 -548 -2
-348 1 -521 9 -549 13 -52 54 -93 107 -108 37 -12 45 -11 89 11 36 18 53 35
71 69 22 44 22 45 22 564 0 510 0 520 -21 564 -39 79 -130 107 -199 60z"/>
<path d="M3219 8549 c-47 -28 -69 -66 -69 -123 0 -38 13 -69 79 -188 43 -79
154 -280 246 -448 92 -168 179 -320 192 -338 85 -115 263 -57 263 86 0 36 -20
79 -124 270 -67 125 -176 326 -242 446 -65 121 -131 234 -146 252 -56 64 -134
81 -199 43z"/>
<path d="M6884 8546 c-41 -18 -41 -18 -264 -401 -106 -181 -222 -379 -257
-439 -76 -128 -83 -156 -55 -219 27 -60 70 -87 138 -87 69 0 113 32 150 110
27 55 193 342 347 600 128 214 141 240 144 290 3 43 -1 62 -16 88 -41 65 -117
88 -187 58z"/>
<path d="M4835 7429 c-245 -32 -511 -114 -733 -225 -729 -363 -1195 -1050
-1263 -1862 -21 -245 10 -547 81 -795 254 -884 1008 -1528 1930 -1648 136 -17
440 -15 585 5 893 124 1644 774 1885 1634 59 208 72 306 77 569 7 339 -15 503
-104 774 -103 318 -281 612 -517 857 -348 361 -761 584 -1246 674 -94 17 -162
21 -370 24 -140 1 -286 -2 -325 -7z m574 -294 c218 -31 375 -78 568 -170 216
-103 364 -207 536 -374 274 -267 443 -552 536 -901 124 -469 78 -957 -133
-1385 -111 -228 -226 -384 -412 -565 -173 -167 -318 -270 -526 -370 -608 -294
-1336 -248 -1932 122 -232 144 -477 392 -629 638 -195 316 -313 763 -293 1105
22 359 111 661 280 949 296 502 833 859 1431 950 123 19 443 19 574 1z"/>
<path d="M4852 6634 c-57 -28 -90 -68 -118 -144 -21 -56 -21 -159 0 -375 9
-88 38 -414 66 -725 27 -311 52 -584 55 -608 8 -56 50 -103 127 -142 86 -42
170 -42 256 0 79 40 129 95 137 152 3 24 21 205 40 403 19 198 49 506 66 685
18 179 32 386 33 461 1 132 0 137 -29 194 -23 46 -42 66 -79 90 l-49 30 -226
3 -226 3 -53 -27z"/>
<path d="M5013 4366 c-88 -28 -159 -91 -204 -181 -21 -43 -24 -64 -24 -155 0
-97 2 -109 29 -158 37 -66 92 -116 165 -151 47 -22 70 -26 146 -26 78 0 97 4
147 28 33 16 76 49 102 78 161 179 90 486 -131 565 -48 17 -175 17 -230 0z"/>
<path d="M8223 7259 c-18 -5 -103 -56 -190 -113 -87 -57 -268 -172 -403 -255
-135 -84 -260 -164 -278 -177 -46 -36 -65 -78 -59 -132 9 -85 74 -136 163
-129 44 3 68 14 160 74 60 39 177 112 259 163 132 82 201 126 444 289 75 50
96 81 95 142 -1 99 -95 167 -191 138z"/>
<path d="M1885 7241 c-52 -32 -68 -58 -73 -116 -3 -41 0 -61 13 -81 18 -27
498 -349 670 -449 55 -32 135 -80 178 -106 62 -39 87 -49 121 -49 113 0 185
139 119 229 -11 14 -94 73 -184 131 -90 57 -287 184 -438 282 -264 172 -276
178 -325 178 -32 0 -62 -7 -81 -19z"/>
<path d="M1385 5333 c-32 -8 -84 -51 -101 -85 -21 -41 -14 -116 14 -155 45
-64 37 -63 604 -63 513 0 514 0 558 23 57 29 82 64 87 124 5 61 -20 110 -73
140 l-39 23 -515 -1 c-283 -1 -524 -4 -535 -6z"/>
<path d="M7784 5321 c-115 -52 -123 -214 -14 -272 32 -18 67 -19 555 -19 501
0 521 1 553 20 104 64 95 211 -18 268 -44 22 -46 22 -540 22 -461 0 -498 -2
-536 -19z"/>
<path d="M2725 3926 c-16 -8 -93 -57 -170 -111 -134 -94 -331 -218 -555 -351
-133 -78 -159 -100 -176 -140 -19 -45 -18 -70 7 -120 34 -71 110 -105 186 -85
22 6 170 95 329 199 159 103 332 214 384 247 112 69 155 106 182 159 63 123
-61 258 -187 202z"/>
<path d="M7410 3930 c-44 -10 -95 -68 -103 -115 -8 -49 9 -102 46 -140 18 -18
216 -149 442 -291 357 -224 416 -258 457 -262 57 -5 100 10 133 50 52 62 42
154 -24 210 -22 18 -102 71 -178 117 -76 47 -247 156 -381 244 -210 137 -321
200 -350 196 -4 -1 -23 -5 -42 -9z"/>
<path d="M3747 2956 c-20 -6 -50 -23 -65 -37 -15 -14 -142 -230 -282 -480
-218 -389 -254 -460 -255 -496 0 -76 73 -143 156 -143 76 0 108 36 240 273 62
111 177 313 256 450 155 268 160 284 123 356 -33 65 -106 98 -173 77z"/>
<path d="M6393 2935 c-48 -21 -83 -79 -83 -140 0 -43 7 -61 51 -130 135 -211
274 -447 409 -698 53 -100 70 -122 105 -143 51 -30 96 -31 145 -3 49 28 74 72
73 130 -1 42 -26 93 -238 475 -131 236 -251 444 -269 462 -57 62 -123 78 -193
47z"/>
<path d="M5050 2571 c-19 -10 -45 -36 -57 -57 -23 -39 -23 -39 -23 -554 0
-515 0 -516 23 -560 29 -57 75 -83 140 -77 57 5 111 50 128 107 6 22 9 215 7
540 -3 474 -4 507 -22 544 -36 72 -122 97 -196 57z"/>
</g>
</svg>
