<?xml version="1.0" standalone="no"?>
<!DOCTYPE svg PUBLIC "-//W3C//DTD SVG 20010904//EN"
 "http://www.w3.org/TR/2001/REC-SVG-20010904/DTD/svg10.dtd">
<svg version="1.0" xmlns="http://www.w3.org/2000/svg"
 width="1024.000000pt" height="1024.000000pt" viewBox="0 0 1024.000000 1024.000000"
 preserveAspectRatio="xMidYMid meet">
<metadata>
Created by potrace 1.16, written by Peter Selinger 2001-2019
</metadata>
<g transform="translate(0.000000,1024.000000) scale(0.100000,-0.100000)"
fill="#000000" stroke="none">
<path d="M3803 7550 c-538 -68 -1025 -314 -1408 -711 -376 -390 -597 -865
-660 -1419 -24 -206 -17 -566 14 -739 64 -356 185 -664 370 -942 186 -281 389
-484 670 -670 330 -219 694 -345 1096 -380 323 -27 740 43 1039 176 l58 26
-111 77 c-61 42 -137 98 -168 123 l-58 46 -100 -29 c-192 -55 -258 -63 -530
-63 -221 1 -262 3 -355 23 -226 49 -488 156 -665 272 -510 335 -849 892 -926
1525 -18 146 -15 427 6 565 54 364 190 696 399 973 201 267 437 463 731 607
165 81 270 119 426 154 421 93 806 44 1209 -155 264 -131 416 -236 582 -402
733 -732 822 -1915 208 -2743 -76 -102 -272 -309 -339 -359 -22 -16 -41 -34
-41 -38 0 -11 303 -157 326 -157 20 0 173 153 260 260 239 296 405 648 483
1025 25 123 51 377 51 499 -1 407 -97 804 -286 1178 -220 433 -596 817 -1006
1026 -223 115 -488 198 -748 237 -133 20 -422 28 -527 15z"/>
<path d="M5945 7544 c-210 -28 -434 -89 -598 -163 l-69 -31 89 -59 c48 -33
121 -87 162 -121 l74 -63 91 26 c139 40 230 56 390 69 540 44 1091 -167 1496
-572 342 -341 549 -785 601 -1289 14 -141 6 -429 -16 -561 -63 -380 -233 -755
-467 -1035 -318 -380 -745 -624 -1211 -690 -121 -17 -366 -19 -492 -4 -118 14
-335 70 -449 115 -511 204 -880 531 -1104 979 -171 342 -241 660 -229 1040 10
332 75 591 221 885 110 222 236 391 431 578 98 95 122 122 111 131 -7 6 -78
44 -158 85 l-146 74 -109 -111 c-231 -236 -373 -453 -498 -759 -137 -339 -193
-655 -182 -1028 18 -580 205 -1080 565 -1511 179 -213 477 -452 732 -588 326
-172 762 -275 1095 -257 415 23 745 120 1072 314 621 369 1044 1007 1160 1752
25 163 25 566 -1 735 -66 434 -221 805 -481 1149 -313 416 -769 725 -1253 852
-257 66 -592 90 -827 58z"/>
</g>
</svg>
