<?xml version="1.0" encoding="UTF-8" standalone="no"?>
<!DOCTYPE svg PUBLIC "-//W3C//DTD SVG 1.1//EN" "http://www.w3.org/Graphics/SVG/1.1/DTD/svg11.dtd">
<svg width="100%" height="100%" viewBox="0 0 240 186" version="1.1" xmlns="http://www.w3.org/2000/svg" xmlns:xlink="http://www.w3.org/1999/xlink" xml:space="preserve" xmlns:serif="http://www.serif.com/" style="fill-rule:evenodd;clip-rule:evenodd;stroke-linejoin:round;stroke-miterlimit:2;">
    <g transform="matrix(1,0,0,1,-269.160164,0)">
        <g id="late-transmission" transform="matrix(1,0,0,0.93,269.160164,0)">
            <rect x="0" y="0" width="240" height="200" style="fill:none;"/>
            <g transform="matrix(1,0,0,1.075269,-273.4,7.709677)">
                <g transform="matrix(16,0,0,16,472.686,93)">
                </g>
                <text x="313.934px" y="93px" style="font-family:'Satoshi-Light', 'Satoshi';font-weight:300;font-size:16px;fill:rgb(230,230,226);">L<tspan x="322.83px 332.51px 341.374px 351.102px 356.222px 365.086px 375.758px 386.478px 398.078px 407.534px 421.294px 425.582px 435.038px 444.494px 448.782px 461.598px " y="93px 93px 93px 93px 93px 93px 93px 93px 93px 93px 93px 93px 93px 93px 93px 93px ">ATE TRANSMISSION</tspan></text>
            </g>
        </g>
    </g>
</svg>
