<?xml version="1.0" encoding="UTF-8" standalone="no"?>
<!DOCTYPE svg PUBLIC "-//W3C//DTD SVG 1.1//EN" "http://www.w3.org/Graphics/SVG/1.1/DTD/svg11.dtd">
<svg width="100%" height="100%" viewBox="0 0 240 186" version="1.1" xmlns="http://www.w3.org/2000/svg" xmlns:xlink="http://www.w3.org/1999/xlink" xml:space="preserve" xmlns:serif="http://www.serif.com/" style="fill-rule:evenodd;clip-rule:evenodd;stroke-linejoin:round;stroke-miterlimit:2;">
    <g transform="matrix(1,0,0,1,0,-293.792977)">
        <g id="after-hours" transform="matrix(1,0,0,0.93,0,293.792977)">
            <rect x="0" y="0" width="240" height="200" style="fill:none;"/>
            <g transform="matrix(0.418507,0,0,0.450007,-36.276959,-42.850837)">
                <path d="M144.034,382.165C144.102,381.149 144.078,380.129 144.145,379.112C145.585,357.44 198.795,322.362 217.243,334.522C229.18,342.391 222.394,389.707 225.581,390.786C226.437,391.076 242.68,384.541 244.571,383.25C246.259,382.097 245.168,357.697 247.205,340.124C249.876,317.081 288.304,308.334 295.407,312.354C308.636,319.842 292.311,327.04 288.694,362.18C282.558,421.791 304.569,430.514 302.993,437.292C301.875,442.097 283.839,448.341 279.538,449.332C259.189,454.021 254.28,447.626 251.392,434.187C248.044,418.609 249.277,404.717 245.473,406.064C225.664,413.079 225.795,415.357 225.898,417.153C227.136,438.802 231.26,448.741 232.057,452.233C234.685,463.739 209.958,479.809 193.499,479.937C177.418,480.063 184.72,432.678 180.867,379.054C180.535,374.439 167.664,387.236 162.598,405.195C160.175,413.784 143.679,404.91 144.034,382.165ZM243.948,305.167C242.248,319.598 211.957,321.275 207.751,317.831C200.858,312.187 204.347,291.168 203.276,290.588C202.735,290.295 172.087,304.01 177.958,271.245C180.89,254.887 191.951,261.527 205.379,257.739C210.423,256.317 218.976,183.496 254.73,166.631C282.078,153.732 296.418,172.164 300.689,186.11C309.434,214.667 306.046,250.274 314.956,279.037C315.681,281.378 317.687,284.248 313.057,289.76C308.916,294.691 278.784,308.294 275.243,292.236C271.502,275.269 275.972,260.866 269.577,262.469C266.48,263.246 242.423,271.939 241.298,274.026C239.987,276.456 240.576,291.71 241.967,297.053C242.111,297.605 243.43,301.378 243.948,305.167ZM267.975,230.08C267.525,227.747 263.897,208.915 261.744,201.038C260.095,195.006 254.314,210.795 254.209,211.029C250.656,218.946 243.599,247.616 243.683,248.157C243.972,250.019 245.265,250.083 266.401,241.916C271.42,239.976 269.222,235.785 267.975,230.08ZM575.596,288.775C607.633,297.83 596.829,328.896 580.801,318.678C580.619,318.562 574.036,312.397 566.579,313.584C561.889,314.33 561.154,320.462 571.606,325.967C574.809,327.654 610.933,340.867 601.117,369.047C591.012,398.055 534.788,395.219 520.96,374.852C508.982,357.21 528.436,338.146 541.525,351.141C557.827,367.327 568.481,356.486 561.374,350.308C555.064,344.824 515.55,333.025 532.911,304.414C539.242,293.982 551.46,289.58 553.395,288.883C561.077,286.115 573.849,288.455 575.596,288.775ZM372.077,381.145C366.491,441.299 291.706,446.637 298.998,374.217C300.168,362.592 311.793,333.629 344.498,332.97C368.045,332.495 374.7,362.863 372.077,381.145ZM328.074,385.314C328.493,386.354 331.75,399.829 342.425,394.028C348.839,390.542 350.854,381.765 348.098,378.504C343.962,373.612 350.17,374.439 351.232,371.114C351.64,369.837 348.66,347.563 338.792,355.557C325.177,366.587 326.02,375.78 328.074,385.314ZM349.945,206.162C350.413,208.756 349.986,210.174 352.55,209.36C359.28,207.224 368.155,200.186 369.279,216.179C370.017,226.67 367.38,226.518 357.616,230.46C352.462,232.541 354.542,234.522 356.64,241.122C366.122,270.954 377.11,274.856 362.233,284.791C359.862,286.374 333.158,304.206 327.194,278.233C321.011,251.311 329.412,240.206 321.618,244.39C319.161,245.709 315.787,248.428 314.921,240.116C314.114,232.366 311.386,225.601 316.445,223.068C320.517,221.028 321.072,220.629 320.152,216.234C317.122,201.756 312.61,178.3 337.774,161.584C349.73,153.642 377.57,148.384 377.611,173.17C377.625,181.647 367.573,193.726 361.207,183.345C359.449,180.479 356.183,180.088 353.64,183.273C349.048,189.026 349.941,203.596 349.945,206.162ZM377.954,363.125C377.882,360.17 377.452,342.393 379.857,326.231C380.637,320.988 393.351,317.78 401.506,318.013C416.416,318.439 402.727,352.559 407.844,369.069C412.13,382.896 418.924,372.316 420.62,364.192C428.076,328.483 411.858,315.999 427.633,308.416C454.54,295.482 450.912,322.037 450.845,332.17C450.626,365.188 448.761,365.742 456.464,385.18C460.937,396.466 430.445,404.004 432.387,383.173C433.089,375.644 428.558,387.842 427.333,390.079C416.669,409.551 380.654,419.29 377.954,363.125ZM511.928,229.153C509.839,254.708 464.015,267.562 448.649,248.049C421.575,213.67 455.257,149.566 493.399,163.433C516.412,171.8 514.317,210.634 478.551,223.316C474.713,224.677 472.328,224.779 474.776,227.974C483.61,239.509 501.037,223.948 502.738,222.429C510.001,215.944 511.797,228.251 511.928,229.153ZM475.391,215.363C475.391,215.363 490.419,206.803 491.24,190.75C492.062,174.698 486.441,186.472 483.468,190.75C480.495,195.029 478.392,204.387 475.391,215.363ZM385.891,194.156C385.899,179.783 385.851,179.42 385.683,178.151C384.011,165.543 383.965,163.646 395.338,157.85C426.074,142.189 420.552,164.78 418.984,181.197C418.269,188.681 434.938,173.382 437.065,184.254C441.037,204.566 426.448,203.845 418.683,207.54C415.838,208.893 415.96,235.08 419.784,239.958C424.57,246.063 432.081,240.347 432.488,240.141C442.443,235.094 447.708,260.5 420.348,270.756C379.261,286.157 385.224,225.027 385.232,223.177C385.248,219.342 383.272,221.478 379.583,222.491C371.702,224.656 371.383,211.84 373.179,203.09C374.616,196.086 385.395,201.621 385.891,194.156ZM548.04,240.155C546.215,255.197 521.414,250.934 518.82,242.076C513.818,224.991 517.07,169.537 518.798,167.385C523.816,161.134 551.319,156.783 546.701,175.207C545.597,179.613 540.945,191.783 544.514,189.187C544.736,189.026 551.885,160.547 576.44,163.628C603.468,167.02 592.994,226.525 564.563,216.018C551.518,211.197 563.639,192.718 556.473,197.123C554.976,198.043 545.155,209.942 547.393,231.174C547.468,231.89 547.379,231.882 548.04,240.155ZM490.093,352.176C491.904,364.263 492.234,364.143 494.514,376.165C496.706,387.721 471.115,393.949 465.455,384.195C461.094,376.68 461.002,362.271 459.202,343.193C459.184,343.002 458.659,312.686 459.287,308.143C460.634,298.405 490.78,289.823 486.498,310.166C486.272,311.241 482.956,326.995 486.187,323.886C486.333,323.745 488.925,306.423 498.655,297.333C505.739,290.716 522.042,289.463 524.136,310.205C527.228,340.831 496.39,347.148 496.909,328.112C497.11,320.754 490.556,328.448 490.093,352.176Z" style="fill:rgb(230,230,226);"/>
            </g>
        </g>
    </g>
</svg>
