<?xml version="1.0" standalone="no"?>
<!DOCTYPE svg PUBLIC "-//W3C//DTD SVG 20010904//EN"
 "http://www.w3.org/TR/2001/REC-SVG-20010904/DTD/svg10.dtd">
<svg version="1.0" xmlns="http://www.w3.org/2000/svg"
 width="1024.000000pt" height="1024.000000pt" viewBox="0 0 1024.000000 1024.000000"
 preserveAspectRatio="xMidYMid meet">
<metadata>
Created by potrace 1.16, written by Peter Selinger 2001-2019
</metadata>
<g transform="translate(0.000000,1024.000000) scale(0.100000,-0.100000)"
fill="#000000" stroke="none">
<path d="M5805 8720 c-142 -37 -239 -95 -341 -202 -199 -208 -286 -512 -271
-948 10 -290 31 -407 201 -1115 180 -753 224 -943 275 -1197 197 -971 199
-1712 5 -2269 -108 -312 -262 -512 -476 -620 -176 -89 -393 -73 -541 40 -154
116 -209 292 -157 497 27 104 60 174 172 357 50 84 109 188 129 232 85 181
120 384 99 581 -20 198 -59 317 -274 835 -87 208 -88 430 -4 624 83 191 81
185 69 227 -18 57 -60 81 -133 74 -152 -15 -396 -136 -682 -340 -298 -213
-633 -544 -805 -795 -118 -174 -147 -265 -101 -324 33 -42 76 -44 214 -11 106
25 140 29 271 29 129 0 160 -3 225 -23 191 -60 335 -171 403 -312 46 -93 61
-171 54 -275 -8 -103 -22 -150 -117 -380 -126 -305 -160 -447 -160 -670 0
-316 93 -555 299 -768 228 -236 506 -350 851 -350 364 1 673 136 955 419 327
326 527 784 596 1359 19 158 17 552 -5 750 -61 563 -182 1060 -566 2320 -219
718 -273 926 -306 1165 -47 354 31 612 218 716 46 25 63 29 133 29 101 0 155
-24 303 -133 273 -201 405 -276 555 -314 188 -47 507 5 579 96 10 11 18 24 18
27 0 4 -40 4 -89 1 -105 -6 -224 10 -318 42 -154 52 -237 110 -428 296 -218
212 -325 285 -487 330 -96 26 -263 27 -363 0z"/>
</g>
</svg>
