<?xml version="1.0" standalone="no"?>
<!DOCTYPE svg PUBLIC "-//W3C//DTD SVG 20010904//EN"
 "http://www.w3.org/TR/2001/REC-SVG-20010904/DTD/svg10.dtd">
<svg version="1.0" xmlns="http://www.w3.org/2000/svg"
 width="1024.000000pt" height="1024.000000pt" viewBox="0 0 1024.000000 1024.000000"
 preserveAspectRatio="xMidYMid meet">
<metadata>
Created by potrace 1.16, written by Peter Selinger 2001-2019
</metadata>
<g transform="translate(0.000000,1024.000000) scale(0.100000,-0.100000)"
fill="#000000" stroke="none">
<path d="M2845 7471 c-27 -10 -70 -28 -95 -41 -66 -33 -172 -144 -209 -218
-63 -125 -61 -66 -61 -1419 0 -859 3 -1248 11 -1285 18 -88 68 -177 143 -256
86 -90 175 -138 286 -152 105 -13 617 -13 681 1 81 18 111 56 203 263 44 99
88 184 100 192 18 12 193 14 1223 14 l1202 0 24 -22 c26 -25 177 -336 177
-365 0 -10 -9 -32 -19 -49 -37 -60 -54 -62 -576 -68 -258 -3 -533 -10 -610
-15 -902 -68 -1356 -191 -1559 -423 -198 -226 -181 -552 40 -772 104 -105 223
-168 394 -212 105 -27 407 -27 530 -1 116 25 237 66 359 123 101 47 103 47
129 30 121 -79 361 -169 567 -213 118 -25 149 -27 345 -27 173 0 229 3 285 17
214 54 359 191 401 378 33 145 -15 301 -128 412 -75 74 -134 107 -252 141
-217 63 -491 37 -760 -73 -123 -50 -260 -126 -492 -271 -321 -201 -427 -239
-674 -247 -185 -6 -267 8 -380 64 -97 48 -170 119 -198 196 -38 102 -24 171
51 254 141 153 455 247 1042 312 278 31 492 42 980 51 487 9 533 14 625 67 68
40 133 111 159 174 l24 57 276 4 c259 4 280 6 336 28 167 64 289 210 330 392
14 65 15 206 13 1318 l-3 1245 -22 57 c-65 170 -186 290 -341 338 -63 20 -97
20 -2286 20 -2117 -1 -2223 -2 -2271 -19z m4457 -272 c44 -9 62 -20 103 -63
31 -31 55 -67 63 -92 18 -62 30 -2363 12 -2457 -16 -86 -56 -142 -125 -177
-50 -25 -52 -25 -325 -25 l-275 0 -80 164 c-49 100 -95 178 -117 202 -48 50
-119 85 -199 99 -45 8 -432 10 -1279 8 l-1215 -3 -57 -23 c-92 -37 -139 -98
-227 -291 l-74 -162 -281 3 c-273 3 -282 4 -329 27 -59 29 -102 85 -116 152
-18 81 -15 2399 2 2467 25 94 79 151 163 171 60 14 4290 14 4356 0z m-970
-3960 c125 -27 200 -99 200 -194 0 -54 -21 -94 -72 -138 -69 -59 -129 -72
-325 -71 -195 0 -296 17 -506 85 -184 58 -181 53 -58 130 176 108 313 168 431
188 78 13 269 13 330 0z"/>
<path d="M3814 6565 c-231 -50 -430 -224 -504 -441 -48 -138 -46 -321 4 -460
58 -159 184 -303 327 -373 152 -74 82 -71 1487 -71 1065 0 1268 3 1326 15 244
52 454 255 511 496 21 92 19 239 -5 333 -55 217 -231 405 -451 482 l-84 29
-1275 2 c-1037 1 -1286 -1 -1336 -12z m278 -304 c108 -42 203 -152 234 -271
45 -176 -43 -360 -213 -446 -54 -27 -66 -29 -168 -29 -96 0 -116 3 -158 24
-79 39 -142 104 -184 188 -34 69 -37 82 -37 162 0 105 23 170 88 252 85 106
182 152 306 146 44 -3 98 -13 132 -26z m1576 22 c-84 -164 -111 -260 -111
-393 1 -114 21 -205 68 -307 19 -42 35 -77 35 -79 0 -2 -239 -4 -531 -4 -292
0 -529 3 -527 8 2 4 18 37 35 73 51 104 67 179 67 309 0 132 -16 205 -69 319
-19 40 -35 75 -35 77 0 2 241 4 536 4 295 0 534 -3 532 -7z m753 -13 c117 -36
222 -142 255 -258 24 -81 16 -202 -18 -274 -73 -158 -251 -256 -410 -228 -127
23 -236 107 -295 228 -25 51 -28 68 -28 157 0 88 3 106 27 155 53 107 167 208
262 231 58 13 144 9 207 -11z"/>
<path d="M3880 6028 c-55 -29 -84 -75 -84 -138 0 -88 61 -149 152 -151 56 -2
75 7 117 51 27 29 30 37 30 100 0 63 -3 72 -30 101 -33 34 -81 59 -118 59 -12
0 -43 -10 -67 -22z"/>
<path d="M6257 6036 c-48 -18 -76 -42 -93 -83 -21 -49 -17 -105 9 -143 37 -55
71 -74 131 -74 165 0 214 217 66 292 -51 25 -61 26 -113 8z"/>
</g>
</svg>
