<?xml version="1.0" standalone="no"?>
<!DOCTYPE svg PUBLIC "-//W3C//DTD SVG 20010904//EN"
 "http://www.w3.org/TR/2001/REC-SVG-20010904/DTD/svg10.dtd">
<svg version="1.0" xmlns="http://www.w3.org/2000/svg"
 width="1024.000000pt" height="1024.000000pt" viewBox="0 0 1024.000000 1024.000000"
 preserveAspectRatio="xMidYMid meet">
<metadata>
Created by potrace 1.16, written by Peter Selinger 2001-2019
</metadata>
<g transform="translate(0.000000,1024.000000) scale(0.100000,-0.100000)"
fill="#000000" stroke="none">
<path d="M4906 8649 c-44 -4 -129 -10 -190 -13 -61 -2 -129 -7 -151 -10 -22
-3 -78 -11 -125 -17 -128 -17 -286 -49 -370 -75 -41 -13 -84 -24 -95 -24 -21
0 -107 -26 -138 -41 -9 -5 -39 -16 -65 -25 -26 -9 -53 -21 -60 -27 -8 -6 -21
-12 -30 -13 -15 -2 -75 -26 -219 -91 -28 -13 -58 -23 -65 -23 -7 0 -26 -12
-43 -26 -16 -15 -50 -35 -74 -45 -24 -11 -57 -31 -73 -44 -16 -14 -35 -25 -42
-25 -15 0 -179 -112 -228 -156 -20 -18 -51 -40 -67 -49 -17 -8 -31 -19 -31
-23 0 -5 -28 -30 -62 -58 -34 -27 -85 -71 -113 -99 -29 -27 -63 -59 -76 -71
-22 -19 -129 -133 -201 -214 -17 -19 -45 -57 -63 -85 -19 -27 -52 -67 -74 -88
-23 -20 -41 -43 -41 -51 0 -7 -14 -29 -30 -47 -17 -19 -44 -58 -61 -86 -17
-29 -35 -55 -40 -59 -6 -3 -25 -36 -43 -72 -18 -37 -47 -92 -64 -122 -17 -30
-32 -61 -32 -69 0 -8 -22 -59 -50 -113 -27 -54 -50 -107 -50 -118 0 -10 -4
-22 -10 -25 -5 -3 -10 -16 -10 -27 0 -12 -6 -29 -13 -37 -8 -9 -33 -77 -56
-151 -24 -74 -47 -145 -52 -158 -5 -13 -9 -30 -9 -39 0 -9 -11 -39 -25 -68
-16 -34 -27 -84 -34 -146 -6 -52 -19 -155 -30 -230 -18 -128 -36 -390 -32
-469 1 -19 4 -84 5 -145 5 -186 39 -483 72 -630 8 -38 19 -97 24 -130 9 -70
29 -126 53 -153 10 -11 17 -35 17 -57 0 -20 11 -63 24 -94 13 -31 32 -83 42
-116 11 -33 24 -64 30 -70 7 -5 17 -35 24 -65 7 -30 30 -82 51 -115 21 -34 44
-76 50 -95 7 -19 20 -46 30 -59 11 -13 16 -27 14 -32 -7 -10 35 -77 64 -103
11 -11 21 -24 21 -29 0 -11 45 -74 107 -150 24 -29 55 -70 70 -92 75 -109 385
-439 438 -465 16 -8 55 -41 85 -74 30 -32 71 -68 90 -81 19 -13 63 -47 97 -76
34 -30 88 -67 120 -83 32 -17 75 -45 95 -63 43 -38 173 -103 205 -103 12 0 25
-4 28 -10 3 -5 15 -10 26 -10 12 0 43 -20 71 -44 46 -40 166 -96 206 -96 8 0
26 -7 40 -15 32 -18 161 -63 217 -75 22 -5 75 -23 118 -40 61 -24 81 -28 97
-20 11 6 20 7 20 2 0 -15 58 -35 109 -38 25 -1 80 -12 121 -24 46 -13 102 -21
145 -20 39 0 88 -2 110 -6 108 -16 326 -23 343 -10 8 6 17 5 24 -2 13 -13 122
-15 153 -3 10 4 31 3 47 -3 20 -7 33 -7 52 3 15 8 38 11 58 7 47 -9 195 19
219 40 18 16 64 24 146 24 11 0 24 7 27 15 4 10 20 15 53 14 77 0 180 17 202
34 7 6 20 12 30 13 57 9 86 18 119 37 26 16 54 22 96 22 54 1 61 4 86 33 20
24 35 32 59 32 17 0 46 8 64 17 18 10 50 22 72 28 29 7 41 16 45 35 6 23 10
25 54 22 56 -4 100 19 91 47 -3 11 4 25 19 38 34 30 66 46 66 34 0 -6 16 -4
38 5 63 27 67 31 67 52 1 19 104 116 114 107 2 -3 -7 -13 -20 -24 -32 -26 -18
-37 20 -15 22 13 27 21 20 30 -7 8 -6 15 2 20 7 4 17 0 23 -9 15 -19 35 -9 87
47 46 48 49 60 12 53 l-28 -5 29 24 c15 14 31 22 34 19 4 -3 0 -11 -8 -16 -11
-7 -5 -8 20 -3 19 4 45 18 58 31 15 16 30 23 42 20 14 -4 25 3 37 23 9 16 26
34 39 40 22 13 40 50 23 50 -14 0 -11 26 5 39 11 9 15 9 19 -1 5 -10 8 -9 16
4 6 9 24 19 40 23 31 7 82 66 63 73 -21 7 -13 19 16 25 19 4 33 17 46 44 11
22 21 32 23 25 3 -8 0 -19 -6 -25 -6 -6 -11 -15 -11 -21 0 -5 9 0 20 12 11 12
20 25 20 30 0 17 26 61 48 79 26 22 65 93 57 102 -4 3 -16 -6 -27 -22 -19 -27
-38 -36 -38 -18 0 12 58 71 79 80 67 29 110 73 92 95 -13 15 3 41 25 41 24 0
46 36 33 55 -8 13 -14 10 -34 -15 -14 -16 -25 -25 -25 -18 0 6 4 14 10 18 5 3
7 12 3 20 -3 11 4 17 24 21 29 6 73 57 73 85 0 8 -7 26 -14 42 -15 28 -9 36
11 16 17 -17 40 10 60 71 9 29 20 47 25 42 11 -11 -17 -96 -45 -134 -16 -22
-18 -31 -9 -40 9 -9 12 -8 12 5 0 9 4 17 9 17 5 0 19 20 31 45 12 25 25 47 30
50 5 3 11 23 15 45 4 22 11 42 16 46 5 3 9 23 9 44 0 28 5 40 18 44 28 9 46
45 31 62 -9 11 -9 18 -1 26 7 7 12 22 12 35 0 31 18 29 31 -4 11 -31 20 -23
38 32 7 22 19 57 28 78 21 49 10 57 -29 21 -24 -22 -29 -25 -23 -9 5 11 9 30
9 43 1 12 4 22 7 22 3 0 5 11 4 25 -3 27 35 75 60 75 8 0 15 5 15 11 0 5 -4 7
-10 4 -5 -3 -10 -4 -10 -1 0 3 11 11 25 19 25 13 25 13 7 30 -16 15 -17 22 -8
52 6 19 19 37 31 40 20 7 20 7 -1 13 -16 5 -19 10 -10 17 6 6 18 10 26 10 8 0
14 5 13 12 -1 6 5 35 14 65 15 48 21 79 23 131 1 9 6 17 12 17 5 0 8 7 4 15
-3 8 -1 27 4 41 7 17 7 32 0 44 -8 16 -6 22 15 36 34 22 50 51 36 68 -7 8 -7
24 -2 44 5 17 7 64 5 104 -7 107 -6 109 10 127 9 10 12 27 9 44 -3 15 0 33 6
41 16 19 3 64 -20 71 -10 4 -19 10 -19 15 0 5 7 7 15 4 12 -5 15 2 15 32 0 22
4 46 10 54 5 8 5 19 1 25 -5 5 -11 55 -14 111 -4 91 -3 102 14 112 25 16 24
47 -2 65 -17 12 -20 24 -18 63 1 27 -1 64 -5 82 -5 21 -4 38 4 47 9 10 7 20
-5 39 -10 14 -14 33 -11 42 3 8 2 24 -4 34 -13 24 -69 80 -80 80 -11 0 -34 40
-26 47 2 3 1 15 -4 28 -7 19 -6 22 10 18 30 -8 31 12 6 64 -14 27 -30 61 -35
76 -12 30 -34 29 -24 -1 4 -12 3 -14 -5 -7 -6 6 -13 28 -17 50 -6 36 -5 38 8
23 26 -33 30 -22 10 30 -8 21 -13 64 -14 119 0 23 -7 47 -15 54 -8 6 -14 20
-14 31 0 22 -28 80 -44 90 -22 15 -28 7 -23 -24 l6 -33 -15 28 c-8 15 -19 27
-25 27 -6 0 -8 4 -5 9 4 5 0 12 -6 15 -10 5 -10 7 0 12 17 8 15 34 -5 57 -13
15 -15 21 -5 24 21 8 14 51 -12 68 -13 9 -27 28 -31 43 -6 23 -8 24 -16 9 -7
-11 -6 -24 1 -37 6 -12 10 -26 7 -33 -2 -7 -10 -1 -17 13 -7 14 -18 28 -23 32
-6 4 -4 12 6 23 21 20 22 39 2 55 -8 7 -15 18 -15 26 0 19 -31 46 -45 40 -8
-3 -16 2 -19 11 -5 11 -2 14 9 9 25 -9 30 23 6 48 -11 12 -21 27 -21 32 0 5
-20 34 -45 64 -25 30 -45 61 -45 68 0 7 -19 22 -43 33 -41 20 -77 64 -77 95 0
8 -10 14 -24 14 -28 0 -39 13 -56 63 -7 23 -21 43 -36 49 -16 7 -24 20 -24 36
0 14 -11 32 -25 44 -14 11 -23 24 -19 29 3 5 -2 12 -10 15 -9 4 -16 18 -16 33
0 26 -11 40 -59 73 -19 13 -27 14 -42 5 -26 -16 -75 13 -71 42 2 15 -4 22 -22
27 -14 3 -24 10 -21 14 3 5 1 11 -5 15 -5 3 -10 14 -10 24 0 25 -45 65 -65 57
-22 -8 -50 8 -91 54 -25 27 -46 40 -74 45 -28 5 -46 16 -64 40 -14 18 -52 46
-83 62 -32 15 -68 38 -79 50 -12 13 -26 23 -32 23 -6 0 -26 13 -44 29 -29 25
-55 38 -93 47 -57 14 -121 47 -148 76 -32 35 -86 58 -134 58 -12 0 -51 15 -85
34 -35 18 -79 36 -98 40 -19 3 -59 16 -89 29 -40 16 -55 19 -58 10 -3 -9 -10
-10 -21 -4 -27 14 -252 46 -252 36 0 -3 12 -10 27 -16 21 -8 24 -12 13 -19
-20 -12 2 -36 48 -51 39 -12 105 -49 100 -55 -2 -2 -42 10 -89 26 -95 33 -179
39 -234 16 -40 -17 -42 -23 -17 -42 10 -8 12 -13 4 -14 -10 0 -10 -4 0 -20 11
-17 10 -22 -1 -29 -21 -13 -6 -28 49 -46 27 -9 52 -21 55 -26 8 -12 7 -12 -60
11 -71 24 -110 26 -101 5 3 -8 -3 -19 -13 -25 -10 -5 -22 -21 -25 -36 -5 -20
-12 -25 -26 -21 -25 7 -48 -19 -31 -36 9 -9 16 -9 31 1 17 10 22 8 42 -18 12
-16 30 -32 40 -36 10 -3 18 -10 18 -15 0 -6 -4 -7 -10 -4 -5 3 -26 3 -46 -1
-33 -6 -35 -8 -17 -18 28 -16 18 -49 -13 -43 -14 2 -27 0 -30 -5 -3 -5 -20 -6
-37 -2 l-32 7 25 -22 c24 -21 24 -22 2 -11 -13 6 -37 8 -55 4 -29 -6 -30 -7
-11 -21 15 -11 16 -15 5 -22 -15 -10 -7 -31 12 -31 7 0 29 -9 50 -20 20 -11
48 -20 61 -20 13 0 29 -6 35 -14 6 -7 22 -11 35 -9 13 3 32 0 43 -6 14 -9 10
-10 -21 -5 -28 5 -37 4 -32 -5 9 -15 3 -14 -40 4 -34 14 -127 16 -140 2 -4 -4
-1 -13 6 -22 19 -23 -10 -29 -86 -16 -51 9 -69 9 -81 0 -13 -11 -11 -15 9 -31
13 -9 43 -20 68 -24 25 -4 57 -15 72 -25 14 -11 35 -19 46 -19 19 0 80 -27 92
-41 10 -11 96 -39 120 -39 28 0 102 -34 145 -66 40 -30 171 -86 193 -82 9 1
43 -10 74 -25 31 -15 65 -27 75 -27 19 0 45 -24 55 -52 4 -8 20 -22 37 -29 17
-8 31 -17 31 -21 0 -4 16 -10 36 -14 21 -4 62 -27 97 -55 33 -27 76 -56 96
-65 22 -9 42 -29 51 -47 8 -18 28 -39 44 -47 17 -8 39 -24 50 -36 12 -12 31
-26 44 -33 12 -7 20 -16 17 -20 -7 -12 14 -27 46 -35 15 -3 35 -18 44 -33 10
-16 24 -32 32 -36 9 -6 10 -13 3 -27 -13 -24 -13 -53 -1 -45 6 3 15 -4 21 -15
6 -11 17 -20 25 -20 8 0 15 -9 15 -19 0 -11 14 -31 30 -44 17 -14 30 -34 30
-44 0 -31 38 -83 60 -83 11 0 23 -8 26 -17 13 -43 40 -87 56 -91 10 -2 18 -12
18 -22 0 -10 6 -25 14 -32 7 -8 16 -39 20 -69 6 -53 30 -89 60 -89 18 -1 45
-66 53 -128 3 -31 15 -71 26 -89 11 -19 27 -73 37 -121 26 -122 37 -163 48
-174 6 -6 8 -17 5 -24 -3 -8 2 -25 11 -39 10 -15 12 -26 6 -30 -12 -7 -4 -79
12 -112 6 -12 7 -34 4 -50 -16 -64 -18 -94 -5 -109 8 -10 13 -53 15 -124 1
-60 5 -114 9 -120 4 -6 1 -17 -5 -25 -7 -8 -14 -40 -15 -70 -2 -30 -11 -78
-20 -106 -10 -30 -15 -65 -12 -85 3 -19 -1 -56 -8 -82 -8 -26 -15 -57 -15 -69
0 -12 -12 -30 -27 -41 -26 -19 -29 -27 -36 -124 -2 -21 -6 -40 -10 -44 -4 -4
-7 -14 -7 -22 0 -8 -16 -48 -36 -88 -24 -50 -33 -80 -29 -95 5 -15 1 -25 -14
-35 -12 -9 -21 -21 -21 -28 0 -16 -47 -113 -71 -148 -11 -14 -19 -39 -19 -55
0 -19 -9 -38 -25 -53 -14 -13 -25 -29 -25 -35 0 -7 -9 -20 -19 -29 -10 -10
-24 -36 -30 -59 -10 -41 -39 -77 -93 -118 -16 -11 -28 -27 -28 -35 0 -8 -7
-14 -15 -14 -22 0 -95 -77 -95 -100 0 -11 -7 -20 -15 -20 -8 0 -15 -7 -15 -15
0 -8 -6 -15 -12 -15 -15 0 -58 -44 -73 -74 -6 -11 -25 -27 -43 -35 -17 -8 -32
-21 -32 -28 0 -7 -5 -13 -10 -13 -6 0 -15 -11 -21 -23 -6 -13 -32 -33 -57 -45
-48 -22 -126 -68 -217 -126 -27 -18 -93 -54 -145 -81 -52 -26 -107 -57 -121
-67 -14 -11 -51 -23 -81 -27 -38 -5 -66 -16 -88 -34 -17 -15 -40 -27 -51 -27
-11 0 -42 -10 -69 -21 -27 -12 -57 -19 -65 -15 -9 3 -29 -1 -45 -9 -16 -8 -44
-15 -62 -15 -19 0 -42 -6 -53 -14 -19 -12 -185 -31 -250 -27 -16 0 -59 -3 -95
-9 -117 -17 -236 -22 -277 -11 -22 6 -67 11 -99 11 -33 1 -86 5 -119 10 -33 5
-100 14 -150 20 -49 6 -94 15 -100 19 -21 15 -105 42 -114 36 -6 -3 -27 1 -48
10 -20 9 -52 16 -71 17 -18 1 -36 7 -40 13 -10 17 -47 35 -73 35 -25 0 -108
37 -124 55 -20 24 -74 55 -93 55 -12 0 -23 4 -27 9 -3 5 -22 15 -43 22 -20 6
-62 31 -92 54 -30 23 -79 54 -108 69 -57 29 -85 51 -178 141 -279 269 -273
264 -347 384 -16 25 -42 60 -57 76 -16 17 -39 49 -52 71 -49 89 -118 184 -133
184 -10 0 -15 9 -15 27 0 35 -36 152 -70 228 -15 33 -31 76 -35 95 -4 19 -13
44 -20 56 -7 11 -15 47 -18 80 -3 32 -10 79 -16 104 -19 70 -33 142 -36 180
-2 19 -8 68 -13 109 -6 41 -8 84 -5 95 3 12 3 39 1 61 -6 74 0 249 11 325 23
161 41 252 51 265 6 7 10 17 9 21 -2 5 2 34 9 64 6 30 13 71 15 90 2 19 12 53
21 74 10 22 20 56 23 75 5 42 11 59 41 121 12 25 22 50 22 55 0 6 11 32 25 59
14 27 25 57 25 65 0 9 11 33 25 53 14 20 25 41 25 46 0 13 49 100 60 107 5 3
16 27 24 53 12 33 27 55 54 74 21 15 60 60 87 100 27 40 53 75 57 76 4 2 8 9
8 16 0 17 139 157 175 176 16 8 49 35 75 60 79 77 178 160 190 160 22 0 212
134 223 157 5 13 20 24 31 25 40 2 43 3 57 14 8 7 24 15 36 18 11 4 27 13 33
21 7 8 22 15 33 15 37 0 97 23 97 37 0 9 6 12 18 9 10 -3 34 2 54 12 25 13 41
16 53 10 10 -6 21 -5 31 2 11 10 14 10 14 1 0 -7 5 -9 12 -5 27 17 317 67 374
65 27 -1 46 4 54 14 7 9 21 13 31 10 19 -6 89 21 89 35 0 5 -6 10 -12 13 -10
3 -10 7 1 20 12 15 11 17 -3 17 -9 0 -16 5 -16 10 0 6 -11 10 -24 10 -14 0
-28 5 -31 10 -3 6 -1 10 4 10 22 0 10 18 -19 29 -34 11 -37 22 -13 51 19 22
48 26 58 9 7 -11 62 -3 80 11 6 5 21 10 34 12 37 5 39 28 2 28 -35 0 -47 13
-26 30 20 16 20 41 0 34 -22 -9 -18 9 6 24 16 10 18 16 9 27 -16 19 -4 35 25
35 27 0 42 30 22 45 -22 16 -27 66 -10 92 12 18 13 26 3 38 -16 20 -5 45 20
45 11 0 20 5 20 10 0 6 13 10 29 10 40 0 44 28 8 59 -32 27 -24 46 23 56 43
10 54 28 43 74 -7 24 -7 45 -1 56 13 23 -23 61 -65 68 -18 3 -43 8 -57 10 -14
3 -61 1 -104 -4z m854 -889 c12 -8 11 -10 -5 -9 -11 1 -31 5 -45 9 -24 8 -24
8 5 9 17 0 37 -4 45 -9z m-900 -50 c0 -5 -7 -10 -15 -10 -8 0 -15 5 -15 10 0
6 7 10 15 10 8 0 15 -4 15 -10z m3452 -1495 c3 -13 1 -22 -3 -19 -9 5 -13 44
-5 44 2 0 6 -11 8 -25z m148 -326 c0 -10 -4 -19 -10 -19 -5 0 -10 12 -10 26 0
14 4 23 10 19 6 -3 10 -15 10 -26z m-4 -66 c-11 -11 -19 6 -11 24 8 17 8 17
12 0 3 -10 2 -21 -1 -24z m-66 -333 c0 -5 -2 -10 -4 -10 -3 0 -8 5 -11 10 -3
6 -1 10 4 10 6 0 11 -4 11 -10z m-26 -125 c-4 -8 -8 -15 -10 -15 -2 0 -4 7 -4
15 0 8 4 15 10 15 5 0 7 -7 4 -15z m-37 -417 c-3 -7 -5 -2 -5 12 0 14 2 19 5
13 2 -7 2 -19 0 -25z m-97 -138 c0 -5 -2 -10 -4 -10 -3 0 -8 5 -11 10 -3 6 -1
10 4 10 6 0 11 -4 11 -10z m240 6 c0 -3 -4 -8 -10 -11 -5 -3 -10 -1 -10 4 0 6
5 11 10 11 6 0 10 -2 10 -4z m-10 -50 c0 -16 -18 -31 -27 -22 -8 8 5 36 17 36
5 0 10 -6 10 -14z m-240 -36 c0 -5 -5 -10 -11 -10 -5 0 -7 5 -4 10 3 6 8 10
11 10 2 0 4 -4 4 -10z m200 -126 c0 -3 -5 -14 -10 -24 -6 -11 -13 -41 -16 -67
-6 -52 -10 -63 -24 -63 -12 0 -6 70 8 97 7 12 12 31 12 42 0 12 7 21 15 21 8
0 15 -3 15 -6z m-180 -544 c0 -5 -4 -10 -10 -10 -5 0 -10 5 -10 10 0 6 5 10
10 10 6 0 10 -4 10 -10z m40 -150 c0 -13 -7 -20 -20 -20 -19 0 -27 20 -13 33
13 14 33 6 33 -13z m-250 -145 c-7 -9 -15 -13 -17 -11 -6 6 20 36 26 30 2 -2
-2 -10 -9 -19z m-105 -15 c3 -5 -1 -10 -10 -10 -9 0 -13 5 -10 10 3 6 8 10 10
10 2 0 7 -4 10 -10z m191 -77 c-10 -10 -19 5 -10 18 6 11 8 11 12 0 2 -7 1
-15 -2 -18z m-6 -53 c0 -5 -5 -10 -11 -10 -5 0 -7 5 -4 10 3 6 8 10 11 10 2 0
4 -4 4 -10z m-290 -345 c-7 -9 -15 -13 -18 -10 -3 2 1 11 8 20 7 9 15 13 18
10 3 -2 -1 -11 -8 -20z m-235 -105 c-10 -11 -20 -18 -23 -15 -3 3 3 14 13 25
10 11 20 18 23 15 3 -3 -3 -14 -13 -25z m-58 -62 c-3 -8 -6 -5 -6 6 -1 11 2
17 5 13 3 -3 4 -12 1 -19z m183 -58 c0 -5 -5 -10 -11 -10 -5 0 -7 5 -4 10 3 6
8 10 11 10 2 0 4 -4 4 -10z m-25 -40 c-9 -14 8 -12 24 3 11 10 13 9 9 -2 -2
-8 -14 -21 -26 -29 -21 -14 -22 -13 -22 12 0 14 5 26 11 26 5 0 7 -4 4 -10z
m-85 -49 c0 -5 -7 -11 -14 -14 -10 -4 -13 -1 -9 9 6 15 23 19 23 5z m31 -29
c-5 -10 -17 -24 -25 -32 -13 -10 -16 -10 -16 3 0 9 10 23 22 31 29 20 31 20
19 -2z m-61 -12 c0 -5 -4 -10 -10 -10 -5 0 -10 5 -10 10 0 6 5 10 10 10 6 0
10 -4 10 -10z m-162 -175 c-43 -45 -58 -54 -58 -34 0 6 9 13 20 16 11 3 18 9
15 13 -6 10 33 50 50 50 9 0 -2 -18 -27 -45z m122 35 c0 -5 -2 -10 -4 -10 -3
0 -8 5 -11 10 -3 6 -1 10 4 10 6 0 11 -4 11 -10z m-130 -150 c0 -5 -4 -10 -10
-10 -5 0 -10 5 -10 10 0 6 5 10 10 10 6 0 10 -4 10 -10z m-200 -45 c0 -8 -7
-15 -15 -15 -16 0 -20 12 -8 23 11 12 23 8 23 -8z m10 -45 c0 -5 -5 -10 -11
-10 -5 0 -7 5 -4 10 3 6 8 10 11 10 2 0 4 -4 4 -10z m-230 -65 c-7 -9 -15 -13
-17 -11 -7 7 7 26 19 26 6 0 6 -6 -2 -15z m-260 -180 c-7 -8 -18 -15 -24 -15
-6 0 -2 7 8 15 25 19 32 19 16 0z m-45 -75 c-3 -5 -11 -10 -16 -10 -6 0 -7 5
-4 10 3 6 11 10 16 10 6 0 7 -4 4 -10z m-655 -274 c0 -11 -19 -15 -25 -6 -3 5
1 10 9 10 9 0 16 -2 16 -4z"/>
<path d="M8387 4240 c-3 -11 -1 -20 4 -20 5 0 9 2 9 4 0 2 3 11 6 20 3 9 2 16
-4 16 -5 0 -12 -9 -15 -20z"/>
<path d="M7800 3101 c0 -6 5 -13 10 -16 6 -3 10 1 10 9 0 9 -4 16 -10 16 -5 0
-10 -4 -10 -9z"/>
</g>
</svg>
