<?xml version="1.0" encoding="UTF-8" standalone="no"?><!DOCTYPE svg PUBLIC "-//W3C//DTD SVG 1.1//EN" "http://www.w3.org/Graphics/SVG/1.1/DTD/svg11.dtd"><svg width="100%" height="100%" viewBox="0 0 1024 1024" version="1.1" xmlns="http://www.w3.org/2000/svg" xmlns:xlink="http://www.w3.org/1999/xlink" xml:space="preserve" xmlns:serif="http://www.serif.com/" style="fill-rule:evenodd;clip-rule:evenodd;stroke-linejoin:round;stroke-miterlimit:2;"><path d="M512,0c282.58,0 512,229.42 512,512c0,282.58 -229.42,512 -512,512c-282.58,0 -512,-229.42 -512,-512c0,-282.58 229.42,-512 512,-512Zm125.43,682.76c1.47,3.36 5.71,3.36 12.29,2.05c17.56,-3.8 39.8,-4.1 43.61,1.17c3.66,5.41 -4.39,26.17 -13.9,41.38c-3.51,5.85 -4.98,9.5 -2.05,12.28c0.73,0.88 1.76,1.17 2.93,1.32c3.51,0 8.05,-3.51 12.29,-7.46c9.22,-8.04 16.39,-18.28 20.34,-29.83c3.95,-11.11 5.85,-26.76 1.76,-32.75c-3.95,-5.7 -19.32,-9.5 -31.17,-9.36c-12.44,0 -24.44,3.07 -35.27,8.77c-6.73,3.66 -12.87,7.75 -10.83,12.43Zm-122.4,-179.08l0.02,0.01c-0,-2.2 -1.61,-3.81 -3.81,-3.81l-23.42,0c-2.2,0 -3.81,1.61 -3.81,3.81l-0,66.67c-0,16.84 -6.15,25.62 -17.86,25.62c-10.54,0 -16.1,-7.61 -16.1,-21.52l-0,-70.77c-0,-2.2 -1.61,-3.81 -3.81,-3.81l-23.42,0c-2.2,0 -3.81,1.61 -3.81,3.81l-0,73.11c-0,29.42 13.46,47.42 35.42,47.42c13.75,0 24,-7.17 29.27,-20.78l1.17,0l2.93,14.34c0.51,2.35 1.76,3.81 4.1,3.81l19.32,0c2.2,0 3.81,-1.61 3.81,-3.81l0,-114.1Zm76.4,30.67l-0,0.01c0.29,2.34 2.05,3.33 4.39,2.93l21.08,-3.51c2.64,-0.44 3.52,-2.05 2.93,-4.68c-4.39,-18.81 -19.9,-31.84 -44.35,-31.84c-24.45,0 -44.06,13.32 -44.06,37.11c0,16.98 8.35,29.5 34.11,35.72l12.73,3.07c9.51,2.3 14.05,6.22 14.05,14.05c0,7.83 -6.44,12.66 -15.66,12.66c-10.09,0 -17.12,-6.15 -19.17,-18.96c-0.58,-3.22 -2.05,-4.32 -4.68,-3.81l-20.2,3.81c-2.34,0.44 -3.51,2.05 -3.22,4.39c3.51,26.49 23.42,38.93 47.28,38.93c26.2,0 45.81,-16.83 45.81,-39.81c0,-18.15 -9.08,-30.3 -30.3,-35.57l-17.13,-4.25c-9.08,-2.27 -13.47,-6.15 -13.47,-12.15c0,-6.44 5.57,-10.83 13.91,-10.83c8.34,0 14.49,4.68 15.95,12.73Zm-110.75,-100.94c14.49,0 25.03,-7.5 30.3,-20.2l1.17,0l2.93,13.76c0.51,2.35 1.83,3.81 4.1,3.81l19.32,0c2.2,0 3.81,-1.61 3.81,-3.81l0,-73.59c0,-30.56 -15.81,-46.95 -45.52,-46.95c-25.02,0 -42,11.46 -47.42,32.06c-0.74,2.78 0.58,4.83 3.07,5.27l20.35,3.51c2.48,0.44 3.95,-0.84 4.68,-3.51c2.64,-9.33 8.42,-14.2 17.2,-14.2c11.12,0 16.61,7.17 16.61,22.1l0,3.04c-3.37,-0.73 -7.47,-0.99 -12.15,-0.99c-32.79,0 -53.43,16.84 -53.43,43.11c0,21.81 14.05,36.59 34.98,36.59Zm11.85,-23.13c-9.07,0 -14.93,-6.59 -14.93,-16.98c0,-14.05 9.96,-22.94 25.91,-22.94c2.64,0 5.27,0.29 7.76,0.73l0,7.72c0,20.35 -6.59,31.47 -18.74,31.47Zm-179.83,266.34c1.01,3.08 3.37,6.87 6.88,11.26c44.93,55.42 117.22,79.69 187.03,79.69c61.03,0 120,-18.42 157.47,-50.88c6.44,-5.7 9.8,-10.24 9.8,-13.74c0,-1.46 -0.59,-2.63 -1.61,-3.8c-3.22,-3.36 -8.05,-0.88 -13.9,2.19c-34.83,18.28 -88.39,30.85 -145.32,30.85c-64.24,0 -133.03,-15.94 -185.12,-57.9c-4.97,-3.95 -10.39,-7.9 -14.05,-4.97c-1.32,1.02 -2.51,3.22 -1.17,7.31l-0.01,-0.01Zm339.61,-222.63c-9.95,0 -18.15,7.03 -18.15,18.15c0,11.12 8.2,18.15 18.15,18.15c9.95,0 18.15,-6.73 18.15,-18.15c0,-11.42 -8.2,-18.15 -18.15,-18.15Zm-350.67,43.25l-0.01,0c-13.47,0 -23.57,7.46 -28.84,20.78l-1.17,0l-2.93,-14.34c-0.48,-2.35 -1.9,-3.81 -4.1,-3.81l-19.32,0c-2.2,0 -3.81,1.61 -3.81,3.81l0,114.1c0,2.2 1.61,3.81 3.81,3.81l23.42,0c2.2,0 3.81,-1.61 3.81,-3.81l0,-65.94c0,-16.98 6,-26.2 17.42,-26.2c10.39,0 15.95,7.9 15.95,22.1l0,70.04c0,2.2 1.61,3.81 3.81,3.81l23.42,0c2.2,0 3.81,-1.61 3.81,-3.81l0,-65.94c0,-16.98 6,-26.2 17.42,-26.2c10.39,0 15.95,7.9 15.95,22.1l0,70.04c0,2.2 1.61,3.81 3.81,3.81l23.42,0c2.2,0 3.81,-1.61 3.81,-3.81l0,-72.38c0,-29.72 -13.32,-48.16 -35.28,-48.16c-13.32,0 -23.85,7.21 -32.49,21.96l-1.17,0c-5.56,-13.87 -16.25,-21.96 -30.74,-21.96Zm480.79,86.14l0,0.03c0.44,-2.49 -0.73,-4.1 -3.07,-4.54l-21.22,-3.81c-2.34,-0.44 -3.8,0.58 -4.39,3.07c-3.22,14.78 -9.66,21.37 -18.44,21.37c-13.46,0 -20.49,-13.83 -20.49,-38.79c0,-24.96 7.02,-38.72 20.49,-38.72c8.78,0 15.22,6.59 18.44,21.37c0.58,2.48 2.05,3.51 4.39,3.07l21.22,-3.81c2.34,-0.44 3.51,-2.05 3.07,-4.54c-5.27,-26.35 -24.59,-40.84 -47.13,-40.84c-30.15,0 -52.69,27.29 -52.69,63.45c0,36.16 22.54,63.53 52.69,63.53c22.54,0 41.86,-14.49 47.13,-40.84Zm-145.64,34.4c0,2.2 1.61,3.81 3.81,3.81l23.42,0c2.2,0 3.81,-1.61 3.81,-3.81l0,-114.1c0,-2.2 -1.61,-3.81 -3.81,-3.81l-23.42,0c-2.2,0 -3.81,1.61 -3.81,3.81l0,114.1Zm193.98,-311.35l-0.02,-0.01c-13.9,0 -24.44,7.51 -29.71,20.79l-1.17,0l-2.93,-14.34c-0.48,-2.35 -1.9,-3.81 -4.1,-3.81l-19.32,0c-2.2,0 -3.81,1.61 -3.81,3.81l0,114.1c0,2.2 1.61,3.81 3.81,3.81l23.42,0c2.2,0 3.81,-1.61 3.81,-3.81l0,-65.94c0,-16.98 6.44,-26.2 18.3,-26.2c10.83,0 16.83,7.9 16.83,22.1l0,70.04c0,2.2 1.61,3.81 3.81,3.81l23.42,0c2.2,0 3.81,-1.61 3.81,-3.81l0,-72.38c0,-29.72 -13.76,-48.16 -36.15,-48.16Zm-498.2,0l0,-0.01c-13.47,-0 -23.57,7.47 -28.84,20.79l-1.17,-0l-2.93,-14.34c-0.48,-2.35 -1.9,-3.81 -4.1,-3.81l-19.32,-0c-2.2,-0 -3.81,1.61 -3.81,3.81l0,114.1c0,2.2 1.61,3.81 3.81,3.81l23.42,-0c2.2,-0 3.81,-1.61 3.81,-3.81l0,-65.94c0,-16.98 6,-26.2 17.42,-26.2c10.39,-0 15.95,7.9 15.95,22.1l0,70.04c0,2.2 1.61,3.81 3.81,3.81l23.42,-0c2.2,-0 3.81,-1.61 3.81,-3.81l0,-65.94c0,-16.98 6,-26.2 17.42,-26.2c10.39,-0 15.95,7.9 15.95,22.1l0,70.04c0,2.2 1.61,3.81 3.81,3.81l23.42,-0c2.2,-0 3.81,-1.61 3.81,-3.81l0,-72.38c0,-29.72 -13.32,-48.16 -35.28,-48.16c-13.33,-0 -23.86,7.21 -32.5,21.96l-1.17,-0c-5.56,-13.87 -16.25,-21.96 -30.74,-21.96Zm-140.51,126.98c14.49,-0 25.03,-7.5 30.3,-20.2l1.17,-0l2.93,13.76c0.51,2.35 1.83,3.81 4.1,3.81l19.32,-0c2.2,-0 3.81,-1.61 3.81,-3.81l0,-73.59c0,-30.56 -15.81,-46.95 -45.52,-46.95c-25.02,-0 -42,11.46 -47.42,32.06c-0.74,2.78 0.58,4.83 3.07,5.27l20.35,3.51c2.48,0.44 3.95,-0.84 4.68,-3.51c2.64,-9.33 8.42,-14.2 17.2,-14.2c11.12,-0 16.61,7.17 16.61,22.1l0,3.04c-3.37,-0.73 -7.47,-0.99 -12.15,-0.99c-32.79,-0 -53.43,16.84 -53.43,43.11c0,21.81 14.05,36.59 34.98,36.59Zm11.86,-23.13c-9.07,-0 -14.93,-6.59 -14.93,-16.98c0,-14.05 9.96,-22.94 25.91,-22.94c2.64,-0 5.27,0.29 7.76,0.73l0,7.72c0,20.35 -6.59,31.47 -18.74,31.47Zm445.36,-40.36c0,36.26 22.53,63.45 52.69,63.45c30.16,-0 52.99,-27.15 52.99,-63.45c0,-36.3 -22.99,-63.49 -52.99,-63.49c-30,-0 -52.69,27.19 -52.69,63.49Zm52.69,38.6c-13.17,-0 -20.49,-13.73 -20.49,-38.61c0,-24.88 7.17,-38.64 20.49,-38.64c13.32,-0 20.78,13.79 20.78,38.64c0,24.85 -7.46,38.61 -20.78,38.61Zm-146.65,0.88l0,17.56c0,2.2 1.61,3.81 3.81,3.81l80.5,-0c2.2,-0 3.81,-1.61 3.81,-3.81l0,-16.98c0,-2.2 -1.47,-3.81 -3.81,-3.81l-48.41,-0l48.12,-70.19c1.32,-1.9 1.76,-3.51 1.76,-5.56l0,-17.56c0,-2.2 -1.61,-3.81 -3.81,-3.81l-76.99,-0c-2.2,-0 -3.81,1.61 -3.81,3.81l0,16.98c0,2.2 1.61,3.81 3.81,3.81l44.42,-0l-47.64,70.19c-1.17,1.75 -1.76,3.51 -1.76,5.56Z" style="fill:#ebebeb;"/></svg>