<?xml version="1.0" encoding="UTF-8" standalone="no"?><!DOCTYPE svg PUBLIC "-//W3C//DTD SVG 1.1//EN" "http://www.w3.org/Graphics/SVG/1.1/DTD/svg11.dtd"><svg width="100%" height="100%" viewBox="0 0 800 800" version="1.1" xmlns="http://www.w3.org/2000/svg" xmlns:xlink="http://www.w3.org/1999/xlink" xml:space="preserve" xmlns:serif="http://www.serif.com/" style="fill-rule:evenodd;clip-rule:evenodd;stroke-linejoin:round;stroke-miterlimit:2;"><path d="M800,204.133c0,-0.966 0.033,-2.1 0.033,-3.233c0,-24.767 -2.933,-48.833 -8.433,-71.867l0.433,2.1c-10.4,-43.033 -36.666,-78.633 -72.1,-101.033l-0.666,-0.4c-17.867,-11.667 -38.934,-20.133 -61.567,-24.1l-1,-0.133c-15.433,-2.8 -33.433,-4.6 -51.767,-5l-0.366,-0c-1.334,-0 -2.767,-0.334 -4.134,-0.434l-400.833,0c-5.067,0.334 -10,0.567 -15.167,0.867c-26.366,0.533 -51.4,5.367 -74.733,13.833l1.633,-0.5c-43.533,16.7 -77.566,49.834 -95.1,91.6l-0.4,1.1c-5.666,13.634 -9.9,29.5 -12,46l-0.1,0.934c-1.7,11.433 -2.9,25.033 -3.333,38.833l0,0.533c0,1.067 -0.233,2.067 -0.333,3.1l-0,407.467c0.333,4.667 0.566,9.433 0.9,14.133c0.666,28.7 6.733,55.767 17.2,80.534l-0.534,-1.434c20.3,45.467 59.134,79.567 106.634,93.067l1.166,0.3c12.567,3.7 27.234,6.4 42.367,7.567l0.733,0.033c18.5,1.767 37,2 55.567,2l367.6,-0c18.467,-0 36.633,-1.233 54.433,-3.567l-2.1,0.234c28.8,-3.2 54.834,-12.834 77.367,-27.434l-0.7,0.434c27.5,-17.967 49,-43 62.233,-72.534l0.434,-1.066c5.533,-12.767 9.833,-27.634 12.2,-43.1l0.133,-1.034c2.8,-17.966 4.4,-38.7 4.4,-59.8c0,-2.866 -0.033,-5.7 -0.1,-8.533l0,0.433l0,-379.9Zm-214.133,133l-0,190.4c0.033,0.834 0.033,1.8 0.033,2.767c0,13.567 -3,26.467 -8.4,38l0.233,-0.567c-9.1,18.734 -25.7,32.634 -45.766,37.9l-0.5,0.1c-10.534,3.134 -22.734,5.2 -35.334,5.767l-0.333,-0c-0.967,0.067 -2.067,0.067 -3.2,0.067c-34.433,-0 -62.367,-27.934 -62.367,-62.367c0,-24.7 14.367,-46.067 35.2,-56.167l0.367,-0.166c9.767,-4.667 21.167,-8.4 33.033,-10.667l0.9,-0.133c12.6,-2.734 25.267,-5.1 37.8,-8c8.8,-1.5 15.6,-8.4 17,-17.1l0,-0.1c0.434,-1.9 0.667,-4.067 0.667,-6.3l0,-181.6c-0.033,-2.2 -0.333,-4.334 -0.9,-6.334l0.033,0.167c-0.866,-4.467 -4.766,-7.833 -9.433,-7.833c-0.2,-0 -0.4,-0 -0.6,0.033l0.033,-0c-5.933,0.433 -11.333,1.2 -16.633,2.333l0.8,-0.133c-25.333,5 -50.667,10.067 -76,15.2l-123.333,24.933c-0.534,0 -1.067,0.334 -1.6,0.434c-7.4,1 -13.067,7.3 -13.067,14.9c0,0.5 0.033,1 0.067,1.5l-0,-0.067l-0,264.367c0.033,0.933 0.033,2.066 0.033,3.166c0,13.6 -2.633,26.567 -7.467,38.4l0.234,-0.7c-8.8,20.467 -26.4,35.734 -47.867,41.167l-0.5,0.1c-10.633,3.2 -22.9,5.267 -35.567,5.733l-0.266,0c-1.034,0.067 -2.234,0.1 -3.467,0.1c-30.433,0 -55.667,-22.166 -60.5,-51.2l-0.033,-0.366c-0.667,-3.4 -1.034,-7.267 -1.034,-11.267c0,-26.167 16.167,-48.6 39.067,-57.767l0.433,-0.133c10.5,-4.233 22.9,-7.8 35.734,-10.167l1.2,-0.166c9.566,-2 19.166,-3.867 28.666,-5.9c11.367,-1.667 20,-11.367 20,-23.1l0,-0.734l0,0.034l0,-301.334c0,-4.3 0.5,-8.466 1.467,-12.466l-0.067,0.366c2.2,-8.8 9.234,-15.533 18.067,-17.233l0.133,-0.033c8.5,-2.2 17.167,-3.734 25.8,-5.5c24.434,-5 48.867,-10 73.334,-14.8l75.666,-15.334c22.334,-4.466 44.667,-9 67,-13.333c6.034,-1.4 13.567,-2.633 21.234,-3.467l0.9,-0.066c0.6,-0.067 1.333,-0.134 2.033,-0.134c9,0 16.3,7.234 16.433,16.167c0.267,2.233 0.4,4.8 0.4,7.4l0,191.1l0.234,0.133Z" style="fill:#ebebeb;fill-rule:nonzero;"/></svg>