<?xml version="1.0" encoding="UTF-8" standalone="no"?><!DOCTYPE svg PUBLIC "-//W3C//DTD SVG 1.1//EN" "http://www.w3.org/Graphics/SVG/1.1/DTD/svg11.dtd"><svg width="100%" height="100%" viewBox="0 0 800 800" version="1.1" xmlns="http://www.w3.org/2000/svg" xmlns:xlink="http://www.w3.org/1999/xlink" xml:space="preserve" xmlns:serif="http://www.serif.com/" style="fill-rule:evenodd;clip-rule:evenodd;stroke-linejoin:round;stroke-miterlimit:2;"><path d="M11.033,379.267c0,-0 18.067,-2.967 25.5,4.8c7.434,7.766 2.567,23.866 -7.333,24.133c-9.867,0.333 -19,2.1 -25.467,-4.8c-2.401,-2.707 -3.728,-6.203 -3.728,-9.822c-0,-6.7 4.549,-12.604 11.028,-14.311m196.034,109.733c-1.734,0.333 -3.567,-0.567 -5.467,-1.933c-12.933,-18.067 -17.633,-79.767 -23.567,-83.434c-6.166,-3.8 -28.466,34.2 -72.866,30.1c-18.567,-1.7 -37.467,-13.733 -48.567,-22.066c1,-14 1.2,-46.767 28.833,-36.1c16.8,6.466 45.567,24.2 70.834,-7.667c27.933,-35.267 43.333,-25 52.566,-17.333c9.234,7.666 3.067,47.5 16.867,36.333c13.767,-11.133 69.4,-80.333 69.4,-80.333c0,-0 43.067,-43.434 49.667,2.233c6.566,45.667 34.666,96.267 42.1,94.833c7.433,-1.433 94.066,-177.5 106.5,-188.866c12.4,-11.367 54.166,-9.867 52.166,19.266c-2,29.134 -6.233,210.267 -6.233,210.267c-0,-0 -4.9,51.033 3.1,23.767c3.3,-11.334 6.867,-21.5 11.3,-33.434c25.63,-81.767 50.941,-163.635 75.933,-245.6l10.567,-36.333c0.902,-3.716 1.981,-7.387 3.233,-11c1.534,-5.133 2.534,-8.5 2.867,-9.4c0.8,-2.267 3.067,-4 6.267,-5.233c3.233,-2.034 6.666,-2.134 10.566,-2.234c10.067,-0.9 23,0.4 34.667,3.734c3.4,-0 7.067,1.233 10.567,3.733c3.5,2.5 0.2,-0 0.5,0.333c0.1,0 0.166,0 0.266,0.334c1.228,0.902 2.327,1.967 3.267,3.166c0.033,0 0.067,0 0.133,0.334c0.617,0.775 1.185,1.587 1.7,2.433c6.534,9.533 10.5,27.133 6.5,58.333c-10,77.834 -17.7,238 -17.7,238c0,0 -1.566,7.634 14.5,-26.1c0.567,-1.166 1.267,-2.2 1.934,-3.266c1.146,-0.789 2.168,-1.744 3.033,-2.834c9.933,-11.8 36.567,-18.766 55.033,-18.6c7.8,0.934 14.334,2.9 18.234,5.334c7.266,11.1 3,52.066 3,52.066c-15.4,1.434 -44.7,9.7 -55.1,11.234c-10.367,1.533 -26.167,69 -48.1,62.1c-21.934,-6.9 -70.834,-37.567 -70.834,-41.767c1.491,-20.793 3.18,-41.572 5.067,-62.333c-0.007,-0.156 -0.007,-0.312 -0,-0.467c0.733,-9.1 0.1,-13.067 -4.1,-4c-3.633,7.833 -19.367,57.867 -36.933,112.367c-1.867,4.766 -35.034,105.2 -39.4,117.433c-5.2,14.233 -9.567,25.1 -12.567,30.7c-4.6,6.233 -10.8,10.133 -19.433,7.533c-21.534,-6.533 -48.834,-36.333 -49.1,-43.666c-0.5,-41.7 2,-265.8 -8.067,-247.134c-10.367,19.167 -91,152.034 -91,152.034c-1.333,0.333 -2.333,0.333 -3.533,0.333c-5.734,-0.633 -14.567,-2.467 -17,-7.933c-0.134,-0.334 -0.334,-0.6 -0.434,-0.934l-0.466,-1.333c-1.1,-3.667 -1.534,-7.667 -2.5,-10.9c-4.856,-15.871 -10.001,-31.651 -15.434,-47.333c-9.3,-30.3 -18.866,-61.234 -20.433,-64.667c-3.067,-6.667 -7.567,-3.867 -11.567,0c-18,15.267 -56.233,82.667 -90.766,86.333" style="fill:#ebebeb;fill-rule:nonzero;"/></svg>