<?xml version="1.0" encoding="UTF-8" standalone="no"?><!DOCTYPE svg PUBLIC "-//W3C//DTD SVG 1.1//EN" "http://www.w3.org/Graphics/SVG/1.1/DTD/svg11.dtd"><svg width="100%" height="100%" viewBox="0 0 800 800" version="1.1" xmlns="http://www.w3.org/2000/svg" xmlns:xlink="http://www.w3.org/1999/xlink" xml:space="preserve" xmlns:serif="http://www.serif.com/" style="fill-rule:evenodd;clip-rule:evenodd;stroke-linejoin:round;stroke-miterlimit:2;"><path d="M488.933,800c-128.566,0 -231.166,-101.3 -231.166,-232.467c-0.185,-58.063 21.371,-114.143 60.4,-157.133l-157.134,157.133l-82.466,-82.466l177.3,-175.334c24,-24 36.333,-55.2 36.333,-89.6l0,-220.133l116.233,0l0,220.133c0,67.534 -24,124.667 -70.766,171.434l-5.2,5.2c42.759,-38.971 98.612,-60.532 156.466,-60.4c131.834,-0 232.5,104.533 232.5,231.166c0.002,0.346 0.003,0.691 0.003,1.036c-0,126.961 -104.473,231.433 -231.434,231.433c-0.356,0 -0.712,-0 -1.069,-0.002Zm0,-357.133c-70.766,-0 -125.966,58.433 -125.966,124.666c-0,68.167 55.833,126 126,126c69.435,0.257 126.829,-56.565 127.266,-126c0,-68.833 -57.166,-124.666 -127.3,-124.666Z" style="fill:#ebebeb;fill-rule:nonzero;"/></svg>