<?xml version="1.0" encoding="UTF-8" standalone="no"?><!DOCTYPE svg PUBLIC "-//W3C//DTD SVG 1.1//EN" "http://www.w3.org/Graphics/SVG/1.1/DTD/svg11.dtd"><svg width="100%" height="100%" viewBox="0 0 800 800" version="1.1" xmlns="http://www.w3.org/2000/svg" xmlns:xlink="http://www.w3.org/1999/xlink" xml:space="preserve" xmlns:serif="http://www.serif.com/" style="fill-rule:evenodd;clip-rule:evenodd;stroke-linecap:round;stroke-linejoin:round;"><circle cx="430" cy="255" r="55" style="fill:none;stroke:#ebebeb;stroke-width:16.67px;"/><circle cx="413.333" cy="530" r="68.333" style="fill:none;stroke:#ebebeb;stroke-width:16.67px;"/><path d="M433.333,200l-178.333,-20" style="fill:none;fill-rule:nonzero;stroke:#ebebeb;stroke-width:16.67px;"/><path d="M418.333,461.667l-221.666,-25" style="fill:none;fill-rule:nonzero;stroke:#ebebeb;stroke-width:16.67px;"/><path d="M490,376.667c91.667,-0 166.667,75 166.667,166.666c-0,91.667 -75,166.667 -166.667,166.667l-286.667,0c-35,0 -60,-31.667 -53.333,-66.667l116.667,-533.333c1.666,-10 11.666,-16.667 21.666,-16.667l196.667,0c78.333,0 140,63.334 140,141.667c0,75 -58.333,138.333 -135,141.667" style="fill:none;fill-rule:nonzero;stroke:#ebebeb;stroke-width:16.67px;"/></svg>