<?xml version="1.0" encoding="UTF-8" standalone="no"?><!DOCTYPE svg PUBLIC "-//W3C//DTD SVG 1.1//EN" "http://www.w3.org/Graphics/SVG/1.1/DTD/svg11.dtd"><svg width="100%" height="100%" viewBox="0 0 50 51" version="1.1" xmlns="http://www.w3.org/2000/svg" xmlns:xlink="http://www.w3.org/1999/xlink" xml:space="preserve" xmlns:serif="http://www.serif.com/" style="fill-rule:evenodd;clip-rule:evenodd;stroke-linejoin:round;stroke-miterlimit:2;"><rect id="Artboard1" x="0" y="0" width="49.214" height="50.019" style="fill:none;"/><clipPath id="_clip1"><rect x="0" y="0" width="49.214" height="50.019"/></clipPath><g clip-path="url(#_clip1)"><path d="M41.096,9.342c0.444,-2.574 1.095,-4.193 1.817,-4.196l0.002,0c1.346,0.005 2.437,5.618 2.437,12.549c-0,6.93 -1.093,12.548 -2.441,12.548c-0.552,0 -1.062,-0.954 -1.472,-2.552c-0.649,5.851 -1.995,9.874 -3.553,9.874c-1.205,-0 -2.287,-2.416 -3.014,-6.227c-0.496,7.247 -1.744,12.389 -3.203,12.389c-0.916,-0 -1.75,-2.038 -2.369,-5.355c-0.743,6.848 -2.46,11.647 -4.462,11.647c-2.002,-0 -3.722,-4.797 -4.462,-11.647c-0.614,3.317 -1.448,5.355 -2.369,5.355c-1.458,-0 -2.704,-5.142 -3.203,-12.389c-0.726,3.811 -1.805,6.227 -3.014,6.227c-1.556,-0 -2.904,-4.021 -3.552,-9.874c-0.408,1.603 -0.921,2.552 -1.473,2.552c-1.348,0 -2.44,-5.618 -2.44,-12.548c-0,-6.931 1.092,-12.549 2.44,-12.549c0.723,0 1.37,1.624 1.819,4.196c0.719,-4.438 1.886,-7.323 3.206,-7.323c1.568,-0 2.926,4.08 3.568,10.004c0.629,-4.312 1.583,-7.061 2.651,-7.061c1.497,0 2.77,5.407 3.241,12.948c0.887,-3.867 2.17,-6.292 3.591,-6.292c1.421,-0 2.704,2.427 3.59,6.292c0.473,-7.541 1.744,-12.948 3.241,-12.948c1.067,0 2.019,2.749 2.651,7.061c0.641,-5.924 1.999,-10.004 3.566,-10.004c1.316,-0 2.488,2.886 3.206,7.323Zm-40.257,7.119c-0,-3.098 0.619,-5.611 1.384,-5.611c0.765,0 1.384,2.513 1.384,5.611c0,3.098 -0.619,5.61 -1.384,5.61c-0.765,-0 -1.384,-2.512 -1.384,-5.61Zm45.231,-0c0,-3.098 0.62,-5.611 1.384,-5.611c0.765,0 1.385,2.513 1.385,5.611c-0,3.098 -0.62,5.61 -1.385,5.61c-0.764,-0 -1.384,-2.512 -1.384,-5.61Z" style="fill:#ebebeb;"/></g></svg>