<?xml version="1.0" encoding="UTF-8" standalone="no"?>
<!DOCTYPE svg PUBLIC "-//W3C//DTD SVG 1.1//EN" "http://www.w3.org/Graphics/SVG/1.1/DTD/svg11.dtd">
<svg width="100%" height="100%" viewBox="0 0 514 514" version="1.1" xmlns="http://www.w3.org/2000/svg" xmlns:xlink="http://www.w3.org/1999/xlink" xml:space="preserve" xmlns:serif="http://www.serif.com/" style="fill-rule:evenodd;clip-rule:evenodd;stroke-linejoin:round;stroke-miterlimit:2;">
    <g transform="matrix(1.28033,0,0,1.26248,-87.6527,-122.001)">
        <path d="M269.189,99.629C378.345,99.629 466.965,189.503 466.965,300.202C466.965,410.901 378.345,500.775 269.189,500.775C160.033,500.775 71.413,410.901 71.413,300.202C71.413,189.503 160.033,99.629 269.189,99.629ZM315.915,399.001C335.605,398.717 350.067,398.5 359.301,398.34C361.461,398.305 363.375,398.338 365.044,398.429C367.045,398.542 368.849,397.957 370.718,398.182C372.549,398.407 374.377,398.396 376.2,398.138C378.97,397.747 382.665,399.326 383.668,395.01C383.891,394.059 383.805,392.722 383.408,390.988C381.413,382.285 376.33,376.693 368.16,374.22C356.946,370.832 345.127,372.673 334.348,377.057L334.333,377.057C333.991,377.191 333.61,376.978 333.488,376.588C333.486,376.588 333.485,376.579 333.483,376.579C331.566,369.933 328.956,362.998 325.061,357.742C318.427,348.804 309.059,346.37 298.73,344.743C292.637,343.795 286.486,342.911 280.277,342.101C279.943,342.061 279.806,341.854 279.865,341.489C280.93,334.293 282.626,327.115 284.954,319.953C285.086,319.541 285.434,319.253 285.827,319.247C285.968,319.244 286.11,319.279 286.239,319.349C289.984,321.329 293.861,323.725 297.544,325.132C316.723,332.499 338.12,330.484 355.29,318.125C355.527,317.957 355.822,317.934 356.075,318.058C357.906,319.012 359.714,319.693 361.501,320.119C365.707,321.126 370.131,322.147 374.772,323.192C375.149,323.277 375.248,323.512 375.069,323.888C372.921,328.423 372.083,332.809 372.554,337.028C373.003,340.975 374.632,343.644 377.44,345.029C378.906,345.761 380.338,345.419 382.029,345.054C386.451,344.09 387.039,340.591 388.268,336.445C389.311,332.93 392.028,330.836 395.297,331.502C401.017,332.657 404.599,336.306 406.042,342.441C406.76,345.49 406.503,349.029 406.447,352.3C406.385,355.689 408.92,356.741 411.367,357.394C412.306,357.652 413.232,357.646 414.144,357.394C419.034,356.03 421.341,351.228 421.812,345.955C422.558,337.472 420.602,329.897 415.943,323.214C415.866,323.106 415.823,322.97 415.821,322.833C415.816,322.533 416.016,322.265 416.284,322.225C419.756,321.585 422.845,320.433 426.202,323.193C428.617,325.185 431.042,329.518 434.973,330.237C436.693,330.555 438.207,330.294 439.515,329.462C447.276,324.526 441.208,311.817 436.473,307.084C432.112,302.737 426.891,300.007 420.808,298.895C420.516,298.854 420.219,298.895 419.953,299.036C419.268,299.375 418.829,299.146 418.638,298.32C416.853,290.497 412.862,285.788 406.665,284.213C401.208,282.817 396.551,284.132 392.691,288.13C388.29,292.711 387.119,299.379 385.026,305.362C384.808,305.994 384.244,306.395 383.64,306.341C378.663,305.93 373.668,304.9 368.654,303.269C368.39,303.182 368.34,303.019 368.503,302.771C377.649,289.067 380.979,274.183 378.493,258.118C377.07,248.895 373.35,238.972 367.909,231.381C366.533,229.464 365.559,227.521 364.986,225.563C362.053,215.463 359.331,204.667 356.822,193.175C356.312,190.824 354.729,185.585 351.562,187.458C350.666,187.992 350.102,188.694 349.872,189.554C348.103,196.241 346.29,202.802 344.433,209.245C344.349,209.556 344.177,209.632 343.919,209.481C343.421,209.189 342.89,208.943 342.328,208.751C335.559,206.447 330.777,205.05 327.984,204.549C326.862,204.348 324.477,204.123 320.83,203.863C308.844,203.011 297.423,205.784 287.065,212.466C286.511,212.821 286.101,212.673 285.835,212.021C283.475,206.211 281.087,200.539 278.672,195.012C278.172,193.863 277.655,192.997 277.123,192.414C276.274,191.498 274.921,191.484 274.059,192.373C273.577,192.881 273.163,193.462 272.818,194.114C272.5,194.712 272.24,195.372 272.037,196.095C268.36,209.172 265.265,221.793 260.243,235.01C257.34,242.664 255.388,248.517 254.387,252.568C252.406,260.589 251.005,268.146 250.183,275.228C250.099,275.976 249.743,276.219 249.114,275.947C241.856,272.831 234.9,270.002 228.247,267.459C226.313,266.726 224.078,266.197 221.543,265.874C207.246,264.048 196.415,270.774 191.08,286.246C188.952,292.421 186.915,299.113 184.97,306.332C184.742,307.173 183.936,307.66 183.183,307.408C180.642,306.539 176.506,304.711 173.932,305.081C167.583,305.995 163.397,309.479 161.374,315.561C160.704,317.576 160.768,319.743 161.566,322.053C162.615,325.096 164.635,326.585 167.628,326.5C171.457,326.392 172.937,324.017 175.808,322.686C176.334,322.441 176.905,322.413 177.522,322.604C178.024,322.76 178.121,323.068 177.813,323.537C174.112,329.245 173.084,335.411 174.731,342.043C174.852,342.542 174.737,342.617 174.387,342.294C173.904,341.847 173.346,341.601 172.715,341.566C169.217,341.34 165.773,340.759 162.384,339.83C153.434,337.361 145.366,331.371 136.353,328.32C124.28,324.245 109.472,326.226 98.576,333.973C92.749,338.121 88.25,347.194 93.805,354.082C94.643,355.125 95.596,355.72 96.664,355.884C100.397,356.452 103.061,356.136 106.212,353.233C108.782,350.877 111.598,348.281 114.467,346.813C124.918,341.469 134.949,346.252 144.791,350.911C153.958,355.252 163.225,357.479 173.33,357.889C177.797,358.062 182.17,358.328 186.45,358.677C192.234,359.157 197.929,359.638 204.017,360.687C211.203,361.909 218.558,363.083 226.082,364.199C226.404,364.248 226.586,364.455 226.627,364.81L228.157,379.141C228.27,380.214 227.857,380.631 226.918,380.391C220.182,378.606 214.069,377.12 208.58,375.934C194.944,373.004 175.363,374.644 172.682,394.227C172.198,397.788 173.251,400.039 175.839,400.98L251.346,399.751C251.346,399.751 250.712,392.875 250.683,392.575C249.522,381.271 248.146,370.499 246.555,360.249C246.549,360.204 246.545,360.167 246.544,360.122C246.537,359.658 246.869,359.279 247.281,359.272L247.379,359.27C256.273,360.474 266.22,361.651 277.217,362.811C278.153,362.914 279.096,363.008 280.047,363.111C288.036,363.938 293.942,364.944 297.764,366.129C302.538,367.609 307.84,369.819 310.115,374.19C311.086,376.079 311.932,378.643 312.656,381.883C313.483,385.586 314.256,389.317 314.977,393.077L315.915,399.001ZM187.041,340.048C186.426,339.94 186.24,337.629 186.628,334.926C187.015,332.233 187.84,330.115 188.453,330.223C189.067,330.341 189.254,332.652 188.866,335.345C188.478,338.039 187.654,340.166 187.041,340.048ZM325.975,285.809C327.261,288.074 330.369,286.967 330.818,284.318C330.86,284.09 331.039,283.923 331.247,283.919C331.349,283.918 331.447,283.962 331.528,284.033C335.44,287.522 339.313,291.495 343.145,295.96C343.358,296.211 343.359,296.457 343.148,296.707C336.895,304.405 324.449,305.574 316.487,302.925C310.832,301.04 305.851,297.505 301.543,292.328C293.879,283.116 290.429,270.483 292.058,257.749C292.118,257.256 292.493,256.885 292.935,256.878C293.053,256.876 293.169,256.902 293.277,256.945C295.121,257.735 297.143,257.502 298.942,258.32C306.353,261.706 313.136,266.287 319.294,272.062C321.529,274.148 323.747,276.244 325.946,278.358C326.389,278.779 326.446,279.543 326.072,280.041C324.795,281.756 324.763,283.679 325.975,285.809ZM358.79,282.515L357.685,280.984C357.503,280.732 357.465,280.45 357.573,280.148C358.42,277.802 359.04,275.241 359.961,273.04C363.224,265.226 366.398,257.395 369.482,249.538C369.506,249.483 369.559,249.437 369.619,249.436C369.678,249.435 369.733,249.479 369.759,249.534C373.938,259.75 374.582,270.124 371.688,280.647C370.186,286.119 367.772,290.658 364.448,294.274C361.727,297.224 358.257,299.048 354.736,297.201C354.322,296.989 354.09,296.629 354.041,296.119C353.776,293.336 354.058,290.69 354.888,288.19C354.991,287.869 355.187,287.665 355.477,287.588C357.337,287.002 358.506,285.644 358.984,283.504C359.061,283.139 358.996,282.812 358.79,282.515ZM208.428,333.068C211.326,334.451 214.413,331.568 215.378,328.747C216.709,324.863 214.978,319.853 212.356,317.236C208.757,313.633 204.506,311.999 199.6,312.333C199.569,312.343 199.538,312.344 199.506,312.335C199.219,312.303 199.006,312.015 199.035,311.696C199.038,311.659 199.044,311.623 199.053,311.595C201.481,301.973 206.699,286.42 217.751,286.878C220.36,286.99 223.147,287.637 226.112,288.819C230.293,290.491 234.328,292.293 238.215,294.206C238.458,294.32 238.617,294.591 238.622,294.892C238.624,295.028 238.591,295.165 238.527,295.294C233.344,305.18 229.75,315.778 227.745,327.079C226.963,331.491 226.324,338.507 225.828,348.143C225.809,348.472 225.653,348.611 225.361,348.543C223.987,348.237 222.587,347.968 221.161,347.727C218,347.187 214.714,346.065 211.573,345.588C207.662,345.005 203.942,343.535 199.764,343.548C199.54,343.543 199.354,343.346 199.35,343.091C199.349,342.99 199.377,342.89 199.431,342.807C201.986,338.948 201.588,333.58 200.768,329.13C200.429,327.323 200.945,326.941 202.312,327.976C204.472,329.626 205.774,331.791 208.428,333.068Z" style="fill:rgb(255,0,0);"/>
    </g>
    <g transform="matrix(0.755882,0,0,0.755882,0,0)">
        <path d="M419.145,505.013L417.555,495.118C416.335,488.839 415.026,482.607 413.625,476.422C412.399,471.01 410.965,466.728 409.321,463.574C405.468,456.272 396.486,452.582 388.4,450.11C381.926,448.13 371.922,446.449 358.39,445.069C356.78,444.897 355.182,444.74 353.597,444.568C334.97,442.63 318.122,440.664 303.057,438.654L302.89,438.657C302.193,438.668 301.63,439.301 301.643,440.077C301.644,440.153 301.65,440.214 301.661,440.289C304.356,457.408 306.686,475.4 308.652,494.28C308.701,494.781 309.776,506.266 309.776,506.266L181.879,508.319C177.496,506.746 175.713,502.986 176.532,497.039C181.074,464.331 214.241,461.593 237.338,466.486C246.635,468.467 256.989,470.948 268.399,473.93C269.989,474.33 270.689,473.635 270.498,471.842L267.907,447.906C267.837,447.314 267.529,446.969 266.983,446.886C254.239,445.022 241.781,443.061 229.609,441.02C219.297,439.268 209.65,438.465 199.853,437.663C192.604,437.08 185.197,436.636 177.63,436.346C160.514,435.663 144.817,431.944 129.29,424.692C112.62,416.911 95.629,408.922 77.927,417.848C73.066,420.3 68.297,424.636 63.944,428.571C58.607,433.419 54.094,433.947 47.772,432.999C45.962,432.724 44.348,431.73 42.929,429.988C33.52,418.485 41.141,403.331 51.01,396.402C69.466,383.463 94.548,380.154 114.997,386.961C130.263,392.057 143.929,402.061 159.089,406.185C164.83,407.736 170.664,408.707 176.588,409.084C177.658,409.143 178.602,409.553 179.421,410.301C180.014,410.839 180.209,410.714 180.003,409.881C177.214,398.804 178.955,388.506 185.224,378.973C185.745,378.188 185.581,377.674 184.73,377.413C183.686,377.096 182.719,377.141 181.828,377.551C176.964,379.775 174.458,383.74 167.971,383.92C162.902,384.063 159.48,381.577 157.704,376.493C156.352,372.635 156.244,369.016 157.379,365.65C160.806,355.493 167.896,349.674 178.649,348.147C183.011,347.529 190.016,350.582 194.319,352.034C195.595,352.455 196.96,351.642 197.346,350.236C200.641,338.179 204.091,327.002 207.695,316.689C216.733,290.847 235.079,279.613 259.295,282.663C263.589,283.203 267.375,284.085 270.65,285.311C281.92,289.557 293.701,294.283 305.995,299.486C307.061,299.941 307.664,299.536 307.806,298.286C309.198,286.457 311.572,273.837 314.926,260.44C316.622,253.672 319.929,243.897 324.845,231.114C333.353,209.039 338.595,187.959 344.823,166.117C345.167,164.91 345.608,163.807 346.145,162.81C346.73,161.72 347.431,160.75 348.248,159.9C349.708,158.416 352,158.44 353.437,159.969C354.339,160.944 355.215,162.39 356.062,164.309C360.152,173.539 364.196,183.014 368.194,192.717C368.644,193.805 369.339,194.053 370.277,193.46C387.823,182.3 407.167,177.668 427.47,179.092C433.648,179.526 437.686,179.902 439.587,180.237C444.319,181.074 452.418,183.408 463.883,187.256C464.835,187.576 465.734,187.987 466.579,188.476C467.016,188.727 467.307,188.601 467.45,188.081C470.595,177.32 473.665,166.362 476.662,155.192C477.052,153.756 478.006,152.584 479.525,151.692C484.888,148.563 487.57,157.314 488.433,161.241C492.685,180.434 497.294,198.465 502.263,215.335C503.233,218.605 504.883,221.85 507.213,225.053C516.43,237.731 522.73,254.305 525.14,269.709C529.352,296.541 523.712,321.4 508.22,344.288C507.944,344.703 508.029,344.976 508.475,345.121C516.967,347.845 525.429,349.565 533.858,350.251C534.882,350.341 535.837,349.672 536.206,348.616C539.752,338.624 541.736,327.486 549.189,319.835C555.727,313.157 563.617,310.962 572.859,313.293C583.356,315.924 590.116,323.788 593.139,336.854C593.464,338.234 594.207,338.617 595.367,338.051C595.817,337.816 596.32,337.747 596.815,337.815C607.118,339.673 615.963,344.232 623.349,351.493C631.37,359.397 641.647,380.624 628.501,388.868C626.286,390.258 623.721,390.694 620.809,390.163C614.151,388.961 610.042,381.724 605.951,378.397C600.266,373.787 595.033,375.712 589.153,376.78C588.698,376.848 588.36,377.295 588.368,377.797C588.372,378.025 588.444,378.252 588.574,378.433C596.467,389.595 599.779,402.246 598.515,416.416C597.718,425.222 593.81,433.242 585.528,435.521C583.982,435.941 582.415,435.951 580.824,435.52C576.679,434.43 572.386,432.673 572.491,427.012C572.585,421.548 573.02,415.638 571.803,410.546C569.36,400.3 563.293,394.205 553.604,392.276C548.066,391.163 543.465,394.66 541.699,400.531C539.617,407.456 538.621,413.3 531.131,414.911C528.267,415.52 525.841,416.091 523.357,414.868C518.601,412.556 515.842,408.097 515.082,401.506C514.283,394.459 515.703,387.133 519.341,379.559C519.645,378.93 519.476,378.538 518.839,378.396C510.977,376.65 503.483,374.945 496.359,373.264C493.333,372.552 490.269,371.414 487.169,369.821C486.74,369.615 486.24,369.653 485.839,369.933C456.756,390.575 420.514,393.941 388.027,381.636C381.789,379.287 375.222,375.284 368.878,371.978C368.659,371.86 368.42,371.803 368.181,371.807C367.516,371.817 366.925,372.298 366.701,372.987C362.759,384.948 359.887,396.937 358.083,408.955C357.982,409.565 358.214,409.911 358.78,409.978C369.298,411.331 379.716,412.807 390.036,414.391C407.531,417.107 423.4,421.174 434.636,436.101C441.234,444.881 445.655,456.464 448.903,467.564C448.905,467.564 448.908,467.579 448.91,467.579C449.116,468.23 449.762,468.585 450.341,468.362L450.367,468.362C468.624,461.04 488.644,457.965 507.639,463.624C521.478,467.753 530.087,477.094 533.466,491.63C534.138,494.525 534.284,496.759 533.907,498.348C532.207,505.556 525.949,502.918 521.257,503.572C518.169,504.002 515.073,504.021 511.971,503.645C508.805,503.269 505.751,504.247 502.36,504.057C499.534,503.905 496.292,503.851 492.633,503.909C476.992,504.176 452.496,504.538 419.145,505.013ZM237.08,394.891C232.585,392.758 230.379,389.141 226.721,386.385C224.405,384.658 223.532,385.296 224.106,388.314C225.495,395.747 226.168,404.713 221.84,411.157C221.749,411.295 221.701,411.463 221.704,411.631C221.711,412.057 222.026,412.386 222.404,412.395C229.482,412.373 235.783,414.828 242.408,415.802C247.728,416.599 253.294,418.472 258.647,419.375C261.063,419.778 263.435,420.227 265.762,420.737C266.257,420.851 266.52,420.618 266.553,420.07C267.393,403.975 268.476,392.258 269.799,384.888C273.196,366.013 279.284,348.312 288.063,331.801C288.172,331.586 288.227,331.357 288.223,331.129C288.215,330.627 287.946,330.174 287.535,329.983C280.95,326.787 274.116,323.778 267.034,320.986C262.011,319.013 257.291,317.932 252.872,317.744C234.152,316.98 225.313,342.956 221.201,359.027C221.186,359.073 221.176,359.134 221.171,359.195C221.121,359.728 221.481,360.209 221.968,360.263C222.021,360.277 222.075,360.276 222.128,360.26C230.436,359.701 237.638,362.43 243.734,368.448C248.175,372.82 251.107,381.186 248.852,387.673C247.218,392.386 241.988,397.201 237.08,394.891ZM491.767,310.456C492.117,310.953 492.226,311.499 492.096,312.11C491.286,315.683 489.306,317.951 486.155,318.93C485.664,319.059 485.332,319.399 485.158,319.935C483.753,324.111 483.275,328.531 483.723,333.179C483.807,334.03 484.2,334.632 484.901,334.986C490.864,338.07 496.743,335.024 501.352,330.097C506.982,324.057 511.069,316.476 513.615,307.337C518.516,289.761 517.426,272.434 510.346,255.371C510.304,255.28 510.211,255.206 510.109,255.207C510.009,255.209 509.918,255.287 509.877,255.379C504.653,268.501 499.278,281.581 493.751,294.632C492.191,298.308 491.141,302.585 489.707,306.503C489.524,307.008 489.587,307.479 489.896,307.9L491.767,310.456ZM200.854,406.549C201.893,406.745 203.289,403.193 203.946,398.694C204.602,394.196 204.286,390.336 203.246,390.14C202.207,389.959 200.81,393.496 200.154,397.994C199.497,402.509 199.813,406.368 200.854,406.549ZM436.185,315.958C434.132,312.401 434.186,309.19 436.348,306.325C436.982,305.493 436.886,304.217 436.136,303.514C432.41,299.983 428.654,296.483 424.868,292.999C414.438,283.353 402.948,275.702 390.396,270.046C387.349,268.68 383.922,269.07 380.8,267.75C380.616,267.677 380.42,267.635 380.221,267.638C379.472,267.65 378.837,268.269 378.735,269.092C375.977,290.36 381.82,311.46 394.8,326.847C402.098,335.493 410.535,341.398 420.114,344.546C433.6,348.97 454.681,347.019 465.273,334.16C465.629,333.743 465.627,333.332 465.268,332.912C458.776,325.455 452.217,318.82 445.59,312.993C445.453,312.873 445.286,312.8 445.115,312.803C444.763,312.808 444.459,313.087 444.388,313.469C443.627,317.893 438.363,319.742 436.185,315.958Z" style="fill:white;"/>
    </g>
</svg>
