<svg xml:space="preserve" fill="#ebebeb" style="fill-rule:evenodd;clip-rule:evenodd;stroke-linecap:round;stroke-linejoin:round;stroke-miterlimit:1.5" viewBox="0 0 365 305" xmlns="http://www.w3.org/2000/svg"><path d="M247.2 383c5.5 1.6 11.7 6.8 14.6 12.4 2.1 4 2.7 6.9 3.1 15l.6 10.1 16.5.6c13.5.4 17.5.9 21.8 2.6 7.7 3.1 14.2 7.6 20.5 14.1 10.1 10.6 14.9 23.7 15 40.7.2 26.9-13.1 46.6-37.5 55.7-7.5 2.7-9.7 3.1-22.3 3.4l-14 .4-.6 14.8c-1 25.5-5.7 38-19.4 51.8-6.6 6.7-9.7 8.9-17.5 12.8-15.1 7.4-17.3 7.6-75.1 7.6-57.2 0-59.6-.2-74.4-7.5-19.9-9.8-32.7-27.1-36.4-49-.9-5.1-1.2-28.7-.9-88 .3-76.8.4-81.2 2.2-84.5 3.5-6.6 8.7-11 15.6-13.1 4-1.2 183.9-1.1 188.2.1M265 521.2l13.8-.4c12.9-.3 14.1-.5 20.4-3.5 15.7-7.4 23.8-20.5 23.8-38.2 0-16.1-6.1-28.5-17.8-36-6.9-4.4-14.7-6.1-28.4-6.1H265zM63.5 398.9c-1.1.5-2.8 1.8-3.8 2.8-1.6 1.9-1.7 6.8-1.5 86l.3 83.9 3.9 8c7.1 14.4 20.3 24.5 36.3 27.9 10 2.1 98.7 2.1 108.8 0 19.2-4.1 34.3-18 39-36 1.3-5.1 1.5-17.3 1.5-86.5 0-89.5.4-84-6.8-86-4.5-1.2-174.7-1.3-177.7-.1m67.5 42.3c5.5 1.7 13.1 5.7 17.7 9.4 2.3 1.9 4.4 3.4 4.6 3.4.3 0 2.5-1.6 4.9-3.7 2.3-2 7.2-5 10.8-6.7 5.9-2.8 7.4-3.1 16.5-3.1s10.6.3 16.6 3.1c22.2 10.5 31.2 37.9 19.9 60.4-3.1 6.2-61.2 64.6-65.7 66.1-6.6 2.1-8.5.7-40.2-31-24.5-24.4-30.2-30.6-32.4-35.2-8.3-17.7-5.5-37.2 7.4-51.3 10.3-11.3 25.6-15.6 39.9-11.4m-15.5 15.7c-11.3 2.9-18.4 12.4-19.3 25.6-.9 13.6 1 15.9 48.1 61.5l8.7 8.5 26-26c28.7-28.6 31.1-31.9 31.2-41.8.2-15.8-10.5-27.7-24.8-27.7-8.3.1-13.1 2.6-21.8 11.5-9.7 10-10.9 10-20.2.4-9.9-10.2-19.3-14.2-27.9-12" style="stroke:#fff;stroke-width:1px" transform="translate(0 -348)"/></svg>