<?xml version="1.0" encoding="UTF-8" standalone="no"?><!DOCTYPE svg PUBLIC "-//W3C//DTD SVG 1.1//EN" "http://www.w3.org/Graphics/SVG/1.1/DTD/svg11.dtd"><svg width="100%" height="100%" viewBox="0 0 72 72" version="1.1" xmlns="http://www.w3.org/2000/svg" xmlns:xlink="http://www.w3.org/1999/xlink" xml:space="preserve" xmlns:serif="http://www.serif.com/" style="fill-rule:evenodd;clip-rule:evenodd;stroke-linejoin:round;stroke-miterlimit:2;"><g><path d="M8,72c-4.418,0 -8,-3.582 -8,-8l0,-56c-0,-4.418 3.582,-8 8,-8l56,0c4.418,-0 8,3.582 8,8l0,56c0,4.418 -3.582,8 -8,8l-56,0Zm54,-10l0,-21.949c0,-9.287 -5.264,-13.777 -12.617,-13.777c-7.357,0 -10.453,5.729 -10.453,5.729l0,-4.67l-10.297,0l0,34.667l10.297,0l0,-18.198c0,-4.876 2.245,-7.777 6.541,-7.777c3.949,-0 5.845,2.788 5.845,7.777l-0,18.198l10.684,0Zm-50.967,0l10.736,0l0,-34.667l-10.736,0l-0,34.667Zm5.316,-39.206c3.508,0 6.348,-2.864 6.348,-6.397c0,-3.533 -2.84,-6.397 -6.348,-6.397c-3.507,0 -6.349,2.864 -6.349,6.397c0,3.533 2.842,6.397 6.349,6.397Z" style="fill:#ebebeb;"/></g></svg>