<?xml version="1.0" encoding="UTF-8" standalone="no"?><!DOCTYPE svg PUBLIC "-//W3C//DTD SVG 1.1//EN" "http://www.w3.org/Graphics/SVG/1.1/DTD/svg11.dtd"><svg width="100%" height="100%" viewBox="0 0 174 186" version="1.1" xmlns="http://www.w3.org/2000/svg" xmlns:xlink="http://www.w3.org/1999/xlink" xml:space="preserve" xmlns:serif="http://www.serif.com/" style="fill-rule:evenodd;clip-rule:evenodd;stroke-linejoin:round;stroke-miterlimit:2;"><path d="M169.446,111.27c-2.545,13.093 -22.794,27.422 -46.05,30.199c-12.127,1.447 -24.067,2.777 -36.799,2.193c-20.822,-0.954 -37.252,-4.97 -37.252,-4.97c-0,2.027 0.125,3.957 0.375,5.762c2.707,20.549 20.376,21.78 37.113,22.354c16.893,0.578 31.935,-4.165 31.935,-4.165l0.694,15.272c-0,-0 -11.816,6.345 -32.865,7.512c-11.607,0.638 -26.019,-0.292 -42.805,-4.735c-36.406,-9.636 -42.667,-48.443 -43.625,-87.819c-0.292,-11.691 -0.112,-22.715 -0.112,-31.935c-0,-40.264 26.381,-52.066 26.381,-52.066c13.302,-6.109 36.127,-8.678 59.856,-8.872l0.583,0c23.729,0.194 46.569,2.763 59.87,8.872c-0,-0 26.38,11.802 26.38,52.066c-0,-0 0.331,29.707 -3.679,50.332Zm-27.438,-47.208c-0,-9.964 -2.537,-17.882 -7.632,-23.74c-5.256,-5.858 -12.138,-8.861 -20.68,-8.861c-9.885,-0 -17.37,3.799 -22.318,11.398l-4.812,8.065l-4.811,-8.065c-4.949,-7.599 -12.434,-11.398 -22.318,-11.398c-8.543,-0 -15.425,3.003 -20.68,8.861c-5.096,5.858 -7.633,13.776 -7.633,23.74l-0,48.753l19.315,-0l-0,-47.32c-0,-9.975 4.197,-15.038 12.592,-15.038c9.282,-0 13.935,6.006 13.935,17.882l-0,25.901l19.201,-0l-0,-25.901c-0,-11.876 4.652,-17.882 13.934,-17.882c8.395,-0 12.592,5.063 12.592,15.038l-0,47.32l19.315,-0l-0,-48.753Z" style="fill:#ebebeb;"/></svg>