<?xml version="1.0" encoding="UTF-8" standalone="no"?><!DOCTYPE svg PUBLIC "-//W3C//DTD SVG 1.1//EN" "http://www.w3.org/Graphics/SVG/1.1/DTD/svg11.dtd"><svg width="100%" height="100%" viewBox="0 0 800 800" version="1.1" xmlns="http://www.w3.org/2000/svg" xmlns:xlink="http://www.w3.org/1999/xlink" xml:space="preserve" xmlns:serif="http://www.serif.com/" style="fill-rule:evenodd;clip-rule:evenodd;stroke-linejoin:round;stroke-miterlimit:2;"><path d="M731.625,635.4c-5.075,0 -10.275,-1.525 -14.825,-4.525c-12.225,-8.325 -15.5,-25 -7.425,-37c24.625,-36.425 37.5,-79.275 37.5,-123.925c0,-44.525 -12.875,-87.5 -37.5,-123.975c-8.325,-12.375 -4.8,-28.9 7.175,-36.975c12.5,-8.225 29.025,-4.825 36.975,7.125c30.5,45.6 46.5,98.975 46.5,154.025c0,54.975 -16,108.475 -46.5,153.925c-4.525,8.075 -13,11.975 -21.475,11.975l-0.425,-0.65Zm-76.3,-43.075c-5.075,0 -10.275,-1.575 -14.825,-4.7c-12.225,-7.925 -15.375,-24.475 -7.175,-36.475c16.275,-24.1 24.875,-51.575 24.875,-81c0,-28.5 -8.6,-56.5 -24.875,-80.975c-8.2,-12.125 -5.075,-28.525 7.175,-36.6c12.375,-7.925 28.5,-4.925 36.825,7.575c22.275,32.925 34.125,71.475 34.125,110.4c-0,40.1 -11.875,78 -34.125,110.575c-4.8,7.925 -13.525,11.975 -22,11.975l0,-0.775Zm-124.325,-238.55c-10.425,-106.5 -100.525,-189.975 -210.025,-189.975c-90.625,-0 -170.975,58.325 -199.725,142.825c-68.225,10.025 -121.225,69.025 -121.225,139.975c-0,78.125 63.675,141.8 142.075,141.8l363.525,0c65.5,0 118.875,-53.1 118.875,-118.475c-0,-56.9 -39.975,-104.3 -93.475,-116.025l-0.025,-0.125Zm-25.4,181.625l-363.525,-0c-48.825,-0 -88.925,-39.7 -88.925,-88.675c0,-48.8 39.7,-88.525 88.925,-88.525c23.7,-0 46.1,9.5 62.875,26.025c10.025,10.425 27.1,10.425 37.5,0c10.025,-10 10.025,-27.075 0,-37.5c-18.475,-18.1 -41,-31.1 -65.475,-37.1c25,-55.475 80.975,-92.425 143.475,-92.425c87,-0 158.075,70.975 158.075,157.925c0,17.075 -2.6,33.6 -8.075,49.475c-4.425,14.075 3,29.025 17.075,34.125c2.475,0.9 5.475,1.425 7.925,1.425c11.075,-0 21.5,-7.025 25,-17.975c3.525,-10.575 6,-20.975 7.575,-32.025c24.475,9.5 41.925,33.475 41.925,61.075c0,36.425 -29.425,65.875 -65.5,65.875l1.15,-1.7Z" style="fill:#ebebeb;fill-rule:nonzero;"/></svg>