<svg xml:space="preserve" fill="#ebebeb" style="fill-rule:evenodd;clip-rule:evenodd;stroke-linejoin:round;stroke-miterlimit:2" viewBox="0 0 800 800" xmlns="http://www.w3.org/2000/svg"><path d="M12 2.25A9.75 9.75 0 0 0 2.25 12 9.75 9.75 0 0 0 12 21.75 9.75 9.75 0 0 0 21.75 12 9.75 9.75 0 0 0 12 2.25M3.75 12a8.25 8.25 0 1 1 5.789 7.877 9.3 9.3 0 0 0 1-2.128l.516-1.977a2.24 2.24 0 0 0 1.906.95c2.535 0 4.317-2.304 4.317-5.166 0-2.749-2.245-4.803-5.124-4.803-3.587 0-5.492 2.41-5.492 5.029 0 1.223.647 2.737 1.686 3.224.154.071.255 0 .279-.113s.166-.682.231-.943a.25.25 0 0 0 0-.127.25.25 0 0 0-.059-.111 3.22 3.22 0 0 1-.594-1.894 3.6 3.6 0 0 1 3.753-3.61 3.27 3.27 0 0 1 2.483.926 3.27 3.27 0 0 1 .99 2.458c0 2.244-1.14 3.806-2.612 3.806a1.2 1.2 0 0 1-1.009-.43 1.18 1.18 0 0 1-.226-1.072c.084-.351.196-.711.304-1.063.197-.638.385-1.245.385-1.704a1.036 1.036 0 0 0-.614-1.099 1.05 1.05 0 0 0-.437-.089c-.832 0-1.503.867-1.503 2.019-.006.407.071.811.226 1.188l-.98 4.156a7.9 7.9 0 0 0-.001 2.37 8.26 8.26 0 0 1-4.201-3.715 8.3 8.3 0 0 1-.58-1.314A8.2 8.2 0 0 1 3.75 12" style="fill:#fff" transform="scale(33.3333)"/></svg>