<?xml version="1.0" encoding="UTF-8" standalone="no"?><!DOCTYPE svg PUBLIC "-//W3C//DTD SVG 1.1//EN" "http://www.w3.org/Graphics/SVG/1.1/DTD/svg11.dtd"><svg width="100%" height="100%" viewBox="0 0 800 800" version="1.1" xmlns="http://www.w3.org/2000/svg" xmlns:xlink="http://www.w3.org/1999/xlink" xml:space="preserve" xmlns:serif="http://www.serif.com/" style="fill-rule:evenodd;clip-rule:evenodd;stroke-linecap:round;"><path d="M586.133,656.192c-132.976,96.604 -320.184,74.446 -426.933,-50.534c-48.952,-57.319 -75.865,-130.275 -75.865,-205.652c0,-173.72 142.951,-316.671 316.671,-316.671c75.377,0 148.333,26.913 205.652,75.865c124.98,106.749 147.138,293.957 50.534,426.933" style="fill:none;fill-rule:nonzero;stroke:#ebebeb;stroke-width:33.33px;"/><path d="M520.029,592.104c-35.992,22.49 -77.591,34.418 -120.032,34.418c-124.264,-0 -226.517,-102.253 -226.517,-226.517c0,-124.263 102.253,-226.517 226.517,-226.517c124.263,0 226.516,102.254 226.516,226.517c0,42.441 -11.927,84.04 -34.417,120.033" style="fill:none;fill-rule:nonzero;stroke:#ebebeb;stroke-width:33.33px;stroke-linejoin:round;stroke-miterlimit:15;"/><path d="M399.988,488.304c48.77,0 88.304,-39.533 88.304,-88.304c-0,-48.767 -39.534,-88.304 -88.305,-88.304c-48.766,-0 -88.304,39.537 -88.304,88.304c0,48.771 39.538,88.304 88.305,88.304Z" style="fill:none;fill-rule:nonzero;stroke:#ebebeb;stroke-width:33.33px;stroke-linejoin:round;stroke-miterlimit:15;"/><path d="M399.988,408.763c0.063,0.001 0.127,0.002 0.191,0.002c4.807,-0 8.762,-3.956 8.762,-8.763c0,-4.807 -3.955,-8.762 -8.762,-8.762c-0.064,-0 -0.128,0 -0.191,0.002c-4.734,0.103 -8.572,4.025 -8.572,8.76c0,4.735 3.838,8.657 8.572,8.76Z" style="fill-rule:nonzero;stroke:#ebebeb;stroke-width:15.83px;stroke-linejoin:round;stroke-miterlimit:15;"/><path d="M504.971,504.983l174.462,173.438l-174.462,-173.438Z" style="fill-rule:nonzero;stroke:#ebebeb;stroke-width:1px;stroke-linecap:butt;stroke-linejoin:round;stroke-miterlimit:2;"/><path d="M504.971,504.983l174.462,173.438" style="fill:none;fill-rule:nonzero;stroke:#ebebeb;stroke-width:50px;stroke-linejoin:round;stroke-miterlimit:15;"/></svg>