<?xml version="1.0" encoding="UTF-8" standalone="no"?>
<!DOCTYPE svg PUBLIC "-//W3C//DTD SVG 1.1//EN" "http://www.w3.org/Graphics/SVG/1.1/DTD/svg11.dtd">
<svg width="100%" height="100%" viewBox="0 0 24 24" version="1.1" xmlns="http://www.w3.org/2000/svg" xmlns:xlink="http://www.w3.org/1999/xlink" xml:space="preserve" xmlns:serif="http://www.serif.com/" style="fill-rule:evenodd;clip-rule:evenodd;stroke-linejoin:round;stroke-miterlimit:2;">
    <g transform="matrix(0.600405,0,0,0.600375,-0.0328279,0.0141747)">
        <path d="M27.621,27.225L22.293,27.225C22,27.224 21.759,26.982 21.76,26.689L21.76,13.317C21.76,13.022 21.999,12.782 22.293,12.782L27.233,12.782C30.94,12.782 31.718,14.965 31.718,16.795C31.718,17.854 31.437,18.695 30.878,19.312C32.238,19.872 32.97,21.136 32.97,22.965C32.97,25.633 30.97,27.225 27.621,27.225M19.885,27.225L8.819,27.225C8.527,27.224 8.287,26.984 8.287,26.692C8.287,26.691 8.287,26.69 8.287,26.689L8.287,13.317C8.287,13.022 8.525,12.782 8.819,12.782L13.989,12.782C17.218,12.782 19.144,14.521 19.144,17.433C19.144,19.37 18.171,20.892 16.601,21.51L20.283,26.335C20.368,26.432 20.416,26.558 20.416,26.688C20.416,26.98 20.176,27.221 19.884,27.223M19.904,0.035C8.867,0.035 -0.082,8.984 -0.082,20.021C-0.082,31.061 8.866,40.01 19.905,40.01C30.943,40.01 39.891,31.062 39.891,20.023C39.891,8.985 30.945,0.037 19.906,0.037" style="fill:rgb(248,248,248);fill-rule:nonzero;"/>
    </g>
</svg>
