<?xml version="1.0" encoding="UTF-8" standalone="no"?><!DOCTYPE svg PUBLIC "-//W3C//DTD SVG 1.1//EN" "http://www.w3.org/Graphics/SVG/1.1/DTD/svg11.dtd"><svg width="100%" height="100%" viewBox="0 0 800 800" version="1.1" xmlns="http://www.w3.org/2000/svg" xmlns:xlink="http://www.w3.org/1999/xlink" xml:space="preserve" xmlns:serif="http://www.serif.com/" style="fill-rule:evenodd;clip-rule:evenodd;stroke-linejoin:round;stroke-miterlimit:2;"><path d="M596.25,544.875c-35.7,39.425 -99.625,100.75 -102.35,103.375c-7.8,7.45 -18.375,12.025 -30.025,12.025c-24.025,0 -43.5,-19.475 -43.5,-43.5c0,-12.375 5.175,-23.55 13.475,-31.475l0.025,-0.025c0.65,-0.625 64.45,-61.775 98,-98.9c14.025,-15.275 22.625,-35.75 22.625,-58.2c0,-1.8 -0.05,-3.6 -0.175,-5.35l0,0.25c-1.975,-26.25 -14.5,-49.25 -33.275,-64.975l-0.15,-0.125c-14.9,-11.75 -33.925,-18.85 -54.625,-18.85c-21.475,0 -41.15,7.65 -56.475,20.35l0.15,-0.125c-19.4,17.375 -42.9,43 -43.1,43.25c-7.975,8.75 -19.425,14.225 -32.175,14.225c-24.025,0 -43.5,-19.475 -43.5,-43.5c0,-11.475 4.45,-21.925 11.7,-29.7l-0.025,0.025c1.05,-1.15 26.55,-28.925 49.075,-49.15c30.5,-26.35 70.55,-42.375 114.325,-42.375c42.475,-0 81.4,15.1 111.75,40.2l-0.3,-0.225c36.2,30.775 59.975,75.175 63.325,125.2l0.025,0.55c0.2,3.2 0.325,6.925 0.325,10.7c0,44.9 -17.15,85.825 -45.25,116.525l0.125,-0.125l-0,-0.075Zm-262.725,3.075l-1.675,-0c-41.875,-0 -80.2,-15.125 -109.825,-40.225l0.25,0.2c-36.175,-30.75 -59.975,-75.175 -63.35,-125.15l-0.025,-0.55c-0.2,-3.175 -0.325,-6.875 -0.325,-10.6c-0,-44.95 17.175,-85.875 45.3,-116.6l-0.125,0.125c35.675,-39.45 99.625,-100.75 102.325,-103.375c7.8,-7.45 18.375,-12.025 30.025,-12.025c24.025,0 43.5,19.475 43.5,43.5c-0,12.375 -5.175,23.55 -13.475,31.475l-0.025,0.025c-0.65,0.625 -64.4,61.725 -98,98.85c-14.025,15.275 -22.625,35.75 -22.625,58.225c-0,1.8 0.05,3.575 0.175,5.35l-0,-0.25c2,26.25 14.5,49.25 33.275,65.05l0.15,0.125c14.9,11.75 33.95,18.825 54.65,18.825c21.45,0 41.15,-7.625 56.5,-20.3l-0.15,0.125c19.35,-17.475 42.875,-43.025 43.1,-43.3c7.975,-8.6 19.325,-13.95 31.925,-13.95c24.025,-0 43.5,19.475 43.5,43.5c-0,11.375 -4.35,21.7 -11.5,29.45l0.025,-0.025c-1.1,1.1 -26.625,28.875 -49.1,49.1c-30,26.325 -69.6,42.4 -112.925,42.4l-1.675,-0l0.075,-0l0.025,0.025Zm66.475,-522.85c-207.05,0 -374.9,167.85 -374.9,374.9c0,207.05 167.85,374.9 374.9,374.9c207.05,0 374.9,-167.85 374.9,-374.9c0,-207.05 -167.85,-374.9 -374.9,-374.9Z" style="fill:#ebebeb;fill-rule:nonzero;"/></svg>