<?xml version="1.0" encoding="UTF-8" standalone="no"?><!DOCTYPE svg PUBLIC "-//W3C//DTD SVG 1.1//EN" "http://www.w3.org/Graphics/SVG/1.1/DTD/svg11.dtd"><svg width="100%" height="100%" viewBox="0 0 800 800" version="1.1" xmlns="http://www.w3.org/2000/svg" xmlns:xlink="http://www.w3.org/1999/xlink" xml:space="preserve" xmlns:serif="http://www.serif.com/" style="fill-rule:evenodd;clip-rule:evenodd;stroke-linejoin:round;stroke-miterlimit:2;"><path d="M0.311,596.521l0.263,-393.527c0.035,-25.68 1.494,-51.18 8.193,-76.183c7.51,-28.023 21.664,-52.089 41.744,-72.897c17.723,-18.367 38.471,-32.124 62.351,-40.957c15.161,-5.599 31.025,-8.598 47.043,-10.589c14.622,-1.813 29.34,-1.703 44.036,-1.972c0.009,-0.129 0.014,-0.262 0.022,-0.396l391.948,-0c0.006,0.127 0.104,0.39 0.146,0.396c25.895,-0.023 51.602,1.466 76.801,8.193c27.899,7.449 51.863,21.531 72.63,41.445c13.557,12.997 24.518,27.87 33.268,44.412c8.287,15.657 12.937,32.52 16.228,49.827c2.706,14.202 3.769,28.527 3.948,42.96c0.064,5.254 0.756,402.777 0.756,404.596l0,4.689c-0.229,23.502 -1.566,46.922 -6.909,70.007c-8.164,35.317 -26.251,64.579 -53.058,88.489c-23.002,20.521 -49.888,33.501 -80.308,39.07c-15.872,2.902 -31.779,4.874 -47.95,5.094c-121.869,1.632 -243.739,0.239 -365.605,0.752c-16.78,0.07 -33.544,-0.35 -50.319,-0.455c-26.887,-0.156 -53.387,-3.332 -79.073,-11.617c-17.616,-5.69 -33.53,-14.709 -48.097,-26.071c-20.29,-15.823 -36.363,-35.194 -48.067,-58.133c-8.657,-16.947 -13.195,-35.155 -16.369,-53.828c-2.996,-17.65 -3.143,-35.511 -3.622,-53.27l0,-0.035Zm403.315,78.451c34.875,0 58.204,-16.49 78.825,-31.07c14.724,-10.409 28.634,-20.23 44.914,-22.941c8.014,-1.326 15.974,-2.001 23.666,-2.001c13.192,0 23.565,1.676 32.814,3.476c5.292,1.035 9.487,1.573 12.449,1.573l0.685,0c4.549,0 7.381,-2.125 8.654,-6.473c1.36,-4.623 2.357,-9.022 3.336,-13.51c2.366,-10.866 4.096,-17.504 8.203,-18.138c43.758,-6.759 69.604,-16.688 74.716,-28.662c0.544,-1.258 0.855,-2.545 0.93,-3.832c0.202,-3.583 -2.336,-6.734 -5.873,-7.324c-83.95,-13.83 -121.577,-99.625 -123.131,-103.269c-0.055,-0.118 -0.103,-0.231 -0.159,-0.343c-5.049,-10.238 -6.056,-19.085 -2.994,-26.29c5.637,-13.285 24.289,-19.205 36.651,-23.128c3.084,-0.978 6.003,-1.905 8.292,-2.811c22.341,-8.823 26.883,-17.959 26.773,-24.072c-0.124,-6.556 -5.887,-12.798 -14.685,-15.921l-0.165,-0.064c-3.089,-1.288 -6.795,-1.997 -10.437,-1.997c-2.41,0 -5.959,0.312 -9.164,1.817c-10.369,4.855 -19.784,7.48 -27.978,7.794c-9.612,-0.377 -14.336,-4.108 -15.511,-5.19c0.269,-4.978 0.587,-10.112 0.933,-15.537l0.118,-1.912c2.516,-39.955 5.649,-89.666 -7.056,-118.168c-38.05,-85.312 -118.861,-91.95 -142.729,-91.95c-0.495,0 -0.972,0.007 -1.412,0.014c0,0 -9.74,0.097 -10.375,0.097c-23.802,0 -104.446,6.63 -142.472,91.89c-12.705,28.483 -9.576,78.153 -7.067,118.065l0.008,0.075c0.364,5.702 0.74,11.73 1.048,17.432c-1.249,1.157 -6.411,5.226 -17.1,5.226c-8.595,0 -18.589,-2.638 -29.697,-7.842c-2.037,-0.956 -4.456,-1.435 -7.185,-1.435c-9.831,0 -21.995,6.405 -23.742,15.601c-2.399,12.612 15.607,21.749 26.555,26.074c2.315,0.919 5.22,1.839 8.292,2.811c12.351,3.918 31.019,9.841 36.655,23.134c3.058,7.205 2.054,16.055 -2.994,26.296c-0.056,0.107 -0.11,0.225 -0.157,0.337c-1.069,2.492 -11.03,25.061 -31.315,48.681c-26.186,30.511 -57.076,48.873 -91.816,54.593c-3.538,0.586 -6.072,3.734 -5.871,7.324c0.067,1.259 0.368,2.532 0.908,3.797c5.148,12.041 30.995,21.984 74.74,28.734c4.09,0.633 5.822,7.3 8.21,18.223c0.954,4.372 1.943,8.911 3.322,13.596c1.739,5.94 5.913,6.702 9.349,6.702c3.28,0 7.523,-0.826 12.445,-1.785c7.998,-1.564 18.953,-3.714 32.814,-3.714c7.694,0 15.656,0.673 23.66,2.001c16.297,2.711 30.209,12.548 44.96,22.968c20.58,14.559 43.9,31.048 78.779,31.048c0.989,0 1.976,-0.036 2.932,-0.118c1.205,0.058 2.789,0.118 4.449,0.118Z" style="fill:#ebebeb;"/></svg>