<svg xml:space="preserve" fill="#ebebeb" style="fill-rule:evenodd;clip-rule:evenodd;stroke-linejoin:round;stroke-miterlimit:2" viewBox="0 0 39 23" xmlns="http://www.w3.org/2000/svg"><path d="M-3.163-3.701h38.512v22.656H-3.163z" style="fill:none" transform="translate(3.163 3.701)"/><g transform="translate(4 4)"><clipPath id="a"><path d="M.2 8.5 0 10.3l.2 1.8c0 .1.1.1.1.1.1 0 .1-.1.1-.1l.3-1.8-.3-1.8c0-.1-.1-.1-.1-.1s-.1 0-.1.1m1.2-1.1-.3 2.9.3 2.9c0 .1.1.1.1.1.1 0 .1-.1.1-.1l.4-2.9-.4-2.9c0-.1-.1-.1-.1-.1zM5.2 7 5 10.3l.2 3.5c0 .1.1.2.2.2s.2-.1.2-.2l.4-3.5L5.7 7c0-.1-.1-.2-.2-.2-.2 0-.3.1-.3.2m-2.5-.2-.3 3.5.3 3.3c0 .1.1.2.2.2 0 0 .1-.1.1-.2l.3-3.3L3 6.8c0-.1-.1-.2-.2-.2 0 .1-.1.1-.1.2m1.2-.1-.3 3.6.3 3.4c0 .1.1.2.2.2s.2-.1.2-.2l.3-3.4-.3-3.6c0-.1-.1-.2-.2-.2s-.1.1-.2.2m2.6-1.8-.3 5.4.3 3.5c0 .1.1.2.2.2.2 0 .3-.1.3-.2l.3-3.5L7 4.9c0-.1-.1-.2-.2-.2-.2 0-.3.1-.3.2m1.3-1.2-.2 6.6.2 3.5q0 .3.3.3c.1 0 .3-.1.3-.3l.3-3.5-.3-6.6q0-.3-.3-.3t-.3.3m5.3-.3-.2 6.9.2 3.3c0 .2.2.4.4.4s.4-.2.4-.4l.2-3.3-.2-7c0-.2-.2-.4-.4-.4-.3.1-.4.2-.4.5m-4-.3-.2 7.2.2 3.4q0 .3.3.3t.3-.3l.2-3.4-.2-7.2q0-.3-.3-.3c-.2 0-.3.2-.3.3m2.6 0-.2 7.2.2 3.4c0 .2.2.4.4.4s.4-.2.4-.4l.2-3.4-.2-7.2c0-.2-.2-.4-.4-.4s-.4.2-.4.4m-1.3-.2-.2 7.4.2 3.4q0 .3.3.3t.3-.3l.2-3.4-.2-7.4c0-.2-.2-.3-.3-.3s-.3.1-.3.3m4-.9-.2 8.3.2 3.3c0 .2.2.4.4.4s.4-.2.4-.4l.2-3.3-.2-8.3c0-.2-.2-.4-.4-.4s-.4.2-.4.4m1.4-.7-.2 9 .2 3.3c0 .2.2.4.4.4s.4-.2.4-.4l.2-3.3-.2-9c0-.2-.2-.4-.4-.4h-.1c-.2 0-.3.2-.3.4m1.6-.9c-.3.1-.4.2-.4.5v12.7c0 .2.2.4.4.5h11.1c2.2 0 4-1.8 4-4s-1.8-4-4-4c-.5 0-1.1.1-1.5.3-.3-3.6-3.3-6.4-7-6.4h-.5c-.7 0-1.4.2-2.1.4"/></clipPath><g clip-path="url(#a)"><path d="M0 0h124.5v14.1H0z" style="fill:#fff"/></g></g></svg>