<?xml version="1.0" encoding="UTF-8" standalone="no"?>
<!DOCTYPE svg PUBLIC "-//W3C//DTD SVG 1.1//EN" "http://www.w3.org/Graphics/SVG/1.1/DTD/svg11.dtd">
<svg width="100%" height="100%" viewBox="0 0 24 24" version="1.1" xmlns="http://www.w3.org/2000/svg" xmlns:xlink="http://www.w3.org/1999/xlink" xml:space="preserve" xmlns:serif="http://www.serif.com/" style="fill-rule:evenodd;clip-rule:evenodd;stroke-linejoin:round;stroke-miterlimit:2;">
    <g transform="matrix(0.0923077,0,0,0.0923077,0,0)">
        <path d="M210.857,197.545C209.241,196.673 207.273,196.758 205.738,197.768C194.118,205.406 182.338,209.279 170.722,209.279C164.48,209.279 159.117,207.885 154.306,205.004C151.036,203.068 147.998,199.683 146.909,196.741C145.852,193.944 145.864,186.414 145.88,175.993L145.885,112.45L198.68,112.45C201.442,112.45 203.68,110.211 203.68,107.45L203.68,62.802C203.68,60.041 201.442,57.802 198.68,57.802L145.885,57.802L145.885,5C145.885,2.239 143.647,0 140.885,0L105.319,0C102.791,0 100.661,1.887 100.355,4.397C98.869,16.626 96.097,26.78 92.108,34.593C88.218,42.293 82.955,48.994 76.457,54.518C71.251,58.958 62.339,63.254 49.967,67.287C47.909,67.958 46.517,69.876 46.517,72.041L46.517,107.451C46.517,110.212 48.755,112.451 51.517,112.451L80.47,112.451L80.47,195.117C80.47,207.298 81.762,216.464 84.422,223.143C87.132,229.928 91.943,236.317 98.725,242.136C105.396,247.852 113.515,252.323 122.883,255.434C131.965,258.396 139.198,260.001 151.394,260.001C161.704,260.001 171.531,258.932 180.607,256.822C189.528,254.74 199.624,251.061 210.615,245.888C212.368,245.063 213.486,243.301 213.486,241.364L213.486,201.947C213.484,200.108 212.476,198.418 210.857,197.545Z" style="fill:rgb(248,248,248);fill-rule:nonzero;"/>
    </g>
</svg>
