<?xml version="1.0" encoding="UTF-8" standalone="no"?>
<!DOCTYPE svg PUBLIC "-//W3C//DTD SVG 1.1//EN" "http://www.w3.org/Graphics/SVG/1.1/DTD/svg11.dtd">
<svg width="100%" height="100%" viewBox="0 0 323 305" version="1.1" xmlns="http://www.w3.org/2000/svg" xmlns:xlink="http://www.w3.org/1999/xlink" xml:space="preserve" xmlns:serif="http://www.serif.com/" style="fill-rule:evenodd;clip-rule:evenodd;stroke-linejoin:round;stroke-miterlimit:2;">
    <g transform="matrix(1,0,0,1,-365,-348)">
        <path d="M640.8,448L641,519.5L566.5,594L523.5,594L487.5,630L475.4,630C465.3,630 463,629.7 461.9,628.3C460.8,627.1 460.5,622.6 460.4,610.6L460.2,594.5L433.9,594L407.5,593.5L407.2,504.1L407,414.8L410.9,406.1C413.1,401.4 417.1,392.7 419.9,386.7L425,376L532.8,376.2L640.5,376.5L640.8,448ZM436.2,472.2L436.5,551.5L486.5,552.5L487.5,589.5L506.5,570.7L525.6,552L554.5,552L583.5,551.9L604.3,531.7L625,511.5L625,393L436,393L436.2,472.2ZM514.5,495.5L495.5,495.5L495.2,465.2L495,434.9L504.7,435.2L514.5,435.5L514.5,495.5ZM577.5,495.5L557.5,495.5L557.2,466.5C557.1,450.6 557.2,436.9 557.5,436.2C557.8,435.3 560.4,435 567.7,435.2L577.5,435.5L577.5,495.5Z" style="fill:rgb(248,248,248);"/>
    </g>
</svg>
