<?xml version="1.0" encoding="UTF-8" standalone="no"?><!DOCTYPE svg PUBLIC "-//W3C//DTD SVG 1.1//EN" "http://www.w3.org/Graphics/SVG/1.1/DTD/svg11.dtd"><svg width="100%" height="100%" viewBox="0 0 24 24" version="1.1" xmlns="http://www.w3.org/2000/svg" xmlns:xlink="http://www.w3.org/1999/xlink" xml:space="preserve" xmlns:serif="http://www.serif.com/" style="fill-rule:evenodd;clip-rule:evenodd;stroke-linejoin:round;stroke-miterlimit:2;"><g><path d="M22.559,6.661c0.44,1.694 0.44,5.279 0.44,5.279c0,0 0,3.586 -0.44,5.279c-0.25,0.969 -1.011,1.73 -1.98,1.98c-1.694,0.44 -8.579,0.44 -8.579,0.44c0,0 -6.885,0 -8.579,-0.44c-0.969,-0.25 -1.73,-1.011 -1.98,-1.98c-0.44,-1.694 -0.44,-5.279 -0.44,-5.279c0,0 0,-3.586 0.44,-5.279c0.263,-0.963 1.017,-1.717 1.98,-1.98c1.694,-0.44 8.579,-0.44 8.579,-0.44c0,0 6.885,0 8.579,0.44c0.963,0.263 1.717,1.017 1.98,1.98m-12.759,8.579l5.719,-3.3l-5.719,-3.3l0,6.599Z" style="fill-rule:nonzero;"/></g></svg>