<svg xml:space="preserve" fill="#ebebeb" style="fill-rule:evenodd;clip-rule:evenodd;stroke-linejoin:round;stroke-miterlimit:2" viewBox="0 0 371 357" xmlns="http://www.w3.org/2000/svg"><path d="M199 15.1c5.3 2.4 8.4 5.1 11.6 10.1 3.5 5.5 14.2 28.8 24.4 53.3 5 12.1 9.5 22.3 9.9 22.7s7.4 1.2 15.6 1.8c30.2 2.1 63.1 6.6 70.4 9.6 7.9 3.3 14.9 12.9 15.8 21.6.9 9.2-2.3 15.6-13.2 26.3-7.3 7.2-28.7 26.4-50.7 45.6l-2.8 2.4 7 30.8c9 39.7 11 49.9 11 55.5 0 15.7-19.9 29-35.7 23.8-4.4-1.5-18.4-9-54.3-29.3-20.2-11.4-20.5-11.5-23.7-10.1-1.5.7-5.2 2.7-8.2 4.6-2.9 1.8-11 6.5-18 10.4-6.9 3.8-19.7 11.1-28.5 16.1-14.7 8.4-16.3 9.2-22.3 9.5-13.9.9-25.1-7.9-26.9-21.1-.7-5 .6-14 8.7-57.7l5.9-32.5-3.8-3.5c-2.1-1.9-12.3-10.9-22.7-20-35.9-31.2-39.2-35.2-40.2-48.3-.5-5.4-.2-7 2-11.2 5.3-10.6 14.6-15.1 34.7-17 3.6-.3 12.9-1.5 20.7-2.6s21.1-2.6 29.6-3.3c8.6-.8 16-1.7 16.5-2s2-3.2 3.2-6.3c3-7.5 26.7-61.8 28.7-65.8C169 18.3 177.2 13 187.9 13c4.5 0 8.1.7 11.1 2.1m-17.5 8c-7 4.1-10.7 10.8-26.5 48.4-14.4 34.2-15.3 36.1-18.2 37.6-1.2.7-12.3 2.2-24.8 3.5-36.8 3.9-60 7.3-64.7 9.5-6.6 3.2-9.3 7-9.3 13.2 0 9.4 1.8 11.6 30.8 37.5 35.3 31.4 35.2 31.2 35.2 35.1 0 3.5-5.2 34-7.6 44.1-2.3 10-6.4 36.9-6.4 42.3 0 6.5 2.2 10.7 7.2 14 7.3 4.7 12.6 3.5 30.7-7.2 27.6-16.2 54.8-31.4 57.8-32.3 3-.8 4.2-.4 12.6 4.5 9.3 5.5 39.7 22.4 56.1 31.2 10.2 5.5 15.5 6.9 20.6 5.3 8-2.5 13-8.7 13-16.1 0-4.9-5.3-31.6-12.5-63.1-2.5-10.9-4.5-21.1-4.5-22.6 0-2.9 2.2-5.1 39.7-39.3 25.5-23.3 28.8-27.6 26.9-35.2-1-4-7.1-10.1-12.4-12.3-5.8-2.5-35.9-6.3-76.4-9.7-6.2-.5-8.1-1.1-10-3-1.3-1.2-7.2-13.9-13.2-28.1-15.4-36.5-21.6-49.1-26.5-53.8-3.6-3.5-4.7-4-9.8-4.3-3.3-.2-6.7.2-7.8.8" style="fill:#ebebeb"/></svg>