<?xml version="1.0" encoding="UTF-8" standalone="no"?><!DOCTYPE svg PUBLIC "-//W3C//DTD SVG 1.1//EN" "http://www.w3.org/Graphics/SVG/1.1/DTD/svg11.dtd"><svg width="100%" height="100%" viewBox="0 0 512 370" version="1.1" xmlns="http://www.w3.org/2000/svg" xmlns:xlink="http://www.w3.org/1999/xlink" xml:space="preserve" xmlns:serif="http://www.serif.com/" style="fill-rule:evenodd;clip-rule:evenodd;stroke-linejoin:round;stroke-miterlimit:2;"><path d="M446.8,53.4c3.6,1.9 7.8,6.5 9.1,9.9c0.8,1.9 1.1,37.7 1.1,113.3c-0,91.6 -0.2,111 -1.4,113.7c-1.6,3.9 -6.1,8.2 -9.9,9.6c-2,0.8 -61.2,1.1 -193.6,1.1l-190.7,-0l-3.9,-2.6c-2.2,-1.4 -4.9,-3.8 -6,-5.2c-2,-2.7 -2,-4.7 -2.6,-113.7c-0.3,-72.5 -0.2,-112.3 0.5,-114.8c0.6,-2.6 2.5,-5.3 5.9,-8.3l4.9,-4.4l192,-0c163.2,-0 192.3,0.2 194.6,1.4Zm-149.8,167.1c-0,30.4 -0.1,31.5 -2,32.5c-1.9,1 -2,2.1 -2,21l-0,20l29,-0l-0,-105l-25,-0l-0,31.5Zm33,73.5l27,-0l-0,-20c-0,-18.9 -0.1,-20 -2,-21c-1.9,-1 -2,-2.1 -2,-32.5l-0,-31.5l-23,-0l-0,105Zm-252,0.1l14,-0.3l14.1,-0.3l-0,-20c-0,-17.4 -0.2,-20 -1.6,-20.5c-1.4,-0.5 -1.6,-4.1 -1.5,-32.3l0.1,-31.7l-25.1,-0l-0,105.1Zm148,-73.6c-0,26.5 -0.2,31.5 -1.5,32.2c-1.2,0.7 -1.4,4.4 -1.5,20.8l-0.2,20l27.2,0.6l-0,-20.6c-0,-19.8 -0.1,-20.5 -2,-20.5c-2,-0 -2,-0.7 -2,-32l-0,-32l-20,-0l-0,31.5Zm177,-0c-0,30.4 -0.1,31.5 -2,32.5c-1.9,1 -2,2.1 -2,21.1l-0,20l27,-0.6l0.3,-52.3l0.2,-52.2l-23.5,-0l-0,31.5Zm-285,-0.2c-0,30.1 -0.1,31.3 -2,32.5c-1.9,1.1 -2,2.3 -2,21.2l-0,20l26.9,-0l0.3,-20.1c0.3,-18.8 0.2,-20.2 -1.5,-20.8c-1.8,-0.7 -1.9,-2.5 -1.7,-32.4l0.1,-31.7l-20.1,-0l-0,31.3Zm35,0.2c-0,30.4 -0.1,31.5 -2,32.5c-1.9,1 -2,2.1 -2,21l-0,20l30,0l-0,-105l-26,0l-0,31.5Zm-89.6,-160.8c-1.2,0.2 -3.2,1.5 -4.5,2.9l-2.4,2.6l-0.3,111l-0.2,111l3.4,3.4c3,3 4.1,3.5 7.3,3.2l3.8,-0.3l0.2,-54.5c0.1,-30 0.4,-55.3 0.7,-56.3c0.4,-1.6 9.8,-1.7 179.9,-1.7c161.9,0 179.7,0.2 181.1,1.6c1.4,1.4 1.6,7.9 1.6,56.6l-0,55.1l4.6,-0.6c3.3,-0.3 5.5,-1.3 7.5,-3.4l2.9,-2.9l-0,-221.8l-6.4,-6.6l-188.5,0.1c-103.8,0.1 -189.6,0.4 -190.7,0.6Zm233,76.6c3.2,4.3 2.8,10 -0.9,13.7c-1.7,1.6 -4.5,3.2 -6.2,3.6c-2.8,0.6 -3.7,0.2 -6.7,-2.8c-4.6,-4.6 -5.5,-8.2 -3,-12.7c2.6,-5 7.7,-7.4 11.7,-5.8c1.7,0.7 4,2.5 5.1,4Zm-188.4,-57.4c1.5,2.9 1.3,34.4 -0.2,35.9c-0.8,0.8 -6.4,1.2 -18.4,1.2c-14.6,0 -17.3,-0.2 -17.8,-1.5c-1,-2.7 -1.9,-25.3 -1.2,-30c1.2,-7.4 1.5,-7.5 20.1,-7.5c15.2,0 16.5,0.1 17.5,1.9Zm-30,29.3l11.8,-0.4l11.7,-0.4l0.3,-8.9c0.5,-14.3 1.2,-13.5 -12.3,-13.5l-11.5,0l-0,23.2Zm166,16.3c1.7,2.1 1.6,33.1 -0.1,35.1c-0.9,1.1 -4.9,1.4 -18,1.4c-15.6,0 -16.9,-0.1 -17.9,-1.9c-1.3,-2.5 -1.3,-30.1 -0,-33.5l1,-2.6l16.9,0c14,0 17.1,0.3 18.1,1.5Zm-29,17.6c-0,10.6 0.2,12 1.6,11.5c0.9,-0.3 6,-0.6 11.5,-0.6l9.9,0l-0,-23l-23,0l-0,12.1Zm-107.2,-17.9c0.8,0.8 1.2,6.2 1.2,17.8c-0,11.6 -0.4,17 -1.2,17.8c-1.7,1.7 -33.9,1.7 -35.6,0c-1.7,-1.7 -1.7,-35.4 0.1,-36.1c0.6,-0.3 8.6,-0.6 17.8,-0.6c11.6,-0.1 16.9,0.3 17.7,1.1Zm-29.8,28.8l24,0l-0,-23l-24,0l-0,23Zm214.7,-68c3.6,2.2 6.3,6.7 6.3,10.6c-0,3.2 -6.8,10.4 -9.8,10.4c-7.7,0 -13.3,-9.1 -9.7,-16c1.5,-2.9 6.8,-7 9,-7c0.6,0 2.4,0.9 4.2,2Zm-139.3,-6.4c2.4,2.4 2.3,32.9 -0.1,35.6c-1.4,1.6 -3.4,1.8 -18.8,1.8c-14.8,0 -17.4,-0.2 -17.9,-1.6c-1,-2.7 -0.7,-33.4 0.4,-35.5c1,-1.8 2.3,-1.9 18,-1.9c14,0 17.1,0.3 18.4,1.6Zm-30.2,17.6l0.3,11.3l11.8,0.3l11.7,0.3l-0,-23.1l-24.1,0l0.3,11.2Zm298.8,38.8c4.9,5.3 4.8,10.1 -0.3,15.7c-4.3,4.7 -11.4,3.4 -15.1,-2.7c-2.5,-4.4 -2,-8.4 1.5,-12.5c2.6,-2.9 3.8,-3.5 7.1,-3.5c3.2,0 4.6,0.6 6.8,3Zm-43.2,-48.6c1.3,1.1 3,3.3 3.8,4.9c1.3,2.5 1.3,3.2 -0.5,7.3c-2.4,5.3 -6.6,7.7 -11.5,6.3c-3.5,-1 -7.2,-5 -7.9,-8.5c-0.7,-3.8 2.6,-9.8 6.4,-11.7c3.8,-1.9 6.3,-1.4 9.7,1.7Zm-225,37.8c0.8,0.8 1.2,6 1.2,16.8c-0,21.4 1.4,20 -19.9,20c-11.6,0 -17.1,-0.4 -17.9,-1.2c-0.8,-0.8 -1.2,-6.2 -1.2,-17.8c-0,-11.6 0.4,-17 1.2,-17.8c1.7,-1.7 34.9,-1.7 36.6,0Zm-30.8,28.8l24,0l-0,-23l-24,0l-0,23Zm116.6,-76c4.9,0 5.4,1.8 5.4,19.5c-0,9 -0.3,17 -0.6,17.9c-0.5,1.4 -3.1,1.6 -18.4,1.6c-15.3,0 -17.9,-0.2 -18.4,-1.6c-1.2,-3.2 -0.7,-33.9 0.7,-35.7c0.9,-1.3 3.3,-1.7 10.7,-2c5.2,-0.2 11.5,-0.2 13.9,0c2.4,0.1 5.4,0.3 6.7,0.3Zm-24.9,8.6c-0.4,0.4 -0.7,5.6 -0.7,11.6l-0,10.8l24.1,0l-0.3,-11.3l-0.3,-11.2l-11.1,-0.3c-6,-0.1 -11.3,0.1 -11.7,0.4Zm-16.3,-6.4c1.3,1.8 1.6,5.3 1.6,17c-0,8 -0.4,15.8 -1,17.3l-1,2.5l-17.7,-0.2l-17.8,-0.3l-0.3,-17.9c-0.2,-12.3 0.1,-18.3 0.9,-19.2c0.9,-1.1 4.8,-1.4 17.5,-1.4c15.7,0 16.3,0.1 17.8,2.2Zm-29.4,28.8l23,0l-0,-23l-23,0l-0,23Zm208.1,25.3c1.9,1.2 4.2,3.9 5.2,5.9c1.7,3.6 1.7,3.9 0.1,7.4c-4.6,9.7 -16.4,9 -19.3,-1.3c-1.3,-4.4 1.6,-10.4 6,-12.6c4.3,-2.1 4,-2.1 8,0.6Zm-178.1,-8.4c0.6,1.1 1,8.7 1,17.5c-0,12.7 -0.3,15.7 -1.6,17c-1.3,1.3 -4.4,1.6 -17.9,1.6c-15.2,0 -16.5,-0.1 -17.5,-1.9c-1.1,-2.1 -1.4,-31.8 -0.4,-34.5c0.5,-1.4 3.1,-1.6 18,-1.6c16.1,0 17.4,0.1 18.4,1.9Zm-30,28.1l23.5,0l-0,-23l-23.5,0l-0,23Zm169.1,-17.4c0.8,1.1 2,3.1 2.6,4.5c2.3,5.4 -4.2,13.9 -10.8,13.9c-1.1,0 -3.6,-1.5 -5.5,-3.4c-2.8,-2.8 -3.4,-4.2 -3.4,-7.6c-0,-10.4 10.7,-15 17.1,-7.4Zm-3,-50.3c7.9,5.3 7.8,15.1 -0.2,19.2c-6.3,3.3 -13.9,-2 -13.9,-9.6c-0,-5.1 1.3,-7.5 5.3,-9.9c4.1,-2.5 4.7,-2.5 8.8,0.3Zm84.7,-0.3c4,2.4 6.7,7.8 5.8,11.4c-0.9,3.8 -5.6,8.5 -9.2,9.2c-2.5,0.5 -3.8,-0 -6.7,-2.6c-6.4,-5.6 -5.7,-13.6 1.6,-18c4,-2.5 4.4,-2.5 8.5,0Zm-52.7,135.6c0.2,28.5 -0,31.7 -1.4,32.6c-1.5,0.8 -1.7,3.3 -1.7,20.8l-0,20l27,0l-0,-20.4c-0,-19.5 -0.1,-20.4 -2,-20.9c-1.9,-0.5 -2,-1.4 -2,-32.1l-0,-31.6l-20.1,0l0.2,31.6Zm-181.1,73.4l29,0l-0,-20.3c-0,-19.1 -0.1,-20.3 -2,-21.5c-1.9,-1.2 -2,-2.3 -2,-32.2l-0,-31l-25,0l-0,105Zm76,-42l-5.2,2l0.4,20l0.3,20l28.5,0l-0,-40l-5,-2l-0,-63l-19,0l-0,63Z" style="fill:#ebebeb;"/></svg>