<svg xml:space="preserve" fill="#ebebeb" style="fill-rule:evenodd;clip-rule:evenodd;stroke-linejoin:round;stroke-miterlimit:2" viewBox="0 0 402 386" xmlns="http://www.w3.org/2000/svg"><path d="M72.4 139.5c-.1 2.7-1.4 6.3-4.2 11.2-2.3 4-5.4 10.7-6.9 15-2.5 7.3-2.7 8.9-2.7 24.3 0 16.1 0 16.7 3.1 24.7 1.7 4.5 4.4 10.1 6 12.5 4.1 6 4.6 7.7 2.9 10.4-5.5 8.3-18-14.4-20.6-37.6-1.1-9.2.1-25.4 2.5-34.5 1.5-6 10.6-25.4 13.4-28.8.9-1.1 2.5-1.7 4-1.5 2.3.3 2.6.7 2.5 4.3m280.6-.8c4.3 5.3 11.5 20.5 13.6 28.8 2.6 10.1 2.6 34.3 0 44-2.2 8.3-10.8 26-13 26.8-.9.4-2.3.4-3.1.1-3.2-1.3-2.6-4.9 2.3-15.4 7.6-16.1 9.5-27.4 7.2-44.5-1.4-11-4.5-19.5-10.5-28.6-5.5-8.5-6.5-11.5-4.3-13.7 2.1-2.1 4.6-1.3 7.8 2.5M220.6 37c9.6 4.7 16.9 16.5 18.6 30.1l1 7.8 7.7 3.2c15 6.2 21.8 9.9 27.8 15.4 12.6 11.3 21.8 25.7 26.7 41.2 3.7 11.9 4.6 18.5 5.2 39.8.6 22.3 2.8 42.4 5.6 51.5 4.8 15.6 9.2 23.4 20.7 37 8.3 9.6 11.1 14.5 11.1 19 0 4.2-1.3 6.4-5.4 8.9-3.3 2-4.4 2.1-48.4 2.1-48.9 0-46.2-.3-46.2 5.4 0 3.8-3 13.9-5.8 19.5-4.3 8.6-13.6 14.9-25.1 17.1-9.4 1.8-21.9-2.2-30.1-9.6-6.4-5.8-10.2-14.4-12.5-28.6l-.6-3.7-44.9-.3c-43.7-.3-44.9-.4-47.7-2.4-8.9-6.6-6.2-14.9 11.7-34.9 8.2-9.3 13-17.1 14.9-24 3.6-13.9 5.7-32.3 6.6-60 .8-21.1 2.5-32.1 6.9-43 6.5-16 20.3-34.1 31.8-41.5 3.2-2.1 10.6-5.7 16.5-8 5.9-2.4 11-4.5 11.2-4.7.3-.2.8-3.4 1.2-7.2 1.1-10 2.6-14.3 7.5-20.5 4.1-5.2 9.3-8.8 15.4-10.7 5.1-1.5 14.2-1 18.6 1.1m-18 8.5c-2.6 1.4-5.9 3.3-7.2 4.3-3.3 2.4-7.1 10.6-7.9 17.3l-.7 5.6 4.9-.8c6.2-1 28.4-1 34.6 0l4.7.8v-5.2c0-9.1-6.3-18.8-14.5-22.6-5.4-2.5-8.3-2.4-13.9.6m3.9 33.1c-23.3 2.7-28.9 4.2-44.1 11.4-11.5 5.6-18.2 11.8-27.7 26.1-11.4 17.3-13.5 25.9-14.7 60.4-.8 24.6-3.2 45.3-6.5 56.8-2.4 8.2-7.5 16.4-17.5 28.1C81.8 278 79.7 282.1 84.3 284c1.2.5 55.3.9 125.2.9 102 .1 123.4-.1 124.9-1.2 2.9-2.1 1.4-5.6-6.4-14.7-15.1-17.5-20.3-28.2-25.5-52.6-.9-3.8-2.2-20-3-35.9-1.5-30.5-2.8-39-7.9-51.4-5.1-12.5-18-28.2-28.7-34.7-7.1-4.3-21.7-10.7-27.9-12.2-4.2-1-25.3-4.4-25.4-4.1-.1.1-1.4.4-3.1.5m-26 220.1c1.2 9.6 4 15.7 9.7 20.7 8.2 7.4 18.2 9.4 27.9 5.6 9.9-3.9 14.8-9.9 17.3-21 2.8-12.2 5.9-11-27-11h-28.6z" style="fill:#ebebeb"/></svg>