<?xml version="1.0" encoding="UTF-8" standalone="no"?><!DOCTYPE svg PUBLIC "-//W3C//DTD SVG 1.1//EN" "http://www.w3.org/Graphics/SVG/1.1/DTD/svg11.dtd"><svg width="100%" height="100%" viewBox="0 0 330 377" version="1.1" xmlns="http://www.w3.org/2000/svg" xmlns:xlink="http://www.w3.org/1999/xlink" xml:space="preserve" xmlns:serif="http://www.serif.com/" style="fill-rule:evenodd;clip-rule:evenodd;stroke-linejoin:round;stroke-miterlimit:2;"><path d="M239.7,23c4.6,2.8 4.9,6.4 1.9,20.1c-3.7,16.8 -10.4,29.7 -21.1,40.5c-6.8,6.8 -9.6,8.9 -18.5,13.3c-10.6,5.2 -23.4,9.1 -29.9,9.1c-7.6,0 -7.9,0.4 -7.3,7.8c0.2,3.7 0.5,6.8 0.6,6.9c0.1,0.1 4.6,-2 10,-4.7c22,-11 38.1,-14 58,-10.5c20.4,3.6 36.4,15.7 48.5,37c5.6,9.6 8.5,17.8 11.2,30.7c2.8,13.6 2.3,37.7 -1,54.2c-4.7,23 -15.3,48.5 -28.8,68.8c-9.3,14.2 -29,33.9 -38.8,39c-14.9,7.7 -24.7,8.6 -41.6,3.9c-22.4,-6.3 -24.6,-6.3 -44.8,-0.6c-23.1,6.5 -35.1,3.9 -54.4,-11.6c-28.5,-22.9 -48.1,-59.6 -56.3,-105.1c-2.2,-12.6 -2.3,-36.5 -0.1,-47.9c4.3,-22.2 13.4,-39.1 28.7,-53.2c21.4,-19.9 55.6,-20.9 89.7,-2.7c5.1,2.7 9.6,5 9.8,5c1.3,0 0.2,-11.7 -2,-21.2c-2.9,-13 -4.6,-17 -12.1,-28.3c-9.4,-14.3 -19.8,-23.8 -29.6,-26.9c-2.9,-0.9 -2.4,-6.4 0.6,-7.6c5.5,-2 12.1,1.7 23.2,13.2c8.7,9 14.4,16.8 19.5,26.9l3.3,6.4l1.2,-7.5c2.1,-12.2 8.7,-24.2 19.2,-34.9c7.5,-7.7 10,-9.5 18.2,-13.4c16,-7.6 36.1,-10.8 42.7,-6.7Zm-20.2,9.5c-32.7,7.3 -50,26.5 -53.9,59.7l-0.6,4.8l4.6,0c9.5,0 27,-5.9 36.4,-12.2c11.3,-7.5 19.1,-18.8 24.9,-36.4c1.6,-4.9 3.1,-10.7 3.3,-12.9l0.3,-4l-4.5,-0.2c-2.5,-0.1 -7.2,0.4 -10.5,1.2Zm-10.1,81.6c-10.9,1.4 -26.1,7 -36.5,13.3c-12.5,7.5 -14.8,7.6 -27.9,0.1c-33.3,-19 -66.1,-17.9 -86.5,2.9c-29.1,29.7 -32.2,79.3 -8.7,135.6c7,16.7 18.9,34.5 31.8,47.4c19.3,19.5 33.2,23.8 54.5,16.8c5.3,-1.8 13.3,-3.7 17.8,-4.3c8.9,-1.2 10.7,-0.9 29,4.3c25.2,7.2 40.2,1.2 61.9,-24.6c40,-47.7 53,-117.5 29.7,-159.1c-3.9,-7.1 -15.7,-20.2 -22,-24.5c-9.7,-6.7 -27.7,-10 -43.1,-7.9Z" style="fill:#ebebeb;"/></svg>