<?xml version="1.0" encoding="UTF-8" standalone="no"?><!DOCTYPE svg PUBLIC "-//W3C//DTD SVG 1.1//EN" "http://www.w3.org/Graphics/SVG/1.1/DTD/svg11.dtd"><svg width="100%" height="100%" viewBox="0 0 333 455" version="1.1" xmlns="http://www.w3.org/2000/svg" xmlns:xlink="http://www.w3.org/1999/xlink" xml:space="preserve" xmlns:serif="http://www.serif.com/" style="fill-rule:evenodd;clip-rule:evenodd;stroke-linejoin:round;stroke-miterlimit:2;"><path d="M250.9,41.4c5.4,2.9 6.4,7 6.9,28.3c0.5,22.4 0.3,23 -8.3,26.9c-5.4,2.5 -12.2,8.9 -16.8,16l-2.6,3.9l4.4,17c2.5,9.3 7.4,27.8 11,41c8,29.7 10.2,39.4 11.1,47.9c0.7,6.4 0.8,6.8 5.4,10.4c2.5,2 10.5,7.8 17.5,12.7c7.1,5 14.6,10.6 16.7,12.6l3.8,3.7l-0,24.1c-0,25.3 -0.3,27.3 -4.7,31.3c-1.1,1 -3.9,1.8 -7.3,2l-5.5,0.3l-0.5,45.5c-0.4,34 -0.8,46.1 -1.8,47.7c-0.7,1.3 -2.6,2.5 -4.5,2.8c-1.7,0.3 -37.4,0.4 -79.2,0.1l-76,-0.5l-12,-2.5c-6.6,-1.4 -19.2,-4.1 -28,-6.1c-8.8,-2.1 -22.7,-5 -30.9,-6.5c-11.3,-2.2 -15.4,-3.3 -17,-4.9l-2.1,-2.2l-0.3,-158.3c-0.2,-150 -0.1,-158.5 1.5,-160.5c1,-1.1 5.9,-4.6 10.8,-7.7c5,-3.2 14.5,-9.2 21.3,-13.5c6.8,-4.3 14.9,-8.6 18,-9.6c6.7,-2.1 29.7,-2.7 114.5,-3.1c43.8,-0.2 52.2,-0 54.6,1.2Zm-75.6,228.4l-28.2,0.2l-0.3,21.2l-0.3,21.1l71.5,-0.7c64.7,-0.6 71.6,-0.8 72.8,-2.3c0.9,-1.2 1.2,-7.1 1.2,-21.1l-0,-19.4l-44.2,0.4c-24.4,0.1 -57,0.4 -72.5,0.6Zm-95.3,-217c-4.8,2.3 -14.1,8 -29.3,17.9l-12.8,8.4l0.6,154.6c0.3,85.1 0.8,154.9 1,155.1c0.7,0.7 72.1,16 78.3,16.8l5.2,0.6l-0,-39.2c-0,-23.7 0.4,-39.9 1,-41c0.5,-1 3.8,-3.8 7.4,-6.4c7.9,-5.6 7.5,-3 6.8,-43.8l-0.2,-9.8l-5,-2.7c-2.7,-1.6 -10.2,-5.7 -16.7,-9.3c-6.4,-3.6 -13.9,-8.5 -16.5,-11l-4.9,-4.5l-5.5,-24c-3,-13.2 -6.4,-27.8 -7.4,-32.5c-1,-4.7 -3.3,-14.8 -5,-22.5c-8.7,-39.1 -9.6,-47.4 -6.1,-54.4c1.9,-3.7 14.3,-16.1 16.1,-16.1c2,0 1,-22.5 -1.6,-35.3c-0.6,-3.1 -0.7,-3.1 -5.4,-0.9Zm110.9,43.6c-0.2,0.2 -23.2,0.6 -51,0.9c-31.9,0.3 -51.3,0.9 -52.5,1.5c-3.1,1.7 -8.2,7.5 -9.4,10.6l-1.1,2.9l48.8,-0.6c26.8,-0.4 59.9,-1 73.6,-1.4l24.7,-0.6l4.2,-5.4c2.3,-3 5.1,-6.1 6.2,-6.9c1.8,-1.2 -0.6,-1.4 -20.5,-1.4c-12.4,0 -22.8,0.2 -23,0.4Zm-37.4,118.1c-4.6,4.6 -2.6,13.1 3.5,15c5.2,1.7 11,-2.6 11,-8.1c-0,-4.6 -0.9,-6.3 -4.1,-7.9c-4.1,-2.2 -7.7,-1.8 -10.4,1Zm8.7,1.5c3.5,2.7 4,5.5 1.6,8.5c-2.4,3 -6.1,3.2 -8.8,0.5c-2.7,-2.7 -2.5,-5.6 0.5,-8.5c2.9,-3 3.5,-3.1 6.7,-0.5Zm-23.4,-167c-24.1,0.4 -44,0.9 -44.4,1.2c-0.3,0.3 -0.1,4.1 0.5,8.3c0.6,4.2 1.1,12.9 1.1,19.2l0,11.6l56.8,-0.6c31.2,-0.4 65.6,-1 76.5,-1.4l19.9,-0.6l-0.4,-17.1c-0.2,-11.5 -0.7,-17.8 -1.6,-19.4l-1.3,-2.2l-31.7,0.2c-17.4,0.1 -51.4,0.4 -75.4,0.8Zm-1.4,276.3l-6.1,4.9l-0.2,76.8l39.7,0.1c21.8,-0 53.5,-0 70.4,0.1c16.8,-0 31.1,-0.3 31.7,-0.6c0.8,-0.5 1.1,-14 1.1,-43.8l-0,-43l-65.3,0.3l-65.3,0.4l-6,4.8Zm55.1,-206.2c-14.8,0.3 -42.1,0.7 -60.6,0.8c-18.5,-0 -38.3,0.4 -44,0.7l-10.5,0.7l5.7,26.1c7.2,32.8 16.5,74.6 18.1,81l1.2,4.8l21.6,-0.7c11.8,-0.4 21.6,-0.9 21.8,-1c0.2,-0.2 -0.4,-1.5 -1.4,-3c-2.3,-3.5 -2.3,-11 0,-15.3c0.9,-1.8 3.5,-4.6 5.8,-6.2c7.8,-5.7 17.8,-3.5 23.6,5c2,3 2.3,4.4 2,9.7c-0.5,7.5 -2.6,10.9 -8.6,13.8l-4.1,2l-0.1,6.2c-0,8.1 -2.3,10.8 -7.1,8.3c-1.5,-0.9 -1.9,-2.2 -1.9,-6.6l-0,-5.4l-20.7,0.6c-11.5,0.4 -20.9,0.7 -21,0.8c-0,-0 7.6,4.6 17,10.1l17.2,10l26.5,0c14.6,0 46,-0.2 69.8,-0.5l43.4,-0.5l-8.2,-6c-4.5,-3.3 -11.1,-8.2 -14.7,-10.8c-4.3,-3.1 -7.1,-4.6 -8.2,-4.2c-1.9,0.8 -76,0.7 -77.3,-0.1c-1.2,-0.8 -1,-4.8 0.4,-6.2c0.9,-0.9 10.3,-1.2 36,-1.2c28.2,-0 34.8,-0.3 34.8,-1.3c-0,-3.5 -4.3,-24.7 -7.5,-36.7c-1.9,-7.4 -6.7,-25.9 -10.5,-41c-3.9,-15.1 -7.5,-29.2 -8.1,-31.3c-0.5,-2 -1.5,-3.6 -2.2,-3.5c-0.7,0.1 -13.3,0.5 -28.2,0.9Zm48.5,124.7c4.8,1.8 5.8,3.9 4.5,8.9c-1.4,5.6 -17.6,8.5 -25.5,4.5c-6.9,-3.4 -7.3,-10.7 -0.8,-13.6c4.6,-2 16.3,-1.9 21.8,0.2Zm-16.8,4.4c-4.2,2.1 -1.8,3.3 7.6,3.6c5.1,0.1 9.2,-0.1 9.2,-0.6c-0,-2.7 -12.8,-5 -16.8,-3Zm-18.8,-111.3c2.3,1 4.8,2.7 5.7,3.7c2.8,3.2 16.9,55.7 16.9,62.7c-0,5 -2.1,9.9 -5.5,12.6c-2.7,2.1 -3.6,2.1 -21.9,1.9l-19.1,-0.3l-0.3,-3.3c-0.2,-1.7 -0.2,-3.3 -0,-3.4c0.2,-0.1 8.4,-0.4 18.3,-0.7l18,-0.6l1.4,-3c1.6,-3.3 0.8,-7 -8.6,-40.9c-5.3,-19.1 -5.8,-20.2 -9.4,-21.5c-2.7,-0.9 -90,-0.5 -92.8,0.4c-1,0.4 -1.2,1.7 -0.6,5.3c0.9,6.4 13.2,55.9 14.5,58.3c0.8,1.4 2.1,1.9 5,1.9c8,-0 9.9,7.6 2,8c-6.5,0.4 -7.9,-0 -11.3,-3c-3.9,-3.4 -4.9,-6.3 -12.7,-38.2c-6.2,-25.2 -7.1,-32.9 -4.4,-36c5.2,-5.8 3.6,-5.6 54.2,-5.7c43,-0.1 46.8,0.1 50.6,1.8Z" style="fill:#ebebeb;"/></svg>