<?xml version="1.0" encoding="UTF-8" standalone="no"?><!DOCTYPE svg PUBLIC "-//W3C//DTD SVG 1.1//EN" "http://www.w3.org/Graphics/SVG/1.1/DTD/svg11.dtd"><svg width="100%" height="100%" viewBox="0 0 409 444" version="1.1" xmlns="http://www.w3.org/2000/svg" xmlns:xlink="http://www.w3.org/1999/xlink" xml:space="preserve" xmlns:serif="http://www.serif.com/" style="fill-rule:evenodd;clip-rule:evenodd;stroke-linejoin:round;stroke-miterlimit:2;"><path d="M182.8,26.2c27.4,10.2 56.1,44.9 71.2,85.8c3.4,9.3 9.3,31.6 11,41.5c3.3,19.9 6.2,33.2 7.5,34.5c2.1,2 9.3,0 16,-4.4c9.8,-6.6 22.8,-10.1 35,-9.4c4.1,0.2 7.5,0.2 7.5,0c-0,-1.9 -11.6,-8.5 -22.7,-12.9c-6,-2.4 -8.2,-2.7 -19.6,-2.8c-14.4,-0.2 -16.6,-1 -14.4,-5.5c3.2,-6.4 25.1,-5.3 42.7,2.4c10.3,4.4 15.5,8.3 26.3,19.5c12.8,13.2 17.4,24.3 18.4,43.8c0.5,9.2 0.3,12 -1.1,15.7c-2.4,6.4 -6.6,9.6 -12.3,9.6c-5.8,0 -8,-2.2 -16.8,-17c-14.2,-24 -23.6,-35.9 -30.2,-38.1c-3,-1 -3.8,-0.8 -7.1,1.4c-6.7,4.4 -10.6,6 -16.7,6.8c-3.3,0.4 -7.2,1.1 -8.6,1.4c-2.2,0.6 -2.8,0.2 -3.7,-2.2c-1.3,-3.1 -4.7,-19 -8.7,-40.8c-5.4,-28.9 -11.6,-47.2 -23.1,-68c-10.6,-18.9 -25.1,-35.6 -40.3,-46.3c-7.7,-5.4 -17.5,-9.2 -23.8,-9.2c-4.4,0 -9.3,4.5 -9.3,8.7c0,6.4 4.1,19.8 14.6,48.5c16.3,44.4 22,72.4 21.2,104.8l-0.3,13.5l-2.7,0.3c-2.2,0.3 -3.1,-0.4 -5.2,-3.6c-3.5,-5.5 -10.2,-10.8 -17.7,-13.8c-5.7,-2.3 -7.4,-2.6 -15.9,-2.2c-14.9,0.7 -27.8,6.8 -40.5,19.3c-21.4,20.9 -39.4,61 -39.5,87.7c0,11.3 2.2,9.3 16.1,-14.1c26.9,-45.5 42.4,-61.9 65.3,-69.6c10.2,-3.4 19.7,-3.6 28,-0.6c8.8,3.1 10.1,4.3 14.7,13.1c3.6,7.1 5.9,9.8 5.9,7.1c0,-0.4 1.9,-3 4.2,-5.6c4.8,-5.4 10.5,-8.4 16.2,-8.5c2.3,0 7.9,-1.8 14,-4.4c11.8,-5.1 19.1,-6.8 29.1,-6.8c9.5,0.1 14,1.4 21.3,6.2c11.3,7.6 21.2,24.5 25.6,44c4.3,18.9 4.1,46.8 -0.4,69.1c-3.9,19.2 -8,28.3 -14.2,31.5c-4.1,2.2 -12,2.2 -15.2,0c-4.8,-3.1 -8.1,-15.8 -13.1,-50.1c-1.4,-9.9 -3.1,-20 -3.6,-22.5c-1.7,-7.8 -5.1,-17.2 -5.9,-16.3c-0.5,0.4 -2.9,8 -5.5,16.8c-15.1,51.9 -37.5,87.1 -68.8,107.9c-10.7,7.1 -14.4,8.7 -30,13c-14,3.8 -19.3,6.6 -22.7,12c-1.9,3.2 -2.6,3.6 -6.3,3.6c-4.8,0 -10.3,-2.8 -17.7,-9.1c-8,-6.8 -7.8,-9.5 1.8,-20.1c5.7,-6.3 7.5,-9.8 8.6,-16.3c2.8,-18.4 4.5,-22.8 15.8,-41c19.7,-32 33.8,-64.6 38.9,-90.1c2.8,-14.4 2.4,-21.7 -1.6,-25.2c-2.5,-2.1 -3.5,-2.3 -7.4,-1.8c-13.3,1.8 -27.4,9.7 -38.5,21.7c-7.2,7.7 -16.6,21.3 -27.1,38.9c-3.8,6.3 -8.8,14.7 -11.3,18.7c-9.2,15.2 -18.1,18.4 -23.3,8.3c-1.6,-3.1 -1.7,-4.7 -0.9,-14.6c1.8,-22.6 10.1,-45.6 23.9,-66.5c18.1,-27.5 33.9,-39.6 56.9,-43.6c6.6,-1.1 9.8,-1.2 15.3,-0.3c7.6,1.1 17.2,4.6 21.8,7.9c1.5,1.1 3,1.9 3.2,1.7c0.2,-0.3 0.1,-6.9 -0.3,-14.8c-1.2,-25.3 -6.7,-47 -23.8,-92.8c-9.9,-26.9 -11.1,-30.8 -11.1,-39.5c-0.1,-6.8 1.3,-10.5 5.4,-14.3c5.9,-5.5 14.3,-6.2 25.5,-2Zm127.2,157.2c0,0.3 2.5,2.9 5.5,5.9c4.8,4.8 11.7,14.9 27,38.9c3,4.8 4.6,6.4 6.6,6.6c3.2,0.4 3.8,-1 4.6,-9.9c1,-11.9 -4.8,-32.2 -10.7,-37.4c-1.3,-1.2 -5,-2.5 -8.9,-3.2c-6.4,-1.1 -24.1,-1.8 -24.1,-0.9Zm-54.6,32.1c-6.2,1.3 -14.4,4.9 -14.4,6.3c0,0.4 2.3,2.5 5.1,4.7c6.8,5.4 12.6,13.3 19.2,26.2c6.6,13 9.9,23.2 12.2,37.3c5.7,36.8 7.6,47.2 9.5,53.2c2,6.6 2.2,6.8 5.4,6.8c4.3,0 6.2,-2.2 9.1,-10.7c4.6,-13.3 6.6,-25.7 7.2,-44.9c1,-33.9 -4.3,-54 -18.6,-69.6c-9.5,-10.3 -18.8,-12.8 -34.7,-9.3Zm-68.8,10.7c-0.3,0.7 -0.7,6 -0.9,11.8c-0.6,11 -2.4,20.7 -5.8,30c-5.9,16.2 -22.5,49.2 -37.1,73.7c-8.7,14.7 -10.5,19.2 -13.3,34.8c-1.8,10 -4.3,15 -10.4,21c-2.3,2.1 -4.1,4.5 -4.1,5.1c0,1.8 8,8.4 10.2,8.4c1,0 4.2,-1.8 7.1,-4c6.7,-5 9.8,-6.3 24.3,-10c6.9,-1.8 14.2,-4.4 17.8,-6.4c31.8,-17.8 55.7,-50.8 71.1,-98c5.1,-15.6 8.5,-31.3 8.5,-38.9c0,-5.1 -0.4,-6 -5.4,-12.4c-10.4,-13.3 -20.6,-17.4 -30.1,-12c-4.8,2.7 -8,7.3 -10.1,14.6c-0.9,3 -2.5,6.8 -3.5,8.5c-1,1.7 -1.9,4.6 -1.9,6.4c-0,4.9 -3.5,21.3 -7.4,34.9c-6.7,22.8 -16.2,44 -28.6,63.3c-8.9,13.9 -10.8,16.2 -13.5,15.8c-1.5,-0.2 -2.1,-1.2 -2.3,-3.9c-0.3,-3.2 0.9,-5.5 8.1,-16.5c4.6,-7.1 9.9,-15.6 11.6,-18.9c9.9,-18.2 21.1,-51.5 22.6,-67.5c0.4,-3.6 1,-9 1.4,-12c1.1,-8.6 -0.2,-19 -3,-24c-2.5,-4.6 -4.6,-6.1 -5.3,-3.8Z" style="fill:#ebebeb;"/></svg>