<?xml version="1.0" encoding="UTF-8" standalone="no"?><!DOCTYPE svg PUBLIC "-//W3C//DTD SVG 1.1//EN" "http://www.w3.org/Graphics/SVG/1.1/DTD/svg11.dtd"><svg width="100%" height="100%" viewBox="0 0 381 288" version="1.1" xmlns="http://www.w3.org/2000/svg" xmlns:xlink="http://www.w3.org/1999/xlink" xml:space="preserve" xmlns:serif="http://www.serif.com/" style="fill-rule:evenodd;clip-rule:evenodd;stroke-linejoin:round;stroke-miterlimit:2;"><path d="M231.6,12.9c2.2,1 5.1,3.2 6.5,4.9c2,2.7 3.6,3.4 9.9,4.6c54.9,10.5 88.8,40.6 99.1,88.2c1.9,8.4 2.3,14 2.6,37.4c0.5,31.7 0.1,34.4 -5.8,37.2c-2.7,1.4 -8.4,2.1 -24,2.9l-20.4,1.2l-9.5,9.1c-16.9,16.3 -38.3,32.1 -52.2,38.6c-8.6,4 -24.1,7.8 -37.3,9.1c-13.4,1.3 -25.5,-0.3 -41.2,-5.6c-11.9,-4 -18,-6.9 -35.7,-17.4c-7.2,-4.3 -18.2,-10.6 -24.3,-14l-11.3,-6.3l-13.7,7.5c-17.6,9.6 -27.9,13.7 -36.3,14.4c-5.7,0.4 -7.1,0.1 -11.9,-2.4c-7.2,-3.7 -9.5,-6.9 -9.4,-13.2c0.1,-5.8 2.6,-10.6 7.6,-14.4c3.9,-3 15,-8.7 22.6,-11.7c7.3,-2.8 20.2,-9.4 33.1,-16.7c5.8,-3.3 12.7,-6.8 15.3,-7.8c5.4,-2.1 5.3,-1.6 6.1,-20c1.1,-23.9 6,-46.5 13.3,-61c10.8,-21.6 29.5,-39 51.3,-47.8c11.9,-4.8 32.7,-9.7 41.1,-9.7c2.2,0 4.1,-1.2 7.2,-4.5c3.9,-4 4.8,-4.5 8.8,-4.5c2.4,0 6.2,0.9 8.5,1.9Zm-189.1,184c-12.6,2.8 -17.5,6.2 -17.5,12.2c-0,3.4 3.7,6.5 8.8,7.4c5.4,0.9 18.2,-3.4 32.5,-10.8l11.8,-6.2l-4.3,-1.9c-6,-2.8 -20.7,-3.1 -31.3,-0.7Zm181.3,-177.2c0.6,0.2 1.8,0.2 2.5,-0c0.6,-0.3 0.1,-0.5 -1.3,-0.5c-1.4,-0 -1.9,0.2 -1.2,0.5Zm-115.4,144.2c-8.5,1.4 -12.3,3 -29.2,12.4c-15.5,8.5 -17.8,10.6 -12.1,10.7c3.4,0 17.7,5.3 26.9,10c5.2,2.6 17.6,9.6 27.5,15.5c28.5,17.2 39.4,21.9 58,25.2c7.6,1.3 10.7,1.3 20.2,0.3c13.5,-1.4 27.5,-5 35.6,-9.1c12.6,-6.4 37.5,-24.8 47.5,-35.2l4.3,-4.4l-11.3,-0.6c-13,-0.7 -28.3,-3.4 -65.7,-11.6c-28.1,-6.3 -43.8,-9.4 -58.6,-11.7c-11,-1.7 -36.2,-2.6 -43.1,-1.5Zm147.7,-127.2c11.6,12 22.3,34.4 25,52.2c1,6.5 1,12.6 -0,30.4c-1.4,24.6 -3.8,55.9 -4.7,59.6l-0.5,2.4l24.8,-0.8c24.6,-0.7 38.9,-1.7 40,-2.9c1.2,-1.2 1.5,-38.4 0.4,-49.7c-4.4,-45.5 -26.6,-74.6 -68.6,-90.2c-6.4,-2.4 -18.1,-5.7 -20.1,-5.7c-0.5,0 1.2,2.1 3.7,4.7Zm-52.2,-7.8c-38.4,4.1 -66.5,22.2 -81.5,52.7c-7,14.4 -11.8,36.8 -13.1,61.5l-0.6,11.6l18.9,0.6c23.1,0.7 30,1.8 103.9,17.5c15.4,3.3 29.9,6.3 32.1,6.6l4.1,0.6l0.6,-5.3c2.2,-18.7 4,-47.3 4.1,-65.7c0.1,-25.8 -0.9,-31 -9.1,-47.8c-4.9,-10.1 -6.6,-12.4 -15.6,-21.8l-10.2,-10.5l-13,-0.4c-7.1,-0.2 -16.4,0 -20.6,0.4Z" style="fill:#ebebeb;"/></svg>