<svg xml:space="preserve" fill="#ebebeb" style="fill-rule:evenodd;clip-rule:evenodd;stroke-linejoin:round;stroke-miterlimit:2" viewBox="0 0 398 429" xmlns="http://www.w3.org/2000/svg"><path d="M206.5 24.9c4.1 1.9 9 5.4 12.9 9.1l6.2 6 8.8-2.2c7.7-1.9 9.7-2 15.9-1.1 16.6 2.4 25.6 10.5 32.7 29.5 1.5 4.1 2.8 5.8 5.5 7.2 5.1 2.8 11.2 9.8 14.3 16.4 2.4 5 2.7 6.9 2.7 16.2s-.3 11.1-2.7 16.3c-1.5 3.1-5 8.1-7.7 11-4.4 4.6-5.1 6-5.1 9.4v4l14.3.6c19.8.7 29.3 4.2 38.9 14.5 5.2 5.6 7.8 10.2 10.2 18.2 2.6 8.4 3.5 94.1 1.2 104.9-2.1 9.9-5 15.6-11.1 21.7-8.6 8.6-20.2 12.8-39.3 14-5.6.4-10.2.7-10.2.8s1.6 6.1 3.5 13.5c4.3 16.7 4.6 25.1 1.1 32.6-2.9 6.2-10.1 12.8-15.8 14.4-3.2.9-28.3 1.1-96.8.9-92.5-.3-92.5-.3-96.5-2.4-9.4-5.1-13.6-12.2-14.3-23.9-.3-6.8.1-10.1 3.1-21.5 6-23 5.9-20.9 5.5-114.2l-.3-85.7-5.3-5.3c-2.9-2.8-6.5-7.7-8-10.8-2.3-4.7-2.7-6.7-2.7-14.5 0-8.2.3-9.7 3.3-15.7 4.1-8.4 11.2-15 19.4-17.9 4.5-1.7 6.2-2.9 6.9-4.8 4.5-12 12.1-21.6 20.7-25.8 5.1-2.5 6.8-2.8 15.7-2.8 7.3 0 11.2.5 14.6 1.8l4.6 1.9 5.7-6c5.8-6.1 14.4-11.4 21.2-13.2 2.2-.5 7.6-.8 12.1-.6 6.6.3 9.5 1 14.8 3.5M93.8 222.2c.2 57.4 0 85.7-.8 91.1-.6 4.3-2.7 14.1-4.6 21.8-6.3 25.7-3.8 35.4 9.8 37.9 3.7.7 36.1 1 93.4.8 82-.3 88.1-.4 91.4-2.1 5.7-2.9 7.4-6.2 7.8-14.8.3-6.4-.3-10.4-4.2-26-2.5-10.1-5-22.5-5.6-27.4-.6-5.1-1-37.4-1-75.3v-66.4l-3.3 4.3c-7.5 9.9-17.6 14.5-29.7 13.7-14-1-24.8-10.8-30-27.3-.7-2.2-2.1-6.1-3.2-8.8l-2-4.7H93.5zm161.9 115.6c1.5 6 4.8 5.7-66.7 6-47.4.1-65.7-.1-66.6-.9-1.8-1.5-1.8-5.3-.1-6.8 1-.8 20-1.2 64.8-1.3 34.9-.2 64.4-.1 65.7.1 1.4.2 2.5 1.3 2.9 2.9m-82.3-141.1c6.4 4.5 8.7 9.4 8.4 17.4-.3 5.3-.9 7.5-3.1 10.6-9 13-27.8 11.6-34.9-2.6-3.4-6.7-3.5-11-.4-17.7 3.8-8.1 10.2-11.6 20-11 4.5.3 6.9 1.1 10 3.3m-17.3 7.7c-3.1 1.7-5 5.3-5.1 9.4 0 2.6.9 4.3 3.5 6.9 3.3 3.3 3.9 3.5 8.1 3 6.5-.7 9.9-4.2 9.9-10.3 0-3.9-.5-5-3.3-7.5-3.6-3.2-8.9-3.8-13.1-1.5m55.4 48.5c10.7 6.2 9.3 25-2.4 29.8-4.7 2-12 1.2-16.1-1.7-6-4.3-8.8-14.7-5.6-20.8 4.7-9 15.6-12.3 24.1-7.3m-13 9.6c-5.9 5.8.3 14.3 7.6 10.4 4.5-2.3 4-9.6-.7-11.8-3.5-1.6-4.2-1.4-6.9 1.4m92.8-104.9c-1.7.8-1.8 16.5-.1 18.2.7.7 2.7 1.2 4.6 1.2 1.8 0 7 .9 11.5 2.1 9.5 2.4 12.1 4.4 16.3 12.7l2.9 5.7.2 34.5c.1 19-.2 36.5-.7 39-.7 3.7-1.9 5.5-7.2 10.5-7.1 6.7-10.7 8.3-21.7 9.2l-7.4.6.6 8.6c.8 11.3 1.1 11.5 14.7 10.8 22.8-1.2 35.4-9.2 39.5-25.2 2.1-8.1 2.2-91.9.1-100.6-2.6-11.4-10.8-20.9-21.5-25-4.5-1.8-8-2.3-18.1-2.6-6.9-.1-13.1 0-13.7.3M175.4 34c-6.6 3.3-9.1 5.5-13.8 12.6-4.4 6.7-5.5 7.2-11.1 4.5-2.6-1.2-7.5-2.9-10.9-3.8-5.6-1.5-6.5-1.5-11.7 0-10.8 3.2-16.7 9.3-20.9 21.4-2.8 8.5-3.6 9.2-12.5 11.4-3 .8-6.4 2.6-8.8 4.8-13.4 12.1-10.7 34 5.2 41.8l5.6 2.8 59.9.2c45.2.2 60.2.5 61.3 1.5 2 1.6 5.6 9.1 8.2 16.9 5.6 17 16.4 24.6 29.7 21 9.9-2.7 16.7-11 18.9-23.3 1.8-10 2-10.4 8.5-14.8 9.8-6.7 14.9-17.2 13.7-28.5-1-9.6-6.3-17-16.2-22.3-4.3-2.3-5.2-3.3-6.3-7.2-4.2-14.1-8-20-15.7-23.9-4.2-2.2-6.3-2.6-13.5-2.6-7.7 0-9.3.3-15.3 3.3-3.7 1.8-7.1 3-7.7 2.7-.5-.3-2.6-3-4.6-6-3.7-5.7-10.6-11.5-16.8-14-2.1-.9-6.7-1.5-11.4-1.5-6.7 0-8.7.4-13.8 3M290 281h5c6.4 0 14.9-3.2 18.6-7.1l2.9-3v-35.7c0-19.6-.4-36.9-.8-38.4-1.1-4.2-7.4-6.9-17.4-7.6l-8.3-.5z" style="fill:#ebebeb"/></svg>