<?xml version="1.0" encoding="UTF-8" standalone="no"?><!DOCTYPE svg PUBLIC "-//W3C//DTD SVG 1.1//EN" "http://www.w3.org/Graphics/SVG/1.1/DTD/svg11.dtd"><svg width="100%" height="100%" viewBox="0 0 24 24" version="1.1" xmlns="http://www.w3.org/2000/svg" xmlns:xlink="http://www.w3.org/1999/xlink" xml:space="preserve" xmlns:serif="http://www.serif.com/" style="fill-rule:evenodd;clip-rule:evenodd;stroke-linejoin:round;stroke-miterlimit:2;"><g id="Background"><g><path id="bubble" d="M14.088,19.565c-0.524,0.046 -2.231,-0.003 -2.425,-0.008c-1.199,-0.034 -1.196,-0.045 -2.394,-0.087c-0.735,-0.026 -0.812,-0.17 -1.163,0.211c-0.424,0.461 -0.433,0.486 -1.118,0.965c-0.992,0.693 -1.888,0.904 -2.048,0.753c-0.149,-0.14 0.26,-0.923 0.238,-1.966c-0.01,-0.478 -0.352,-0.381 -1.185,-0.744c-1.961,-0.853 -2.36,-2.459 -2.505,-2.852c-0.309,-0.838 -0.485,-3.174 -0.488,-3.954c-0.009,-2.722 -0.095,-6.97 3.634,-8.409c1.043,-0.403 1.219,-0.368 1.875,-0.511c0.856,-0.187 2.994,-0.357 4.171,-0.389c1.788,-0.048 2.994,0.014 3.254,0.027c4.821,0.248 6.663,0.996 7.898,2.861c1.24,1.873 1.128,4.874 1.167,5.807c0.001,0.015 -0.039,1.423 -0.041,1.443c-0.096,0.788 -0.039,2.584 -0.838,4.076c-0.691,1.29 -1.575,1.648 -1.95,1.859c-0.563,0.317 -1.788,0.559 -2.187,0.621c-0.309,0.049 -1.576,0.248 -3.896,0.297Z"/><g id="face"><g><path d="M5.509,11.3c0.037,-0.741 0.374,-1.012 0.477,-1.166c0.091,-0.136 0.498,-0.375 0.742,-0.446c1.492,-0.434 2.597,1.174 1.939,2.446c-0.583,1.127 -1.946,1.171 -2.653,0.457c-0.434,-0.439 -0.48,-0.8 -0.505,-1.291Z" style="fill:#fff;"/><g><path d="M6.785,10.398c0.541,0.121 0.478,0.665 0.092,0.841c-0.133,0.061 -0.736,-0.065 -0.437,-0.68c0.074,-0.153 0.315,-0.16 0.345,-0.161Z"/></g></g><g><path d="M17.967,12.633c-0.439,0.37 -0.797,0.432 -1.302,0.426c-0.564,-0.007 -1.672,-0.606 -1.489,-2.035c0.029,-0.223 0.286,-1.004 0.993,-1.27c0.582,-0.219 0.861,-0.164 1.326,0.008c0.283,0.104 0.818,0.634 0.895,0.954c0.076,0.316 0.289,0.902 -0.218,1.693c-0.019,0.029 -0.157,0.159 -0.206,0.226Z" style="fill:#fff;"/><path d="M16.359,10.397c0.723,0.083 0.337,1.19 -0.268,0.766c-0.009,-0.01 -0.021,-0.016 -0.03,-0.025c-0.147,-0.157 -0.269,-0.661 0.298,-0.741Z"/></g><path d="M12.523,13.477c-0.415,0.069 -0.837,0.128 -1.346,-0.131c-0.697,-0.354 -0.684,-1.033 -0.65,-1.127c0.041,-0.114 0.457,-0.355 0.515,0.155c0.07,0.614 1.009,0.802 1.609,0.5c0.573,-0.289 0.252,-0.816 0.64,-0.803c0.501,0.016 0.178,0.699 0.11,0.816c-0.288,0.497 -0.873,0.588 -0.877,0.59Z" style="fill:#fff;"/></g></g></g></svg>