<svg viewBox="0 0 24 24" xmlns="http://www.w3.org/2000/svg" xml:space="preserve" style="fill-rule:evenodd;clip-rule:evenodd;stroke-linejoin:round;stroke-miterlimit:2"><path style="fill:none" d="M0 0h24v24H0z"/><path d="M5.804 16.511H2.027V3h20v13.511h-11.14L5.804 21V16.51zm.812-8.31c-.16-.03-.624-.055-1.03-.055-.585 0-.756.015-.846.08l-.11.076v2.532c0 1.897.014 2.542.06 2.587.045.045.346.06 1.056.06.85 0 1.032-.015 1.244-.096.377-.14.588-.332.765-.69.346-.704.196-1.575-.333-1.861l-.161-.087.19-.17c.404-.363.495-.996.228-1.596-.186-.423-.544-.684-1.063-.78zm-1.03 4.374v-1.359h.341c.694 0 1.017.206 1.017.649 0 .529-.237.71-.926.71h-.433zm0-2.24V9.092l.477.02c.433.02.493.03.61.151.256.252.2.776-.097.972-.075.045-.272.08-.553.085l-.438.015zm12.738-2.14c-.403-.155-1.057-.11-1.464.096-.262.137-.655.58-.756.851-.09.242-.1.393-.1 1.667 0 1.58.025 1.74.337 2.128.373.458.745.614 1.424.61.675-.006 1.158-.287 1.45-.84.126-.243.136-.309.15-1.028.01-.423.006-.825-.009-.891-.046-.171-.247-.216-.961-.211-.569.01-.644.02-.71.106-.076.105-.096.563-.03.67.06.1.322.17.563.16l.227-.015-.015.277c-.02.408-.131.629-.398.755a.751.751 0 0 1-1.012-.322c-.075-.142-.086-.318-.086-1.344 0-1.083.01-1.198.102-1.38.15-.301.327-.407.679-.407.348 0 .518.1.694.417.131.237.303.298.64.227.266-.06.357-.227.277-.528-.121-.448-.474-.801-1.002-.997zm-8.758.057c-.03-.05-.16-.081-.372-.097-.282-.02-.342-.004-.433.087-.105.105-.105.13-.105 2.606 0 1.38.02 2.537.045 2.573.06.1 2.48.105 2.592.01.06-.046.08-.156.08-.403 0-.494-.01-.498-.956-.513-.58-.01-.78-.031-.786-.08-.004-.031-.009-.972-.014-2.09-.005-1.123-.026-2.054-.051-2.093zm4.43-.076c-.911-.256-1.853.196-2.144 1.032-.06.166-.076.508-.076 1.636 0 0-.024 1.138 0 1.429.01.116.141.317.141.317.176.388.558.745.92.866.187.06.378.08.74.065.575-.02.781-.1 1.109-.438.472-.483.527-.755.508-2.421 0 0 .01-1.012-.02-1.283-.015-.126-.166-.343-.166-.343a1.659 1.659 0 0 0-1.013-.86zm-.781.926c.192-.06.51-.015.7.095.282.161.302.267.317 1.591.015 1.173.01 1.213-.1 1.435-.151.292-.378.418-.71.387a.737.737 0 0 1-.614-.392c-.091-.156-.101-.262-.101-1.33 0-1.237.03-1.424.247-1.63a.814.814 0 0 1 .26-.156z"/></svg>