<?xml version="1.0" encoding="UTF-8" standalone="no"?>
<!DOCTYPE svg PUBLIC "-//W3C//DTD SVG 1.1//EN" "http://www.w3.org/Graphics/SVG/1.1/DTD/svg11.dtd">
<svg width="100%" height="100%" viewBox="0 0 24 24" version="1.1" xmlns="http://www.w3.org/2000/svg" xmlns:xlink="http://www.w3.org/1999/xlink" xml:space="preserve" xmlns:serif="http://www.serif.com/" style="fill-rule:evenodd;clip-rule:evenodd;stroke-linejoin:round;stroke-miterlimit:2;">
    <g transform="matrix(1,0,0,1,-55.6116,0)">
        <g id="Book" transform="matrix(1,0,0,1,55.6116,0)">
            <rect x="0" y="0" width="24" height="24" style="fill:none;"/>
            <g transform="matrix(0.0693615,0,0,0.0691583,-6.98054,-6.70138)">
                <path d="M394.74,98.5C401.221,101.8 400.922,93.5 400.623,235.7L400.324,364.5L396.934,372C391.948,383 389.854,391.4 389.854,400.2C389.854,410.5 391.35,416.9 395.937,427C398.828,433.2 399.725,436.2 399.227,438.2C397.931,444.4 404.412,444.1 286.558,443.8L178.974,443.5L171.297,439.8C158.734,433.8 150.657,423.9 147.666,410.9C146.171,404.5 146.171,140.9 147.666,133.8C151.056,117.6 164.816,102.8 180.569,98.6C188.646,96.4 390.552,96.3 394.74,98.5ZM195.924,114C186.951,114.4 183.062,115 180.47,116.4C173.59,120.1 169.602,124.1 166.511,130.3L163.52,136.5L163.22,251.3C163.121,314.4 163.32,366 163.819,366C164.217,366 166.311,364.9 168.305,363.5C170.399,362.1 174.786,360 178.077,358.7L183.959,356.5L283.966,356.2L383.872,355.9L383.673,234.7L383.374,113.6L295.631,113.5C247.373,113.5 202.505,113.7 195.924,114ZM184.458,374.4C170.798,378.1 162.722,389.1 163.819,402.5C164.716,414 171.596,423.3 181.267,426C183.66,426.6 217.96,427 281.274,427L377.591,427L375.596,421.2C372.605,412.4 372.107,393.7 374.699,384C375.796,379.9 376.992,375.7 377.391,374.7C378.089,373.1 373.203,373 283.567,373.1C212.077,373.1 187.848,373.4 184.458,374.4Z" style="fill:rgb(248,248,248);"/>
            </g>
        </g>
    </g>
</svg>
