<svg xml:space="preserve" fill="#ebebeb" style="fill-rule:evenodd;clip-rule:evenodd;stroke-linejoin:round;stroke-miterlimit:2" viewBox="0 0 1024 1024" xmlns="http://www.w3.org/2000/svg"><path d="M2334 7161c-23-10-52-34-65-52l-24-34-3-2155c-1-1185 0-2169 3-2187 8-43 50-92 100-114 38-18 94-19 1134-19h1094l61-34c305-168 629-169 951-2l60 31 1116 5 1115 5 43 28c27 18 50 44 62 70 18 41 19 102 19 2192v2151l-22 44c-17 32-36 51-68 67l-45 24-1065-4c-1171-4-1093 0-1286-67-133-46-236-107-359-213l-40-35-59 53c-112 101-272 182-456 233l-95 27-1065 2c-1025 3-1067 2-1106-16m2156-221c181-29 379-133 493-259l37-41V4935c0-938-2-1705-5-1705s-25 16-51 35c-99 76-227 139-359 177l-80 23-1032 3-1033 3v3479h983c621 0 1006-4 1047-10m3290 10V3471l-1032-4-1033-3-85-22c-108-29-291-118-352-171-25-23-49-41-52-41s-6 766-6 1703c0 1633 1 1703 18 1732 25 40 142 135 222 179 83 45 134 63 240 86 79 17 153 19 1083 19zM4558 3222c155-47 314-147 384-240 53-69 68-119 68-224v-89l-37 7c-47 8-106 31-253 97l-115 52-1072 3-1073 2v421l1013-3 1012-3zm3222 28v-420H5658l-89-30c-49-16-112-42-141-56-43-22-181-74-195-74-2 0-3 43-3 96 0 82 4 103 27 152 51 110 196 224 364 286 114 43 149 44 1177 45z" style="fill:#fff;fill-rule:nonzero" transform="matrix(.14397 0 0 -.14397 -225.169 1235.51)"/><path d="M5604 6531c-17-11-36-34-43-52-8-23-11-382-11-1298 0-1252 0-1266 20-1299 39-64 3-62 937-62 823 0 849 1 880 20 67 41 63-53 63 1345 0 1071-2 1271-14 1300-29 68 19 65-938 65-831 0-864-1-894-19m548-283-82-83-82 83-83 82h330zm928 79c0-1-35-37-78-80l-77-77-160 160h158c86 0 157-1 157-3m-448-164c71-70 128-132 128-138 0-13-252-265-265-265-6 0-69 59-140 130l-130 130 135 135c74 74 137 135 140 135 2 0 62-57 132-127m608-133c0-88-3-159-7-159-5 1-42 37-83 80l-74 79 79 80c44 44 81 80 82 80 2 0 3-72 3-160m-1330 0c-1-3-35-41-75-85l-75-80v319l75-74c41-41 75-77 75-80m297-560c-72-74-133-136-135-139-1-3-66 58-142 134l-140 140 275 275 275-275zm993 135-276-276-274 276 275 275zm-442-427c-2-4-61-66-133-138l-129-131-135 136-136 135 270 270 132-132c73-73 132-136 131-140m482-5v-168l-171 171 83 82c46 45 84 82 86 82 1 0 2-75 2-167m-1395 77 70-70-155-155v148c0 81 3 147 8 147 4 0 39-32 77-70m365-355 135-135-135-135c-74-74-138-135-143-135-11 0-267 255-267 266 0 9 261 274 270 274 3 0 66-61 140-135m985-135-270-270-132 132c-73 73-133 136-133 139 0 4 60 66 133 138l132 130 135-134zm-557-283 133-133-138-137-138-136-135 134-135 135 135 135c74 74 137 135 140 135s65-60 138-133m602-144v-168l-80 80c-44 44-80 84-80 90 0 8 149 165 157 165 2 0 3-75 3-167m-1403-70-77-78v310l77-78 78-77zm311-146c39-40 72-76 72-80s-67-7-150-7c-82 0-150 3-150 7 0 9 142 153 150 153 3 0 38-33 78-73m850 0c39-40 72-76 72-80s-67-7-150-7c-82 0-150 3-150 7 0 9 142 153 150 153 3 0 38-33 78-73" style="fill:#fff;fill-rule:nonzero" transform="matrix(.14397 0 0 -.14397 -225.169 1235.51)"/></svg>