<svg xml:space="preserve" fill="#ebebeb" style="fill-rule:evenodd;clip-rule:evenodd;stroke-linejoin:round;stroke-miterlimit:2" viewBox="0 0 467 358" xmlns="http://www.w3.org/2000/svg"><path d="M397.1 148.8c5.9 2.9 11.3 8.3 14.1 14 1.7 3.7 2.2 6.8 2.6 17.4l.5 12.8h33.5c31.9 0 33.8.1 37.9 2.1 4.7 2.3 9.4 7.6 11.1 12.8.9 2.5 1.2 30.6 1.2 104.5v101.1l-2.4 5.1c-3 6.5-8.5 11-15 12.4-3.5.7-62.5.9-185.6.8-200.6-.3-182.7.3-189.7-7-6.7-6.9-6.3-.1-6.3-113.6V208.3l2.3-4.4c1.4-2.7 4.2-5.7 7.1-7.7l4.8-3.2h69.6l.4-12.8c.3-8.5 1-13.9 2-16.3 3.2-7.4 11.4-14.4 19.8-17 1.4-.4 44.1-.7 95-.6l92.5.2zm-283 55.6c-5.2 2.9-5-1.3-5.1 107.7v101.6l2.2 2.8c4.6 5.8-6.8 5.5 187.3 5.5 196.5 0 183.5.4 187.5-6.2 2-3.3 2-4.8 2-104.2V210.8l-7.8-7.8H298.4c-149.1.1-182.3.3-184.3 1.4m234.7 28.2c11 7.1 5.9 24.4-7.3 24.4-7.5 0-13.8-5.8-13.8-12.8 0-10.9 12-17.5 21.1-11.6m-10.2 8.9c-2 2-.5 5.5 2.3 5.5s4.7-2.8 3.4-4.8c-1.4-2.3-3.8-2.6-5.7-.7m-132.4 47.1c15.4 4.6 27.8 15.2 35.3 30.1 3.8 7.7 5.5 13.8 6.1 22.8 2 28-17.1 53.6-45 60.4-7.8 1.9-22.1 1.5-29.6-.8-18-5.6-33.2-20.6-39.1-38.6-2.8-8.3-3.3-23.9-1-32 6.3-22.7 25.5-39.9 48.5-43.6 6.7-1 18.1-.2 24.8 1.7m-27.9 8.8c-14.1 3.5-26.6 13.7-33 27.1-3.2 6.8-3.7 8.8-4.1 17.4-.7 15.7 3.5 27 14.2 37.7 19.1 19.1 48.6 19 68.2-.1 9.5-9.3 14.4-20.9 14.4-33.9-.1-8.9-1.3-14.3-5.1-22.3-9.5-20-33-31.1-54.6-25.9m18.4 32.7c7.8 3.8 11.7 14.4 7.9 21.8-2.2 4.2-8.1 8.9-12 9.6-7 1.4-16.4-4.2-18.6-11.1-3.4-10.1 5-22.2 15.4-22.4 1.6 0 4.9.9 7.3 2.1M185 340c-2.9 2.9-2.6 7.4.6 9.9s5.2 2.6 8.2.5c3.1-2.1 3.1-8.7 0-10.8-3.1-2.2-6.4-2-8.8.4m269.7-117.1c1.3 2.1-.1 24.9-1.8 29.3-2.7 6.7-16.9 5.7-16.9-1.2 0-2.4 4.6-6 7.5-6 2.1 0 2.4-.5 2.7-6.3.2-3.4.3-6.3.3-6.5-.1-.1-3.3 1-7.2 2.4l-7.1 2.6-.7 12.6c-.7 11.5-.9 12.7-3.2 15-2 2-3.1 2.4-6.3 1.9-5.6-.7-9.5-2.9-9.8-5.5-.5-3.1 2.2-5.9 6.8-7.3 3.7-1.1 3.7-1.2 4.4-7.8.3-3.6.6-8.5.6-10.8s.5-4.5 1-4.8c2.6-1.6 26.6-10.2 27.5-9.9.6.3 1.6 1.3 2.2 2.3m-193.6 8.6c6.4 3.4 8.9 12.8 5 19.1-2.7 4.5-9.8 7.1-14.9 5.6-8.1-2.5-12.1-10.7-8.9-18.5 2.9-6.8 11.9-9.7 18.8-6.2m-9.7 9.9c-1.1 2.8.4 4.8 3.3 4.4 2.2-.2 2.8-.8 2.8-2.8s-.6-2.6-2.8-2.8q-2.7-.3-3.3 1.2m53.3-9.7c9.7 4.6 9.6 19.8-.2 23.9-9.8 4-19.5-1.9-19.5-12s10.3-16.4 19.7-11.9M295 242c-.9 1.6-.8 2.5.1 3.6 2.6 3.2 8.4 0 6.2-3.4-1.6-2.6-5-2.7-6.3-.2m-92.6-19.8c1.3 1.8 1.6 5.4 1.6 18.1 0 17-.9 21.1-5.1 24.1-3.7 2.5-10.5 2.1-13.4-.9-5.5-5.4-.7-15.5 7.4-15.5 2 0 2.1-.6 2.1-8.5 0-5.5-.4-8.5-1.1-8.5-.6 0-6.2 1-12.5 2.1l-11.4 2.2v12.1c0 14.3-1 18.6-5.1 22-4.3 3.6-11.9 3.7-15.4.1-5.5-5.5-2-13.3 6.9-15.6l4.6-1.1v-11.3c0-9.7.3-11.4 1.9-12.9 1.2-1.1 8.2-3 18.7-5.1 20.6-4.1 19-4 20.8-1.3m132.8 66.5c1.7 1.5 1.8 4.3 1.8 47 0 44-.1 45.4-2 47.3s-3.3 2-36.5 2-34.6-.1-36.5-2-2-3.3-2-47.1c0-29.1.4-45.7 1-47 1-1.8 2.5-1.9 36.7-1.9 31.8 0 35.8.2 37.5 1.7M269 376h59v-81h-59zm46.6-44.6c1 1.4 1.4 5.1 1.4 13.2 0 16.2.4 15.9-18.9 15.9-19.4 0-18.6.7-18.6-15.6 0-16.5-.4-16.2 19.8-15.7 13.4.3 15 .5 16.3 2.2m-27 13.3.2 6.8 19.2.6V338h-19.5zm134.7-56.1c27.1 6.9 46 35.8 41.8 63.8-3.5 24.1-20.1 43-43.1 49.1-8.9 2.4-23.5 2-32.7-1-24.2-7.7-40.3-29.8-40.3-55.3 0-16.5 5.3-29.5 17-41.3 9.5-9.7 20.3-15.2 33.5-17.3 4.9-.7 17.2.3 23.8 2m-28.2 9c-12.8 3.4-25.8 14-31.5 25.6-11.9 24.4-2.5 53.2 21.4 65.2 17 8.5 35 7.1 50.5-3.9 9.7-6.9 15.8-15.9 19-28 6.5-25.3-10.1-53-35.6-59-7.9-1.8-16.7-1.8-23.8.1m18.2 31.8c4.4 1.8 9.5 7.8 10.3 12.1 1.1 6-.4 10.3-5 14.9-7.2 7.3-16.2 7.1-23-.4-4.1-4.6-5-7.4-4.4-13.5.7-5.6 4.1-10.3 9.2-12.6 4.9-2.2 8.5-2.4 12.9-.5m-10.4 10.4c-4.5 3.7-1.6 12.2 4.1 12.2 3.1 0 7-3.9 7-7.1 0-5.9-6.4-8.8-11.1-5.1M204.2 158.1c-4.4 2.2-8.6 7.4-9.7 11.9-.3 1.4-.7 7.1-.9 12.7l-.3 10.3H403v-11c0-15.2-2.2-20.3-10.5-24.1-3.8-1.8-8.8-1.9-94-1.9h-90z" style="fill:#ebebeb" transform="translate(-67 -113)"/></svg>