<svg xml:space="preserve" fill="#ebebeb" style="fill-rule:evenodd;clip-rule:evenodd;stroke-linejoin:round;stroke-miterlimit:2" viewBox="0 0 819 379" xmlns="http://www.w3.org/2000/svg"><path d="M756.1 39.1c4.7 1.6 7.4 4.3 8.8 8.8.8 2.8 1.1 37.5 1.1 128 0 134.6.3 127.8-5.5 133.1l-2.7 2.5-77.4.6-1.1 7.1c-2.5 15.7-14.9 33-29 40.6-20.2 10.7-42 8.7-60.5-5.5-10.3-7.9-18.3-21.5-21-35.7l-1.3-6.6H225.3l-1.2 6.7c-4.4 23.9-21.6 41.9-44.8 46.9-13 2.8-26.7.2-39.6-7.3-13.7-8-23.4-22.5-25.9-38.6l-1.3-7.7-25.5-.1c-14-.1-26.8-.4-28.5-.8-4.8-1-6.6-6-7.1-19.3-.5-12.3-.3-12.8 5.6-12.8h3.5v-58.5l3.1-6c3.7-7 11.1-14.3 18-17.8 2.7-1.3 12-5.2 20.6-8.6l15.7-6.2 7.9-10.7c4.3-5.9 9.8-13.5 12.3-16.9 17.6-24.4 37.6-50.7 40.2-52.9 1.8-1.5 5.5-3.8 8.2-5l5-2.4H313V72.1c0-13.1.4-23.1 1.1-24.8 1.3-3.4 4.7-7.2 7.4-8.3 3.3-1.4 430.5-1.2 434.6.1M617 264.7c-17.1 2.9-31.5 15.5-36.6 32.2-2.8 9.4-1.2 24.7 3.7 34.3 4.6 9 15.6 18.4 25.7 22 8 2.8 22.7 3 29.8.4 11.8-4.4 22.7-15.2 27.5-27.3 1.9-4.8 2.3-7.7 2.4-16.8 0-10.7-.1-11.2-3.7-18.8-4-8.4-10.7-15.8-18.2-20.2-7.9-4.6-21.9-7.3-30.6-5.8m15.3 25.6c8.8 3.7 14.2 11.8 13.5 20.2-1.6 19.1-24.3 27.5-36.2 13.4-7.4-8.8-7.4-20.2.2-28.3 5.5-5.8 15.5-8.2 22.5-5.3m-11.8 9.6c-7.3 3.3-8.8 11.5-3.2 17.5 5.8 6.1 11.8 5.6 16.4-1.3 3.3-4.9 3.1-10.1-.6-14-1.6-1.7-3.6-3.1-4.4-3.1-.9 0-2.1-.2-2.9-.5-.7-.2-3.1.4-5.3 1.4M221 104c-26.2.5-28.8.7-31.8 2.5-2.2 1.3-13 15-31 39.1-15.3 20.4-29.2 39.2-30.9 41.8-3.7 5.2-5.8 6.4-24.8 13.2-16.5 5.9-19.7 7.6-24.5 12.5-4.6 4.8-6 10-6 22.4v8.5h27.8l.5 3.2c.2 1.8.2 3.8 0 4.4-.5 1.2-10.2 2.4-20.5 2.4-3.7 0-6.9.3-7.1.7-.3.5-.8 6.1-1.2 12.5l-.7 11.7 6.4.3 6.3.3.3 3.3c.5 5.4-.9 6.2-11.4 6.2H63v11h50.6l2.3-7.3c2.9-9.2 6.2-14.9 12.5-21.6 13-13.7 29.7-19.6 48.4-17 17.8 2.5 34.8 14.9 42.6 31.1 2 4.3 4 9.3 4.3 11.3l.6 3.5H266v-3.3c0-1.7.2-25.1.4-52l.4-48.7H156.2l-1.2-2.9c-1.2-2.9-.7-3.8 12.1-23.8 19.9-31.3 28.7-44 32.1-46.4 2.9-2.1 3.7-2.2 36.9-2 23.7.1 34.5.4 35.8 1.2 4.7 3 4.6-.1 4.9 91.6l.3 86.2 17.6.3c11 .2 17.7-.1 17.9-.7s.3-44.9.2-98.5l-.3-97.5H281c-17.3-.1-44.3.2-60 .5m31.8 117.1c.3 3.4.1 3.7-2.9 4.3-1.7.3-7.7.6-13.3.6-10.7 0-12.6-.7-12.6-4.5 0-4.1 1.7-4.6 15.5-4.3l13 .3zm72.8-169.9c-1.4 2-1.6 15.6-1.6 125.5V300h244.8l2.2-6.7c3.2-9.9 6.3-15.5 12.4-22 6.3-6.7 14.3-11.9 23.5-15 9.4-3.2 25.8-3.2 35.2 0 15 5.1 26.1 14.9 32.8 29 2.2 4.5 4.2 9.7 4.6 11.4l.7 3.3H754l.2-121.8c.1-66.9.1-123 0-124.7-.2-1.6-.8-3.3-1.5-3.7S656 49 539.3 49H327.1zM157.8 265.6c-8.5 2-13.5 4.9-20.4 11.8-7 7.1-11.7 15.9-13.5 25.6-1 5.5-.9 7.9.4 14.5 2.2 10.6 5.6 17 12.6 24.2 10.1 10.1 23.3 15.1 37.1 14 8-.7 13.7-2.8 21.2-8 13.9-9.6 20.7-24.7 18.9-42.4-2-19.7-15.3-34.6-35.6-39.8-7.1-1.8-13.1-1.8-20.7.1m20.7 25.5c12.4 5.9 15.8 19 7.9 30.6-4.3 6.3-9.8 9.3-17.1 9.3-17.7 0-27.4-23.6-14.6-35.6 6.7-6.4 15.9-8 23.8-4.3m-13.3 8.6c-4.3 2.1-6.4 5.3-6.4 9.7 0 6.9 6.9 13.7 12.4 12.3 3.8-1 7.5-5 8.9-9.7 1.1-3.6 1-4.6-.5-7.5-1.2-2.2-3.2-3.9-5.7-4.9-4.8-1.9-4.6-1.9-8.7.1m40.2-169.1c-2.1.4-3.6 1.5-4.9 3.7-1 1.8-8.8 13.7-17.2 26.5S168 184.3 168 184.6c0 .2 22.3.4 49.6.4h49.5l-.3-26.5c-.2-14.5-.7-26.7-1-27-.7-.8-56-1.5-60.4-.9" style="fill:#ebebeb"/></svg>