<?xml version="1.0" encoding="UTF-8" standalone="no"?><!DOCTYPE svg PUBLIC "-//W3C//DTD SVG 1.1//EN" "http://www.w3.org/Graphics/SVG/1.1/DTD/svg11.dtd"><svg width="100%" height="100%" viewBox="0 0 24 25" version="1.1" xmlns="http://www.w3.org/2000/svg" xmlns:xlink="http://www.w3.org/1999/xlink" xml:space="preserve" xmlns:serif="http://www.serif.com/" style="fill-rule:evenodd;clip-rule:evenodd;stroke-linejoin:round;stroke-miterlimit:2;"><rect id="brain" x="0" y="0.313" width="24" height="24" style="fill:none;"/><clipPath id="_clip1"><rect x="0" y="0.313" width="24" height="24"/></clipPath><g clip-path="url(#_clip1)"><path d="M15.905,0.801c1.105,0.224 2.197,0.98 2.73,1.895c0.23,0.395 0.27,0.427 0.526,0.467c0.152,0.026 0.527,0.164 0.836,0.316c0.441,0.21 0.664,0.375 1.059,0.77c0.967,0.973 1.395,2.131 1.244,3.401l-0.06,0.52l0.316,0.296c1.698,1.592 1.928,4.125 0.533,5.731l-0.322,0.368l0.171,0.487c0.151,0.408 0.178,0.599 0.178,1.178c-0,1.23 -0.362,2.145 -1.191,3.026c-0.698,0.744 -1.224,1.053 -2.297,1.349c-0.039,0.013 -0.092,0.145 -0.118,0.303c-0.072,0.434 -0.493,1.164 -0.928,1.612c-0.743,0.75 -1.612,1.138 -2.697,1.19c-1.382,0.073 -2.658,-0.493 -3.323,-1.46l-0.197,-0.29l-0,-19.962l0.171,-0.223c0.645,-0.842 2.02,-1.237 3.369,-0.974Zm-1.402,1.632c-0.145,0.052 -0.329,0.125 -0.408,0.171l-0.151,0.079l-0,9.263l0.21,0.237c0.507,0.586 1.198,0.875 2.178,0.935c0.566,0.032 0.658,0.059 0.803,0.204c0.342,0.342 0.256,0.894 -0.184,1.223c-0.395,0.29 -2.02,0.086 -2.724,-0.348c-0.112,-0.073 -0.224,-0.112 -0.244,-0.093c-0.019,0.027 -0.039,1.645 -0.039,3.606c-0,3.481 0.006,3.573 0.131,3.737c0.283,0.362 0.968,0.638 1.579,0.638c0.402,0 0.994,-0.158 1.303,-0.348c0.316,-0.204 0.724,-0.658 0.842,-0.941c0.375,-0.895 -0.335,-1.974 -1.533,-2.329c-0.427,-0.132 -0.579,-0.329 -0.579,-0.77c0,-0.323 0.02,-0.382 0.218,-0.553c0.263,-0.237 0.565,-0.25 1.138,-0.059c0.816,0.276 1.677,1.013 2.059,1.757c0.059,0.118 0.151,0.217 0.197,0.217c0.047,-0 0.29,-0.105 0.54,-0.231c1.079,-0.539 1.638,-1.368 1.619,-2.401c-0.014,-0.625 -0.257,-1.263 -0.435,-1.132c-0.263,0.211 -1.579,0.283 -1.98,0.119c-0.25,-0.105 -0.494,-0.448 -0.494,-0.684c0,-0.257 0.198,-0.606 0.408,-0.711c0.145,-0.072 0.303,-0.086 0.665,-0.053c1.125,0.099 2.164,-0.441 2.553,-1.329c0.19,-0.421 0.263,-0.96 0.19,-1.362c-0.085,-0.434 -0.401,-1.079 -0.644,-1.316l-0.191,-0.184l-0.25,0.283c-0.678,0.757 -1.553,1.263 -2.329,1.362c-0.691,0.086 -1.106,-0.039 -1.29,-0.388c-0.125,-0.244 -0.125,-0.48 0,-0.724c0.125,-0.243 0.375,-0.375 0.829,-0.434c0.724,-0.086 1.5,-0.605 1.869,-1.244c0.197,-0.335 0.362,-0.98 0.362,-1.394c-0,-0.75 -0.448,-1.593 -1.093,-2.053c-0.204,-0.145 -0.414,-0.27 -0.454,-0.27c-0.046,0 -0.131,0.197 -0.19,0.434c-0.29,1.152 -1.139,2.152 -2.158,2.54c-0.395,0.145 -0.606,0.151 -0.843,0.007c-0.223,-0.132 -0.329,-0.343 -0.329,-0.665c0,-0.368 0.125,-0.546 0.56,-0.79c0.98,-0.546 1.421,-1.381 1.224,-2.322c-0.145,-0.704 -0.79,-1.395 -1.487,-1.612c-0.468,-0.138 -1.132,-0.178 -1.448,-0.072Zm-4.809,-1.632c0.973,0.204 1.829,0.796 1.908,1.322c0.019,0.139 0.032,4.665 0.019,10.06l-0.013,9.804l-0.145,0.23c-0.335,0.533 -1.072,1.079 -1.783,1.329c-0.375,0.125 -0.572,0.151 -1.296,0.151c-0.987,0 -1.493,-0.125 -2.184,-0.533c-0.836,-0.5 -1.382,-1.164 -1.704,-2.092l-0.204,-0.592l-0.323,-0.079c-0.467,-0.105 -0.657,-0.197 -1.151,-0.526c-0.513,-0.336 -1.086,-0.928 -1.336,-1.389c-0.098,-0.171 -0.256,-0.539 -0.355,-0.809c-0.151,-0.434 -0.171,-0.599 -0.171,-1.349c-0.006,-0.723 0.02,-0.921 0.145,-1.27l0.151,-0.414l-0.296,-0.336c-0.632,-0.723 -0.888,-1.408 -0.941,-2.493c-0.033,-0.671 -0.02,-0.829 0.112,-1.25c0.079,-0.27 0.263,-0.685 0.401,-0.928c0.257,-0.434 0.954,-1.224 1.198,-1.349c0.112,-0.059 0.112,-0.092 0.046,-0.355c-0.145,-0.52 -0.099,-1.408 0.099,-2c0.236,-0.711 0.421,-1.013 1,-1.619c0.539,-0.566 1.21,-0.967 1.868,-1.118c0.356,-0.079 0.382,-0.099 0.54,-0.421c0.322,-0.658 1.243,-1.474 2.013,-1.783c0.717,-0.283 1.619,-0.356 2.402,-0.191Zm-1.553,1.645c-0.981,0.27 -1.586,1.026 -1.586,1.974c0,0.815 0.421,1.381 1.211,1.644c0.625,0.211 0.835,0.869 0.401,1.297c-0.191,0.197 -0.25,0.217 -0.572,0.21c-0.533,-0.013 -1.106,-0.309 -1.665,-0.862c-0.48,-0.473 -0.75,-0.914 -0.868,-1.441c-0.046,-0.177 -0.086,-0.355 -0.099,-0.401c-0.04,-0.132 -0.724,0.289 -1.026,0.625c-0.428,0.487 -0.606,0.888 -0.639,1.461c-0.013,0.269 0.007,0.618 0.046,0.763l0.073,0.27l0.579,-0.033c1.112,-0.059 2.092,0.342 2.941,1.197c0.974,0.987 1.322,2.132 0.783,2.592c-0.152,0.132 -0.231,0.152 -0.474,0.125c-0.289,-0.032 -0.586,-0.197 -0.678,-0.381c-0.026,-0.046 -0.138,-0.29 -0.243,-0.533c-0.428,-0.954 -1.349,-1.5 -2.527,-1.5c-0.638,-0 -1.092,0.191 -1.559,0.651c-0.303,0.29 -0.408,0.454 -0.52,0.79c-0.269,0.796 -0.144,1.533 0.362,2.204c0.415,0.539 0.388,0.546 1.125,-0.171c0.665,-0.658 0.856,-0.777 1.217,-0.777c0.514,0 0.876,0.652 0.632,1.139c-0.039,0.079 -0.553,0.618 -1.145,1.197c-0.585,0.579 -1.125,1.158 -1.191,1.283c-0.171,0.316 -0.171,1.171 -0.006,1.579c0.184,0.448 0.546,0.895 0.954,1.184c0.513,0.369 0.539,0.356 0.539,-0.217c0,-1.125 0.52,-2.171 1.481,-2.967c0.618,-0.507 1.191,-0.763 1.789,-0.809c0.441,-0.033 0.5,-0.027 0.645,0.112c0.237,0.223 0.329,0.579 0.23,0.881c-0.098,0.296 -0.269,0.415 -0.789,0.54c-0.888,0.204 -1.592,0.98 -1.763,1.941c-0.04,0.197 -0.053,0.368 -0.04,0.381c0.013,0.02 0.27,-0.085 0.559,-0.23c0.678,-0.329 1.014,-0.342 1.303,-0.066c0.447,0.428 0.243,1.29 -0.309,1.29c-0.158,-0 -0.967,0.401 -1.217,0.612c-0.185,0.144 -0.191,0.158 -0.112,0.44c0.177,0.691 0.835,1.336 1.566,1.553c0.585,0.165 1.335,0.105 1.868,-0.158c0.23,-0.112 0.461,-0.276 0.5,-0.355c0.079,-0.158 0.106,-4.415 0.086,-14.139l-0.007,-4.645l-0.243,-0.105c-0.599,-0.257 -1.066,-0.297 -1.612,-0.145Z" style="fill:#f8f8f8;"/></g></svg>