<svg xml:space="preserve" fill="#ebebeb" style="fill-rule:evenodd;clip-rule:evenodd;stroke-linejoin:round;stroke-miterlimit:2" viewBox="0 0 392 406" xmlns="http://www.w3.org/2000/svg"><path d="M194.5 171.1c3.3.6 8.8 2.2 12.3 3.6l6.3 2.6-3.6 3.7-3.7 3.8-4.3-1.9c-7-3.1-19.1-4.2-27.3-2.5-23.6 4.9-40.4 23.9-40.4 45.6 0 12.8 5.7 26.4 15.1 36.3 9.6 10.1 20.2 14.7 34 14.7 20.6 0 37.5-9.9 45.4-26.8 3.1-6.5 3.2-7.2 3.2-19.7 0-9.4-.5-14.1-1.6-17.2l-1.6-4.2 3.8-3 3.8-3.1 2.1 5.7c10.1 27 0 56.1-24 68.7-8.4 4.4-24 8.6-32.1 8.6-29.8 0-56.9-27.4-56.9-57.5 0-19.5 13-41 30.2-50 14.8-7.8 25.9-9.9 39.3-7.4m6.7-48.6c15 2.7 28.8 8 41.8 16.3 3 1.9 5.7 3.6 5.9 3.8.3.2-.8 1.7-2.4 3.4l-2.8 2.9-5.1-3c-23.3-13.6-46.8-18.4-71.2-14.4-22.6 3.6-39.7 12.6-55 28.6-7.8 8.2-11.6 13.9-16.9 25.2-6.9 14.6-8.9 23.6-8.9 40.7-.1 22.4 3.8 37.4 14 53.6 19.6 31.3 47.5 46.6 84.4 46.5 18.3-.1 28.1-2.4 43.3-10.3 23.8-12.4 41.5-32 48.5-53.8 9.1-28.2 6.1-59.1-7.9-82.2l-3.8-6.3 3.2-2.7c1.8-1.5 3.5-2.8 3.8-2.8 1.3 0 9.3 15.5 12.5 24.4 14.1 39.7 4.8 81.4-25 111.2-22.6 22.5-48.2 32.3-82.1 31.1-21.4-.7-34.8-4.9-52.4-16.4-21.2-13.8-37.8-37.2-44.9-63.1-2.4-8.8-2.6-11.3-2.6-27.7 0-19.4 1-25.1 7-40.2 13.3-33.7 46.2-60.2 80.9-65.2 9.8-1.4 26.4-1.2 35.7.4M202 74c17 2.1 37 8.8 50.9 16.9 4.3 2.6 4.6 3 4.9 7.4l.3 4.6-12.3-5.9c-30.8-14.8-61.9-18.5-96.6-11.4-14.6 3-30.5 9.5-43.6 17.9-9.2 5.9-24.8 18.8-30.9 25.6-17.6 19.4-31.4 48.2-35.4 73.5-2.3 14.5-2.3 38.6.1 51.4 3.3 18.5 11.3 37.3 24.3 57.4 15 23.1 43.2 44.9 71.1 55 19.5 7 34.4 9 55.7 7.6 40-2.7 69.3-15.8 97.1-43.4 17.2-17.1 27.4-33.7 35.3-57.3 5.2-15.8 6.6-24.9 6.5-44.3 0-24.3-3.1-38.6-13.5-62.3-2.2-4.9-3.8-9.1-3.6-9.3.1-.2 2.2-.6 4.5-1l4.2-.7 3.9 8.4c4.9 10.9 7.6 18.9 10.7 33 3.5 15.8 4.4 39.9 1.9 55.4-4.6 29.9-21.7 63.6-43 85.1-10.4 10.5-27.7 23.3-39 28.8-10.7 5.3-27.2 10.8-41 13.9-8.6 1.8-13 2.1-31 2.1-23.3 0-33.2-1.5-50.1-7.5-24.7-8.7-40.6-18.7-58.9-37.3-23-23.1-33.6-42.1-41.6-74.1-7.1-28.2-4.4-66.8 6.6-94 8.9-22.1 19.3-37.4 37.6-55 20-19.3 47.8-33.6 74.2-38 19.9-3.4 36.6-4.2 50.7-2.5m121.7-28.8c1.4 1.3 2.3 3.3 2.3 5.3 0 3.2 3.8 34.7 4.2 35 .2.1 7.9.9 17.1 1.7 15.8 1.4 17 1.7 19.4 4 2 2 2.4 3.2 1.9 5.3-.7 2.7-44.4 48.5-47.3 49.6-.9.3-3.9.2-6.7-.2-2.8-.5-11.3-1.5-19-2.4-11.9-1.4-14.1-1.4-16-.2-2.9 2-10.3 9.1-55.8 54.4-35.6 35.4-40 39.5-42.2 38.9-3.3-.8-4.9-3.8-3.7-6.9.5-1.3 4.7-5.8 9.2-9.8 12.2-10.9 85.5-84 86.8-86.6 1.6-3.1 1.4-7-.8-16.5-1.1-4.6-2.2-10.9-2.6-14-1.4-11.1-1.6-10.8 22.8-35.7 12.2-12.4 22.9-22.9 23.7-23.3 2.7-1.2 4.3-.8 6.7 1.4m-15.9 68.2c-9.8 10.1-17.8 18.8-17.8 19.4 0 .9 14 3 23.2 3.4l4.6.2 18.6-18.4c10.2-10.1 18.6-18.9 18.6-19.6 0-1.4-6-2.3-19.5-2.9l-10-.5zm-9.6-38.1C280.1 93.6 280 93.7 280 98.1c.1 4.6 3.3 24.6 4.2 25.4.8.8 32.4-31.8 34.3-35.5 1.7-3.2 1.7-4.4.5-15.5-.7-6.6-1.6-12.8-1.9-13.8-.5-1.4-4.3 1.9-18.9 16.6" style="fill:#ebebeb"/></svg>