<svg xml:space="preserve" fill="#ebebeb" style="fill-rule:evenodd;clip-rule:evenodd;stroke-linecap:round;stroke-linejoin:round;stroke-miterlimit:1.5" viewBox="0 0 336 305" xmlns="http://www.w3.org/2000/svg"><path d="M809.6 374.4c9 4.2 14.4 13.5 14.4 24.8v4.8h81v-5.8c0-8.5 2.3-14.3 7.6-19.2 8.1-7.5 15.8-8.9 24.9-4.6 8.8 4 13.2 11.2 14.2 22.8l.6 6.8h9.2c10.9 0 16.6 1.7 22.4 6.6 5.1 4.4 8.6 10.3 10 17.2.8 3.6 1.1 33.3 1.1 93.5 0 96.5.1 95.3-5.8 104-1.5 2.3-4.7 5.6-7 7.4-8.7 6.6-3.7 6.4-120.3 6.1l-105.4-.3-5.7-2.8c-6.9-3.4-12.1-9.1-14.8-16.5-2-5.3-2-7.1-1.8-100l.3-94.7 3.1-5.5c3.4-6.1 10.5-12.1 16.4-13.9 2-.6 8.1-1.1 13.4-1.1h9.6v-5.1c0-9.1 1.9-13.9 7.6-19.6 7.6-7.6 15.7-9.2 25-4.9m-59.7 103.2c-.6.7-.8 27.2-.7 68 .3 65.2.4 67 2.3 70.4 4.5 7.5-4.1 7 112.3 7 111.2 0 107 .2 111.4-4.6 3.6-4 3.8-9.4 3.6-75.9l-.3-65-113.8-.5c-84.3-.4-114.1-.2-114.8.6m65.3 21.4c2 .6 4.8 2.4 6.2 4.1 2.5 2.9 2.6 3.6 2.6 16 0 20.7-1.6 22.2-22.7 21.7l-13.5-.3-3.4-3.7-3.4-3.8v-13.4c0-12.2.2-13.6 2.2-16.1 1.2-1.5 3.5-3.3 5.2-4.1 3.7-1.6 21.4-1.9 26.8-.4m-19.8 14.4c-.3.7-.4 4-.2 7.2l.3 5.9h14l.3-6.4c.2-4.5-.1-6.7-1-7.2-2.2-1.5-12.8-1.1-13.4.5m87.4 50 3.7 3.4.3 13.4c.2 12 .1 13.6-1.8 16.6-3 4.9-7.2 6.2-19.7 6.2-8.3 0-11.6-.4-14.2-1.8-6.9-3.4-7.8-6.6-7.3-25.6.2-8.6.3-8.9 3.6-12.2l3.4-3.4H879zm-24.4 11.9c-.3.8-.4 3.9-.2 6.8l.3 5.4h14v-13l-6.8-.3c-5.1-.2-6.9.1-7.3 1.1m22.9-74.9c4.7 3.2 5.7 6.4 5.7 18.6 0 11.8-1.1 16-5 19.5-1.9 1.7-3.9 2-15.5 2.3-21.1.5-23-1.2-23-20.9 0-14.3.9-16.7 7.6-20.2 4.9-2.6 26-2.1 30.2.7m-22.1 12.4c-.9.6-1.2 2.8-1 7.3l.3 6.4 13.6.6-.6-14.6-5.5-.3c-3-.1-6.1.2-6.8.6M818 561.5c5 2.6 6 5.9 6 19.7 0 13.3-.7 15.8-5.3 19.2-2.4 1.8-4.6 2.2-14 2.4-12.5.4-17.2-.6-20.8-4.4-2.2-2.4-2.4-3.4-2.7-15.6-.4-14.1.4-17.5 4.6-20.8 2.2-1.8 4.1-2 15.9-2 10 0 14.1.4 16.3 1.5m-22.6 13.8c-.3.8-.4 3.9-.2 6.8l.3 5.4h14v-13l-6.8-.3c-5.1-.2-6.9.1-7.3 1.1m145.4-75.8c6.5 2.6 7.7 5.9 7.7 20.5-.1 13.8-.7 15.9-5.8 19-2.7 1.7-5.1 2-15.7 2-13.9 0-16.2-.7-19.7-5.9-2.1-3.1-2.3-4.6-2.3-15.5 0-18.9 2.6-21.5 21.2-21.6 7.4 0 12 .5 14.6 1.5m-20.1 13.1c-.4.4-.7 3.8-.7 7.6v6.9l6.8-.3 6.7-.3v-14l-6-.3c-3.4-.2-6.4 0-6.8.4M795.9 389.9c-2.3 1.8-2.4 2.6-2.7 16.4-.4 16.6.6 20 5.7 21.2 7.5 1.6 9.4-2.9 8.9-21-.3-13.6-.3-13.7-3.1-16.1-3.4-2.9-5.7-3-8.8-.5m-37.6 30.2c-1.8.5-4.5 2.6-6 4.6-2.8 3.6-2.8 3.7-2.8 19.7v16.1h229l.3-12.5c.2-6.9 0-14.4-.3-16.7-1.3-8.9-8.4-13.1-20-11.8l-6.2.6-1.7 5.9c-3.4 11.2-11.8 18-22.3 18-11.5 0-19.3-7.9-23.9-23.8-.3-.9-8.6-1.2-37.2-1.2-20.3 0-38.3.3-39.9.6-2.7.5-3.3 1.3-4.8 6.5-3.4 11.2-11.7 17.9-22.3 17.9-10.1 0-18.2-7-22.2-19.3l-1.7-5.2-7.4-.2c-4.1-.1-8.8.3-10.6.8m165.6-30.2c-2.3 1.8-2.4 2.6-2.7 16.4-.3 11.7 0 15.1 1.2 17.5 2.9 5.7 9.3 5.5 12.1-.4 1.3-2.9 1.6-5.9 1.3-16.9-.3-12.5-.4-13.5-2.7-15.9-2.9-3.1-6-3.3-9.2-.7" style="fill:#fff;stroke:#fff;stroke-width:1px" transform="translate(-688 -348)"/></svg>