<?xml version="1.0" encoding="UTF-8" standalone="no"?><!DOCTYPE svg PUBLIC "-//W3C//DTD SVG 1.1//EN" "http://www.w3.org/Graphics/SVG/1.1/DTD/svg11.dtd"><svg width="100%" height="100%" viewBox="0 0 25 25" version="1.1" xmlns="http://www.w3.org/2000/svg" xmlns:xlink="http://www.w3.org/1999/xlink" xml:space="preserve" xmlns:serif="http://www.serif.com/" style="fill-rule:evenodd;clip-rule:evenodd;stroke-linejoin:round;stroke-miterlimit:2;"><rect id="cap" x="0.193" y="0.278" width="24" height="24" style="fill:none;"/><clipPath id="_clip1"><rect x="0.193" y="0.278" width="24" height="24"/></clipPath><g clip-path="url(#_clip1)"><path d="M14.734,4.093c3.75,1.663 4.486,1.989 6.082,2.707c3.583,1.613 3.375,1.485 3.375,2.037c-0,0.454 -0.123,0.583 -0.939,0.963c-0.374,0.184 -1.148,0.559 -1.712,0.835l-1.031,0.509l-0,6.088l-0.166,0.307c-0.092,0.171 -0.325,0.435 -0.534,0.607c-0.411,0.35 -0.755,0.552 -0.693,0.417c0.307,-0.705 0.35,-0.853 0.35,-1.196c-0,-0.442 -0.08,-0.712 -0.301,-1.007l-0.16,-0.214l-0.018,-2.13c-0.006,-1.178 -0.031,-2.141 -0.049,-2.141c-0.019,-0.007 -0.276,0.104 -0.583,0.245l-0.546,0.258l-0,3.522l0.221,0.123c0.3,0.159 0.583,0.54 0.675,0.902c0.122,0.46 0.024,0.828 -0.35,1.344c-0.055,0.074 0.03,0.528 0.399,2.117c0.257,1.117 0.466,2.093 0.466,2.179c0,0.343 -0.067,0.355 -1.915,0.374c-1.767,0.018 -1.834,0.006 -1.92,-0.252c-0.019,-0.061 0.202,-1.049 0.491,-2.203l0.521,-2.092l-0.159,-0.172c-0.369,-0.399 -0.479,-0.859 -0.319,-1.375c0.079,-0.282 0.417,-0.693 0.668,-0.828l0.178,-0.092l0,-2.995l-0.687,0.325c-0.38,0.184 -1.393,0.669 -2.252,1.086l-1.559,0.755l-0.282,-0.104c-0.16,-0.055 -1.019,-0.454 -1.915,-0.89c-2.522,-1.233 -4.584,-2.221 -4.621,-2.221c-0.018,-0 -0.036,1.074 -0.036,2.387l-0,2.387l0.294,0.258c0.933,0.834 2.449,1.565 3.983,1.927c0.896,0.214 1.503,0.276 2.688,0.251c1,-0.018 1.288,-0.049 2.055,-0.202c0.491,-0.105 0.946,-0.209 1.007,-0.233c0.098,-0.037 0.11,-0.025 0.086,0.104c-0.368,1.651 -0.368,1.644 -0.565,1.712c-0.57,0.184 -1.743,0.295 -2.921,0.276c-1.859,-0.024 -3.332,-0.362 -5.118,-1.166c-0.908,-0.411 -1.411,-0.718 -2.062,-1.246c-0.607,-0.497 -0.859,-0.828 -0.926,-1.221c-0.025,-0.159 -0.049,-1.583 -0.049,-3.154l-0.007,-2.86l-1.601,-0.761c-1.896,-0.896 -2.081,-1.031 -2.081,-1.515c0,-0.534 -0.282,-0.381 4.265,-2.394c0.608,-0.27 1.657,-0.736 2.332,-1.043c0.675,-0.301 2.001,-0.896 2.946,-1.319c0.945,-0.424 1.841,-0.829 1.994,-0.896c0.154,-0.068 0.356,-0.129 0.454,-0.129c0.105,-0 1.203,0.454 2.547,1.049Zm-3.952,1.412c-0.742,0.337 -1.681,0.761 -2.086,0.939c-0.405,0.184 -1.277,0.576 -1.933,0.871c-2.541,1.135 -3.32,1.491 -3.437,1.577c-0.11,0.08 -0.043,0.123 0.878,0.565c1.878,0.908 2.964,1.43 4.707,2.258c0.963,0.454 2.08,0.988 2.479,1.178c0.405,0.19 0.779,0.35 0.828,0.356c0.055,0 0.43,-0.153 0.835,-0.35c0.405,-0.196 1.184,-0.564 1.736,-0.816c0.547,-0.258 0.988,-0.491 0.982,-0.521c-0.012,-0.031 -0.712,-0.43 -1.552,-0.884c-1.412,-0.755 -1.559,-0.822 -1.86,-0.822c-0.632,-0 -1.135,-0.381 -1.129,-0.86c0.006,-0.509 0.399,-0.853 0.97,-0.859c0.583,0 1.006,0.276 1.135,0.737l0.092,0.319l1.774,0.902l1.779,0.908l1.565,-0.742c0.865,-0.405 1.841,-0.872 2.179,-1.025l0.613,-0.289l-0.245,-0.104c-0.135,-0.055 -0.712,-0.313 -1.289,-0.565c-0.571,-0.257 -1.276,-0.57 -1.565,-0.693c-0.558,-0.245 -0.914,-0.405 -3.283,-1.473c-2.203,-0.988 -2.743,-1.227 -2.786,-1.221c-0.018,0 -0.644,0.276 -1.387,0.614Z" style="fill:#f8f8f8;"/></g></svg>