<?xml version="1.0" encoding="UTF-8" standalone="no"?><!DOCTYPE svg PUBLIC "-//W3C//DTD SVG 1.1//EN" "http://www.w3.org/Graphics/SVG/1.1/DTD/svg11.dtd"><svg width="100%" height="100%" viewBox="0 0 435 301" version="1.1" xmlns="http://www.w3.org/2000/svg" xmlns:xlink="http://www.w3.org/1999/xlink" xml:space="preserve" xmlns:serif="http://www.serif.com/" style="fill-rule:evenodd;clip-rule:evenodd;stroke-linejoin:round;stroke-miterlimit:2;"><path d="M318.7,44.8c6.7,1.5 17.2,6.8 24.9,12.6c19.1,14.3 43.8,47.8 49,66.3c2.2,7.6 3.3,57.4 1.4,63.5c-1.4,4.7 -6.9,11.1 -12.9,15c-4,2.5 -5.4,2.8 -12.7,2.8l-8.2,0l-1.7,5.2c-2.5,7.7 -6.1,14.3 -10.2,18.9c-12.3,13.6 -36.5,16.9 -55.1,7.5c-8.5,-4.3 -15.1,-13.4 -18.7,-25.9l-1.6,-5.7l-58.6,-0.2c-38,-0.2 -59,0.1 -59.8,0.7c-0.7,0.5 -1.8,3.2 -2.4,5.9c-4.6,18.9 -20.7,30.6 -42.4,30.6c-7.6,0 -19.1,-3.3 -25.5,-7.4c-7.7,-4.8 -13.8,-13.5 -17.2,-24.4l-1.7,-5.4l-18,0.2l-18.1,0.1l-3.1,-2.6c-4.7,-4 -5.4,-8 -4.9,-26.6c0.4,-13.6 0.9,-17.5 2.7,-22.9c3.1,-8.8 7.8,-16.4 15.5,-24.6c12.9,-13.9 22.4,-17.3 55.1,-19.9c13,-1 22.5,-2.2 23.1,-2.9c0.6,-0.6 9.7,-10.4 20.2,-21.7c24.6,-26.6 31.2,-32 44.8,-37.1c5.4,-2 8.3,-2.2 35.9,-2.7c48.7,-0.9 94.4,-0.6 100.2,0.7Zm-68.5,34.9l0.3,27.8l57.7,0.3c56.5,0.2 57.8,0.3 58.8,2.2c1.5,2.9 -0.4,5.8 -4.3,6.5c-1.7,0.3 -28.6,0.4 -59.7,0.2c-31.1,-0.3 -57.4,-0.5 -58.5,-0.4c-1.1,0 -33.3,0.1 -71.5,0.2c-88,0.3 -101.1,1.4 -117,9.5c-6.5,3.3 -16.1,13.4 -19.7,20.8c-4.5,9 -5.4,14.7 -5.1,32.7l0.3,16l34,0l0.6,-4.5c1,-6.9 5.3,-15.4 10.4,-20.9c18.1,-19.3 45.5,-20.3 64.7,-2.3c6.2,5.7 9.5,11.5 11.7,20.5l1.9,7.2l58.5,0.3l58.5,0.2l1.2,-5.2c2,-8.8 6.7,-17.3 12.9,-23.1c10,-9.5 20.6,-13.3 34.8,-12.5c6.7,0.4 8.9,1 15.2,4.3c4,2.1 9.5,6 12.1,8.5c5.1,5 10.3,14.7 12.2,22.9l1.1,5.1l6.7,0c8.2,0 12.4,-2.4 15.8,-9c2.1,-4.2 2.2,-5.5 2.2,-28c0,-16.3 -0.5,-25.5 -1.4,-30.1c-4.7,-21.8 -34.8,-59.6 -56.3,-70.5c-9.3,-4.7 -15.3,-5.4 -52.1,-6l-26.2,-0.5l0.2,27.8Zm-60.7,-25.3c-7.2,1.7 -13.8,5.2 -20.8,10.7c-6,4.9 -39.7,40.5 -39.7,42.1c0,0.4 25.2,0.8 56,0.8l56,0l0,-55l-23.2,0.1c-14.7,-0 -25.2,0.5 -28.3,1.3Zm118,111c-19.4,5 -30,22.5 -25,41.5c3.2,12.4 7.4,18.3 16.2,22.6c5.4,2.6 6.7,2.8 17.5,2.8c11,0 12.1,-0.1 17.5,-2.9c14.8,-7.6 22.4,-30.2 15.2,-45.4c-7.2,-15.2 -24.5,-23 -41.4,-18.6Zm-209.2,0.4c-22.1,7.9 -30.1,29.3 -19,50.5c6.1,11.6 14.5,15.7 32,15.7c10.2,0 11.8,-0.3 16.5,-2.6c10.9,-5.4 17.8,-18 17.6,-32.4c0,-9.2 -2.3,-14.9 -8.8,-21.8c-6.4,-6.8 -14.1,-10.1 -24.8,-10.8c-6.5,-0.4 -9.4,-0.1 -13.5,1.4Z" style="fill:#ebebeb;"/></svg>