<svg xml:space="preserve" fill="#ebebeb" style="fill-rule:evenodd;clip-rule:evenodd;stroke-linejoin:round;stroke-miterlimit:2" viewBox="0 0 384 384" xmlns="http://www.w3.org/2000/svg"><path d="M341 23.6c4 3.4 6.3 8.1 8.3 16.9 3.8 16.2 4.2 20.9 4.2 50.5-.1 25-.4 32.1-2.4 46.5-1.3 9.3-2.5 18.8-2.8 21-.3 2.7.7 8.6 3.1 18 4.6 18.4 6 29.5 5.2 42.5-.6 10.5-2.8 26-4.1 29.2-.6 1.5-.1 1.8 3.1 1.9 5.5.1 11.5 2.1 12.8 4.2 2 3.3-1.7 4.8-10.7 4.5l-7.8-.3-3.3 8c-1.8 4.4-4.7 10.8-6.4 14.2-1.8 3.4-3.2 6.4-3.2 6.7 0 .2 1 .6 2.3 1 3.9.9 13.4 5.6 14.7 7.1 1.7 2-.5 5.5-3.4 5.5-1.3 0-5.2-1.3-8.7-2.9-9.9-4.5-10-4.5-15.3 2.6-8.8 11.7-28.2 28.3-43.5 37.2-9.2 5.4-28.8 13.5-40.1 16.5-46.9 12.6-103.2 6-142.5-16.7-16.2-9.3-42-30.7-47.9-39.7l-1.6-2.4-7.7 2.4c-4.3 1.3-9.2 2.5-11 2.8-2.8.4-3.3.1-3.9-2.4-.9-3.5.9-4.8 10.1-7.6 3.9-1.1 7.1-2.2 7.3-2.3.2-.2-1.7-4.3-4.1-9.1-2.4-4.9-5.5-11.7-6.7-15.2-1.3-3.4-2.6-6.4-2.9-6.7-.4-.2-4.1.1-8.4.7-8.4 1.2-11.1.3-10.5-3.6.2-1.5 1.6-2.3 5.3-3.3 2.8-.7 6.5-1.3 8.3-1.3 1.7 0 3.2-.4 3.2-.8 0-.5-.7-5.5-1.6-11.3-1.2-7.8-1.5-15-1.1-28.9.5-19.5 1.2-24 5.7-38.5l2.8-9-1.9-11c-6.7-40.6-6.5-90.4.7-115.2C36.5 28.4 44 22 49.9 22c7.2 0 47.8 26.9 68 45.1l11 9.9 12.4-2.5c39-7.9 72.9-7.3 108.8 2 2.3.6 3.9-.4 12-7.7 5.2-4.7 14.1-12 19.9-16.4 10.6-7.9 40.9-27.5 46.5-30 4.8-2.1 9-1.7 12.5 1.2M46.1 31.8C40.8 37 38.2 51.5 37.3 79c-.7 24.3.7 45.2 4.4 66.7l2.6 15.3-3.1 10.2c-1.8 5.7-3.8 13-4.4 16.3-1.6 8.1-1.6 42.1 0 51.5 1.8 10.9 1.9 11 5.5 11 3.1 0 30.4 4.5 34 5.6 2.2.7 2.4 6.2.1 7.1-.8.3-9-.6-18.1-2.1-9.2-1.4-16.8-2.4-17-2.2-.9.9 8.6 21.5 11.9 25.9 1.3 1.8 1.7 1.8 7.7.2 3.4-.9 9.1-1.9 12.6-2.2 5.6-.5 6.4-.4 7.4 1.5 1.9 3.5-1.3 5.7-10.3 7.1-8.8 1.4-10.6 1.9-10.6 3.1 0 .4 4.4 5 9.8 10.1 10.5 10.1 23.1 19.5 36.4 27.2 26.7 15.4 67.2 23.7 101.3 20.7 24.5-2.2 42-6.8 62.3-16.5 15.9-7.7 24.8-14.1 40.2-29.4l13.5-13.4-10.4-1.6c-10.7-1.6-13.1-3-11.8-6.5.4-.9 1.4-1.9 2.3-2.3 1.5-.5 20.7 2.1 23.9 3.3 1 .4 2.6-1.9 5.3-7.3 4.4-8.9 8.6-19.2 8.1-19.7-.2-.2-7.5.5-16.2 1.6-12.5 1.6-16.1 1.8-17.2.8-1.8-1.5-1.9-4.4-.2-5.7 1.4-1.1 18.4-4 29.4-4.9l7.2-.7 1-4.6c2.6-11.6 3.4-18.5 3.4-31.1.1-14.9-1.4-24.2-6.4-41.1-2.6-8.8-2.9-10.8-2-14.8 1.4-6.5 3.7-26.8 5.2-44.5 1.6-19.8.7-48.4-2-64.5-3.1-18.1-5.5-22-11.8-18.8-17.5 9.1-51.4 33.1-65 45.9-10.4 9.9-10.2 9.9-22.1 6.9-19.6-5-51.6-7.3-72.5-5.2-6.5.6-18 2.3-25.5 3.8-22.6 4.3-20 4.7-29-3.9-13.9-13.4-27.6-23.7-51.7-39-17.2-10.9-16-10.4-19.4-7M201 253.1c6.9 1.5 10.2 4.4 10.2 9 0 6.7-5.7 14-12.2 15.7-2.7.7-3.4 1.3-3.1 2.8.2 1 .5 4.3.8 7.2.5 5.9-1.4 10.2-4.6 10.2-3.4 0-4.6-2.9-4.8-11.3l-.2-8-3.3-1.4c-9.1-3.8-14.9-16.1-9.9-20.7 4.5-4.1 16.9-5.7 27.1-3.5m-19.3 7.6c-1.5 1.4-.5 4.6 2.2 7.4 2.5 2.5 3.7 2.9 8.1 2.9 4.5 0 5.6-.4 8.1-3.1 5.6-6 3.5-7.9-8.6-7.9-5.1 0-9.5.3-9.8.7m54.81-68.7c4.628 0 8.386 4.728 8.386 10.552s-3.758 10.551-8.386 10.551c-4.629 0-8.387-4.728-8.387-10.551S231.881 192 236.51 192m-90.273 0c4.629 0 8.387 4.728 8.387 10.552s-3.758 10.551-8.387 10.551-8.387-4.728-8.387-10.551S141.608 192 146.237 192" style="fill:#ebebeb"/></svg>