<svg xml:space="preserve" fill="#ebebeb" style="fill-rule:evenodd;clip-rule:evenodd;stroke-linejoin:round;stroke-miterlimit:2" viewBox="0 0 303 286" xmlns="http://www.w3.org/2000/svg"><path d="M118.5 6c1.6-.5 5.4-.8 8.4-.5 18.3 1.4 28.1 26.5 18 46.3-4.6 8.9-9.5 12.5-18.3 13-5.3.4-7.4 0-11.9-2.1-10.1-4.6-14.3-13.3-13.5-28.4.4-7.1 1-9.9 3.3-14.7 3.2-6.3 9.1-12.1 14-13.6m9.7 15.1c-3-1.6-4.6-1.4-7 1.2-3.4 3.6-5.2 9.1-5.2 15.7 0 5.5.3 6.5 2.9 9.1 7.1 7.1 15.1.4 15.1-12.6 0-4.9-3.1-12-5.8-13.4m-66.7-7.2c5.6-2.6 11.1-2.4 17.3.7 9.7 4.8 15.9 15.3 16.9 28.5 1.1 14-5.6 25.2-16.6 27.9-16.8 4-31.3-10.4-31.5-31.5-.1-12.3 4.8-21.4 13.9-25.6M75 30.8c-5.5-5.5-8.7-4.8-11.5 2.7-2 5.2-1.5 10.6 1.5 16.5 7 13.8 19.3 4.9 15-11-.7-2.7-2.6-5.9-5-8.2m87.5 10.1c7.7-3.5 16.9-1.4 21.4 5 3.2 4.4 5.4 14.6 4.7 21-1.8 15.2-12.9 27.1-25.4 27.1-12.8 0-20-9.1-19-24 .9-11.9 9-24.9 18.3-29.1M173 57.6c-1.3-3.6-4.9-3.4-8.7.6-1.7 1.8-3.6 4.3-4.2 5.5-1.5 2.9-1.4 12.6.1 14.1 3.1 3.1 9.9-.4 12.4-6.4 1.6-3.9 1.8-10.2.4-13.8M23 54.2c10.8-5.6 25.1 2.2 32.3 17.6 8.3 17.7.6 34.3-15.9 34.2-6.5-.1-12-2.7-17.2-8.4-6.8-7.4-8.7-12.4-8.7-23.1 0-11.4 2.5-16.7 9.5-20.3m13.1 16.1c-6.3-4.2-8.4-2.5-8.3 6.4C28 85.8 36.2 94.1 42 91c4.7-2.5.9-16.2-5.9-20.7M94 73.5c7.2-2 17.9-1.3 24.5 1.5 6.8 2.9 12.4 7.7 18.4 15.9 2.9 3.9 6.8 8 8.6 9.1 5.1 3.2 11.1 10.5 12.9 15.7 4.7 13.9-1.6 28.9-14.7 35.1-6.1 2.9-14.7 2.9-24.6.1-10-2.8-15.4-2.3-26.1 2.7-7.6 3.5-9.3 3.9-16.5 3.9-9 0-12.6-1.4-18.8-7.4-6.1-5.7-8.1-10.4-8.1-19.1-.1-9.3 3-16.3 10.9-24.8 2.9-3.2 7-8.6 9-12 6.8-11.6 14-17.7 24.5-20.7m19.6 15.9c-12.8-6-24.8-.5-32.7 14.8-1 2-4.4 6.5-7.4 10-9.4 10.6-11.1 15.6-7.9 22.4 3.6 7.6 11.3 8.1 24.9 1.8 10.5-4.9 18.7-5.6 29.8-2.5 11.5 3.1 15.9 2.9 20.5-1.3 3.5-3.3 3.7-3.8 3.7-9.6v-6.1l-9.1-8.7c-5-4.8-10.9-10.9-12.9-13.6-2.5-3.2-5.6-5.7-8.9-7.2m67.9 38.3c6.4-3.4 17-1.5 22.8 4.1 9.1 8.6 11.7 27.2 5.7 39.6-2.8 6-9.8 12.2-15.1 13.6-16.7 4.5-30.1-10.2-28.7-31.4.8-11.8 6.4-21.3 15.3-25.9m13.8 16.4c-5.6-7.5-14.3 0-14.3 12.4 0 5.9.9 8.5 4.3 12.2 2.8 3.1 5.4 2.9 8.7-.7 5.2-5.6 5.8-17.7 1.3-23.9m40.1-5.2c4.6-2.1 12-2.5 16.3-.8 3.8 1.4 9 6.5 11.6 11.4 1.8 3.3 2.2 5.7 2.2 13.6 0 9-.2 10-3.5 16.5-2.5 4.9-4.9 7.9-8.4 10.5-8.8 6.7-17.4 7.3-25.9 1.9-10.2-6.5-13.5-23.4-7.1-37.1 3.6-7.6 8.9-13.3 14.8-16m13.1 15.1c-2.9-3.2-6.3-2.5-10.6 2-9.4 9.9-6.3 28.9 3.9 23.6 1.7-.9 4-2.8 5.1-4.2 4.4-5.6 5.3-17.3 1.6-21.4m-112 5.4c14.2-6.3 30.1 8.3 31.3 28.7.5 9-.8 13.6-5.1 18.6-8.1 9.3-21.3 8.2-30.6-2.4-5.1-5.8-7.5-12.8-7.4-21.9.1-10.9 4.7-19.8 11.8-23m12.3 17c-3.8-4.3-6.3-4.3-8.4-.2-2.2 4.3-1.5 13.8 1.3 17.6 2.5 3.3 6.7 5 9 3.6 4.6-2.9 3.6-14.8-1.9-21m123.9 4.8c5.1-1.3 6.2-1.4 10.5-.2 5.1 1.5 10.2 7.5 11.8 14 4.3 17.9-9.6 38-26.3 38-16 0-23.4-16-15.3-33.2 3.4-7.1 13.8-17.1 19.3-18.6m7.7 16.4c-.8-2.1-3.2-2-7 .3-5.3 3.2-7.9 7.8-7.9 14.1 0 5.4.1 5.5 3 5.8 4.1.3 9.3-3.1 11.1-7.3 1.4-3.5 1.9-10.1.8-12.9m-84.7-2.5c8.5-2 17.6-.6 26.6 4.2 7.4 3.9 12.7 9.9 18.3 20.7 2.5 4.7 6.4 11.3 8.9 14.8 2.4 3.4 4.9 8.1 5.6 10.5 2.4 9-.4 20.1-6.9 27-9.8 10.3-24 10.9-39.5 1.5-8.3-5-12.8-5.6-24.7-3.3-13.3 2.6-21.9.6-29.5-7-5.4-5.5-7.5-10.7-7.5-19 0-11.2 5.2-19.7 16.3-26.6 2.9-1.8 8.2-6.3 11.9-10 6.8-6.9 13.7-11.2 20.5-12.8m14.8 15c-10.3-2.6-18.3.3-25.7 9.2-2.1 2.5-6.9 6.6-10.7 9.1-8.3 5.6-11.6 9.2-12.5 14-1.4 7.2 4.7 14.6 12 14.6 1.8 0 6.7-.7 11-1.6 12.2-2.5 17.9-1.6 30.6 5 6.3 3.3 12.1 5.6 13.9 5.6 6.7 0 11.9-5.7 11.9-13 0-4.6-1.4-7.7-6-13.5-1.8-2.2-5.2-7.9-7.6-12.6-4.9-9.9-10.2-15.1-16.9-16.8" style="fill:#ebebeb"/></svg>