<svg xml:space="preserve" fill="#ebebeb" style="fill-rule:evenodd;clip-rule:evenodd;stroke-linejoin:round;stroke-miterlimit:2" viewBox="0 0 399 376" xmlns="http://www.w3.org/2000/svg"><path d="M301.5 26.7c31.3 7.2 55.6 25.4 68.5 51.3 7.4 14.9 7.5 16 7.2 74-.3 55.8-.4 57.1-6.2 74.5-5.6 16.7-14.4 29.4-27.2 39.3-8 6.1-24.3 13.9-35.4 16.9l-9.9 2.7-51.7-.3-51.6-.3-22.4 16.8C136 329.5 122.1 339 118.4 339c-1.7 0-3.6-.6-4.2-1.3-1.4-1.7-2.9-19.9-3.1-37.6-.1-7.4-.4-13.8-.6-14.1-.3-.4-4-.8-8.3-.8-8.7 0-24.4-3.4-35.7-7.7C35.2 265.8 14.7 237.1 11 200c-1.6-15.8-1.2-86.9.5-98 2.6-17.2 8.4-30.8 18.5-43.4 15.4-19 35.6-30.1 61.3-33.6 3.4-.4 50.1-.7 103.7-.6 94.8.2 97.7.3 106.5 2.3m-210 6.7c-15 2.5-24.7 6-35.9 13.3C36.9 58.8 25 76.4 20.5 98.6c-1.4 6.9-1.6 14.9-1.3 58.5.4 48.8.5 50.7 2.6 58.3 4.9 16.8 14.7 32.9 25.9 42 13.3 11.1 32.8 18 55.3 19.8 8.7.7 14 1.6 15 2.4 1.2 1.1 1.5 6 1.8 25.6.2 13.4.5 24.4.7 24.6.4.5 22.7-15.7 35.3-25.6 12.4-9.7 36.2-27.2 37-27.2.4 0 24.8-.1 54.2-.3 52.4-.2 53.7-.3 61-2.5 23.9-7.3 41.8-21.9 52.3-42.8 8.3-16.5 8.9-21.4 8.9-78.9 0-41.6-.2-50-1.6-55.7-2.3-9.7-6-18.1-12.2-27.5-11.8-17.8-29-28.5-55-34.4-9.9-2.3-10.3-2.3-105.4-2.5-74.1-.2-97.3 0-103.5 1m48.2 114c4.1 4.4 4.9 7.7 3.1 12.4-1.7 4.6-6.9 8.2-11.7 8.2-4.5 0-9.8-3.2-11.1-6.6-5.2-13.5 10.2-24.5 19.7-14m59.3-2.9c4.6 2.4 7 6.2 7 11.3 0 3.8-.5 5-3.9 8.3-3.3 3.3-4.5 3.9-8.3 3.9-5.6 0-8.2-1.9-10.3-7.4-2.1-5.4-1-9.8 3.3-13.8 4.4-4.1 7.6-4.7 12.2-2.3m63.6.1c9 4.3 9.8 16.8 1.4 21.8-5.2 3-13 1.3-16.4-3.6-2.6-3.7-2.1-11.1 1.1-14.8 4.3-5.1 8.2-6.1 13.9-3.4" style="fill:#ebebeb"/></svg>