<?xml version="1.0" encoding="UTF-8" standalone="no"?><!DOCTYPE svg PUBLIC "-//W3C//DTD SVG 1.1//EN" "http://www.w3.org/Graphics/SVG/1.1/DTD/svg11.dtd"><svg width="100%" height="100%" viewBox="0 0 403 381" version="1.1" xmlns="http://www.w3.org/2000/svg" xmlns:xlink="http://www.w3.org/1999/xlink" xml:space="preserve" xmlns:serif="http://www.serif.com/" style="fill-rule:evenodd;clip-rule:evenodd;stroke-linejoin:round;stroke-miterlimit:2;"><path d="M287.9,41c4.1,1.2 10.8,3.7 15,5.6c8.8,4 24.8,14.5 30.9,20.2c7.5,6.9 5.1,10 -13.1,17.1c-29.7,11.6 -44.6,11 -75.3,-2.9c-14.5,-6.6 -24.3,-10 -28.6,-10c-1.6,0 -1.8,1 -1.8,7.4c0,22.4 10.7,52.1 35.4,98.3c5.9,11.2 11.1,20.3 11.6,20.3c0.5,0 3.7,-0.7 7.1,-1.6c9.2,-2.3 23.7,-2.1 31.9,0.5c19.4,6.2 35.1,23.4 40.6,44.6c2.4,9.4 2.4,28.4 -0,37.5c-5.3,19.6 -17.6,34.9 -35.6,44c-7.3,3.7 -12.5,5 -23.5,6c-33.3,3.2 -61.6,-16.3 -70.6,-48.5c-2.7,-9.5 -3.2,-26.8 -1,-35.5c1.7,-7.2 7.2,-18.5 11.1,-23.2c3.2,-3.9 17.3,-13.7 22.5,-15.6c1.7,-0.6 4.3,-1.6 5.8,-2.2l2.9,-1l-2.2,-3.8c-6.3,-10.5 -21.7,-40.6 -26.4,-51.5c-12.7,-29.1 -18.2,-48.1 -19.4,-66.7l-0.7,-10.5l-9.8,13.4c-27.6,37.4 -43.1,62.9 -52.6,86.8c-3.2,8.2 -10.1,27.7 -10.1,28.7c0,0.2 2.6,0.6 5.8,0.9c15.6,1.4 33.5,12.9 41.5,26.8c7,12.2 9.5,32 5.8,47.4c-2.6,10.9 -5.7,17.7 -11.6,26c-9.4,13.2 -25.1,24 -39.3,27c-8.8,1.9 -26,1.9 -34.1,0c-17.1,-4.1 -34.1,-17.7 -42,-33.5c-5.4,-10.9 -7,-17.2 -7.8,-29.5c-1.2,-19.9 5.5,-38.2 19,-51.8c12.3,-12.4 24.2,-17.1 43,-17c6.5,0 10.7,-0.4 10.7,-1c-0,-0.5 3.2,-8.9 7.1,-18.6c13.4,-33.6 28.2,-58.9 58.1,-99.7c12.5,-17.2 15.1,-19.4 20.4,-17.4c4.2,1.6 5.5,1.3 4.8,-1.4c-0.5,-2.2 0.2,-2.7 10.3,-6.9c13.9,-5.8 25.3,-9.5 32.8,-10.7c8.7,-1.3 22.9,-0.4 31.4,2Zm-187.4,164c-16.4,3 -28.4,12.2 -35.7,27.6c-5.9,12.5 -7.4,29 -3.8,42.8c7.2,28.2 30.6,45.1 59.9,43.3c16.5,-1.1 28.1,-5.9 38.1,-15.9c10.1,-10.1 14.8,-19 17.6,-33.6c5,-26.1 -5.5,-48 -27.3,-57.3c-7.4,-3.1 -8.3,-3.3 -18.5,-3.1c-9.6,0.3 -10.9,0.1 -12.7,-1.7c-2.5,-2.5 -10.3,-3.4 -17.6,-2.1Zm156,-156c-3.2,0.6 -8.4,1.7 -11.3,2.6c-7.3,2.1 -24.2,8.7 -24.2,9.4c-0,0.3 1.9,1.1 4.3,1.7c2.4,0.7 10.4,3.9 17.8,7.1c19.8,8.8 28.5,11.3 40.7,12c7.7,0.3 12,-0 17.5,-1.3c7.8,-1.9 22.4,-7.2 23.1,-8.4c0.7,-1 -10.2,-9 -18.4,-13.4c-15.2,-8.4 -34.2,-12 -49.5,-9.7Zm18.1,155.1c-2.1,0.5 -4.9,2 -6.1,3.3c-2.5,2.7 -8,4.6 -13.5,4.6c-5.2,0.1 -10.1,2.2 -17.4,7.4c-11.5,8.2 -16.7,17.4 -18.8,33.1c-1.9,14.1 2.1,31.3 10,42.8c7.4,10.7 19.2,18.8 32.2,22.2c5,1.3 9.2,1.6 18.5,1.2c18.4,-0.7 28.5,-5.2 39.9,-17.9c6.7,-7.4 10.8,-15.3 13.6,-26.3c4.6,-17.6 -0.7,-42.6 -11.6,-55.3c-10.4,-12.2 -30.9,-18.8 -46.8,-15.1Z" style="fill:#ebebeb;"/></svg>