<svg xml:space="preserve" fill="#ebebeb" style="fill-rule:evenodd;clip-rule:evenodd;stroke-linejoin:round;stroke-miterlimit:2" viewBox="0 0 425 420" xmlns="http://www.w3.org/2000/svg"><path d="M259.3 34.8c2.5 2.8 4 11.6 3.5 21.1-.5 10.3-2.6 14.9-10.3 23.1-10 10.5-12.3 18.2-8.5 29.4 1.2 3.6 2.6 6.8 3.1 7.1 1.4.9 1.1 7.1-.5 8.5-3 2.4-6 .8-8.8-5-3.6-7.3-5.2-15.6-4.6-23.7.6-8.6 3.3-13.9 10.9-21.8 3.2-3.3 6.7-8.1 7.8-10.5 2.8-6 2.8-15.2.1-20.5-2.4-4.8-2.5-5.3-.3-7.7 2.1-2.3 5.5-2.3 7.6 0m-48.4-.8c2.7 1.4 5.2 8.6 5.8 16.6.7 9.5-2.1 18.9-7.7 25.9-2.2 2.7-5.8 7.7-8 10.9-5.2 7.7-5.5 13.5-1 23.6 3.1 7.1 3.1 9.3-.2 11.1-4.3 2.3-7.1-1.2-11.3-14-2.2-6.7-1.6-16.2 1.4-22.3 1.1-2.4 4.5-7.3 7.6-10.8 7.9-9.3 9.8-13.7 9.8-22.5 0-5.5-.5-8.3-2.1-11.4-2.6-5-2.6-4.6-.6-6.5 1.8-1.8 3.8-2 6.3-.6m-42.6.7c2.6 3 4 10.7 3.5 20.1-.5 10.5-2.1 13.9-11.8 25.9-10.3 12.7-11.1 18-4.9 31.4 3.1 6.7 3.1 7 1.4 8.9-4.1 4.5-8 1.5-11.9-9.2-3.3-8.7-3.5-17.5-.6-25 1.2-3.2 5-8.9 9.4-14.2 5.7-6.8 7.8-10.1 8.7-13.9 1.4-5.9.7-14.3-1.5-18.6-1.3-2.4-1.4-3.6-.6-5.1 1.3-2.5 6.1-2.7 8.3-.3M248 142c34.5 3.8 49.6 6.4 65.2 11.6 4.2 1.4 8.8 3.6 10.2 4.9 2.5 2.3 2.6 2.9 2.6 12.5v10h8.8c10.1 0 21.1 2.4 29.9 6.7 20.4 9.7 33.1 39.5 27.9 65.4-3.3 16.3-10.7 29.3-22.9 40.5-11.3 10.4-24.6 15.4-40.8 15.4h-8.6l-4.8 9.4c-12.1 24-33 41.4-57.6 47.7-7.7 2-11.6 2.2-45.6 2.6-40.5.5-59.1-.4-71.8-3.7-8.9-2.3-20.1-7.3-27-12-17.3-11.9-31-32.4-37.2-55.5l-2.6-10-.5-61.6c-.4-67.7-.6-65.4 5.5-69.7 11-7.6 46.6-13.7 96.8-16.5 15.3-.9 55.6.4 72.5 2.3M83 227.7c0 27.5.4 52.4 1 57.1 1.3 10.5 4.2 19.7 9.1 29.5 10.3 20.6 25.2 33.4 46.5 40 13.9 4.4 21.8 4.9 67.1 4.4 38.3-.4 42.4-.6 49.3-2.5 25.7-7 44.2-23.9 53.9-49.2 6.1-15.8 6.3-18.1 6.8-70.4.3-26.4.2-50-.2-52.4-.6-4.3-.7-4.4-3.8-4-1.8.3-7.1 1.7-11.8 3.1-29.8 8.9-104.1 12.8-150.4 7.8-29.8-3.2-55.7-7.8-65.7-11.6-1.7-.7-1.8 2-1.8 48.2m83.5-78.1c-2.2.2-10.3.9-18 1.5-29.3 2.3-60.2 8.8-62.9 13.3-3.8 6.1 18.2 11.6 66.9 16.6 44.8 4.7 111.1 1 146.6-8 8.7-2.2 15.9-5.4 15.9-7 0-3.8-31.2-10.9-64-14.6-13.6-1.5-74-2.8-84.5-1.8m161 42.7c-1.4 1.1-1.6 2.1-1.1 5 .7 3.5.8 3.6 6.4 4.2 13.8 1.6 21.1 4.6 28 11.5 6.8 6.8 9.6 13.7 10 25 .8 19.3-5.7 32.8-20.2 42.2-6.2 4-16.8 7.8-21.6 7.8-2.4 0-2.9.5-3.9 4.4-1.8 7.1-1.6 7.6 2.7 7.6 20.8 0 39.1-11.5 49-30.6 5.1-9.9 7.2-18.3 7.2-28.9 0-23.9-13.3-42.5-34.4-48.1-6.7-1.8-19.6-1.8-22.1-.1m-.5 49.5c0 26.2.2 31.1 1.6 33 4.1 6 20.1-1.4 27.2-12.6 8.8-13.8 7.9-31.4-2.2-42-5-5.4-14.4-9.2-22.8-9.2H327z" style="fill:#ebebeb"/></svg>