<svg xml:space="preserve" fill="#ebebeb" style="fill-rule:evenodd;clip-rule:evenodd;stroke-linejoin:round;stroke-miterlimit:2" viewBox="0 0 402 345" xmlns="http://www.w3.org/2000/svg"><path d="M202.9 39.9c1 1 2.8 5.1 4.1 9.2 6.5 21.6 28 85.3 33 97.9 3.2 8 6 15.3 6.4 16.3.3 1 .9 1.6 1.3 1.4 1-.6 8.7-12.2 29.9-44.5 8.7-13.4 18.7-28.2 22.1-33 8.6-12 27.7-40.4 28.1-41.8.4-1.7 4.2-2.5 6.3-1.4 2.7 1.5 4.3 7.7 4.3 16.5 0 4.4-.6 24.6-1.4 45-1 25.8-1.4 60.1-1.3 113.6l.3 76.7-2.2 2.7c-2.3 3-.6 2.9-19.8.6-11.7-1.4-35.5-1.6-162.3-1.1-90.9.3-100 .2-101.4-1.3-1.5-1.5-1.5-5-.4-40.9.9-29 .9-43.8.1-56.3-1.6-26.1-1.6-56.7-.1-106.5 1.4-45 1.5-45.5 3.7-47.7 1.3-1.3 2.9-2.3 3.6-2.3 1.6 0 14.9 17.7 20.3 27 4.4 7.7 27.6 50.5 36.5 67.5 3.4 6.6 9 16.4 12.3 21.9l6.1 9.8 2.6-3.1c2.6-3.2 9.9-18.4 14.8-31.1 1.6-4.2 5-12 7.5-17.5s6.4-14.3 8.7-19.5 7.7-16.1 12.1-24.2c6.5-12 8.1-15.8 8.8-21.4.6-3.7 1.4-7 1.8-7.4 2.7-2.5 9.8-7 11-7 .7 0 2.1.8 3.2 1.9m-13.4 45.9c-3.2 7-12 25.5-19.6 41.2-7.5 15.7-15.8 33.9-18.3 40.5-2.6 6.6-5.6 13.9-6.6 16.2-2.9 6.2-9 14.3-10.8 14.3-2.3 0-6.6-5.6-9.5-12.2-1.4-3-5.9-11.7-10.2-19.4-4.3-7.6-9.3-17.1-11.1-21-3.6-7.9-21.8-39.3-30.3-52.4l-5.5-8.5-.7 6c-1 7.7-2.8 64.3-3.4 105.9-.8 50.9-1.6 79.6-2.5 82.7l-.8 2.9 25.9-.1c14.3 0 26.3.2 26.7.4 1 .7 57.1 1.6 137.9 2.3l69.1.6.6-6.4c.3-3.4.8-17.1 1.1-30.3s1-37.5 1.5-54c1.1-34.6 1.3-95.4.4-104.2-1.1-10.6-2.6-8.9-29.3 32.7-6.1 9.6-14.3 22-18.1 27.5-3.9 5.5-9.3 14-12.1 19-8.7 15.4-10.8 18.3-14 19.4-3.3 1.1-8.9-.4-10.4-2.9-.4-.7-3.6-9.6-7-19.9-3.5-10.2-9.5-26.5-13.3-36.1s-8.9-23.1-11.2-30c-3.5-10.5-7.8-19.8-11.8-25.7-.5-.8-2.8 3.1-6.7 11.5" style="fill:#ebebeb"/></svg>