<svg xml:space="preserve" fill="#ebebeb" style="fill-rule:evenodd;clip-rule:evenodd;stroke-linejoin:round;stroke-miterlimit:2" viewBox="0 0 394 385" xmlns="http://www.w3.org/2000/svg"><path d="M205.3 21.6c2.9 1.5 18.5 9.9 34.7 18.7 51 27.7 73.8 40 95.5 51.7 11.6 6.2 21.8 12.1 22.8 13.2 1.6 1.9 1.7 7.7 1.7 90.8 0 48.9-.3 89.5-.6 90.4s-8.5 5.7-18.3 10.8c-9.7 5-32.2 17.1-50.1 26.8s-36.5 19.8-41.5 22.5c-4.9 2.6-17.9 9.7-28.7 15.7L201 373.1l-28.2-15.2c-15.6-8.3-39.8-21.4-53.8-28.9-14-7.6-34.6-18.5-45.6-24.3-11.1-5.9-22.8-12.2-26-14l-5.9-3.3-.3-88.9c-.1-49 0-90 .3-91.2.7-3.1 8.3-7.4 111.5-63.3 12.9-7 28.5-15.5 34.5-18.8 6.1-3.4 11.4-6.2 11.8-6.2s3.1 1.2 6 2.6m-14.8 13.5c-3.8 2.3-14.6 8.2-24 13.1-17.9 9.5-45.6 24.6-79 43.1-11 6.1-22.1 12.2-24.6 13.6l-4.6 2.5 42.1 22.6c23.1 12.5 55.3 29.7 71.5 38.3l29.4 15.7 13.1-7.2c7.2-3.9 32.9-17.8 57.1-30.8 64.9-35 70.7-38.2 69.8-39-.8-.8-46.8-25.9-65.8-36-5.5-2.9-17.6-9.4-27-14.5C212.4 36.9 200.9 31 199.2 31c-.9 0-4.8 1.9-8.7 4.1m144 88.3c-7.1 4-22.2 12.2-33.5 18.3-42.6 23.1-71.9 38.8-82.7 44.5l-11.3 6V358l2.8-1.3c3.8-1.7 64.8-34.8 105.2-57l33.5-18.5.3-82.6c.1-45.4-.1-82.6-.5-82.5-.5 0-6.6 3.3-13.8 7.3M51.2 198.7l.3 82.8 9 4.8c56.8 30.5 132.3 70.5 134.6 71.2 1.8.6 2.1.4 1.6-1-.4-.9-.7-38.3-.7-83.1 0-51.4-.4-81.4-1-81.4-.5 0-7.1-3.3-14.7-7.4-46.1-24.5-58.9-31.4-68.3-36.4-5.8-3.1-21.7-11.6-35.4-18.9C62.8 122 51.5 116 51.3 116s-.2 37.2-.1 82.7" style="fill:#ebebeb"/></svg>