<svg xml:space="preserve" fill="#ebebeb" style="fill-rule:evenodd;clip-rule:evenodd;stroke-linejoin:round;stroke-miterlimit:2" viewBox="0 0 256 276" xmlns="http://www.w3.org/2000/svg"><path d="M3290 3525c-409-88-706-421-755-847l-6-58h-75c-66 0-78-3-99-25-30-29-32-55-6-86 17-21 29-24 105-28 86-3 86-3 86-30 0-48 40-184 80-268 73-156 194-303 325-393 73-50 204-108 301-132 127-31 324-31 444 1 348 93 604 354 692 708 32 130 30 322-5 456-89 335-341 591-678 687-96 28-314 36-409 15m360-151c86-19 231-91 305-151 126-102 239-275 280-428 25-92 30-264 12-361-73-383-397-654-782-654-350 0-645 221-755 565-34 108-39 310-11 430 91 382 433 643 811 618 41-3 104-11 140-19" style="fill-rule:nonzero" transform="matrix(.1 0 0 -.1 -213 377)"/><path d="M3378 3100c-168-30-299-123-376-268-43-80-62-161-62-257 0-146 45-258 146-365s226-160 379-160c458-1 694 540 385 883-114 128-309 197-472 167m228-161c77-29 165-113 206-197 31-62 33-74 33-167 0-88-3-107-27-157-37-80-107-152-187-191-61-30-73-32-166-32-88 0-107 3-157 27-95 44-185 144-212 235-7 21-4 21 100 25 97 3 107 5 125 27 26 31 24 57-6 86-23 23-31 25-131 25h-106l7 38c33 183 215 321 403 306 35-2 88-14 118-25" style="fill-rule:nonzero" transform="matrix(.1 0 0 -.1 -213 377)"/></svg>