<svg xml:space="preserve" fill="#ebebeb" style="fill-rule:evenodd;clip-rule:evenodd;stroke-linejoin:round;stroke-miterlimit:2" viewBox="0 0 411 380" xmlns="http://www.w3.org/2000/svg"><path d="M330 10.2c1.1 2.4 2 5.5 2 6.9 0 2.7 3.8 14.5 6.5 20.2 1.8 3.8 6.9 7 17 10.8 3.3 1.2 7.1 2.6 8.5 3.1 3.3 1.3 1.8 2.1-8.7 4.6-10.1 2.5-16.1 5.7-18.6 9.9-2.7 4.7-4.7 12.8-4.8 19.8 0 3.3-.4 6.9-.8 8-.7 1.7-1.1 1.3-3.4-2.6-1.5-2.5-3.1-7-3.7-10-1.7-9-2.8-11.3-7.9-16.3l-4.9-4.8h-9.8c-9.9-.1-14-1-12.8-2.9.3-.5 4.7-3 9.8-5.5 5.9-2.8 10.8-6 13.3-8.7 7.9-8.4 13.3-20.2 13.3-29.4 0-3.6 1.3-7.1 2.8-7.3.2 0 1.2 1.9 2.2 4.2M146 72.9c15.7.5 33.3.7 39.2.4 16.3-.9 109.8 1.6 112.6 3 1.3.6 5.5 5.6 9.4 11.1 4 5.6 9.7 12.8 12.8 16.1s7.6 8.5 10 11.5c2.5 3 9.5 10.9 15.7 17.5 15.1 16.2 22.5 25.5 21.9 27.2-.4.8-.6 1.9-.6 2.4s-3.7 4.8-8.2 9.7c-10 10.5-43.5 49.1-52.7 60.5-6.8 8.5-23.2 27.5-43.1 50.1-6.4 7.2-19.1 22.1-28.4 33.1-18.2 21.6-27.4 31.5-29.2 31.5-1.7 0-23.9-24.1-35.4-38.5-21.9-27.4-60.3-71.6-99.6-114.5-14.7-16-24.7-27.8-26.5-31.2-1.6-3-.4-5.9 5-12.1 2.8-3.1 8.2-10.3 12.1-16 3.9-5.6 9.6-13.4 12.6-17.2 3-3.9 8.2-11.1 11.6-16 18.3-26.8 22.6-31.2 29.3-30 1.7.3 15.8 1 31.5 1.4m125.1 98.3c-1.3 4-9.1 25.7-17.3 48.3-8.3 22.5-17.9 49.5-21.4 60-3.6 10.4-8.1 23.4-10.1 28.8-1.9 5.4-3.4 10-3.1 10.2.2.3 4.4-4.3 9.4-10.2 4.9-5.9 15.7-18.4 23.9-27.8 8.3-9.5 23.6-27.2 34-39.5 10.5-12.4 25.9-30.3 34.3-39.8 15.6-17.8 30.2-35.4 30.2-36.6 0-.3-17.5-.6-38.8-.6h-38.8zm-120.6-5.5c4.6 11.3 42.1 123.7 49.7 149 2.4 7.9 4.5 14.3 4.8 14.3s1.1-1.7 1.7-3.8c.6-2 5.1-14.8 10.1-28.3s13.8-38.3 19.5-55c5.8-16.7 11.5-32.9 12.7-35.9 2.2-5.3 15-41.1 15-41.7 0-.2-25.7-.3-57.1-.3-54 0-57.1.1-56.4 1.7M216 82.6c0 .5 8.9 12.4 21.5 28.9 4.7 6 13.1 17.1 18.7 24.5 5.7 7.4 10.7 13.5 11.1 13.5 1.3 0 22.7-61.3 22.7-65.1 0-1.2-5.8-1.4-34.7-1.5-19.2-.1-35.8-.3-37-.4-1.3-.1-2.3-.1-2.3.1M57.2 164.9c.3.9 12 14.1 33.8 38.1 5.8 6.3 17.5 19.4 26 29 14.5 16.3 19.2 21.8 42.3 48.4 4.8 5.5 14.3 17.2 21 25.9 6.7 8.6 12.3 15.3 12.5 14.8.4-1.1-12.9-42.8-20.8-65.1-3.2-9.1-10.6-30.7-16.4-48s-11.6-34.3-12.8-37.8l-2.3-6.2H98.7c-25.5 0-41.7.4-41.5.9M206 87.7c0 1.6-.6 2.3-1.9 2.3s-4.4 3.2-9 9.2c-18.9 24.8-25.8 33.7-34.1 44-4.9 6.1-8.9 11.2-8.7 11.3.1.1 23.7-.1 52.5-.3 53.7-.4 55.1-.6 50.7-4.2-.8-.7-11.4-14.3-23.5-30.4-12.1-16-22.9-30.2-24-31.6l-2-2.5zm88.5 13.9c-4.9 15.6-16.2 49-17.4 51.3-.9 1.6 1.2 1.7 37.5 1.9l38.5.2-8.9-10.7c-4.9-6-13.3-15.5-18.7-21.3-5.3-5.8-13.3-15.2-17.8-21-4.4-5.8-8.3-10.9-8.8-11.4-.4-.5-2.4 4.5-4.4 11m-198-.3c-13.1 18.8-29.9 41.9-35.2 48.1-1.8 2.2-3.3 4.3-3.3 4.8 0 .4 17.8.8 39.5.8H137l-2.4-5.3c-11.8-25.8-14.7-32.4-17.4-40.7-1.7-5.2-4.4-13-6-17.2l-2.8-7.8zM118 83.4c0 3.2 10.4 31.4 17.3 46.7 9.8 21.9 9 20.6 10.9 16.7.8-1.8 3.5-5.6 6-8.3 2.5-2.8 8.3-10.2 13.1-16.5s11.1-14.4 14.2-18c3-3.6 7.7-9.7 10.4-13.6l5-7.1-22.6-.6c-37.7-1.1-54.3-.9-54.3.7" style="fill:#ebebeb"/></svg>