<svg xml:space="preserve" fill="#ebebeb" style="fill-rule:evenodd;clip-rule:evenodd;stroke-linejoin:round;stroke-miterlimit:2" viewBox="0 0 395 408" xmlns="http://www.w3.org/2000/svg"><path d="M870.8 580.2c.5.7 1.7 4.7 2.6 8.8 4.3 19 12 28.2 28.4 34 6.9 2.5 7.7 3 8 5.6.4 3-1.8 5.4-5 5.4-3.7 0-12.8 4.3-17.1 8-8.1 7.2-10.6 12-15.6 30.6-.8 3-1.8 4.3-3.3 4.8-3.3.8-4.8-1.3-6.4-9-2.1-10.3-6.5-18.3-13.4-24.7-5.6-5.2-14.3-9.7-18.8-9.7-2.6 0-6.2-2.9-6.2-4.9 0-2.6 1.7-3.8 8.8-6 16.3-5 25.1-15.2 29.1-33.6 1-4.6 2.2-8.8 2.5-9.4 1-1.5 5.1-1.4 6.4.1m-6.3 30.9c-2.9 4.8-11.7 14.1-16 16.8-1.5.9-1.7 1.4-.6 1.8 3.6 1.5 11.9 9.5 15.7 15.1l4.2 6.2 3.2-5c3.2-4.9 14.3-16 16.1-16 2 0 .7-1.7-4.1-5.3-4.3-3.2-10.4-10.4-14.5-17.1-.8-1.3-1.5-.7-4 3.5m-143.7-36.5.2 31.1 7.8.6C777 610 821.1 641 842.4 686c5.3 11.2 8.8 22.7 11.1 36.9 1.4 8.3 1.6 13.8 1.2 27-.8 22.7-4.3 37.1-13.3 55.5-19.8 40.2-58.1 69.2-100.6 76.1-12.2 2-36.9 2-48.4 0-50.2-8.6-92-45-107.9-93.9-5.2-16.2-6-22-6-44.6 0-19.3.2-21.1 2.9-31.5 6.7-25.7 16.9-44.3 35.1-63.3 13.8-14.5 28.9-25 46.5-32.3 10.6-4.5 28.5-8.8 39.5-9.5l9.5-.7V575c0-16.9.3-31 .7-31.4s2.3-.6 4.3-.4l3.5.3zm-16.9 43.6c-8.7 4.4-21.9 17.7-28 28.3-2.6 4.4-5 9-5.4 10.3l-.6 2.2 20.8-.2 20.8-.3.3-21.8c.1-12-.2-21.7-.6-21.7-.5 0-3.8 1.4-7.3 3.2M721 659h21c11.6 0 21-.2 21-.4 0-.8-6.9-12.5-10.1-17.3-6.8-10-21.7-22.4-29.6-24.8l-2.3-.6zm-47.3-36.6c-17.7 6.2-34.3 16.7-47.2 29.6l-6.9 7h39l2.7-5.8c4.4-9.4 12.4-21.8 18.4-28.2 3-3.3 5.1-6 4.7-6-.5 0-5.3 1.6-10.7 3.4m78.4 2.4c6.5 6.9 11.4 14.2 17.6 25.8l4.5 8.4h18.9c10.4 0 18.9-.4 18.9-.9 0-1.5-13.6-13.7-21.2-19.1-11.3-8-29.6-16.6-41.2-19.4-2.8-.7-2.6-.4 2.5 5.2m-144.9 50.5c-11.2 17.8-17 34.7-19.6 57.9l-.6 4.8h56v-4.8c0-6.2 2.6-27.2 4.5-36.4 1.4-6.8 5.7-22.4 7.1-26.2.6-1.4-1.4-1.6-21.4-1.6h-22zm55.4 2.4c-5.1 16.9-9.6 42.8-9.6 55.8v4.5h58.7l.1-34.5.2-34.5h-46.7zM721 738h59.3l-.7-9.3c-1.4-18.2-5.5-39.6-10.4-53.7l-1.9-5.5-23.1-.3-23.2-.2zm57.6-65.5c4.3 10.4 9.3 36.5 11 57.2l.6 8.3h27.9c21.7 0 27.9-.3 27.9-1.3 0-.6-.7-5.6-1.5-11-2.5-16.6-9.9-36.1-19.3-50.9l-3.7-5.8h-44.4zm-191.1 81.7c2 20.8 9.1 42.4 19.6 59.5l2 3.2 22.6.1 22.5.1-.5-2.3c-.2-1.3-1.6-6.6-3.1-11.8-3.4-12.7-6.3-30-7.1-43.8l-.8-11.2h-55.8zm65.5-.3c0 13.4 4.4 38.8 9.5 55l2.6 8.1 23.2-.2 23.2-.3.2-34.3.3-34.2h-59zm68 63.1h46.9l2.6-8.1c4.7-15.1 9.5-43.6 9.5-57V748h-59zm68.6-60.3c-1.3 18.6-5.2 40.7-10.2 58l-.6 2.3 45.2-.2 3.4-5.7c10.1-16.7 16-35.1 18.1-56.4l.7-6.7h-56zM617 826.8c0 1.7 20.5 20.8 26.9 25.2 8.8 5.9 21.9 12.3 31.9 15.4 10.3 3.2 11.1 3.2 7.4.1-5.2-4.4-13.4-16.4-19.8-28.9l-6.1-12.1-20.2-.3c-11-.1-20.1.1-20.1.6m51-.3c0 1.3 6.6 13.6 10.6 19.6 5.6 8.6 17.3 19.5 25 23.6 3.4 1.8 6.7 3.3 7.3 3.3.8 0 1.1-6.5.9-23.3l-.3-23.2-21.7-.3c-12-.1-21.8 0-21.8.3m53 46.7 2.8-.7c4.6-1.1 14.1-7.5 20.2-13.4 7.9-7.7 20-26.9 20-31.9 0-.9-5-1.2-21.5-1.2H721zm50-37c-6.4 12.7-12.7 22.5-18.7 28.9-2.5 2.7-4.2 4.9-3.7 4.9s3.6-.8 6.9-1.9c13.2-4 26.6-10.9 37.6-19 5.8-4.4 22.9-21 22.9-22.3 0-.4-9-.8-20-.8h-20z" style="fill:#ebebeb" transform="translate(-534 -512)"/></svg>