<?xml version="1.0" encoding="UTF-8" standalone="no"?><!DOCTYPE svg PUBLIC "-//W3C//DTD SVG 1.1//EN" "http://www.w3.org/Graphics/SVG/1.1/DTD/svg11.dtd"><svg width="100%" height="100%" viewBox="0 0 372 370" version="1.1" xmlns="http://www.w3.org/2000/svg" xmlns:xlink="http://www.w3.org/1999/xlink" xml:space="preserve" xmlns:serif="http://www.serif.com/" style="fill-rule:evenodd;clip-rule:evenodd;stroke-linejoin:round;stroke-miterlimit:2;"><path d="M208.8,29.5c6.8,1.4 16.8,4.2 22.1,6.1c11.7,4.4 29.2,13 33.3,16.5l3.1,2.5l-2.7,6.7c-11.2,28.1 -1.6,61 22.9,77.9c10.1,7 17.5,9.1 30.8,9c10,0 10.8,0.1 11.9,2.1c0.7,1.4 1.3,10.5 1.6,24.7c0.4,18.3 0.1,24.5 -1.2,32.6c-6.1,35.9 -21.7,64.4 -49.3,90.3c-21.7,20.4 -48.4,33.8 -76.8,38.5c-15.2,2.6 -41.9,2.4 -55.8,-0.3c-31.2,-6.3 -56.5,-19.7 -78.8,-42c-14.8,-14.8 -22.1,-24.8 -30.3,-41.3c-11.6,-23.4 -15.4,-39 -16.3,-65.4c-0.6,-18.2 0.3,-27.7 3.9,-41.9c6.7,-26.8 22,-53.7 41.3,-72.9c23.1,-23.1 50.3,-37.4 83.5,-44.1c3.8,-0.8 14.2,-1.4 25.4,-1.4c16.4,-0.1 20.4,0.2 31.4,2.4Zm-48.8,6.5c-10.8,1.5 -23.9,5 -34.5,9.2c-69,27.2 -107.1,99.5 -90.4,171.8c2.5,10.9 5.9,19.9 12.5,33c24.3,48.6 74.4,79.7 128.9,80.1c43.3,0.3 81.1,-16.9 112.3,-51.2c25.2,-27.7 38.6,-72.3 34.5,-115.2l-0.6,-6.7l-7,0c-13.3,0 -26.8,-5.3 -38.5,-15.3c-11.5,-9.7 -18.7,-21.3 -23.2,-37.1c-3.5,-12.6 -2.7,-32.8 1.9,-44.9l1.1,-2.7l-13.3,-6.5c-21.2,-10.3 -38.2,-14.4 -62.2,-15c-8.2,-0.2 -17.9,0 -21.5,0.5Zm-26.9,228c4.6,2.5 -0.5,12.6 -7.9,15.7c-3.7,1.5 -5.8,0.6 -6.2,-2.7c-0.4,-3.1 0.1,-4.1 2.5,-5c1.3,-0.5 3.2,-2.4 4.1,-4.2c2.5,-4.8 4,-5.6 7.5,-3.8Zm88.2,2.8c5.4,5 8.3,14.2 5.5,17c-3,3 -7.8,0.3 -7.8,-4.3c-0,-2.7 -3.8,-7.3 -6.3,-7.7c-1.6,-0.2 -2.3,-1.1 -2.5,-3.1c-0.7,-6.3 5.4,-7.3 11.1,-1.9Zm-98,-173.8c5.2,5.5 5.8,6.4 5.5,9.8c-0.3,3.2 -0.7,3.7 -3,4c-2.2,0.3 -3.3,-0.6 -6.8,-5.2c-2.3,-3 -4.8,-5.7 -5.6,-6c-0.9,-0.3 -1.4,-2 -1.4,-4.6c0,-3.7 0.2,-4 2.7,-4c2,0 4.2,1.6 8.6,6Zm55.5,198.7c0.6,5.9 -10.5,15.4 -14.3,12.3c-2.3,-1.9 -1.8,-4.3 1.6,-7.6c1.7,-1.6 3.7,-4.2 4.5,-5.7c1.3,-2.3 2.1,-2.8 4.7,-2.5c2.8,0.3 3.2,0.7 3.5,3.5Zm102.2,-116.7c3.8,-0 -0.3,11.3 -6.1,16.5c-4.5,4.1 -5,4.2 -7.4,1.5c-2,-2.3 -1.3,-7 1.1,-7c0.8,-0 2.5,-2.2 3.9,-5.1c2.5,-5.5 4.2,-7.2 6.3,-6.4c0.8,0.3 1.7,0.5 2.2,0.5Zm-192.2,51.9c1.5,1 4.4,2.1 6.4,2.5c3.9,0.7 5.4,3 4.3,6.6c-1,3 -5.1,3.6 -11.3,1.4c-9.6,-3.2 -12.8,-7.5 -8,-10.8c3,-2.1 5.4,-2 8.6,0.3Zm-13.8,-55.4c1.7,2.1 0.4,6.4 -2.4,7.6c-2.4,1.1 -4.6,4.7 -4.6,7.4c0,1.9 -4.8,3.1 -6.9,1.8c-1.1,-0.7 -1.5,-2.2 -1.3,-4.4c0.3,-3.8 4.4,-11.3 7,-12.8c2.5,-1.5 6.8,-1.3 8.2,0.4Zm142.5,-83c6.7,4 8.1,6.2 5.9,9.4c-2,2.9 -5.5,2.6 -8.5,-0.5c-1.3,-1.5 -4.3,-3.5 -6.6,-4.5c-3.3,-1.4 -4.3,-2.4 -4.3,-4.2c0,-5.7 4.2,-5.8 13.5,-0.2Zm57.1,149.1c0.4,1.4 0.2,3.6 -0.5,5c-1.3,2.9 -9.6,8.4 -12.6,8.4c-5.2,-0 -5.3,-6.1 0,-8.5c1.7,-0.9 4.2,-2.9 5.4,-4.5c2.8,-3.9 6.8,-4.1 7.7,-0.4Zm-78.9,-111.6c12.2,4.2 23.6,13.2 30.6,23.9c7.4,11.2 10.6,21.5 10.7,33.6c0.1,23.3 -16.6,47.5 -38.1,55.4c-23.2,8.5 -46.9,3.3 -64,-13.9c-12.4,-12.4 -17.4,-25.2 -17.1,-43.3c0.4,-26.8 17.7,-48.9 44.5,-56.9c8.4,-2.4 24.5,-1.9 33.4,1.2Zm-24.7,6c-23.7,3 -42,21.3 -45.2,45.1c-0.9,7.2 -0.9,9.6 0.6,16.1c2.5,11.1 6.8,19.2 14.1,26.3c7.3,7.1 16.3,11.9 26,14c8.9,1.9 12.6,1.9 21.6,0c19,-4 34.4,-19 39.4,-38.2c4.3,-16.4 -1.2,-36 -13.5,-48.3c-7.2,-7.2 -19.6,-13.4 -29.7,-14.9c-3.9,-0.6 -7.3,-1 -7.5,-1c-0.2,0.1 -2.8,0.5 -5.8,0.9Zm-75.8,-9.5c0.9,1.9 0.8,2.9 -0.6,5c-0.9,1.4 -2.3,2.5 -3.1,2.5c-0.8,0 -2.7,1.8 -4.2,4.1c-2.1,3.2 -3.1,3.9 -5.2,3.7c-2.3,-0.3 -2.6,-0.8 -2.9,-4.6c-0.3,-4 0.1,-4.7 4.1,-8.8c5.3,-5.3 10,-6.1 11.9,-1.9Zm74.8,-60.5c0.9,1.7 0.7,2.8 -1.1,5.8c-5.2,8.6 -7.9,10.1 -12.1,6.4c-2.8,-2.3 -2.2,-4.3 2.9,-9.4c5.1,-5.2 8.5,-6.1 10.3,-2.8Z" style="fill:#ebebeb;"/></svg>