<svg xml:space="preserve" fill="#ebebeb" style="fill-rule:evenodd;clip-rule:evenodd;stroke-linejoin:round;stroke-miterlimit:2" viewBox="0 0 406 388" xmlns="http://www.w3.org/2000/svg"><path d="m373.5 198.5-15.3.3c-9.4.1-16-.2-17.2-.8-1.9-1-2-2.1-2-16.8 0-11.1.4-16.2 1.2-17 .9-.9 5.7-1.2 17.3-1l16 .3zm-87-86h-34l-.3-16.4c-.2-11.3.1-16.8.9-17.7 1-1.2 4.4-1.4 17.3-1.2l16.1.3zm-44.1 183.1c2.4 2.3 2.3 31.5 0 33.9-1.4 1.4-3.8 1.6-16.6 1.3-13.4-.3-15.1-.5-16.4-2.2-1.9-2.6-2-31.6-.2-33.4.8-.8 5.9-1.2 16.4-1.2 12.5 0 15.5.3 16.8 1.6M330 36c1.8 1.8 2 3.3 2 16.9 0 11.2-.3 15.1-1.3 16-2.1 1.7-30.7.3-32.7-1.6-1.2-1.1-1.5-4.2-1.5-15.4 0-18.4-.5-17.9 18.1-17.9 12.1 0 13.6.2 15.4 2m-87 171.9c1.5 2.9 1.3 32.4-.2 33.9-.8.8-5.9 1.2-16.4 1.2h-15.3l-2.1-2.7c-2-2.6-2.2-3.7-1.8-17.3.1-8 .7-15.1 1.1-15.8.6-.9 5.2-1.2 17.2-1.2 15.2 0 16.5.1 17.5 1.9M109 165c.5.8 1 7.9 1 15.7 0 19 .7 18.3-17.5 18.3-13.1 0-13.7-.1-16-2.5-2.4-2.3-2.5-2.8-2.5-16.9 0-12.7.2-14.6 1.8-15.6 1-.6 7.5-.9 17-.8 12.3.2 15.5.6 16.2 1.8m263.8-87.2c.9.7 1.2 4.9 1 17.8l-.3 16.9-15.9.3c-10.8.2-16.3-.1-17.2-.9-1.1-.9-1.4-4.6-1.4-16.2 0-19.8-1.1-18.7 17.9-18.7 8 0 15.2.4 15.9.8m-175.6.9c1.6 1.4 1.8 3.4 1.8 16.8 0 10.4-.4 15.5-1.2 16.3-1.3 1.3-30.1 1.8-33.2.6-1.4-.5-1.6-2.9-1.6-16 0-20.3-.9-19.4 18.2-19.4 11.8 0 14.5.3 16 1.7m88.6 42.5c1.7 1.7 1.7 32.9 0 34.6-1.5 1.5-29.1 1.7-31.9.2-1.8-1-1.9-2.3-1.9-17 0-20.1-1.1-19 18.5-19 9.6 0 14.5.4 15.3 1.2m45 .5c.5 1 .8 4 .7 6.8-.1 2.7-.2 10-.3 16.1l-.2 11.1-15.7.6c-9.3.3-16.5.2-17.5-.4-1.6-.9-1.8-2.6-1.8-17.2 0-11.4.4-16.7 1.2-17.5s6-1.2 17-1.2c14 0 15.8.2 16.6 1.7M223.9 346.6l3.2.7-.6 17.2h-19l-.3-7.2c-.4-10.1.4-11.3 7.7-11.3 3.2 0 7.3.3 9 .6M153.8 93.9c.2 11.3-.1 16.8-.9 17.7-1 1.2-4.4 1.4-17.3 1.2l-16.1-.3-.3-15.4c-.4-21.4-1.5-20.2 18.6-19.9l15.7.3zm44.4 158.5c.4.6.8 7.9.8 16.3 0 12.5-.3 15.4-1.6 16.7-2.1 2.2-31.5 2.4-33.3.2-.8-.9-1.1-6.5-.9-17.7l.3-16.4 14.5-.5c15.5-.6 19.1-.3 20.2 1.4m-.4-88.2c.8.8 1.2 5.9 1.2 16.4 0 12.5-.3 15.5-1.6 16.8s-4.2 1.6-16.4 1.6-15.1-.3-16.4-1.6-1.6-4.2-1.6-16.1c0-19.4-1.1-18.3 18.5-18.3 10.4 0 15.5.4 16.3 1.2m-.4-42c1.3 1.8 1.6 5.2 1.6 15.8 0 18.9.9 18-18 18s-18 .9-18-18.2c0-18.5-.7-17.8 18.4-17.8 13.8 0 14.6.1 16 2.2m-45.2-86.5c1.6 1.4 1.8 3.3 1.8 15.5 0 18.4.6 17.8-17.5 17.8-18.2 0-17.5.7-17.5-18.3 0-9.8.4-14.7 1.2-15.5s5.7-1.2 15.7-1.2c12 0 14.7.3 16.3 1.7M278 358.5c.6.3 1 4.2 1 8.6 0 9.4.1 9.3-11.5 9.4h-8l-.3-8.8c-.3-8.3-.2-8.8 2-9.7 2.3-1 15-.6 16.8.5m7.3-194.2c1.6 1.1 1.7 3.1 1.5 17.7l-.3 16.5-15.2.3c-20.3.3-19.3 1.3-19.3-18.8 0-13.1.2-15 1.8-15.9 2.6-1.5 29.4-1.4 31.5.2M243 121.9c.5 1.1 1 8.2 1 15.8 0 19.2.9 18.3-17.9 18.3-19.4 0-18.6.8-18.6-18s-.9-18 19.1-18c14.1 0 15.4.2 16.4 1.9m42.8 85.3c1.7 1.7 1.7 32.9 0 34.6-.8.8-5.6 1.2-15 1.2-13.4 0-14-.1-16.3-2.5-2.4-2.3-2.5-2.8-2.5-17.4 0-13.2.2-15.1 1.8-16 2.5-1.5 30.5-1.4 32 .1M243 252.5c1.7 2 .8 30.9-1 33.1-1 1.1-4.3 1.4-15.4 1.4-19.6 0-18.6 1-18.6-18.4 0-10.5.4-15.6 1.2-16.4s6-1.2 16.9-1.2c12.8 0 15.9.3 16.9 1.5m43.4.1c1.2 3.1.7 31.9-.6 33.2-1.5 1.5-24.2 1.6-28.6.1-2-.7-3.4-2.1-4.1-4.1-1.2-3.3-1.5-26.5-.5-29.2.5-1.4 3-1.6 16.9-1.6s16.4.2 16.9 1.6m44.4-45.4c.8.8 1.2 6 1.2 16.7 0 20.2 1 19.1-17.2 19.1-13.4 0-14-.1-16.3-2.5-2.4-2.3-2.5-2.9-2.5-16s.1-13.7 2.5-16c2.3-2.4 2.9-2.5 16.8-2.5 9.8 0 14.7.4 15.5 1.2m-1.2-128.8c1.8 1.3 1.9 2.5 1.6 17.3-.2 8.7-.7 16.1-1.1 16.6-.4.4-8.1.6-17.2.5l-16.4-.3-.3-17.8L296 77h15.8c12.1 0 16.3.3 17.8 1.4m-177.2 43.8c1.3 1.8 1.6 5.3 1.6 17.5 0 10.5-.4 15.4-1.2 15.9-1.5.9-31.2.9-32.7 0-1.6-1-1.5-32.8.1-34.4.8-.8 5.8-1.2 15.9-1.2 14.1 0 14.9.1 16.3 2.2m-44.2-.5c1.6 1.4 1.8 3.3 1.8 16.4 0 12.1-.3 15-1.6 16.3s-4.3 1.6-16.8 1.6c-10.5 0-15.6-.4-16.4-1.2S74 149 74 139c0-20-.9-19 17.7-19 12.2 0 14.9.3 16.5 1.7M242 78c2 1.2 2.8 31.3.9 33.6-.9 1.1-4.4 1.4-16.9 1.4-13.5 0-16-.2-17.1-1.7-1.1-1.2-1.4-5.3-1.4-16.6.1-13.5.3-15.1 2-16.3 2.2-1.6 30-2 32.5-.4m65.1 235c1.6.9 1.9 2.2 1.9 7.8 0 9.9-1.2 11.2-10.4 11.2-4.3 0-7.7-.5-8.4-1.2-1.7-1.7-1.6-17.5.1-18.1 2.3-1 14.8-.7 16.8.3M153.4 207.6c.3.9.6 8.5.6 16.9 0 19.4.9 18.5-17.8 18.5-7.3 0-14.2-.5-15.3-1-1.8-1-1.9-2.3-1.9-18 0-12.5.3-17 1.3-17.3.6-.3 8.2-.6 16.8-.6 13.4-.1 15.8.1 16.3 1.5m89-42.8c1.4 1.6 1.6 4.2 1.5 16.8 0 8.8-.5 15.4-1.1 16.1-.8 1-5.3 1.3-16.9 1.3H210l-1.6-2.5c-1.5-2.2-1.6-4.6-1.1-16.7.4-12 .8-14.4 2.3-15.5 1.3-.9 6-1.3 16.4-1.3 13 0 14.9.2 16.4 1.8m-44.6 42.4c1.7 1.7 1.7 33.4 0 34.5-.7.4-8.1 1-16.3 1.1-19.8.5-18.8 1.5-18.3-18.8.3-13.6.5-15.3 2.2-16.6 2.6-1.9 30.6-2 32.4-.2m-45 44.1c1.8 1.2 1.7 30.6-.2 33.3-1.3 1.7-2.9 1.9-15.4 2.2-19 .5-18.2 1.3-18.2-19.3 0-13.6.2-15.5 1.8-16.4 2-1.1 30.1-.9 32 .2M108.1 207c1.8 1 1.9 2.3 1.9 17 0 20 1 19-18 19-18.9 0-18 1-18-18.5 0-12.6.3-15.6 1.6-16.9s4.2-1.6 16-1.6c8.1 0 15.4.5 16.5 1M286.5 69l-12.5.1c-17.8.1-18.7.1-20.4-1.7-2.4-2.3-2.3-29.5 0-31.9 1.3-1.3 4-1.5 17.2-1.3l15.7.3zm-88.7 226.2c.8.8 1.2 6 1.2 17 0 20 1 19.1-18.8 18.6-9.9-.2-14.4-.7-15.5-1.7-1.5-1.1-1.7-3.7-1.7-17.2 0-14 .2-15.9 1.8-16.8 2.5-1.5 31.5-1.4 33 .1M64.4 79.2C65.7 81 66 84.4 66 95c0 18.8.8 18-17.3 18-19.7 0-18.7.9-18.7-18 0-8.1.3-15.5.6-16.4.5-1.4 2.9-1.6 16.5-1.6 15.2 0 15.8.1 17.3 2.2m309.4 58.9c.2 16.2.1 17.7-1.5 18.1-1 .2-8.8.1-17.3-.2l-15.5-.5-.3-16.4c-.2-11.3.1-16.8.9-17.7 1-1.2 4.4-1.4 17.3-1.2l16.1.3zM65 121.9c1.6 3.1 1.3 31.6-.4 33-.9.8-6.5 1.1-17.7.9l-16.4-.3-.3-15.8c-.1-9.7.2-16.5.8-17.7 1-1.9 2.1-2 17-2 14.7 0 16 .1 17 1.9m-.2 42.3c.8.8 1.2 5.8 1.2 15.9 0 14.7 0 14.8-2.6 16.8-2.4 1.9-4 2.1-16.8 2.1-9.7 0-14.6-.4-15.4-1.2s-1.2-5.9-1.2-16.4c0-12.5.3-15.5 1.6-16.8s4.3-1.6 16.8-1.6c10.5 0 15.6.4 16.4 1.2M108 36c1.8 1.8 2 3.3 2 15.7 0 18.2.9 17.3-17.6 17.3-14.2 0-14.3 0-16.3-2.6-1.9-2.4-2.1-4-2.1-16 0-10.7.3-13.6 1.6-14.8 1.3-1.3 4.2-1.6 16-1.6 13.1 0 14.6.2 16.4 2m.4 43.2c1.3 1.8 1.6 5.3 1.6 16.9 0 18.1.9 17.3-17.9 16.7-17.7-.5-17.5-.3-17.9-17.6-.2-7.3.1-13.9.7-15.5L76 77h15.4c14.9 0 15.5.1 17 2.2m44.4 85c1.8 1.8 1.7 32.2-.2 33.7-.9.8-6.4 1.1-17.2.9l-15.9-.3-.3-16.4c-.2-11.2.1-16.8.9-17.7 1.5-1.9 30.9-2 32.7-.2m177.3.4c.9 1.2 1.2 5.5 1 17.2-.1 8.6-.6 16-1 16.5-.4.4-8.1.6-17.2.5l-16.4-.3-.3-16.4c-.2-11.2.1-16.8.9-17.7 1.8-2.2 31.2-2 33 .2" style="fill:#ebebeb"/></svg>