<svg xml:space="preserve" fill="#ebebeb" style="fill-rule:evenodd;clip-rule:evenodd;stroke-linejoin:round;stroke-miterlimit:2" viewBox="0 0 395 362" xmlns="http://www.w3.org/2000/svg"><path d="M346.8 116.6c1.2.8 2.2 2.2 2.2 3 0 1.5-7.8 12.3-15.9 21.9-2.8 3.3-5.1 6.3-5.1 6.8 0 .4 4.3.4 9.5.1 10-.7 12.5 0 12.5 3.7 0 3.1-3.4 3.9-17.7 3.9-20.5 0-20.9-1.3-5.9-19.1 5.7-6.8 10.3-12.6 10.1-12.8s-4.2.2-8.9.9c-9.2 1.4-11.6.8-11.6-3.1 0-2.5 1.1-3 11.9-4.9 12.4-2.3 16.2-2.4 18.9-.4m-139.6 6.9c24.6 5.2 46.1 23.2 54.9 46.1l2.4 6.1 17 .6c19.3.6 25.2 1.8 37.1 7.7 27 13.2 42.2 45.8 35.8 76.8-4.6 22.1-17.8 39.3-37.7 49.1-5.6 2.7-12.9 5.6-16.2 6.3-4.7 1-27.1 1.3-106 1.3-93.2 0-100.5-.1-107.8-1.8-19.4-4.6-36.4-18.7-44.6-37.2-2.7-6-5.1-17.8-5.1-24.8.1-17.8 9.5-36.9 23.4-47.3 12.8-9.7 23.7-13.4 38.9-13.4h9.5l.7-4.8c.9-6.4 5.2-19.6 8.2-25.7 3.9-7.8 12.1-18.1 18.4-23 9.7-7.6 25.7-15.1 35.9-16.8 6.3-1.1 29-.6 35.2.8m-36.2 9c-3.6.8-10.8 3.6-16 6.2-7.5 3.7-11.1 6.4-17 12.3-12.3 12.3-17.9 25.4-18.5 43.3-.2 5.5-.8 10.4-1.4 11-.8.8-2 .8-4.4-.2-25-10.4-57.9 7.5-65.2 35.4-1.7 6.8-1.9 19.9-.4 26.5 3.1 13.5 15.5 28.9 28 34.8 13.4 6.4 9.6 6.2 117.9 6.2 108 0 103.4.2 116.8-6 16.6-7.7 29-22.7 33.7-40.5 1.9-7.5 1.9-22.3 0-30-2.7-10.8-9.1-22.1-16.4-29.4-12.2-12.2-24.5-16.4-47.6-16.5-13.7 0-15.4.2-19.3 2.2-7 3.7-7.7 3.1-7.7-6.9 0-7.8-.3-9.1-3.8-16.1-6.5-13.3-21.1-24.8-38.7-30.8-8.5-2.9-30.2-3.7-40-1.5M339.8 32.2c.6.6 1.2 1.9 1.2 2.9 0 2.2-8.1 13-23.3 30.9-6.3 7.4-11.3 13.8-11 14.2.2.5 7.8.8 16.8.8 13.9 0 16.4.2 16.9 1.6.9 2.4.8 3.1-1 4.8-1.3 1.4-4.8 1.6-22.9 1.6s-21.6-.2-22.9-1.6c-.9-.8-1.6-2.1-1.6-2.8 0-1.6 13-18.2 25.9-33.1l9.5-11L311 40c-9.1-.3-17.1-.9-17.7-1.3-.7-.5-1.3-1.6-1.3-2.6 0-3.9 2.7-4.6 19.4-5.2 17.8-.6 26.5-.2 28.4 1.3m-70.1 34.1c1.4 1.3 1.5 2.1.7 3.5-.9 1.3-2.6 1.7-8 1.7-8.1.1-12.5 2.1-15.4 6.8-4 6.5-2.1 12.2 7.7 22.8 6.5 7.1 7.2 8.6 5.1 10.7-2.3 2.3-4.4 1.2-11.2-5.9-13.9-14.5-15.4-27.2-4.2-36.4 5.9-4.8 8.1-5.5 16.3-5.2 5.3.2 7.7.7 9 2" style="fill:#ebebeb"/></svg>