<svg xml:space="preserve" fill="#ebebeb" style="fill-rule:evenodd;clip-rule:evenodd;stroke-linejoin:round;stroke-miterlimit:2" viewBox="0 0 359 413" xmlns="http://www.w3.org/2000/svg"><path d="M177.7 36.2c.7.5 2.4 3.1 3.9 5.6 1.5 2.6 17.2 26.5 34.9 53.2 34 51.2 36.9 55.9 51.3 82 16.2 29.2 21.9 44.5 24.8 66.4 1.7 13.1 1.4 24.1-1.2 37.7-7.5 40.1-38.4 74.4-79.6 88.5-12.8 4.3-22.4 5.8-38.3 5.8-13 0-16.6-.4-27-2.8-26.2-6.1-41-14.2-58.8-32-17.1-17.2-28.4-38-33.1-60.9-4.3-20.8-3.6-41.1 1.9-58.7 4.2-13.2 12.1-32.4 17.7-43 7.6-14.3 30.4-49.3 49.8-76.5 11.2-15.7 24.9-35.9 33-48.8 9-14.2 10.9-16.7 13.4-17.7 2.2-.9 5.3-.4 7.3 1.2m-13.2 23.6c-7.5 12.1-17.5 26.7-38 55.7-5.1 7.1-10.5 15-12 17.5s-6.9 10.8-12 18.5c-20.5 31.1-34.1 60.6-38.6 83.8-7 35.8 5.7 72.8 34.2 100.3 16.5 15.8 33.7 24.2 58.6 28.4 10.3 1.8 13.2 1.9 23.7 1 20.6-1.8 37.2-7.4 53.7-18.1 22.8-14.9 39.3-37.7 46.5-64.4 2.3-8.6 2.7-11.9 2.7-23.5 0-14.5-1.4-23.4-6-37.4-7-20.9-32.6-65.8-67.7-118.1-15.1-22.6-26.8-40.3-33.2-50.2l-3.9-6.1zm-70.9 188c2.2 1.5 3.4 5.2 3.4 10.9.1 20.1 14.6 46.4 32.3 58.5 7 4.7 18.9 10.6 23.5 11.4 1.9.4 4 1.6 4.9 3 1.4 2.2 1.4 2.6-.2 5-1.5 2.4-2.2 2.6-6.4 2.2-3-.3-8.7-2.4-15.2-5.6-14.4-7.1-24.7-16.1-33.3-28.9-10.5-15.9-14.9-28.2-15.9-44.7-.4-7.3-.2-8.2 1.9-10.3 2.5-2.5 3.3-2.7 5-1.5" style="fill:#ebebeb"/></svg>