<svg xml:space="preserve" fill="#ebebeb" style="fill-rule:evenodd;clip-rule:evenodd;stroke-linejoin:round;stroke-miterlimit:2" viewBox="0 0 696 435" xmlns="http://www.w3.org/2000/svg"><path d="M4985 6863c-365-20-836-149-1201-329-446-220-887-536-1220-876-170-173-365-391-385-430-24-47-24-94-1-133 43-70 193-248 291-345 321-319 633-561 1009-783 411-244 864-411 1285-475 175-26 577-23 762 6 788 125 1570 558 2216 1227 121 126 322 353 337 382 19 35 14 94-11 135-57 94-419 472-602 629-351 301-832 602-1204 754-324 131-649 211-961 235-130 10-184 10-315 3m390-234c408-41 889-220 1372-511 330-198 724-532 1026-871 64-71 68-78 54-97-8-11-78-89-155-174-459-500-1011-886-1560-1090-526-196-996-242-1471-145-447 92-925 310-1369 626-317 226-615 490-815 726l-49 56 120 133c146 163 454 464 565 553 113 91 327 238 488 336 420 256 975 442 1409 472 73 6 261-1 385-14" style="fill:#fff;fill-rule:nonzero" transform="matrix(.1 0 0 -.1 -165 747)"/><path d="M5017 6279c-456-43-862-391-984-844-24-91-27-117-27-280-1-154 2-193 21-266 100-392 409-711 797-823 386-112 808-2 1097 286 222 221 339 502 339 815 0 417-242 808-617 997-186 93-413 135-626 115m306-248c344-88 599-334 684-660 20-75 25-121 25-211 1-294-126-538-378-729-314-238-750-235-1071 7-229 174-353 426-353 719 0 420 303 786 725 876 104 23 275 21 368-2" style="fill:#fff;fill-rule:nonzero" transform="matrix(.1 0 0 -.1 -165 747)"/><path d="M4997 5695c-135-37-283-158-346-282-109-217-71-474 93-639 98-98 258-163 402-164 67 0 193 33 256 67 106 58 217 211 253 349 73 282-103 581-394 668-65 19-196 20-264 1" style="fill:#fff;fill-rule:nonzero" transform="matrix(.1 0 0 -.1 -165 747)"/></svg>