<svg xml:space="preserve" fill="#ebebeb" style="fill-rule:evenodd;clip-rule:evenodd;stroke-linejoin:round;stroke-miterlimit:2" viewBox="0 0 381 399" xmlns="http://www.w3.org/2000/svg"><path d="M213.2 30c61.3 10.4 111.5 58.3 125.6 119.5 9.6 41.6 1.4 87.8-21.7 122.1-21.6 32.1-55.3 55.8-93.4 65.5-53.2 13.5-109.8-2.2-149.2-41.6-22-22.1-35.7-47.5-42.6-79.2-2.9-13.7-3.8-43-1.6-56.9 3-18.4 9.3-37.1 17.8-51.9C70.7 67.7 109 39.8 153.6 30.6c16-3.3 42.4-3.6 59.6-.6M169 38.6c-46.8 6-88.2 33.1-111 72.8-12.8 22.2-19 46-19 72.6 0 24.4 4.3 43 15 64.5 21.2 42.5 57.8 70.9 103.7 80.2 12.7 2.6 45.6 2.5 56.8-.1 29.4-6.8 52.4-18.9 72.7-38.4 32.4-31.1 47.4-69.9 44.7-115.7-3.4-57.3-43.4-109.4-98.5-128.6-14.4-5-26-6.9-44.4-7.3-9.1-.2-18.1-.2-20 0m-70 141c2.6 2.6 7.6 6.1 12 8.2 6.8 3.3 8.2 3.6 16 3.6 10.6 0 17.8-2.6 25-9.1 4-3.6 5.5-4.4 7.5-3.9 3 .8 4.2 4.7 2.7 8.2-3 6.4-18.9 14.5-31.6 16-11.8 1.4-29.4-5.5-38.4-15-5.4-5.7-6.3-8.4-3.6-11 2.6-2.7 5.7-1.8 10.4 3M211.5 257c1.5 1.6 1.7 2.6.9 4.8l-.9 2.7h-54l-.9-2.7c-.8-2.2-.6-3.2.9-4.8 1.7-1.9 3-2 27-2s25.3.1 27 2m2.9-78.4c5.4 6.1 14.3 11.9 20.7 13.4 10.3 2.5 25.6-2.4 35.8-11.4 7-6.2 12.1-6 12.1.5 0 2.1-1.4 4-5.6 7.7-10.7 9.6-25 14.7-38.9 14-10.7-.6-19.8-5.2-28.5-14.5-6.3-6.7-7.4-9.8-4.4-12.7 2.5-2.6 4.4-1.9 8.8 3" style="fill:#ebebeb"/></svg>