<svg xml:space="preserve" fill="#ebebeb" style="fill-rule:evenodd;clip-rule:evenodd;stroke-linejoin:round;stroke-miterlimit:2" viewBox="0 0 341 217" xmlns="http://www.w3.org/2000/svg"><path d="m1906 6364.43-26-20V5302l-131-4c-129-3-131-3-155-31l-24-28v-518l24-28c24-28 26-28 155-31l131-4v-737l27-21c33-26 79-21 106 11 15 19 17 53 17 385v364h113c132 0 172 16 182 72 3 18 5 142 3 275-4 305 7 287-173 291l-125 4v1034.43l-25 24c-30 30-64 32-99 4M2180 5150v-340h-460v340z" style="fill:#fff;fill-rule:nonzero" transform="matrix(0 -.1 -.1 0 683.548 300.333)"/></svg>