<?xml version="1.0" encoding="UTF-8" standalone="no"?><!DOCTYPE svg PUBLIC "-//W3C//DTD SVG 1.1//EN" "http://www.w3.org/Graphics/SVG/1.1/DTD/svg11.dtd"><svg width="100%" height="100%" viewBox="0 0 416 320" version="1.1" xmlns="http://www.w3.org/2000/svg" xmlns:xlink="http://www.w3.org/1999/xlink" xml:space="preserve" xmlns:serif="http://www.serif.com/" style="fill-rule:evenodd;clip-rule:evenodd;stroke-linejoin:round;stroke-miterlimit:2;"><path d="M247,50.1c17.4,2.8 24.5,14.9 19.1,32.5l-1.8,6.1l23.6,0.8c13,0.4 34.2,0.9 47.1,1c26.3,0.2 32.6,1.1 39.4,5.7c15.6,10.3 14.3,34.5 -2.2,41.6c-7.8,3.4 -19.5,4.2 -58.8,4.2l-37.1,0l2.9,5.6c3.6,7.3 3.7,13.2 0.2,20.1c-2.4,4.9 -7,9.9 -12.4,13.4c-2.3,1.5 -2.4,1.8 -1.1,5.8c2.8,9.6 0.6,21.3 -5.2,26.8c-1.7,1.7 -5.4,4.2 -8.1,5.5l-4.9,2.3l-0.3,7.8c-0.6,17.7 -8.7,25.2 -32.4,29.9c-9.5,1.8 -13,2 -36.5,1.5c-32,-0.7 -37.6,-1.6 -52.8,-9c-10.2,-4.9 -33.9,-18.8 -41.2,-24.1c-3,-2.3 -7.5,-2.9 -40.4,-5.6c-11.9,-1 -13,-1.9 -14.2,-12.1c-1,-9.1 -1,-103.4 0,-110.7c1.3,-9.3 2,-9.6 23.9,-10.4c10.3,-0.3 21.7,-0.7 25.3,-0.7c7.7,-0.1 8.3,-0.5 26.6,-15.4c17.1,-14 30,-20.7 43.7,-22.7c8.1,-1.2 90.2,-1.1 97.6,0.1Zm-102.7,9.4c-10.7,2.9 -18.6,7.8 -37.5,23.2c-7,5.7 -14.4,11.1 -16.5,12.1c-3.1,1.3 -8.3,1.7 -27.1,2.2c-21.6,0.5 -23.5,0.6 -24.8,2.4c-1.2,1.7 -1.4,10.2 -1.3,51.5c0.1,27.3 0.4,52.3 0.8,55.6l0.6,6l6,0.7c3.3,0.3 13,1.4 21.5,2.3c8.5,1 17.1,2.3 19,2.9c1.9,0.7 9.1,4.9 16,9.5c6.8,4.5 18.8,11.3 26.5,15.2c17.3,8.6 20.3,9.1 55,9.2c28.3,0 35.5,-1 46.4,-6.5c5.7,-2.9 6.7,-3.9 8.4,-8c1.3,-3.3 1.7,-5.8 1.3,-8.2c-1.2,-6.1 -2.3,-6.6 -16,-6.6c-13.9,0 -15.5,-0.7 -13.9,-5.7l1,-2.8l18.4,-0.5c17.8,-0.5 18.6,-0.6 23,-3.2c5.2,-3.1 7.9,-7.6 7.9,-13.4c-0,-5 -3.4,-11.8 -6.6,-13.2c-1.5,-0.7 -7.9,-1.2 -15.9,-1.2c-10.8,0 -13.7,-0.3 -14.9,-1.6c-1.9,-1.8 -1.9,-2 -0.6,-4.5c1,-1.8 2.3,-1.9 17.3,-1.9c8.9,0 18.2,-0.5 20.7,-1.1c16.6,-3.8 19.4,-23.2 4.5,-30.4c-2.5,-1.1 -6.8,-1.5 -17.7,-1.5c-7.8,0 -14.9,-0.4 -15.6,-0.9c-0.8,-0.5 -1.2,-2.2 -1,-4.2l0.3,-3.4l134,-1l5.4,-3c4.2,-2.3 5.9,-4 7.3,-7.2c1.8,-4.1 1.8,-4.2 -0.3,-9.7c-2.2,-6.1 -5.9,-9.6 -11.9,-11.4c-4.2,-1.3 -19.6,-1.9 -77.5,-3.3c-83.5,-2 -83,-2 -90.7,-5.6c-5.7,-2.7 -6.6,-3.4 -6.1,-5.2c0.5,-2.1 1,-2.1 31.2,-2.1c16.8,0 31.6,-0.3 32.9,-0.6c2.8,-0.8 5,-4.9 5.9,-10.9c0.5,-3.7 0.2,-5.1 -1.8,-7.9c-1.3,-1.9 -4,-4.4 -6,-5.5c-3.6,-2 -5,-2.1 -53,-2c-39.2,-0 -50.5,0.3 -54.6,1.4Z" style="fill:#ebebeb;"/></svg>