<svg xml:space="preserve" fill="#ebebeb" style="fill-rule:evenodd;clip-rule:evenodd;stroke-linejoin:round;stroke-miterlimit:2" viewBox="0 0 381 413" xmlns="http://www.w3.org/2000/svg"><path d="M171.7 24.9c12.2 7.4 18.8 12.4 29.2 22.5 27 26.2 39.7 53.7 36.2 78.7-.6 4.1-2.8 14.1-5 22.4-5.1 19-9.1 42.4-9.1 53.2 0 9.4.3 9.7 8.5 10.4l4 .4.8-6c2.5-19.1 6.8-31.7 14.9-43.9 10.4-15.6 27.4-30.8 32.7-29.1 3.6 1.1 4 3.4 2.9 15.1-.5 6-.8 15.2-.6 20.4.4 8.8.9 10.6 6.7 25.5 9.1 23.1 11.8 31.4 14.1 42.7 8.2 40-2.4 80.3-27.6 105.1-7.7 7.7-22.8 18.2-31.9 22.2-8.6 3.8-22 7.5-27 7.5-3.5 0-4.8-.5-6.4-2.6-2.8-3.5-2.6-7.4.5-13.6 4.9-9.6 4.2-20.8-1.9-33.5-2.3-4.7-7-10.3-21.1-25.1-10-10.4-19.6-21.1-21.4-23.7-5.9-8.9-9.9-22.9-8.9-31.3.2-2.3.1-4.2-.3-4.2-1.8 0-9.3 10-13.5 18.1-2.4 4.7-5.6 12.5-7.2 17.5-2.5 8.3-2.7 10.1-2.7 26.9s.2 18.6 2.7 26.8c3.4 11 4.5 13.1 11.8 23.4 6.5 9 7.4 12.8 3.8 16.4-1.9 1.9-3 2.1-8.8 1.7-10.8-.8-31.2-8.9-44.6-17.6-13.2-8.6-27.8-24.7-36.9-40.7-18-31.5-18.1-70.6-.4-106 11.1-22 27.1-41.8 64.1-79 9.3-9.4 18.9-19.7 21.4-23 10.1-13.3 14-26.4 13.1-44.6-.4-8.8-.9-10.4-5.2-20-7.5-16.2-7.4-17.9.1-17.9 4 0 6.2.9 13 4.9m2.8 34.4c0 18.4-1.2 24.5-7.1 36.2-5.4 10.6-12.9 19.8-34.4 41.9-10.7 11.1-23.5 24.6-28.4 30.1-20 22.5-33.1 44.5-38.2 64-3.1 12.2-4.3 32.4-2.5 43.1 5.4 30.7 26.5 59 54.6 73.1 7.1 3.6 23.7 10.3 25.4 10.3.7 0-.9-2.7-3.4-6-5.7-7.4-8-12.4-11.1-24.8-8.8-34.4 1.8-77 24.3-97.3 5.2-4.7 12.3-9.5 15.2-10.2 6.2-1.5 8.4 4.4 5.1 13.7-3.9 11.3-1.6 24.9 6 36.2 1.9 2.7 11.6 13.2 21.6 23.4 15.1 15.3 18.7 19.6 20.9 24.5 4.1 9.3 5.6 16.2 5.6 26.1.1 7.4-.3 9.9-2 13.3-1.2 2.2-1.7 4.1-1.1 4.1 2.3 0 13.6-4.3 20.4-7.7 33.4-16.8 51.6-45.7 53.3-84.4 1-21.2-1.9-35.2-12.9-63.3-9.2-23.9-10.1-27.6-10.2-42.2l-.1-12.2-2.8 2c-3.6 2.6-9.7 10.3-14.1 17.7-5.2 9-8.7 18.6-11.2 31.4-3.8 18.6-5.2 20.3-17 19.4-13.4-1-16.4-4.1-17.2-17.5-.7-13.2.9-23.1 10.5-62.1 3.2-13.2 3.5-15.6 3-24.6-.9-18.7-8.9-36.1-24.4-52.5-6.5-6.9-23.4-20.5-27.1-21.7-.4-.2-.7 7-.7 16" style="fill:#ebebeb"/></svg>