<svg xml:space="preserve" fill="#ebebeb" style="fill-rule:evenodd;clip-rule:evenodd;stroke-linejoin:round;stroke-miterlimit:2" viewBox="0 0 429 412" xmlns="http://www.w3.org/2000/svg"><path d="M343 25.6c3.1 1.3 9.2 7 24.5 23.3L388 70.5v144.3c0 155.6.3 148-5.1 153.2-1.3 1.2-4.2 3.1-6.4 4.1-3.8 1.8-10.3 1.9-166.8 1.9H46.9l-4.7-2.4c-5.6-2.9-8.6-5.9-10.7-10.8-1.3-3.3-1.5-21.5-1.5-162.7 0-109.9.3-159.8 1.1-161.8 1.5-4 5.7-8.2 10.4-10.4 3.8-1.8 10-1.9 150.7-1.9 133.5 0 147.1.1 150.8 1.6M45.4 32.8c-3.1.4-6.4 4.4-7.5 8.9-1.2 5.5-1.2 308.8.1 313.5.6 2 2.6 5 4.6 6.7 3.4 3 3.7 3.1 13.9 3.1H67v-79.8c0-75.2.1-79.9 1.9-83.7 2-4.5 6.9-9.1 11.8-11.2 2.7-1.1 25.6-1.3 128-1.3 85.5 0 126 .3 128.7 1.1 5 1.4 11.8 8.2 13.4 13.5.9 3.1 1.2 23.5 1.2 82.9v78.7l10.9-.4c9.2-.2 11.2-.6 13.1-2.3 5.2-4.6 5 1.8 5-148.1V74.7l-12.7-13.6c-7.1-7.5-16-16.9-19.8-20.8l-7.1-7.3H309v53c0 50.3-.1 53.3-1.9 56.8-2 4-5.8 7.8-10.6 10.8-2.8 1.8-6.7 1.9-98 1.9h-95l-4.8-2.4c-2.6-1.4-5.9-4-7.4-5.9-5.2-6.8-5.3-8.4-5.3-63.6V32.5H66.7c-10.5 0-20.2.1-21.3.3M94 136.7l2.3 3.3c1.2 1.8 3.5 4.3 5 5.4 2.8 2.1 3 2.1 96.7 2.1s93.9 0 96.7-2.1c1.5-1.1 3.8-3.6 5.1-5.4l2.2-3.3-.2-51.9-.3-51.8-103.8-.3L94 32.5zm178.8-87.5c.9.9 1.2 11.1 1.2 39.7 0 34.4-.2 38.6-1.7 40.3-1.4 1.6-3.4 1.8-18.3 1.8-11.6 0-17-.4-17.8-1.2-1.7-1.7-1.7-78.9 0-80.6.8-.8 6.3-1.2 18.3-1.2s17.5.4 18.3 1.2M82.2 199c-1.8 1.1-4.1 3.4-5.2 5.2-1.9 3.2-2 5.2-2 82V365h267.5c.3 0 .5-35.9.5-79.8 0-75.4-.1-79.8-1.8-82.2-1-1.4-3.4-3.3-5.3-4.2-3.2-1.7-11.3-1.8-126.9-1.8-121.5 0-123.6 0-126.8 2" style="fill:#ebebeb"/></svg>