<?xml version="1.0" encoding="UTF-8" standalone="no"?>
<!DOCTYPE svg PUBLIC "-//W3C//DTD SVG 1.1//EN" "http://www.w3.org/Graphics/SVG/1.1/DTD/svg11.dtd">
<svg width="100%" height="100%" viewBox="0 0 24 24" version="1.1" xmlns="http://www.w3.org/2000/svg" xmlns:xlink="http://www.w3.org/1999/xlink" xml:space="preserve" xmlns:serif="http://www.serif.com/" style="fill-rule:evenodd;clip-rule:evenodd;stroke-linecap:round;stroke-linejoin:round;stroke-miterlimit:1.5;">
    <rect id="Folder" x="0" y="0" width="24" height="24" style="fill:none;"/>
    <g id="Folder1" serif:id="Folder">
        <g transform="matrix(1.16091,0,-0.267379,1.00977,2.80017,-0.200286)">
            <path d="M19.517,10.307L19.517,19.357C19.517,19.985 19.073,20.495 18.527,20.495L4.653,20.495C4.107,20.495 3.663,19.985 3.663,19.357L3.663,10.307C3.663,9.679 4.107,9.169 4.653,9.169L18.527,9.169C19.073,9.169 19.517,9.679 19.517,10.307Z" style="fill:none;stroke:rgb(248,248,248);stroke-width:2.1px;"/>
        </g>
        <path d="M3.21,20.495C2.307,20.495 1.573,19.761 1.573,18.857L1.574,5.831C1.574,4.927 2.308,4.194 3.211,4.194L8.797,4.194L10.681,6.39L18.341,6.39C19.245,6.39 19.978,7.124 19.978,8.028L19.978,9.058" style="fill:none;stroke:rgb(248,248,248);stroke-width:2px;"/>
    </g>
</svg>
