<?xml version="1.0" encoding="UTF-8" standalone="no"?><!DOCTYPE svg PUBLIC "-//W3C//DTD SVG 1.1//EN" "http://www.w3.org/Graphics/SVG/1.1/DTD/svg11.dtd"><svg width="100%" height="100%" viewBox="0 0 437 355" version="1.1" xmlns="http://www.w3.org/2000/svg" xmlns:xlink="http://www.w3.org/1999/xlink" xml:space="preserve" xmlns:serif="http://www.serif.com/" style="fill-rule:evenodd;clip-rule:evenodd;stroke-linejoin:round;stroke-miterlimit:2;"><path d="M207.2,45.9c11.5,2.7 26.9,8.6 40.3,15.3c27.7,14 64.1,42.4 81.7,64l8.1,9.8l16.6,-0.6c18.8,-0.7 21.5,-0.2 23.5,4.8c1.3,3.2 2.4,25.9 2.9,62.6c0.1,12.6 -0.1,15.5 -1.3,16.3c-0.8,0.5 -5.8,0.8 -11,0.7l-9.5,-0.3l-0.2,3c-1.8,21.2 -7.3,33.7 -16,36.6c-5.9,1.9 -22,0.5 -34.6,-3.1c-11.9,-3.3 -33.5,-11.5 -35.4,-13.3c-0.6,-0.7 -1.5,-3.4 -1.8,-6l-0.7,-4.8l3.8,1.6c18.3,7.8 35.8,13.9 45.7,16c8,1.7 18,1.9 20.8,0.5c4.3,-2.3 8.8,-15.9 8.9,-26.8l-0,-5.2l-10.2,0c-17,0 -75.9,-4.7 -77.3,-6.2c-0.3,-0.2 -1.1,-2.6 -1.9,-5.1c-1.7,-5.6 -2.9,-5.3 13.2,-3.2c21.7,2.7 48.6,4.6 73.3,5.2l24.6,0.6l0.5,-2.7c0.8,-4.2 -1.2,-57.9 -2.3,-60.5c-1,-2.3 -1.2,-2.4 -9.7,-1.8c-14.7,1 -130.1,4.2 -130.7,3.6c-0.2,-0.3 -0.8,-2.7 -1.2,-5.4c-0.5,-4.1 -0.4,-4.7 1,-4.2c1.6,0.6 77.5,-1 89.4,-1.9c7.1,-0.6 7.2,-0.6 6.1,-2.7c-1.5,-2.9 -28.9,-29.5 -36.4,-35.4c-11,-8.6 -31.1,-21.3 -44.8,-28.3c-29.7,-15.1 -57.1,-20.3 -79.2,-15c-10.6,2.5 -17.7,5.8 -29.9,13.9c-17.9,11.9 -29.1,24.6 -43.2,49.3c-7.6,13.4 -11.1,30.3 -8.3,40.5c3.2,11.8 9.8,22.1 23,35.7c19.4,20.1 47.7,39.9 90.5,63.4c14.1,7.7 35.6,22 45.4,30.3l7,5.8l2.5,-2.9c7,-8.4 10.3,-29.3 7.6,-48.3c-1.6,-10.8 -14.8,-40.2 -30,-66.7c-9.6,-16.8 -24.2,-44.9 -29.3,-56.5c-7.6,-17.3 -10.1,-32.8 -6,-38.3c2.9,-3.8 5,-4.9 7.1,-3.6c2.6,1.7 2.7,4.3 0.2,6.9l-2.2,2.3l2.1,8.4c1.1,4.5 3,10.8 4.1,13.7c2.8,7.3 16.1,33.7 24.5,48.6c16.8,30 29.8,57.2 33.9,71.5c1.9,6.6 4.6,27.2 4.6,35.5c-0,20.2 -7,34.3 -20,40.3c-14.1,6.5 -48.6,2.5 -82.6,-9.6c-42.1,-15.1 -78.3,-46 -90.4,-77.3c-6.3,-16.4 -9.2,-36.9 -7.1,-50.4c0.6,-3.3 1.7,-10.7 2.5,-16.5c2.3,-15.2 4.8,-22 14.3,-39.2c9.9,-18 16.6,-27 27.5,-37.3c14.7,-13.8 33,-24.6 48.6,-28.5c10.5,-2.7 34.5,-2.2 47.4,0.9Zm-131.9,134.8c0.6,14.4 3.1,24.6 9.1,36.8c19.1,38.7 67,69.3 123.6,79c13,2.2 30,2.1 30,-0.2c-0,-2.6 -41.2,-29.2 -75.5,-48.8c-41.5,-23.8 -67.6,-46 -81.6,-69.7c-2.9,-4.8 -5.4,-8.8 -5.7,-8.8c-0.2,0 -0.2,5.3 0.1,11.7Z" style="fill:#ebebeb;"/></svg>