<svg xml:space="preserve" fill="#ebebeb" style="fill-rule:evenodd;clip-rule:evenodd;stroke-linejoin:round;stroke-miterlimit:2" viewBox="0 0 336 437" xmlns="http://www.w3.org/2000/svg"><path d="M274 42.1c6.5 2.9 12.7 9.4 15 15.7 2 5.2 2 8 2 150.1s0 144.9-2 152.7c-2.9 11.1-6.8 19-12.8 25.6-6.7 7.2-13.2 11.3-24 15.2l-8.7 3.1-85.2.3c-71 .2-85.7 0-88.5-1.1-8.7-3.7-17.4-15.3-19.8-26.4-.7-3.2-1-56.2-.8-160.3l.3-155.5 2.3-5c4.2-9.2 10.7-13.9 21-15.4 3.1-.5 48.7-.9 101.2-1 94-.1 95.6 0 100 2M73.9 49.9c-6.1 1.2-10.2 4.3-12.9 9.6l-2.5 5-.2 151c-.1 97.1.1 153.5.8 158 1.2 8.6 4.5 14.4 10.7 19l4.7 3.5 84.5-.3 84.5-.2 6.6-2.7c8.9-3.5 13.5-6.5 19.1-12.5 5.6-6.1 8.1-10.8 10.8-20.4 2-7.2 2-9.7 2-150.9 0-93.1-.4-144.8-1-147.1-1.2-4.3-6.6-9.9-11.2-11.5-2.5-.9-26.8-1.2-97.8-1.2-52 0-96.1.3-98.1.7M208.2 302c4.4 1.3 9.5 7 10.4 11.8.9 4.6-1.3 11.5-4.7 14.8-2 2-4.1 2.8-7.8 3.2-6.6.6-9-.1-12.9-3.9-7.7-7.5-5.7-20.5 4-25.2 3.9-1.9 6-2.1 11-.7m-13.4 59.2c1.8 1.8 1.4 5.6-.7 6.8-1.2.6-11.1 1-25.3 1-24.6 0-25.8-.2-25.8-4.5s1.2-4.5 26.5-4.5c17.4 0 24.4.3 25.3 1.2m56.5-289.8c4.4 1.6 7.4 4 9.2 7.7 2 3.7 2.6 127.7.7 133-1.5 4.2-6.5 9.3-10.7 10.9-2.2.9-24.7 1.4-80 1.8-75.8.5-77.1.5-81.6-1.5-2.6-1.2-5.9-3.7-7.5-5.9l-2.9-3.7-.3-63.1c-.4-67.1-.1-71.5 4.2-75.5 5.4-5.1 4.7-5 87.6-5 62.8 0 78.2.2 81.3 1.3m-146 8.3c-13.5.3-14.4.5-15.7 2.6-1.1 1.8-1.5 13.6-2.1 64.8l-.7 62.5 2.5 3 2.5 2.9 77.1-.1c83.3-.2 80.2 0 83.1-5.3.6-1.3 1-23.5 1-63.7l.1-61.8-2.6-2.5-2.5-2.6h-64.3c-35.3-.1-70.6.1-78.4.2m12.8 173.4c1.9 1.9 2 3 1.7 15.5l-.3 13.4h12.7c13.4 0 15.8.8 15.8 4.9 0 3.4-2.4 4-15.6 4.3l-12.9.3-1 24h-7l-1-24-11.9-.3c-6.7-.1-12.6-.7-13.3-1.4-1.9-1.6-1.6-5.6.6-6.8 1.1-.5 7.2-1 13.5-1H111v-14.3c0-14.3.5-16.7 3.7-16.7.7 0 2.2.9 3.4 2.1m129.9 8.1c7.7 5.3 9.4 12.2 5.1 20.6-4.1 8-13.5 10.1-23.2 5.2-8.6-4.4-9.9-15.8-2.7-22.7 4.7-4.4 6.7-5.2 12.4-5.3 3.7 0 6 .6 8.4 2.2" style="fill:#ebebeb"/></svg>