<svg xml:space="preserve" fill="#ebebeb" style="fill-rule:evenodd;clip-rule:evenodd;stroke-linejoin:round;stroke-miterlimit:2" viewBox="0 0 375 271" xmlns="http://www.w3.org/2000/svg"><path d="M2010 8205c-182-50-334-189-423-386-121-266-237-788-254-1144-10-203 30-342 129-450 66-73 153-115 251-122 249-19 454 142 667 524 52 95 72 121 100 135 32 16 76 18 470 18 408 0 437-1 466-19 21-13 50-55 93-132 96-174 147-246 246-345 136-137 267-194 415-181 171 15 294 117 352 292 21 63 23 88 23 250-1 197-21 363-76 615-96 442-213 704-372 830-175 140-420 170-607 75l-49-25H2436l-86 37c-76 32-96 37-185 40-68 2-118-2-155-12m302-168 73-37h1104l72 38c62 32 82 37 153 40 184 8 337-90 435-278 104-198 210-615 252-987 13-116 7-319-10-375-19-61-73-130-125-163-44-27-58-30-130-30-114 0-173 29-281 138-94 95-138 157-224 317-71 132-88 152-156 188l-50 27-458 3c-520 3-530 2-609-67-32-29-62-73-104-152-179-344-385-503-581-448-68 18-143 95-173 174-47 127-35 366 35 714 100 496 219 765 386 872 83 53 142 69 236 66 72-3 92-8 155-40" style="fill:#fff;fill-rule:nonzero" transform="matrix(.1 0 0 -.1 -106 849)"/><path d="M3694 7796c-70-31-87-120-35-178 26-29 35-33 81-33s55 4 81 33c53 59 35 148-37 178-41 17-50 17-90 0m-1608-48c-12-17-16-49-16-135v-113h-113c-98 0-116-3-130-18-26-29-22-77 9-101 23-18 41-21 130-21h104v-108c0-129 10-152 69-152 62 0 71 18 71 147v111l111 4c104 3 112 5 131 28 14 17 18 33 14 55-10 48-28 55-148 55h-108v118c0 103-3 121-18 135-28 25-87 22-106-5m1332-223c-32-18-58-63-58-100 0-121 169-151 216-38 39 92-71 187-158 138m543 3c-61-33-82-115-44-167 11-14 38-32 59-40 36-12 44-12 77 4 102 48 82 198-28 211-23 3-50-1-64-8m-279-271c-74-41-72-161 4-195 48-23 93-15 130 22 28 28 34 42 34 76s-6 48-34 76c-27 27-42 34-72 34-22-1-49-6-62-13" style="fill:#fff;fill-rule:nonzero" transform="matrix(.1 0 0 -.1 -106 849)"/></svg>