<?xml version="1.0" encoding="UTF-8" standalone="no"?>
<!DOCTYPE svg PUBLIC "-//W3C//DTD SVG 1.1//EN" "http://www.w3.org/Graphics/SVG/1.1/DTD/svg11.dtd">
<svg width="100%" height="100%" viewBox="0 0 24 24" version="1.1" xmlns="http://www.w3.org/2000/svg" xmlns:xlink="http://www.w3.org/1999/xlink" xml:space="preserve" xmlns:serif="http://www.serif.com/" style="fill-rule:evenodd;clip-rule:evenodd;stroke-linejoin:round;stroke-miterlimit:2;">
    <rect id="Artboard1" x="0" y="0" width="24" height="24" style="fill:none;"/>
    <clipPath id="_clip1">
        <rect id="Artboard11" serif:id="Artboard1" x="0" y="0" width="24" height="24"/>
    </clipPath>
    <g clip-path="url(#_clip1)">
        <g transform="matrix(1.19103,0,0,1.19103,-1.55378,-4.43205)">
            <path d="M13.63,4.101L13.584,5.646C14.627,5.924 15.608,6.397 16.476,7.039L17.655,6.039C18.844,6.986 19.803,8.189 20.461,9.558L19.224,10.485C19.657,11.474 19.9,12.536 19.938,13.614L21.455,13.913C21.457,15.433 21.114,16.933 20.454,18.301L18.957,17.912C18.455,18.867 17.776,19.719 16.956,20.422L17.669,21.794C16.481,22.742 15.095,23.41 13.613,23.747L12.985,22.334C11.924,22.536 10.835,22.536 9.775,22.334L9.146,23.747C7.665,23.41 6.278,22.742 5.091,21.794L5.803,20.422C4.984,19.719 4.305,18.867 3.802,17.912L2.306,18.301C1.646,16.933 1.303,15.433 1.305,13.913L2.821,13.614C2.86,12.536 3.102,11.474 3.536,10.485L2.299,9.558C2.957,8.189 3.916,6.986 5.105,6.039L6.284,7.039C7.152,6.397 8.133,5.924 9.176,5.646L9.129,4.101C10.611,3.762 12.149,3.762 13.63,4.101ZM11.38,10.866C13.066,10.866 14.436,12.235 14.436,13.922C14.436,15.608 13.066,16.978 11.38,16.978C9.693,16.978 8.324,15.608 8.324,13.922C8.324,12.235 9.693,10.866 11.38,10.866Z" style="fill:rgb(248,248,248);"/>
        </g>
    </g>
</svg>
