<?xml version="1.0" encoding="UTF-8" standalone="no"?><!DOCTYPE svg PUBLIC "-//W3C//DTD SVG 1.1//EN" "http://www.w3.org/Graphics/SVG/1.1/DTD/svg11.dtd"><svg width="100%" height="100%" viewBox="0 0 368 392" version="1.1" xmlns="http://www.w3.org/2000/svg" xmlns:xlink="http://www.w3.org/1999/xlink" xml:space="preserve" xmlns:serif="http://www.serif.com/" style="fill-rule:evenodd;clip-rule:evenodd;stroke-linejoin:round;stroke-miterlimit:2;"><path d="M131.6,31.9c18.9,9.4 34.6,26.5 39.5,42.9c0.9,3.3 1.6,4.1 2.8,3.6c2.9,-1.2 16.5,-1.6 20.2,-0.7l3.5,1l2.3,-6.6c6,-17.2 24.2,-35.5 42,-42.2c7.9,-3 19.4,-3.6 25.9,-1.5c6.4,2.2 13,7.9 16.6,14.6c3.4,6.3 4.5,15.7 2.7,24.1c-2.7,12.6 -13,28.5 -23.3,36c-3.6,2.5 -3.7,2.7 -1.5,3.3c1.2,0.3 18.4,0.6 38.3,0.6c26.6,0 36.3,0.3 37.2,1.2c0.9,0.9 1.2,9.2 1.2,31.2c0,29.4 0,30 -2.2,32.3c-1.8,1.9 -3.2,2.3 -8,2.3l-5.8,0l0,80.2c0,77.8 -0.1,80.4 -2,83.5c-4.1,6.8 6.7,6.3 -135.8,6.4c-117.2,0.1 -129.5,-0.1 -131.7,-1.5c-5.8,-3.8 -5.5,0.2 -5.6,-80.2c0,-40.6 -0.3,-77.2 -0.6,-81.2l-0.5,-7.2l-6.9,0c-10.2,0 -9.8,1.4 -10,-34.2c-0.1,-22.5 0.1,-30.1 1.1,-31.3c1,-1.3 7.2,-1.5 42.4,-1.7c23.4,-0.2 40.2,-0.7 39.1,-1.1c-1.1,-0.5 -3.1,-1.4 -4.5,-2c-4.6,-2.1 -17.4,-15.9 -20.2,-21.9c-5.8,-11.8 -7.3,-24.5 -4.2,-34.8c1.2,-4.1 2.9,-6.7 7.3,-11.1c7.3,-7.3 12.2,-9 24,-8.5c7.4,0.3 9.3,0.9 16.7,4.5Zm-93.2,84c-0.2,0.2 -0.4,11.4 -0.4,24.8l0,24.3l55.8,0c30.6,0 56.2,0.4 56.8,0.8c0.6,0.4 1.4,1.4 1.7,2.2c0.3,0.8 0.6,-10.7 0.6,-25.5l0.1,-27l-57.1,0c-31.4,0 -57.3,0.2 -57.5,0.4Zm178.6,219.1l18.3,0.1c64.2,0.4 75.4,0.3 77,-0.3c1.6,-0.7 1.7,-5.5 1.7,-80.8l0,-80l-97,0l0,161Zm-38.2,-249.1c-2.7,0.7 -3.8,3.7 -3.8,10.2c0,6.1 0.3,7 2.6,8.8c2,1.6 4.1,2.1 8.4,2.1c8,0 10,-2.3 10,-11.1c0,-3.5 -0.5,-7.1 -1,-7.9c-0.9,-1.4 -13.1,-3 -16.2,-2.1Zm-76.8,-47.7c-12.9,6.9 -15.1,20.8 -6.3,38.8c4.7,9.6 12,16.8 23.8,23.8l9,5.3l19,0.2l19,0.3l-0.6,-10.5c-0.5,-10 -2.9,-20.5 -5.9,-26.2c-5,-9.4 -21.5,-24.6 -33,-30.4c-8,-4.1 -18.7,-4.6 -25,-1.3Zm130.8,77.5l-15.8,0.4l0,48.9l115,0l0,-50l-41.7,0.2c-23,0.1 -48.9,0.4 -57.5,0.5Zm-69.8,219l12.2,0.6c6.6,0.4 16.8,0.7 22.5,0.7l10.3,0l0,-220.5l-45,0l0,219.2Zm82.3,-296.8c-6.8,2.5 -13.1,6.9 -22.3,15.7c-13.1,12.5 -18.1,24 -18.8,42.9l-0.3,10l19.7,-0.4l19.7,-0.3l7.1,-4.6c18.6,-12 28.6,-27.4 28.6,-43.5c-0.1,-13.9 -8.1,-21.7 -22.2,-21.7c-3.5,0.1 -8.6,0.9 -11.5,1.9Zm-141.6,135.8l-47.7,0.3l0.2,80.3l0.3,80.2l47,0.8c25.8,0.4 47.5,0.5 48.2,0.2c1,-0.3 1.3,-16.9 1.3,-81.5c0,-44.5 -0.3,-80.9 -0.7,-80.8c-0.5,0.2 -22.3,0.4 -48.6,0.5Z" style="fill:#ebebeb;"/></svg>