<svg xml:space="preserve" fill="#ebebeb" style="fill-rule:evenodd;clip-rule:evenodd;stroke-linejoin:round;stroke-miterlimit:2" viewBox="0 0 467 336" xmlns="http://www.w3.org/2000/svg"><path d="M145.6 81.1c15.1 2.6 30.8 10 41.3 19.5 4.7 4.2 14.1 16.8 15.3 20.6.3.9 2.5.3 7.4-1.9 8.9-4.1 14.1-5.2 23.9-5.3 9.4 0 18.8 2 25.7 5.5 2.8 1.4 5.4 2.3 5.8 2 .5-.3 2.2-2.9 3.9-5.8 9.3-16.1 28.2-28.8 49.3-33.1 9.9-2.1 27.7-2.1 37.5 0 24.5 5 42.6 18.1 53.3 38.3 1.9 3.6 4.1 6.7 4.8 6.7.6.1 5 .2 9.7.3 8.2.1 8.6.2 9.5 2.7 1.9 4.8 0 6.3-8.8 6.6l-7.7.3.2 3c.1 1.6.6 5.9 1 9.5 1.2 10.2-.2 25.6-3.2 34.7-4.3 12.7-8.8 19.8-19.4 30.3-10.9 10.9-19.7 16.1-34.6 20.6-7.9 2.4-10.7 2.7-23 2.7-17.3.1-24.2-1.4-38.5-8.5-9-4.4-11.8-6.5-19-13.8-19.9-19.8-28.1-47.2-22-72.8 2.9-11.9 3-11.6-4.7-15.4-6-2.9-7.8-3.3-16.9-3.6-8.4-.4-11.6 0-17.3 1.7-3.9 1.2-8.2 3.1-9.6 4.4-2.5 2.2-2.5 2.2-1 7.7 3 11.3 3.8 20.2 2.5 30.1-4.1 32.3-23.3 55.9-54 66.1-9.1 3.1-10.2 3.2-25.5 3.3-13.7 0-17.1-.3-23.8-2.3-16.1-4.6-32.3-14.9-40.5-25.7-15.9-21-21.5-46-15.5-70.3.5-2 .2-2.2-4.1-2.2-3.3 0-5.2-.6-6.6-2-2.4-2.4-2.4-2.9-.4-5.8 1.3-1.9 2.4-2.2 8.4-2.2h7l2.6-5.3c10.6-21.1 29.6-35.2 54.4-40.2 8-1.6 24.6-1.9 32.6-.4m177.9 10.3c-32.9 6.4-52.8 27.9-57.6 61.8-1 6.8-.9 9.8.3 16.8 5.3 29.8 26 51.4 55 57.4 24 4.9 50.2-2.2 66.5-18.1 12.2-11.9 18.5-25.2 20.5-43.7 1-8.9.9-11.5-.6-19.2-4.1-21.4-17.2-38.9-35.6-47.7-5.2-2.5-12.4-5.2-16-6.1-9.2-2.3-24-2.8-32.5-1.2m-210.1 0C80.8 98.8 59 126.1 59 159.5c0 37 27.8 65.5 67.2 69.1 21.1 1.8 47-8.9 60-25 10.4-12.9 15.2-27 15.2-44.6 0-13.9-1.7-21-8-33-8.3-16-20.2-26.1-38.2-32.3-7.7-2.7-10.3-3-22.2-3.3-9-.2-15.5.1-19.6 1" style="fill:#ebebeb"/></svg>