<svg xml:space="preserve" fill="#ebebeb" style="fill-rule:evenodd;clip-rule:evenodd;stroke-linejoin:round;stroke-miterlimit:2" viewBox="0 0 400 392" xmlns="http://www.w3.org/2000/svg"><path d="M332.2 93.2c.9.7 3.3 4.6 5.3 8.5 5.6 11.2 4.4 16.7-3.1 14.9-1.9-.5-3.3-2.5-5.9-8.3-3.9-8.4-4.5-13.6-1.7-15.2 2.3-1.4 3.5-1.3 5.4.1m-201 54.5c2.4 2.2 2.3 6.8-.3 9.4-1.9 1.9-2.9 2-21 1.7-17.5-.3-19.2-.5-20.5-2.2-2-2.8-1.7-5.9.6-8.4 2-2.1 2.8-2.2 20.7-2.2 15.9 0 18.9.2 20.5 1.7m190.9-75.1c2.4 2.1 2.4 4.6.2 7.3-1.7 2-2.8 2.1-27.7 2.3l-26 .3-1.5-2.7c-1.3-2.2-1.3-3-.2-5.2.8-1.4 2.3-2.7 3.5-2.9s12.9-.5 26-.6c21.2-.1 24.1 0 25.7 1.5m26.1 178.1c2.5 2.2 2.4 7.9-.1 9.3-1.2.6-11.6 1-26.7 1-21.6 0-25-.2-26.6-1.7-2.2-2-2.3-6.1-.1-8.5 1.5-1.7 3.7-1.8 26.6-1.8 21.9 0 25.3.2 26.9 1.7M379 123.3c2 1 2.5 2 2.5 5.2 0 3.4-.5 4.2-3.3 5.8-3.1 1.8-4.2 1.9-15.5 1-6.7-.6-12.4-.9-12.6-.7s.6 3.8 1.7 8.1c2.7 10.4 4.2 20.6 4.2 29.5 0 10.8-3 32-4.8 34.1-1.4 1.6-4 1.7-33.6 1.5l-32.1-.3-.3-5.2c-.2-4.2 0-5.4 1.5-6.1 1-.5 13.9-1 28.8-1.1 14.8-.1 27.1-.3 27.2-.5.2-.1.7-2.6 1.3-5.6 1.5-7.9 1.2-29.4-.5-37.5-.8-3.8-1.5-9.2-1.5-11.9v-4.9l-21 .6-21 .5-3-2.5c-3.6-3-3.8-5.6-.5-8.8l2.4-2.5h38.8c29.3 0 39.4.3 41.3 1.3M217.8 17.1c22.5 2.4 40.7 8.1 58.2 17.9 13.9 7.9 20 13.3 20 17.8 0 2.2-.7 3.5-2.1 4.3-1.9 1-3 .5-7.9-3-9.2-6.4-26.7-15.6-36.3-19-29.2-10.3-63.7-10.3-97.2 0-16.6 5.1-38.4 17.9-49 28.8L99.6 68h37.6c41.4 0 40.8-.1 40.8 6 0 6 0 6-47.2 6H88.1l-3.8 4.1C74 95.2 63.1 115.4 58.4 132c-1.4 5.2-3.3 10.5-4 11.7-1.9 3-5.9 3-7.9 0-1.4-2.1-1.3-3.1.5-10.1 7.5-29.4 25-56.7 50.3-78.1 20.5-17.6 34.8-25.6 56.5-31.9 23.5-6.8 43.1-8.8 64-6.5M52.2 168.7c1.1 1.3 1.7 5.1 2.1 13.3.8 14.9 3.1 28 7.3 40.8 3.7 11.3 10.8 27.2 12.7 28.4.7.4 13.7.8 29 .8 26.4 0 27.8.1 29.7 2 2.7 2.7 2.6 6.6-.2 8.4-1.9 1.2-9.5 1.5-43.7 1.7l-41.4.3-1.8-2.3c-4.2-5.1-.8-8.9 8.9-10 4.2-.5 5.7-1 5.5-2.1-.1-.8-1.9-5.8-4.1-11-6.8-16.4-11.6-38.4-12.9-57.8-.5-9-.4-10.4 1.2-12.2 2.2-2.5 5.7-2.6 7.7-.3m264.1 107.2c1 .7 1.7 2.7 1.7 4.4 0 2.6-1.6 4.6-9.3 12.2-20 19.5-46.5 33.4-75.7 39.6-15 3.2-43.3 3.2-60.3.1-28.9-5.4-56.2-18.1-77.2-35.8-6.9-5.9-11.5-11.5-11.5-14 0-2 2.9-4.4 5.5-4.4 1.5 0 4.7 2.3 9.1 6.6 11.9 11.3 31.3 23.2 48.9 29.7 14.8 5.5 27.9 8.1 51 10.2 15.4 1.4 42-3.2 56.6-9.7 18.7-8.3 42.9-23.5 42.2-26.3-.2-.6-16.6-1.2-42-1.5l-41.7-.5-1.5-2.6c-1.2-2.2-1.2-2.9 0-5.5l1.4-2.9 33.5-.5c55.7-.8 67.5-.7 69.3.9" style="fill:#ebebeb"/></svg>