<svg xml:space="preserve" fill="#ebebeb" style="fill-rule:evenodd;clip-rule:evenodd;stroke-linejoin:round;stroke-miterlimit:2" viewBox="0 0 420 447" xmlns="http://www.w3.org/2000/svg"><path d="M396 240.8v32.7c0 34.7-.3 37-4.9 39.5-1.3.6-14.3 1-35.1 1h-33.1l-2.4-2.6-2.5-2.7v-34.2c0-35.8 0-35.9 4.5-38.3 1.3-.8 13-1.1 34.8-1.2h32.9zm-70.5 3.4c-.3.7-.4 14.8-.3 31.3l.3 30h62v-62l-30.8-.3c-24.2-.2-30.9 0-31.2 1M110 336.8v67.6l-5.4 5.6H70.3c-32.8 0-34.4-.1-36.3-2-1.1-1.1-2.2-3-2.5-4.2-.3-1.3-.5-17.3-.3-35.6l.3-33.4 2.4-1.9c2.2-1.8 4.3-1.9 36.3-1.9h34zM39 402h61l-.2-31.3-.3-31.2-30.2-.3L39 339zM298.9 46.6c2 2.6 2.1 3.8 2.1 37v34.3l-4.8 5.6h-32.6c-17.9 0-33.9-.3-35.6-.8-5.6-1.4-5.9-3.1-6-38.4-.1-32.5.3-36.5 3.7-39.1 1.3-.9 10.2-1.2 36.4-1.2h34.8zm-68.2 6.1c-.4.3-.7 14.3-.7 31V114h63l-.2-30.8-.3-30.7-30.6-.3c-16.8-.1-30.8.1-31.2.5m160.9-7.9c.5.4 1.8 1.8 2.7 3.2 1.5 2.2 1.7 6 1.7 34.1 0 17.4-.3 33.1-.6 34.8-1.3 6.4-1.9 6.5-39.1 6.5l-33.5.1-2.4-2.8-2.5-2.9.3-34.8c.3-32.6.4-34.9 2.2-36.9 1.9-2.1 2.6-2.1 36-2.1 18.8 0 34.6.4 35.2.8m-66.1 8.4c-.3.7-.4 14.6-.3 30.8l.3 29.5h62v-61l-30.8-.3c-24.2-.2-30.9 0-31.2 1m37.6 20.7c4.8 4.8 3.2 13.3-3.1 16.6-5.6 2.9-10.5 1.2-13.5-4.5-2.1-4-1.9-7.3.6-10.4 4.3-5.5 11.5-6.2 16-1.7m-256 163 2.4 1.9.6 70-3.1 2.6-3.2 2.6H37.1l-5.6-4.8-.3-33.4c-.2-35.7-.1-37 4.8-39.5 1.9-.9 11.1-1.3 35.6-1.3 31.2 0 33.3.1 35.5 1.9m-67.4 6.8c-.4.3-.7 14.5-.7 31.5V306l30.5-.2 30.6-.3v-30.3c0-16.7-.3-30.7-.6-31.2-.7-1.1-58.8-1.4-59.8-.3m68.2-101.3c2.2 2.3 2.2 2.4 1.9 36.9s-.3 34.7-2.6 36.9c-2.2 2.3-2.4 2.3-35.2 2.6-36 .3-38 0-40-5.4-1.3-3.2-1.3-64.5-.1-67.7 2.3-5.9 1.1-5.7 39-5.7h34.8zm-68.5 5.5c-.2.2-.4 14.3-.4 31.3V210h61l.1-25.8c0-14.1.2-27.8.5-30.4.2-2.5 0-4.9-.5-5.3-1.1-.6-60-1.2-60.7-.6m356.6-1.7v32.3c0 21.2-.4 33.2-1.1 34.8-2.5 5.5-3.9 5.7-39.1 5.7-30.3 0-32.5-.2-34.8-2l-2.5-1.9-.3-35.1-.3-35 5-5h67.9zm-70.1 2.2c-.5.6-.9 13.5-.9 31.3V210h63v-61.9l-30.6-.3c-18.3-.2-30.9.1-31.5.6M107.5 46.5l2.5 2.4v33.5c0 18.8-.4 34.6-1 36-1.8 5-3 5.1-39.3 5-33.5 0-33.8 0-36-2.2s-2.2-2.7-2.5-35.5c-.2-18.2 0-34.2.3-35.5.3-1.2 1.4-3.1 2.5-4.2 1.9-1.9 3.5-2 36.5-2h34.6zm-67.8 6.2c-.4.3-.7 14.3-.7 31V114h61V52H70.2c-16.4 0-30.2.3-30.5.7M393.1 334l3 2.9-.3 34.1-.3 34.2-5.6 4.8h-67.8l-2-2.6c-2-2.6-2.1-3.8-2.1-36 0-34.8.3-37.2 4.4-39.2 1.3-.7 14.5-1.1 34.9-1.1l32.9-.1zm-66.9 5.8c-.9.7-1.2 7.6-1 31.3l.3 30.4 31.3.3 31.2.2v-63h-30.2c-16.7 0-30.9.4-31.6.8m-27.1-101.9c1.8 2.2 1.9 4.3 1.9 36.6v34.3l-6.2 5.2h-67l-5.8-5.8v-33.4c0-35.9.1-36.7 5.4-38.8 1.1-.5 17.3-.8 35.9-.7l33.9.2zm-68 6.5c-.8.9-1.1 9.8-.9 31.2l.3 29.9 31.3.3 31.2.2-.2-31.2-.3-31.3-30.1-.3c-24.7-.2-30.3 0-31.3 1.2m-29.6-103.8c4.1 1.6 4.5 4.7 4.5 39.4v33.2l-5.8 5.8h-67.4l-5.8-5.8v-34c0-32.8.1-34 2.1-36.6l2-2.6h34.4c18.9 0 35.1.3 36 .6m-37.2 7.2-30.3.2v62h62v-30.9c0-17.1-.3-31.1-.7-31.3-.5-.2-14.4-.2-31 0m136.7 189v68.3l-2.5 2.4-2.4 2.5h-34.4c-32.5 0-34.6-.1-36.8-1.9l-2.4-1.9-.3-34.4c-.2-32.9-.2-34.4 1.8-37.6l2-3.2h69.2zm-70.5 3.4c-.3.7-.4 14.8-.3 31.3l.3 30h62v-62l-30.8-.3c-24.2-.2-30.9 0-31.2 1m-25-291 .3 33.1c.3 34.9 0 37.6-4.2 39.9-1.4.8-12.1 1.3-34.5 1.5-34.4.2-36.6 0-39.1-4.6-.6-1.3-1-14.6-1-36.1V48.9l2.5-2.4 2.4-2.5h68.8zm-70.3 4c-.9.9-1.2 9-1.2 31V114h62l-.2-30.8-.3-30.7-29.5-.3c-22.2-.2-29.9.1-30.8 1M200.4 236c5.3 2 5.6 4 5.6 39.4v32.4l-5.2 6.2h-69.7l-2-2.6c-2-2.6-2.1-3.8-2.1-36.6 0-22.1.4-34.6 1.1-35.9.6-1.1 2-2.4 3.2-2.9 3-1.2 65.9-1.2 69.1 0m-65.7 7.7c-.4.3-.7 14.5-.7 31.5V306h62l-.2-31.3-.3-31.2-30.1-.3c-16.5-.1-30.3.1-30.7.5M298.8 142c2.2 2.1 2.2 2.4 2.2 36.5v34.4l-4.8 5.6-33.1.3c-36.3.3-37.6.1-40-5.6-.8-2-1.1-12.1-.9-35.6l.3-32.8 5.6-4.8h34.3c33.1 0 34.3.1 36.4 2m-38 5.8-30.8.2v62l31.3-.2 31.2-.3.3-30.4c.1-16.8-.1-30.7-.5-31-.5-.3-14.6-.5-31.5-.3m-55.3 188 .3 34.2.3 34.1-3 2.9-2.9 3h-69.1l-2-2.6c-2-2.6-2.1-3.8-2.1-37v-34.3l2.7-2.6 2.8-2.5h67.4zm-70.4 4.6c-.8.9-1.1 10-.9 31.2l.3 29.9 30.8.3 30.7.2v-63h-29.9c-24.1 0-30.1.3-31 1.4" style="fill:#ebebeb"/></svg>