<svg xml:space="preserve" fill="#ebebeb" style="fill-rule:evenodd;clip-rule:evenodd;stroke-linejoin:round;stroke-miterlimit:2" viewBox="0 0 381 360" xmlns="http://www.w3.org/2000/svg"><path d="M272.6 62.5c8.1 1.9 12.8 4.8 14.9 9.2 4 8.4-.7 18.5-15.5 33.3-11.5 11.6-17.8 16.4-57 44.5-36.5 26.1-47 34.2-64.9 50.1-29 25.7-40.5 46.5-25.9 46.4 5.9-.1 27.2-8.7 51.5-20.8 36.9-18.5 45.9-21.8 63.3-22.8 11-.6 14.9.7 18.7 6.5 4.7 7 3.2 13.4-9.1 40.5-9.6 20.9-9.7 23.2-2.1 25.8 7.2 2.5 15.3 2.2 31.6-1.1 25-5.1 33.3-5 45.5.4 8.4 3.7 18.4 14.2 18.4 19.3 0 1.9-3.1 4.2-5.6 4.2-1.7 0-3.1-1.1-4.8-3.8-3.3-5.1-6.3-7.7-12.1-10.4-7.4-3.4-22.9-3.1-38.5.7-14.5 3.5-26.5 4.3-35 2.1-11.9-3.1-15.4-7.6-14.8-19 .3-6.6 1-8.5 9.2-25.3 11.9-24.6 12.3-28.7 2.7-30-10.3-1.4-29.5 5.4-64.1 22.7-14 7-30 14.5-35.5 16.5-22 8.3-35.5 4.6-35.5-9.6 0-10.6 4.8-19.3 19.3-35.2 16-17.6 40.6-37.5 88.2-71.5 14.3-10.2 31-22.5 37.2-27.4 16.3-12.9 26.1-24.4 25.1-29.6-1.1-6.3-21.8-7.6-43.3-2.7-14.9 3.3-40 11.6-56.4 18.5-50.5 21.1-90.8 47.3-126.8 82.2C36.8 190.3 34 192.1 31 188.5c-2.4-3 .1-6.9 11.8-18.5 21.1-20.8 40.4-35.9 67.7-53 40.6-25.5 98.5-48.6 136-54.4 11.9-1.9 18.7-1.9 26.1-.1" style="fill:#ebebeb"/></svg>