<?xml version="1.0" encoding="UTF-8" standalone="no"?>
<!DOCTYPE svg PUBLIC "-//W3C//DTD SVG 1.1//EN" "http://www.w3.org/Graphics/SVG/1.1/DTD/svg11.dtd">
<svg width="100%" height="100%" viewBox="0 0 24 24" version="1.1" xmlns="http://www.w3.org/2000/svg" xmlns:xlink="http://www.w3.org/1999/xlink" xml:space="preserve" xmlns:serif="http://www.serif.com/" style="fill-rule:evenodd;clip-rule:evenodd;stroke-linejoin:round;stroke-miterlimit:2;">
    <g transform="matrix(1,0,0,1,-26.8054,0)">
        <g id="Headphones" transform="matrix(1,0,0,1,26.8054,0)">
            <rect x="0" y="0" width="24" height="24" style="fill:none;"/>
            <g transform="matrix(0.010491,-6.96719e-20,6.96719e-20,-0.0110599,-41.5563,65.6959)">
                <path d="M4923,5855C4480,5775 4150,5412 4101,4948C4095,4895 4093,4826 4096,4793L4102,4735L4046,4678C3965,4594 3958,4564 3962,4293C3965,4085 3966,4073 3990,4025C4056,3891 4195,3816 4401,3803C4474,3798 4493,3800 4535,3819C4598,3847 4618,3865 4641,3915C4658,3951 4660,3987 4660,4322C4660,4557 4656,4699 4649,4717C4634,4757 4592,4799 4545,4821C4495,4844 4378,4846 4300,4825C4270,4817 4244,4810 4243,4810C4233,4810 4243,4954 4256,5018C4310,5284 4485,5518 4715,5633C4827,5689 4926,5712 5070,5717C5224,5723 5301,5710 5426,5660C5705,5548 5909,5288 5959,4980C5972,4904 5973,4810 5963,4810C5958,4810 5930,4817 5900,4825C5822,4846 5715,4844 5665,4821C5618,4799 5576,4757 5561,4717C5554,4699 5550,4557 5550,4323C5550,3974 5551,3954 5571,3914C5622,3807 5742,3776 5929,3820C6079,3856 6167,3919 6222,4029C6244,4072 6245,4088 6248,4301C6252,4571 6244,4606 6160,4684L6110,4731L6110,4839C6110,5176 5970,5464 5708,5666C5495,5831 5192,5904 4923,5855M4488,4684L4510,4669L4510,4320C4510,3918 4518,3947 4408,3949C4338,3950 4282,3963 4220,3995C4121,4045 4110,4077 4110,4320C4110,4540 4116,4562 4182,4610C4236,4650 4279,4668 4355,4685C4436,4703 4461,4703 4488,4684M5898,4673C5966,4652 6047,4603 6074,4567C6093,4541 6095,4523 6098,4337C6102,4109 6094,4069 6035,4024C5959,3967 5795,3929 5733,3955L5700,3969L5700,4669L5723,4685C5749,4704 5812,4700 5898,4673" style="fill:white;fill-rule:nonzero;"/>
            </g>
        </g>
    </g>
</svg>
