<svg xml:space="preserve" fill="#ebebeb" style="fill-rule:evenodd;clip-rule:evenodd;stroke-linejoin:round;stroke-miterlimit:2" viewBox="0 0 381 340" xmlns="http://www.w3.org/2000/svg"><path d="M2213 4445c-153-42-302-131-390-233-58-68-126-176-156-248-30-70-67-241-67-307 0-119 61-348 122-457 40-72 1268-1306 1308-1315 14-3 36-2 47 2 25 10 972 941 1153 1135 143 153 186 224 237 393 23 80 27 107 27 240 1 176-12 241-79 380-73 152-200 272-378 355-113 53-190 70-322 70-168 0-263-30-421-135-45-30-116-87-158-126l-76-71-52 53c-124 125-284 221-432 259-95 24-282 27-363 5m367-185c124-41 198-94 341-243l97-100 46 5c44 5 53 12 154 115 111 114 162 154 260 203 146 72 356 66 515-17 104-54 240-192 289-293 38-77 68-198 68-270 0-63-29-188-61-263-63-150-93-183-677-762-305-302-557-549-559-548-3 1-261 256-573 567-623 620-621 618-680 793-82 246-30 463 154 649 141 141 278 198 461 190 65-3 122-12 165-26" style="fill:#fff;fill-rule:nonzero" transform="matrix(.1 0 0 -.1 -111 487)"/></svg>