<svg xml:space="preserve" fill="#ebebeb" style="fill-rule:evenodd;clip-rule:evenodd;stroke-linejoin:round;stroke-miterlimit:2" viewBox="0 0 704 643" xmlns="http://www.w3.org/2000/svg"><path d="M5064 7926c-17-8-249-225-514-482-657-638-1144-1108-1655-1599-577-554-585-563-592-611-4-33-1-45 22-72 14-17 44-37 65-43 74-22 93-11 263 152l157 151V3988c0-1368 1-1435 18-1468 12-22 35-43 63-57l44-22h2185c2100-1 2187 0 2225 18 22 10 49 28 60 41 20 22 20 38 23 1467 1 843 6 1443 11 1441s71-61 147-132 156-137 177-146c50-23 92-12 130 32 22 26 27 42 27 84v52l-202 194c-111 106-303 289-425 407l-223 213v1274l-27 26c-16 15-41 32-56 37-18 7-152 11-368 11-471 0-442 18-449-277l-5-205-479 468c-263 258-488 474-500 481-28 16-83 16-122-1m608-812c299-291 586-570 638-620 52-49 255-243 450-430 195-188 372-356 393-373l37-33V2700H5940v986c0 1109 6 1025-76 1064-40 20-58 20-765 18-699-3-725-4-753-23-58-39-56 2-56-1065v-980H3050v2948l252 243c139 134 399 386 578 559 179 174 460 446 625 605 165 160 370 359 455 442 85 84 158 151 162 150s251-241 550-533m1158 106v-885l-107 106c-146 144-282 272-299 282-11 7-14 53-14 252v245zM5700 4520V2695l-580 3-580 2v1820z" style="fill:#fff;fill-rule:nonzero" transform="matrix(.1 0 0 -.1 -159 820)"/></svg>