<svg xml:space="preserve" fill="#ebebeb" style="fill-rule:evenodd;clip-rule:evenodd;stroke-linejoin:round;stroke-miterlimit:2" viewBox="0 0 449 392" xmlns="http://www.w3.org/2000/svg"><path d="M235.8 18.7c1.7 1.5 16.9 27.3 35.7 60.3 4.3 7.6 11.3 19.8 43 74.5 5.1 8.8 12.9 22.6 17.3 30.6s12.1 21.3 17 29.5c15.2 25.3 41.2 73.8 41.2 76.8 0 2.7-24.3 44.9-27.3 47.4-1 .9-38.6 1.2-153.2 1.2-83.5 0-152.2-.3-152.6-.7-1-1.1-18.4-30.8-24.2-41.5-2.6-4.7-4.7-9.4-4.7-10.4 0-1.7 16.2-30.3 39.6-69.9 15.7-26.6 54.1-93 64.2-111 4.6-8.3 9.6-17 11.2-19.5 1.5-2.5 8.5-14.9 15.5-27.5 14.3-25.6 21-37.1 23.3-39.8 1.4-1.5 4-1.7 26.7-1.7 22.6 0 25.5.2 27.3 1.7m-148.6 277c-2.4.3-3.8 1.3-5.6 4.1C79 304 68 326.8 68 328.1c0 .5 64.4.9 143.1.9h143.1l2.7-2.8c3.3-3.3 12.2-18 15.6-25.6l2.5-5.6-142.3.2c-78.2 0-143.7.3-145.5.5M193 28.3c0 1.4 4.7 9.8 30.3 54.7 9.9 17.3 22.6 39.6 28.2 49.5s19.1 33.5 30 52.5 23.4 40.7 27.7 48.3c4.9 8.5 7.8 14.6 7.6 16l-.3 2.2-81 .5c-44.5.3-82 .2-83.2-.2-1.3-.4-2.3-1.4-2.3-2.3 0-.8 6.1-12.2 13.7-25.2 7.5-13.1 18.3-32.1 24.1-42.3 5.7-10.2 11-19.4 11.8-20.5 2.6-3.7 1.5-7.4-6.2-21.3-4.2-7.6-8-14.1-8.4-14.5-.8-.9-11.1 15-18.5 28.8-2.7 4.9-7.8 13.9-11.5 20-3.6 6-11.9 20.4-18.5 32-6.5 11.5-13 22.8-14.5 25-3.7 5.5-30.4 53.5-29.9 53.8.2.1 64.4 0 142.6-.3l142.1-.5-8.7-16C346.6 229 339.9 217 327 195c-7.5-12.9-18.2-31.4-23.7-41-5.4-9.6-14-24.5-18.9-33-5-8.5-11.7-20.2-14.9-26s-8.4-14.6-11.6-19.5c-3.1-5-7.5-12.8-9.8-17.3-5.1-10.1-16.9-30.2-17.9-30.3-.4-.1-8.9-.3-18.9-.5-13.7-.2-18.3 0-18.3.9m12.2 143.5c-6.4 9.1-39.8 68.9-38.9 69.8.2.2 19.6.3 43.1.2l42.6-.3-7.6-14c-17.8-32.5-30.8-55.2-33.3-57.7l-2.6-2.7zM180 41.4c-2.4 3.9-9.7 16.3-16.3 27.6s-17.4 29.9-24.2 41.5c-6.7 11.5-15.9 27.7-20.5 36-4.6 8.2-10 17.5-12 20.5-2.1 3-5.2 8.4-7 12-3.1 6.2-23.3 40.9-49.1 84.6-6.6 11-11.9 21-11.9 22.2 0 1.5 16.5 32 19.4 35.9.2.3 22.3-37.5 50.6-86.7 14.1-24.5 30.4-52.6 36.1-62.5 10.8-18.5 25.8-44.8 32.3-56.7 4.1-7.3 6.6-9 9.7-6.2 1.9 1.7 49 82.1 65.6 111.8 5.1 9.3 10 16.8 11.6 18 2.6 1.9 4.6 2.2 20.5 2.6 9.7.3 17.8.5 17.9.4.2 0-9.9-17.8-22.3-39.5s-28.4-49.8-35.6-62.4c-17.6-31.2-28.9-51-35.9-63-3.1-5.5-9.9-17.5-15.1-26.6l-9.4-16.5z" style="fill:#ebebeb"/></svg>