<?xml version="1.0" encoding="UTF-8" standalone="no"?><!DOCTYPE svg PUBLIC "-//W3C//DTD SVG 1.1//EN" "http://www.w3.org/Graphics/SVG/1.1/DTD/svg11.dtd"><svg width="100%" height="100%" viewBox="0 0 25 24" version="1.1" xmlns="http://www.w3.org/2000/svg" xmlns:xlink="http://www.w3.org/1999/xlink" xml:space="preserve" xmlns:serif="http://www.serif.com/" style="fill-rule:evenodd;clip-rule:evenodd;stroke-linejoin:round;stroke-miterlimit:2;"><rect id="key" x="0.193" y="0" width="24" height="24" style="fill:none;"/><path d="M13.216,0.088c3.464,0.732 5.47,4.446 4.124,7.62c-0.607,1.418 -2.059,2.738 -3.484,3.16l-0.376,0.112l-0.02,2.553l-0.013,2.554l1.366,-0c1.174,-0 1.379,0.013 1.484,0.112c0.106,0.092 0.119,0.224 0.119,1.115c-0,1.26 0.04,1.214 -1.036,1.214l-0.745,-0l-0,1.517l0.772,0c1.042,0 1.009,-0.04 1.009,1.115c-0,0.495 -0.026,0.937 -0.053,0.983c-0.105,0.158 -0.521,0.211 -1.709,0.211l-1.207,0l0,0.244c0,0.587 -0.317,1.115 -0.778,1.307c-0.601,0.257 -1.353,-0.027 -1.61,-0.601c-0.112,-0.27 -0.119,-0.554 -0.119,-6.287c0,-5.641 -0.006,-6.01 -0.119,-6.063c-0.059,-0.033 -0.217,-0.079 -0.343,-0.106c-0.442,-0.086 -1.405,-0.613 -1.933,-1.062c-0.884,-0.752 -1.464,-1.643 -1.774,-2.712c-0.132,-0.448 -0.152,-0.666 -0.146,-1.543c0,-0.937 0.014,-1.069 0.185,-1.584c0.238,-0.719 0.442,-1.115 0.831,-1.649c0.898,-1.214 2.224,-2.006 3.761,-2.263c0.389,-0.066 1.392,-0.033 1.814,0.053Zm-1.814,2.368c-0.515,0.139 -0.937,0.389 -1.359,0.798c-1.57,1.538 -1.194,4.157 0.732,5.127c1.175,0.593 2.685,0.316 3.662,-0.673c0.923,-0.93 1.148,-2.329 0.567,-3.53c-0.422,-0.877 -1.135,-1.471 -2.052,-1.715c-0.461,-0.119 -1.134,-0.126 -1.55,-0.007Z" style="fill:#f8f8f8;"/></svg>