<svg xml:space="preserve" fill="#ebebeb" style="fill-rule:evenodd;clip-rule:evenodd;stroke-linejoin:round;stroke-miterlimit:2" viewBox="0 0 465 363" xmlns="http://www.w3.org/2000/svg"><path d="M377.1 35.7c5.2 2.6 10.3 7.3 12.7 11.7 1.5 2.8 1.7 11.7 2.2 98.6l.5 95.5 5.1 10.5c16.5 33.6 21.8 45.7 21.7 49-.1 6.7-5 13.7-12.3 17.6-3.4 1.8-9.4 1.9-172.1 1.9H66.3l-4.9-3c-6.2-3.8-8.4-8-8.4-16.1 0-8.3 2-13.4 15-39.3l11.2-22.3.2-92.7c.1-91.7.1-92.6 2.2-97.1 3-6.5 7.2-11 12.4-13.4 4.2-2 6.7-2.1 41.5-2.6 20.4-.4 82-.6 137-.5h100zm-276.8 7.2c-4.7 1.2-8 3.6-10 7.4-1.7 3-1.8 9.3-2.1 93.9l-.2 90.6 2.7.6c1.6.3 68.1.8 148 1.2l145.2.6-.5-86.8c-.3-47.8-.7-89.2-1-92.1-.7-6.5-3.7-11.2-8.9-13.8-3.9-1.9-7-1.9-137-2.2-73.1-.1-134.5.2-136.2.6M89 245.7c-2.2.3-4 3.2-13.1 20.6-5.8 11.1-11.8 23.3-13.4 27-2.7 6.5-2.8 7.1-1.4 11 .9 2.6 2.5 4.7 4.5 5.9 2.9 1.7 11.7 1.8 168 1.8h167.6c1.4 0 4-1.2 5.7-2.6 5-4.1 4.4-7.5-4.8-26.5-4.3-9-9.9-20.7-12.4-26l-4.5-9.7-44.3-.6c-52.5-.7-248.3-1.4-251.9-.9M256.1 282c2.1 1.2 2.7 6.4.7 7.6-1.3.8-41.2.5-43.4-.3-2-.7-2.9-5.1-1.4-6.8 1-1.2 4.8-1.5 21.7-1.5 12.2 0 21.2.4 22.4 1" style="fill:#ebebeb"/></svg>