<svg xml:space="preserve" fill="#ebebeb" style="fill-rule:evenodd;clip-rule:evenodd;stroke-linejoin:round;stroke-miterlimit:2" viewBox="0 0 348 418" xmlns="http://www.w3.org/2000/svg"><path d="M284.8 47.2c.7.7 1.2 2.2 1.2 3.4 0 2.6-19.5 28.4-21.5 28.4-5.9 0-6.2-5.5-.5-12.3 2.1-2.7 5.6-7.1 7.6-10 7.4-10.3 10.3-12.4 13.2-9.5m-197.3 2c1.6 2.4 6.2 8.7 10.3 14.1 6.9 8.9 7.5 10 6.6 12.5-.7 2-1.6 2.7-3.7 2.7-2.3 0-4.1-1.9-12.7-13.5-9.7-13.1-11.3-16.3-8.8-18.8 2.4-2.4 5.5-1.3 8.3 3m95.9-38.6c1.3 1.3 1.6 4.5 1.6 19.8 0 19.1-.3 20.6-4.5 20.6s-4.5-1.5-4.5-21.2c0-16.8.2-18.8 1.8-19.7 2.4-1.5 3.8-1.3 5.6.5m17.1 63.9c17.7 3.1 35.3 10.8 45.1 19.8 11.8 10.8 23.7 27.8 29.4 42.2 6 15.1 8 32 6 51-2.5 23.8-7.1 33.3-24.6 51.5-17.6 18.2-22.4 33.1-22.4 69.9 0 28.2-1.9 34.8-13.5 46.1-4.4 4.3-7.9 8.9-10.2 13.5-5.3 10.4-7.1 12.5-12.9 15.2-7.9 3.6-17.4 4.1-26.2 1.4-9.1-2.7-12.8-5.9-16.8-14.6-2.3-4.9-5.3-8.9-9.7-13.3-12-11.7-15-21.7-14.8-49 .3-35.2-4.5-50.4-21.6-68.4-15.1-16-19.6-23.9-25-43.8-2.4-9.2-2.5-37.6 0-47.4 2.3-9.3 8.4-22.7 14.1-31.2 5.4-8.1 16.2-20.4 22.6-25.7 6.7-5.6 21.2-12.4 32.3-15.2 18.3-4.6 30.4-5.1 48.2-2M162 366.6c0 2.4 3.8 7.3 7.1 8.9 7.3 3.8 20.6 3.7 26.5-.2 2.5-1.6 6.4-7.2 6.4-9.2 0-.8-5.8-1.1-20-1.1-17.6 0-20 .2-20 1.6M137.9 324H226v-18h-87.7zm27.6-241.9c-20.2 2.5-37.7 12.1-52.2 28.4-6.1 6.8-16.6 24.2-19.3 31.8-6.9 19.7-5.3 52.4 3.5 69.8 3 5.9 8.9 13.4 19.1 24.2 13.6 14.3 19.6 29.1 21.1 52l.6 8.7 43.6-.2 43.6-.3.7-8.5c.8-11.6 4.2-25 8.3-33.5 3.4-7.1 6.8-11.5 20.9-27.2 14.1-15.9 17.1-25.3 17.1-54.3-.1-17.6-.2-18.9-2.9-27-11.1-33.3-36.7-56.9-68.8-63.4-8.3-1.7-23.8-1.9-35.3-.5m1 109.4c5.1 2.9 7.7 8.3 9.6 19.7l1.3 7.8h3.7c3.6 0 3.8-.2 4.4-3.8 1.2-7.5 2.8-13.8 4.6-18 4.1-9.4 19.2-11 25.7-2.7 8.4 10.7 1.5 24.4-15 29.5l-7.5 2.4-.7 30c-.5 18.7-1.1 30.5-1.8 31.3-1.3 1.6-5 1.7-6.6.1-1.1-1.1-1.1-7.9.3-47.6l.4-13.2h-6.6l.5 30 .5 29.9-2.6 1.2c-5.1 2.3-5.4 1-6.1-22.9-.4-11.9-.9-25.6-1.2-30.4l-.6-8.6-4.6-1.2c-6.2-1.5-13.8-5.7-16.8-9.2-5.2-6.3-5.5-15.1-.7-20.9 5.2-6.2 12.9-7.5 19.8-3.4m32.1 7.8c-1.6 1.6-2.6 4.4-3.4 9.6-.7 4.1-1 7.6-.7 7.9s2.4-.1 4.7-.9c4.8-1.6 10.4-6 11.3-9 1-2.9-1.2-7.4-4.1-8.8-3.6-1.6-5.2-1.4-7.8 1.2m-44.1.2c-2.9 2.8-3.2 7-.9 10.4 1.6 2.2 10.6 7.1 13.2 7.1 1.6 0 1.5-3.3-.3-10.5-2.4-9.2-7.1-12-12-7m-14 135.7c1.7 5.7 5.2 11.4 10 16.4l5.3 5.4h50.8l7.1-7.3c6.3-6.3 10.3-12.4 10.3-15.7 0-.7-13.8-1-42.1-1h-42z" style="fill:#ebebeb"/></svg>