<svg xml:space="preserve" fill="#ebebeb" style="fill-rule:evenodd;clip-rule:evenodd;stroke-linejoin:round;stroke-miterlimit:2" viewBox="0 0 348 437" xmlns="http://www.w3.org/2000/svg"><path d="M209.2 47.4c.9 2.1-1.2 12.9-12.6 64.1-7.6 33.9-13.5 61.9-13.2 62.2s10.6-.4 22.8-1.6c73.1-7 72-7 72.6 0 .3 3.2-4.1 10.2-47 74.7-26 39.1-51.8 78-57.3 86.4-22.6 34.8-43.2 65.3-46.1 68.5-3.7 3.8-6.7 4.2-8.8 1-1.4-2-1-4.4 4.8-28.2 10.8-44.2 29.6-124.1 29.6-125.8 0-1.3-.7-1.5-2.7-1.2-1.6.3-18.5 1.9-37.8 3.5-19.2 1.7-38 3.3-41.6 3.6-6.1.6-6.7.5-8.3-1.7-2-2.9-2-5.2-.2-8.7 3.7-7.1 130.9-191.5 135.9-197 2.9-3.2 8.4-3.1 9.9.2m-17.1 25.8c-1.3 2.3-5.6 8.7-9.6 14.2-18.7 26.2-106.1 153.3-107 155.8-.4 1.1 2.3 1.1 17.2.1 9.8-.7 25.2-2 34.3-2.9 9.1-.8 20.6-1.8 25.6-2.1 8.7-.5 9.2-.5 10.8 1.8.9 1.3 1.6 3.2 1.6 4.3 0 1.9-6.8 30.9-15 63.6-5.7 22.9-16.1 68.2-15.8 68.6.2.1 9.3-13.4 20.3-30.2 11-16.7 38.6-58.4 61.3-92.7 22.7-34.2 43.6-65.7 46.3-70l5-7.9-3.8.6c-2.1.3-16.8 1.7-32.8 3.2-15.9 1.4-32.1 2.9-36 3.4-11 1.5-18.1 1.2-19.9-.6-.9-.8-1.6-3-1.6-4.7 0-3.6 3.9-22.9 12.9-63.3 5.6-25.4 9.4-44.5 8.8-45-.1-.2-1.3 1.6-2.6 3.8" style="fill:#ebebeb"/></svg>