<?xml version="1.0" encoding="UTF-8" standalone="no"?><!DOCTYPE svg PUBLIC "-//W3C//DTD SVG 1.1//EN" "http://www.w3.org/Graphics/SVG/1.1/DTD/svg11.dtd"><svg width="100%" height="100%" viewBox="0 0 405 389" version="1.1" xmlns="http://www.w3.org/2000/svg" xmlns:xlink="http://www.w3.org/1999/xlink" xml:space="preserve" xmlns:serif="http://www.serif.com/" style="fill-rule:evenodd;clip-rule:evenodd;stroke-linejoin:round;stroke-miterlimit:2;"><path d="M173.9,149.2c14.3,1.5 26,6.3 38,15.4c7.7,5.9 23,20.5 23.7,22.6c0.6,2.1 -1.9,4.7 -4.6,4.8c-0.8,-0 -5.1,-3.4 -9.5,-7.6c-10.4,-9.8 -20.5,-17.4 -28.1,-21.2c-13.9,-7 -33.5,-8 -48.9,-2.5c-16.4,5.8 -19.9,8.5 -47.8,36.2c-28.1,27.9 -31.8,32.1 -37,42.6c-6.2,12.5 -8.2,20.4 -8.2,34c-0,13.7 2.1,22.8 7.9,34.3c7.4,14.7 17.2,25 30.4,31.9c12.7,6.7 21.9,9.4 34.7,10c9.9,0.4 11.9,0.2 20,-2.2c18.1,-5.3 19.5,-6.4 55.6,-42.3c31.2,-30.8 32.8,-32.3 36,-32c2.7,0.2 3.5,0.8 3.7,2.7c0.3,1.9 -4.9,7.6 -29.5,32.3c-30,30.2 -36.8,36 -47.8,41.6c-12.7,6.3 -19.4,7.7 -37,7.7c-14.7,-0.1 -16.7,-0.3 -24.1,-2.8c-8.7,-2.9 -23.3,-11.5 -31.5,-18.6c-6.1,-5.2 -12.9,-14.3 -17.2,-22.6c-14.9,-29.5 -12.6,-62.7 6.2,-89.7c4.7,-6.8 48.6,-50.9 58.7,-58.9c10.3,-8.2 29.1,-15.1 45.4,-16.6c0.8,-0.1 5.7,0.3 10.9,0.9Zm4.8,42c4.1,2 8.6,5.5 13.3,10.4c6.3,6.4 7,7.6 6,9.4c-1.9,3.5 -5.9,2.5 -12,-3.1c-9.7,-9 -13.4,-10.9 -21.3,-10.9c-11.7,0 -14.4,1.9 -40.6,28.6c-12.6,12.8 -24.3,25.2 -26,27.7c-8,11.6 -9.8,25.2 -4.9,35.9c3.3,7.2 10.2,14.6 17,18.4c4.8,2.6 6.2,2.9 14.3,2.9c8.1,0 9.7,-0.3 15.8,-3.2c5.7,-2.7 9.6,-6 25.1,-21.3c10.1,-9.9 18.7,-18 19,-18c2.1,0 4.6,2.4 4.6,4.3c-0,3.1 -32.9,36.3 -40.7,41c-13.7,8.3 -29.2,8.9 -43.5,1.6c-6.4,-3.3 -15.2,-12.7 -18.8,-20.3c-7.2,-15.2 -4.5,-34.7 6.8,-48.9c5.8,-7.3 46.8,-48.4 51.7,-52c9.9,-7 23,-8 34.2,-2.5Zm113.8,-112.8c6.3,2.8 14.2,9.7 17.9,15.6c8.7,13.4 8.7,31.3 0.3,47.5c-2.5,4.7 -9.6,12.6 -33.2,36.5c-36.9,37.5 -39.8,40.2 -43.2,39.8c-1.4,-0.2 -3.1,-1.1 -3.7,-2c-0.9,-1.5 4.2,-7 34,-37c38.2,-38.6 40.1,-41 43,-54.8c1.3,-6.3 1.3,-7.8 -0.1,-13.7c-3.9,-17 -16.6,-27 -33,-26.1c-12.8,0.7 -15.7,2.6 -43.5,30.3c-21.5,21.4 -25,24.5 -27.7,24.5c-3.7,0 -5,-2.4 -2.9,-5.4c3.2,-4.5 47.3,-48.4 51.5,-51.1c11.9,-8 28.5,-9.7 40.6,-4.1Zm-4.5,-43.3c12.7,1.9 22.2,6 33.2,14.1c28,20.6 40.8,55.7 32.8,89.5c-2.3,9.9 -8.5,23.1 -14.3,30.8c-2,2.5 -19.5,20.7 -38.9,40.3c-38.4,38.8 -41,40.9 -56.3,45.8c-22.9,7.3 -43.3,6 -61.6,-3.8c-7,-3.7 -18.6,-14.1 -25.7,-23.1c-6.6,-8.4 -7.5,-10.2 -6.2,-12.7c1.6,-3 5.5,-2.5 8.2,1.1c7.2,9.5 16.6,19.4 22.1,23.3c19.6,13.9 44.6,15.2 69.2,3.6c6.4,-3.1 9.9,-6.3 43.6,-39.9c20.1,-20.1 38,-38.7 39.7,-41.2c18.2,-27.1 18.8,-59.7 1.6,-86.7c-12,-18.7 -33,-31.1 -56,-32.8c-15.1,-1.1 -31.3,3.4 -45.1,12.6c-2.6,1.8 -21.5,20.1 -41.8,40.7c-35.9,36.3 -37.2,37.4 -40.5,37.1c-2.8,-0.2 -3.6,-0.8 -3.8,-2.7c-0.3,-2 6.1,-8.8 37.5,-40.3c20.8,-20.9 39.8,-39.4 42.3,-41.3c6.6,-4.8 19.6,-11.2 26.6,-13c13,-3.3 19.4,-3.6 33.4,-1.4Z" style="fill:#ebebeb;"/></svg>