<?xml version="1.0" encoding="UTF-8" standalone="no"?><!DOCTYPE svg PUBLIC "-//W3C//DTD SVG 1.1//EN" "http://www.w3.org/Graphics/SVG/1.1/DTD/svg11.dtd"><svg width="100%" height="100%" viewBox="0 0 423 348" version="1.1" xmlns="http://www.w3.org/2000/svg" xmlns:xlink="http://www.w3.org/1999/xlink" xml:space="preserve" xmlns:serif="http://www.serif.com/" style="fill-rule:evenodd;clip-rule:evenodd;stroke-linejoin:round;stroke-miterlimit:2;"><path d="M182.3,60.5c3.1,0.8 10.2,3.7 15.7,6.5c5.5,2.7 10.7,5 11.6,5c1,0 6.3,-2.2 11.8,-5c12.6,-6.2 19.5,-8 31.4,-8c10.6,0 20.4,1.9 30.3,6c12.9,5.4 20.2,11.1 44.7,35.4c12.8,12.7 30.6,29.2 39.5,36.6c9.4,7.9 16.5,14.6 17.1,16.1c0.8,2.2 -0.2,4.1 -7.4,15c-11.9,17.8 -17.7,24.8 -31.9,38.9c-12.5,12.4 -26.5,23.8 -37.1,30c-22.9,13.5 -48.4,22.3 -72.2,24.9c-20.2,2.3 -52.3,0.6 -68.2,-3.5c-28.9,-7.4 -57.5,-21.5 -77.2,-37.9c-9.7,-8.1 -22.5,-20.7 -29.9,-29.5c-8.3,-9.9 -24.5,-33.9 -24.5,-36.2c-0,-3.6 2.1,-5.9 14.3,-15.5c6.7,-5.3 23.9,-21.2 38.2,-35.3c14.3,-14.1 28.8,-27.5 32.2,-29.8c11.1,-7.5 23.4,-12.9 33.3,-14.5c6.3,-1.1 23,-0.6 28.3,0.8Zm-35.5,91.5c-3.1,0.5 -11,2.3 -17.5,4.1c-24.7,6.6 -33.1,8.2 -50.8,10c-9.3,0.9 -14.9,1 -19.3,0.2c-3.4,-0.5 -6.2,-0.7 -6.2,-0.4c-0,0.9 4.7,7.8 8.9,13.1c19.7,25 44.5,45.2 71.2,57.9c14.3,6.8 26.6,10.9 42.9,14.2c10.4,2.2 14,2.4 37,2.4c22.5,-0.1 26.7,-0.4 35.7,-2.3c33.6,-7.3 62.6,-23.1 89.2,-48.6c12.2,-11.8 31.5,-35.5 30,-37c-0.2,-0.3 -2.7,0 -5.4,0.6c-10.8,2.3 -33.2,-1 -73.5,-10.7c-23.3,-5.7 -38,-5.1 -52.1,2.1c-2.6,1.3 -8.3,3.3 -12.6,4.5c-10.2,2.8 -21.7,2.2 -31.8,-1.6c-18.9,-7.2 -23.1,-8.4 -31.5,-8.9c-4.7,-0.3 -11,-0.1 -14.2,0.4Zm13.1,-83.9c-10.6,0.9 -19.3,4 -29.5,10.9c-11,7.2 -28,22.3 -35.6,31.6c-6.7,8.2 -17.7,18.9 -30.7,29.9c-5.2,4.4 -10.8,9.2 -12.5,10.6l-3,2.6l3,1.6c11.3,5.7 34.9,3.5 72,-7l16.9,-4.8l16.5,0c18,0 15.2,-0.6 37.5,8.1c5.9,2.3 8.5,2.8 16.5,2.8c8,0 10.6,-0.5 16.5,-2.8c19.4,-7.7 20.5,-7.9 33.3,-8.4c13.7,-0.5 17.7,0.1 38.7,5.8c35.8,9.6 62.8,11.9 71.5,6c1.3,-0.9 1,-1.4 -1.5,-3.3c-8.5,-6.4 -31,-26.5 -38.3,-34.3c-25.4,-27.1 -33.9,-34.6 -46.4,-41.3c-11.3,-6.1 -19.7,-8.3 -30.8,-8.4c-11.6,0 -18.5,1.8 -29.7,7.9c-5.2,2.8 -10.1,4.7 -13.3,5.1c-4.6,0.5 -5.8,0.2 -17.2,-5.6c-13.7,-6.9 -19.7,-8.1 -33.9,-7Z" style="fill:#ebebeb;"/></svg>