<svg xml:space="preserve" fill="#ebebeb" style="fill-rule:evenodd;clip-rule:evenodd;stroke-linejoin:round;stroke-miterlimit:2" viewBox="0 0 312 435" xmlns="http://www.w3.org/2000/svg"><path d="M272.4 551.5c5.1 2.4 14.1 10.9 19.1 17.8 2.2 3.1 4.3 5.6 4.6 5.7.3 0 2.3-2.5 4.4-5.6 4.9-7.1 13.5-14.8 20.3-18.1 6.9-3.4 15-3 21.1 1 13 8.6 13.5 25.1 1.3 44.7-8.3 13.5-40.6 44-46.6 44-6.8 0-35.6-26.1-46-41.8-7.3-11-8.8-15.4-9.4-26.2-.4-9.4-.4-9.5 2.9-14.4 4.7-7 10.5-9.9 18.4-9.4 3.3.2 7.7 1.3 9.9 2.3m-17.3 10.1c-4.9 4.1-5.8 8.8-3.2 17.2 3.9 13 15.8 28.1 33.8 42.9l10.4 8.5 5.7-4.3c8.7-6.6 27.3-25.6 31.9-32.7 8.2-12.4 10.4-22.9 6-29.3-4.5-6.7-13.5-6-22.6 1.7-2.2 2-7.1 8.1-10.7 13.6-3.6 5.4-7.2 10.2-8 10.5-3.2 1.2-6-.9-10.6-7.9-12.8-19.7-24.6-27-32.7-20.2m104.6 81.5c5.4 2.6 11.6 9.6 13.1 14.7 1.8 5.8 1.4 13.1-.8 18-2.6 5.8-10.8 18.2-21.3 32.4-4.8 6.5-8.7 12-8.7 12.2s.9.2 1.9-.1c3.2-.8 12.9 2.6 16.7 5.9 4.8 4.3 7.6 10.1 8.2 17.4l.4 6.1 4.9-.5c9.7-.9 19.8 5.4 23.9 15 1.9 4.5 2.2 6.4 1.7 12.9l-.5 7.7 4.9.6c10.4 1.4 18.9 12.2 18.9 24.1 0 20.7-25.4 57.6-51.6 75.1-11 7.4-21.9 12-33.9 14.5-10.9 2.3-16.6 2.4-27.6.4-38.3-6.6-74.2-38.6-86.1-76.5-1.8-6.1-2.3-9.6-2.2-18.5 0-9.8.4-11.9 3.2-19.3 1.7-4.6 4.4-10.5 6.1-13.1 4.7-7.7 7.9-18.1 10.1-32.8 2.6-17.7 2.5-32.3-.1-49.3-3.2-20.2-3.4-25.4-1.5-30.4 4.7-12.3 19.3-17.1 32.4-10.5 10.5 5.2 19.5 16.9 24.5 31.6l2.4 7.1 12.6-15.6c13.7-17.2 23.7-27.4 28.9-29.7 5-2.2 14.4-1.9 19.5.6m-17.2 9.7c-4.9 3-12.4 11.8-42.5 49.7-15.7 19.8-36.1 45.4-45.3 57-17.2 21.5-20.6 27-22.6 36.3-2.2 10.7-.3 22.1 5.9 35.1 10.6 22.1 27.6 39.5 48.5 49.9 29.2 14.6 54 12.7 81.2-6 14.9-10.3 33.2-32.5 41.5-50.5 2.6-5.5 3.2-8.1 3.2-13.8.1-8.6-2.3-12.8-8.4-14.6-5.9-1.8-9.1.6-18.8 14.7-11.2 16.1-11.7 16.6-15.4 16.2-1.7-.2-3.6-1.1-4.2-2.1-1.3-2-2-.8 11.7-21 10.1-14.9 12.7-20.7 12.7-28.4 0-15.1-14.1-21.1-25.7-11-1.9 1.7-8.3 10.3-14.3 19.1-5.9 8.9-11.7 16.9-12.8 17.9-2.6 2.3-5.9 1.5-7.4-1.8-1-2.2.2-4.3 11.5-21.3 14.8-22.2 16.8-25.9 17.4-31.5 1.4-11.8-10.6-20-21.8-15-5.6 2.5-9.6 6.9-25.9 28.6-11.4 15.2-13.6 17.7-15.9 17.7-3.3 0-5.1-1.7-5.1-4.6 0-2 9.9-15.6 47.5-64.8 8.3-10.8 17.5-23.6 20.5-28.3 5.2-8.1 5.5-9.1 5.5-14.9 0-5.3-.4-6.7-2.5-8.9-5-5.4-13-7-18.5-3.7m-87.1 4.2c-1.1.4-3.3 2.2-4.7 4-3.3 3.8-3.4 6.5-.6 21.5 2.6 14.8 3.4 38.8 1.7 53.3-.8 6.2-1.1 11.1-.7 11 .5-.2 30-36.7 39.2-48.6.6-.8.6-1.7-.2-2.6-.6-.7-2-4.8-3.1-9-5.2-20.5-20-34.3-31.6-29.6" style="fill:#ebebeb" transform="translate(-155 -512)"/></svg>