<?xml version="1.0" encoding="UTF-8" standalone="no"?><!DOCTYPE svg PUBLIC "-//W3C//DTD SVG 1.1//EN" "http://www.w3.org/Graphics/SVG/1.1/DTD/svg11.dtd"><svg width="100%" height="100%" viewBox="0 0 357 404" version="1.1" xmlns="http://www.w3.org/2000/svg" xmlns:xlink="http://www.w3.org/1999/xlink" xml:space="preserve" xmlns:serif="http://www.serif.com/" style="fill-rule:evenodd;clip-rule:evenodd;stroke-linejoin:round;stroke-miterlimit:2;"><path d="M193.4,17c38.5,5.6 71.2,38.2 76.5,76.4c0.6,4.3 1.1,18.6 1.1,31.9l-0,24.2l6.9,0.1c8.1,0.1 14,3 18.5,8.9c5.8,7.6 5.6,3.3 5.6,92.9c-0,89.6 0.2,86.3 -5.6,94.7c-3.3,4.8 -6.8,7.4 -12.6,9.5c-3.8,1.4 -15.9,1.6 -101.7,1.5c-69.9,-0.1 -99.2,-0.4 -103.4,-1.2c-6.9,-1.4 -14.1,-5.9 -17.4,-10.8c-5.5,-8.1 -5.4,-7.1 -5.1,-95.7l0.3,-81.9l2.2,-4.1c4.4,-8.3 14.8,-14.4 24.4,-14.4c2.2,-0 3.9,-0.1 4,-0.3c0.1,-0.1 0.5,-13 0.9,-28.7c0.7,-25.9 1,-29.3 3.2,-37.1c7,-24.2 25,-46 47.3,-57.2c6.5,-3.2 20.5,-8 26.5,-9c4.9,-0.8 21.6,-0.6 28.4,0.3Zm-23.4,7.7c-5.3,0.5 -18.3,4.1 -23.7,6.5c-7.3,3.2 -17.1,9.8 -24.1,16.2c-7.4,7 -16.9,20.7 -19.9,29.1c-4.9,13.4 -5.5,17.8 -6,45.7l-0.5,26.8l23.9,0l0.2,-22.3c0.2,-23.3 0.9,-30.3 4,-40.3c3.6,-12 13.4,-23.3 27.3,-31.6c6.1,-3.6 7.9,-4.2 18.5,-5.5c9.3,-1.3 13.4,-1.4 19.4,-0.5c21.4,3 38.7,18.1 47.2,41.2c1.8,4.9 2.1,8.4 2.5,32.8l0.4,27.3l11.1,-0.3l11.2,-0.3l0.3,-25.5c0.2,-20.3 -0.1,-27.1 -1.4,-33.5c-6.4,-32 -31.5,-57.5 -63,-63.9c-7.5,-1.5 -21.9,-2.5 -27.4,-1.9Zm-4.9,33.8c-12.2,2.7 -25.1,13.2 -30.8,25.2c-5,10.3 -6.2,19.2 -6.3,44.3l0,21.5l51.6,0.2l51.6,0.3l-0.5,-24.8c-0.6,-27.1 -1.3,-31.8 -5.7,-40.7c-10.7,-21.7 -33.6,-31.7 -59.9,-26Zm-91.6,101.4c-3.9,2.4 -6.1,4.9 -7.5,8.6c-0.8,2.2 -1.1,25.7 -1.1,84.4l0.1,81.4l2.5,4.3c1.6,2.7 4.4,5.4 7.3,7.1l4.7,2.8l98,0.3c72.3,0.2 99.1,-0 102.2,-0.9c5.4,-1.5 11.7,-8.1 13.3,-13.8c0.7,-2.9 1,-28 0.8,-83.9c-0.3,-71.9 -0.5,-80 -2,-82.7c-2.1,-3.9 -5.6,-7.1 -9.1,-8.4c-1.9,-0.8 -34.9,-1.1 -104.5,-1.1c-97.3,0 -101.8,0.1 -104.7,1.9Zm119.9,48.5c11.5,5.6 17.1,15.7 16.4,29.4c-0.5,9.3 -2.4,13.8 -9,20.6l-4.8,5l0,14.3c0,22.6 -1.8,24.9 -19,24.6c-10,-0.2 -10.6,-0.3 -12.7,-2.8c-2.2,-2.5 -2.3,-3.4 -2.3,-19.7c0,-16.7 0,-17 -2.4,-18.9c-3.9,-3 -8.4,-11 -10.2,-17.8c-3,-11.7 1.2,-23.5 11.2,-31.8c6.3,-5.1 10.5,-6.4 19.5,-6c5.8,0.3 9,1 13.3,3.1Zm-21.9,5.9c-12,5.5 -17.7,20 -12.5,31.6c1.1,2.4 4.3,6.6 7.1,9.3l5,4.8l-0.3,16.8l-0.3,16.7l8.2,0.3l8.1,0.3l0.7,-9.7c0.4,-5.4 0.5,-13.1 0.2,-17.2l-0.6,-7.5l5.9,-5.4c6.4,-6 9,-11 9,-17.6c0,-9.5 -4.5,-16.8 -12.4,-20.6c-5.9,-2.7 -14.2,-3.6 -18.1,-1.8Z" style="fill:#ebebeb;"/></svg>