<?xml version="1.0" encoding="UTF-8" standalone="no"?><!DOCTYPE svg PUBLIC "-//W3C//DTD SVG 1.1//EN" "http://www.w3.org/Graphics/SVG/1.1/DTD/svg11.dtd"><svg width="100%" height="100%" viewBox="0 0 24 24" version="1.1" xmlns="http://www.w3.org/2000/svg" xmlns:xlink="http://www.w3.org/1999/xlink" xml:space="preserve" xmlns:serif="http://www.serif.com/" style="fill-rule:evenodd;clip-rule:evenodd;stroke-linejoin:round;stroke-miterlimit:2;"><rect id="loop" x="0" y="0" width="24" height="24" style="fill:none;"/><clipPath id="_clip1"><rect id="loop1" serif:id="loop" x="0" y="0" width="24" height="24"/></clipPath><g clip-path="url(#_clip1)"><path d="M7.238,6.342c1.116,0.327 1.936,0.82 2.916,1.757c0.536,0.512 1.424,1.529 1.72,1.966c0.099,0.142 0.099,0.142 0.579,-0.462c1.844,-2.287 3.422,-3.311 5.358,-3.446c0.592,-0.043 1.436,0.043 2.003,0.203c0.568,0.161 1.425,0.611 1.942,1.03c0.944,0.752 1.591,1.689 1.973,2.823c0.21,0.629 0.235,0.777 0.265,1.499c0.05,1.356 -0.222,2.361 -0.906,3.396c-1.59,2.393 -4.414,3.348 -6.979,2.362c-1.066,-0.413 -2.349,-1.449 -3.477,-2.824c-0.339,-0.407 -0.629,-0.746 -0.647,-0.74c-0.019,0 -0.21,0.222 -0.432,0.5c-0.857,1.054 -2.09,2.194 -2.885,2.657c-0.512,0.302 -1.227,0.573 -1.812,0.69c-0.746,0.154 -1.924,0.105 -2.658,-0.117c-1.245,-0.37 -2.336,-1.14 -3.131,-2.207c-0.414,-0.561 -0.672,-1.079 -0.901,-1.825c-0.154,-0.493 -0.166,-0.622 -0.166,-1.584c-0,-0.968 0.012,-1.091 0.173,-1.603c0.696,-2.287 2.466,-3.853 4.753,-4.229c0.567,-0.093 1.738,-0.013 2.312,0.154Zm-2.281,2.219c-0.981,0.296 -1.739,0.919 -2.214,1.825c-0.308,0.592 -0.4,1.06 -0.363,1.893c0.024,0.579 0.055,0.733 0.234,1.153c0.364,0.869 1.116,1.584 1.979,1.88c0.247,0.086 0.616,0.148 0.98,0.173c0.715,0.043 1.381,-0.118 1.979,-0.463c0.524,-0.308 1.393,-1.153 2.287,-2.213l0.74,-0.882l-0.296,-0.357c-0.16,-0.191 -0.727,-0.783 -1.257,-1.313c-0.987,-0.987 -1.455,-1.332 -2.17,-1.609c-0.414,-0.161 -1.48,-0.21 -1.899,-0.087Zm12.521,-0.018c-0.703,0.135 -1.554,0.684 -2.349,1.51c-0.598,0.623 -1.665,1.856 -1.665,1.924c0,0.061 1.092,1.368 1.702,2.028c1.165,1.27 2.423,1.726 3.785,1.381c0.715,-0.179 1.11,-0.388 1.572,-0.82c0.463,-0.425 0.703,-0.789 0.931,-1.375c0.154,-0.382 0.173,-0.518 0.173,-1.171c0.006,-0.623 -0.019,-0.808 -0.136,-1.153c-0.382,-1.11 -1.35,-2.004 -2.503,-2.306c-0.345,-0.092 -1.091,-0.105 -1.51,-0.018Z" style="fill:#f8f8f8;"/></g></svg>