<svg xml:space="preserve" fill="#ebebeb" style="fill-rule:evenodd;clip-rule:evenodd;stroke-linejoin:round;stroke-miterlimit:2" viewBox="0 0 450 341" xmlns="http://www.w3.org/2000/svg"><path d="M249 51c20.1 2.5 43.5 8.7 61.5 16.4 10.4 4.4 37.6 20.8 50.4 30.5 10.4 7.8 23.8 20.7 34.6 33.3 10.3 12 16.5 20.7 26 36.4 7.3 11.9 8 15.5 4.4 21.4-7.6 12.5-41.2 47.1-61.4 63.3-34.3 27.5-71.8 47-103.9 53.9-13.7 3-47.3 3.2-60.9.5-31.8-6.4-70.7-26.8-106.9-55.9-21.1-17-47.1-42.8-59.2-58.7-5.5-7.3-5.5-11.2-.2-20.1C47 149.5 71 120.9 88.8 106c11.5-9.7 36.9-26.8 50.2-33.8 17.1-9 43.2-17.2 66-20.6 11.5-1.7 32.5-2 44-.6m-72.1 63.8c-6.6 4.3-8.5 6.8-7.3 9.6.5 1.3 6.4 8.1 13.1 15.1l12.1 12.6 4.2-2.7c4-2.6 4.2-3 3.7-6.6-.6-4.2-12-28.8-14-30-2.5-1.6-7.5-.7-11.8 2M235 263v21h5.8c5.8 0 15.6-2.3 17.9-4.2.8-.6.9-1.6.3-2.6-.4-1-3.1-6.4-5.9-12.2-5.8-12-13.5-23-16.3-23-1.7 0-1.8 1.3-1.8 21M205.6 61.1c-22.7 3.1-55.2 15.5-79.1 30.1-28 17.2-54.3 42.4-75.2 72.3-9.1 13.1-9.3 13.4-6.6 11.5 64.5-45.1 97.8-65 124-74 24.5-8.5 39.8-11.3 60.8-11.2 20.3.1 44.7 4.8 66 12.9 9.6 3.6 36.4 17.2 48 24.3 12 7.3 44.4 29.5 57.5 39.4 6.9 5.1 12.6 9.2 12.8 9.1 1.1-1-11.5-20.1-21.7-33-30.2-38.3-80-69.1-128.7-79.5-7.8-1.7-14.3-2.2-30.4-2.5-11.3-.2-23.6.1-27.4.6m92.4 108c-9.1 3.3-17.1 6.7-17.7 7.6-.7.9-1.3 3.1-1.3 4.9 0 5.8 2 6.4 22.7 6.4H320v-7.3c0-8-2.4-17.7-4.3-17.6-.7 0-8.6 2.7-17.7 6m-83.5-69.4c-1.1.2-5.3 1.4-9.2 2.5-6.1 1.8-7.3 2.4-7.3 4.2 0 3.3 10.4 23.6 14.5 28.3 2.6 3.1 4.4 4.3 6.4 4.3 5.8 0 6-.8 6.2-20.2 0-9.7-.2-18.2-.6-18.8-.6-1-6.1-1.2-10-.3m58.9 13.3c-2.8 1.1-5.8 5.2-12.8 17.4-7.5 13.1-7.8 14.5-3.3 17.9 2 1.5 4.2 2.7 4.9 2.7 1.8 0 28.8-25.8 28.8-27.5 0-2.5-12.6-12-15.2-11.4-.2 0-1.3.4-2.4.9m10.6 33.1-14.5 14 2.8 2.5c3.7 3.2 5.7 3 15.8-.9 4.6-1.9 11.9-4.6 16.2-6.1 4.2-1.6 7.7-3.3 7.7-3.9 0-2.3-11.3-19.7-12.9-19.7-.4 0-7.2 6.3-15.1 14.1m-129-10.4c-3.6 4.1-10 13.7-10 15.1 0 .8 19.1 9.9 28.3 13.4 8 3.1 12.7 2.1 12.7-2.7 0-4.7-21.6-29.5-25.6-29.5-1.3 0-3.6 1.6-5.4 3.7m63.9 108.7c-1.4 1.5-5.8 8.9-9.9 16.4-4 7.5-8.2 14.9-9.2 16.4l-1.9 2.7 5.3 1.6c7.6 2.3 18.4 3.1 20.3 1.5 1.2-1 1.5-4.3 1.5-19 0-15.7-.2-18-1.8-20l-1.9-2.3zm16.8-143.8c-1.3 1.3-.8 35.9.5 37.2 2.1 2.1 5.3 1.3 8.5-2.1 3.9-4 17.7-29.7 16.6-30.8-2.1-2.1-24.1-5.8-25.6-4.3M218 150.4c-6.5 1.8-9 3.4-16.6 10-7.6 6.8-10.6 12.3-12.5 23-1.4 8.4-.7 16.4 2.2 24.2 2.7 7.2 12.9 18.3 20.4 22.2 4.4 2.4 6.1 2.7 15 2.7 6.8 0 12.3-.6 17-1.9 6.3-1.7 7.7-2.6 14.1-9s7.4-7.9 9.2-14.1c3.2-11 3.5-16.1 1.6-24.4-.9-4.1-2.3-9-3.1-11-2-4.8-12.7-15.7-18.3-18.6-8.6-4.3-20-5.6-29-3.1m-78.5 16.3c-.9 2.7-1.9 8.7-2.2 13.5l-.6 8.8h18.9c20.9 0 22.7-.4 23.9-5.9 1-4.6-.8-6.6-8.1-9-3.8-1.2-11.6-4.4-17.4-7.2-5.9-2.7-11.1-4.9-11.7-4.9s-1.9 2.1-2.8 4.7m55.4 69.3c-3.5 2.6-24.9 26.5-24.9 27.8 0 2.1 15.5 12.2 18.7 12.2.4 0 1.6-1.5 2.7-3.3 3.3-5.7 16.6-31.3 16.6-31.9 0-.9-8.3-6.8-9.4-6.8-.6 0-2.3.9-3.7 2M176 221.4c-2.5.7-9.4 3.4-15.3 5.9-5.9 2.6-11.1 4.7-11.5 4.7s-1.3.4-2 .9c-1.1.6-.1 2.9 4.2 9.8 9.2 14.8 7.1 14.9 24.3-1.8l14.8-14.4-2.5-2.7c-3.2-3.4-6.3-4-12-2.4m79.8 14.8c-2.1 1.1-3.8 2.4-3.8 3 0 .5 2 4.7 4.5 9.2 2.4 4.5 5.8 11.6 7.5 15.7 1.7 4 3.8 8.4 4.6 9.7 1.4 2.1 1.6 2.1 4.3.8 5.6-3 13.1-9.6 13.1-11.7 0-2.9-23.1-29-25.5-28.8-.5 0-2.7.9-4.7 2.1m-117.3-36.9c-1.3.7-1.5 1.8-.9 5.5.8 5.4 4.2 17.3 5.4 18.5.9 1 33.3-13.9 35.6-16.4 2.2-2.4 1.1-6.7-1.9-7.3-4.4-1-36.6-1.2-38.2-.3m12.5-79.4c-8 3.4-28.4 15.2-44.6 25.7-12.2 7.9-57.2 38.2-60.8 40.9-1.8 1.4-1.8 1.6 1 5.2 6.6 8.7 36.9 37.7 51.9 49.7 18.3 14.6 43.1 31.4 55.4 37.6 21 10.5 43.7 17.5 61.6 19.1 23.5 2 42-.4 64.6-8.6 32.2-11.7 57.6-27.4 91.4-56.6 13-11.2 42.6-42.3 42.5-44.7-.1-.4-2.4-2.3-5.3-4.3-2.9-1.9-12.6-8.9-21.7-15.4-27.5-19.8-69.6-45.6-82.4-50.5-3.8-1.4-3.4-.5 4.7 10.2 7.8 10.4 14.9 24.3 17.9 35.3 1.9 7 2.2 10.7 2.2 28.5.1 23.9-1 29.4-9.4 46.6-11 22.7-25.3 36.7-48.3 47.4-20 9.2-47.1 11.4-69.9 5.6-16.8-4.3-34.1-13.9-45.1-25.2-7-7.1-16.7-21-20.7-29.6-8.7-18.5-11.4-50.3-6.1-70.8 4-15.8 12.3-31.6 22.4-42.6 3.2-3.5 5.7-6.4 5.5-6.4-.1 0-3.2 1.3-6.8 2.9m132.8 78.8c-5.1.8-7.6 7.4-4 10.6.9.9 6.7 3.6 12.8 6 6 2.5 13.3 5.6 16.2 7.1l5.2 2.6 1.4-3.4c2.3-5.5 4.8-16.9 4.4-20.1l-.3-3-16.5-.1c-9.1-.1-17.7 0-19.2.3m-12.7 23.4c-1.1 1.2-2.1 2.9-2.1 3.7s4.2 5.8 9.3 11.1c5 5.3 10.8 11.8 12.7 14.4 1.9 2.5 3.9 4.7 4.3 4.7 1.9 0 10.4-10 13-15.3 1.6-3.3 2.7-6.1 2.5-6.3-1.2-1.1-31.7-13.7-34.4-14.1-2.4-.4-3.6 0-5.3 1.8" style="fill:#ebebeb"/></svg>