<svg xml:space="preserve" fill="#ebebeb" style="fill-rule:evenodd;clip-rule:evenodd;stroke-linejoin:round;stroke-miterlimit:2" viewBox="0 0 434 384" xmlns="http://www.w3.org/2000/svg"><path d="M393 99.9c.5 1.1.7 2.7.4 3.5-.3.9-5.7 5.5-12 10.2-8.9 6.7-11.9 8.5-14.1 8.2-2-.2-3-1.1-3.8-3.2-1.1-3.3-.2-4.3 14.4-14.6 9-6.4 13.2-7.6 15.1-4.1m12 63c2.2.6 2.5 1.3 2.8 5.5l.3 4.8-18.9-.4c-14.1-.2-19.3-.6-20.5-1.7-1.7-1.3-2.3-7.1-1-8.4.8-.9 34.1-.7 37.3.2M379.5 218c16 12.5 17.1 13.9 11.9 16.2-3.4 1.6-7.7-.7-19.6-10.2-8.6-6.9-10.2-9.2-7.6-11.8s6.3-1.2 15.3 5.8M322.8 31.9c9.3 7.3 16 31.4 19.9 71.6 2.2 22.8 2.5 96.8.4 117-5.3 53.2-11.6 77.6-21.6 83.2-5.4 3.1-13.5 3.1-17.8.1-1.8-1.2-7.2-6-12.2-10.8-13.4-12.9-27.3-22.3-55-37.2-32-17.3-64.7-28.8-82-28.8h-4.7l.7 3.2c2 10.1 8.5 37.3 13.7 57.8 6.8 27.1 8 35.8 5.3 41.4-3.3 6.8-11.8 10-30.3 11.2-14.1.9-21.7-1.8-27-9.6-4.9-7.2-15.4-47.9-22.3-85.8l-3.2-18.1-3.1-.7c-8.7-1.9-17.3-8.9-19.7-16.1-.8-2.6-2.3-3.9-6.5-6-13.4-6.5-17.8-13.6-19.9-32.3-1.3-10.6-1.3-13.2-.1-19 .8-3.8 2.1-8.1 3-9.7 2.5-4.9 13.2-14.1 18.6-16 3.2-1.1 5-2.3 5-3.4 0-1.8 4.4-8.7 6.9-10.7.9-.7 3.6-2.3 6.1-3.5 4.4-2.1 5.9-2.2 46.5-2.7 41.5-.6 42.1-.6 53.9-3.4 16.2-3.8 29.5-8.5 46.1-16.5 27.2-13 52-29.8 69.5-46.8 5.8-5.6 11.7-10.7 13-11.2 1.4-.6 4.8-.9 7.6-.8 4 .3 6.1 1.1 9.2 3.6M97.3 230.2c8.4 49.6 19.2 92.7 24.6 98.2 2.8 2.8 9.4 3.6 21.6 2.5 13.1-1.1 15.9-2.1 17.6-6.2 1.1-2.7.9-4.5-1.9-15.6-3.5-13.8-16.8-69.7-18.5-77.4l-1-4.7h-43zM292 167.1v30.1l4.3-2.5c2.3-1.3 5.6-4.4 7.2-6.7 3-4.1 3-4.2 3.3-20.1.4-14.7.2-16.1-1.7-19.3-2.4-3.8-10.5-11.6-12.1-11.6-.7 0-1 10.3-1 30.1M57.9 138.8c-2.5 1.6-5.5 4.2-6.7 5.7-5 6.3-6.5 18.9-3.8 31.6 2 9.2 4.8 14.3 10 17.9l4.5 3 .6-4.2c.3-2.4.5-16.1.3-30.6l-.3-26.3zm222.5-75c-28 20.3-54.8 34.7-80.6 43.1-12.5 4.1-32.5 9.1-36.5 9.1H160v50c0 27.5-.1 50.3-.2 50.7-.2.4 3 1.2 7 1.9 29.1 4.9 84.9 31.2 118 55.6 3 2.2 5.2 3.3 5.2 2.6 0-.8-.9-7.6-2-15.3-4.4-31.9-5.2-42.9-5.7-79.2-.6-44.1 1.4-82.1 6.3-119.6.4-2.6.5-4.7.2-4.7-.2 0-4 2.6-8.4 5.8M81 117.9c-1.9 1-4.5 3.2-5.6 4.9-2.5 3.7-2.9 9.6-3.9 53.9-.6 24.7-.5 26.5 1.4 30.7 1.3 3 3.4 5.4 6.2 7.3l4.3 2.8 67.6.6V117.3l-19.7-.6c-35.1-1.2-46.4-1-50.3 1.2m227.2-79.7c-7.4 3.6-11.7 24.1-14.2 67.6-.7 13.3-.7 17.8.3 19.3.7 1.1 4.5 4.7 8.4 7.9 4 3.3 8.4 7.8 9.8 9.9 3 4.5 4.5 12.6 4.5 25.2 0 18.3-3.4 25.5-16.3 34.7l-7.9 5.7.6 12c1.6 27.8 6.7 62.6 10.3 70.3 2.7 5.7 8.5 8 12.6 4.9 2.7-1.9 9.3-18.4 11.5-28.7 2.7-12.5 4.9-31.8 6.3-56.5 1.3-22.9.6-94.6-1.1-112-2.2-22.5-6-40.1-10.9-51-4.5-9.9-7.9-12.2-13.9-9.3" style="fill:#ebebeb"/></svg>