<svg xml:space="preserve" fill="#ebebeb" style="fill-rule:evenodd;clip-rule:evenodd;stroke-linejoin:round;stroke-miterlimit:2" viewBox="0 0 800 800" xmlns="http://www.w3.org/2000/svg"><path d="M263.356 286.243a7.5 7.5 0 0 0-7.5 7.5v75.572H66.644v-189.22h57.74a7.5 7.5 0 0 0 7.5-7.5 7.5 7.5 0 0 0-7.5-7.5h-57.74v-31.768c0-13.188 10.729-23.917 23.918-23.917h10.799a7.5 7.5 0 0 0 7.5-7.5 7.5 7.5 0 0 0-7.5-7.5H90.562c-21.459 0-38.918 17.458-38.918 38.917v282.755c0 21.459 17.459 38.917 38.918 38.917h141.377c21.459 0 38.918-17.458 38.918-38.917V293.743a7.5 7.5 0 0 0-7.501-7.5ZM231.938 440H90.562c-13.188 0-23.918-10.729-23.918-23.917v-31.768h189.213v31.768c-.001 13.188-10.73 23.917-23.919 23.917Zm-36.372-334.676c-10.906-1.784-11.366-2.85-11.366-5.089 0-3.959 6.645-5.005 10.158-5.005 5.645 0 9.286 1.902 9.967 3.781a7.5 7.5 0 0 0 9.606 4.496 7.5 7.5 0 0 0 4.497-9.606c-3.056-8.433-12.279-13.671-24.07-13.671-14.813 0-25.158 8.226-25.158 20.005 0 15.976 14.989 18.428 23.944 19.893 10.913 1.785 11.373 2.853 11.373 5.098 0 3.959-6.646 5.005-10.159 5.005-5.645 0-9.287-1.903-9.967-3.783a7.5 7.5 0 0 0-14.105 5.103c3.053 8.438 12.276 13.68 24.072 13.68 14.813 0 25.159-8.226 25.159-20.005.001-15.984-14.993-18.437-23.951-19.902Zm137.996 0c-10.906-1.784-11.366-2.85-11.366-5.089 0-3.959 6.645-5.005 10.158-5.005 5.644 0 9.286 1.903 9.968 3.782a7.496 7.496 0 0 0 9.606 4.495 7.5 7.5 0 0 0 4.495-9.607c-3.057-8.432-12.279-13.67-24.069-13.67-14.813 0-25.158 8.226-25.158 20.005 0 15.976 14.989 18.428 23.944 19.893 10.913 1.785 11.373 2.853 11.373 5.098 0 3.959-6.646 5.005-10.159 5.005-5.646 0-9.288-1.904-9.969-3.784a7.497 7.497 0 0 0-9.604-4.5 7.5 7.5 0 0 0-4.499 9.605c3.054 8.438 12.277 13.679 24.072 13.679 14.813 0 25.159-8.226 25.159-20.005 0-15.984-14.993-18.437-23.951-19.902ZM287.29 80.693a7.5 7.5 0 0 0-8.299 2.167l-15.635 18.317-15.635-18.317a7.498 7.498 0 0 0-13.204 4.87v50a7.5 7.5 0 0 0 7.5 7.5 7.5 7.5 0 0 0 7.5-7.5v-29.661l8.135 9.53a7.5 7.5 0 0 0 11.408 0l8.135-9.53v29.661a7.5 7.5 0 0 0 7.5 7.5 7.5 7.5 0 0 0 7.5-7.5v-50a7.5 7.5 0 0 0-4.905-7.037Z" style="fill:#fff;fill-rule:nonzero;stroke:#fff;stroke-width:.57px" transform="scale(1.75824)"/><path d="M361.711 32.448C335.363 11.523 300.434 0 263.355 0s-72.01 11.524-98.356 32.448c-26.854 21.328-41.643 49.839-41.643 80.282 0 53.437 45.967 99.009 110.149 110.165 1.168 16.66-4.858 33.198-16.639 45.091a7.5 7.5 0 0 0 5.328 12.778c34.298 0 63.751-24.484 70.694-57.815 64.351-11.061 110.467-56.692 110.467-110.219.001-30.442-14.789-58.954-41.644-80.282Zm-76.533 176.518a7.5 7.5 0 0 0-6.457 7.944l.008.104c-3.452 22.079-19.215 39.739-39.588 46.15a73.68 73.68 0 0 0 8.82-46.213l.003-.043a7.5 7.5 0 0 0-6.456-7.944c-59.77-8.261-103.151-48.733-103.151-96.233 0-53.889 56.074-97.73 124.999-97.73 68.926 0 125.001 43.841 125.001 97.73-.001 47.508-43.393 87.982-103.179 96.235Z" style="fill:#fff;fill-rule:nonzero;stroke:#fff;stroke-width:.57px" transform="scale(1.75824)"/></svg>