<svg xml:space="preserve" fill="#ebebeb" style="fill-rule:evenodd;clip-rule:evenodd;stroke-linejoin:round;stroke-miterlimit:2" viewBox="0 0 336 416" xmlns="http://www.w3.org/2000/svg"><path d="M195.4 31c18 4.6 32.7 16.2 40.5 32.1 6.5 13.3 7.1 17.4 7.1 57v34.6l7.4.6c11.6.8 11.2.4 12.1 15.9 1.7 31.7-7.3 57.5-26.6 76.7-12.2 12-25.9 18.7-44.9 21.8l-10 1.6v29.6c0 16.3.4 30.1.8 30.8.5.8 7.1 1.2 22.2 1.5 18.7.3 22 .5 25 2.2 8.7 4.6 13.1 11.6 13.3 21.2.1 3.4-.1 6.5-.5 6.9s-2.7 1.1-5 1.6c-6.1 1.2-121.9 1.1-123.8-.1-2.5-1.5-1.9-13.5.8-18.8 2.6-4.9 8.8-9.7 14.6-11.4 2.3-.6 12.9-1.4 23.6-1.7l19.5-.6v-62l-6.9-.8c-8.9-.9-23.4-5.8-31-10.4s-18.4-14.9-24.2-23c-5.2-7.2-11.5-20.4-13.7-28.8-3.3-12.4-4.9-41.7-2.6-46.8 1.6-3.5 4.4-4.8 11.9-5.4l6.8-.6.5-36.1c.5-40.5.7-42 7.9-56.5 7.9-16.3 25.6-29.4 43.8-32.4 7.5-1.3 24.1-.6 31.4 1.3M122 178.3c0 10.2.5 15.9 1.6 19.8 2.7 9.3 8.1 18.3 14.8 24.7 27.1 26 72 17.9 88.5-16.1 4.6-9.4 6.1-16.6 6.1-29.7v-11.7l-24.7-.6c-13.7-.3-38.6-.6-55.5-.7l-30.8-.1zm16.4 164.6c-11.7.8-16 3.5-17.8 11.3l-.6 2.8h27.2c15 0 40.5-.3 56.6-.7 27.7-.6 29.2-.7 29.2-2.5 0-3.5-3-7.8-7-9.8-3.7-1.9-5.7-2-41.2-1.8-20.5.1-41.4.4-46.4.7m-36.8-172.1c-1.6 15.9 3.1 39.9 10.1 52.2 10.3 18.1 23.7 29.4 41.4 34.9 27.8 8.6 57.4 2.4 75.7-16 17.4-17.5 26.7-43.5 24.7-69.2l-.7-8.7H243v9.7c-.2 34.2-15.4 58.5-43.5 69.4-10.4 4-27 5.1-38 2.4-22.7-5.3-40.8-23.1-47.1-46-1-3.7-1.8-11.6-2.1-20.8l-.5-14.7h-9.5zM172 37.7c-7.2 1.1-6.6-.6-6.5 18.5v17.3l-2.9.3c-1.6.2-3.4-.1-4-.8-.6-.6-1.5-7.7-2.1-16.5l-1-15.5-5.5 2.8c-7.1 3.5-17.7 14.1-21.7 21.7-3.6 6.9-6.3 16.5-6.3 22.4V92l22.3.2 22.2.3.3 2.8c.7 5.5-.1 5.7-23.4 5.7H122v24.9l22 .3c19.4.3 22.1.5 23.7 2.1s1.7 2 .2 4.5l-1.5 2.7-44.4-.4V155h111v-19h-42l-1.5-2.4c-1.3-1.9-1.4-2.9-.5-4.5 1-2 1.9-2.1 22.6-2.1h21.5l-.3-12.8-.3-12.7-20.4-.3c-21.3-.3-23.1-.6-23.1-4.6 0-4.3 1.3-4.6 23.2-4.6H233v-5.3c0-16.1-12.7-35-29-43.1l-7.5-3.7-.3 16.2c-.1 9.9-.7 16.8-1.3 17.6-1.4 1.6-6.1 1.7-7.7.1-.8-.8-1.2-6.3-1.2-18.4V38.3l-4.6-.7c-4.8-.6-5.1-.6-9.4.1" style="fill:#ebebeb"/></svg>