<svg xml:space="preserve" fill="#ebebeb" style="fill-rule:evenodd;clip-rule:evenodd;stroke-linejoin:round;stroke-miterlimit:2" viewBox="0 0 328 347" xmlns="http://www.w3.org/2000/svg"><path d="M7330 4783c-321-24-659-177-890-403-267-262-412-613-413-1000 0-170 18-289 68-438 76-228 182-399 345-562 209-209 461-342 755-396 146-28 384-25 525 5 357 76 687 294 878 579 69 104 80 132 63 168-21 48-51 51-164 16-177-55-301-65-463-37-685 118-1070 810-804 1448 64 155 139 257 292 401 60 55 110 108 113 117 8 25-14 65-43 79-24 10-182 32-207 28-5-1-30-3-55-5m60-139c0-4-28-37-63-74-130-137-228-317-284-518-26-91-27-110-27-302s2-211 28-305c31-114 103-273 166-366 166-243 448-430 750-495 101-22 358-25 429-5 23 7 45 10 48 7 8-8-176-188-237-233-396-287-892-331-1321-118-137 67-226 131-340 245-245 244-372 549-373 895-1 640 448 1159 1091 1259 102 16 133 18 133 10" style="fill:#fff;fill-rule:nonzero" transform="matrix(.1 0 0 -.1 -560 512)"/></svg>