<?xml version="1.0" encoding="UTF-8" standalone="no"?><!DOCTYPE svg PUBLIC "-//W3C//DTD SVG 1.1//EN" "http://www.w3.org/Graphics/SVG/1.1/DTD/svg11.dtd"><svg width="100%" height="100%" viewBox="0 0 24 24" version="1.1" xmlns="http://www.w3.org/2000/svg" xmlns:xlink="http://www.w3.org/1999/xlink" xml:space="preserve" xmlns:serif="http://www.serif.com/" style="fill-rule:evenodd;clip-rule:evenodd;stroke-linejoin:round;stroke-miterlimit:2;"><g><g><path d="M13.87,2.642c-3.814,-0.003 -6.965,-0.003 -7.002,0c-0.037,0.003 -0.84,0.011 -1.787,0.016c-1.718,0.011 -1.72,0.011 -2.041,0.08c-0.176,0.037 -0.403,0.099 -0.507,0.141c-0.101,0.04 -0.253,0.109 -0.333,0.152c-0.08,0.043 -0.213,0.131 -0.296,0.195c-0.083,0.064 -0.224,0.195 -0.312,0.291c-0.101,0.112 -0.205,0.267 -0.283,0.421c-0.069,0.136 -0.147,0.339 -0.176,0.453c-0.029,0.115 -0.064,0.307 -0.077,0.427c-0.016,0.133 -0.032,2.161 -0.043,5.167c-0.008,2.721 -0.013,5.908 -0.013,7.082c0,1.712 0.008,2.179 0.037,2.363c0.021,0.125 0.072,0.331 0.115,0.456c0.043,0.125 0.125,0.309 0.181,0.411c0.064,0.117 0.179,0.261 0.32,0.397c0.152,0.149 0.28,0.245 0.429,0.323c0.115,0.061 0.285,0.136 0.376,0.168c0.093,0.029 0.272,0.075 0.4,0.099c0.131,0.021 0.403,0.048 0.608,0.059c0.205,0.011 4.166,0.019 8.802,0.016c6.33,-0.003 8.485,-0.011 8.656,-0.035c0.125,-0.019 0.328,-0.056 0.453,-0.085c0.125,-0.029 0.339,-0.107 0.475,-0.173c0.187,-0.091 0.299,-0.168 0.451,-0.312c0.109,-0.107 0.24,-0.251 0.285,-0.325c0.048,-0.072 0.117,-0.208 0.157,-0.301c0.043,-0.091 0.104,-0.28 0.139,-0.419c0.04,-0.152 0.077,-0.413 0.093,-0.648c0.021,-0.28 0.027,-2.369 0.013,-7.287c-0.008,-4.311 -0.027,-6.991 -0.043,-7.149c-0.013,-0.139 -0.051,-0.355 -0.083,-0.48c-0.029,-0.125 -0.088,-0.293 -0.128,-0.376c-0.037,-0.08 -0.107,-0.2 -0.152,-0.267c-0.045,-0.064 -0.147,-0.179 -0.227,-0.253c-0.077,-0.075 -0.179,-0.163 -0.227,-0.195c-0.045,-0.032 -0.168,-0.099 -0.269,-0.149c-0.101,-0.051 -0.28,-0.115 -0.395,-0.147c-0.115,-0.029 -0.312,-0.067 -0.437,-0.08c-0.144,-0.019 -2.721,-0.029 -7.162,-0.035Zm-0.187,0.501c6.484,0.005 7.303,0.011 7.485,0.048c0.109,0.021 0.296,0.077 0.413,0.123c0.128,0.051 0.275,0.133 0.371,0.211c0.091,0.072 0.197,0.192 0.248,0.272c0.048,0.08 0.112,0.211 0.141,0.293c0.032,0.08 0.075,0.253 0.099,0.387c0.04,0.219 0.045,0.918 0.045,7.535c0,7.295 0,7.295 -0.059,7.546c-0.035,0.139 -0.107,0.349 -0.165,0.467c-0.064,0.133 -0.155,0.267 -0.235,0.344c-0.069,0.072 -0.176,0.157 -0.235,0.195c-0.061,0.035 -0.163,0.083 -0.227,0.107c-0.067,0.024 -0.163,0.053 -0.213,0.067c-0.051,0.013 -0.195,0.045 -0.32,0.069c-0.211,0.043 -0.87,0.048 -8.709,0.056c-5.839,0.005 -8.61,0 -8.896,-0.021c-0.227,-0.013 -0.515,-0.051 -0.64,-0.08c-0.125,-0.032 -0.325,-0.104 -0.448,-0.165c-0.12,-0.059 -0.275,-0.16 -0.339,-0.224c-0.064,-0.061 -0.16,-0.179 -0.213,-0.261c-0.051,-0.08 -0.117,-0.208 -0.147,-0.285c-0.032,-0.077 -0.077,-0.224 -0.101,-0.328c-0.04,-0.176 -0.045,-0.589 -0.037,-5.471c0.003,-2.905 0.013,-6.146 0.021,-7.202c0.011,-1.478 0.021,-1.969 0.051,-2.134c0.021,-0.117 0.061,-0.285 0.093,-0.371c0.029,-0.088 0.085,-0.213 0.125,-0.28c0.04,-0.067 0.125,-0.179 0.189,-0.248c0.067,-0.069 0.197,-0.176 0.293,-0.237c0.096,-0.061 0.259,-0.147 0.36,-0.187c0.104,-0.043 0.307,-0.104 0.456,-0.133c0.253,-0.056 0.363,-0.059 1.736,-0.069c0.808,-0.005 1.491,-0.013 1.52,-0.019c0.029,-0.003 3.332,-0.005 7.335,-0.003Z" style="fill-rule:nonzero;"/><path d="M19.939,3.912c-0.443,-0.005 -0.603,0.003 -0.699,0.032c-0.075,0.024 -0.181,0.093 -0.269,0.173c-0.104,0.096 -0.16,0.171 -0.189,0.261c-0.024,0.069 -0.051,0.237 -0.061,0.373c-0.016,0.248 -0.016,0.248 -0.128,0.325c-0.061,0.043 -0.2,0.171 -0.309,0.288c-0.109,0.117 -0.237,0.277 -0.288,0.36c-0.048,0.083 -0.117,0.224 -0.155,0.312c-0.035,0.091 -0.083,0.243 -0.101,0.341c-0.021,0.099 -0.04,0.285 -0.04,0.416c0,0.133 0.019,0.317 0.043,0.413c0.024,0.096 0.093,0.285 0.16,0.419c0.088,0.187 0.163,0.296 0.317,0.461c0.112,0.117 0.288,0.269 0.387,0.336c0.101,0.067 0.264,0.157 0.365,0.203c0.099,0.045 0.187,0.088 0.192,0.093c0.005,0.005 0.008,0.413 0.005,0.91c-0.003,0.496 -0.011,1.171 -0.019,1.502c-0.008,0.331 -0.024,0.707 -0.04,0.84c-0.013,0.131 -0.045,0.312 -0.067,0.4c-0.024,0.088 -0.083,0.248 -0.133,0.357c-0.051,0.107 -0.157,0.293 -0.237,0.413c-0.08,0.117 -0.331,0.443 -0.555,0.723c-0.243,0.301 -0.424,0.504 -0.445,0.499c-0.021,-0.005 -0.093,-0.016 -0.16,-0.024c-0.067,-0.008 -0.171,0 -0.235,0.016c-0.061,0.019 -0.155,0.069 -0.208,0.115c-0.051,0.045 -0.235,0.283 -0.408,0.525c-0.173,0.243 -0.413,0.581 -0.531,0.752c-0.155,0.219 -0.224,0.344 -0.24,0.427c-0.011,0.064 -0.013,0.171 0,0.235c0.011,0.064 0.048,0.16 0.083,0.213c0.043,0.064 0.224,0.203 0.528,0.408c0.256,0.171 0.509,0.331 0.563,0.352c0.056,0.024 0.139,0.043 0.187,0.043c0.048,0 0.136,-0.013 0.195,-0.029c0.069,-0.019 0.152,-0.077 0.24,-0.168c0.075,-0.075 0.283,-0.352 0.467,-0.614c0.184,-0.264 0.384,-0.552 0.448,-0.64c0.064,-0.091 0.139,-0.208 0.168,-0.261c0.035,-0.067 0.051,-0.152 0.051,-0.259c0,-0.091 -0.019,-0.211 -0.043,-0.269c-0.043,-0.109 -0.043,-0.109 0.069,-0.243c0.061,-0.075 0.283,-0.347 0.491,-0.606c0.208,-0.261 0.421,-0.539 0.475,-0.619c0.051,-0.08 0.125,-0.2 0.16,-0.267c0.035,-0.067 0.109,-0.221 0.163,-0.347c0.053,-0.125 0.12,-0.32 0.149,-0.432c0.032,-0.115 0.072,-0.336 0.093,-0.493c0.021,-0.16 0.045,-0.589 0.053,-0.955c0.008,-0.368 0.016,-1.086 0.019,-1.595c0.003,-0.843 0.005,-0.931 0.045,-0.942c0.024,-0.008 0.123,-0.045 0.219,-0.083c0.096,-0.035 0.253,-0.12 0.352,-0.184c0.096,-0.064 0.267,-0.213 0.373,-0.328c0.115,-0.12 0.24,-0.288 0.293,-0.392c0.053,-0.101 0.123,-0.261 0.155,-0.357c0.043,-0.125 0.061,-0.264 0.072,-0.493c0.011,-0.267 0.005,-0.36 -0.043,-0.557c-0.032,-0.139 -0.107,-0.333 -0.181,-0.475c-0.091,-0.176 -0.181,-0.301 -0.344,-0.472c-0.12,-0.128 -0.248,-0.248 -0.285,-0.267c-0.061,-0.032 -0.067,-0.048 -0.077,-0.333c-0.011,-0.235 -0.024,-0.32 -0.069,-0.405c-0.029,-0.061 -0.088,-0.149 -0.128,-0.195c-0.037,-0.045 -0.125,-0.117 -0.195,-0.157c-0.123,-0.072 -0.125,-0.072 -0.696,-0.077Zm0.405,0.496c0.037,0.003 0.099,0.037 0.133,0.075c0.061,0.067 0.061,0.067 0.056,0.816c-0.003,0.437 -0.016,0.782 -0.032,0.824c-0.013,0.04 -0.056,0.091 -0.093,0.115c-0.053,0.035 -0.144,0.043 -0.488,0.045c-0.232,0 -0.453,-0.003 -0.493,-0.003c-0.04,-0.003 -0.112,-0.037 -0.157,-0.077c-0.083,-0.075 -0.083,-0.075 -0.08,-0.659c0.003,-0.323 0.011,-0.686 0.019,-0.806c0.013,-0.171 0.029,-0.229 0.069,-0.267c0.045,-0.04 0.123,-0.051 0.525,-0.061c0.259,-0.008 0.501,-0.008 0.541,-0.003Zm-0.496,2.377l0.179,0l-0.019,0.939c-0.008,0.517 -0.021,1.576 -0.029,2.355c-0.008,0.776 -0.021,1.544 -0.029,1.707c-0.008,0.16 -0.032,0.389 -0.053,0.507c-0.021,0.117 -0.069,0.309 -0.107,0.424c-0.037,0.117 -0.109,0.299 -0.157,0.403c-0.051,0.104 -0.149,0.28 -0.221,0.389c-0.072,0.109 -0.301,0.408 -0.507,0.664c-0.208,0.256 -0.411,0.507 -0.453,0.555c-0.072,0.088 -0.072,0.088 -0.192,0.003c-0.067,-0.045 -0.131,-0.093 -0.141,-0.104c-0.013,-0.011 0.155,-0.24 0.373,-0.509c0.219,-0.269 0.467,-0.589 0.549,-0.707c0.083,-0.12 0.2,-0.312 0.256,-0.427c0.059,-0.117 0.136,-0.312 0.171,-0.437c0.037,-0.125 0.08,-0.317 0.093,-0.427c0.016,-0.109 0.035,-0.44 0.043,-0.734c0.008,-0.293 0.021,-1.355 0.032,-2.361c0.011,-1.006 0.021,-1.881 0.024,-1.947c0.005,-0.067 0.011,-0.16 0.011,-0.208c0.003,-0.085 0.003,-0.085 0.179,-0.085Z" style="fill-rule:nonzero;"/><path d="M9.896,4.16c-0.323,-0.008 -0.63,-0.008 -0.68,0c-0.051,0.005 -0.213,0.024 -0.36,0.04c-0.147,0.016 -0.411,0.059 -0.587,0.093c-0.176,0.035 -0.467,0.104 -0.646,0.155c-0.179,0.051 -0.443,0.139 -0.587,0.192c-0.144,0.053 -0.384,0.155 -0.533,0.224c-0.149,0.072 -0.389,0.197 -0.533,0.283c-0.144,0.083 -0.357,0.219 -0.475,0.299c-0.117,0.083 -0.333,0.248 -0.48,0.368c-0.147,0.12 -0.416,0.373 -0.6,0.56c-0.184,0.189 -0.408,0.435 -0.496,0.544c-0.088,0.109 -0.216,0.277 -0.283,0.373c-0.067,0.096 -0.211,0.328 -0.32,0.52c-0.109,0.189 -0.259,0.485 -0.333,0.654c-0.072,0.168 -0.171,0.408 -0.216,0.533c-0.045,0.125 -0.107,0.309 -0.136,0.413c-0.029,0.101 -0.085,0.317 -0.123,0.48c-0.037,0.16 -0.093,0.485 -0.123,0.72c-0.048,0.365 -0.053,0.517 -0.043,1.054c0.008,0.344 0.032,0.747 0.056,0.894c0.021,0.147 0.059,0.363 0.083,0.48c0.024,0.115 0.085,0.352 0.133,0.523c0.051,0.173 0.133,0.432 0.187,0.576c0.053,0.144 0.197,0.464 0.32,0.715c0.123,0.248 0.315,0.592 0.427,0.76c0.112,0.168 0.296,0.421 0.408,0.56c0.115,0.139 0.368,0.416 0.565,0.614c0.197,0.2 0.485,0.459 0.64,0.576c0.155,0.117 0.381,0.28 0.507,0.36c0.125,0.083 0.339,0.213 0.472,0.288c0.136,0.077 0.328,0.176 0.427,0.221c0.101,0.045 0.283,0.123 0.408,0.173c0.123,0.048 0.381,0.136 0.573,0.192c0.192,0.059 0.475,0.128 0.627,0.16c0.155,0.029 0.427,0.075 0.608,0.096c0.2,0.027 0.531,0.043 0.854,0.043c0.371,0 0.638,-0.016 0.912,-0.053c0.213,-0.029 0.507,-0.077 0.654,-0.109c0.147,-0.029 0.424,-0.104 0.614,-0.163c0.192,-0.059 0.456,-0.152 0.587,-0.203c0.133,-0.053 0.413,-0.187 0.627,-0.296c0.213,-0.109 0.52,-0.288 0.68,-0.397c0.163,-0.112 0.379,-0.269 0.48,-0.349c0.104,-0.083 0.293,-0.245 0.424,-0.363c0.131,-0.12 0.347,-0.336 0.477,-0.483c0.133,-0.147 0.349,-0.411 0.48,-0.587c0.131,-0.176 0.323,-0.464 0.424,-0.638c0.104,-0.176 0.261,-0.477 0.347,-0.667c0.088,-0.192 0.219,-0.523 0.288,-0.736c0.072,-0.213 0.16,-0.525 0.2,-0.694c0.037,-0.168 0.085,-0.421 0.107,-0.56c0.021,-0.139 0.051,-0.429 0.069,-0.643c0.027,-0.307 0.027,-0.501 0.003,-0.894c-0.019,-0.277 -0.051,-0.619 -0.072,-0.758c-0.021,-0.139 -0.056,-0.331 -0.077,-0.427c-0.019,-0.096 -0.056,-0.251 -0.08,-0.347c-0.024,-0.096 -0.083,-0.288 -0.128,-0.427c-0.045,-0.139 -0.123,-0.355 -0.176,-0.48c-0.051,-0.125 -0.155,-0.352 -0.232,-0.507c-0.077,-0.155 -0.165,-0.328 -0.2,-0.387c-0.032,-0.059 -0.125,-0.208 -0.205,-0.333c-0.083,-0.125 -0.24,-0.347 -0.352,-0.493c-0.112,-0.147 -0.371,-0.435 -0.576,-0.64c-0.205,-0.208 -0.456,-0.443 -0.56,-0.523c-0.101,-0.083 -0.283,-0.216 -0.4,-0.296c-0.117,-0.083 -0.28,-0.187 -0.36,-0.235c-0.08,-0.048 -0.253,-0.144 -0.387,-0.213c-0.131,-0.072 -0.395,-0.195 -0.587,-0.275c-0.189,-0.08 -0.461,-0.181 -0.603,-0.227c-0.141,-0.045 -0.387,-0.115 -0.547,-0.152c-0.16,-0.035 -0.445,-0.091 -0.638,-0.12c-0.245,-0.04 -0.517,-0.059 -0.934,-0.064Zm-0.227,4.521c0.125,0 0.341,0.016 0.48,0.037c0.139,0.021 0.344,0.069 0.453,0.107c0.109,0.037 0.283,0.109 0.387,0.163c0.101,0.053 0.261,0.149 0.352,0.216c0.091,0.064 0.243,0.195 0.336,0.288c0.096,0.096 0.235,0.261 0.309,0.371c0.075,0.109 0.184,0.299 0.243,0.421c0.059,0.123 0.136,0.328 0.171,0.456c0.037,0.128 0.083,0.363 0.101,0.52c0.027,0.24 0.024,0.339 -0.011,0.622c-0.024,0.189 -0.075,0.424 -0.115,0.547c-0.04,0.115 -0.125,0.312 -0.187,0.437c-0.064,0.125 -0.171,0.304 -0.243,0.4c-0.069,0.093 -0.213,0.256 -0.317,0.36c-0.104,0.104 -0.28,0.248 -0.387,0.32c-0.109,0.069 -0.285,0.168 -0.389,0.216c-0.104,0.048 -0.291,0.117 -0.413,0.152c-0.123,0.037 -0.347,0.08 -0.496,0.096c-0.195,0.024 -0.344,0.024 -0.541,0.003c-0.149,-0.013 -0.344,-0.045 -0.429,-0.067c-0.088,-0.024 -0.251,-0.077 -0.36,-0.12c-0.112,-0.043 -0.291,-0.128 -0.395,-0.189c-0.104,-0.061 -0.256,-0.163 -0.336,-0.224c-0.08,-0.064 -0.2,-0.171 -0.267,-0.243c-0.067,-0.072 -0.171,-0.197 -0.229,-0.277c-0.061,-0.08 -0.147,-0.213 -0.195,-0.296c-0.045,-0.085 -0.12,-0.24 -0.163,-0.347c-0.045,-0.104 -0.104,-0.291 -0.136,-0.408c-0.029,-0.123 -0.059,-0.355 -0.069,-0.539c-0.011,-0.248 -0.005,-0.387 0.032,-0.587c0.027,-0.147 0.085,-0.376 0.133,-0.509c0.048,-0.136 0.133,-0.325 0.187,-0.421c0.053,-0.096 0.168,-0.269 0.256,-0.384c0.085,-0.117 0.221,-0.269 0.299,-0.336c0.075,-0.069 0.211,-0.179 0.299,-0.24c0.088,-0.064 0.269,-0.168 0.4,-0.235c0.133,-0.067 0.325,-0.147 0.427,-0.176c0.104,-0.032 0.277,-0.075 0.387,-0.093c0.109,-0.021 0.301,-0.037 0.427,-0.04Z" style="fill-rule:nonzero;"/><path d="M8.111,10.743c-0.075,-0.005 -0.173,0.003 -0.219,0.016c-0.045,0.013 -0.141,0.077 -0.211,0.139c-0.072,0.064 -0.155,0.171 -0.189,0.248c-0.043,0.091 -0.064,0.181 -0.064,0.288c0,0.115 0.019,0.195 0.072,0.304c0.04,0.08 0.125,0.192 0.189,0.251c0.083,0.072 0.152,0.107 0.24,0.123c0.069,0.011 0.16,0.016 0.205,0.011c0.043,-0.003 0.12,-0.029 0.173,-0.056c0.051,-0.027 0.144,-0.101 0.203,-0.165c0.061,-0.064 0.131,-0.152 0.155,-0.2c0.027,-0.051 0.043,-0.152 0.043,-0.253c0,-0.093 -0.013,-0.213 -0.029,-0.269c-0.016,-0.056 -0.072,-0.149 -0.123,-0.208c-0.053,-0.059 -0.144,-0.133 -0.203,-0.163c-0.059,-0.029 -0.168,-0.056 -0.243,-0.064Zm0.133,0.309c0.048,0 0.101,0.021 0.131,0.053c0.035,0.037 0.043,0.075 0.029,0.147c-0.013,0.064 -0.04,0.104 -0.083,0.125c-0.035,0.016 -0.093,0.021 -0.133,0.011c-0.04,-0.011 -0.08,-0.045 -0.096,-0.088c-0.016,-0.04 -0.019,-0.104 -0.011,-0.141c0.011,-0.035 0.032,-0.075 0.048,-0.085c0.019,-0.011 0.069,-0.021 0.115,-0.021Z" style="fill-rule:nonzero;"/><path d="M11.283,10.759c-0.064,0 -0.165,0.029 -0.248,0.069c-0.077,0.037 -0.179,0.115 -0.227,0.171c-0.048,0.056 -0.107,0.16 -0.133,0.232c-0.024,0.069 -0.045,0.181 -0.045,0.248c0,0.067 0.013,0.168 0.029,0.227c0.019,0.072 0.08,0.157 0.181,0.256c0.107,0.109 0.184,0.16 0.269,0.184c0.067,0.019 0.179,0.032 0.248,0.032c0.088,-0.003 0.168,-0.024 0.245,-0.069c0.061,-0.037 0.147,-0.107 0.184,-0.152c0.04,-0.045 0.093,-0.128 0.123,-0.181c0.027,-0.053 0.056,-0.152 0.067,-0.221c0.013,-0.083 0.005,-0.171 -0.024,-0.267c-0.021,-0.08 -0.083,-0.192 -0.136,-0.253c-0.053,-0.061 -0.165,-0.147 -0.259,-0.192c-0.104,-0.053 -0.203,-0.083 -0.275,-0.083Zm0.173,0.347c0.045,0 0.104,0.024 0.133,0.053c0.029,0.029 0.053,0.083 0.053,0.12c0,0.037 -0.029,0.099 -0.067,0.136c-0.051,0.048 -0.083,0.061 -0.128,0.051c-0.032,-0.011 -0.075,-0.037 -0.091,-0.061c-0.019,-0.024 -0.035,-0.077 -0.035,-0.12c0,-0.04 0.013,-0.099 0.027,-0.128c0.019,-0.032 0.056,-0.051 0.107,-0.051Z" style="fill-rule:nonzero;"/><path d="M19.925,16.526c-0.117,0 -0.243,0.008 -0.28,0.013c-0.037,0.005 -0.125,0.029 -0.2,0.053c-0.072,0.021 -0.216,0.085 -0.32,0.136c-0.128,0.067 -0.256,0.165 -0.4,0.312c-0.168,0.168 -0.24,0.261 -0.328,0.44c-0.061,0.125 -0.128,0.304 -0.152,0.4c-0.021,0.096 -0.04,0.269 -0.04,0.389c0,0.131 0.021,0.299 0.053,0.424c0.029,0.115 0.096,0.288 0.152,0.384c0.053,0.096 0.176,0.259 0.272,0.36c0.096,0.101 0.253,0.235 0.349,0.296c0.096,0.061 0.24,0.136 0.32,0.168c0.08,0.032 0.2,0.069 0.267,0.085c0.067,0.013 0.216,0.027 0.333,0.027c0.136,0 0.285,-0.019 0.408,-0.053c0.109,-0.029 0.283,-0.099 0.387,-0.152c0.141,-0.069 0.253,-0.157 0.421,-0.325c0.171,-0.173 0.251,-0.277 0.325,-0.429c0.053,-0.109 0.115,-0.277 0.136,-0.373c0.024,-0.096 0.043,-0.288 0.043,-0.427c0,-0.141 -0.019,-0.325 -0.04,-0.413c-0.021,-0.088 -0.085,-0.251 -0.139,-0.36c-0.075,-0.157 -0.149,-0.253 -0.339,-0.443c-0.192,-0.189 -0.285,-0.261 -0.451,-0.341c-0.115,-0.053 -0.291,-0.117 -0.387,-0.139c-0.099,-0.019 -0.275,-0.035 -0.392,-0.032Zm0.12,0.491c0.067,0.008 0.192,0.037 0.283,0.067c0.091,0.029 0.221,0.091 0.293,0.133c0.128,0.083 0.128,0.083 -0.061,0.261c-0.104,0.096 -0.504,0.469 -0.888,0.83c-0.384,0.36 -0.715,0.656 -0.736,0.662c-0.024,0.005 -0.067,-0.051 -0.117,-0.16c-0.043,-0.093 -0.091,-0.253 -0.107,-0.357c-0.021,-0.133 -0.021,-0.24 0,-0.373c0.016,-0.107 0.067,-0.261 0.12,-0.371c0.051,-0.104 0.141,-0.24 0.205,-0.301c0.061,-0.064 0.16,-0.149 0.221,-0.189c0.059,-0.043 0.163,-0.096 0.232,-0.123c0.069,-0.027 0.197,-0.056 0.28,-0.067c0.085,-0.013 0.208,-0.016 0.275,-0.011Zm1.059,0.814c0.035,0.091 0.072,0.243 0.08,0.333c0.008,0.093 0,0.24 -0.016,0.328c-0.019,0.088 -0.056,0.219 -0.088,0.288c-0.029,0.072 -0.101,0.189 -0.157,0.264c-0.056,0.077 -0.176,0.187 -0.269,0.248c-0.093,0.061 -0.245,0.133 -0.339,0.163c-0.107,0.035 -0.245,0.053 -0.376,0.053c-0.131,0 -0.269,-0.019 -0.379,-0.053c-0.093,-0.027 -0.192,-0.069 -0.221,-0.091c-0.051,-0.04 -0.045,-0.048 0.149,-0.235c0.112,-0.107 0.509,-0.48 0.88,-0.832c0.675,-0.638 0.675,-0.638 0.736,-0.467Z" style="fill-rule:nonzero;"/><path d="M3.555,17.758c-0.125,-0.005 -0.245,0.003 -0.336,0.029c-0.077,0.021 -0.203,0.08 -0.28,0.128c-0.075,0.051 -0.179,0.136 -0.229,0.192c-0.051,0.059 -0.12,0.168 -0.155,0.245c-0.035,0.077 -0.077,0.219 -0.091,0.312c-0.019,0.115 -0.019,0.219 0,0.32c0.016,0.08 0.059,0.208 0.096,0.283c0.037,0.075 0.112,0.181 0.163,0.24c0.051,0.056 0.149,0.139 0.219,0.181c0.069,0.045 0.197,0.101 0.285,0.125c0.115,0.035 0.213,0.043 0.36,0.032c0.157,-0.011 0.243,-0.032 0.373,-0.099c0.093,-0.045 0.227,-0.144 0.296,-0.216c0.069,-0.072 0.16,-0.2 0.203,-0.283c0.069,-0.141 0.075,-0.179 0.075,-0.448c0,-0.283 -0.003,-0.299 -0.091,-0.459c-0.048,-0.093 -0.149,-0.221 -0.221,-0.291c-0.072,-0.067 -0.205,-0.157 -0.301,-0.2c-0.125,-0.061 -0.221,-0.085 -0.365,-0.093Zm-0.016,0.501c0.181,0.008 0.213,0.016 0.304,0.091c0.056,0.045 0.131,0.133 0.165,0.2c0.051,0.096 0.061,0.147 0.053,0.277c-0.005,0.093 -0.032,0.205 -0.064,0.267c-0.032,0.059 -0.107,0.141 -0.168,0.187c-0.104,0.072 -0.133,0.08 -0.323,0.08c-0.189,0 -0.219,-0.008 -0.325,-0.08c-0.075,-0.053 -0.141,-0.131 -0.189,-0.227c-0.061,-0.12 -0.075,-0.173 -0.064,-0.285c0.005,-0.093 0.035,-0.181 0.088,-0.267c0.053,-0.085 0.117,-0.147 0.197,-0.189c0.101,-0.053 0.152,-0.061 0.325,-0.053Z" style="fill-rule:nonzero;"/></g></g></svg>