<?xml version="1.0" encoding="UTF-8" standalone="no"?><!DOCTYPE svg PUBLIC "-//W3C//DTD SVG 1.1//EN" "http://www.w3.org/Graphics/SVG/1.1/DTD/svg11.dtd"><svg width="100%" height="100%" viewBox="0 0 24 24" version="1.1" xmlns="http://www.w3.org/2000/svg" xmlns:xlink="http://www.w3.org/1999/xlink" xml:space="preserve" xmlns:serif="http://www.serif.com/" style="fill-rule:evenodd;clip-rule:evenodd;stroke-linejoin:round;stroke-miterlimit:2;"><path d="M7,4.25l0,16.5c0,0.69 -0.56,1.25 -1.25,1.25l-2.5,0c-0.69,0 -1.25,-0.56 -1.25,-1.25l0,-16.5c0,-0.69 0.56,-1.25 1.25,-1.25l2.5,0c0.69,0 1.25,0.56 1.25,1.25Z"/><path d="M14,4.25l0,16.5c0,0.69 -0.56,1.25 -1.25,1.25l-2.5,0c-0.69,0 -1.25,-0.56 -1.25,-1.25l0,-16.5c0,-0.69 0.56,-1.25 1.25,-1.25l2.5,0c0.69,0 1.25,0.56 1.25,1.25Z"/><path d="M19.837,3.984l2.279,16.342c0.095,0.683 -0.382,1.315 -1.065,1.411l-2.476,0.345c-0.683,0.095 -1.315,-0.382 -1.411,-1.065l-2.279,-16.342c-0.095,-0.683 0.382,-1.315 1.065,-1.411l2.476,-0.345c0.683,-0.095 1.315,0.382 1.411,1.065Z"/></svg>