<svg xml:space="preserve" fill="#ebebeb" style="fill-rule:evenodd;clip-rule:evenodd;stroke-linejoin:round;stroke-miterlimit:2" viewBox="0 0 375 347" xmlns="http://www.w3.org/2000/svg"><path d="M1930 4778c-50-14-97-53-123-101l-22-42-3-939-2-939-88 2c-76 2-91-1-115-19l-27-21v-228c0-208 2-229 18-244 15-14 41-17 140-17h122v-99c0-96 1-100 26-120 34-26 54-26 88 0 25 20 26 24 26 120v99h2140v-95c0-88 2-98 25-120 30-30 54-31 89-4 25 20 26 24 26 120v99h124c174 0 166-13 166 267 0 214 0 214-25 238-22 23-32 25-115 25h-90v1866l-25 50c-26 52-70 88-126 104-46 14-2182 12-2229-2m2226-152c12-17 14-162 14-943v-923h-250v628c0 345-3 637-6 650-14 50-30 52-483 52h-419l-4 131c-3 129-3 131-31 155l-28 24h-364c-246 0-372-4-388-11-14-6-30-22-36-36-8-17-11-256-11-813v-790l-110 3-110 4v1858l21 18c20 16 82 17 1106 15 1060-3 1085-3 1099-22M2568 3508l-3-753h-270l-3 753-2 752h280zm292 752V2755h-150v1505zm915-315V2755l-382-3-383-2v1200l383-2zm625-1335v-240H1680v240z" style="fill:#fff;fill-rule:nonzero" transform="matrix(.1 0 0 -.1 -106 512)"/><path d="M3425 3689c-71-16-136-36-145-44-12-13-16-50-18-200-3-166-5-185-20-185-28 0-80-37-97-69-56-109 65-216 172-151 64 39 68 52 71 286l3 212 56 11c31 6 60 11 65 11 4 0 8-57 8-126v-126l-40-37c-56-50-62-90-22-131q30-30 60-30c37 0 90 35 119 79 22 32 23 43 22 220 0 270-11 312-78 310-14 0-84-14-156-30" style="fill:#fff;fill-rule:nonzero" transform="matrix(.1 0 0 -.1 -106 512)"/></svg>