<svg xml:space="preserve" fill="#ebebeb" style="fill-rule:evenodd;clip-rule:evenodd;stroke-linejoin:round;stroke-miterlimit:2" viewBox="0 0 245 255" xmlns="http://www.w3.org/2000/svg"><path d="M2215 8571c-319-65-590-121-603-125-52-17-52-13-52-714v-649l-57 29c-155 76-345 47-464-72-65-65-92-141-87-240 8-132 79-233 206-293 62-30 75-32 172-32 95 0 111 3 167 29 73 33 152 112 186 183l22 48 3 787c2 734 4 787 20 792 9 3 139 30 287 60 149 31 370 76 493 101s227 45 233 45c5 0 9-230 9-591 0-325-3-589-7-587-147 74-253 84-380 36-67-25-156-105-191-172-23-44-27-63-27-136s4-93 28-142c35-72 121-150 197-179 172-67 384-9 471 129 61 96 59 70 59 954v809l-25 24c-15 16-35 25-52 24-15 0-289-54-608-118m424-1343c97-51 138-156 93-244-25-49-45-67-102-93-137-62-323 22-337 152-18 159 185 267 346 185m-1204-248c83-35 135-119 121-195-9-46-44-94-94-129-37-26-54-31-118-34-65-4-81-1-130 23-80 39-117 98-112 177 3 46 11 65 35 95 70 87 186 111 298 63" style="fill:#fff;fill-rule:nonzero" transform="matrix(.1 0 0 -.1 -75 880)"/></svg>