<svg xml:space="preserve" fill="#ebebeb" style="fill-rule:evenodd;clip-rule:evenodd;stroke-linejoin:round;stroke-miterlimit:2" viewBox="0 0 388 442" xmlns="http://www.w3.org/2000/svg"><path d="M124.1 28.1c10.2 3.4 14.9 6.3 24 15.1 12.1 11.8 10.3 10.9 19.4 9.3 10.8-1.9 31.3-1.9 46.1.1l12.2 1.6 6.8-6.9c17.5-17.8 39.1-25.4 51.6-18.1 8.3 4.9 13.4 13.4 15.7 26.4 1.6 8.5 1.6 30.2 0 41.1l-1.3 9.2 3 5.8c1.6 3.2 3.7 5.9 4.6 6.1s3.1-1 5-2.6c7.4-6.5 19.8-10.1 30.6-8.8 11.2 1.3 24.1 11.4 28 21.9 3.7 9.7 2.9 15.7-3.1 24.3-2.6 3.8-2.9 5.2-4.2 20.5-1.7 19-3.4 28.3-7.6 41.2-8.6 26.3-21.1 42.4-39.9 51.5-4.1 2-7.8 4.1-8.2 4.6-1.3 1.9-.9 6.8 1.6 17.6 1.9 8.2 3.3 11.8 6.4 16.5 7.1 10.7 8.6 16.2 8.6 30.5 0 10.9-.3 13.4-2.6 19.8-1.5 4-3.8 8.8-5.2 10.7l-2.6 3.3 2.5 5.4c3.3 7.1 3.3 13.6-.1 20.8-3.1 6.6-5.6 9.5-10.9 12.3-3.9 2.1-4.9 2.2-44.5 2.2h-40.5L210 413c-9 3.2-10.2 3.4-22.5 3.4-13.7.1-18.6-1-32.1-6.9-4.7-2.1-5.8-2.2-15.5-1.3-5.7.5-20.5.8-32.9.6-24.8-.3-26.2-.6-31.5-7-6.9-8.2-8.5-19.9-4-29.6l2.5-5.3-3.1-6.1c-4.1-8.2-5.7-13.6-6.4-22.7-1.2-14.1 3.2-27.6 12.2-37.2l4.5-4.8-3.7-5.9c-2-3.2-5-9.4-6.7-13.8-4.1-10.2-4.4-20.2-.9-31.4 4.9-15.9 12.5-25.6 24.8-31.9 8.9-4.5 9-5.6.8-15.2-10.1-11.8-16.3-29.5-17.2-48.9-.7-14.1.7-23.2 5.3-36.8l3.5-10.2-1.6-10.4c-2.7-18.1-1.4-36 3.5-49 5.4-14.2 18.9-19.8 35.1-14.5m182.5 130.1c-.8 1.8-3 8.5-5 14.8-4.1 13.3-9.6 23.2-15.3 27.5-3.2 2.4-4.2 3.8-4.6 7-.3 2.2-1.2 7.7-2 12.2-2.8 17-10.2 22.2-40.9 28.9-22.3 4.8-22.4 4.8-26.3 10.9-3.8 5.9-8.7 9.7-15.3 11.6-9.3 2.7-21.7-3.1-28.5-13.3-3.6-5.5-4-5.7-9.1-6.3-8.9-1.1-9.6-.6-5.5 4 2 2.2 5.4 6.7 7.7 10.1l4.1 6.1 12.8 3.1c16.8 4.1 27.3 9.4 36.9 18.4 8.2 7.8 10.9 12.6 18.4 33.4 7 19.2 10 31.9 10 42.5 0 9.9-1.4 14.6-6.6 22.5-2 3-3.4 5.7-3.2 5.9.3.3 6.6.8 14.1 1.2l13.7.6v-7c0-7.5 1.5-10.3 5.6-10.3 3.3 0 4.4 2.1 4.4 8.1 0 8.2.4 8.9 5.6 8.9h4.4v-7.3c0-8 .9-9.7 5.2-9.7 3.7 0 4.8 2.4 4.8 10.4 0 7.1.7 7.9 5.5 6.3 9.1-3 13.3-14.2 8.2-21.8-4.5-6.7-10.7-9.4-24-10.5-8.9-.8-11-2.1-10.1-6.2 1-4.1 1.7-4.4 9.4-5 5.9-.4 8.5 0 15.6 2.3 10.2 3.3 10.3 3.3 13.9-7.1 4.1-11.7 2.9-26-3-35.3-3-4.9-8.9-9.9-12.3-10.6-1.5-.4-3.5-.8-4.4-1-3.4-.6-9.8 1.8-13.8 5.2-4.5 3.9-10.3 11.9-14.4 20-2.1 4.2-3.1 5.3-5 5.3-3 0-5.6-2.4-5.6-5.1 0-2.6 3.2-8.8 9-17.4 9.4-13.8 16.2-17.8 29.7-17.9 4.6-.1 8.3-.2 8.3-.3 0-.8-4.2-24.2-4.5-25.4-.9-2.8 2.7-5.8 10.5-9 11.1-4.5 15.1-7.1 21.8-14.5 10-10.8 18.1-28.5 22-47.9 2.7-13.2 4.8-33.3 3.6-34.4-.5-.5-4.3-.5-8.4 0-4.7.5-8.9.5-11.3-.2-2.1-.6-5.1-.7-6.7-.4-1.9.4-3.3.1-4.4-1-.9-.9-1.6-1.2-1.6-.6 0 1.2-7.5-2.2-8.5-3.9-1.2-2-3.6-.9-4.9 2.2m-49.2 59.3c-11 4.4-32.4 9.5-40 9.5-6.6 0-6.9.9-3.2 7.8 1.8 3.4 4 6.4 4.9 6.7 2.5.8 15.7-2 29.2-6.4 19.4-6.2 21-7.4 22.3-16.9.5-4.1.4-5.2-.7-5.1-.8 0-6.4 2-12.5 4.4m10.1-180.1c-7.1 2.3-18.7 8.9-23.9 13.7l-5.1 4.7 13.6 6.4c16 7.7 23.1 12.3 32.2 21.1l6.7 6.4V74.1c0-22-1.9-28.9-9.2-34.4-4.2-3.2-9.2-4-14.3-2.3M112.4 216.7c-1.1 5.8.9 8.2 11.6 13.6 10.5 5.2 25.5 9.5 35.7 10.1l6.4.4 2.5-5.5c1.3-3.1 2.4-5.9 2.4-6.3s-4.7-1.4-10.5-2.4c-11.6-1.9-26.7-6.1-37.8-10.6-3.9-1.7-7.7-3-8.4-3s-1.5 1.7-1.9 3.7m-27.8 91.8C74.5 321.7 72.8 339 80 353.7c3.5 7.1 4.5 7.5 12.1 4.7 11.8-4.2 19.2-3.8 20.1 1 .8 4.3-1.4 6.2-8.1 6.9-9 1-18.8 4.5-21.6 7.9-4.4 5.2-4.3 14.7.4 20.7 1.4 1.8 3.1 2.5 6.9 2.9l5 .4-.5-5.9c-.7-7.4.6-10.3 4.7-10.3s6 3.2 6 10.2v5.8h9v-7.4c0-8.4 1-10 5.9-9 4.1.8 5 3.1 4.3 10.6l-.4 5.8h6.9c3.8 0 7.2-.3 7.6-.6.3-.4-1.3-3.2-3.7-6.3-5.7-7.5-8.9-13.1-12.4-22.2-3.5-8.7-8.3-24.9-10.7-36.4-3.2-14.5-3.4-15.1-5.7-16.2-1.3-.6-5.4-3.4-9.2-6.2s-7.4-5.1-8.1-5.1-2.5 1.6-3.9 3.5m97.6-77c-3.6 2.6-5.4 7.3-5.6 14.6-.1 5.4.3 7.1 1.9 8.9 4.3 4.8 14.6 6.6 20.5 3.5 3.5-1.8 7-8.1 7-12.5 0-8.5-6.6-15.2-15.8-15.8-4.2-.2-6.3.1-8 1.3M164 290.7c0 12.1-6.9 21.8-18.9 26.3-5.4 2.1-22.4 4.5-24.1 3.5-3.8-2.4 4.9 31.9 12.5 49.2 4.8 10.7 17.4 25.6 25 29.6 25.5 13.1 61.2 5.3 72.3-15.8 2.4-4.5 2.7-6 2.6-15-.1-12.4-2.8-23.1-11.5-44.6-8.1-20.5-8.6-21.2-22.7-30.1-9.4-5.9-17.6-8.8-27.4-9.5l-7.8-.6zm-71.8-62.5c-2.1 1.8-5.7 6-7.8 9.2-12.1 18.7-9.2 37.6 8.8 57.1 6.4 6.9 14.5 11.5 24.8 14.1 7.2 1.8 18 1.5 21.9-.6 2.4-1.2 2.3-1.3-3.3-4.7-5.4-3.3-5.7-3.7-5.4-7.1.2-2.9.8-3.9 2.9-4.6 2.2-.7 3.3-.4 6.5 2.2 2.2 1.7 5.1 3.6 6.6 4.1 2.4.9 3 .7 4.2-1.2 2.7-4.1 2.3-4.9-3.9-8.1-4.3-2.2-6.1-3.7-6.3-5.4-.7-4.9 3.6-6.3 11.6-3.7 1.9.6 2.2.4 2.2-2.1-.1-5.7-5.4-14.6-15-25-2.2-2.4-4.2-4.4-4.5-4.4-.5 0-9.2-5.8-20.9-13.8-7.5-5.2-14.9-9.1-17.2-9.2-.7 0-3 1.5-5.2 3.2m13.3-189.9c-5 2.8-8 7.3-9.5 14-1.5 6.9-2.5 26.2-1.6 32.1l.8 4.8 6.6-6.5c8.2-7.8 18-14.3 31.8-20.9 8.7-4.2 10.4-5.3 10.4-7.3 0-3.8-13.2-12.9-24.1-16.5-7.4-2.5-9.5-2.5-14.4.3M326 117.2c-4.6 1.3-12.8 9.3-14.2 13.9-1.4 4.9-.3 10.1 2.9 13.9 2 2.5 3.2 3 5.7 2.8 3-.3 3.1-.4 2.8-4.6-.3-3 0-4.2 1-4.2 2.1 0 3.1 1.2 6 6.5 2.6 4.9 2.7 5 7.9 5.3 2.8.2 5.6-.1 6.1-.6.6-.6-.1-3.1-1.8-6.4-3.3-6.7-2.8-10.8 1.2-10.8 3.4 0 6.7 3.5 8.9 9.5 2.3 6.2 2 5.9 4.4 4.6 2.6-1.4 5.1-6.1 5.1-9.6 0-6.3-7.5-15.1-16.5-19.5-4.5-2.2-13.3-2.6-19.5-.8M178 61.6c-1.9.2-7.3.9-11.8 1.5-8.7 1-22.7 5.6-33.1 10.8-18.9 9.4-32.7 23.5-39.7 40.9-7.8 19.4-6.6 47.7 2.9 65.7 14.6 27.7 65.9 42.5 122.2 35.4 29.8-3.7 59.6-17.9 68.1-32.4 5.8-9.9 10.4-29.5 10.4-44 0-10.9-2.2-20.2-6.9-29.9-5.2-10.5-11.2-18-19.7-24.4-16.1-12-30.1-18-49.8-21.2-11.7-2-35.4-3.3-42.6-2.4m23.2 79.3c2.8 2.5 3.2 3.5 3.6 9.3s.1 6.7-2.2 9.5c-1.7 2-2.6 4.3-2.6 6.6 0 2.9.5 3.7 3 4.7 4.1 1.7 6 .7 6-3 0-4.4 1.7-7 4.4-7 8.2 0 7.4 17-.9 20.8-3.7 1.7-11.1 1.5-14.7-.4-2.9-1.5-3.3-1.5-7.8 1-5.1 2.8-8.3 3.2-12.3 1.7-5.5-2.1-11-11.5-10.5-17.8.2-3.1.8-3.9 3.2-4.8 2.4-.8 3.1-.6 4.7 1.4 1 1.3 1.9 3.8 1.9 5.5 0 5.7 4.8 7.6 8.8 3.3 3.3-3.5 3.8-7.3 1.2-8.7-3-1.6-6-6.9-6-10.8 0-11.9 12-18.6 20.2-11.3m-9.6 8.6c-.3.9 0 1.8.9 2.1 2.1.8 4.7-.3 4.3-1.9-.7-1.8-4.5-2-5.2-.2m86.1 20.1c3.4.9 4.2 5.2 1.3 7.6-3.1 2.5-24 2.7-26.4.2-3.6-3.6 0-8.1 7-8.7 5.3-.5 14.4 0 18.1.9m-153.4 0c5.4.5 7.4 1 7.1 1.9-.3.7.2 1.5 1 1.8 2.4.9 1.9 3.6-.8 4.7-2.6 1-21.1.6-23.8-.5s-3.1-4.8-.7-6.8c2.3-1.8 5.4-2.1 17.2-1.1m121-48.3c1.8.8 4.9 3.3 7 5.6 2.9 3.2 3.7 4.9 3.7 7.9 0 4.5-1.4 6.2-5.1 6.2-2.1 0-3.4-1-5.6-4.3-3.8-5.6-7.4-7.4-10.7-5.2-3 2-3.8 3.7-4.5 10-.5 4.3-1 5.1-3.5 6-2.4.8-3.1.6-4.8-1.5s-1.9-3.4-1.4-7.8c.7-6.3 2.3-9.7 6.3-13.4 5-4.8 12.2-6.1 18.6-3.5m-92-.9c6.8 2.9 11.4 10.4 11.8 19.4.3 5.9-1.3 8.4-5 8-2.2-.3-2.8-1.2-4.4-6.8-2.1-7.6-5.3-11-10.1-11-4.4 0-5.6 1.6-5.6 7.6 0 4.2-.4 5.6-2.1 6.8-2.8 1.9-6.7.3-7.6-3.3-1.2-4.4-.6-11.8 1.2-14.9 3.8-6.4 14.1-9.1 21.8-5.8m125.5 32.2c1.8 1.2 2.2 2.4 2 5.2l-.3 3.7-11.5.3c-13.7.3-16.3-.7-16.8-5.7-.2-2 .2-3.7 1-4.2.7-.5 6.3-.9 12.3-.9 8.5 0 11.6.4 13.3 1.6m-147-.4c1.4 1.2 1.7 5.8.3 5.8-.5 0-1.1.9-1.4 2-.5 1.8-1.3 2-10.4 2-5.9 0-10.8-.5-12.3-1.3-3.1-1.5-3.7-5.2-1.4-7.8 1.6-1.8 3-2 12.8-1.8 6.1 0 11.7.6 12.4 1.1" style="fill:#ebebeb"/></svg>