<svg xml:space="preserve" fill="#ebebeb" style="fill-rule:evenodd;clip-rule:evenodd;stroke-linejoin:round;stroke-miterlimit:2" viewBox="0 0 373 391" xmlns="http://www.w3.org/2000/svg"><path d="M288.8 135.6c3.1 2.1 2.6 6.4-.8 8.1-1.4.7-6.3 1.3-11.4 1.3h-8.9l.6 45.5c.4 27.5.2 46.6-.3 48-.7 1.9-1.7 2.5-3.9 2.5-1.5 0-3.3-.6-4-1.3-.7-.9-1.1-12.6-1.3-35.8-.1-18.9-.4-39.9-.6-46.7l-.3-12.2h-10.2c-10.8 0-14.7-1.3-14.7-4.8.1-4.1 1.5-4.7 14.2-5.3 27.1-1.2 39.2-1 41.6.7m-189 .6c.5.7 4.7 8 9.2 16.3 20.4 37.4 35.4 62.6 36.1 60.8.4-1 .5-9 .3-17.8-.3-8.8-.1-25.7.3-37.5l.8-21.5 2.9-1c2.4-.8 3.1-.6 4.7 1.4 1.9 2.3 1.9 4.5 1.9 50.6-.1 26.5-.4 49.2-.7 50.4s-1.3 2.6-2.3 3.1c-3.9 2.1-5.8.1-14.6-15.9-4.7-8.6-15-26.8-22.8-40.6l-14.1-25-.3 39.4c-.1 27.1-.6 39.8-1.3 40.8-1.4 1.6-6.3 1.7-7.7 0-.6-.7-1.1-19.3-1.3-50.8-.4-47.7-.3-49.8 1.5-51.8 2.1-2.3 5.8-2.8 7.4-.9m15.6 168.4c2 2 2 4.8 0 6.8-1.2 1.2-3.7 1.6-11 1.6-10.9 0-13.4-.9-13.4-4.8 0-4.6 1.5-5.2 12.6-5.2 8 0 10.6.3 11.8 1.6m107.4-168.4c1.7 1.7 1.5 4.8-.5 7-1.4 1.6-3.5 1.8-21 1.8H182v38h17.2c14.5 0 17.4.3 19 1.7 2.1 1.9 2.4 5.6.6 7.1-.7.5-9.3 1.3-19 1.7l-17.8.7v22.3c0 19-.2 22.6-1.6 23.9-2.3 2.4-5.1 1.9-7.1-1.1-1.7-2.5-1.8-6.5-1.8-51.1v-48.4l2.8-2.4c2.8-2.4 3-2.4 25.1-2.4 15.9 0 22.5.3 23.4 1.2M87.4 281.3c1.2.9 1.7 2.3 1.4 4.7l-.3 3.5-10.4.3c-6.7.2-10.8-.1-11.7-.9-1.7-1.4-1.8-6.1-.2-7.7 1.7-1.7 18.9-1.6 21.2.1M207.5 25.7c7.7 4.4 22.6 12.9 33 18.8 22.9 13 92.2 54.2 94.9 56.4 1 .9 2.2 2.7 2.7 4 .6 1.3.9 37.4.9 83.9 0 75.5-.1 81.8-1.8 85-1.8 3.6-4.4 5.3-40.7 25.9-21.5 12.2-61.8 35.7-84.3 49.1-15.9 9.4-20.2 11.6-24 11.9-4.4.3-6.5-.6-35.7-15.9-27.2-14.3-31-16.6-31.3-18.8-.3-3.4 1.1-5.3 4.1-5.3 1.5 0 15.2 6.6 30.6 14.7 16.8 8.8 29.1 14.6 30.8 14.6 1.6 0 6-1.9 9.8-4.1 3.9-2.3 29.7-17.2 57.5-33.1 64.1-36.9 73.9-42.7 75-44.9.6-1.1 1-31.9 1-79.3v-77.5l-2.2-2.5c-1.3-1.4-20.7-13.1-43.3-26.2-22.5-13-53-30.8-67.6-39.5-14.7-8.8-27.4-15.9-28.3-15.9-1.6 0-24.2 12.6-64.1 35.7-13.2 7.6-34.3 19.7-46.8 26.8-12.5 7.2-24.1 14.1-25.8 15.5l-3 2.5-1 59c-.5 32.4-.9 66.6-.7 76l.3 17 5 .5c6.1.6 7.5 1.5 7.5 4.4 0 3.7-1.9 4.6-9.9 4.6-6.3 0-7.8-.3-9.8-2.2l-2.3-2.1.1-67.1c0-77.1.6-93.4 3.5-97.2 1.9-2.6 26.3-17.5 58.9-35.9 9.9-5.6 26.1-14.8 36-20.5s24.8-14.1 33-18.7c19.1-10.7 18.6-10.7 38 .4" style="fill:#ebebeb"/></svg>