<svg xml:space="preserve" fill="#ebebeb" style="fill-rule:evenodd;clip-rule:evenodd;stroke-linejoin:round;stroke-miterlimit:2" viewBox="0 0 403 442" xmlns="http://www.w3.org/2000/svg"><path d="M338.3 33.2c2.8 2.8 12.2 36.7 11.3 40.4-.4 1.3-1.8 3.1-3.2 4.1-2.3 1.5-31.7 10.6-117.9 36.4-14.8 4.5-28 8.7-29.2 9.5-1.5.9-2 2-1.6 3.5.5 1.8 1.1 2 4.2 1.5 2-.4 17.1-2.6 33.6-5.1 52.7-7.7 91.6-13.5 107.8-16 19.1-3 19.2-3 21.7-.5 4 4 1.8 8.6-4.9 10.1-2.4.5-35.9 5.7-74.5 11.5-74.9 11.2-86.1 13-87.6 13.9s-1.3 21.8.3 23.7c.9 1.2 4.3 1.7 16.2 2.2 51.4 2.1 100.3 13.7 123.6 29.2 12.2 8.1 17.1 16.3 17.7 30.2 1.2 24.4-7.8 58.3-21.4 81.2-14.6 24.4-30.1 40.6-53.5 55.7l-8.6 5.5-.7 7c-1.4 15.2-7.8 21-30.6 27.8-16.8 4.9-28.9 6.3-50.5 5.7-20.5-.6-31.7-2.2-44.2-6.4-19.2-6.3-24.4-11.8-26.1-27.2l-.7-6.4-6.5-3.9c-38.4-23.3-64.9-62-75-109.8-2.7-12.6-3.8-34.9-2.1-40.2 6.2-18.8 35-33.5 82.6-42.2l18-3.3.3-12.1c.1-6.7-.1-12.2-.5-12.2s-4.3 1.1-8.6 2.5-8.2 2.5-8.7 2.5c-1.7 0-5-4.4-5-6.6 0-2.9.5-3.2 12.5-7.4l10-3.5.3-8.3c.2-5-.1-8.2-.7-8.2s-6.3 2-12.7 4.5-12.2 4.5-12.9 4.5c-2.4 0-5.3-4.7-4.7-7.6.4-2 1.7-3.2 5.6-4.9 12.2-5.3 82.2-32.3 142.6-54.9 36-13.5 67.8-25.4 70.5-26.5 6.8-2.7 11-2.7 13.8.1M112.4 221c-8.1 2.1-17.2 6.4-25.9 12.3-6.1 4.2-15.5 12.4-15.5 13.6 0 .4 3.2 1.7 7 3l7 2.2 3.9-3.3c5.2-4.4 13.6-9.4 21.3-12.7 5.7-2.4 7.4-2.6 17.8-2.4 6.3.1 13.8.6 16.5 1.2l5 1 4.7-4.7c2.7-2.5 4.5-4.9 4-5.3-1-.9-15.6-4.7-22.6-5.9-8.5-1.4-15.1-1.2-23.2 1M131 377.9c0 4.2 3.9 9.3 9 11.8 2.5 1.2 8.8 3.4 14 4.8 27.4 7.2 51.3 7.3 80 .4 15.7-3.7 22.3-6.7 25-11.1 2.6-4.3 2.7-9.2.3-8.5-1 .2-7 2-13.3 4-15.3 4.7-24.1 6.5-38.9 7.9-20.5 1.9-45.7-1.5-67.5-9l-8.6-3.1zm81-165c-17.5 4.5-33 13.2-51.1 28.8-11.5 10-21.5 20-20.8 20.7.3.3 4.7 1 9.8 1.6l9.3 1.2 11.2-11c20.7-20.4 39-29.6 58.6-29.5 18.1.1 38.2 7.3 55.5 19.8 11.6 8.5 14.1 9.3 21.5 7 3.3-1 6-2.1 6-2.5 0-.8-18-15-25.3-19.9-7.1-4.8-21.9-11.6-32.2-14.7-12.1-3.7-31.2-4.3-42.5-1.5M315.5 48.7c-7.7 3-30 11.5-49.5 18.8-44.7 16.8-66.8 25.3-68 26s-1.4 17.2-.2 17.8c.4.3 14.9-3.8 32.2-8.9 17.3-5.2 48.4-14.4 69-20.5s37.8-11.4 38.2-11.8c.9-.8-5.4-24.8-6.8-26.1-.5-.5-7.2 1.6-14.9 4.7M115.2 244.9c-6.2 2.1-16.4 8.9-15.9 10.5.4 1.3 16.2 4.5 22.5 4.5 4.2.1 4.7-.3 11.2-7.2 3.8-3.9 6.9-7.8 7-8.5 0-2-18.3-1.5-24.8.7M178.5 100l-5 1.8-.3 55.4c-.1 30.4 0 55.8.2 56.5.4.8 2.3.2 6.3-2l5.8-3.3.3-55.2c.2-43.9 0-55.2-1-55.1-.7.1-3.5 1-6.3 1.9m-62 85.1c-20.3 3.5-39.2 10.3-56.2 20.3-9.3 5.4-15.3 12.9-15.3 19 0 3.2 5 9.8 11.1 14.6l5.1 4 9.9-9.4c19.7-18.9 31.4-24.4 55.7-26.1l10.2-.7V183l-4.7.1c-2.7 0-9.7.9-15.8 2m81.3-5.6c-.6.6 0 22.6.6 23.2.2.2 3.7-.6 7.7-1.7 9.3-2.7 27.9-3.7 37.3-2.1 9.6 1.7 26.3 7.3 35.9 12.2 10.8 5.4 19.3 11.4 31.7 22.4 13.4 11.7 12.4 11.2 15.5 9.5 5.8-3.1 14-10.7 16.3-15.2l2.4-4.6-2-4.4c-4-9.1-16.7-16.8-40-24.4-20.4-6.7-40.8-10.5-73.1-13.9-14.1-1.5-31.3-2-32.3-1m30.9 77.5c-4.2 1.1-13.3 5.5-14.1 6.9-.4.5-.2 1.2.3 1.5 1.3.8 35.4-2.4 36.4-3.3 1.2-1.2-8.8-5.2-14.1-5.6-2.6-.2-6.4 0-8.5.5m107.8-6.5c-15.8 9.1-49 18.7-78 22.4-31.2 4.1-76.9 5.5-102 3.1-44.7-4.2-90.6-15.6-105.8-26.2-1.6-1.1-3-1.8-3.3-1.5-.6.6 4.8 20.2 8.6 31.2 4.4 12.5 13.1 29.1 20.3 38.8 8.9 12 22.9 25.6 33.8 32.7 18.8 12.3 34.5 18.7 57.9 23.7 12.8 2.7 40.7 2.4 55.4-.6 27.1-5.5 54.1-18.2 71-33.2 12.5-11.1 26.7-30 35.1-46.6 7.8-15.5 17.1-47.4 13.8-47.3-.5 0-3.5 1.6-6.8 3.5m-121.3-13.7c-4.5 1.7-11 4.6-14.4 6.6-7.9 4.8-29.8 20.7-29.8 21.8 0 .4 5.8.8 12.8.8h12.9l6.1-4.9c20.3-16.3 41.8-18.1 59.1-5l5.5 4.2 10.3-1.8c5.7-1 10.3-2.1 10.3-2.6 0-1-12.1-9-18.8-12.3-2.9-1.5-9.4-4.1-14.5-5.8-7.5-2.6-11.2-3.2-20.2-3.5-10.2-.4-11.6-.2-19.3 2.5M154 110.3l-4.5 2.2-.3 48.3-.2 48.3 3.5 1.5c2 .8 4.9 1.7 6.6 2.1l2.9.5v-52.6c0-59.4.8-54.6-8-50.3" style="fill:#ebebeb"/></svg>