<svg xml:space="preserve" fill="#ebebeb" style="fill-rule:evenodd;clip-rule:evenodd;stroke-linejoin:round;stroke-miterlimit:2" viewBox="0 0 387 392" xmlns="http://www.w3.org/2000/svg"><path d="M212.8 20.6c52.4 7.8 89.3 47.1 94 100.4 2.2 24.7-4.9 55.8-17.5 76.9-10.3 17.3-12.1 22.8-10.3 31.6 2.9 13.8 15.9 19.4 29.6 12.5 6.9-3.4 10.8-7.2 16.7-16 5.1-7.8 8.3-10.2 13.5-10.4 8.7-.2 14.2 6.7 15 18.8.9 15.3-4.9 29.8-16.9 41.8-8.6 8.7-14.4 12-26.1 14.4-9.4 2-28.1 1.4-35.1-1.1-2.6-.9-5.1-1.4-5.4-1.1-1 1 5 7.8 10.1 11.2 2.6 1.8 8.6 4.5 13.4 6 4.8 1.4 10.3 3.4 12.3 4.5 4.2 2.1 8.6 7 9.5 10.5 2.2 8.8-8.8 17.8-25.1 20.5-5.8.9-8.5.8-15.2-.4-19.2-3.6-43.8-18.2-54.3-32.2-1.8-2.5-3.7-4.5-4.1-4.5-1.3 0-1.8 5.8-.9 11.8.4 3.3 2.5 9.8 4.6 14.4 4.5 9.9 5.3 15.9 2.7 20.7-2.6 5-6.4 7.4-12.6 7.9-13.9 1.1-24.5-9.4-37.9-37.7-3.3-6.9-6.1-12.7-6.3-12.9-.1-.2-4.3 3.8-9.1 8.8-10.1 10.5-22 18.9-31.1 21.9-7.7 2.6-22.2 2.8-32.3.5-15.2-3.4-23.1-15.1-17-25.1 2.2-3.6 3-3.9 15.2-5.2 10.5-1.2 16.9-4.2 22.4-10.4 3.8-4.3 7.2-11.3 6-12.4-.3-.3-3.7.8-7.4 2.6-9.8 4.5-16.6 5.5-27.7 4.2-16.2-1.9-25.1-6.2-37.9-18.2-11.8-11-18.1-27.6-15.7-41.4.7-3.6 1.6-7.6 2.1-9 1.6-4.3 12.2-7.1 17.1-4.5 1 .6 3.1 3.4 4.5 6.3 3.8 7.4 12.9 16 19.8 18.6 9.2 3.4 15.6 3.8 21.1 1.1 13.2-6.4 14.1-23.1 2.2-41.1-8.4-12.7-16.5-33.2-19.3-48.9-2-11.5-2-37 .1-47.6 6.7-35.1 26.8-61.5 59-77.7 11-5.5 22-8.6 39.5-11.1 6.7-.9 25.4-.4 34.8 1m-34.1 9.5c-10.3 1.1-25.1 5.1-34.1 9.3-10.4 4.8-18.9 10.8-27.7 19.5-12.4 12.4-20.6 26.5-25.5 44.1-3.5 12.8-4.5 35.9-2 49.5 3 16.3 8.8 31.2 17.8 45.8 11.3 18.4 13.5 30 7.7 41.6-4.3 8.7-11.1 15.3-17.4 17.1-9.8 2.8-19.5 1.1-31.8-5.3-6.2-3.2-14-11.1-18.4-18.5-1.4-2.3-2.9-4.2-3.3-4.2-1.7 0-3.2 7.4-2.7 13 .8 9.2 4.9 17 12.7 24.4 11.9 11.2 29.1 17.8 42.3 16.3 7.1-.9 16.9-5.8 23.1-11.7s9.5-6.4 12.9-1.8c4.5 6.1-1.9 28-11.2 38.1-7.1 7.6-19.3 12.7-30.6 12.7-3.8 0-4.5.3-4.5 2 0 1.1 1 2.6 2.3 3.4 3.1 2.1 18.2 5.6 23.8 5.6 6.9 0 16.7-3.4 23.5-8.1 11.6-8.2 17.6-15.2 25.9-30.4 4.3-7.9 5.9-9.5 9.2-9.5 3.9 0 5.9 3.1 6.6 10.1 1.3 13.7 9 34.3 16.5 44.2 4.7 6.1 11.5 10.7 15.8 10.7 5.3 0 5.7-2.2 1.8-12.3-6-15.3-7.5-26.4-5.4-39 1.2-7.7 3.8-12.9 7.2-14.5 3.9-1.8 6-.4 9.2 6.2 7.7 15.7 17.5 25.8 32.5 33.5 19.3 9.9 32.5 11.6 44.5 5.7 3.1-1.5 5.6-3.2 5.6-3.7 0-2.7-5.1-5.7-12.3-7.3-4.2-1-10.4-3.1-13.9-4.8-8.1-4.1-17.5-13.5-21.3-21.2-5-10.3-4.4-22.8 1.1-24.2 1.9-.5 3.5.4 7.9 4.4 7.7 7.1 14.3 9.4 27.8 10 12.2.5 17.1-.5 25.9-5.1 13.4-6.9 23.8-23.9 23.8-39 0-5.1-2.2-10.7-4.3-10.7-2 0-3.2 1.3-6.9 7.5-10.4 17.1-29.5 26.1-44.9 21-7.3-2.5-14.8-10-17.9-18-4.1-10.9-1.3-26.5 6.9-38.5 25.7-37.7 26.5-91.7 1.7-126.3-13.4-18.9-37.2-34.8-58.6-39.3-15.2-3.1-27.1-3.8-41.3-2.3m-19.8 118.4c6.7 7.6 2 17.5-8.2 17.5-3 0-4.6-.7-6.9-3.1-2.9-2.9-3-3.3-2.5-8.8 1-9 1-9.1 8.2-9.1 6 0 6.5.2 9.4 3.5m60.9 38.7c4 5.2.1 10.8-11.6 16.5-7.2 3.6-8.1 3.8-17.1 3.8-8.4 0-10.3-.3-15.1-2.7-9.6-4.7-12.5-8.9-9.8-14.5 2-4.1 5.1-4.1 8.3.1 3.7 4.8 8 6.6 16.2 6.6 7.9 0 14.8-2.8 19.8-8 3-3.2 7.4-4 9.3-1.8m21.1-41.7c1.6.8 3.6 3.1 4.6 5.1 1.4 3.1 1.5 4.3.6 7.5-1.2 4-4.9 7.5-8.8 8.5-5.7 1.5-12.3-4.7-12.3-11.4 0-4.4 1.4-6.9 5.3-9.2 3.8-2.4 6.8-2.5 10.6-.5" style="fill:#ebebeb"/></svg>