<svg xml:space="preserve" fill="#ebebeb" style="fill-rule:evenodd;clip-rule:evenodd;stroke-linejoin:round;stroke-miterlimit:2" viewBox="0 0 383 382" xmlns="http://www.w3.org/2000/svg"><path d="M106.3 20.1c3.6 1.9 3.8 2.9 3.1 13.6-.9 15.1 2.3 26.2 10.4 35.4l3.8 4.2 10.5-4.1c23.5-9.2 35.7-11.9 57.4-12.9 18.7-.8 43.7 2.5 55.4 7.5 8.5 3.5 25.4 9 26.4 8.6 2-.8 7.5-8.7 10.4-15 2.6-5.6 2.8-6.7 2.8-19.6 0-12.8.2-13.9 2.2-15.9 2.6-2.7 7.3-2.8 11.1-.3 4.8 3.2 12.1 11.2 17.2 18.9 13.7 21 14 45.2.8 65.7l-3 4.8 5.1 7.9c17.7 27.6 28.2 59.9 31 95.6 2.9 35.2 4.2 52.4 5.1 67 .6 8.8 1.4 21.6 2 28.5 1.6 21.7 2.3 39.6 1.5 41.9-.4 1.4-1.5 2.1-3 2.1-4.2 0-5.5-2.5-5.5-10.3 0-4-.7-15.3-1.5-25.2s-1.9-25-2.5-33.5c-1-15.3-4-52.6-6.1-76.9-2.1-24.1-7.1-41.9-18-64.9-10.6-22.5-26.3-42-42.4-52.7-16.3-10.8-36.9-19.3-56.1-23.2-13.3-2.6-41.3-2.4-55.1.5-28.7 6.2-55.6 20.5-71.3 38.1-16.2 18-28.8 43.1-36.5 72.3-4.7 18.2-6 28.5-9 70.8-1.4 20.1-3.2 44.5-4 54.4-.8 9.8-1.7 24.2-2.1 32-.8 16.5-1.4 18.6-4.9 18.6-4.3 0-4.7-3.1-3.5-26.5.5-11.5 1.5-26.2 2-32.5s1.9-25.2 3-42c4-58 6.8-74.3 17.3-101.6 4.2-10.9 8.2-19 15.4-31.1l5.4-9.1-4.6-8.9c-6.1-11.9-7.9-19.4-7.3-31.3.8-15.8 6.2-28.1 17.8-40.4 6.6-7 12.6-11.6 15.2-11.6 1.1 0 2.9.5 4.1 1.1m190.1 19.2C296.3 53 293 62 283.3 74.8l-3.2 4.4 9.7 7.2c5.3 4 11.7 9.4 14 12 2.4 2.6 4.5 4.6 4.7 4.4 2.1-2.5 5.9-10 7.6-15 4-11.9 1.5-28.5-6.3-41.6-3.3-5.4-11.4-15.2-12.6-15.2-.4 0-.7 3.7-.8 8.3M93 37.5C79.4 53.4 74.7 71.3 80.1 87.2c2.8 8.4 9.9 19.1 9.9 14.9 0-1.4 10.3-11.3 17.4-16.7 3.6-2.7 6.7-5.4 7-6.1.3-.6-.8-3-2.4-5.1-8.5-11.8-12-21.9-12-35.5 0-4.2-.3-7.7-.7-7.6-.5 0-3.3 2.9-6.3 6.4m57.5 234.4c32.7 5.2 65.3 5.1 100.2-.5 9.5-1.5 18.1-2.4 19.6-2 4.5 1.1 4.6 4.7.2 11.4-8 12.1-19.8 28.4-21 28.8-.7.3-6.1-3.2-12-7.8-14.3-11.1-13.3-10.4-14.9-9.3-.8.6-6.2 5-12.1 9.9-9.3 7.7-10.9 8.7-12.8 7.8-1.2-.5-7-5.1-12.9-10.1s-11-8.6-11.3-8.2c-.2.5-5.7 4.8-12.1 9.7-9.3 6.9-12 8.5-13.3 7.7-2.6-1.6-24.2-34.4-23.9-36.1.5-2.6 4.9-4.3 9.3-3.8 2.2.2 9.9 1.4 17 2.5m-11.3 9.3c.9 1.3 3.4 5.4 5.8 9.3 2.3 3.8 4.4 7.1 4.5 7.3.1.1 4.6-2.8 9.8-6.5 5.3-3.7 9.5-6.8 9.4-6.9-.2-.2-29.3-5.4-30.4-5.4-.3 0 .1 1 .9 2.2m107.8-.1c-6.3 1-13 1.8-14.7 1.9-1.8 0-3.3.3-3.3.7.1.5 4.4 3.8 9.7 7.5l9.7 6.7 3.4-6.2c1.9-3.4 4.3-7.5 5.4-9 1.1-1.6 1.9-2.9 1.7-3.1-.2-.1-5.6.5-11.9 1.5m-56.4 11.1c4.4 4.6 8 8.2 8.2 8.1s4.1-3.8 8.8-8.2l8.5-8.1h-33.4zm25.5-177.7c12 3.1 20.5 8 29.4 16.9 13.4 13.5 19.5 28.4 19.5 47.5 0 19.2-5.2 31.4-19 45.2-7 7.1-10.3 9.4-17.1 12.7-19.9 9.5-40.6 9.6-59.4.3-17.9-8.9-30.1-23.8-35-42.6-1.9-7.6-1.9-24 0-32.3 1.6-6.9 5.7-15.7 10.4-22.6 7.9-11.4 25.1-23 38.1-25.5 3-.6 6.4-1.3 7.5-1.5 3.8-.9 19.1.2 25.6 1.9M195.5 151c-17.8 2.7-27.8 24.7-18.8 41.2 8.4 15.5 29 18.3 40.9 5.6 5-5.2 6.7-9.6 7.2-17.9.4-6.6.1-8.4-2-13-5.4-11.7-15.6-17.7-27.3-15.9" style="fill:#ebebeb"/></svg>