<svg xml:space="preserve" fill="#ebebeb" style="fill-rule:evenodd;clip-rule:evenodd;stroke-linejoin:round;stroke-miterlimit:2" viewBox="0 0 417 374" xmlns="http://www.w3.org/2000/svg"><path d="M106.7 25.2c1.4 1.7 23 66.4 34.4 102.8 5 16.2 9.4 29.7 9.6 30 .2.2 9.3-8.8 20.3-20.1 10.9-11.3 28.8-28.5 39.7-38.1 22.3-19.9 50.7-43.5 54-45.1 3.6-1.6 6 1.3 6.7 8.1.7 6.9 3.3 55.4 4.1 78.2.6 17.5 1 21 2.4 21 2.6 0 36.4-26.1 66.6-51.5C384.3 77 386.9 75 389.8 75c2.2 0 4.2 2.6 4.2 5.6 0 1-4.9 10.8-10.9 21.9-5.9 11-15.2 28.3-20.6 38.5-11.8 22.3-30.8 56.1-49.7 88.3-7.7 13.1-15 26.1-16.2 29-4.8 10.8-6.3 7.4 19.9 46.7 12.9 19.5 23.5 36.4 23.5 37.5 0 2.8-1.9 4.5-5 4.5s-11.1-4.7-39.5-23.4c-25.5-16.7-69.8-45.1-76.8-49.1l-4.8-2.8-14.2 1.2c-21.8 1.8-67.1 6.9-87.7 9.7-10.2 1.4-21 2.8-24.2 3.1-9.1.8-8.7 3.8-7.7-52.7.4-26.7.8-65.4.9-86l.1-37.5-2.8-.3c-1.5-.1-14-.6-27.8-1-27.2-.9-29.8-1.4-29.3-5.9.2-2.1 2.1-3.7 9.3-8.1 42.6-26.1 53-33.3 55.9-39 1.1-2 4.1-8.8 6.7-15s5.5-12.4 6.4-13.8c1.7-2.6 5.6-3.2 7.2-1.2m151.6 76c-3.2 8.7-30.3 91.2-30.3 92.1 0 .6 10.3 6.7 13.2 7.9 1.3.5 3.1-.8 7.1-5.3 7.3-8 16.8-22 17.6-25.8.3-1.7.3-9.3 0-16.9-1.9-39.9-3.1-58.8-3.8-59.5-.4-.4-2.2 2.9-3.8 7.5m-50.4 108.9c-7.9 4.4-17.7 9.9-21.6 12.1-4 2.2-7.3 4.3-7.3 4.8 0 1.4 15.5 15.5 26 23.6 14.2 10.9 24.9 18.3 41.5 28.9 7.7 4.9 26.4 17 41.5 27 33.9 22.3 30.9 20.6 28.6 17-15.1-23.2-50.2-75.5-63.4-94.5l-11.4-16.5-9.8-5.2-9.7-5.2zm158.5-105c-6.9 7.7-47.3 40.1-70.4 56.5-13.3 9.4-16.3 12.1-22.5 19.9-9.4 11.8-20.5 27.4-20.5 28.7 0 .6 4.6 7.7 10.3 15.7 5.6 8 11.9 17.3 13.9 20.7 7 11.5 5.3 12.8 22.3-16.3 38.1-65 47.2-81.1 59.6-104.8 8.8-16.9 11.3-22.5 10.1-22.5-.5 0-1.7 1-2.8 2.1m-126-17.3c-24.8 21-41.6 36.6-66.5 62l-23.6 24.1-17.8 33.3c-9.8 18.3-19.8 36.8-22.2 41.2-2.3 4.3-4.3 8-4.3 8.2 0 1.1 6.5-2.6 20.6-11.9 17.7-11.7 35.2-21.9 67.9-39.4 16.1-8.7 22.3-12.6 23.2-14.4.7-1.5 7.2-21 14.4-43.5s15.5-47.6 18.5-55.8c3-8.3 5.3-15.3 5.2-15.8-.2-.4-7.1 5-15.4 12M65.5 84.6c-8.8 5.7-16.7 10.7-17.7 11-4.5 1.4-.6 2.2 14 2.6 8.6.3 16.4.7 17.2.9 1.2.3 1.6-1.6 2.1-11.3.4-6.4 1-12.1 1.3-12.7 1.4-2.2-1.3-.7-16.9 9.5m87.6 155.9c-6.7 4.1-16.1 10.2-20.7 13.5s-12.8 8.5-18.2 11.6c-10.2 5.9-13.2 8-9.7 7.1 1.1-.3 8.8-1.3 17-2.1 8.3-.9 27.4-2.9 42.5-4.6 15.1-1.6 29.7-3.1 32.4-3.2l5-.3-14.5-12c-7.9-6.7-16-13.3-18-14.8l-3.6-2.7zM99 54.7c-1.8 4.3-3.9 10-4.7 12.8-1.8 6.3-2.9 43.5-3.8 131.5l-.6 64.5 6.4-12c3.5-6.6 9.7-18.1 13.9-25.5 4.1-7.4 12.4-22.7 18.4-34 14.1-26.5 14-22.6 1.6-62-13.1-41.2-26.3-81.3-27.2-82.3-.4-.5-2.2 2.7-4 7" style="fill:#ebebeb"/></svg>