<svg xml:space="preserve" fill="#ebebeb" style="fill-rule:evenodd;clip-rule:evenodd;stroke-linejoin:round;stroke-miterlimit:2" viewBox="0 0 455 359" xmlns="http://www.w3.org/2000/svg"><path d="M333.9 168.4c9.8 5.1 4.5 20.6-7 20.6-4.8 0-9.9-5.6-9.9-10.9 0-4.4 2.1-9.6 4.2-10.4 2.7-1.1 10-.6 12.7.7m-61.6.6c10.4 8.2-.7 24.3-12.8 18.8-3.4-1.5-5.5-5.7-5.5-10.8 0-3.3.6-4.8 2.9-7.1 2.5-2.4 3.8-2.9 7.9-2.9 3.4 0 5.7.6 7.5 2M201.5 41c14.3 2.5 26.3 6.4 39.2 12.9 12.2 6.1 18 10 29.4 19.7 6.7 5.8 8.9 8.3 8.7 9.8-.2 1.2-20.3 21.8-46.8 48.1-25.6 25.3-46.6 46.3-46.8 46.6-.2.4 20.9 21.8 46.8 47.6 32.4 32.3 47 47.6 47 49 0 5-28.2 25.6-45.4 33.2-20.4 8.9-46.8 13.2-67.6 11-42.5-4.5-79.4-26.3-102.2-60.4-16-23.8-23.3-46.6-24.5-75.5-1.1-29.4 6.5-56 23.1-80.9 22.9-34.2 59.8-57.5 99.1-62.4 9.4-1.2 29.1-.6 40 1.3m-45.9 8.6C138 52.8 116.4 62.3 102 73.1c-16.3 12.3-34.3 34.3-42.4 52C51.9 142 48 160.7 48 181.6c0 25.4 7.3 49 21.7 70.6 6.4 9.6 20.7 24.5 31.2 32.4 9.6 7.3 26.5 16 38.6 19.8 23.4 7.5 55.6 7.5 78 0 9.8-3.2 21.3-8.4 28-12.6 5.5-3.5 21.1-15.3 21.9-16.7.3-.5-15-16.5-34.1-35.7-54.3-54.7-58.3-58.9-58.3-61.6 0-1.7 11.4-13.6 46.6-48.5l46.7-46.2-2.9-2.6c-5.4-4.8-20.9-14.6-30-19-12.1-5.9-24.9-10.1-36.4-12-11.7-1.8-32.7-1.8-43.4.1m242.1 120.6c2.2 2.3 2.8 3.9 2.8 7.3 0 8-7.8 13.2-15.9 10.5-4.1-1.3-5.3-3-6.2-8.7-.4-2.8-.1-5 1-7.1 1.8-3.6 2.8-4.3 7-5.2 4.9-.9 8.2 0 11.3 3.2" style="fill:#ebebeb"/></svg>