<svg xml:space="preserve" fill="#ebebeb" style="fill-rule:evenodd;clip-rule:evenodd;stroke-linejoin:round;stroke-miterlimit:2" viewBox="0 0 398 399" xmlns="http://www.w3.org/2000/svg"><path d="M368.5 42c1.6 1.8 1.6 2.2.1 6-.9 2.2-4 13.1-7 24.3-3 11.1-8.6 31.7-12.5 45.7-3.8 14-8.3 30.7-10 37-3.4 13.2-17.7 65-31.6 115-5.3 19-10.3 35.6-11.2 36.9-1.1 1.8-2.1 2.2-4.1 1.8-3-.6-32.1-14.7-53.5-25.8l-13.7-7.1-5.7 4.8c-3.1 2.7-10.3 9.2-15.8 14.4-22.1 20.8-30.4 28-32.3 28-3.5 0-5-3.4-9.6-22-2.5-10.2-7.6-30-11.4-44-5.7-20.6-7.4-25.7-9.2-27-1.2-.8-21.2-10.7-44.4-22l-42.1-20.6-.3-3.6c-.3-3.6-.1-3.8 5.5-6.6 3.2-1.6 16.2-7.3 28.8-12.7 20.8-8.8 59.8-26.2 84.5-37.8 5.2-2.4 12.9-5.9 17-7.7s20.6-9.3 36.5-16.7c16-7.4 39.6-18.1 52.5-23.8 29.3-12.9 61.7-27.8 73.5-33.8 10-5.1 13.3-5.7 16-2.7m-38 23.6c-15 6.4-42.5 18.7-76.7 34.5-76.3 35.1-108.4 49.7-152.8 69.5-9.6 4.3-20.4 9.2-23.9 10.9l-6.5 3.2 15 7.5c8.2 4.2 22.1 11 31 15.1 8.8 4.2 19.8 9.4 24.3 11.6 4.6 2.2 8.9 3.8 9.5 3.4s9.4-7.9 19.5-16.8c10.1-8.8 24.5-21.1 32-27.4s23.5-19.8 35.5-30c12.1-10.2 27.8-23.6 35.1-29.6 7.2-6.1 18.2-15.5 24.5-21s16.6-14.1 22.9-19c12.1-9.6 17.9-14.4 17.1-14.4-.3 0-3.2 1.1-6.5 2.5M187.6 258.2c-.3 1.3-2.2 9.2-4.1 17.6s-4.3 18.7-5.4 22.8c-1 4-1.7 7.4-1.5 7.4 1 0 12.9-10.7 27.1-24.2 5.6-5.4 10.7-9.8 11.4-9.8 1.7 0-.8-2.8-3.2-3.5-1-.4-6.7-3.3-12.5-6.6-5.9-3.2-10.8-5.9-10.9-5.9s-.6 1-.9 2.2m88.8-132.4c-7.7 6.5-35.8 30.5-62.4 53.4-26.7 22.8-51.1 43.7-54.2 46.4-5.1 4.4-5.7 5.2-5.3 7.9 1.6 9.1 14.9 58.5 15.6 57.3.3-.7 2.7-10.3 5.2-21.3s5-21.1 5.5-22.5c1.3-3.4 32.1-43.2 49.2-63.5 21.4-25.5 22.8-27.2 52.4-59.8 4.8-5.3 8.6-9.7 8.3-9.7-.2 0-6.7 5.3-14.3 11.8M349 65.7c-1.7 2.1-8.7 9.4-15.4 16.3-23.2 23.7-57.1 61.5-89.2 99.5-19.1 22.7-22.4 26.9-38.3 48.8-11.4 15.7-12.1 17-10.4 18.3 7.2 5.4 93.2 48.9 94.4 47.7.4-.4 2-5.5 3.4-11.3 2.6-10 11.7-43.5 32.1-117.5C335 133.4 354 63.2 354 62.4c0-1.4-2.2.1-5 3.3M135.4 302.6c2.5 2.4 1.9 4.8-2.7 11.6-12.8 18.6-45.2 36-71.8 38.5-6.2.5-6.8.4-7.9-1.6-.6-1.2-1-3.2-.8-4.4.3-2.3 1.7-2.8 17.3-6.2 21-4.5 42.7-17.4 54.9-32.5 5.8-7.2 8.1-8.3 11-5.4" style="fill:#ebebeb"/></svg>