<svg xml:space="preserve" fill="#ebebeb" style="fill-rule:evenodd;clip-rule:evenodd;stroke-linejoin:round;stroke-miterlimit:2" viewBox="0 0 372 340" xmlns="http://www.w3.org/2000/svg"><path d="M7061 4560c-41-10-118-40-170-66-81-41-111-63-191-144-52-52-110-121-129-153-75-128-119-309-106-441 32-324 207-547 532-678 69-28 92-32 204-36 150-5 238 10 348 63 174 84 294 201 379 370 112 225 100 517-29 730-79 131-228 261-364 318-137 57-331 72-474 37m350-173c95-33 172-83 248-162 116-122 161-225 168-385 8-165-22-263-121-397-107-146-296-242-476-243-207 0-430 143-528 338-76 153-86 262-40 435 46 175 211 348 393 412 97 34 259 35 356 2m-656-1403c-76-12-197-50-273-85-111-51-190-109-287-210-187-195-268-387-270-634 0-95 3-116 22-151 29-54 83-101 132-114 27-7 402-9 1183-8 1069 3 1145 4 1175 21 46 24 81 65 100 115 28 75 4 314-48 461-47 135-187 313-331 421-195 147-373 200-621 185-158-10-373-11-592-3-88 4-173 4-190 2m310-171c160-14 194-15 310-2 244 26 383 12 532-56 185-85 312-214 408-416 47-102 65-180 65-296 0-50-4-76-15-86-13-13-156-14-1132-10-615 3-1122 9-1127 14-6 5-13 41-17 80-19 178 103 437 272 580 140 117 231 162 389 194 88 18 107 18 315-2" style="fill:#fff;fill-rule:nonzero" transform="matrix(.1 0 0 -.1 -535 487)"/></svg>