<svg xml:space="preserve" fill="#ebebeb" style="fill-rule:evenodd;clip-rule:evenodd;stroke-linejoin:round;stroke-miterlimit:2" viewBox="0 0 419 398" xmlns="http://www.w3.org/2000/svg"><path d="M297.6 43c4.1 2 31.8 27.4 53.1 48.7 8.2 8.3 10.9 11.7 13.8 17.8 2.8 5.8 3.5 8.2 3 10.6-1.1 4.7-9.8 14.3-49.5 54.4-20.2 20.3-61.2 61.7-91.1 92-29.9 30.2-55.4 55.6-56.7 56.2-2.6 1.4-37 8.9-49.3 10.8-9 1.3-11.5 3.1-26.6 18.9-9.8 10.1-11.9 11.2-15.7 7.8-1.2-1.1-10-7-19.6-13.2-18-11.6-19-12.4-19-15 .1-1.2 14.5-15.2 33.3-32.1 4.2-3.9 4.6-5.4 9.3-38.4 1.4-9.9 2.9-19.4 3.5-21 .6-1.8 5.9-7.8 12.9-14.5 6.5-6.3 50.3-49.8 97.3-96.7 51.8-51.6 86.8-85.8 88.8-86.7 4.7-2 7.6-1.9 12.5.4M65.9 317.7l-14.2 13.9 14.7 9.8c8 5.4 15 9.6 15.5 9.4.4-.1 6.1-5.3 12.5-11.4l11.6-11.2-12.9-12.1-13-12.2zM272.1 66.3c-9.7 9.6-51.8 51.6-93.6 93.3-41.8 41.8-77.7 77-79.7 78.4-2.1 1.4-3.8 2.7-3.7 3 0 .3 2.6 2.5 5.7 5 9.1 7.2 49.7 43.6 61 54.6l10.2 10 20.3-21c40.2-42 108.6-111.7 138-140.8l29.9-29.7-.7-3.8c-.5-2.9-2.2-5.3-6.9-9.8C303.3 57.7 294 49 292 49c-1.5 0-7.8 5.5-19.9 17.3M92.6 252.2c-1.2 4-6.7 41.9-6.4 43.9.2 1.6 5 6.9 14.2 15.4 7.6 7.2 14.4 13.3 15 13.7 1.6.9 18.5-1.6 29.1-4.3 4.4-1.1 11.8-2.3 16.3-2.6 6.4-.5 8-.8 6.5-1.6-2.3-1.3-12.8-10.5-32.3-28.7-16.6-15.4-38.7-35.1-40.8-36.4-.7-.4-1.4-.2-1.6.6" style="fill:#ebebeb"/></svg>