<svg xml:space="preserve" fill="#ebebeb" style="fill-rule:evenodd;clip-rule:evenodd;stroke-linejoin:round;stroke-miterlimit:2" viewBox="0 0 425 429" xmlns="http://www.w3.org/2000/svg"><path d="M207.6 28.4c69.5 34.3 108.5 67.3 146 123.4 4.7 7 11.3 18.1 14.6 24.7 5.4 10.8 5.9 12.5 5.5 16.8-.4 4.4-1.1 5.5-6.7 11.2-7.2 7.3-7.7 7.5-21.9 11-11.2 2.7-16.2 5.1-55.1 26.5-21.8 12-42.3 22.9-77 41-31.7 16.6-38.9 20.8-41 24.2-1.4 2.3-1.8 6.5-2.3 25.6-.7 23.9-1.6 29.4-5.7 35.2-3.2 4.4-9.2 7.2-15.6 7.1-6 0-9.7-1.6-13.5-5.8-4.6-4.9-6.1-9.2-8.4-25-1.3-8.5-2.5-15.6-2.7-15.8-.2-.3-2.6 1.1-5.4 2.9-5.8 3.9-25.3 15-34.1 19.5-7.4 3.7-15.7 4.4-19.8 1.7-4.5-2.9-6-6.4-5.9-13.6 0-5.8 1.2-9.5 10.8-34.5 6-15.4 13.2-34.3 16.1-42s8-21 11.3-29.5c3.4-8.5 8.2-21.4 10.8-28.5 2.5-7.2 9.3-23.8 15-37.1 5.7-13.2 13.4-32.6 17.2-43 8.3-22.5 14.7-38 23.7-56.6 2-4.2 2.4-6.1 1.9-9.9-1.2-8.8 6.2-25.8 14.2-32.9 3-2.6 4.2-3 9.3-3 5.2 0 7.3.7 18.7 6.4m-36.9 48.4c-3.3 3.7-11.7 23.2-22.2 51.7-3.4 9.3-10.1 26.4-14.9 37.8-4.8 11.5-8.5 21.5-8.3 22.2.3.6 2.9 2.6 5.9 4.2 11.1 6.3 19.1 19.6 21.3 35.4 1.5 10.3-3.9 25.2-12.1 33.3-11.3 11.3-29.2 13.9-40.9 6-2.1-1.4-4.1-2.2-4.5-1.7-.7.8-23.8 60.9-26 67.6-2.4 7.6 1.1 11.9 8 9.8 4.6-1.4 26.9-13.7 36.7-20.3 9.5-6.3 12.1-6.9 16.2-3.1 2.9 2.6 3.2 3.6 5 16.3 2.4 16.2 4.3 22.9 7.7 27 3.1 3.6 6.9 4 10.8.9 5.5-4.3 5.9-6.4 6.6-32.9.4-17.6.9-25.2 1.9-27 2.7-5 6.9-8.3 18.9-14.7 9.6-5.2 12.1-7 11.6-8.2-4.7-11.1-5.4-19.3-2.5-29.1 3.8-12.5 13.3-20.2 26.9-21.9 14-1.8 25.9 2.2 36.7 12.1l5.8 5.2 5.6-3c47-25.3 57.4-31.1 57.8-32.1 1.2-3-18.9-33-35.1-52.5-28.4-33.8-63.9-62.2-100-79.9-10.7-5.3-14.4-5.9-16.9-3.1m44.8 60c5.4 2.7 12.1 10.1 14.6 16 2.9 6.6 3.6 17.4 1.5 24.4-2 7-8.8 14.9-16 18.5-7.5 3.8-19.3 4.4-27.6 1.3-7.8-2.9-14.1-8.5-17.1-15.2-3.3-7.3-3.4-22.1-.3-28.8 3.8-8.1 11.3-14.1 21.9-17.7 5.8-1.9 18-1.1 23 1.5m-24 9.6c-5.2 2.4-10.9 8-12.6 12.3-1.4 3.8-1.1 14 .6 18.1 5.5 13.1 23.1 17.1 35.6 8 5.4-3.9 7.9-9.5 7.9-17.8 0-9.7-4.3-18-11.2-21.6-4.3-2.2-14.5-1.8-20.3 1m-6.2-112.5c-4.7 2.1-10.9 17.7-9.6 24.4.9 4.9 1.8 6.1 5.7 7.5 10.1 3.7 41.7 22.5 59.6 35.5 15 11 40.3 35.3 55.1 53.2 10.3 12.4 21.7 28.3 29.2 40.5 3.5 5.7 7 10.8 7.9 11.4 1.1.6 3.9.6 8.9-.3 9.8-1.7 12.7-2.9 17.1-6.9 3.1-2.8 3.8-4.1 3.8-7.1 0-5.5-6.6-18.2-19.5-37.6-29.5-44.4-61.4-73.6-111.5-102-28.8-16.4-40.7-21.1-46.7-18.6m-66.4 168.8c-.6 1.6-2.2 5.7-3.6 9.3-1.3 3.6-5.1 13.3-8.4 21.7-3.2 8.3-5.9 15.9-5.9 16.8 0 3.1 3 8.1 5.9 9.8 3.9 2.3 13.4 2.2 18.7-.2 6.1-2.8 11-7.6 14.1-13.9 3.8-7.8 3.9-19.8.4-28.6-3.3-8.2-12.3-17.6-16.9-17.6-2.6 0-3.5.5-4.3 2.7m94.1 37.6c-5 1.6-12.6 9.3-13.9 14.2-2 7.5-.5 21 2.5 22.2 1.4.5 40.9-18.9 45.1-22.3 2.6-2.1 2.6-2.2 1.1-4.6-5.1-7.8-24-12.9-34.8-9.5" style="fill:#ebebeb"/></svg>