<svg xml:space="preserve" fill="#ebebeb" style="fill-rule:evenodd;clip-rule:evenodd;stroke-linejoin:round;stroke-miterlimit:2" viewBox="0 0 380 384" xmlns="http://www.w3.org/2000/svg"><path d="M217.6 30.9c19.1 3.9 41.2 12.9 56 22.7 16.2 10.8 33.5 26.7 43.5 39.9 13.9 18.4 24.3 44.7 28.4 71.6 2.6 17.6 1.7 46.6-1.9 60.8-3.7 14.7-7.1 24.1-12.7 35.5-18.7 37.9-51.7 67.1-91.9 81.1-19.5 6.8-26.8 7.9-51 7.9-18.5 0-22.9-.3-32-2.3-21.2-4.5-41.3-12.5-55.7-22.1-37.3-25-61.1-60.2-70.5-104.5-2.9-13.6-3.2-46.1-.5-60.5 8-42.8 28.3-75.4 63.4-101.7 10.2-7.6 30.1-18.1 43.1-22.7 8.2-2.9 24-6.3 35.2-7.6 12-1.4 35.1-.4 46.6 1.9M116 56.6c-29.8 16.6-48.7 36-63.5 65.4-6.7 13.3-11.4 28.4-13.3 42.2l-.9 6.8h5.5c7.4 0 16.2 2.4 25.7 7 18.6 9 26.6 22.3 28 46.8 1 19 4.4 28.6 16.2 46.2 8.4 12.5 10.3 26.2 6.3 44.4-1.1 5-2 9.1-2 9.2 0 .3 16.6 7.2 21.1 8.7 12.4 4.2 30.8 7.7 40.1 7.7 3.4 0 3.9-.3 3.3-1.8-.4-.9-1-5.4-1.3-9.8-.4-6.7 0-9.4 1.8-15 5.7-17.4 10.4-22.6 28.3-31.3 16-7.8 18.2-10.3 18.2-20.2 0-5.3-.5-7.4-2.1-9.6-2.8-3.8-13.4-9-22.2-10.8-10.1-2.1-17.7-6.2-25-13.7-7.5-7.5-11.7-15.5-13.4-25.4-1.4-8.7 0-15.4 7.1-32.4 2.7-6.3 5.1-13.2 5.5-15.3 1.1-5.8-1.6-13.5-6.1-17.8-5-4.9-9.6-7.1-22.8-10.8-13.2-3.9-19.2-7-24.6-12.9-11.3-12.2-12.9-31.5-4.6-54.5 1.3-3.7 2.2-6.7 1.8-6.7-.3 0-3.5 1.6-7.1 3.6M37.3 195.2c.3 7.9 1.3 18.3 2.2 23.3 5.1 28.4 21 58.1 42.5 79.5 9 9 24.4 21 27 21 .9 0 1.7-5.5 2.6-19.1.6-8.9.5-10.1-1.8-15-1.4-3-4.3-8.2-6.5-11.6-6.6-10.1-12.3-22.8-13.8-30.6-.8-3.9-1.8-13.1-2.3-20.2-.7-10.9-1.3-13.8-3.5-18.1C77 191.1 59 181 42.1 181h-5.4zm240-113.9c-8.4 8.9-10.5 13.1-13.7 27.2-4.4 19.2-7.5 26.4-16.2 37.9-7.9 10.4-9.8 14.7-10.2 23.8-.4 6.5-.1 8.3 1.7 11.1 4.7 7.6 14.9 8.3 28.6 2 10.8-5 18.7-6.7 25.8-5.8 9.8 1.4 14.2 4.3 26.2 17.7 2.8 3.1 6 5.2 10.5 7l6.5 2.6.3-11.2c1.3-44.3-15.6-86.5-45.1-112.9l-7.5-6.7zM165.5 39.6c-10.5 2.1-14 2.9-20.5 5l-7.5 2.4-3.3 7.7c-5.1 12.1-7.2 19.9-7.9 29.3-.7 10.5 1 16.6 6.3 22.9 4.6 5.3 10.1 8.1 24.2 12 6.2 1.7 13.4 4.2 16.1 5.5 9.7 4.9 16.3 16.2 16.4 27.6 0 6.7-1 10-8.9 30-6.4 16.2-4.9 27.1 5.4 38.2 7.7 8.2 11.6 10.5 23.5 13.4 5.6 1.4 12.8 4 16.1 5.7 10 5.3 15.3 15 14.4 25.9-1 11.6-6.9 18.4-22.5 25.9-5.8 2.9-12.6 6.9-14.9 9.1-8 7.4-13.5 26.1-10.7 36.8 1.2 4.4 2.8 4.7 17.3 2.5 12.6-1.8 33-8 44.5-13.5 39.2-18.8 72.1-61.3 80.8-104.5l1.4-7-6.8-2.1c-8.3-2.6-15.1-7.5-21.2-15.3-5-6.4-11.1-10.1-16.5-10.1s-13.5 2.1-19.4 5.1c-10.9 5.5-21.1 7.1-29.2 4.7-5.8-1.8-13.1-9.1-14.6-14.7-3.5-13.4.4-28.9 10.1-40 8-9 11.8-17.9 15.9-37.1 2.8-13.3 7.3-22.1 15.7-30.7 3.5-3.5 6.3-6.5 6.3-6.8 0-.9-14.1-9.6-21.9-13.5-9.8-4.8-28.3-11.2-39.3-13.4-5.6-1.2-13.1-1.6-27.5-1.5-10.9.1-20.7.3-21.8.5m171.8-27.4c1.1.9 2 3.7 2.6 8.4.5 3.9 1.4 8 2 9.1 1.8 3.4 8.3 8.5 14.1 11 8 3.5 8.5 3.8 8.5 5.9 0 1.3-1.2 2.2-4.1 3-6.3 1.8-9.7 3.9-13.7 8.3-4.7 5.2-6.7 9.2-6.7 13.5 0 5.4-.8 6.6-4.5 6.6-3.2 0-3.2-.1-3.9-5.7-.9-7.4-5.9-16.8-10.6-19.8-1.9-1.3-6.1-2.9-9.2-3.5-5.1-1-5.8-1.4-5.8-3.5s.7-2.5 5.5-3.5c10.7-2.2 18.9-11.4 20.1-22.5.6-5.6 1.8-8.5 3.3-8.5.4 0 1.5.6 2.4 1.2m-6.9 28.2-4.1 5.2 9.8 10.6 3.7-4.2c2-2.4 4.1-4.8 4.7-5.3.7-.6-.8-2.7-4.4-6.3-3-3-5.4-5.4-5.5-5.3-.1 0-1.9 2.4-4.2 5.3" style="fill:#ebebeb"/></svg>