<svg xml:space="preserve" fill="#ebebeb" style="fill-rule:evenodd;clip-rule:evenodd;stroke-linejoin:round;stroke-miterlimit:2" viewBox="0 0 403 397" xmlns="http://www.w3.org/2000/svg"><path d="M206.4 22.5c18.7 7.6 35.9 22.6 43.3 37.5 6.1 12 9.3 25.7 9.3 39.2 0 6 .2 10.8.5 10.8s1.6-.7 2.9-1.5c1.2-.8 6.1-3 10.7-4.7 8-3.1 9.1-3.2 22.4-3.3 12.8 0 14.8.3 22.8 2.9 9.8 3.2 18.7 8.2 26.2 14.7 6.9 5.9 16.6 17 18.9 21.5 7.9 15.2-4.9 50.4-25.3 69.6-7.8 7.5-15.4 12-28.9 17.3-8.5 3.4-9.2 3.9-8 5.5 11.3 15.6 16.6 27.3 18.9 41.3 2.3 14.6-.2 31.6-7.3 50-6.6 17.1-16.8 22.9-42.8 24.4-8.8.4-13.4.2-19.9-1.1-22.6-4.6-41.5-16.6-50.5-32-2.1-3.6-4.1-6.6-4.5-6.6-.3 0-2.4 2.8-4.6 6.1-6.6 10-17.2 19.2-28.9 24.9-12.9 6.4-24 8.9-39.3 9-29.8 0-41-8-49.6-35.5-9.1-29.3-4.6-54.4 14.3-78.8l2.2-2.7-3.1-1.1c-6.5-2.3-19.8-9.2-25.6-13.4-16.8-12-30.4-33.7-35-56-2.9-14.2-1-19.6 11.7-33 12.1-12.9 22.5-19.7 37.4-24.7 6-2 8.9-2.3 21.9-2.3 13.8 0 15.6.2 23.1 2.8 4.5 1.5 9 3.4 10 4.2s2.2 1.5 2.5 1.5.9-6 1.2-13.3c1-23 7.1-38.1 21.2-52.2 8.6-8.6 22.5-18.5 30.3-21.6 6.6-2.6 14.4-2.4 21.6.6M190.1 32c-7.4 2.5-24 14-31.1 21.6-6.5 7-11.1 15.7-13.6 25.3-1.8 7.3-1.6 23.3.6 34.6 2.7 14.5 0 16-14.3 7.8-21.2-12.1-36.6-14-57.2-7.1-8.7 2.9-18.1 9.6-27.6 19.5-10.5 11.2-12.1 14.6-10.9 23.5 3 21 20.9 46.2 39.8 56.1 6.9 3.7 19.7 7.7 24.2 7.7 3.3 0 7 2.6 7 4.8 0 1-2.1 3.8-4.6 6.2-6.2 6.1-12.8 15.5-16.3 23.2-8.7 19.2-8.2 43.8 1.2 64.1 6.5 14 14.6 18.1 35.2 18.2 14.2 0 22.5-1.8 33.2-7.3 9.5-4.8 16.3-10.3 22.2-17.7 5.8-7.2 8.7-12.6 12-22.5 2.3-6.6 2.9-7.5 5.3-7.8 3-.4 4.3 1.5 7.3 10.8 3.6 11.3 7.8 18.3 15 25.5 11 11 25.3 17.4 43.1 19 12.1 1.1 31-3.1 36.7-8.3 4.7-4.2 10.6-21.2 12.8-36.5.9-6.5.9-10.3 0-16.7-2.5-17.1-9.1-30.2-20.9-41.7-5-5-6.2-6.7-5.7-8.3.8-2.5 2.6-3.3 12.5-5.6 4.1-.9 11.3-3.4 16-5.6 7.4-3.4 9.7-5.2 18.5-14.1 11.3-11.6 17.9-22 22.1-35.2 5.1-15.8 3.6-20.4-12.1-35.3-10.3-9.9-20.7-15.9-31.3-18.1-16.6-3.4-36.5 1.1-52.4 12-10.1 6.9-12.2 4.1-9.5-12.9 3.2-19.9 1.4-33.9-5.9-47-6.3-11.2-21.2-23.9-36.7-31.3-7.2-3.3-7.4-3.4-14.6-.9m11.4 90c4.8 2.3 7.5 6.4 7.5 11.5 0 4.3-1.3 7.1-5.2 10.7l-2.8 2.6v13.9c0 15.3-.1 15.1 7.3 19.8l2.9 1.8 11.8-5.8c9.3-4.6 12-6.4 12.5-8.3 2.8-11.1 18.1-13.9 23.8-4.3 6 10.1-3.5 22.3-14.9 19.3-4.2-1.1-4.6-1-15.5 4.4l-11.1 5.5.5 4.2c.2 2.3-.2 7-1 10.4l-1.5 6.2 7.2 8.1c5.5 6 7.9 8 9.8 8 4.5 0 10.9 3.8 12.6 7.4 2 4.2 2 6.7.2 11.1-5.3 12.6-24.6 7.8-24.6-6 0-3.7-.7-4.9-7.7-12.4l-7.8-8.4-5.7 1.3c-4.6 1.1-6.5 1.1-10.3 0l-4.7-1.3-8.4 8.4c-6.5 6.5-8.4 8.9-8 10.5.9 3.6-1.3 9.1-5 12.3-10.4 9.2-26-2.7-20.2-15.4 1.4-3.1 7.5-6.5 11.5-6.5 2.2 0 4.7-1.9 11.3-8.5l8.4-8.5-1.9-3.2c-1.2-2-2.1-6-2.5-10.3l-.5-7-10.8-5.7c-9.7-5.1-11-5.6-13.7-4.6-9.8 3.4-20.2-6.9-17-16.6 1.6-5.1 5.2-7.8 10.8-8.4 7.5-.7 12.2 2.3 14.7 9.4 1.1 3.2 2.5 4.2 12.2 9.4l11 5.9 3.9-2.1c9.1-4.7 8.4-3.1 8.4-19.9v-15.1l-3-2.9c-6.6-6.7-4-18.2 5-21.8 3.8-1.5 6-1.3 10.5.9m-13.1 67.9c-6.5 4-8.1 9.8-4.4 15.8 2.7 4.5 7.3 6.6 12.8 6 5.9-.6 8.4-3.2 9-9.5.5-6.1-1.5-10.3-6.2-12.6-4.5-2.1-7.4-2-11.2.3" style="fill:#ebebeb"/></svg>