<svg xml:space="preserve" fill="#ebebeb" style="fill-rule:evenodd;clip-rule:evenodd;stroke-linejoin:round;stroke-miterlimit:2" viewBox="0 0 355 443" xmlns="http://www.w3.org/2000/svg"><path d="M138 45.1c10.3 4.6 14.9 10.7 17.5 22.7 1.2 5.7 1.5 14.3 1.5 37.7v30.4l4.4-2.5c9.9-5.5 21.9-5.3 30.8.6 3.8 2.5 10.7 10 13.6 14.7.6.9 2.6.6 8.2-1.3 17.4-6.1 32.4 0 39.4 15.9l2.6 5.7 3.7-1.9c6.3-3.1 14.5-4.4 20.7-3.1 7 1.4 15.2 6.5 19.3 11.8 6.4 8.5 6.5 8.7 6.1 72.9l-.4 57.8-3.1 11.5c-8.4 31.5-28.8 57.6-56.1 71.7-18.3 9.6-34.6 13.3-58 13.3-30.5 0-52.7-8.1-76.3-27.9C98.2 363.6 90.3 353.2 79 331c-5-9.6-12.9-24.7-17.6-33.5C43 263.4 40.3 253.2 46 240.2c2.5-5.7 9-12.6 14.5-15.4 6-3.2 15.7-3.5 22.3-.9 3 1.2 7 3.2 9 4.6s4.1 2.5 4.5 2.5c.5 0 .8-36.1.6-81.3-.2-58.6.1-82.3.9-85.2 2.6-9 9.7-16.9 17.8-19.9 5.9-2.2 17-2 22.4.5m-19.8 10.3c-1.7.8-4.4 2.8-5.8 4.3-6 6.3-5.7 2-5.5 95.2.2 67.7.5 86.3 1.6 89.8.7 2.4 5.8 11.4 11.2 19.9 5.4 8.6 10.4 16.6 11.2 17.8 2.8 4.5-.8 9.7-5.6 8.2-1-.3-7-8.5-13.3-18.3-12-18.4-24.3-33.1-31-37.1-10.8-6.5-26.3 2.1-27.8 15.4-.8 7.1 2.9 15.6 20 46.9 2.2 3.8 7.2 13.8 11.4 22.2 9.9 20.2 17.1 30.8 28.6 41.8 22.3 21.6 46.8 31.5 77.6 31.5 45.8 0 84.5-27.3 99.1-69.9 5.3-15.5 5.4-16 5.8-74.1.3-40.1.1-55.5-.7-58.7-2.4-8.3-12.3-16.3-20.1-16.3-7.3.1-16 8-17.9 16.6-.5 2.1-1 11.3-1 20.5 0 11.5-.4 16.9-1.2 17.7-1.6 1.6-6.3 1.5-7.7-.1-.7-.9-1.2-10.6-1.3-29.3-.3-26.4-.4-28.1-2.5-31.9-4.4-8.2-10.8-11.9-19.5-11.3-14.2 1-18.6 12.4-17.6 45.3.3 8.2.2 16-.2 17.1-1.1 2.8-4.5 3.6-7 1.6-1.8-1.6-2-3.4-2.4-32.2-.4-33.4-.6-34.5-6.5-41.3-9-10.2-23-8.2-30.1 4.4-2.5 4.4-2.5 4.5-3 37.7-.4 28.1-.7 33.4-2 34.2-2.1 1.4-5.6 1.2-6.8-.3-.6-.7-1.3-29-1.8-77.2l-.9-76-2.4-4.8c-3.1-6.5-8.2-9.7-15.8-10.3-3.8-.3-6.9.1-9.1 1" style="fill:#ebebeb"/></svg>