<svg xml:space="preserve" fill="#ebebeb" style="fill-rule:evenodd;clip-rule:evenodd;stroke-linejoin:round;stroke-miterlimit:2" viewBox="0 0 381 353" xmlns="http://www.w3.org/2000/svg"><path d="M3755 8600c-27-10-42-30-47-59-3-22-21-29-258-97-140-40-340-97-445-125-104-28-282-78-395-110s-342-95-510-139c-167-45-324-91-347-102-55-26-139-118-153-166-6-24-10-304-10-789 0-729 1-754 20-806 27-73 79-130 148-164l57-28h2490l52 24c61 27 126 93 156 159 22 47 22 53 25 796 4 862 7 822-83 911-97 98-5 89-1040 95l-910 5 170 46c94 26 269 75 390 109s328 92 459 129l239 67 23-23c28-28 49-29 91-3 47 29 66 72 61 142-3 47-10 64-33 88-40 42-104 59-150 40m555-785c63-33 60 13 60-795 0-696-1-737-19-770-10-19-33-45-51-57l-33-23H3066c-1359 0-1249-7-1293 80l-23 44v726c0 802-4 749 64 791 30 18 68 19 1249 19 1061 0 1222-2 1247-15" style="fill:#fff;fill-rule:nonzero" transform="matrix(.1 0 0 -.1 -111 903)"/><path d="M2093 7545c-16-7-33-20-37-30-3-9-6-236-6-504 0-479 0-489 21-515 25-32 75-35 110-7l24 19 3 499c2 392 0 502-10 516-20 26-69 37-105 22m387-15c-18-18-20-33-20-197v-177l-41-36c-32-27-42-44-46-76-5-36-1-45 27-77 18-21 38-37 46-37 12 0 14-37 14-210 0-197 1-211 20-230 30-30 83-27 109 6 21 26 21 36 21 514s0 488-21 514c-26 33-79 36-109 6m414-43-29-25-3-266c-3-214-6-266-17-266-26 0-65-60-65-99 0-42 28-86 60-96 18-6 20-16 20-94 0-97 12-146 40-161 30-16 65-12 94 11l26 20v478c0 449-1 479-18 494-33 30-75 32-108 4m792 3c-123-22-243-116-303-238-26-52-28-66-28-172 0-110 2-118 33-182 39-80 124-163 209-205 51-25 69-28 153-28 184 0 301 69 377 223 37 74 38 79 38 187 0 104-2 114-32 175-83 169-272 270-447 240m172-184c86-45 152-140 152-222 0-129-110-246-246-262-85-9-219 87-243 174-27 96-7 181 57 248 57 59 125 88 193 83 31-3 70-12 87-21" style="fill:#fff;fill-rule:nonzero" transform="matrix(.1 0 0 -.1 -111 903)"/></svg>