<svg viewBox="0 0 435 327" xmlns="http://www.w3.org/2000/svg" xml:space="preserve" style="fill-rule:evenodd;clip-rule:evenodd;stroke-linejoin:round;stroke-miterlimit:2"><path d="M243.9 126c16.9 4.8 30.1 12.9 41.7 25.3 10.5 11.3 16.7 22.9 20.9 39.2 2 7.6 3.6 36.3 2.3 40.2-.8 2.6-4.9 3.2-6.5 1-.6-.6-1.5-8.6-2.1-17.7-1.1-16.8-2.4-23.8-6.6-34.2-8.3-20.4-25.8-36.6-46.9-43.3-23.9-7.6-46.7-5.2-68.6 7.2-17.6 10-27 21.9-34.3 43.6-2.8 8.4-3.1 10.6-3.5 25.2-.5 20.1-.6 20.5-4.1 20.5-4.8 0-5.2-1.3-5.2-16.5 0-14.9 1.2-22.7 5.5-35.5 9.3-27.8 34.4-49.3 65.5-56.1 11.4-2.5 31.1-2 41.9 1.1zm-5.1-89.9c28 3 53 12.2 77.2 28.3 48.1 32.1 78.3 89.7 77.9 148.8 0 5.7-.3 12.1-.7 14.2-.8 4.6-3.3 6.7-5.9 5-1.6-1-1.9-3.5-2.4-20.5-1-30.3-6.3-52-18.9-77.4-7.9-15.9-17.1-28.6-30.5-42-13.6-13.6-26.1-22.7-43-31-14.4-7.1-23.8-10.5-38.3-13.8-8.5-1.9-12.7-2.1-34.7-2.2-24 0-25.5.2-37 2.9-31.3 7.4-54.3 20.2-77 43-23.2 23.3-37 47.6-44.4 78.6-4 16.6-5.1 26.3-5.1 45.7 0 15.2-.1 16.3-2 17.3-2.7 1.4-5.8-.3-6.6-3.5-.3-1.4-.4-11.9-.1-23.3.4-15.9 1-22.9 2.6-30.2 8.1-36.5 24.1-66.2 49-91 23.7-23.6 52.9-39.6 83.8-46.1 17.1-3.6 39.2-4.7 56.1-2.8zm4.4 44.4c52.7 9.2 95 51.4 105.7 105.3 2.1 10.7 3.6 36.8 2.3 42.1-.9 4.2-3.4 6.1-6 4.5-1.5-1-1.8-3.4-2.3-17.5-.8-19.1-2.6-30-7.5-44.1-8.2-23.4-20.5-41.5-37.7-55.3-25-20-51.6-28.6-84.2-27.2-26 1.2-52 11.2-71.9 27.7-18.5 15.5-31.1 34.8-38.6 58.8-4 13.1-5 20.7-5 40.3 0 13.5-.3 16.9-1.5 17.9-2.1 1.7-6.1.4-6.9-2.2-.3-1.3-.6-10-.6-19.3 0-14.4.4-18.6 2.4-27.5 4.3-18.7 10.6-33.6 20.9-49 6.6-9.9 24.1-27.3 34.2-33.9 15.6-10.2 35.2-18 51.3-20.5 12.1-1.9 34.7-1.9 45.4-.1z" style="fill:#ebebeb"/></svg>