<?xml version="1.0" encoding="UTF-8" standalone="no"?>
<!DOCTYPE svg PUBLIC "-//W3C//DTD SVG 1.1//EN" "http://www.w3.org/Graphics/SVG/1.1/DTD/svg11.dtd">
<svg width="100%" height="100%" viewBox="0 0 24 24" version="1.1" xmlns="http://www.w3.org/2000/svg" xmlns:xlink="http://www.w3.org/1999/xlink" xml:space="preserve" xmlns:serif="http://www.serif.com/" style="fill-rule:evenodd;clip-rule:evenodd;stroke-linejoin:round;stroke-miterlimit:2;">
    <rect id="Artboard1" x="0" y="0" width="24" height="24" style="fill:none;"/>
    <g id="Artboard11" serif:id="Artboard1">
        <g transform="matrix(0.583942,0,0,0.583942,0.993799,-0.0267592)">
            <path d="M18.848,19.146C14.128,14.746 7.808,12.046 0.848,12.046L0.848,34.046C7.808,34.046 14.128,36.746 18.848,41.146C23.568,36.766 29.888,34.046 36.848,34.046L36.848,12.046C29.888,12.046 23.568,14.746 18.848,19.146ZM18.848,12.046C22.168,12.046 24.848,9.366 24.848,6.046C24.848,2.726 22.168,0.046 18.848,0.046C15.528,0.046 12.848,2.726 12.848,6.046C12.848,9.366 15.528,12.046 18.848,12.046Z" style="fill:white;fill-rule:nonzero;"/>
        </g>
    </g>
</svg>
