<svg xml:space="preserve" fill="#ebebeb" style="fill-rule:evenodd;clip-rule:evenodd;stroke-linejoin:round;stroke-miterlimit:2" viewBox="0 0 386 437" xmlns="http://www.w3.org/2000/svg"><path d="M212.5 38.4c25.9 7.3 47.1 28.6 54.7 55.2 2.9 10 3.1 26.5.5 36.4-3.6 13.5-10.8 26.1-21.4 37.1l-6.3 6.5 7.3 2.3c10.6 3.5 16.8 6.4 26 12.4 29.2 19 46.2 45.3 48.5 75.2l.7 9 6 1.8c9.5 2.9 10.4 3.5 11.9 6.9.8 1.8 3.3 13.2 5.5 25.3 2.3 12.1 5.5 29.2 7.2 38 4.7 25.4 6 35.1 4.9 37.9-2.2 6 8.2 5.6-167.4 5.4l-160.4-.3-2.6-2.4c-4.4-4.1-3.5-11.2 7-56 7.9-33.9 12.2-49.2 14.4-51.6 1.1-1.2 4.7-2.9 8-3.8l5.9-1.7.6-5.7c2.2-18.7 6.9-32.2 15.8-45.7 14-21 37.3-38.2 59.9-44.2l6.7-1.8-7.8-8.1c-14.7-15.3-22-31.7-22.8-51-1-22.7 6.1-40.8 22.2-57 11.3-11.4 22.4-17.7 37-21.1 8-1.8 29.9-1.2 38 1M102 273.5c-10.5 1.5-28.7 5.4-39.1 8.5-8 2.4-6.3-1.7-15.9 37.5-7.2 29.7-10.8 47-9.8 48 .3.3 6.1-1 12.8-3 27.9-8.1 42.7-10.5 64.8-10.5 20.4 0 43.3 5.5 62 14.9 4.5 2.3 8.6 4.1 9.2 4.1.7 0 1-13.1 1-38.9v-38.8l-4.9-4.6c-15.6-14.6-48.1-21.6-80.1-17.2M97.5 364c-4.4.5-13.5 2-20.1 3.4-11.8 2.6-35.2 9-36.2 10.1-.3.3 17 .5 38.5.5 21.4 0 52 .2 67.9.5l28.9.5-5.1-2.4c-20.7-9.8-51.2-15-73.9-12.6m145.6-90.4c-19.3 2.8-33.8 8.3-41.7 15.8l-4.4 4.3v36c0 19.8-.3 37.5-.6 39.2-.8 4 .8 4.1 7.8.5 6.9-3.5 26.1-9.7 37.9-12.3 18.9-4 45-3.7 66.3.9 5 1.1 15.7 4.1 23.8 6.7 8.2 2.5 15 4.4 15.3 4.1.3-.2-.9-7.2-2.5-15.4-1.7-8.2-5.1-26.3-7.6-40.3-2.4-14-4.7-25.8-5-26.2-.6-1-12-4.5-28.4-8.8-22.8-5.9-41.5-7.3-60.9-4.5m2.4 92.5c-4.9 1-12.7 3.1-17.4 4.5-8.2 2.5-19.8 7.2-19 7.7.2.1 30.1.1 66.3-.1l66-.4-11.5-3.9c-6.3-2.2-17.9-5.3-25.9-6.9-12.9-2.7-16.4-3-32-2.9-13.3 0-19.6.5-26.5 2m-93.7-182c-7.7 1.1-15.8 3.5-23.6 7.1-21.1 9.4-41.2 30.4-49.3 51.3-3 7.6-6.8 24.9-5.8 26 .3.2 7.2-1 15.5-2.7 13.7-2.9 16.4-3.2 33.4-3.2 17.5 0 19.1.2 30 3.1 14.5 3.8 24.9 8.2 33.3 13.8l6.5 4.3 5.3-4c10.1-7.7 26.3-13.3 45.4-15.9 13.9-1.8 41.5-.6 55.5 2.4 6.3 1.4 12.4 2.9 13.4 3.3 1.8.7 1.9.3 1.3-5.9-.8-8.2-5.6-22.9-10.5-31.9-7.4-13.8-23.8-30-39.1-38.6-8.6-4.8-21.6-9-30-9.8-5.9-.6-8-.3-14.7 2.1-15.2 5.2-34.4 5.2-50.8 0-4.3-1.4-8.4-2.4-9-2.4-.6.1-3.7.5-6.8 1m23.4-136.5c-3 .8-8.5 3-12.4 4.9C140 64 126.5 84.3 125.3 109c-.6 13 1.1 21.1 6.9 33 3.4 6.8 6 10.3 13.3 17.6 7.5 7.7 10.4 9.8 17.5 13.2 20.5 9.7 40.1 9.5 59.9-.8 19.2-10 32.8-29.2 36.1-51.2s-7-46.6-25.4-60.5c-7.3-5.5-17.8-10.7-26.1-12.8-7.5-1.9-25.1-1.9-32.3.1" style="fill:#ebebeb"/></svg>