<svg xml:space="preserve" fill="#ebebeb" style="fill-rule:evenodd;clip-rule:evenodd;stroke-linejoin:round;stroke-miterlimit:2" viewBox="0 0 319 255" xmlns="http://www.w3.org/2000/svg"><path d="M8112 8689c-433-91-775-435-868-873-48-224-18-485 80-700 76-166 241-361 394-465 214-145 487-216 735-191 482 49 868 377 994 847 24 89 27 115 27 283 0 171-2 193-28 285-118 430-459 746-885 820-120 21-333 18-449-6m329-128c244-26 459-129 616-294 88-92 122-143 178-259 73-151 88-225 88-418 0-137-3-178-21-242-95-345-333-599-657-701-461-145-962 71-1175 508-67 136-92 239-97 400-6 155 14 272 70 408 130 319 439 552 792 596 96 12 108 12 206 2" style="fill:#fff;fill-rule:nonzero" transform="matrix(.1 0 0 -.1 -675 880)"/><path d="M8750 8190c-39-39-27-75 55-162 105-112 175-260 175-374 0-83 77-126 128-71 56 60-1 297-109 453-18 27-62 77-97 111-54 52-71 63-98 63-21 0-42-8-54-20m-485-160c-104-22-180-65-252-143-128-139-149-360-50-529 34-59 122-140 187-173 68-34 179-58 239-50 218 30 368 173 401 383 48 296-235 571-525 512m212-176c180-86 225-321 90-471-74-82-206-115-315-79-106 36-190 145-199 261-6 75 8 129 50 191 82 123 237 164 374 98" style="fill:#fff;fill-rule:nonzero" transform="matrix(.1 0 0 -.1 -675 880)"/><path d="M8295 7645c-62-62 2-162 85-134 82 29 57 159-30 159-19 0-40-9-55-25" style="fill:#fff;fill-rule:nonzero" transform="matrix(.1 0 0 -.1 -675 880)"/></svg>