<svg xml:space="preserve" fill="#ebebeb" style="fill-rule:evenodd;clip-rule:evenodd;stroke-linejoin:round;stroke-miterlimit:2" viewBox="0 0 352 418" xmlns="http://www.w3.org/2000/svg"><path d="M188.5 25.8c3.3 1.6 9 4.7 12.7 7 8.3 5.1 13.5 6.5 20.7 5.7 24.8-2.9 31.7.7 42.5 22.2 2.9 6 6.2 11.5 7.2 12.4 1.1.9 5.6 3.8 10.2 6.4 11.7 6.7 18.4 13.1 20.5 19.6 2 6.1 2.1 8.9.5 23l-1.2 10.8 3.5 6.8c2 3.7 5.2 10 7.3 13.9 4.2 8.1 5.4 15.3 3.6 20.8-.6 2.1-4.8 8.5-9.1 14.3-4.4 5.8-8.1 11.6-8.4 12.7-.2 1.2-.6 7.7-.8 14.6-.3 10-.7 13.4-2.4 17-3.9 8.5-12.9 14.9-26 18.5-9.7 2.7-10.1 3.6-5.7 13.6 4.6 10.8 30 74.7 32.5 81.8 2.4 6.8 2.4 10.3.1 12.5-2.2 1.9-4.6 1.5-34.5-4.8-9.3-2-17.2-3.6-17.7-3.6-.4 0-5.8 8-12 17.7-6.2 9.8-12 18.6-12.8 19.5-1.8 2.1-5.5 2.3-7.4.4-.8-.7-4-8.5-7.2-17.2s-9.8-26.3-14.6-38.9c-4.8-12.7-9-23.9-9.5-25l-.7-2-.9 2c-5.6 13.4-18.9 48.7-23.4 62-5.9 17.5-7.7 20.5-12.1 20.5-1.9 0-3.2-1.1-5.2-4.6-5-8.4-22.2-34.4-22.8-34.4-.4 0-10.8 2-23.2 4.5-25.2 5.1-28.9 5.3-31.1 1.5-1.3-2.4-.8-4 7.1-24 4.7-11.8 12.2-31 16.8-42.5 4.5-11.6 9.1-22.8 10-25 3.2-7.4 3.3-8.3.8-9.9-1.3-.8-5.2-2.6-8.8-3.9-10.8-4-16.6-7.4-20.4-11.9-5.1-5.9-6.6-11.9-6.6-26 0-6.9-.5-12.8-1.1-14s-3.8-5.7-7.2-10.2c-13.6-18.3-13.9-25.3-2.1-44.3l4.9-7.8V128c0-5.2-.3-13.6-.5-18.5-.4-7.8-.1-9.5 1.7-13 3.4-6.4 10.7-12.6 23.8-20.3 7.9-4.6 8.5-5.4 10.9-13.7 5.4-18.4 16.1-26.7 32.5-25.1 3.6.3 9.8.9 13.6 1.2l7 .6L152 34c19.3-11.9 25.6-13.3 36.5-8.2m57 246.4c-12 14-17.6 16.2-34.5 13.4l-10.1-1.6-8.2 3.6c-4.5 2-8.3 3.7-8.5 3.9-.1.1 2.5 7.4 5.9 16.1 3.3 8.7 9.9 26 14.4 38.4 8.8 23.6 11.3 30 11.9 30 .2 0 5-7.5 10.7-16.6 11-17.7 12.6-19.3 18.3-17.5 5.3 1.7 39.5 8.3 41 7.9 1.1-.2-2.7-10.4-14.5-39.8-8.8-21.7-16.5-41-17.1-42.8-.6-1.7-1.4-3.2-1.7-3.2s-3.7 3.7-7.6 8.2M172 33.1c-1.3.5-6.7 3.6-12 6.9-13.2 8.1-15.5 8.6-30.4 7.2-9-.9-13.1-.9-16.1-.1-6 1.7-10.5 7.1-13.8 16.5-1.6 4.5-3.9 9.7-5.2 11.6S86.7 82.4 80 87s-13.3 9.9-14.7 11.7c-2.6 3.4-2.6 3.5-1.8 15.6 1.4 21.5.9 23.7-7.9 39.2-7.7 13.4-7.5 15.5 3.9 31.4 4.1 5.7 8 12 8.7 14 .8 2.3 1.2 7.7 1 15-.2 6.2.2 12.8.8 14.5 1.7 5.2 6.7 9.2 16 12.7 14.2 5.4 18.6 9 31.1 25.1 3.3 4.3 7.4 8.5 9.1 9.4 3.2 1.7 6.2 1.6 24.4-.2 5.2-.5 7-.2 12.5 2.1 14.6 6.2 12.9 6 24.8 1.9l10.6-3.6 13.6.7c16.5.8 17.1.6 26.1-9.7 3.4-4 9.4-10.5 13.3-14.3 6.5-6.5 7.8-7.3 16.8-10.5 9.8-3.5 16.4-7.8 18.9-12.3.7-1.3 1.5-8.4 1.8-16.7.4-8.9 1.1-15.5 2-17 .7-1.4 4.1-6.3 7.5-11 11.8-16.2 11.9-17.5 3.5-31.5-8.3-14-9.5-19.3-7.9-34.7 1.9-18.4.8-20.5-16.4-31-12-7.4-15.5-11.3-23.2-25.9-8.2-15.6-7.9-15.4-30.6-15.4h-17.5l-12-6.9C182.1 32.5 177 31 172 33.1m10.4 61.8c.9 1 3.2 5.6 5 10.2 2.9 7.3 10.3 24 11 24.6.3.3 18.6 2.9 31.4 4.4 9 1.1 10.6 1.6 12.3 3.7 1 1.4 1.9 3.2 1.9 4 0 .9-6.6 8.2-14.6 16.3l-14.7 14.8.6 5.3c.3 2.9 1.5 11.4 2.6 19 2.6 16.7 1.8 19.8-4.8 19.8-1 0-8.5-4-16.7-9-8.2-4.9-15.9-9-17.2-9-1.2 0-7.8 3.3-14.6 7.4-16.3 9.8-18 10.6-21.5 10.6-2.2 0-3.5-.7-4.7-2.5-1.6-2.4-1.6-3.4.5-15.9 1.2-7.4 2.4-16.2 2.7-19.7l.6-6.4-14.1-14c-14.6-14.4-15.9-16.6-12.8-20.8 1.2-1.6 9-3.2 33.5-6.8l8.3-1.2 2.3-4.6c1.3-2.5 4.7-10 7.6-16.6 2.8-6.6 5.9-12.8 6.7-13.8 2.1-2.3 6.6-2.2 8.7.2m-8.3 19.9c-8.3 18.5-10.2 22-12.9 23-1.5.6-10 2-19 3.3l-16.3 2.3 24.6 24.6-.1 8.3c-.1 4.5-.9 12.8-1.9 18.5-.9 5.7-1.5 10.5-1.3 10.7s6.4-3.2 13.8-7.5c16.7-9.8 18.7-10.1 29.4-3.9 15.1 8.9 18.9 10.9 19.2 10.6.2-.2-.5-6.2-1.6-13.3s-2-15.1-2-17.9v-4.9l12.5-12.5c6.8-6.9 12.3-12.6 12.2-12.8-.2-.1-7.8-1.1-16.9-2.3-9.2-1.1-17.9-2.5-19.3-3-2.7-1-3-1.6-11.5-21.3-2.3-5.3-4.5-9.7-4.9-9.7-.3 0-2.1 3.5-4 7.8M102.8 271c-1.4 3-6.6 16.1-11.8 29-5.1 12.9-11.7 29.3-14.5 36.5-3.5 8.7-4.9 13.1-4 13.3.6.2 11-1.8 22.9-4.3 20.5-4.4 21.9-4.6 24.2-3 3.1 2 6.8 7.1 15.7 21.7 6.7 11 8.7 13.4 8.7 10.7 0-1.2 7.8-22.6 15.5-42.4 6.1-15.6 15.5-40.6 15.5-41.1 0-.2-.7-.4-1.6-.4s-5.5-1.6-10.2-3.7l-8.6-3.6-10.5 1.7c-11.3 1.7-15.3 1.5-21.3-1.5-3.2-1.7-5.8-4.2-15.1-15.4l-2.5-3z" style="fill:#ebebeb"/></svg>