<svg xml:space="preserve" fill="#ebebeb" style="fill-rule:evenodd;clip-rule:evenodd;stroke-linejoin:round;stroke-miterlimit:2" viewBox="0 0 398 369" xmlns="http://www.w3.org/2000/svg"><path d="M179.2 23c4.3 1.3 8.1 3.4 11.1 6.1 5.6 4.9 7.2 9.7 8.1 23.9 2 31.9 19.3 62.1 44.7 78.3 7.1 4.5 15.7 7 34.9 10.2 27 4.5 39.6 8.2 51.9 15.5 13.5 7.9 22.4 20.4 25.6 35.7 1.9 9.3 2.3 34.3.7 40.1-.7 2.3-2.6 5.7-4.2 7.6-1.7 1.8-3 4.2-3 5.3 0 1 2.5 6.2 5.6 11.4 8.2 13.9 9.4 16.4 9.4 20.6-.1 11.9-11.7 21.6-31.9 26.5l-8.8 2.2-3.3 6.3c-7 13.6-23.6 23.3-39.5 23.3-20.9-.1-38.8-13.1-45.5-33-3.8-11.2-1.5-26.1 5.6-36.5 1.4-2.1 2.4-3.8 2.2-4-.2-.1-3.9-1.3-8.3-2.8-4.4-1.4-10-3.3-12.5-4.2-4.1-1.5-7.7-1.5-41.4-.5-33 1-37.4 1.3-41.2 3.1-2.4 1-4.5 1.9-4.8 1.9-.2 0-1.6.4-3 1l-2.6.9 2.5 3.6c6.1 9.1 8.9 23.5 6.6 34.5-5.3 25.4-29.7 40.5-56.3 34.9-19.6-4.1-34.8-24.1-34.8-45.6 0-14.6 9.9-31.2 22.6-38.4l5.1-2.9.7-6.5c.4-3.6.9-7.1 1.2-7.9.4-1.1-1.4-1.5-9.3-2-11.7-.8-16.8-2.2-20.8-5.8l-3-2.6v-41.9c0-45.6-.1-44.1 6.6-68.3 4.7-17.1 6-26.9 6.5-49.5.6-23.6 1.3-26.9 7.1-32.8 8.8-9.1 11.5-9.5 64.9-9.6 41.5-.1 44.6 0 50.6 1.9m5.3 45.6c-.5.2-5.4 1-10.9 1.8-5.4.8-10 1.7-10.2 1.9-.5.5 2 10.3 5.3 20.5 2.5 7.7 2.9 8.3 5 7.7 2.8-.7 22.3-11.4 22.3-12.2 0-.3-1.2-5-2.7-10.4-2.6-9.2-2.9-9.9-5.3-9.8-1.4 0-2.9.2-3.5.5m83.8 186.8c-10.7 3.5-17.6 9.7-22.7 20.6-2.6 5.5-3.1 7.7-3.1 14.5 0 7.1.4 8.8 3.3 14.7 4 8.3 11.9 15.8 20 18.9 8.6 3.5 21.6 3.3 29.4-.3 7.5-3.5 14.1-9.8 17.5-16.7 2.5-5 2.8-6.7 2.8-15.6 0-9.3-.2-10.5-3.3-16.7-6.7-13.6-16.4-20-31.2-20.5-5.3-.2-10.1.2-12.7 1.1m16.3 17.1c8.8 2.6 13.9 10.2 13.2 19.6-.5 7.1-4 12.2-10.9 15.7-3.5 1.9-5.4 2.2-9.8 1.8-13.6-1.3-21.2-15.2-14.8-27.6 2.5-4.9 5.5-7.4 11.3-9.5 5-1.8 5.1-1.8 11 0m-9.2 8.5c-3.6 1.4-6.4 5.9-6.4 10.2 0 8.7 10.1 13 16.9 7.2 8.9-7.5.3-21.8-10.5-17.4M156 31.6c0 1.9 3.4 23.4 4.5 28.5l.6 2.5 27.4-4.2-.3-8.3c-.3-10.6-1.7-13.2-8.7-16.6-4.3-2.2-7.5-2.9-14.5-3.3-8.3-.4-9-.3-9 1.4M75.8 33c-2 1.1-5 3.6-6.5 5.7l-2.8 3.6-.6 22.1c-.7 23.5-1.6 29.7-7.3 52.1-5.8 22.3-6.1 25.2-6 49.8 0 12.5.3 23 .6 23.3.3.2 15.3.6 33.4.8 29.4.3 33.9.5 42.4 2.5 13.3 3 29.1 8.1 53.5 17.1 34.9 13 24.9 11.8 100 11.1l65-.6-.1-11c-.1-12.8-1.4-19.5-5.2-27.3-7.1-14.9-24.1-23.9-54.8-29.2-7.1-1.3-17.8-3.4-23.9-4.8-6-1.3-11.9-2.5-13-2.6-1.4-.1-4 2.1-7.9 6.7-3.2 3.8-5.6 7-5.4 7.3.3.2 5.6 1.5 11.9 2.9 13.6 3.1 16.2 5.2 11.9 9.5-2.3 2.3-2.7 2.3-24-3.2-22-5.6-30.2-9.4-44.1-20.4-8.1-6.4-15-15-21.7-26.9-9.5-16.9-16.1-37.6-20.8-64.5-1.3-8-2.9-17.1-3.6-20.3l-1.1-5.7h-33.1c-30.9.1-33.4.2-36.8 2M114 97.5c.6.8 2.7 4.9 4.5 9.2l3.4 7.8 11.3 2c6.2 1.1 11.9 2.4 12.6 2.8.6.5 1.2 2 1.2 3.4 0 2.6-5.6 9-13 14.5l-3.4 2.7 1.2 7.8c.7 4.3 1.5 9.2 1.8 10.9.7 3.8-1.8 6.8-5.1 6-1.2-.3-5.8-2.6-10.4-5.2l-8.2-4.6-5.7 3.9c-10.8 7.6-15.3 8.8-16.5 4.4-.5-2 .9-19.7 1.8-22 .3-.8-2.6-4.3-7.5-8.8-12.1-11.3-11.1-14.1 5.8-15.8 10.3-1 10.6-1.1 11.3-3.7.4-1.5 2.2-5.9 4-9.8 3-6.6 3.4-7 6.4-7 1.8 0 3.8.7 4.5 1.5m-7.4 18.4c-3 7.6-2.8 7.5-13.3 8.7-3.5.3-6.3.9-6.3 1.3 0 .3 2.6 2.8 5.6 5.5l5.7 4.9-.7 6.8c-.3 3.7-.9 7.5-1.2 8.4-.5 1.3.7.9 5.1-1.4 7-3.8 8.6-3.8 16-.6 3.2 1.4 5.9 2.4 6.1 2.3.1-.2-.1-3.5-.6-7.3l-.9-7 6.2-6.3c5.4-5.5 5.9-6.2 3.8-6.2-1.4 0-5.3-.5-8.7-1.1l-6.3-1.1-3.2-6.9c-1.8-3.8-3.5-6.9-3.9-6.9s-1.9 3.1-3.4 6.9m81.5-11.9c-6.2 3.3-11.6 6.1-11.9 6.4-.7.8 8.6 16.1 12.7 20.8 4.4 4.9 3 5.4 16-5.5 4.4-3.8 8.1-7.3 8.1-7.9s-1.5-3.1-3.3-5.7c-1.8-2.5-4.6-6.7-6.1-9.4-1.5-2.6-3.1-4.7-3.4-4.7-.4.1-5.8 2.8-12.1 6m-108 152.2c-8.5 2.9-15.9 9.7-20.3 18.6-3 6-3.3 7.5-3.2 15.2 0 7.8.3 9.1 3.7 15.8 4.8 9.4 9.5 14.5 16.5 17.9 5.1 2.5 6.7 2.8 16.2 2.8 9.3 0 11.1-.3 16-2.7 24-11.5 28.1-43.1 8-61.1-9.2-8.3-23.9-10.8-36.9-6.5m22.8 18.6c10.9 6.7 12.1 21.3 2.4 30.4-10 9.5-27.7 4.3-31.3-9.3-2.4-8.7 2-18.2 10.2-22.4 6.5-3.2 12.1-2.9 18.7 1.3m-15.1 6.7c-5.7 3.2-6.7 11.4-2 16.6C92 305 103 300.5 103 291c0-7.8-8.6-13.2-15.2-9.5m44.3-69.2c-1.2 4.5-2.1 8.5-2.1 8.9 0 .9 34.3.8 44.5-.1l7-.6-10.7-4.2c-10.9-4.3-29.2-10.6-33.9-11.7-2.5-.5-2.7-.3-4.8 7.7m48.9 18.8c-38.2.3-75.1.7-82 .8l-12.6.1-1 6.5-.9 6.5h8.1c9.4 0 18.5 2.4 25.4 6.8l4.5 2.8 17-8 41-.8 41-.9 13.9 5 13.8 4.9 6.2-3.3c13.3-7.2 26.6-8.5 40.6-3.9l8 2.7 8.3-2.8c18.9-6.4 30.9-12.4 31.5-15.8.3-1.6-2.7-1.7-46.5-1.5-25.7.1-78.1.5-116.3.9M65.3 200.3l-13.3.9v7.8c0 6.2.4 8.3 1.9 10.1l1.9 2.4h31.1c22.5 0 31.3-.3 32.2-1.2 2-2 6.1-17.6 4.8-18.4-4.4-2.7-32.9-3.5-58.6-1.6m260 52.6c-6.8 2.5-12.3 4.9-12.3 5.3s1.5 2.8 3.4 5.3c4.9 6.4 7.7 14.6 8.4 24.4l.5 8.3 3.9-.5c2.2-.3 7.7-2.3 12.2-4.5 8.6-4.1 13.6-8.9 13.6-12.9 0-1.1-3.6-8-8-15.4-4.4-7.3-8-13.7-8-14.1 0-1.1-.1-1.1-13.7 4.1m-115-119.6c-5.4 4.5-9.8 8.6-9.8 9.1 0 1.2 16.2 10.8 21.6 12.7l4.6 1.7 6.6-7.9c3.7-4.3 6.7-8.1 6.7-8.3s-1.7-1.5-3.7-2.7c-2.1-1.3-6.6-4.7-10-7.6l-6.1-5.2z" style="fill:#ebebeb"/></svg>