<svg xml:space="preserve" fill="#ebebeb" style="fill-rule:evenodd;clip-rule:evenodd;stroke-linejoin:round;stroke-miterlimit:2" viewBox="0 0 352 353" xmlns="http://www.w3.org/2000/svg"><path d="M7491 8701c-38-10-67-55-55-87 15-45 51-62 149-74 106-13 165-30 260-78 82-41 122-69 188-131 124-117 212-279 252-461 27-121 51-160 96-160 65 0 84 49 64 166-20 110-46 186-106 311-66 135-176 254-327 353-126 84-223 122-362 145-58 9-112 18-120 20-8 1-26 0-39-4m-1213-158c-28-18-129-164-171-248-35-72-74-192-99-309-31-147-31-400 0-544 50-229 130-412 246-558l61-78-42-39c-66-61-86-117-127-347-20-113-36-208-36-213 0-4-43-7-95-7s-105-5-119-11c-34-16-50-63-33-97 24-52 16-52 683-52 614 0 622 0 648 21 20 16 26 29 26 59s-6 43-26 59c-23 18-41 21-134 21-107 0-107 0-120 28-15 32-60 175-57 179 2 1 43-11 92-28 309-103 687-86 970 45 97 45 227 130 264 172 42 47 48 78 25 124-11 21-189 204-421 431l-403 394 33 33c42 44 66 57 80 43 19-19 72-13 93 10 15 17 19 36 19 98 0 117-41 161-149 161-97 0-142-41-111-100 9-17 21-30 27-30 7 0-10-22-37-50-27-27-53-50-57-50-8 0-189 177-749 727-168 165-177 173-215 173-21 0-51-8-66-17m592-698c228-226 588-581 799-789l384-379-28-23c-55-44-221-123-300-143-288-72-609-34-890 107-122 60-193 111-288 201-270 258-397 545-397 896 0 199 38 360 132 553l50 104 62-58c33-33 248-243 476-469m-238-1309c54-38 70-55 77-84 6-20 22-80 36-132s25-98 25-102c0-5-110-8-245-8-215 0-245 2-245 16 0 18 58 350 66 377 3 9 26 33 51 52l45 35 62-54c33-29 91-74 128-100" style="fill:#fff;fill-rule:nonzero" transform="matrix(.1 0 0 -.1 -535 903)"/><path d="M7491 8311c-31-31-26-91 9-107 14-7 63-30 110-52 149-68 235-166 304-346 31-80 41-96 67-106 27-11 34-10 57 7 34 25 39 67 18 157-19 79-43 129-103 214-121 171-389 306-462 233" style="fill:#fff;fill-rule:nonzero" transform="matrix(.1 0 0 -.1 -535 903)"/></svg>