<svg xml:space="preserve" fill="#ebebeb" style="fill-rule:evenodd;clip-rule:evenodd;stroke-linejoin:round;stroke-miterlimit:2" viewBox="0 0 336 407" xmlns="http://www.w3.org/2000/svg"><path d="M191.9 24.5c42.7 8.1 72.7 36.5 82.4 77.8 3.1 13.4 3 34.7-.2 47.1-6.9 26.5-23.3 49.7-45.3 64-30.4 19.8-66.5 22.7-100 8.2-1.3-.6-2.8 1.3-7.4 9.5-5.4 9.4-5.7 10.3-4 11.3 7.2 4.3 9.6 6.7 9.6 9.7 0 2.2-5.8 13-19.9 37.2-10.9 18.8-24.4 42.2-29.9 51.9-12.8 22.5-12.5 22-17.1 24.6-3 1.7-5.5 2.2-11.4 2.2-6.8 0-7.9-.3-12.3-3.3-6.8-4.5-10.7-11.2-11.2-19.3-.5-7.6-2.1-4.5 30.6-60.1 12.6-21.4 24.6-42 26.7-45.8 4.9-9 6.3-10.5 9.3-10.5 1.4 0 5.4 1.6 9 3.6 3.5 2 6.8 3.2 7.2 2.8 1.2-1.3 11.1-18.7 10.8-19-.2-.1-3-2.2-6.3-4.7-45.2-33.5-56.6-96.6-25.8-143 16.1-24.3 41.8-40.2 71.8-44.6 9.8-1.4 24.7-1.2 33.4.4M90.5 244.2c-3.2 5.9-25.7 44.5-44.3 75.9-9.7 16.3-12.2 21.4-12.2 24.3 0 12.5 15.8 20.1 23.7 11.3 1.1-1.2 9.7-15.7 19-32.2 9.4-16.5 22.3-39 28.7-49.9 6.3-10.9 11.3-20.2 11.1-20.7-.3-.4-4-2.7-8.3-5.2-4.2-2.5-9.3-5.4-11.3-6.6l-3.6-2.1zM161.9 33c-20.8 2.6-41 12.2-55.1 26.2C96.2 69.6 87.9 83.5 82.4 100c-2.7 8.1-2.8 9.4-2.8 26.5 0 16.7.2 18.6 2.7 26.8 5.3 17 13.3 30.3 25.8 42.3 9.1 8.6 14.6 12.4 25.4 17.5 13.1 6.1 21.8 8.1 36.5 8 27.2 0 47.7-8.2 66.9-26.6 20.3-19.5 30.2-42 30.2-69.1 0-26.7-9.4-48.8-28.4-67.1q-25.2-24.15-61.2-25.8c-4.9-.2-12 0-15.6.5m48.9 120c1.5 8 4.8 11.5 11.6 12.5 4.8.8 7.2 2.6 6.3 4.8-.3.7-3.5 2.2-7.1 3.1-8 2.2-9.9 4.3-11.5 12.5-1.9 9.7-5.8 9.2-8-1-1.6-7.7-3.2-9.6-9.9-11.5-10.3-2.9-10.9-6.4-1.5-8.5 7.2-1.6 9.7-4.1 11.9-11.5 2.1-7.5 2.2-7.6 4.7-7.2 1.8.2 2.4 1.4 3.5 6.8m-5.2 13.7c-.4 1.3-1.2 2.3-1.7 2.3-.6 0-.3.7.6 1.7 1.1 1 1.9 1.2 2.3.6.4-.5 1.4-1.3 2.2-1.6 1.2-.4 1.2-.6-.2-.6-.9-.1-1.8-1.1-2-2.4l-.4-2.2z" style="fill:#ebebeb"/></svg>