<svg xml:space="preserve" fill="#ebebeb" style="fill-rule:evenodd;clip-rule:evenodd;stroke-linejoin:round;stroke-miterlimit:2" viewBox="0 0 390 407" xmlns="http://www.w3.org/2000/svg"><path d="M228.8 21.6c16 3.2 29.4 11.9 38.1 24.9 8.2 12.3 12 27.1 12.8 50.7l.6 15.8h21.2c19.2 0 21.3.2 22.8 1.8 1.3 1.4 2 5.2 2.7 14.8 3.7 46.7 8.1 99.7 14.5 171.9 3.7 41.9 4 49.1 2.6 51.4-1.3 2-289.8 2.3-291.8.3-1.6-1.6-1.7-9.6-.3-24.2.5-5.8 2.1-24.9 3.5-42.5 1.3-17.6 2.9-37 3.5-43 1-12 2.4-28.8 7-84.5 3.4-40.5 3.8-43.6 5.4-44.9.6-.4 9.8-1.1 20.4-1.4l19.2-.5v9l-16.5-.4c-9.1-.2-16.5-.1-16.5.2s-.5 5.4-1 11.5c-1.4 16.6-9.6 114.8-12.5 150-1.4 17-2.9 36.3-3.5 42.7-.5 6.4-1 13.8-1 16.4v4.7l88.3-.6c48.5-.4 93.4-.7 99.8-.7h11.6l1.2-19.8c1.3-20.5 3-42.3 5.6-69.7 1.4-15.3 3.9-46.5 7.1-90 .8-11 1.9-24.7 2.4-30.5.6-5.8 1-11.3 1-12.3 0-1.5-1.5-1.7-17-1.7h-17v-9.3l13.8.4 13.7.4-.2-14.1c-.1-15.3-1.1-21.7-4.9-33.5-3.6-11.1-9.1-19.6-15.4-24.1-7.2-5.1-19.2-9.9-26.5-10.6-3.3-.3-7.1-1.2-8.4-2.1-1.4-.9-4.3-2.3-6.4-3.1-2.2-.8-4.2-2-4.4-2.7-.8-2.5 13.8-2.9 24.5-.7m65 99.1c-4.6.2-7.8.8-7.8 1.4 0 2.4-7 84.7-7.5 87.9-.3 1.9-1.9 22.6-3.5 46-2.8 38.9-5 66-6.6 78.2-.3 2.7-.2 4.8.3 4.8s7.7-3.9 15.9-8.6 16.5-8.8 18.4-9c3.1-.4 5.3.6 18 8.6 10.5 6.6 14.6 8.7 14.8 7.6.3-1.5-2.9-41.2-7.3-90.6-4.8-53.6-5.5-61.6-6.5-75-.6-7.4-1.4-17.8-2-23-.5-5.2-1.2-13.4-1.5-18.2-.4-4.9-1-9-1.3-9.2-1.3-.7-15.7-1.3-23.4-.9m-4.3 217.4-14 8 25.2-.3c13.9-.2 25.3-.6 25.3-1 0-.5-21.5-14.8-22.2-14.8-.2 0-6.6 3.7-14.3 8.1m-96-311.7c18.6 5.9 31.4 20.3 36 40.6 1.4 6.2 1.8 14.7 2.2 47.7l.5 40.2-2.6 1.2c-2.2 1-2.9.9-4.5-.5-1.7-1.6-1.8-2.9-1.4-18.4.7-21.6-1.2-67-3.1-74-3.1-11.5-10.9-20.2-23.4-25.9-10.6-4.9-18.8-6-30.1-3.9-17.1 3.1-28.5 10.4-33.5 21.5-5.3 11.8-5.8 17.1-6.3 61.8-.4 39.2-.6 41.2-2.3 41.8-1.1.3-2.9.1-4-.5-2.1-1.1-2.1-1.3-1.7-43.8.4-47.1.7-50.1 6.8-62.8 4.1-8.4 13.2-18 20.4-21.4 13.9-6.5 33.1-8 47-3.6M219 117v5h-85v-9l40.8-.3c22.4-.1 41.5-.3 42.5-.5 1.4-.2 1.7.6 1.7 4.8m-39.3-74.9c.8.8.4 2.3-1.3 5.3-6 10.7-7.5 19.8-7.4 44.3V110h-8.7l-.6-6.8c-1.6-16.8.1-39.7 3.7-49.8.8-2.3 2.6-6 4-8.3 2.2-3.4 3.1-4.1 5.9-4.1 1.8 0 3.8.5 4.4 1.1" style="fill:#ebebeb"/></svg>