<svg xml:space="preserve" fill="#ebebeb" style="fill-rule:evenodd;clip-rule:evenodd;stroke-linejoin:round;stroke-miterlimit:2" viewBox="0 0 443 400" xmlns="http://www.w3.org/2000/svg"><path d="M310.8 298.2c5.4 1.6 12.7 8.1 15.6 13.9 4.9 9.9 3 22.7-4.7 30.7-4.9 5.2-10.2 7.5-18.4 8-6.4.4-7.9.1-12.7-2.2-17.2-8.4-21.4-30.7-8.2-43.9 7.8-7.8 17.1-10 28.4-6.5m-15.3 9.7c-7.3 3.4-10.5 8.6-10.5 17 0 6.3 3.1 10.9 9.3 14 5.6 2.8 11.6 2.3 16.8-1.2 5.8-4 7.4-7.1 7.4-14.7 0-6.3-.3-7.2-3-10.1-3.4-3.6-9.8-6.9-13.5-6.9-1.4 0-4.3.9-6.5 1.9M90 43.7c2.6 2.5 3.5 5 7.5 21.3 2.5 10.2 5 20.2 5.6 22.2l1 3.8h264.7l2.6 3.1c1.4 1.7 2.6 4 2.6 5.3 0 1.2-2.3 12-5 24.1-2.8 12.1-7.1 31.2-9.5 42.5-8.2 38.1-12.6 56.2-14.5 60-2.4 4.6-9.6 11.1-15.8 14.2l-4.7 2.3-90.7.3c-71.2.2-90.8.5-90.8 1.5 0 .6 1.3 6.3 2.9 12.5 2.9 11.7 4.8 14.9 10.3 17.8 2.3 1.2 16.8 1.4 88.5 1.4 47.2 0 86.3.4 86.9.8 2 1.4 2.5 4.5.9 6.8L331 286H156.4l-4.4-2.3c-6.1-3-10.5-9.2-13.5-19-1.3-4.5-6.5-24.2-11.4-43.7s-11.7-46.1-15-59-11-42.7-17-66.3C89 72.2 83.8 52.5 83.5 52c-.4-.6-9.1-1-22.7-1-19.2 0-22.4-.2-24-1.7-2.2-2-2.3-4.6-.2-6.7 1.3-1.4 5.1-1.6 26-1.6H87zm17 58.7c0 .8 5.2 21.6 11.6 46.3 6.3 24.6 13.8 53.6 16.5 64.3 2.7 10.6 5.3 19.8 5.7 20.2.5.5 41.1.7 90.3.6 99.4-.4 94.1 0 101.5-7.3 4.8-4.8 5.1-5.9 12.9-42 3.1-14.3 8.3-37.6 11.6-51.9 3.3-14.2 5.9-27 5.7-28.5l-.3-2.6-127.7-.3c-110.9-.2-127.8 0-127.8 1.2m75.6 196.1c4.5 1.9 11.2 8.2 13.6 12.9 2.5 4.9 3.4 13.8 1.9 19.3-1.7 6.2-7 13.4-12.3 16.7-5.5 3.3-15.6 4.6-22.4 2.7-6-1.6-12.5-7-15.9-13.2-2.6-4.7-3-6.4-3-12.9 0-5.9.6-8.5 2.4-12 4.2-8.1 10.7-13.3 19.1-15.1 4.4-1 12.3-.2 16.6 1.6m-18.4 9.6c-5 2.5-7.7 6-9.4 12.2-1.1 4.1-1 5.2.8 9.3 1.1 2.7 3.5 6 5.7 7.8 3.4 2.7 4.6 3.1 10.1 3.1 5.3 0 6.8-.4 9.9-2.8 8.6-6.6 9.9-17.6 2.9-25.9-5-5.9-12.6-7.3-20-3.7" style="fill:#ebebeb"/></svg>