<svg xml:space="preserve" fill="#ebebeb" style="fill-rule:evenodd;clip-rule:evenodd;stroke-linejoin:round;stroke-miterlimit:2" viewBox="0 0 360 382" xmlns="http://www.w3.org/2000/svg"><path d="M201 27.5c16.3 3 34.2 10.5 48.5 20 23.6 15.9 41.4 39.8 50.5 67.5 5.7 17.5 7.4 30.2 10 75.5 1.8 31.5 6.7 64.6 13.2 88.5 1.7 6.3 4.4 16.4 6 22.5 4 14.9 4.6 23.1 2.3 29.2-2.1 5.5-9.2 13.4-15 16.8-5 3-14.5 4.5-21 3.5-7.7-1.2-20.1-5.7-28.2-10.1-4-2.1-10.7-5.8-14.9-8-10.3-5.6-17.6-6.3-25.7-2.6-3.1 1.4-7.5 4.3-9.9 6.5-20.2 18.4-37.6 23.3-54.8 15.5-7-3.2-10.5-5.5-21.6-14.5-8.7-7.1-12.7-8.8-20.2-8.8-7.4 0-16.2 2.9-27.7 9-12.7 6.8-23.2 9.9-34.7 10.2-5.7.1-10.1-.2-11.3-.9-1.1-.7-4.1-2.1-6.7-3.2-3.6-1.5-5.5-3.2-7.8-6.8-3.6-5.7-6-13.1-6-18.7 0-5.5 3.8-21.7 9.4-40.4 8.5-28.3 15-64.8 16.6-93.2 2.4-41.6 3.8-51.7 9.1-68 9.4-28.9 25-51.3 47.4-68 26.4-19.8 59.9-27.6 92.5-21.5m-40.8 8.9c-25.7 4.9-43.3 14.5-61.8 33.9C73.3 96.5 64.3 122 62 173.5c-1.2 25.2-1.4 27.7-5.5 52-4.3 25.3-8 41.6-14.4 62.9-8 26.6-8.4 33.9-2.5 42.9 4 6 7.6 7.7 16.9 7.7 10.9 0 18-2 31-8.9 15.4-8.2 20-9.5 32-9.6 9 0 10.5.3 15.3 2.8 3 1.5 9.8 6.2 15.1 10.5 13.3 10.7 17.6 12.7 27.1 12.7 6.5-.1 8.4-.5 14.3-3.5 3.8-1.9 11-6.8 16-10.7 10.6-8.4 14.9-10.7 23.2-12.3 8.9-1.7 17.9.5 31.3 7.6 20.8 11 26 13.1 35.3 14.1 11.7 1.2 23.4-5.2 25.8-14.3 1.4-5.3-.3-15.5-6.4-38.3-8.5-31.9-13.6-64.7-15.5-100.6-2.7-49.4-5.3-63.7-15.5-85-12.7-26.3-30-43.9-55.9-56.6-17.2-8.4-28-11.1-47.1-11.5-9.9-.2-17.5.1-22.3 1m71.7 83.8c8.5 7.9 8.7 31 .4 40.8-4.9 5.9-13.5 3.3-18-5.3-2.5-4.6-2.8-6.3-2.8-14.3.1-7.8.5-9.8 2.9-14.7 1.6-3.3 3.9-6.3 5.4-7.2 4-2.2 9.4-1.9 12.1.7m-89.8-.3c1.4 1 3.6 4.1 4.9 6.7 2.2 4.3 2.5 6.2 2.5 14.9 0 9.1-.2 10.4-2.8 14.7-3.1 5.4-6.9 7.8-12.1 7.8-12.4 0-15.8-33.4-4.4-44 2.8-2.6 8.7-2.7 11.9-.1" style="fill:#ebebeb"/></svg>