<?xml version="1.0" encoding="UTF-8" standalone="no"?><!DOCTYPE svg PUBLIC "-//W3C//DTD SVG 1.1//EN" "http://www.w3.org/Graphics/SVG/1.1/DTD/svg11.dtd"><svg width="100%" height="100%" viewBox="0 0 480 212" version="1.1" xmlns="http://www.w3.org/2000/svg" xmlns:xlink="http://www.w3.org/1999/xlink" xml:space="preserve" xmlns:serif="http://www.serif.com/" style="fill-rule:evenodd;clip-rule:evenodd;stroke-linejoin:round;stroke-miterlimit:2;"><path d="M91.6,39.8c9.4,1.7 16.7,1.8 134.9,1.1c84,-0.5 127.5,-1.1 132.5,-1.8c4.1,-0.6 13.6,-1.2 21,-1.4c13.4,-0.2 13.5,-0.2 20.1,3.1c8.7,4.2 17.8,13.8 20.8,21.7c3.3,8.8 3.6,15.7 1.2,25.3c-5.1,20.5 -16.4,31.8 -41.3,41.2c-12.9,4.8 -29.5,9 -36.1,9l-4.8,0l2.4,3.2c10.8,14.5 1.6,35.6 -16.5,37.5c-16.6,1.7 -30.7,-17.2 -23.9,-32.2c1,-2.2 2.5,-4.6 3.4,-5.4c1,-0.7 1.7,-1.8 1.7,-2.3c0,-0.7 -27.5,-0.9 -78.9,-0.7l-78.8,0.4l2.2,3c6.3,8.3 5.7,20.3 -1.3,28.5c-5,5.9 -10.3,8.4 -18.2,8.4c-6.8,-0 -9.2,-0.9 -15.2,-5.6c-8.2,-6.4 -10.4,-19.5 -4.9,-29.4l2.8,-5.1l-10.6,-0.6c-12.5,-0.6 -24.4,-3.8 -35.9,-9.6c-15.9,-8 -25.4,-17.2 -32.1,-31.1c-3.3,-6.9 -3.6,-8.4 -3.9,-18.2c-0.5,-12.5 0.9,-17.8 6.8,-25.5c4.1,-5.6 14.1,-12.6 20.8,-14.8c5.7,-1.8 17.5,-1.4 31.8,1.3Zm33.9,101.2c-6.5,2.7 -10.3,11.6 -7.9,18.5c2.4,7 7.4,10.5 15,10.5c15.9,-0 20.5,-21.1 6.2,-28.6c-2.9,-1.5 -10.1,-1.8 -13.3,-0.4Zm9.3,14.3c0.4,2.1 -2.7,3.5 -3.8,1.7c-1.2,-1.9 0,-4.2 1.9,-3.8c0.9,0.2 1.7,1.1 1.9,2.1Zm-71.3,-108.9c-9.5,3 -16.3,8.3 -20.3,16c-2.4,4.5 -2.7,6.2 -2.7,15.2c0,9.6 0.2,10.3 3.8,17.6c7,14.2 23.6,26.2 44.2,32l8,2.3l124.5,0.3c139,0.3 129.5,0.7 151.7,-6.9c27.9,-9.6 37,-17.8 41.8,-37.7c1.1,-4.6 1.5,-9 1.2,-11.7c-1.5,-10.4 -9.2,-20.5 -19.5,-25.3c-5.3,-2.5 -6.6,-2.7 -17.7,-2.6c-6.7,0.1 -16.4,1 -22,2c-9.3,1.7 -18.7,1.8 -132,2l-122,0.2l-13.3,-2.4c-14.8,-2.7 -19.8,-2.9 -25.7,-1Zm89.5,37.6c1.1,1.1 2,2.5 2,3.2c0,2 -3.2,4.8 -5.5,4.8c-4.3,-0 -6,-4.7 -2.8,-8.2c2.1,-2.3 3.8,-2.3 6.3,0.2Zm189.4,-0.4c3.2,3.1 1.4,8.4 -2.9,8.4c-4.3,-0 -6,-4.7 -2.8,-8.2c2,-2.2 3.7,-2.3 5.7,-0.2Zm-223.6,-0.4c1.7,1.7 1.5,6.3 -0.2,7.8c-4.3,3.5 -9.9,-2.8 -6.1,-7c2,-2.3 4.5,-2.6 6.3,-0.8Zm189.4,0.5c2.1,1.8 2.4,5.3 0.6,7.1c-2,2 -5.6,1.4 -7.4,-1.3c-1.5,-2.3 -1.5,-2.7 -0,-5c1.9,-2.9 4.2,-3.2 6.8,-0.8Zm8,58.3c-4.5,2.8 -7.2,7.6 -7.2,13.1c-0,6 3.1,10.7 9.2,13.7c4.1,2.1 5.1,2.2 9,1.2c7.5,-2 11.8,-7.6 11.8,-15.3c-0,-11.2 -13.2,-18.5 -22.8,-12.7Zm10.2,12.6c0.8,2.1 -0.1,3.4 -2.4,3.4c-2.2,0 -3.4,-1.5 -2.6,-3.5c0.7,-2 4.2,-1.9 5,0.1Z" style="fill:#ebebeb;"/></svg>