<svg xml:space="preserve" fill="#ebebeb" style="fill-rule:evenodd;clip-rule:evenodd;stroke-linejoin:round;stroke-miterlimit:2" viewBox="0 0 348 440" xmlns="http://www.w3.org/2000/svg"><path d="M79.7 239.9c8.3 4.2 13.6 10.4 17.8 20.7l2.4 5.8 22.3 9.9c12.3 5.4 27.9 12.4 34.8 15.4 6.9 3.1 13 5.6 13.5 5.6.8 0 37.7-14.6 69.5-27.6l8.5-3.5 3.6-7.2c4.7-9.1 9.8-14.5 17.4-18.1 12.6-6.1 24.8-1.8 29 10 1.9 5.4 1.9 6.9 0 12.5l-1.5 4.5 5.9 5.8c9.1 8.9 10.3 17 3.7 25.6-4.2 5.5-11.1 9-17.9 8.9-4.7 0-13.4-2.5-22.7-6.5-3.5-1.5-3.7-1.4-21 5.9-9.6 4-18 7.4-18.7 7.4-4.3.1-.3 2.6 13.5 8.7 23.6 10.5 21.7 10.1 29.8 6.8 5.8-2.4 8.4-2.9 16.1-2.9 8.6-.1 9.4.1 13.5 2.9 6.2 4.3 10.1 12.2 9.6 19.6-.5 6.7-3.3 11.1-9 14l-4 2 .7 5c.8 5.7-.8 13.4-3.4 16.6-5.4 6.5-16.2 8.3-24.8 4.2-5.5-2.7-13.4-11.4-17-18.7l-2.8-5.8-19-8.1c-10.4-4.5-26.9-11.6-36.5-15.8l-17.4-7.6-21.6 9.5c-11.8 5.2-28.7 12.4-37.6 16.1l-16 6.7-3.3 7q-5.85 12.6-14.7 16.8c-5.9 2.9-17.8 2.6-22-.6-5.8-4.3-6.9-6.9-7-16.1v-8.5l-3.1-1.3c-4-1.7-7.1-5.1-9.5-10.4-4.5-9.9 1.5-22.4 12.9-26.7 5.8-2.2 16-1.4 24.5 2 3.6 1.4 6.9 2.6 7.5 2.6s8.7-3.2 17.9-7.1c9.3-3.9 18-7.6 19.4-8.1 2.2-.8.4-1.9-16.4-9.3l-18.8-8.3-6.8 2.9c-9.8 4.2-17.6 6-22.4 5.2-11.5-1.7-19-10.2-19-21.4-.1-4.7.4-6.2 2.8-9.3 1.6-2.1 4.6-5 6.7-6.5 2.9-1.9 3.8-3.1 3.4-4.6-3.4-12.5-2.9-17.8 2.3-23.6 5.4-6 16.4-7.4 24.9-3M200 326.1c-5.2 2.1-9.9 4-10.4 4.2-.8.3 28.8 13.6 54.4 24.4l11.5 4.8 3.7 7.4c5.7 11.3 12.1 17.1 18.8 17.1 7.7 0 9.7-4 7.9-15.3-1.2-7.3-1.2-7.9.7-9.6 1-1 3.8-2.3 6.2-3 7.5-2.1 8.3-10.1 1.6-16-4.5-4-9.1-4-20.4 0-4.7 1.6-9.5 3.2-10.6 3.5-2.2.6-10-2.6-38.7-15.7-7-3.3-13.3-5.9-14-5.8s-5.5 1.8-10.7 4m73.2-76c-5.6 2.8-10.8 9-13.3 16.1-1.2 3.1-2.9 6.4-3.8 7.2s-24.8 10.8-53.1 22.1c-28.3 11.4-66.1 27-83.9 34.6-17.8 7.7-33.3 13.9-34.3 13.9s-3.7-.9-6-2.1c-9.4-4.8-17.7-6-22.9-3.4-3.4 1.8-6.9 6.9-6.9 10.1 0 3.6 3.8 7.3 8.6 8.5 6 1.5 6.7 3.2 5.9 13.8-.7 8.2-.6 9 1.4 11 1.6 1.6 3.3 2.1 7 2.1 7.5 0 10.7-2.8 16.3-14l4.7-9.5 16.3-6.8c9-3.7 28-11.9 42.3-18.2 14.3-6.2 33.4-14.2 42.5-17.8 9.1-3.5 28-11.3 41.9-17.2 17.6-7.3 26.3-10.5 28-10.2 1.5.3 6.8 2.1 11.9 4.1s10.9 3.6 13 3.6c4.8 0 9.5-2.9 11.1-6.9 1.2-2.6 1.1-3.5-.6-6.3-1-1.8-4.5-5.2-7.6-7.6-6.2-4.8-6.8-6.4-4.2-12.5 2.2-5.2 2-12-.4-14.1-3.1-2.8-9-3-13.9-.5m-208.3-2c-4.6 1.7-5.5 5.7-2.9 14 1.2 4 1.9 8.3 1.5 9.6-.3 1.4-2.7 3.7-6 5.9-7.5 4.8-9.1 7.4-7.6 12.4 2.7 9.2 10.5 10.4 26.3 4 5.5-2.2 10.6-4 11.3-4 1.3 0 22 8.7 40.4 17l9.4 4.2 9.4-3.7c5.1-2.1 9.3-4.1 9.3-4.4 0-.6-14.3-7.2-46.5-21.6-9.3-4.1-17.4-8.3-17.9-9.2-.6-1-1.8-3.9-2.6-6.5-4.5-12.8-15.5-21-24.1-17.7M203.7 22.9c36.9 7.6 68.3 30.1 83 59.6 12.1 24.1 13.7 56.2 4.2 80.4-9.3 23.4-28.6 44.1-52.6 56.6-2.9 1.5-5.3 2.8-5.3 2.9s-.9 4.3-1.9 9.4c-3 13.9-6.5 19.4-14.4 22.7-9.2 3.8-72.1 4.7-81.8 1.1-8.7-3.2-13.7-10.2-16.6-22.9-1.9-8.6-3.4-10.2-15.4-17-21-11.8-37.6-31.8-45.7-54.8-4.4-12.5-5.6-21.6-4.9-38.2.7-18.1 3.8-29.9 11.3-43.5C81.4 46.8 114.4 26.5 158 21c11.6-1.4 33.9-.5 45.7 1.9m-48.2 8.2c-18.1 2.4-35.5 8.8-50.7 18.9-19.2 12.6-32.4 29.3-39 49-3.1 9.3-3.2 10-3.2 28-.1 16.3.2 19.4 2.2 26.3 6.8 23.4 24.7 44.6 48 56.8 10.1 5.2 11.9 8 16.2 24.7 1.6 6.4 6.1 10.8 12.1 12.1 10 2.2 9.9 2.2 9.9-6.8 0-8.4 1.2-11.1 5-11.1s5 2.7 5 11.1v8l14.3-.3 14.2-.3.5-8c.6-9 1.2-10.5 4.3-10.5 4.2 0 5 1.4 5.5 10l.5 8.3 5.9-.7c10.2-1 12.9-4.4 15.9-20.3 1.6-8.9 3.7-11.7 11.7-15.7 25.1-12.6 45.8-37.7 51.7-62.8 1.7-7.4 2-27.7.4-36.4-5.3-30-24.4-53.8-55.4-69.1-21.7-10.6-48.2-14.6-75-11.2m26.3 153.3c2.1 1.9 5.8 7.3 8.2 12 4.3 8.2 4.4 8.7 3 11.3-1 1.8-2.5 2.9-4.2 3.1-2.3.3-3-.4-6.1-7-4.1-8.5-7.2-12.8-9.3-12.8-1.4 0-9.4 11.5-9.4 13.6 0 .6-.9 2.3-2.1 3.8-3.3 4.2-8.9 3-8.9-2 0-1.3 2.4-6.6 5.3-12 5.8-10.9 8.7-13.4 15.4-13.4 3.5 0 5 .7 8.1 3.4m47.1-69.5c8.7 2.7 13.9 6.1 20.8 13.5 7.7 8.2 10.3 14.6 10.3 25.4 0 6.4-.5 8.8-2.5 12.9-3.3 6.6-11.4 14.6-18.1 17.9-4.7 2.3-6.3 2.6-13.1 2.2-23-1.1-43.4-23.8-42.1-46.8.7-12.7 7-21.2 18.8-25.3 6.3-2.2 18.4-2.1 25.9.2m-22.4 9.3c-4.9 1.8-9.6 5.8-11.2 9.7-2 4.7-1.3 15.1 1.5 21.4 6.7 15.2 27.3 25.8 38.9 19.9 9.2-4.8 14.3-12.7 14.3-22.3 0-7.7-2.4-13.2-8.6-19.2-6.9-6.9-14.3-10.1-23.9-10.4-4.4-.1-9.3.3-11 .9m-60-9.5c5.5 2.9 11.8 9.9 14 15.6 1.4 3.6 1.7 6.7 1.3 14-.3 8.5-.8 10.3-4.2 17.1-8 16.3-22.9 25.6-41.1 25.6-24.1 0-34.8-25.2-22-51.5 4.8-9.9 12.8-17.2 23.5-21.4 7.5-2.9 22.4-2.6 28.5.6m-26.1 9.4c-10.9 4.2-18.5 14.7-20.6 28.5-1.3 8.4 0 13.9 4.2 18.8 4.2 4.8 7.8 5.9 16.3 5.4 12.5-.8 22.3-8 28.3-20.7 2.8-5.8 4.3-16.5 3-21.5-.9-3.6-6.4-9.6-10.3-11.2-4.7-2-14.9-1.7-20.9.7" style="fill:#ebebeb"/></svg>