<svg xml:space="preserve" fill="#ebebeb" style="fill-rule:evenodd;clip-rule:evenodd;stroke-linejoin:round;stroke-miterlimit:2" viewBox="0 0 342 376" xmlns="http://www.w3.org/2000/svg"><path d="M213.2 215.7c.9 1 2.5 3.7 3.7 6.1 6.9 13.7 32.5 19.8 48.5 11.5 4.5-2.3 12.6-10.3 14.7-14.5 2.1-4.1 5.9-5.8 8.4-3.8 2.4 2 1.7 5.3-2.3 11.6-11.1 16.9-34.6 24.3-55.2 17.3-10.4-3.5-20.6-12.9-24.6-22.5-1.4-3.3-1.4-3.8.2-5.5 2.1-2.4 4.6-2.4 6.6-.2m-7.1 96.3c2.3 1.3 2.4 3.7.2 6.2-1.5 1.6-3.5 1.8-22.8 1.8-22.1 0-23.5-.3-23.5-4.5s1.4-4.5 23.3-4.5c12.4 0 21.6.4 22.8 1M84.6 214.8c.6.4 1.8 2.1 2.7 3.8 2.4 4.8 11.4 12.3 18.7 15.8 5.7 2.7 7.6 3.1 15.1 3.1 7.8 0 9.1-.3 16-3.7 7.8-3.8 14.7-10.2 18.1-16.6 2.6-4.9 8.8-4 8.8 1.3 0 4-8.5 15-15 19.3-15.9 10.7-32.9 11.9-49.8 3.6-12.9-6.3-23.4-19.4-20.3-25.3 1.2-2.1 3.6-2.7 5.7-1.3m30.7-102.9c1.4.6 2.8 2 3.2 3.2 1 2.9-2.6 7.8-21.2 29.2C88.9 154 82 162.1 82 162.4s7.8.6 17.3.6c17.8 0 19.7.4 19.7 4.1 0 1-1 2.5-2.2 3.3-1.9 1.3-6 1.6-25 1.6-21.4 0-22.8-.1-23.8-1.9-.5-1.1-1-2.7-1-3.5 0-1.7 9.3-13 26.5-32.1l11.7-13-17.8-.3c-15.4-.2-18.1-.5-19.1-1.9-1.5-2-1.6-3.3-.3-5.3.9-1.5 3.3-1.7 38.7-2.8 3.4-.1 7.3.2 8.6.7M208 49.8c1.7 1.4 2.1 2.5 1.7 4.3-.5 2.1-11.9 16.1-41.4 51.1-4 4.7-7.3 8.8-7.3 9.2 0 .3 10.9.6 24.3.6 17.6 0 24.6.3 25.5 1.2 1.7 1.7 1.5 4.4-.4 6.2-1.3 1.4-5.7 1.6-32.3 1.6-32.6 0-33.1-.1-33.1-4.8 0-2.9 1.5-4.7 28.3-35.9C184.7 70 194 58.9 194 58.6s-10.9-.6-24.2-.6c-13.4 0-24.9-.4-25.6-.9-.8-.5-1.2-2.2-1-4.2l.3-3.4 21-.5c43.3-1.1 41.1-1.2 43.5.8" style="fill:#ebebeb"/></svg>