<svg xml:space="preserve" fill="#ebebeb" style="fill-rule:evenodd;clip-rule:evenodd;stroke-linejoin:round;stroke-miterlimit:2" viewBox="0 0 352 400" xmlns="http://www.w3.org/2000/svg"><path d="M265.2 23.8c7.7 3.8 11.8 8.2 15.1 16.2l2.2 5.5-.2 151.3-.3 151.4-2.6 5.8c-4.4 9.7-12.5 16-23.6 18-3.7.7-31.6 1-80 .8l-74.3-.3-6-2.4c-7.8-3.2-16.8-11.9-18.7-18.2-1.1-3.6-1.3-32.6-1.3-155.9V44.5l3.3-6.7C83.4 28.4 91.1 23 102.6 21c2.7-.4 38.9-.7 80.4-.6l75.5.1zm-165.1 6.8c-5.9 1.8-10.7 5.7-13.3 10.7-1.8 3.4-2.3 6.3-2.6 15.4L83.8 68H274v-9.6c0-11.9-1.2-16.3-6.2-21.9-6.8-7.7-3.8-7.5-88.6-7.4-60.5.1-75.5.3-79.1 1.5m100.1 15.9c.9 2.1.8 2.8-.7 4.5-1.7 1.9-3.1 2-20.4 2-15.3 0-19.1-.3-20.9-1.6-2.4-1.7-2.9-4.3-1-6.2.9-.9 7-1.2 21.5-1.2H199zM84 303h190V77h-92.7c-51.1 0-93.8-.3-95-.6l-2.3-.6zm0 25.5c0 22.9 1.4 26.5 12.5 32.3l5 2.7h78c75.4 0 78.1-.1 81-1.9 5-3.3 8.6-6.9 10.8-11.1 2-3.6 2.2-5.9 2.5-21.8l.4-17.7H84zm99.3-6.4c4.6 1.2 10 5.8 11.7 9.9 1.8 4.4.8 13-1.9 16.9-3.3 4.6-7.6 6.5-14.8 6.5-6.9.1-10.1-1.6-14-7.4-3.2-4.6-3.2-13.9-.1-18.3 5.3-7.5 11.1-9.8 19.1-7.6m-10.4 10.8c-3.8 3.8-3.9 8.3-.3 11.6 5.9 5.5 14.9 1.6 14.7-6.2-.2-7.7-8.8-10.9-14.4-5.4" style="fill:#ebebeb"/></svg>