<svg xml:space="preserve" fill="#ebebeb" style="fill-rule:evenodd;clip-rule:evenodd;stroke-linejoin:round;stroke-miterlimit:2" viewBox="0 0 390 384" xmlns="http://www.w3.org/2000/svg"><path d="M210.6 16.1c24.2 2.3 41.7 7.3 62.9 17.9 18.3 9.1 30.3 17.8 45 32.5 14.2 14.2 23.1 26.4 31.9 43.5 11.5 22.6 17.2 44.5 18.3 69.6 1.8 44.9-13.3 87.5-43.2 121.7-24.4 27.9-58.1 47.1-97.4 55.4-11.1 2.3-14.9 2.7-32.1 2.7-21.2 0-28.7-1-47.5-6.4-54.2-15.5-97.8-57.8-115.6-112.1-19.7-60-5.2-125.7 37.8-170.9 25.3-26.6 53.1-42.5 88.4-50.4 18.3-4.1 34.4-5.2 51.5-3.5M175 25.5c-52.5 7.2-95.5 36.5-121.9 83-9.7 17.2-16.6 38.3-19.1 58.9-1.7 13.6-.8 39.1 2 52 14 65.7 62.9 114.7 128.6 128.7 9.4 2.1 13.6 2.4 31.4 2.4 17.5-.1 22-.4 31-2.3 36.5-7.9 68.5-26.1 90.8-51.4 20-22.7 32.9-48.3 39.4-78 3-14 3.3-48.4.5-62.3-14.1-69.2-70.4-121.7-140.6-131.1-12.9-1.7-29.4-1.6-42.1.1m-57.5 204.7c7.7 15.5 16.1 24.6 32.5 34.9 21.2 13.4 49.8 16.8 75 8.7 22.1-7 42.9-24.7 51.1-43.5 3.4-7.6 5.2-8.9 8.3-5.7 2.3 2.3 2.1 3.3-3.1 13.5-5.4 10.5-17.6 24.3-27.3 30.9-23.4 15.8-54.3 21.4-80.9 14.5-17.2-4.4-29.4-10.7-41.1-21.1-13.2-11.8-23-26.2-23-34 0-4.5.5-5.4 3.2-5.4 1.2 0 2.9 2.2 5.3 7.2m136.8-97.6c4.1 4.1 5.1 8.6 5.2 23.4 0 12.4-.2 13.9-2.5 18.5-2.8 5.6-6.2 7.5-10.7 5.9-1.9-.6-3.6-2.5-5.3-5.9-2.3-4.6-2.5-6.1-2.5-19 0-15.4 1.1-20.2 5.2-23.5 3.5-2.8 7.5-2.5 10.6.6m-102.1.4c3.7 4 5.1 12 4.6 25.5-.6 15.8-4 22.5-11.1 22.5-3.2 0-7.1-4-8.6-8.9-1.4-4.8-1.5-28.3-.2-33 3-9.9 9.3-12.5 15.3-6.1" style="fill:#ebebeb"/></svg>