<svg xml:space="preserve" fill="#ebebeb" style="fill-rule:evenodd;clip-rule:evenodd;stroke-linejoin:round;stroke-miterlimit:2" viewBox="0 0 460 315" xmlns="http://www.w3.org/2000/svg"><path d="M239.6 48.5c1.4.9 5.1 5.5 8.1 10.3 8.5 13.2 25.2 35.7 33.2 44.7 5.8 6.7 7.5 7.9 9.6 7.7 3.2-.4 5.5 1.3 5.5 4.2 0 1.4 2.1 3.9 6.1 7.1 3.3 2.7 6.4 5.1 7 5.3.5.2 2.1-.6 3.5-1.7 1.5-1.2 3.5-2.1 4.5-2.1 2.7 0 4.1 3.3 2.9 6.6-.6 1.5-.7 3.1-.3 3.5.8.7 18.6 7.5 23.6 9 1.5.4 10.3 2.2 19.5 3.8 28.3 5.2 34.3 7.4 42.5 15.7 6.9 7 16.7 29.6 16.7 38.6 0 6.2-.7 7.6-9.2 17-12.2 13.6-24.3 21.3-39.1 24.8-8 1.9-12.1 2-146.7 2-82.9-.1-141.5-.4-146-1-17.3-2.3-24.2-6.8-27.3-17.9-3.3-11.7-1.1-37.2 4.2-49.8 3.2-7.5 3.7-11.6 5.1-37.8 1-20.4 3.2-30.1 11.6-50.9 6.3-15.8 9.8-21.4 15.4-24.4 4.1-2.1 5.3-2.3 12.5-1.7 4.4.4 9.3 1.4 10.8 2.2 4 2 8.4 8.8 13.3 20.3 6.1 14.4 8.9 18.9 13.2 20.7 4.7 2 9.2 1.2 27.9-4.7 8.4-2.7 18-5.4 21.3-6.1 5-1 6-1.5 5.4-2.8-1.4-3.3-1.6-11-.4-14.7 2.4-7.6 7.1-13.2 18.3-21.6 11.3-8.5 15.2-10 21.5-8.7 1.8.4 4.4 1.4 5.8 2.4m24 65.4-6.8 6.8 4.4 3.3c2.4 1.9 5.8 4.7 7.5 6.4 1.8 1.6 3.4 2.8 3.6 2.5.2-.2 2.5-3.5 5.2-7.2l4.7-6.8-5.3-5.8c-3-3.2-5.6-5.9-5.9-6-.3 0-3.6 3-7.4 6.8M65.7 182.5c-2.4 5.1-3.9 15.4-4.1 28.5-.1 9.8.2 12 1.9 14.9 3.5 5.9 5.9 7 19.2 8.6 10.4 1.3 32.1 1.5 149 1.3l136.8-.3 6.5-2.2c10.3-3.6 16.7-7.8 27.7-18.6 5.7-5.5 10.1-10.2 9.9-10.4s-4.2.7-8.8 2.1c-11.2 3.2-21.6 4.3-54.8 5.6-15.1.6-34.7 1.5-43.5 2.1-38.4 2.6-47.8 2.4-74.5-2.2-16.2-2.7-22.3-4.1-49.5-11.4-35.7-9.6-46.2-11.7-95.5-19-9.1-1.4-17-2.5-17.6-2.5s-1.8 1.6-2.7 3.5M226.5 56.2c-1.1.6-6.1 4.2-11.1 7.9-12 8.8-15.6 15.9-12.4 24.3.9 2.5 1.3 2.6 8.2 2.6 9.4 0 12.7 1.7 26.6 13.5 6.1 5.2 11.5 9.5 11.9 9.5.5 0 4.1-3.3 8-7.3l7.2-7.2-4.5-6c-2.5-3.3-9.1-12.8-14.6-21-5.5-8.3-10.8-15.6-11.6-16.3-1.9-1.5-5.1-1.5-7.7 0M74 119c-.6 2.1-1.5 11.9-2 21.7s-1.2 20.1-1.6 22.9c-.3 3-.2 5.4.4 5.8.5.3 11.7 2.2 24.8 4.1 23.1 3.4 38.8 5.9 44.8 7.1l2.9.6-.5-6c-1.4-19.8-29.1-45.4-62.5-58l-5.3-2zm21.2-48.3c-1.2.3-3.3 2.1-4.7 4.1-2.8 4.4-12.8 28.9-12.3 30.3.2.6 6 3.4 12.8 6.4 26.4 11.5 48.5 30.5 57.1 49 2.4 5.1 3.3 8.7 3.8 14.8l.6 8.1 5 1.3c22.4 6 58.7 14.7 71.5 17.2 25.5 4.9 37.2 5.7 60 3.7 10.7-.9 33.5-2 50.5-2.6 45.7-1.4 52.2-2.1 65.8-7.2 5.4-1.9 5.8-2.3 5.3-4.7-1.1-4.9-9-19.5-12.3-22.8-5.3-5.2-9.9-7-27.4-10.3-29-5.6-35.2-7-44.4-10.7-4.9-1.9-10-4.1-11.2-4.9-2.1-1.3-2.4-1.2-3.9 1.3-6.9 11.2-14.9 22.5-16.1 23-2.1.8-4.7-1-5.1-3.5-.2-1.2 2.7-7 6.8-13.8 3.9-6.5 6.9-12.1 6.8-12.6-.2-.5-3.4-3.3-7.2-6.2l-6.9-5.4-5.2 6.7c-2.8 3.6-7.7 10.4-10.9 15.1-8 11.5-8.6 12.1-11.5 11.8-4.3-.5-4-5.4.6-12.4l3.8-5.7-4.5-3.6c-2.4-2-6-5-8-6.8l-3.5-3.2-8.2 8.1c-6.9 6.9-8.5 8-10.6 7.4-1.3-.3-2.7-1.5-3-2.6-.6-2.3.9-4.4 8.8-12.3 3.2-3.1 5.4-6.1 5-6.7s-5.7-5.4-11.7-10.5c-12.3-10.6-13.8-11.1-25.5-10.1-7.7.6-17.7 3.2-38.3 9.8-14.4 4.6-22 5.6-28.6 3.8-8.4-2.4-10.5-5.5-23.7-34.1l-3.5-7.7-6.4-1.1c-3.6-.6-6.7-1-6.9-1-.2.1-1.4.4-2.7.6" style="fill:#ebebeb"/></svg>