<svg xml:space="preserve" fill="#ebebeb" style="fill-rule:evenodd;clip-rule:evenodd;stroke-linejoin:round;stroke-miterlimit:2" viewBox="0 0 470 464" xmlns="http://www.w3.org/2000/svg"><path d="M0 0h469.061v463.495H0z" style="fill:none"/><path d="M276.423 89.406c.6 1 1.7 9.7 2.6 19.3 4.6 48.9 10.9 76.7 21.8 97.3 6.5 12.1 18.7 19.5 41.7 25.2 12.4 3.1 25.4 4.9 58.1 8 14.6 1.4 27.5 3 28.7 3.5 3.2 1.4 4.1 5.7 1.6 8.2-1.8 1.7-5.3 2.3-25.4 4.4-47.8 4.9-68.7 9.1-84.6 16.9-13.5 6.7-20.1 13.1-24.7 24.2-8.7 20.6-14.5 52.6-18.2 99.3-.7 9.5-1.5 11-5.4 11-1.5 0-3.2-.6-3.8-1.3-.6-.6-1.5-7.5-2.2-15.2-3.7-45.6-8.7-74-16.9-95.1-5.1-13.3-12.2-19.6-28.2-25.5-19.2-7-39.6-10.6-78.9-13.9-19.3-1.7-25.9-2.6-27.2-3.8-2.2-1.9-2.3-6.5-.3-8.2.9-.7 10.8-2.2 24.3-3.6 65.4-6.5 85.1-11.6 99.5-25.2 7-6.7 11.2-15 15.6-30.2 5.3-18.6 7.3-31.6 11.1-72 1.2-12.4 2.6-23.1 3.2-23.7 1.6-1.9 6.6-1.6 7.6.4m-5.2 55.9c-4 28.3-9.3 49.9-15.6 62.9-8.5 17.7-25.8 27.7-56.5 32.9-12.1 2.1-39.6 5.6-44.8 5.7-3.7.1-3.5.2 1.8.9 3.3.5 10.7 1.3 16.5 2 31 3.4 58.3 12.2 73.4 23.8q8.85 6.6 14.1 23.7c3.7 11.7 8.3 33.7 10.8 52l2.3 16 1.3-11.5c.6-6.3 2.5-18 4.1-26 8.8-43.8 19.2-57.4 52.1-68.4 12.9-4.3 37.3-9.3 49.9-10.2 13.5-.9 13.9-2 1.1-2.8-34.6-2.1-65.3-11.4-78.9-24.1-12.5-11.6-22.7-39.8-28.1-77.9l-1.6-11.9zm-96.739 135.732c.298.497.844 4.82 1.292 9.59 2.285 24.299 5.416 38.113 10.832 48.349 3.23 6.013 9.292 9.69 20.721 12.522 6.162 1.541 12.621 2.435 28.87 3.976 7.255.695 13.665 1.49 14.261 1.739 1.591.695 2.038 2.832.796 4.074-.895.845-2.634 1.143-12.622 2.187-23.752 2.435-34.137 4.522-42.038 8.397-6.708 3.33-9.988 6.51-12.274 12.026-4.323 10.236-7.205 26.137-9.043 49.342-.348 4.721-.746 5.466-2.684 5.466-.745 0-1.59-.298-1.888-.646-.298-.298-.745-3.727-1.093-7.553-1.839-22.659-4.323-36.771-8.398-47.255-2.534-6.609-6.062-9.74-14.012-12.672-9.541-3.478-19.678-5.267-39.206-6.907-9.591-.844-12.87-1.291-13.516-1.888-1.093-.944-1.143-3.23-.149-4.074.447-.348 5.366-1.094 12.075-1.789 32.497-3.23 42.286-5.764 49.442-12.522 3.478-3.33 5.565-7.454 7.751-15.007 2.634-9.242 3.628-15.702 5.516-35.777.596-6.162 1.292-11.479 1.59-11.777.795-.944 3.28-.795 3.777.199m-2.584 27.777c-1.988 14.063-4.621 24.796-7.752 31.255-4.224 8.796-12.82 13.765-28.075 16.349-6.013 1.043-19.678 2.782-22.262 2.832-1.838.05-1.739.099.895.447 1.64.249 5.317.646 8.199.994 15.404 1.69 28.969 6.062 36.473 11.826q4.397 3.28 7.006 11.777c1.839 5.814 4.124 16.746 5.367 25.839l1.143 7.951.646-5.715c.298-3.13 1.242-8.944 2.037-12.919 4.373-21.765 9.54-28.523 25.889-33.989 6.41-2.136 18.534-4.621 24.795-5.068 6.708-.447 6.907-.994.547-1.391-17.193-1.044-32.448-5.665-39.206-11.976-6.211-5.764-11.28-19.777-13.963-38.709l-.795-5.913zM115.623 20.459c.34.568.965 5.51 1.476 10.962 2.613 27.775 6.191 43.565 12.383 55.266 3.692 6.872 10.621 11.076 23.685 14.313 7.043 1.761 14.427 2.783 33 4.544 8.293.795 15.62 1.704 16.301 1.988 1.818.795 2.329 3.238.909 4.658-1.022.965-3.01 1.306-14.427 2.499-27.15 2.783-39.021 5.168-48.052 9.599-7.668 3.805-11.416 7.44-14.029 13.745-4.942 11.701-8.236 29.876-10.338 56.402-.397 5.395-.852 6.247-3.067 6.247-.852 0-1.817-.34-2.158-.738-.341-.341-.852-4.26-1.25-8.633-2.101-25.901-4.941-42.032-9.599-54.016-2.896-7.555-6.929-11.133-16.017-14.484-10.905-3.976-22.492-6.021-44.814-7.895-10.963-.966-14.711-1.477-15.45-2.158-1.249-1.08-1.306-3.692-.17-4.658.511-.398 6.134-1.25 13.802-2.045 37.147-3.692 48.336-6.588 56.515-14.313 3.976-3.806 6.361-8.52 8.861-17.153 3.01-10.565 4.146-17.949 6.304-40.896.682-7.043 1.477-13.12 1.818-13.461.909-1.079 3.749-.909 4.317.227m-2.954 31.751c-2.272 16.074-5.282 28.342-8.861 35.726-4.828 10.054-14.654 15.734-32.091 18.687-6.873 1.193-22.492 3.181-25.446 3.238-2.102.057-1.988.113 1.022.511 1.875.284 6.078.738 9.372 1.136 17.608 1.931 33.114 6.929 41.691 13.518q5.026 3.748 8.008 13.461c2.102 6.646 4.715 19.142 6.135 29.536l1.306 9.088.738-6.532c.341-3.578 1.42-10.224 2.329-14.768 4.999-24.878 10.906-32.602 29.592-38.85 7.328-2.443 21.187-5.283 28.343-5.794 7.668-.511 7.895-1.136.625-1.59-19.652-1.193-37.09-6.475-44.814-13.689-7.1-6.588-12.894-22.606-15.961-44.246l-.909-6.759z" style="fill:#ebebeb"/></svg>