<svg xml:space="preserve" fill="#ebebeb" style="fill-rule:evenodd;clip-rule:evenodd;stroke-linejoin:round;stroke-miterlimit:2" viewBox="0 0 280 276" xmlns="http://www.w3.org/2000/svg"><path d="M5745 3521c-22-10-48-28-58-39-47-52-46-39-47-1082 0-665 4-997 11-1023 14-51 72-114 118-127 24-8 308-10 877-8l841 3 37 29c21 16 47 47 57 70 18 39 19 86 19 1050 0 987 0 1011-20 1050-11 23-36 52-57 66l-37 25-850 2c-809 3-853 2-891-16m1709-137c9-24 7-1967-2-1982-7-10-179-12-828-10l-819 3-3 989c-1 722 1 992 9 1002 10 12 152 14 824 14 732 0 813-2 819-16" style="fill:#fff;fill-rule:nonzero" transform="matrix(.1 0 0 -.1 -513 377)"/><path d="M6495 3202c-68-33-127-92-158-161-16-35-22-66-22-126s6-91 22-126c30-67 86-124 151-156 75-36 192-39 262-6 68 31 125 87 157 151 37 75 40 191 7 263-54 116-165 189-289 189-56 0-82-6-130-28m219-140c88-51 107-172 40-252-36-42-75-60-131-60-150 0-225 169-125 281 52 58 147 71 216 31m-211-567c-247-67-408-301-373-544 5-38 17-89 27-113 59-153 204-276 360-308 77-16 205-8 276 18 127 46 248 163 299 290 19 48 23 75 23 177 0 105-3 127-25 175-105 239-352 368-587 305m248-158c142-59 221-173 221-322 1-136-75-257-197-315-73-34-200-40-276-11-186 71-278 286-196 463 42 93 114 158 215 194 60 21 168 17 233-9" style="fill:#fff;fill-rule:nonzero" transform="matrix(.1 0 0 -.1 -513 377)"/><path d="M6555 2195c-22-8-55-31-73-51-135-156 35-381 224-295 154 70 138 293-25 349-44 15-76 15-126-3" style="fill:#fff;fill-rule:nonzero" transform="matrix(.1 0 0 -.1 -513 377)"/></svg>