<svg viewBox="0 0 386 369" xmlns="http://www.w3.org/2000/svg" xml:space="preserve" style="fill-rule:evenodd;clip-rule:evenodd;stroke-linejoin:round;stroke-miterlimit:2"><path d="M303.8 110.2c10.5 6.2 22.4 19.8 27.9 31.8 7.2 15.6 9.2 34.9 5.4 52-3.1 14.1-9.3 25.9-18.7 35.9-11.7 12.5-24.7 19.1-28.4 14.6-2.3-2.8-.3-5.9 5.7-9 11.3-5.9 23.2-19.5 28.4-32.7 4.8-12.1 6.1-29.1 3.4-42.3-.8-3.9-3.6-11.3-6.1-16.4-3.8-7.7-6.1-10.9-12.1-16.7-4-3.9-10-8.6-13.3-10.3-6.3-3.4-7.8-5.7-6-9.2 1.6-2.9 6.4-2.1 13.8 2.3zm-53.2-68.4c4.8 2.5 6.9 4.7 9 9.7 1.4 3.5 1.6 15.1 1.5 125.4-.1 66.9-.4 122.7-.8 124.1-1.8 7.9-12.4 14.6-21.7 13.8-5.8-.5-5.3-.2-33.1-20.3-8.2-5.9-26-18.7-39.5-28.3-13.5-9.6-26.1-18.8-28.1-20.3l-3.5-2.8-29.5-.3-29.4-.3-6-2.8c-10.7-5-16.4-12.1-18.4-23.2-1.4-7.4-1.4-67.5-.1-76.9 1.9-12.6 8.8-21.1 20.9-25.7 5.3-1.9 7.4-2.1 35.1-2l29.5.1 25-19c13.8-10.5 29.9-22.7 35.9-27.3 6-4.5 15.2-11.5 20.4-15.6 12.4-9.6 16.1-11.3 23.3-10.8 3 .3 7.3 1.4 9.5 2.5zm-23.8 14.5c-4.6 3.4-13 9.9-18.8 14.3-5.8 4.4-19.9 15.2-31.5 23.9-11.5 8.7-24 18.3-27.8 21.2l-6.7 5.4.2 57.6.3 57.6 9 6.6c15.3 11.1 72.7 52.2 79.2 56.8 8.4 5.9 12 6.5 16.4 2.5l3.4-3 .3-118.9c.1-65.3 0-120.3-.3-122.2-1-5.4-4.5-8.1-10.4-8.1-4.6 0-5.7.5-13.3 6.3zM73.5 124.4c-5.5 2.5-10.1 7.2-11.3 11.4-.4 1.5-.7 20.7-.7 42.7 0 45.4-.3 43.8 8.3 49.5 6.8 4.5 12.2 5.2 37.7 4.8l23-.3v-110l-26-.2c-25.5-.3-26.1-.3-31 2.1z" style="fill:#ebebeb"/></svg>