<?xml version="1.0" encoding="UTF-8" standalone="no"?>
<!DOCTYPE svg PUBLIC "-//W3C//DTD SVG 1.1//EN" "http://www.w3.org/Graphics/SVG/1.1/DTD/svg11.dtd">
<svg width="100%" height="100%" viewBox="0 0 24 24" version="1.1" xmlns="http://www.w3.org/2000/svg" xmlns:xlink="http://www.w3.org/1999/xlink" xml:space="preserve" xmlns:serif="http://www.serif.com/" style="fill-rule:evenodd;clip-rule:evenodd;stroke-linejoin:round;stroke-miterlimit:2;">
    <g transform="matrix(1,0,0,1,-55.6116,-28.0275)">
        <g id="Spiral" transform="matrix(1,0,0,1,55.6116,28.0275)">
            <rect x="0" y="0" width="24" height="24" style="fill:none;"/>
            <clipPath id="_clip1">
                <rect x="0" y="0" width="24" height="24"/>
            </clipPath>
            <g clip-path="url(#_clip1)">
                <g transform="matrix(0.0695012,0,0,0.0696621,-7.26552,-7.34369)">
                    <path d="M308.867,107.461C367.492,118.355 411.953,159.867 423.364,214.432C424.151,218.161 425.331,226.895 425.921,233.667C429.659,275.277 410.084,318.949 377.034,342.404C355.492,357.713 335.327,364.387 310.342,364.485C281.128,364.485 256.536,354.278 235.978,333.375C201.058,297.947 200.862,243.481 235.683,208.642C250.733,193.626 266.373,187.051 287.226,187.051C300.702,187.051 307.785,188.72 319.687,194.51C326.277,197.748 329.622,200.202 336.409,206.973C349.196,219.731 354.115,231.017 354.115,247.799C354.115,260.753 351.852,268.015 344.672,278.32C324.507,307.074 282.406,304.915 267.553,274.394C265.291,269.88 263.619,264.875 263.619,263.01C263.619,258.005 267.947,252.411 272.668,251.135C280.242,249.173 284.472,251.822 289.292,261.342C294.604,272.137 305.621,275.375 316.736,269.291C325.884,264.384 330.507,254.668 328.638,244.168C326.572,232.195 319.195,223.362 306.014,217.081C299.719,214.039 297.358,213.45 290.177,213.156C276.898,212.469 266.471,216.394 255.061,226.208C248.864,231.508 241.487,243.186 238.536,252.313C235.585,261.734 235.093,276.651 237.552,286.072C241.29,300.302 249.946,312.864 262.635,322.482C270.701,328.566 273.062,329.842 280.538,332.59C291.751,336.712 298.342,337.889 310.342,337.988C323.228,337.988 332.769,336.025 345.459,330.823C362.476,323.659 379.395,308.154 388.444,291.372C396.805,275.866 400.346,261.538 400.346,243.088C400.248,215.021 390.116,189.603 370.935,169.583C357.164,155.156 342.508,145.735 323.621,138.964C309.162,133.762 297.948,131.996 279.849,131.996C259.586,132.094 236.076,138.964 218.567,149.759C210.698,154.666 196.042,166.54 191.812,171.447C173.615,192.449 163.188,212.96 157.188,239.653C155.22,248.486 154.925,252.411 154.925,270.861C154.925,290.587 155.122,292.746 157.679,303.737C164.958,334.553 179.025,359.185 201.845,381.463C214.83,394.024 237.65,408.156 255.553,414.535C281.718,423.858 312.309,426.214 340.147,421.11C359.033,417.577 369.165,413.848 391.789,402.072C401.33,397.165 411.757,406.88 408.216,417.479C406.642,422.288 401.822,426.017 389.034,432.298C341.524,455.655 281.029,455.851 232.24,432.691C200.567,417.676 176.467,396.674 155.614,365.957C150.105,357.811 141.744,340.147 137.711,328.076C130.236,305.602 127.285,285.385 128.17,262.029C129.547,226.601 141.646,193.038 163.286,164.872C169.778,156.432 185.615,140.828 194.271,134.351C213.748,119.728 237.454,110.013 262.635,106.382C274.144,104.713 297.063,105.302 308.867,107.461Z" style="fill:rgb(248,248,248);"/>
                </g>
            </g>
        </g>
    </g>
</svg>
