<?xml version="1.0" encoding="UTF-8" standalone="no"?>
<!DOCTYPE svg PUBLIC "-//W3C//DTD SVG 1.1//EN" "http://www.w3.org/Graphics/SVG/1.1/DTD/svg11.dtd">
<svg width="100%" height="100%" viewBox="0 0 24 24" version="1.1" xmlns="http://www.w3.org/2000/svg" xmlns:xlink="http://www.w3.org/1999/xlink" xml:space="preserve" xmlns:serif="http://www.serif.com/" style="fill-rule:evenodd;clip-rule:evenodd;stroke-linejoin:round;stroke-miterlimit:2;">
    <g transform="matrix(1,0,0,1,-26.607,0)">
        <g id="Splatter" transform="matrix(1,0,0,1,26.607,0)">
            <rect x="0" y="0" width="24" height="24" style="fill:none;"/>
            <g transform="matrix(0.0682616,0,0,0.0655203,-1.69526,0.479652)">
                <path d="M122.7,39.9C123.3,40 125.2,41.2 126.9,42.6C132.5,47.3 130.6,55.6 123.5,58C114.2,61.1 107.2,53.3 111.2,44.4C112.5,41.6 117.2,39 119.9,39.5C120.8,39.7 122,39.9 122.7,39.9ZM215.5,16.4C221.6,19.3 226.2,24 229,30.2C230.6,33.9 231,37 231.1,45.7C231.1,51.6 230.9,57.6 230.6,59C230.3,60.4 229.9,63.3 229.5,65.5C229.2,67.7 228.2,73.3 227.3,78C226.4,82.7 225.7,91.1 225.6,96.8L225.5,107.2L228.8,110.1C235.6,116.2 244.2,112.6 264.1,95.4C281,80.7 286.3,76.6 292.5,73.9C307.4,67.3 322.3,76.2 322.3,91.7C322.3,102.6 314.5,112.4 291.5,130.3C277.6,141.1 272.5,147.8 273.4,153.9C274.6,161.6 278.8,163.1 308.8,166.6C325.2,168.5 335.4,171 343.3,175.2C355.3,181.7 362.7,194.1 360.1,203.8C357.6,213.1 350.1,220.5 340.5,223.1C334.5,224.8 316.3,223.6 302.3,220.6C277.8,215.4 268,218.1 268,230C268,236.6 272.3,243.1 287.6,259.9C307.7,282 310.5,287.1 309.8,300.5C308.4,327.6 277.7,337.3 255.4,317.7C252.5,315.2 246.6,307.3 240.5,298C225.1,274.6 218,268.5 208.9,271C207,271.5 204.2,273.2 202.8,274.7C199.2,278.6 193.7,288.8 189.6,299.6C181.2,321.7 174.4,330.5 161.7,335.9C156.8,337.9 153.9,338.4 148,338.4C135.9,338.3 127.3,333.4 121.2,323C118.7,318.8 118.5,317.7 118.5,307.5L118.6,296.5L124.4,282.5C133.2,261.1 135.8,249.3 133,243.9C131.2,240.6 124.5,241.4 109.6,247C90.4,254.1 82.3,256 71.6,256C60.6,256 56.6,255 50.3,250.6C44.2,246.4 39.6,237.9 39.6,230.5C39.5,221.5 41.7,216.2 48.4,209.4C55.7,202.2 64,197.9 81.5,192.5C112.7,183 118,179.8 118,170.9C118,167.1 116,163.3 112.3,159.9C109.2,156.9 93.5,147.4 82,141.4C66.7,133.4 58.4,121.4 59.2,108.5C60.2,93 71.9,82.5 88,82.5C94.6,82.5 96.5,83 103.1,86.2C112,90.4 118.8,94.6 132,104C149.5,116.5 157.4,118.9 163.9,113.4C169.3,108.9 169.4,108.4 169.5,81C169.5,59.5 169.8,54.5 171.3,49.1C176.1,32.1 186.7,18.1 196.9,15C202.3,13.3 210.3,13.9 215.5,16.4ZM196.6,25.2C191.5,28.1 185,37.8 182.1,46.6C178.9,56.5 177.9,66.2 178.1,88C178.3,105.7 178.1,107.9 176.3,112C169.7,126.7 152.5,129.1 135.8,117.6C132.3,115.3 124.4,109.9 118.2,105.6C102.8,95 95.2,91.5 87.3,91.5C82.1,91.5 80.5,91.9 76.8,94.5C71.9,97.9 68.1,104.6 68,109.9C67.9,118.7 76.5,128.2 92.6,136.9C107,144.7 118.4,152.4 121.4,156.2C127.4,164.1 128.6,172.5 124.8,180C120.5,188.4 111.5,193.2 85,201.1C59,208.8 49,217 49,230.3C49,234.6 49.5,236.4 51.7,239.2C56.1,244.9 59.4,246.4 69,246.8C79.1,247.2 89.7,244.8 108.8,237.6C126.1,231.1 133,231.4 139.3,239C140.7,240.6 142.3,244.4 142.9,247.2C144.4,254.1 142.4,262 133.9,283.6C125.2,305.7 124.8,314.2 132.3,322.6C136,326.9 139.2,328.6 145.2,329.5C152.4,330.6 160.1,327.9 166.2,322.2C172.4,316.4 174.6,312.7 181.3,296.5C191.2,272.2 197.4,264.4 208.3,262C221.3,259.2 231.3,267 248.5,293.4C261.5,313.4 267,317.9 278.8,318.7C284.4,319.1 286.2,318.8 290,316.8C300.1,311.6 303.7,299.7 298.6,288.5C295.4,281.6 295,281 280.6,265.6C266.6,250.8 263.4,246.6 260.9,240C257.3,230.4 258.9,221.7 265.6,215.3C268.2,212.7 271.6,210.6 274.2,209.9C279.8,208.4 293.4,209.3 307,212C312.8,213.2 321.8,214.4 327,214.6C336,215.1 336.8,215 342,212.3C346.4,210.1 348,208.6 349.8,204.8C351.8,200.8 352,199.6 351.1,196.3C350.5,194.1 348.4,190.9 346.3,188.8C338.6,181.5 329.4,178.5 307,175.9C288.4,173.8 278.7,171.9 274,169.5C263.2,163.9 262,146.4 271.6,135.1C273.6,132.8 279.5,127.7 284.8,123.8C298.3,113.9 309.4,102.9 311.9,97.1C315.7,88.2 311.3,81 301.9,81C295.9,81 289.4,85.2 273.1,99.5C266.9,105 259.2,111.4 256.1,113.7C250,118.4 240.7,122 235,122C229.8,122 223,118.2 219.6,113.2C217,109.5 216.6,107.9 216.2,100.2C215.8,92.7 217.2,79.6 219.6,67.6C222.9,51.2 223.2,39 220.5,33.6C215.8,24.2 204.9,20.4 196.6,25.2ZM92.7,297.1C94.2,298.5 94.4,303.3 93,306.1C92.4,307.1 90.7,308.6 89.2,309.4C85.3,311.4 82,309.6 80.1,304.6C78.6,300.7 78.6,300.7 81.9,297.8C84.6,295.4 85.8,294.9 88.3,295.4C89.9,295.7 91.9,296.5 92.7,297.1Z" style="fill:rgb(248,248,248);stroke:rgb(248,248,248);stroke-width:14.95px;"/>
            </g>
        </g>
    </g>
</svg>
