<svg xml:space="preserve" fill="#ebebeb" style="fill-rule:evenodd;clip-rule:evenodd;stroke-linejoin:round;stroke-miterlimit:2" viewBox="0 0 341 467" xmlns="http://www.w3.org/2000/svg"><path d="M252.9 112c31.1 11.5 41.1 16.1 41.1 19 0 2.3-2.8 4-6.5 4-1.5 0-5.4-1.5-8.8-3.4s-17.2-7.3-30.7-12.1-25.5-9.3-26.7-10.1c-4-2.5-2.3-7.4 2.4-7.4 1.2 0 14.4 4.5 29.2 10m37.7-51.6c1.8 1.4 1.8 1.7.4 4.3-1.1 2-3.5 3.5-8.5 5.4-3.9 1.5-12.6 5-19.5 7.8-14 5.8-31.8 11.7-37.7 12.7-3 .4-4.2.2-5.3-1.1-2.9-3.5 1.7-6.2 24.3-13.9 5.6-1.9 17.4-6.4 26.2-10s16.5-6.5 17.1-6.6c.5 0 1.9.6 3 1.4m-106.1 5.1 2.5 2.4v25.8c0 14.2.4 26.3.8 26.9s4.3 3.5 8.7 6.4c4.4 3 10.4 7.6 13.3 10.4 6.2 5.8 14.7 18.1 15.7 22.5.6 3 .8 3.1 6.5 3.1 3.7 0 6.2.5 6.9 1.4.9 1.1 1 32.1.6 126.8l-.5 125.3-2.6 2.2-2.5 2.3H75l-1.4-2.3c-1.2-1.9-1.5-19.8-1.5-125.7-.1-98.6.1-124 1.2-126 1-2.1 2.1-2.5 6.4-2.8 5-.3 5.1-.4 6.8-4.8 3.8-9.9 13.7-20.1 30.5-31.4 3.6-2.4 6.8-4.8 7.2-5.4s.8-13.5.8-28.7c0-21.7.3-27.9 1.3-28.8.8-.6 7.8-1.2 17.8-1.4 9-.1 21.3-.4 27.2-.5 10.3-.2 10.9-.1 13.2 2.3m-67 72.6c-6.6 4.4-13.1 9-14.3 10.2-2.9 2.7-6.8 9.3-7.7 13l-.7 2.7h60c32.9 0 60.2-.3 60.5-.7 1.1-1.1-5.5-12.6-10.1-17.6-2.6-2.8-8.4-7.4-12.9-10.4L184 130h-54.5zm4.5 33.8-40.5.6-.3 17c-.2 9.3 0 63.5.3 120.3l.7 103.2 49.7-.2c27.3-.2 60.7-.4 74.4-.6l24.7-.3-.2-120.1-.3-120-34-.3c-18.7-.1-52.2.1-74.5.4m22.3-100.2-11.3.4V122h46.3l-.7-6.1c-.3-3.4-.6-14.9-.6-25.5V71l-11.2.2c-6.2.1-16.4.4-22.5.5m15.1 24.5c1.8 5.2-4.4 8.9-8.6 5.1-2.1-1.8-2.3-3.6-.7-6.4.8-1.6 1.9-1.9 4.7-1.7 3 .2 3.8.8 4.6 3" style="fill:#ebebeb"/></svg>