<?xml version="1.0" encoding="UTF-8" standalone="no"?>
<!DOCTYPE svg PUBLIC "-//W3C//DTD SVG 1.1//EN" "http://www.w3.org/Graphics/SVG/1.1/DTD/svg11.dtd">
<svg width="100%" height="100%" viewBox="0 0 24 24" version="1.1" xmlns="http://www.w3.org/2000/svg" xmlns:xlink="http://www.w3.org/1999/xlink" xml:space="preserve" xmlns:serif="http://www.serif.com/" style="fill-rule:evenodd;clip-rule:evenodd;stroke-linejoin:round;stroke-miterlimit:2;">
    <g transform="matrix(0.0797719,0,0,0.078837,-48.528,-23.4863)">
        <path d="M774.2,373L774.5,422.8L813,399.3C834.2,386.4 852.7,375.2 854.1,374.5L856.8,373.1L864.1,385.8C868.1,392.8 871.5,398.8 871.6,399.1C871.9,399.7 867.6,402.4 817,433.3C803.5,441.5 791.9,448.8 791.2,449.4C790.2,450.4 792.6,452.2 802.2,458C845.2,483.8 872,500.3 872,501.1C872,501.5 868.8,507.8 864.9,514.9L857.8,527.8L822.6,506.6C803.3,494.9 784.5,483.4 780.8,481.2L774,477L774,577L744,577L743.8,527.1L743.5,477.2L702,502.6C679.2,516.6 660.3,527.7 659.9,527.2C657.7,524.9 645.9,500.7 646.6,500.1C647.7,499.1 723.3,453.2 726.7,451.5C729.4,450.1 733.3,452.6 670.4,414.8L645.3,399.6L653.1,386.6C657.4,379.4 661.3,373.6 661.8,373.7C662.3,373.8 681,384.9 703.4,398.3L744,422.7L744,322.9L759,323.1L774,323.2L774.2,373Z" style="fill:rgb(248,248,248);"/>
    </g>
</svg>
