<?xml version="1.0" encoding="UTF-8" standalone="no"?><!DOCTYPE svg PUBLIC "-//W3C//DTD SVG 1.1//EN" "http://www.w3.org/Graphics/SVG/1.1/DTD/svg11.dtd"><svg width="100%" height="100%" viewBox="0 0 293 480" version="1.1" xmlns="http://www.w3.org/2000/svg" xmlns:xlink="http://www.w3.org/1999/xlink" xml:space="preserve" xmlns:serif="http://www.serif.com/" style="fill-rule:evenodd;clip-rule:evenodd;stroke-linejoin:round;stroke-miterlimit:2;"><path d="M126.9,119.9c2.1,1.4 -4.1,7.4 -7.1,6.9c-3.6,-0.5 -3.4,-3.5 0.4,-5.8c3.7,-2.2 4.7,-2.4 6.7,-1.1Zm-29.5,-92.6c2.8,2.8 6.6,12.6 6.6,16.9c0,4.1 -5.8,15.9 -8.1,16.5c-1.6,0.5 -1.6,0.8 0.7,5c1.3,2.5 2.4,5.4 2.4,6.3c0,1 0.7,2.3 1.6,3.1c3.3,2.7 4.6,7 4.2,13.6c-0.4,5.7 -0.8,6.7 -4.1,10.1c-3.6,3.7 -3.7,3.9 -3.7,11.9c0,4.4 0.9,12.5 1.9,17.9c1.1,5.4 2.5,13.3 3.2,17.4c1.1,7.2 1.4,7.7 6.2,12c4,3.6 6.1,6.8 10.3,15.7c5.1,10.7 5.5,11.2 10,13.2c6,2.7 6.4,2.7 6.4,-0.7c0,-1.6 0.7,-4.9 1.5,-7.4c1.5,-4.3 1.5,-4.7 -0.5,-8c-2.8,-4.7 -3.9,-15.1 -2.4,-21.7l1.1,-5.1l-3.3,-1.6c-3,-1.4 -6.4,-6.4 -6.4,-9.3c0,-2.2 4.1,-9.2 7.7,-13.2c2.6,-2.9 3.4,-4.4 2.7,-5.4c-7.1,-9.7 -11.5,-17.3 -11.2,-19.5c0.4,-3.5 3.8,-3.7 7.6,-0.5c3.3,2.8 12.2,14.9 12.2,16.6c0,0.6 0.6,0.8 1.3,0.6c0.6,-0.3 3.8,-1.1 7,-1.8l5.7,-1.3l0,-12.7c0,-13.6 0.7,-17.2 3.9,-18.8c1.5,-0.8 2.3,-0.7 3.5,0.5c1.3,1.3 1.6,4.2 1.6,16c0,16.4 -0.6,15.4 9.5,16.9c2.8,0.4 5.5,1.1 6.1,1.6c0.8,0.6 1.7,-0 3,-1.8c2.1,-3.4 13.3,-16.5 14.8,-17.5c0.6,-0.4 2.3,-0.8 3.8,-0.8c2.1,0 2.9,0.6 3.4,2.5c0.5,2.1 -0.7,4.1 -6.8,11.8c-4.1,5 -7.8,9.8 -8.2,10.5c-0.5,0.8 0.5,2.6 2.6,5l3.3,3.7l5.5,-2.8c3,-1.5 8.1,-3.3 11.3,-3.9c5.4,-1.2 6,-1.1 7.3,0.6c2.2,3 0.1,5.2 -9,9.6c-6,2.8 -9.3,5.1 -11.6,8c-3.7,4.6 -8.3,7.4 -11.2,6.7c-1.6,-0.5 -1.8,-0.2 -1.1,1.6c0.8,2.1 0.9,13.8 0.3,22.2c-0.1,2.2 0.5,6.4 1.3,9.3c0.9,2.9 1.9,9.7 2.3,15.2l0.7,9.8l4.6,2.6c9.4,5.1 15.2,12.7 19.4,25.6c1.3,4.1 3,8.7 3.7,10.2l1.2,2.6l3.8,-3.9c2.3,-2.5 4.6,-3.9 6.1,-3.9c3.9,0.1 11.1,3.8 15.4,8.1c2.3,2.1 6.1,4.9 8.5,6.1c6.8,3.6 8.5,6.6 8.5,15.5c0,7.2 -0.1,7.7 -3,10l-3.1,2.5l3.7,3.7c7,6.9 7.4,15.6 1.3,25.8c-3.9,6.4 -17.6,21 -21.1,22.4c-1.9,0.7 -2.3,1.6 -2.3,5.6c0,6.1 -2.4,15 -4.8,18.3c-2.8,3.7 -7.3,6 -13.2,6.7l-5.3,0.6l0.7,20.6c0.4,11.3 1.1,30.7 1.6,43.1c0.9,22.2 0.9,22.5 -1.2,24.3c-1.8,1.5 -2.4,1.6 -4.2,0.4c-2.9,-2 -3.2,-4.7 -4.5,-35.7c-0.7,-15.1 -1.6,-37.4 -2.1,-49.5c-0.5,-12.1 -1.2,-38.4 -1.6,-58.3c-0.6,-30.7 -0.5,-36.5 0.7,-37.3c2.2,-1.4 4.8,-1 6.8,1c1.8,1.8 1.9,1.8 3.9,-1.8l2.1,-3.7l-3,-8.5c-1.7,-4.6 -4.8,-13.3 -6.9,-19.2c-4.2,-12 -7.7,-17.8 -12.9,-21.3c-3.4,-2.3 -12.9,-6 -13.5,-5.3c-6.4,8.2 -30.7,34.1 -49,52.4c-13.3,13.2 -25.1,25.3 -26.2,27c-4.4,6.3 -4.7,8.8 -4.9,37.7l-0.3,27.7l5.4,-7.7c2.9,-4.2 15.6,-22.9 28.1,-41.5c22.7,-33.8 24.5,-36 28.8,-34.3c3.6,1.3 1.5,6.2 -10.6,24.7c-23.7,36 -44.2,65.1 -48.6,68.7l-4.3,3.6l0,9.3c0,9.9 -1.8,25.7 -5.1,44.8c-1.2,6.6 -2.3,13.9 -2.6,16.2c-0.5,4 -0.4,4.2 1.8,3.6c3,-0.8 77.8,-62.9 81.4,-67.7c5.7,-7.4 5.9,-10.4 6.9,-88.6c0.3,-27.2 1,-32.5 4.1,-31.4c4.3,1.7 4.5,4 4.5,51.1c0,24.6 -0.5,48.8 -1,53.8c-1.3,10.7 -4.9,19.3 -10.6,25c-4,3.9 -63.8,54.2 -74.6,62.8c-5.8,4.5 -6.2,4.7 -12.8,4.7c-11.6,0 -12,-1.6 -7.1,-27.8c5.2,-27.6 6.1,-40.5 6.5,-91.2l0.3,-35.5l2.7,-7.6l2.6,-7.6l-1.9,-4.4c-2.8,-6.3 -4.4,-19.1 -3.7,-28.1c0.6,-7.1 0.5,-7.7 -1.4,-8.3c-3.1,-1 -16.6,-16.3 -19.8,-22.5c-1.6,-3 -3.3,-7.2 -3.6,-9.3c-0.8,-4.5 1.2,-12.4 4.8,-18.8l2.5,-4.3l-2,-3.2c-2.9,-4.7 -6.7,-16.7 -8.5,-26.4c-0.8,-4.7 -1.8,-17.6 -2.1,-28.8l-0.6,-20.4l-3.8,-2.3c-5.7,-3.7 -6.9,-6 -6.9,-13.8c0,-5.3 0.5,-7.5 2,-9.7c2.3,-3.2 10.3,-6.6 18.3,-7.8l5.2,-0.7l0.5,-5.7c0.6,-6.9 2.9,-9.8 7.7,-9.8c2,0 3.3,-0.5 3.3,-1.3c0,-0.7 1.1,-2.9 2.5,-4.9c2.1,-3.1 2.4,-4.4 1.9,-8c-1.1,-7 -2,-7.8 -4,-3.6c-1.6,3.4 -2.9,4.3 -8.7,6.2c-1,0.3 -2.4,2.1 -3.2,4c-0.8,1.9 -2.2,3.9 -3.2,4.4c-1.2,0.7 -1.9,3 -2.4,7.8c-0.5,5.3 -1.2,7.2 -2.9,8.6c-3.3,2.7 -4.4,1.8 -5.3,-4.1c-1.1,-7 0.6,-16.4 3.8,-21.3c2.6,-3.9 9.8,-9.8 12,-9.8c0.6,0 3.1,-2.3 5.4,-5c4.9,-5.8 8.6,-6.6 12.5,-2.7Zm81.6,153.7c-7.1,5.5 -22.9,6.6 -30.3,2.2l-3.6,-2.1l-0.6,5.4c-0.4,2.9 -0.4,5.8 -0.1,6.3c0.3,0.6 4.9,2.5 10.1,4.2c9.6,3.2 12.1,5.1 14.3,11c0.8,2.1 1,2 4.6,-2c2,-2.3 5.3,-4.8 7.2,-5.6l3.5,-1.5l-0.7,-9.2c-0.4,-5 -0.9,-9.5 -1.3,-9.9c-0.3,-0.4 -1.7,0.2 -3.1,1.2Zm-109.9,-97.3c-5.9,2.1 -8,3.6 -8.1,5.5c0,2 2.5,5.7 4.7,6.7c3.4,1.6 18.7,1.4 22.7,-0.3c5.7,-2.4 8.2,-7.9 5.3,-11.7c-0.9,-1.3 -3.4,-1.8 -9.7,-2.1c-6.8,-0.3 -9.6,0.1 -14.9,1.9Zm17.6,-14.3c-0.9,2.2 -0.1,3.6 1.9,3.6c1.8,0 1.8,-1.1 0.1,-3.4c-1.3,-1.8 -1.4,-1.8 -2,-0.2Zm148.2,177.4c-0.1,0.4 -0.2,2.3 -0.3,4.2c-0.1,3.3 -0.3,3.5 -3.1,3.2c-1.8,-0.2 -4,-1.4 -5.4,-3c-1.3,-1.5 -2.1,-2 -1.9,-1.2c0.3,0.8 1.3,3.9 2.3,6.9c3.3,10.2 0.8,17.1 -7.8,20.9l-3.9,1.7l0.6,22c0.3,12.1 0.9,28.2 1.3,35.9l0.6,13.8l4.1,-0.5c5.9,-0.8 9.1,-4.8 10,-12.3c0.4,-3.3 0.9,-7.7 1.2,-10c0.6,-4 0.5,-4.1 -2.6,-4.8c-1.8,-0.3 -4.3,-0.6 -5.6,-0.6c-2.6,0 -4.7,-3 -3.8,-5.4c0.3,-0.9 3.5,-3.8 7,-6.6l6.4,-5l0,-11.4c0,-9.7 0.3,-11.7 1.9,-13.8c1.1,-1.4 2.7,-4.3 3.6,-6.5c1.9,-4.7 5.2,-6.6 10,-5.7c5.8,1.1 7.5,-0.1 7.5,-5.2c0,-3.4 -0.4,-4.6 -1.7,-5c-5.6,-1.8 -7.7,-3 -11.1,-6.3c-3.6,-3.7 -9.1,-6.8 -9.3,-5.3Zm13.5,37c0.1,3.3 -0.2,3.7 -2.1,3.5c-2.3,-0.3 -2.3,-0.1 -2.3,9.8c0,10.7 -1.4,15 -6.1,18.3c-1.9,1.3 -1.9,1.4 0.5,2.9c2.3,1.5 2.6,1.5 6,-1.2c7.8,-6.2 15.6,-17.5 15.6,-22.6c0,-3.7 -2.5,-8 -6.2,-10.8c-5.4,-4 -5.5,-4 -5.4,0.1Zm-164.4,-177.7c-1.4,0.4 -4.5,0.7 -6.9,0.8l-4.4,0.1l0.6,22.2c0.4,12.8 1.3,25.1 2.1,28.9c1.5,7.1 5.9,18.4 7.2,18.4c0.4,0 3.6,-3.5 7.1,-7.8c5.2,-6.3 6.2,-8 5.4,-9.6c-1.3,-2.4 -7.1,-35.5 -7.9,-45.6c-0.7,-8 -0.7,-8.1 -3.2,-7.4Zm68.7,13.3c-5.8,1.7 -11.7,5.7 -15.2,10.1c-3,4.1 -3.1,5.1 -0.4,6.6c1.8,0.9 2.6,0.6 5.3,-1.9c6.6,-6.3 14.6,-8.8 23.8,-7.2c7.7,1.2 12.5,3.6 17.3,8.6c3.9,4 4.2,4.1 6.8,2.8c1.5,-0.8 2.7,-1.9 2.7,-2.3c0,-0.5 -2.1,-3.2 -4.6,-6c-8.7,-9.6 -23.7,-14.1 -35.7,-10.7Zm-54.2,54.9c-10.5,12.4 -18.2,23.5 -19.9,28.4c-1.6,4.6 -1.6,4.8 1,9.8c1.4,2.7 5.6,8.3 9.4,12.3c6.7,7.1 6.9,7.2 8.1,5c5.4,-10.6 11.6,-7.9 8.4,3.8c-3.2,12 -3,33.7 0.5,40.2c0.8,1.7 31.5,-27.8 49.6,-47.8l12.2,-13.4l-7.1,-2.1c-6.3,-1.9 -29.2,-10.3 -38.4,-14.1c-1.7,-0.8 -4,-2.6 -5.1,-4.1c-2.8,-4 -11.2,-21 -11.2,-22.7c0,-3.2 -1.8,-2.1 -7.5,4.7Zm59,-38.2c-11.9,2.7 -18.8,17.1 -13.6,28.4c5.9,12.7 21.4,15.2 31.6,5c3.8,-3.7 6.5,-9.7 6.5,-14.1c0,-6.5 -5.2,-14.9 -10.9,-17.8c-3.8,-1.9 -9,-2.5 -13.6,-1.5Zm21.3,264.1c0.9,0.9 1.2,7.6 1.2,23.9c0,19.4 -0.2,23 -1.6,24.3c-1.8,1.9 -2.8,2 -5.5,0.6c-1.8,-1 -1.9,-2.4 -1.9,-24.3c0,-24.5 0.2,-25.7 4.5,-25.7c1.2,0 2.6,0.5 3.3,1.2Z" style="fill:#ebebeb;"/></svg>