<svg xml:space="preserve" fill="#ebebeb" style="fill-rule:evenodd;clip-rule:evenodd;stroke-linejoin:round;stroke-miterlimit:2" viewBox="0 0 360 425" xmlns="http://www.w3.org/2000/svg"><path d="M197.4 14.4c9.6 3 18.6 8.1 25.8 14.6 4.5 4 6.8 7.2 10.6 14.8 2.7 5.3 5.1 10.7 5.4 11.9.4 1.6 1.4 2.3 3.1 2.3 5.1 0 9.7 9.8 9.7 20.9 0 7.7-1.1 11.5-4.2 14.8-2.8 3-8.5 3.1-12.2.2-2.5-2-2.6-2.3-2.6-13.7 0-18.9-5.1-33.2-15.6-44.3-12.2-12.7-30.1-17.7-48.2-13.4-8.7 2.1-14.8 5.4-20.9 11.4-12 11.8-18.3 28.9-18.3 49.3 0 11-1.1 12.8-7.6 12.8-3.5 0-4.7-.5-6.8-3-3.4-4.1-4.9-10.2-4.3-17.1.8-9.1 5.8-16.9 10.7-16.9 2.3 0 2.9-.5 3.4-3.3 1.5-7.3 9-20.1 16.1-27.3 14.4-14.6 36.5-20.2 55.9-14m-7.1 17.1c11 2.9 24.7 12.1 31.4 21.2 3.2 4.4 5.6 17.1 5.1 27.4-.3 7.2-.9 9.7-3.5 15-7 14.1-18.3 22.7-34.5 26.3l-2.8.6v10.9c0 9.6.2 10.8 1.8 10.8 5.7.2 28.5-2 33.2-3.2 16.3-4.2 31.1-13.3 45-27.4 5.2-5.3 12-13.3 15.2-17.6 6.2-8.8 17.9-29.9 19.8-35.7 1.3-4.4 4.2-6.8 7.1-6.1 5.2 1.4 4.2 4.8-7.9 27.8-8.4 15.9-15.7 25.9-27.2 37.5-22.4 22.5-49.5 34-80.3 34h-5.4l-.6 18.7c-1.2 33.9-.8 68.5.8 71.3.8 1.4 1.4 4.2 1.5 6.3 0 4.5 8.3 21 30.5 60.7 8.2 14.6 19.2 34.6 24.6 44.5s11.6 20.9 13.8 24.4c3.1 5 3.8 6.8 3 8.3-1 1.9-5.1 3.3-7.2 2.5-.7-.3-6.8-10.5-13.4-22.8s-18.1-33.2-25.3-46.4c-7.3-13.2-17.7-32.5-23-42.8l-9.7-18.9-2.1 2.9c-1.1 1.6-9.4 16.6-18.5 33.3-17.8 33-37.9 69.5-46.7 84.9-3.9 6.8-6.1 9.7-7.6 9.9-2.9.4-5.7-2.5-5-5.2.3-1.2 7.1-13.8 15.2-28.1 8-14.3 20.5-37 27.6-50.5 18.3-34.4 24.6-45.8 28.5-51.3l3.3-4.7v-97.3l-5 .7c-22.1 2.9-35 13.3-60.6 48.6-16.7 23-22.7 32.1-26 39.5-2.1 4.9-2.7 5.5-5.4 5.5-2 0-3.3-.7-4.1-2.1-2.2-4.1 7-19.6 30.1-50.5 22.7-30.4 30.9-38.2 48-45.5 5.5-2.3 19.1-5.9 22.6-5.9.2 0 .4-4.7.4-10.4 0-11.1-.2-11.6-5.3-11.6-5 0-15.1-6.1-22.2-13.4-12.1-12.5-15.5-23.3-12.1-38.1 4.5-19.2 16.9-33.4 32.6-37.3 9.7-2.5 13.1-2.6 20.3-.7m-18.9 9.1c-10.2 3.5-14.5 7.6-20.1 19.2-8.9 18.8-7.9 28.5 4.2 40.8 8.9 9.1 15.3 11.9 27 11.9 8.3 0 9.5-.3 15.4-3.5 4.4-2.4 7.8-5.2 10.8-9 7.3-9.1 8.6-12.3 9.1-23.1l.4-9.5-4.4-8c-2.8-4.9-5.7-8.7-7.7-9.9-1.8-1.1-5.5-3.5-8.4-5.4-5-3.2-13.9-6.2-17.5-6-.9.1-4.9 1.2-8.8 2.5" style="fill:#ebebeb"/></svg>