<?xml version="1.0" encoding="UTF-8" standalone="no"?><!DOCTYPE svg PUBLIC "-//W3C//DTD SVG 1.1//EN" "http://www.w3.org/Graphics/SVG/1.1/DTD/svg11.dtd"><svg width="100%" height="100%" viewBox="0 0 396 372" version="1.1" xmlns="http://www.w3.org/2000/svg" xmlns:xlink="http://www.w3.org/1999/xlink" xml:space="preserve" xmlns:serif="http://www.serif.com/" style="fill-rule:evenodd;clip-rule:evenodd;stroke-linejoin:round;stroke-miterlimit:2;"><path d="M340.3,26.5c0.8,0.8 2.7,6.7 4.2,13.2c3.5,15.6 6.7,27.2 16.5,61.2c7.8,26.8 8.2,28.9 7.7,35.3c-1,11.7 -7.1,21.9 -17.4,28.9l-4.3,3l0,153.9l8.5,0c7.6,0 8.5,0.2 9.6,2.1c1.7,3.3 -0.2,6.5 -4.3,7.2c-1.8,0.3 -75.2,0.6 -163.1,0.7c-144,0.1 -160.1,0 -162.3,-1.5c-2.6,-1.7 -3.2,-5.3 -1.2,-7.3c0.8,-0.8 4.6,-1.2 10.5,-1.2l9.3,0l0,-25.8c0,-14.2 -0.3,-48.8 -0.7,-76.9l-0.6,-51l-4.3,-2.7c-5.9,-3.7 -11.2,-9.8 -14.2,-16.4c-2,-4.5 -2.5,-7.1 -2.5,-14.1c-0.1,-8.8 2.2,-17.7 16.3,-64.1c1.6,-5.2 4.8,-16.9 7.1,-26c2.2,-9.1 4.8,-17.3 5.7,-18.3c1.4,-1.6 9.4,-1.7 139.8,-1.7c120.1,0 138.4,0.2 139.7,1.5Zm-101.8,113.2c1.4,7.7 6.9,14.2 15,17.9c7.7,3.5 13.1,3.9 19.7,1.6c8,-2.8 12.3,-6.4 15.8,-13.5c5.2,-10.4 7,-9.7 -24.1,-9.7l-27.1,0l0.7,3.7Zm-62.3,-84c-2.6,45.6 -3.5,68.3 -2.9,68.9c0.6,0.7 52.5,0.9 53.2,0.2c0.3,-0.3 -1,-32 -3.1,-75.6l-0.7,-14.2l-45.3,0l-1.2,20.7Zm-4.2,81.1c0,0.5 0.7,3.1 1.5,6c2.3,7.5 8.7,13.6 17.2,16.2c8.2,2.5 9.9,2.5 16.9,-0.1c7.2,-2.7 13.1,-8 16,-14.4c4.3,-9.1 6.1,-8.5 -24.6,-8.5c-14.8,0 -27,0.4 -27,0.8Zm61.4,-88.1c0.4,7.6 1.1,19.6 1.6,26.8c0.6,7.1 1.3,21.2 1.7,31.2l0.6,18.3l54.7,0l-0.5,-2.8c-0.3,-1.5 -2.5,-16.9 -5,-34.2c-2.5,-17.3 -5.2,-36 -6,-41.4c-0.8,-5.5 -1.5,-10.3 -1.5,-10.8c0,-0.4 -10.4,-0.8 -23.1,-0.8l-23.2,0l0.7,13.7Zm71.6,90.3c0,6.5 7.1,15.8 14.7,19.2c10.3,4.6 20.1,2.9 28.5,-5c4.2,-3.9 8.8,-12.4 8.8,-16.2c0,-0.6 -10,-1 -26,-1l-26,0l0,3Zm-262,-1.3c0,3 4.5,11.7 7.8,14.9c6.6,6.6 17.7,9.6 26.4,7c10.3,-3 16.9,-10.1 18.5,-20l0.6,-3.6l-26.7,0c-24.7,0 -26.6,0.1 -26.6,1.7Zm246,-102c0,1 13.8,82.9 14.6,86.5l0.6,2.8l25.9,0c14.2,0 25.9,-0.3 25.9,-0.7c0,-0.4 -1.1,-4.3 -2.4,-8.7c-2.5,-8 -15.2,-54.7 -19.6,-71.9l-2.3,-8.7l-21.4,0c-11.7,0 -21.3,0.3 -21.3,0.7Zm-221,3.5c-1.7,6.2 -7.8,28.4 -15.9,57.9c-3.9,14.1 -7.1,26.1 -7.1,26.7c0,0.9 7,1.2 25.9,1.2l25.9,0l0.6,-2.8c1.6,-7.8 14.6,-84.1 14.6,-85.5c0,-1.5 -2.1,-1.7 -21.5,-1.7l-21.4,0l-1.1,4.2Zm167,282.8l66,0l0,-121l-66,0l0,121Zm22.5,-68.5c1.4,1.3 2.5,3.3 2.5,4.5c0,2.6 -4.3,7 -6.7,7c-3.7,0 -6.3,-2.9 -6.3,-7c0,-6.6 5.9,-9.2 10.5,-4.5Zm-29,-95.2c-7,9.2 -22.7,14.9 -35.5,12.7c-8.6,-1.4 -17.8,-6 -22.7,-11.3l-4,-4.3l-6.1,5.7c-9.8,9.3 -21.4,12.4 -35,9.5c-8.3,-1.7 -17.3,-7.1 -20.8,-12.3l-2.1,-3.1l-4.3,4.4c-7.3,7.6 -22.4,13.4 -30.7,11.8l-3.3,-0.6l-0,151.2l161,0l-0,-63.8c-0,-60.6 0.1,-64 1.8,-65.5c1.7,-1.5 5.9,-1.7 40.4,-1.7c36.5,0 38.7,0.1 40.9,1.9l2.4,1.9l0.3,63.6l0.2,63.7l25,-0.6l0.3,-75.3l0.2,-75.4l-4,0.5c-9.6,1.3 -24.9,-4.5 -31.6,-12.1l-3.4,-3.7l-4.5,4.6c-8.7,8.7 -22.3,13.1 -34.2,11c-8.9,-1.5 -17.9,-6.2 -23,-12l-4.3,-4.8l-3,4Zm-35.1,34.3c1.4,1.4 1.6,7.1 1.6,47.5c0,44.6 -0.1,46 -2,47.9c-1.9,1.9 -3.3,2 -50.3,2c-36.2,0 -48.6,-0.3 -49.5,-1.2c-0.9,-0.9 -1.2,-13 -1.2,-48.5c0,-43.9 0.1,-47.3 1.8,-48.2c1.1,-0.7 19,-1.1 49.9,-1.1c42.5,0 48.3,0.2 49.7,1.6Zm-92.4,88.4l42.3,-0.2l42.2,-0.3l0.1,-29c0,-16 -0.2,-33.8 -0.4,-39.8l-0.3,-10.7l-83.9,0l0,80Zm6.4,-141.9c1.9,9.5 8.7,16.9 18.3,19.9c8.2,2.5 10.9,2.5 17.8,-0.1c7.6,-2.8 13.7,-9.1 16.3,-16.9l2.1,-6l-55.1,0l0.6,3.1Zm15.3,-103.4c-0.3,0.5 -0.8,3 -1.1,5.8c-1.5,10.9 -12.2,77.3 -13.1,81.2l-0.5,2.3l27,0c20.9,0 27,-0.3 27,-1.3c0,-2 3.9,-58.1 5,-71.6c0.6,-6.8 1,-13.5 1,-14.7l0,-2.4l-22.4,0c-12.4,0 -22.7,0.3 -22.9,0.7Z" style="fill:#ebebeb;"/></svg>