<?xml version="1.0" encoding="UTF-8" standalone="no"?><!DOCTYPE svg PUBLIC "-//W3C//DTD SVG 1.1//EN" "http://www.w3.org/Graphics/SVG/1.1/DTD/svg11.dtd"><svg width="100%" height="100%" viewBox="0 0 24 24" version="1.1" xmlns="http://www.w3.org/2000/svg" xmlns:xlink="http://www.w3.org/1999/xlink" xml:space="preserve" xmlns:serif="http://www.serif.com/" style="fill-rule:evenodd;clip-rule:evenodd;stroke-linejoin:round;stroke-miterlimit:2;"><g><path d="M15.261,1.001c-1.673,0.003 -3.067,0.01 -3.094,0.017c-0.027,0.007 -1.552,0.017 -3.391,0.024c-3.316,0.013 -3.34,0.013 -3.566,0.088c-0.152,0.047 -0.273,0.118 -0.388,0.223c-0.111,0.098 -0.202,0.223 -0.267,0.361c-0.098,0.213 -0.098,0.213 -0.115,1.343c-0.01,0.624 -0.03,1.154 -0.051,1.181c-0.017,0.027 -0.536,0.816 -1.157,1.754c-0.621,0.938 -1.238,1.869 -1.373,2.075c-0.138,0.202 -0.28,0.452 -0.317,0.547c-0.037,0.098 -0.084,0.277 -0.105,0.395c-0.024,0.142 -0.04,0.786 -0.054,5.745c-0.013,6.677 -0.01,6.096 0.034,6.329c0.027,0.145 0.094,0.341 0.145,0.435c0.051,0.098 0.162,0.243 0.25,0.327c0.084,0.088 0.243,0.202 0.354,0.263c0.108,0.057 0.297,0.138 0.415,0.175c0.179,0.057 0.388,0.081 1.13,0.118c0.503,0.027 1.113,0.057 1.353,0.071c0.243,0.01 0.712,0.034 1.046,0.051c0.334,0.017 0.746,0.04 0.911,0.051c0.169,0.01 0.766,0.04 1.333,0.067c0.567,0.027 1.339,0.067 1.721,0.084c0.381,0.02 0.82,0.04 0.978,0.051c0.159,0.007 0.486,0.024 0.725,0.034c0.243,0.01 0.553,0.027 0.692,0.034c0.138,0.01 0.574,0.034 0.962,0.051c0.391,0.02 1.164,0.057 1.721,0.081c0.607,0.027 1.1,0.034 1.235,0.017c0.125,-0.013 0.351,-0.057 0.506,-0.098c0.155,-0.04 0.435,-0.115 0.621,-0.169c0.186,-0.054 1.012,-0.29 1.839,-0.523c0.827,-0.236 1.677,-0.482 1.889,-0.547c0.213,-0.067 0.462,-0.159 0.553,-0.202c0.091,-0.047 0.246,-0.159 0.341,-0.25c0.098,-0.091 0.223,-0.256 0.283,-0.364c0.057,-0.108 0.128,-0.297 0.155,-0.422c0.047,-0.202 0.051,0.489 0.044,-6.154c-0.013,-7.446 -0.013,-5.388 -0.084,-5.617c-0.037,-0.125 -0.115,-0.304 -0.172,-0.391c-0.054,-0.091 -0.432,-0.611 -0.84,-1.154c-0.408,-0.547 -1.053,-1.41 -1.43,-1.92c-0.381,-0.509 -0.719,-0.968 -0.752,-1.019c-0.054,-0.081 -0.064,-0.219 -0.084,-1.215c-0.024,-1.123 -0.024,-1.123 -0.111,-1.292c-0.051,-0.094 -0.172,-0.25 -0.27,-0.344c-0.125,-0.125 -0.24,-0.199 -0.374,-0.246c-0.189,-0.067 -0.263,-0.067 -3.239,-0.064Zm1.218,0.779c1.373,-0.01 1.633,-0.003 1.737,0.037c0.064,0.03 0.145,0.088 0.172,0.135c0.047,0.071 0.054,0.209 0.047,1.039l-0.01,0.958l-6.585,0.01l-6.589,0.007l0,-0.911c0,-0.614 0.013,-0.935 0.04,-0.992c0.02,-0.047 0.071,-0.108 0.111,-0.135c0.051,-0.034 0.223,-0.054 0.56,-0.067c0.267,-0.01 2.375,-0.027 4.686,-0.04c2.311,-0.01 4.204,-0.024 4.207,-0.027c0.003,0 0.732,-0.007 1.623,-0.013Zm-3.947,2.901c3.084,-0.003 5.607,0 5.607,0.007c0,0.007 -0.111,0.223 -0.246,0.479c-0.138,0.26 -0.347,0.658 -0.469,0.891c-0.121,0.233 -0.31,0.597 -0.422,0.81c-0.111,0.213 -0.368,0.705 -0.567,1.093l-0.364,0.705l-2.466,-0.02c-1.356,-0.013 -4.413,-0.024 -6.791,-0.024c-2.955,0 -4.328,-0.01 -4.328,-0.034c0,-0.02 0.57,-0.894 1.265,-1.94c0.695,-1.049 1.269,-1.91 1.272,-1.913c0.007,-0.003 0.435,-0.017 0.955,-0.027c0.52,-0.01 3.468,-0.02 6.555,-0.027Zm6.393,0.331c0.024,0 0.061,0.034 0.088,0.074c0.027,0.04 0.536,0.732 1.137,1.535c0.601,0.803 1.093,1.471 1.093,1.481c0,0.013 -0.02,0.007 -0.04,-0.013c-0.024,-0.017 -0.439,-0.243 -0.921,-0.503c-0.482,-0.26 -1.042,-0.56 -1.248,-0.668c-0.202,-0.108 -0.486,-0.256 -0.624,-0.331c-0.138,-0.074 -0.26,-0.138 -0.267,-0.145c-0.007,-0.007 0.074,-0.172 0.179,-0.368c0.105,-0.196 0.223,-0.412 0.26,-0.476c0.037,-0.067 0.118,-0.226 0.182,-0.354c0.067,-0.128 0.138,-0.233 0.162,-0.233Zm-1.107,2.159c0.024,0 0.29,0.138 0.594,0.307c0.304,0.169 0.668,0.371 0.806,0.452c0.138,0.078 0.388,0.219 0.55,0.31l0.3,0.169l-0.25,0.024c-0.135,0.01 -0.813,0.061 -1.505,0.108c-0.695,0.047 -1.269,0.081 -1.275,0.071c-0.01,-0.01 0.03,-0.115 0.091,-0.229c0.057,-0.118 0.226,-0.439 0.374,-0.715c0.148,-0.273 0.29,-0.496 0.314,-0.496Zm3.63,1.963c0.196,-0.007 0.27,0.007 0.3,0.044c0.034,0.04 0.044,-0.506 0.04,5.307c0,6.747 -0.003,5.803 -0.054,5.928c-0.034,0.074 -0.098,0.175 -0.145,0.226c-0.051,0.051 -0.142,0.111 -0.209,0.135c-0.067,0.02 -1.117,0.324 -2.331,0.671c-1.215,0.347 -2.223,0.621 -2.237,0.607c-0.017,-0.017 -0.037,-2.129 -0.047,-6.555c-0.013,-5.357 -0.007,-5.995 0.013,-6.009c0.02,-0.013 0.3,-0.044 0.621,-0.074c0.324,-0.027 1.248,-0.094 2.055,-0.152c0.806,-0.054 1.528,-0.105 1.603,-0.111c0.074,-0.007 0.25,-0.013 0.391,-0.017Zm-13.255,0.304c3.272,0.003 6.346,0.017 6.832,0.027c0.486,0.01 0.891,0.024 0.901,0.034c0.007,0.01 0.02,1.572 0.024,5.988c0.007,6.194 -0,6.528 -0.034,6.585c-0.02,0.044 -0.078,0.088 -0.128,0.098c-0.047,0.013 -0.25,0.013 -0.445,0c-0.196,-0.01 -0.972,-0.051 -1.724,-0.088c-0.752,-0.037 -1.859,-0.091 -2.463,-0.118c-0.604,-0.027 -1.309,-0.064 -1.569,-0.084c-0.26,-0.017 -1.012,-0.057 -1.67,-0.084c-0.658,-0.03 -1.721,-0.081 -2.362,-0.118c-0.641,-0.037 -1.481,-0.081 -1.872,-0.101c-0.388,-0.02 -0.783,-0.057 -0.877,-0.084c-0.091,-0.027 -0.219,-0.084 -0.283,-0.132c-0.061,-0.047 -0.145,-0.135 -0.189,-0.196c-0.04,-0.061 -0.091,-0.162 -0.111,-0.226c-0.03,-0.084 -0.04,-0.459 -0.04,-5.995c0,-4.781 0.01,-5.371 0.034,-5.428c0.034,-0.088 0.034,-0.088 5.978,-0.078Z" style="fill-rule:nonzero;"/><g><path d="M5.592,14.627c-0.229,0 -0.331,0.02 -0.489,0.084c-0.111,0.044 -0.253,0.125 -0.321,0.179c-0.067,0.054 -0.179,0.172 -0.25,0.263c-0.067,0.091 -0.159,0.25 -0.199,0.351c-0.061,0.152 -0.074,0.256 -0.074,0.574c-0.003,0.354 0.003,0.405 0.088,0.584c0.051,0.108 0.179,0.283 0.283,0.395c0.115,0.121 0.267,0.236 0.378,0.29c0.128,0.061 0.263,0.094 0.445,0.105c0.186,0.013 0.31,0.003 0.455,-0.04c0.111,-0.03 0.256,-0.088 0.321,-0.128c0.064,-0.04 0.192,-0.142 0.283,-0.226c0.088,-0.081 0.206,-0.236 0.26,-0.344c0.054,-0.105 0.115,-0.3 0.135,-0.435c0.027,-0.182 0.027,-0.294 -0.003,-0.449c-0.02,-0.115 -0.084,-0.3 -0.138,-0.412c-0.054,-0.115 -0.165,-0.287 -0.253,-0.378c-0.098,-0.111 -0.236,-0.216 -0.391,-0.294c-0.219,-0.108 -0.263,-0.118 -0.53,-0.118Zm0.331,0.708c0.067,0 0.155,0.024 0.196,0.051c0.044,0.03 0.094,0.111 0.115,0.186c0.03,0.105 0.03,0.155 -0.003,0.236c-0.024,0.057 -0.084,0.125 -0.138,0.152c-0.051,0.027 -0.125,0.051 -0.165,0.051c-0.04,0 -0.115,-0.024 -0.165,-0.051c-0.054,-0.027 -0.115,-0.094 -0.135,-0.159c-0.02,-0.057 -0.027,-0.159 -0.017,-0.219c0.01,-0.061 0.061,-0.142 0.105,-0.179c0.051,-0.04 0.138,-0.067 0.209,-0.067Z" style="fill-rule:nonzero;"/><path d="M12.39,14.631c-0.094,0 -0.233,0.02 -0.307,0.044c-0.074,0.024 -0.202,0.078 -0.283,0.118c-0.081,0.044 -0.223,0.155 -0.314,0.246c-0.091,0.091 -0.192,0.226 -0.226,0.294c-0.037,0.067 -0.091,0.213 -0.121,0.321c-0.04,0.142 -0.054,0.28 -0.044,0.503c0.01,0.216 0.037,0.371 0.091,0.513c0.061,0.155 0.135,0.26 0.321,0.442c0.182,0.179 0.29,0.26 0.442,0.317c0.148,0.057 0.27,0.078 0.455,0.078c0.175,0 0.307,-0.02 0.428,-0.067c0.098,-0.04 0.253,-0.125 0.344,-0.192c0.094,-0.071 0.223,-0.199 0.294,-0.294c0.067,-0.091 0.152,-0.246 0.192,-0.344c0.047,-0.125 0.067,-0.256 0.071,-0.462c0,-0.196 -0.02,-0.347 -0.061,-0.472c-0.034,-0.101 -0.094,-0.246 -0.128,-0.317c-0.037,-0.071 -0.138,-0.206 -0.223,-0.3c-0.088,-0.091 -0.213,-0.202 -0.28,-0.246c-0.067,-0.04 -0.202,-0.098 -0.3,-0.128c-0.101,-0.03 -0.256,-0.054 -0.351,-0.051Zm0.341,0.773c0.084,0 0.179,0.013 0.213,0.034c0.034,0.017 0.081,0.088 0.101,0.152c0.02,0.064 0.03,0.162 0.017,0.219c-0.013,0.054 -0.061,0.132 -0.108,0.169c-0.047,0.037 -0.128,0.067 -0.182,0.067c-0.051,0 -0.132,-0.017 -0.175,-0.037c-0.047,-0.02 -0.101,-0.074 -0.121,-0.121c-0.02,-0.044 -0.037,-0.135 -0.037,-0.202c0,-0.081 0.027,-0.152 0.074,-0.202c0.054,-0.057 0.108,-0.078 0.219,-0.078Z" style="fill-rule:nonzero;"/><path d="M8.085,16.415c-0.088,0 -0.145,0.024 -0.206,0.088c-0.067,0.074 -0.081,0.118 -0.081,0.31c0,0.172 0.02,0.267 0.084,0.395c0.044,0.091 0.152,0.236 0.236,0.321c0.084,0.084 0.223,0.189 0.31,0.233c0.088,0.04 0.267,0.091 0.398,0.111c0.196,0.03 0.28,0.027 0.459,-0.017c0.121,-0.03 0.273,-0.081 0.341,-0.111c0.064,-0.034 0.209,-0.142 0.317,-0.24c0.108,-0.101 0.226,-0.246 0.263,-0.327c0.047,-0.098 0.071,-0.209 0.071,-0.351c0,-0.165 -0.013,-0.223 -0.074,-0.29c-0.044,-0.051 -0.125,-0.098 -0.182,-0.108c-0.084,-0.017 -0.128,0 -0.216,0.078c-0.064,0.057 -0.142,0.179 -0.186,0.3c-0.057,0.155 -0.105,0.223 -0.216,0.3c-0.111,0.078 -0.186,0.101 -0.358,0.111c-0.186,0.013 -0.236,0.003 -0.361,-0.071c-0.081,-0.047 -0.172,-0.135 -0.202,-0.199c-0.034,-0.061 -0.084,-0.179 -0.111,-0.263c-0.03,-0.081 -0.078,-0.175 -0.108,-0.209c-0.034,-0.037 -0.101,-0.061 -0.179,-0.061Z" style="fill-rule:nonzero;"/></g></g></svg>