<svg xml:space="preserve" fill="#ebebeb" style="fill-rule:evenodd;clip-rule:evenodd;stroke-linejoin:round;stroke-miterlimit:2" viewBox="0 0 469 386" xmlns="http://www.w3.org/2000/svg"><path d="M213.8 49c4 .5 9.3 1.8 11.6 2.9l4.3 1.9 7.4-2.7 7.4-2.6h49c54.9 0 54.6 0 62.7 7.3 8.8 7.9 10.9 16.6 10.8 42.7-.2 15.4.1 18.9 1.2 18.6 11.1-3.1 12.8-3.3 22.3-2.8 12.5.7 18.6 2.8 24.1 8.2 7.1 7.1 6.9 5.3 6.9 69 0 52.5-.1 57.4-1.8 62.5-3.5 10.6-9.3 15.9-19.3 18-3 .6-5.4 1.7-5.5 2.3 0 .7 0 8 .1 16.2.2 16.6-.6 19.7-5.1 22.1-6.9 3.5-15.3.5-19.6-7.1-2.6-4.6-7.8-18.6-9.7-25.9l-1.3-4.9-128.4.1-128.4.2-.7 2.3c-.4 1.2-2.6 7.8-4.8 14.7-6.5 19.8-10 23.6-21.6 22.8-4.4-.3-7.2-1-9.1-2.5-3.2-2.3-3.1-1.6-1.8-23.9l.8-14-6.8-1.7c-8.7-2.2-13.1-5.5-16.4-12.6l-2.6-5.6-.3-57.4c-.2-38.7.1-59.2.8-62.7 2.9-13.8 13.3-19.8 34.5-19.9 10.8 0 11.9.2 19.7 4.3.5.2.5-3.6.2-8.5-.3-4.8-.1-16 .4-24.8.8-14.2 1.2-16.6 3.4-21 3.9-7.6 9.6-12.1 18.4-14.9 4-1.2 12.5-1.5 47.4-1.5 23.4 0 45.8.4 49.8.9M75.3 274.7c-1 .3-1.3 4.3-1.3 14.9v14.5l3.8-.3c3.5-.3 3.9-.6 7.4-7.8 2-4.1 4.4-10 5.2-13s1.7-6.3 2.1-7.3c.6-1.5-.1-1.7-7.6-1.6-4.6 0-9 .3-9.6.6m294.4.1c-1.5 2.3 8.2 25.3 11.7 27.7 4.3 3.1 4.6 2.3 4.6-11.3 0-17.9.3-17.2-8.6-17.2-4 0-7.5.3-7.7.8M118.5 59.6c-11.7 4.3-14.4 13-14.5 45.9 0 15.4.3 18.9 2.1 24.5 1.7 5.4 2.1 9.5 2.2 24.2.1 9.8.3 17.8.5 17.8.1 0 1.4-.7 2.7-1.6 6.7-4.3 10.7-4.7 63-5.3l50-.6.3-47.8c.2-52.9.2-53-6-56.4-3-1.7-7-1.8-49.8-2-38.9-.2-47.2 0-50.5 1.3M65.7 124c-10.5 1.9-15.2 7.1-16.2 18.3-.4 3.9-.5 30.4-.3 58.7.3 49.6.4 51.6 2.3 55 1.2 2.1 3.9 4.4 6.5 5.8l4.5 2.2 166.5-.2c180.1-.4 171.4-.1 177.1-5.7 5.2-5.3 5.4-7 5.4-67.1 0-62.7.3-59.9-7.8-64.2-3.7-2-5.6-2.3-16.7-2.3-10.9 0-13 .3-16.5 2.1-8.5 4.6-7.9 1.8-8.5 45.3-.6 42.6-.9 44.3-7.1 49.6-6.1 5-2.7 4.9-125.4 5.3-104.4.2-115.4.1-119.3-1.3-4-1.6-7.8-5.4-9.8-10-.5-1.1-1.1-19.6-1.4-41.1l-.5-39.1-2.7-3.5c-1.5-2-4.7-4.6-7.2-5.7-5.1-2.5-15.5-3.5-22.9-2.1m178.9-64.2c-2.9 1-5.8 2.9-7 4.5-2.1 2.8-2.1 4-2.4 51.7l-.3 48.9 48.8.3c46.5.4 49.1.5 55.1 2.5 3.4 1.2 7.8 3.3 9.7 4.8l3.5 2.6v-19.6c0-18.3.2-20.2 2.5-27.1s2.5-8.8 2.5-26.9c0-10.7-.5-21.8-1.1-24.7-1.6-7.5-5.2-13.3-10.3-16.3l-4.3-2.5h-45.9c-40.6.1-46.5.3-50.8 1.8M121.5 176.9c-12.8 3.7-13.9 5.6-13.2 22.3.5 13.6 1.7 15.9 8.9 17.9 4 1 173.4 1 210.5-.1l18.3-.5 2.7-2.8c2.7-2.7 2.8-3 2.8-14 0-12.8-.8-14.9-7.3-19.2-8.4-5.5-8-5.5-116.7-5.4-91.9 0-100.5.2-106 1.8" style="fill:#ebebeb"/></svg>