<svg xml:space="preserve" fill="#ebebeb" style="fill-rule:evenodd;clip-rule:evenodd;stroke-linejoin:round;stroke-miterlimit:2" viewBox="0 0 819 363" xmlns="http://www.w3.org/2000/svg"><path d="M283.5 48.3c1.3 1.5 2.7 4.3 3.1 6.2l.6 3.5h122.7c67.4 0 123.1-.4 123.8-.8.6-.4 1.6-1.9 2.2-3.4.5-1.4 2.7-3.9 4.7-5.5l3.7-2.8h64.5l2.5 2.3c1.3 1.3 3.2 4.1 4.2 6.3l1.8 3.9h51.2c56 0 55.5 0 67.8 6.2 7.5 3.8 13.7 9.5 18.5 17.2 7.2 11.3 7.2 11.3 7.2 83.3v64.1l3.5.6c6.4 1.2 7.5 4.1 7.5 18.6 0 14.2-.3 14.9-6.8 15.9l-3.7.6-.6 7c-.9 9.2-2.9 13.9-7.1 16.2-3 1.6-5.8 1.8-28.5 1.6l-25.3-.2v3.2c0 5.3-5.2 14.8-10.9 19.9-9.9 8.9-24.6 11.6-34.7 6.2-11.1-5.9-17.7-14.2-19-23.7l-.7-4.7H597v3.3c0 5.6-5.4 15.1-10.8 19-9.2 6.7-13 8.1-21.7 8.2-6.7 0-8.9-.4-13.5-2.7-10-5-17.1-13.4-19-22.3l-1.1-5.5-119.7.2-119.6.3-.8 4.4c-1.7 10.1-8 17.8-19 23.3-10.6 5.3-25.7 3.1-35.1-5.2-4.8-4.3-10.7-14.8-10.7-19.2 0-1.6-.6-3-1.2-3.3-.7-.2-9.5-.6-19.5-1l-18.1-.6-.7 4.3c-1.8 11-9.2 20.4-20 25.4-17.7 8.4-41.3-4.6-45-24.9l-.7-3.7H97.6c-31.9-.1-33.3-.8-35.9-18.8-1-6.8-1.2-7.2-3.7-7.2-1.4 0-3.5-.6-4.6-1.4-1.7-1.3-1.9-2.9-2.2-15.4l-.3-14.1 2.6-1.7c1.5-1 3.7-1.8 4.8-1.9l2.2-.2.5-66.9c.6-73.8.2-69.4 7.1-81 4.6-7.7 11.6-13.6 21.7-18.7l8.5-4.2 52.4-.3 52.3-.3 1.4-3.3c.7-1.8 3.1-4.7 5.2-6.5l3.9-3.2 33.8.3 33.9.3zm221.4 62.1c-.8 1.7-.9 22.3-.3 72.7l.9 70.4 15.5.3c8.5.2 19.7 0 24.8-.3l9.2-.7V108h-49zM58.5 245.7c1 9.7 2.5 10.3 2.5 1 0-6.4-.3-7.7-1.6-7.7-1.4 0-1.5.9-.9 6.7m703.5.5c0 5.7.3 7.8 1 6.8 1.3-2 1.3-15 0-15-.6 0-1 3.4-1 8.2m-53.6-135.8c-.9 2.2.1 64.9 1 66.8.7 1.6 2.8 1.8 21.2 1.8H751v-70h-21c-17.3 0-21.2.3-21.6 1.4M73.2 271.2l.3 7.3 337.9.3c269.7.2 338.1 0 338.8-1 .4-.7.8-4.1.8-7.6V264H72.9zM236 290.6c.1 6.3 8.7 16.4 15.7 18.3 12.6 3.5 25.8-3.5 29.2-15.7l1-3.2h-18.3c-10.1 0-20.4-.3-23-.6-4.1-.6-4.6-.5-4.6 1.2M131.5 292c1.9 7.5 6.4 12.7 14 16.1 10.8 4.9 23.9-.2 29.1-11.5 1.3-2.8 2.4-5.6 2.4-6.1 0-.6-8.3-1-23-1h-23.1zM71 179h18.8c15.4 0 19.2-.3 21-1.6 2.2-1.5 2.2-1.5 2.2-34.5V110l-2.6-1c-1.4-.6-10.8-1-21-1H71zm470 111.5c0 .5 1.1 3.3 2.4 6 4 8.6 11.5 13.5 20.6 13.5 10.6 0 19.1-6.7 22.4-17.7l.7-2.2-23-.3c-14.9-.2-23.1.1-23.1.7m5.1-233.6c-.8 1.5-.7 2 .5 2.5.9.3 14.6.6 30.4.6 29.4 0 32.9-.4 28.5-3.7-1.5-1-8-1.3-30.2-1.3-26.7 0-28.3.1-29.2 1.9M564 180.3c0 39.8.2 72.6.4 72.8s11.5.3 25 .1l24.6-.3v-29.2c0-53.2-1.3-111.7-2.4-113.1-.8-1-6.6-1.5-24.3-2L564 108zm-353.9-70.9c-.8 1-1 19.8-.5 73l.7 71.6 24.1-.2 24.1-.3.3-31.5c.2-17.3 0-50.1-.4-72.8l-.6-41.2h-23.3c-18.5 0-23.5.3-24.4 1.4m58.7-.8c-.2.1-.2 32.7 0 72.3l.2 72.1h48v-71c0-66.5-.1-71-1.7-71.8s-45.8-2.3-46.5-1.6M96.6 71.7C89.9 74 87.7 75.3 83 80c-5.8 5.8-9 11.2-9.3 15.8l-.2 2.7 21.1.5c30.3.7 28.4-2.3 29 43.9l.5 33.6-2.3 3.9c-4.7 8-5.2 8.1-28.8 7.8l-21-.3V254l63.8-.2 63.7-.3V181c0-67.4.1-72.7 1.8-75.7 3.5-6.6 2.3-6.4 60.5-6.5 48.3-.1 53.1 0 57 1.7 2.3.9 5.2 3.1 6.5 4.9l2.2 3.1-.1 72.7-.1 72.8h167.9l-.3-73.9-.4-74 2.9-3c5.2-5.4 5.5-5.5 63-4.8 59 .7 55.2.2 60.4 7.7 2.1 3.2 2.2 4.2 2.2 23.9 0 11.3.3 43.9.7 72.4l.6 51.7 57.6-.1c31.7-.1 60.2-.4 63.4-.6l5.7-.5v-64.7l-21.7-.3c-23.9-.3-25.7-.7-28.8-6.9-2.1-3.9-3.4-68.6-1.6-74.2 2.4-7.2 4.5-7.7 29.4-7.7 24.8 0 23.6.6 19.2-8.9-4.6-9.9-10.2-14.8-21.4-18.7l-6.6-2.4-307.5.1H104.5zm74.5 32.3c2.2 2.3 4.1 5.4 4.4 7.4.4 1.9.5 18 .3 35.8-.3 28.4-.5 32.7-2.1 35.5-3.1 5.9-5.1 6.5-17.9 5.7-13.2-.8-17-2-19.8-6.6-1.9-3.1-2-5-2-36.6 0-36.5.2-37.6 5.9-42.5 3.1-2.6 3.7-2.7 15.3-2.7h12.1zm-25.2 6.7c-1.1 1.3-1.4 8.1-1.4 34.7v33.1l10.1.3c9.8.3 10.2.2 10.8-2 .3-1.3.6-16.5.6-33.9 0-23.2-.3-31.8-1.2-32.7-.7-.7-4.4-1.2-9.4-1.2-6.4 0-8.5.4-9.5 1.7m535.7-8.1c1.5 1.1 3.7 3.8 4.8 5.9 1.9 3.8 2 5.6 1.9 35.2-.1 29.9-.2 31.5-2.3 35.8-3.5 7.2-7.5 9-19.5 9-11.1-.1-13.1-.8-17.1-6-2.3-3.1-2.7-4.9-3.5-14.3-.4-5.9-.8-21.2-.8-34-.1-25.4.3-28 5.5-32.1 2.7-2.1 3.7-2.2 15.6-1.9 10.9.3 13 .6 15.4 2.4m-26.2 8.7c-.2.7-.4 15.4-.2 32.5.3 26.3.5 31.4 1.8 32.7 1 .9 4.4 1.7 9.1 2.1 6.9.6 7.8.5 9.8-1.5 2.1-2.1 2.1-2.5 1.9-34.4l-.3-32.2-10.8-.3c-8.3-.2-10.9 0-11.3 1.1m-191.2-9.2c5.6 4 5.8 5.7 5.8 41.1 0 35.5-.3 37.1-6.4 42.8l-2.8 2.5h-50.3c-49.4 0-50.4 0-53.2-2.1-6.2-4.6-6.4-5.4-6.1-42.6.3-32.4.4-33.8 2.4-36.5 1.1-1.5 3.6-3.8 5.4-5.1l3.3-2.2h49.4c49 0 49.5 0 52.5 2.1m-102.1 9.3c-1.1 1.4-1.3 7.4-.9 32.5.4 20.2 1 31.6 1.7 33 1.1 2 1.8 2.1 22.1 2.1h21v-68h-16.9c-9.2 0-18.8-.3-21.2-.6-3.5-.5-4.8-.2-5.8 1m54.3-1.1c-.2.7-.3 16.3-.2 34.7l.3 33.5 20.5.3c18.4.2 20.6.1 21.7-1.5 1.9-2.4 1.9-66.2.1-66.7-.7-.3-10.4-.7-21.6-1-15.5-.4-20.4-.2-20.8.7M213.7 56.8c-1 1-1.4 2.2-1 2.5 1.1 1.2 64.1.8 64.8-.3.4-.6.1-1.7-.5-2.5-1-1.3-6.2-1.5-31.5-1.5-28 0-30.3.1-31.8 1.8M646 291.2c.1 7.5 7.7 15.9 16.3 17.8 11.5 2.6 21.5-1.7 26.2-11.4 1.5-3 2.5-6 2.3-6.5-.2-.7-8.9-1.3-22.5-1.7l-22.3-.6z" style="fill:#ebebeb"/></svg>