<svg xml:space="preserve" fill="#ebebeb" style="fill-rule:evenodd;clip-rule:evenodd;stroke-linejoin:round;stroke-miterlimit:2" viewBox="0 0 467 391" xmlns="http://www.w3.org/2000/svg"><path d="M199.6 42.9c14.7 5.2 24.3 7.1 36.1 7.1 11.6 0 20-1.7 34.5-6.7l10.7-3.7 7.8 1.3c4.2.7 10.6 2.1 14.2 3.1s15.1 4.1 25.4 6.9c10.4 2.8 20.7 5.9 23 6.9 3.1 1.4 11.5 9.5 31.4 30.3 39 40.7 42.8 45.7 40.9 53.3-.7 3-40 48.3-44.5 51.3-1.9 1.3-4.6 2.3-6.2 2.3-3.1 0-9.3-4.3-18.1-12.6-3.1-3-6.2-5.4-6.9-5.4-.9 0-1.1 20.1-.8 88.5l.4 88.4-4.6 4.6H126l-2.5-2.6-2.6-2.6.1-86.6c0-59.7-.3-86.7-1-87.2-.6-.4-5.5 2.7-11 6.9-10.3 7.8-13.3 9.2-17.4 8.2-2.3-.6-21.1-20.9-39-42.4-7.9-9.5-8.6-10.6-8.6-14.6 0-5.4.8-6.4 23.9-30.6 16.4-17.2 21.8-23 35.4-38.2 8.2-9.1 13-11.8 26.7-15.3 5.8-1.4 16.6-4.4 24-6.7 17.8-5.3 26.7-7.6 31-7.7 1.9 0 8.5 1.7 14.6 3.8M164 54.1c-5.2 1.5-17.3 5-26.9 7.6l-17.5 4.7-6.5 7.1c-3.6 3.8-12.7 13.3-20.1 21-7.5 7.7-19.6 20.4-26.9 28.3L52.8 137l3.9 5.3c4.3 5.6 34 39.4 36.5 41.4 1.8 1.5 5.1-.6 20-12.9 11.4-9.3 14.7-10.6 16.8-6.7.8 1.5 1.1 27.5.8 92.9-.1 50 .1 91.2.5 91.7.5.4 47.1.8 103.5.8h102.7l-.8-186.2 2.7-1.8c3.7-2.4 4.8-1.8 19.1 11.4 7.6 7 12.8 11.1 14.2 11.1s5.1-3.3 11.5-10.3c17.4-19.2 29.8-34 29.8-35.5 0-.8-3-4.8-6.7-8.9-3.8-4.1-9-10-11.7-13.1-11.1-12.9-41.9-45.2-45.4-47.5-3.5-2.4-14.1-5.7-44.4-13.6-6.4-1.7-12.3-3.1-13.1-3.1s-3.1 3.5-5.2 7.7c-5.3 10.8-17.9 23.5-28.5 28.6-9.6 4.7-17.6 6.7-26.5 6.7-21.9 0-41-12.5-52-34.3-2.8-5.3-5.4-9.6-6-9.6-.5.1-5.3 1.4-10.5 3m22-3.8c0 2.3 9 17.1 12.8 21 8.9 9.1 20.2 13.8 33.7 13.8 14.4.1 27.9-6.1 38-17.4 4.5-4.9 11.1-16.4 10.1-17.4-.2-.3-5.2 1.1-11.1 3.1-26.6 9-44.1 8.6-74.4-1.8-8.6-3-9.1-3.1-9.1-1.3" style="fill:#ebebeb"/></svg>