<?xml version="1.0" encoding="UTF-8" standalone="no"?><!DOCTYPE svg PUBLIC "-//W3C//DTD SVG 1.1//EN" "http://www.w3.org/Graphics/SVG/1.1/DTD/svg11.dtd"><svg width="100%" height="100%" viewBox="0 0 288 435" version="1.1" xmlns="http://www.w3.org/2000/svg" xmlns:xlink="http://www.w3.org/1999/xlink" xml:space="preserve" xmlns:serif="http://www.serif.com/" style="fill-rule:evenodd;clip-rule:evenodd;stroke-linejoin:round;stroke-miterlimit:2;"><path d="M206.6,31.5c1.9,0.8 6,3.9 9.2,6.8c3.1,3 7.6,6.4 9.8,7.5c7.6,3.9 13.4,12.6 13.4,20.3c-0,2.9 -4.2,9.3 -10.6,15.9c-2.3,2.5 -5.7,7.2 -7.4,10.5l-3.2,6l0.7,134.5c0.6,123 0.6,135 -0.9,140.1c-2,6.8 -6.5,13.8 -11.4,17.9c-7.3,6 -7.3,6 -67.1,6l-54.6,0l-5,-2.4c-8.4,-3.9 -15.8,-13.3 -19.2,-24.1c-1.7,-5.7 -1.8,-12.1 -1.4,-138.1c0.4,-152.7 1.2,-139.5 -9.3,-150.4c-8.3,-8.6 -9.6,-10.7 -9.6,-15.5c0.1,-7.9 5.7,-15.7 14.8,-20.4c2,-1.1 6,-4.3 8.7,-7.1c6.1,-6.3 9.2,-8 14.5,-8c7.7,0 8.1,0.3 26.3,25.1c13,17.8 18.1,20.5 36.1,19.6c22,-1 26.1,-4 43.9,-31.9c5.8,-9 8.5,-11.5 14,-12.8c4.6,-1.1 4.4,-1.1 8.3,0.5Zm-10.9,9.5c-1.4,1.6 -5.8,8.2 -9.8,14.6c-14.2,22.7 -22.8,27.5 -49.4,27.8c-10.5,0.1 -12.6,-0.2 -16.8,-2.1c-8.2,-3.8 -13.9,-9.5 -26.1,-26.3c-11.2,-15.2 -12,-16 -15.2,-16c-2.5,0 -4.5,1 -7.4,3.6c-2.2,2 -4,4.4 -4,5.3c-0,1.5 8.2,12.1 21.6,27.9c3.8,4.6 4.1,7.5 0.7,8c-3,0.4 -8,-4.3 -19.5,-18.5c-5.4,-6.8 -10.6,-12.3 -11.5,-12.3c-0.8,0 -3.5,2 -5.9,4.4c-3.6,3.6 -4.4,5 -4.4,8.1c-0,3.3 0.9,4.6 7,11c12.1,12.5 11,-3.4 11,150.8c-0,143.7 -0.1,139.7 5.3,149c3.1,5.2 8.7,10.4 13.3,12.3c5.2,2.2 104.4,2 110.5,-0.1c6,-2.1 11.5,-7.8 13.9,-14.3c2,-5.2 2,-7.8 2,-91c0,-47.1 0,-108.7 -0.2,-136.7l-0.2,-51l3.4,-6.5c1.9,-3.5 6.5,-9.7 10.3,-13.7c5,-5.5 6.7,-8 6.7,-10.1c-0,-3.5 -4.6,-10.1 -8.5,-12.2c-2.7,-1.4 -2.8,-1.4 -5.7,2c-1.6,1.9 -7.2,9.7 -12.4,17.2c-5.3,7.5 -10.2,13.9 -11,14.2c-2.4,0.9 -4.4,-0.5 -4.4,-3.1c-0,-2.4 6.2,-12.1 18.2,-28.4c2.6,-3.7 4.8,-7.3 4.8,-8.2c-0,-0.8 -1.8,-3.1 -4,-5.1c-5.1,-4.6 -8.8,-4.8 -12.3,-0.6Zm-13.7,196.7c15.4,8.1 10.4,29 -7.7,31.9c-8.7,1.4 -16.5,-3.4 -19.8,-12c-2.5,-6.4 -1.4,-10.8 4,-16.1c7,-7 14.9,-8.3 23.5,-3.8Zm-14.8,6c-6,3 -8,10.1 -3.9,14.8c2.8,3.3 8,4.5 13.2,3.1c3.2,-0.9 4.4,-1.9 5.9,-5c1.7,-3.6 1.8,-4 0.2,-7.2c-1.7,-3.7 -6.8,-7.4 -10.1,-7.4c-1.1,0 -3.5,0.8 -5.3,1.7Zm-50.7,-7.6c4.9,1.3 6.8,3 9.5,8.1c2.9,5.6 2.7,13.2 -0.5,17.4c-4.4,5.8 -8.7,7.7 -16.4,7.2c-5.6,-0.3 -7.5,-0.9 -10.5,-3.2c-5.8,-4.4 -7.8,-8.2 -7.3,-13.9c0.5,-5.8 4.4,-11.1 10.7,-14.4c4.8,-2.5 8.5,-2.8 14.5,-1.2Zm-13.6,9.8c-5,5 -5.3,8.9 -0.9,13.3c2.9,2.8 3.5,3 8.7,2.6c4.6,-0.4 6.1,-1 8,-3.2c3.5,-4.1 3.1,-9 -1.1,-13.2c-4.9,-4.9 -9.5,-4.8 -14.7,0.5Zm53.4,41.5c12.7,6.3 20,16.4 22.1,30.4c2.2,15.2 -4.6,29 -18.7,38.3c-8.1,5.3 -18.7,7.7 -26.5,6.1c-13.1,-2.8 -23.9,-11.1 -29.3,-22.7c-2.5,-5.2 -3.2,-8.2 -3.6,-16c-0.6,-9.4 -0.6,-9.6 3,-16.8c3.9,-7.9 8.4,-13.1 14.7,-17.3c6.1,-4 12.2,-5.4 23,-5.1c8.1,0.2 10.4,0.7 15.3,3.1Zm-26.3,4.5c-8.7,2.7 -15.7,8.9 -20.1,17.6c-3.5,7.1 -3.4,18.7 0.2,26.5c3.6,7.7 6.8,11.1 14.1,15.1c5.9,3.2 6.9,3.4 15.3,3.4c7.4,-0.1 9.8,-0.5 13.4,-2.4c5.7,-3 13.3,-10.8 16,-16.4c2.7,-5.5 2.9,-17.1 0.4,-24.3c-2.3,-6.8 -11.2,-15.5 -18.8,-18.3c-5.7,-2.1 -15.5,-2.7 -20.5,-1.2Zm16.3,15.7c11.3,3.9 12.7,20 2.3,27.9c-3.3,2.5 -4.2,2.7 -9.2,2.2c-11.5,-1.2 -16.7,-6 -16.7,-15.5c-0,-7.2 2.6,-11.5 8.7,-14.3c5.1,-2.3 8.9,-2.4 14.9,-0.3Zm-12.5,9.4c-9,7 -2.9,17.5 8.2,14.1c9.9,-2.9 8.3,-16.1 -1.9,-16.1c-2.3,0 -4.8,0.8 -6.3,2Zm22.6,-198.7c-1,2.6 -2.2,2 -1.6,-0.9c0.3,-1.5 0.8,-2.2 1.4,-1.6c0.5,0.5 0.6,1.6 0.2,2.5Zm-3.7,-5.8c2.3,0.5 2.3,1.5 -0,6.4c-1.1,2.3 -1.3,2.3 -14.7,1.9c-7.4,-0.3 -14.3,-0.8 -15.2,-1.2c-2.3,-1 -3.2,-4.1 -1.8,-6.3c1.1,-1.6 2.6,-1.8 15.3,-1.5c7.8,0.1 15.2,0.5 16.4,0.7Zm39.9,29.1c1.5,1.1 3.7,3.3 4.8,4.8c2,2.6 2.1,4.3 2.4,30.6c0.3,26.3 0.2,28.1 -1.7,31.8c-3.7,7.4 -2.5,7.2 -59.3,7.2c-54.1,0 -53.2,0.1 -57.2,-5.3c-2,-2.7 -2.1,-4 -2.1,-32.7c-0,-28.5 0.1,-30 2,-32.6c1.1,-1.5 3.6,-3.5 5.5,-4.6c3.3,-1.7 6.2,-1.8 53.2,-1.6c48.4,0.3 49.7,0.4 52.4,2.4Zm-104,7c-1.4,1.3 -1.6,5.4 -1.6,29.3c-0,25.7 0.1,27.9 1.8,29.4c1.7,1.5 6.7,1.7 51,1.7l49.1,-0l1.5,-2.2c1.4,-1.9 1.6,-6.3 1.6,-28.4c-0,-24.9 -0.1,-26.3 -2.1,-28.8l-2,-2.6l-48.9,-0c-43.1,-0 -49,0.2 -50.4,1.6Z" style="fill:#ebebeb;"/></svg>