<svg xml:space="preserve" fill="#ebebeb" style="fill-rule:evenodd;clip-rule:evenodd;stroke-linejoin:round;stroke-miterlimit:2" viewBox="0 0 386 394" xmlns="http://www.w3.org/2000/svg"><path d="M231.6 31.5c10.8 3.2 20.3 12.2 24.4 23.2 4 10.5 4.4 16.5 2.6 32.7-2 17.4-5.1 30.1-11.2 45.3-2.4 6.1-4.4 11.4-4.4 11.7s16.8.6 37.3.6c48.3.1 54.5 1.1 64.6 10.5 6.9 6.4 9.5 12.8 9.6 23 0 6.8-.4 8.9-2.8 13.7-1.5 3.1-4.6 7.3-6.8 9.3l-4.1 3.6 4.5 4.8c13.7 14.6 8.6 37.8-10.4 46.6l-4.9 2.2 2.1 1.9c7.1 6.4 9.9 19.9 6.4 30.5-2.4 7.1-10 14.8-17.5 17.7-3 1.1-5.4 2.4-5.3 2.9.2.4 1.2 3.3 2.3 6.3 6.7 18.7-3.9 35.9-24.5 40-4.3.8-21.5 1-62 .7-59.2-.5-60.2-.5-74.5-5.5-3-1.1-11-4.7-17.8-8.1-12.6-6.3-21-9.1-27.2-9.1-3.1.1-3.7.5-5.5 4.3-1.2 2.5-3.4 5-5.5 6.2-3.3 1.9-5.2 2-32.5 2-31.8 0-33-.2-37.3-6.2-4.1-5.7-4.2-8.2-4.2-83.3v-72.6l2.3-4.4c4-7.8 4.9-8 38.4-8 18.1 0 30.2.4 32 1.1 1.5.5 4.2 2.4 6 4.1 2.8 2.7 3.5 2.9 7.5 2.3 10-1.6 14.6-3.7 17.4-7.9 1.5-2.3 8-10.9 14.4-19.1 24.7-31.8 41.6-56.1 47-67.6 2-4.4 3.4-9.9 4.5-17.4 2.9-19.5 6.4-29.5 12.2-35 4.9-4.5 13.9-5.7 22.9-3M40.3 185.2c-1.9.9-2.2 2.1-2.8 11.2-.4 5.5-.5 38.8-.3 73.9l.3 63.9 2.8 2.4c2.8 2.4 2.8 2.4 27.7 2.4h24.8l6.2-5.2v-73.1l-.1-73.2-3.8-1.8c-3.3-1.5-6.9-1.7-28.2-1.6-14.8 0-25.3.4-26.6 1.1M215.2 41.7c-2.7 2.5-5.9 11.3-7.7 21.8-3.1 17.6-4.5 22.1-10 33-5.8 11.5-16.1 26.8-35.1 52-31.6 41.9-28 37.7-35.9 40.4-3.7 1.2-9.4 2.4-12.6 2.8l-5.9.6.2 66.6.3 66.6 4.7.7c7.2 1 14 3.4 28.8 10.3 26.1 12.2 31.8 13 97.5 13 55.8 0 56 0 63.7-5.2 9.9-6.7 10.3-24.9.7-29.8-3.9-2.1-16.5-3.5-30.5-3.5-9.8 0-11.3-.2-12.9-2-1.5-1.6-1.6-2.5-.7-4.4l1.1-2.4 25.8-.4c28.4-.6 33.7-1.5 38.5-6.5 4.6-5 6.1-9 5.6-15.9-.3-4.3-1-7.2-2.4-9.1-5.8-7.7-12.5-9.3-39-9.3-18.2 0-20.2-.2-21.7-1.8-1-1-1.7-2.5-1.7-3.3 0-3.4 2.2-3.9 18-3.9 34.8-.1 47-2 53.9-8.3 7.8-7.2 8-20.8.5-27.9-6.1-5.7-8.7-6.2-35.9-6.8l-24.9-.5-1.3-2.5c-2.5-5.1-.8-5.4 26.5-6 27.7-.6 31.6-1.4 37.2-7 8-8 7.9-20.8-.1-29.5-7.3-7.9-7.2-7.9-59.2-8.5-43.9-.5-45.9-.6-47.3-2.4-2.3-3.3-1.6-7.7 3-18.1 9-20.5 12.8-37.5 13-58 .1-13.8-1.7-20-7.9-27.2-6.9-8.1-21.1-12.1-26.3-7.6" style="fill:#ebebeb"/></svg>