<?xml version="1.0" encoding="UTF-8" standalone="no"?>
<!DOCTYPE svg PUBLIC "-//W3C//DTD SVG 1.1//EN" "http://www.w3.org/Graphics/SVG/1.1/DTD/svg11.dtd">
<svg width="100%" height="100%" viewBox="0 0 24 24" version="1.1" xmlns="http://www.w3.org/2000/svg" xmlns:xlink="http://www.w3.org/1999/xlink" xml:space="preserve" xmlns:serif="http://www.serif.com/" style="fill-rule:evenodd;clip-rule:evenodd;stroke-linejoin:round;stroke-miterlimit:2;">
    <g transform="matrix(0.0553237,0,0,0.0596507,-0.928271,-1.03709)">
        <path d="M164,54.1C169.2,52.5 174,51.2 174.5,51.1C175.1,51.1 177.7,55.4 180.5,60.7C191.5,82.5 210.6,95 232.5,95C241.4,95 249.4,93 259,88.3C269.6,83.2 282.2,70.5 287.5,59.7C289.6,55.5 291.9,52 292.7,52C293.5,52 299.4,53.4 305.8,55.1C336.1,63 346.7,66.3 350.2,68.7C353.7,71 384.5,103.3 395.6,116.2C398.3,119.3 403.5,125.2 407.3,129.3C411,133.4 414,137.4 414,138.2C414,139.7 401.6,154.5 384.2,173.7C377.8,180.7 374.1,184 372.7,184C371.3,184 366.1,179.9 358.5,172.9C344.2,159.7 343.1,159.1 339.4,161.5L336.7,163.3L337.5,386.499L234.8,386.499C178.4,386.499 131.8,386.099 131.3,385.699C130.9,385.199 130.7,307 130.8,257C131.1,191.6 130.8,165.6 130,164.1C127.9,160.2 124.6,161.5 113.2,170.8C98.3,183.1 95,185.2 93.2,183.7C90.7,181.7 61,147.9 56.7,142.3L52.8,137L66.1,122.8C73.4,114.9 85.5,102.2 93,94.5C100.4,86.8 109.5,77.3 113.1,73.5L119.6,66.4L137.1,61.7C146.7,59.1 158.8,55.6 164,54.1Z" style="fill:rgb(248,248,248);"/>
    </g>
</svg>
