<?xml version="1.0" encoding="UTF-8" standalone="no"?><!DOCTYPE svg PUBLIC "-//W3C//DTD SVG 1.1//EN" "http://www.w3.org/Graphics/SVG/1.1/DTD/svg11.dtd"><svg width="100%" height="100%" viewBox="0 0 390 375" version="1.1" xmlns="http://www.w3.org/2000/svg" xmlns:xlink="http://www.w3.org/1999/xlink" xml:space="preserve" xmlns:serif="http://www.serif.com/" style="fill-rule:evenodd;clip-rule:evenodd;stroke-linejoin:round;stroke-miterlimit:2;"><path d="M375.883,10.497c3.445,1.83 4.844,3.552 6.997,8.612l2.584,6.243l0.753,162.541c0.754,157.266 0.646,162.648 -1.292,166.524c-2.476,4.844 -8.504,9.903 -13.778,11.41c-2.906,0.861 -52.53,1.292 -177.611,1.292l-173.628,0.107l-4.629,-2.799c-2.583,-1.507 -5.705,-3.982 -6.889,-5.489c-5.49,-6.89 -5.274,-1.507 -4.844,-172.229c0.215,-87.514 0.646,-160.819 1.077,-162.756c0.753,-4.521 7.212,-11.841 12.809,-14.317c4.091,-1.937 11.733,-2.045 179.226,-1.722l174.92,0.215l4.305,2.368Zm-354.253,6.782c-3.014,1.184 -9.042,8.288 -9.042,10.549c0,0.969 -0.107,72.766 -0.215,159.527l-0.215,157.697l2.368,4.844c4.521,9.472 -13.348,8.611 180.732,8.611c168.569,0 172.121,0 175.458,-2.153c7.428,-4.521 6.89,9.796 6.567,-167.492c-0.323,-157.805 -0.323,-160.388 -2.476,-164.586c-4.414,-8.827 11.625,-8.074 -180.302,-7.966c-93.865,-0 -171.583,0.431 -172.875,0.969Zm52.315,310.55c1.076,1.292 1.076,2.26 0.215,4.306l-1.292,2.691l-40.904,-0l-0.646,-2.691c-1.399,-5.813 -1.076,-5.921 20.883,-5.921c17.007,0 20.667,0.323 21.744,1.615Zm267.17,-296.88c1.507,1.4 1.937,3.337 1.937,10.011l0,8.289l5.275,3.337c6.243,3.767 11.41,10.549 13.132,16.684c3.229,12.164 -5.597,28.203 -17.761,32.401l-3.983,1.399l-0.323,54.252c-0.215,55.436 -0.753,63.94 -4.628,71.368c-0.969,1.83 -9.688,11.517 -19.484,21.636c-9.688,10.011 -18.191,19.376 -18.73,20.667c-0.861,1.83 -0.645,2.907 1.184,5.275c3.66,4.628 2.907,8.181 -3.014,15.177c-2.798,3.445 -8.396,9.365 -12.378,13.133c-6.89,6.566 -7.32,6.781 -11.626,6.243c-2.368,-0.323 -6.459,-2.045 -9.042,-3.983l-4.736,-3.337l-9.042,6.029c-19.268,12.809 -44.887,19.913 -71.69,19.913c-23.682,0 -44.457,-4.951 -65.77,-15.715c-41.766,-20.883 -68.354,-55.221 -78.149,-100.862c-1.507,-6.781 -1.938,-13.671 -1.938,-29.279c0.108,-18.514 0.323,-21.528 3.014,-32.185c6.674,-26.588 17.761,-47.148 35.63,-65.878c29.494,-31.108 65.124,-46.717 106.459,-46.824c39.074,-0 74.812,14.962 103.122,43.165c21.098,20.99 34.338,45.64 39.397,73.304c2.691,15.286 2.476,39.29 -0.646,53.607c-1.937,9.257 -6.781,24.973 -10.333,34.015c-1.077,2.691 16.469,-13.778 19.268,-18.084c1.937,-2.907 2.153,-6.028 2.691,-33.477c0.323,-16.577 0.538,-43.488 0.323,-59.527l-0.323,-29.386l-4.521,-2.261c-13.025,-6.566 -19.053,-18.837 -15.393,-31.216c2.906,-9.903 10.334,-16.793 20.129,-18.622c4.737,-0.862 5.598,-3.122 4.629,-11.734c-0.538,-4.521 -0.323,-6.135 1.184,-7.535c2.26,-2.26 3.66,-2.26 6.136,0Zm-14.209,29.602c-5.921,3.014 -9.688,9.042 -9.688,15.716c-0,14.64 17.007,23.036 28.418,14.101c6.889,-5.489 9.149,-16.9 4.628,-23.681c-2.798,-4.198 -10.441,-8.504 -15.285,-8.504c-1.83,0 -5.49,1.077 -8.073,2.368Zm-51.454,222.929c-6.028,6.028 -10.979,11.841 -10.979,12.809c-0,2.261 3.983,5.167 6.997,5.167c2.152,0 13.993,-12.056 18.191,-18.514c1.83,-2.907 1.83,-3.122 -0.43,-6.782c-1.292,-2.045 -2.368,-3.767 -2.476,-3.767c-0.215,-0 -5.167,4.951 -11.303,11.087Zm-121.852,-234.016c-29.817,5.49 -53.067,17.653 -74.381,38.859c-23.251,22.928 -35.845,49.408 -39.828,82.993c-6.997,60.172 29.172,117.223 88.913,140.151c26.804,10.334 55.006,11.626 85.038,3.983c18.946,-4.844 38.537,-16.254 45.318,-26.48c2.045,-3.122 6.997,-8.396 10.872,-11.841c23.359,-20.56 34.876,-41.658 39.613,-72.551c2.906,-19.053 1.937,-41.12 -2.799,-60.065c-11.41,-45.964 -51.023,-82.347 -102.153,-93.973c-13.994,-3.229 -36.384,-3.659 -50.593,-1.076Zm39.29,94.834c8.719,3.336 18.622,13.24 23.466,23.358c3.122,6.566 3.445,8.289 3.445,17.008c-0,12.594 -3.014,19.375 -12.81,29.171c-10.979,10.979 -25.511,16.254 -37.89,13.563c-11.302,-2.368 -27.234,-14.747 -32.508,-25.189c-10.119,-20.452 -1.507,-44.133 20.344,-55.759c3.66,-1.937 7.858,-3.875 9.473,-4.413c5.059,-1.615 19.483,-0.431 26.48,2.261Zm-26.695,6.889c-15.07,4.09 -25.512,19.375 -24.22,35.522c1.076,13.025 8.073,22.82 20.56,28.741c11.41,5.382 26.157,3.875 32.508,-3.337c1.184,-1.292 4.09,-3.768 6.566,-5.49c9.258,-6.351 12.595,-23.682 6.997,-36.168c-4.413,-9.903 -14.424,-17.438 -26.48,-19.591c-7.75,-1.4 -9.365,-1.4 -15.931,0.323Zm13.778,30.247c3.014,2.907 3.229,3.983 1.615,7.105c-2.476,4.413 -10.765,0.753 -10.765,-4.737c0,-5.382 4.952,-6.673 9.15,-2.368Z" style="fill:#ebebeb;"/></svg>