<svg xml:space="preserve" fill="#ebebeb" style="fill-rule:evenodd;clip-rule:evenodd;stroke-linejoin:round;stroke-miterlimit:2" viewBox="0 0 397 439" xmlns="http://www.w3.org/2000/svg"><path d="M137.5 30.1c2.2 1.8 2.6 2.8 2.2 5.8-.3 3.2.6 5.1 9.2 17.6 5.2 7.7 15.7 23 23.2 34l13.6 20 9 .3 9.1.3 7.9-11.3c24.7-35.1 35.6-52.2 37.5-58.7 2.2-7.5 3.7-9.1 8.5-9.1 5.1 0 8.3 3.9 8.3 10.1 0 5.4-2.3 7.9-7.2 7.9-2.4 0-4.6 2.9-22 28.7-10.6 15.7-20.1 29.9-21.1 31.4l-1.8 2.8 3.3 1.4c4.9 2.1 9.6 6.4 10.9 10.2l1.3 3.4 48 .3c46.3.3 48.3.4 52.6 2.4 5.3 2.4 10.5 8 13.3 14.3 2.7 6 3.4 27 3.6 108.4.2 75.4-.5 83.2-8.6 92.6-4.3 5-7.7 6.9-15.7 8.5l-6.1 1.3-.1 13.4c-.2 19.9 0 18.6-3.5 19.8-4.3 1.5-16.1 1.4-18.2-.1-1.4-1.1-5.7-14.4-9.7-29.6l-1.1-4.2H105.1l-1.6 5.8c-5.2 18.7-7.6 25.7-9.2 27.3-1.4 1.4-3.5 1.9-8.9 2-8.7.2-11.3-.6-12.5-3.8-.5-1.3-.9-8.9-.9-16.7v-14.3l-5.6-.7c-15.2-1.8-22.8-10.4-24.5-28-1.1-12-1.1-158.7 0-169.7 1.4-13.4 6.6-21.6 16.3-26l5.3-2.4 47.3-.3c25.9-.2 47.2-.7 47.2-1.1 0-2.1 8.4-10 12.9-12.2 2.8-1.3 5-2.6 4.9-2.9-.5-1-30.1-44.5-35.8-52.5-5.5-7.9-5.7-8-9.9-8-3.3 0-4.7-.5-6.2-2.4-2.4-2.9-2.6-10.7-.3-13.9 3.1-4.5 9.6-5.4 13.9-2.1m-70 104.4c-.5.2-2.2.6-3.7.9-3.7.8-8.5 5.1-11.1 10l-2.2 4.1v87c0 92.6.1 93.9 4.8 99.6 5.2 6.3-4.2 5.9 138.8 5.9 148.2.1 135 .9 139.9-8.6l2.5-4.8.3-89.1c.3-98.4.6-93.8-6.1-100.3-2.3-2.2-4.8-3.5-8.6-4.2-4.9-.9-251.9-1.4-254.6-.5m150.7 17.4c30.9 1.1 33.8 2.1 39.8 13.9 4.9 9.4 8 62 6.2 104.8-.7 15.9-1.6 30.8-2.1 33.2-1.3 6.3-6 13.2-11.3 16.6-4.4 2.6-6 3-21 4.2-40.8 3.4-129.7 2.6-144.4-1.2-11.2-2.9-15.2-9.2-17.3-27.4-3.4-29.1-3.6-53.9-.5-97.6 1.5-22.5 3-30.4 6.9-37.1 4.3-7.2 7.4-8 33.5-9.1 30.2-1.2 79.9-1.3 110.2-.3M130 161c-44.8 2.1-44.2 2.1-46.6 4.5-1.2 1.3-2.8 4.1-3.4 6.3-4.2 16-6.5 86.6-3.6 116.1 1.6 17.3 2.7 20.6 7.7 24.3 4 3 8.6 3.6 37.4 4.9 27.5 1.2 71.8.7 103.5-1.1 14.1-.8 17-1.3 21-3.3 2.5-1.3 5-3.4 5.7-4.8 4-8.2 4.9-76.9 1.5-114.4-1.1-12.1-2.5-23.2-3.2-24.6-.7-1.5-2.8-3.5-4.9-4.6-3.2-1.9-6.7-2.2-35.6-3.2-33.9-1.2-55.8-1.2-79.5-.1m183.2 10.6c14.7 10.3 12.5 34.8-3.7 41-6.7 2.5-17 1.7-22.4-1.9-8.7-5.8-12.3-16.8-8.7-27.3 1.9-5.5 3.6-7.8 8.6-11.6 4.5-3.3 6-3.7 14.7-3.5 6.2.2 7.8.6 11.5 3.3m-17 5.4c-12.2 2.9-13.9 21.9-2.5 26.7 12 5 23.2-4.4 20.1-16.7-1.1-4.4-6.6-10-9.8-10-1 0-2.4-.2-3.2-.4-.7-.2-2.8 0-4.6.4m13.3 50.9c11.2 5 15.6 18.5 9.9 29.9-3.4 6.9-7.8 10.2-15 11.1-10.3 1.4-18.1-2.2-23.1-10.6-6.8-11.6-1.6-26 11.2-31 4.5-1.7 12.5-1.5 17 .6m-15.5 8.4c-1.3.7-3.5 2.8-4.8 4.7-7.4 11 6.8 25.2 17.8 17.8 11.2-7.6 6.6-23.8-6.7-23.8-2.1 0-4.9.6-6.3 1.3M81 377h3.4c3.1 0 3.6-.4 5-4.3 1.4-3.8 5.6-19 5.6-20.2 0-.3-3.1-.5-7-.5h-7zm213-23.2c0 1 1.6 6.9 3.5 13 3.5 10.9 3.6 11.2 6.5 11.2h3v-12c0-13.6-.2-14-8.4-14-3.8 0-4.6.3-4.6 1.8M184 117.6c-5.7 1.1-11.9 3.6-13.5 5.4-1.8 2-1.6 2 20.6 2.1 22.5.1 26.1 0 26.8-.7 1-1-3.3-4.2-7.2-5.4-4.3-1.3-22.3-2.2-26.7-1.4" style="fill:#ebebeb"/></svg>