<svg xml:space="preserve" fill="#ebebeb" style="fill-rule:evenodd;clip-rule:evenodd;stroke-linejoin:round;stroke-miterlimit:2" viewBox="0 0 420 292" xmlns="http://www.w3.org/2000/svg"><path d="M327.4 38.6c2.2 2.2 2 5-.6 6.8-2 1.4-13.4 1.6-102.5 1.6-99 0-100.3 0-102.3-2-2.4-2.4-2.5-4.3-.4-6.4 1.4-1.4 12.1-1.6 102.9-1.6s101.5.2 102.9 1.6m-26.9 116.9c.9 1.3 1 2.8.4 4.2l-.8 2.3H171.7c-98.4 0-128.6-.3-129.5-1.2-1.8-1.8-1.5-5.5.6-6.7 1.1-.7 43.8-1 129.1-.8 126.1.2 127.4.2 128.6 2.2m78.7-77.8c2.2 2 2.3 4.1.1 6.5-1.5 1.7-7.8 1.8-160 1.8-107.3 0-159.1-.3-160.4-1-2.5-1.4-2.6-6.5-.1-7.9 1.1-.7 54.4-1 160.1-1.1 146.1 0 158.6.1 160.3 1.7m-33.4 40.6c.7 6.1 8.7 5.7-118.2 5.7-89 0-116.5-.3-117.4-1.2-1.5-1.5-1.5-5.1 0-6.6.9-.9 28-1.1 118.3-1l117 .3zM212.1 220.8c3 1.9 7.1 4.7 9 6.4s4.4 3.4 5.7 3.9 16.6.9 34.1.9c33.4 0 34.1.1 34.1 4.6 0 4.4-.9 4.5-37.2 4.2l-34.4-.3-7.4-5.6c-4.1-3.1-8.5-6.1-9.7-6.7q-2.1-1.2-24-1.2c-24.5 0-22.9-.4-35 8.5l-6.8 5-44.8.3c-32.8.2-45.3-.1-46.3-.9-1.9-1.5-1.8-4.4.2-6.3 1.4-1.4 6.7-1.6 44-1.6 30.2 0 43.2-.3 44.7-1.2 1.2-.6 4.2-2.9 6.7-5.1s6.8-5 9.5-6.3c4.9-2.3 5.7-2.4 28.5-2.1l23.6.2zm6.2-27.4c1.8.7 6.2 3.4 9.9 5.9 20.6 14.1 36.1 16.3 52 7.2 4-2.3 5.3-2.5 17.2-2.5h13l5.7-4.5c9.4-7.4 10-7.5 34.8-7.5 21.1 0 22.1.1 24 2.1 1.1 1.2 1.7 2.8 1.4 3.8-1.4 3.8-3 4.1-26.3 4.1h-22.5l-4.8 3.9c-9.7 8-10.2 8.2-24.1 8-12.1-.1-12.6 0-18.8 3-9.3 4.6-17.8 5.7-28.1 3.6-10.2-2.1-16.1-4.7-26.8-12.2l-8.4-5.8-45.4-.5c-44.6-.5-45.4-.5-46.7-2.6-1.3-1.8-1.2-2.4.7-4.7l2-2.7h44c34.8 0 44.6.3 47.2 1.4" style="fill:#ebebeb"/></svg>