<svg xml:space="preserve" fill="#ebebeb" style="fill-rule:evenodd;clip-rule:evenodd;stroke-linejoin:round;stroke-miterlimit:2" viewBox="0 0 319 407" xmlns="http://www.w3.org/2000/svg"><path d="M655.5 101c2.2 1 6 3.9 8.5 6.4l4.5 4.7 45.2 135.4 3.1-10c1.7-5.5 8.3-25.8 14.6-45 6.2-19.3 14.6-45 18.6-57.2 8-25.2 10.2-29 19-33.8 13.7-7.3 31.4-.8 37.5 13.7 3.7 9.1 3.7 9.1-12.4 73.2-8.3 33-15.1 60.1-15.1 60.3 0 .1 1.2-.2 2.6-.7 1.4-.6 5.5-1 9.1-1 8.1 0 13.6 2.4 18.7 8 3.2 3.6 6.6 11.8 6.6 16.1 0 1.7.3 1.7 4.1.4 13.5-4.8 27.9 1.6 34.1 15 2.1 4.5 2.3 6.3 2.2 19-.3 24.6-3.9 57.9-7.9 73.2-9 34.2-27.2 57.8-52.7 68.5-14.6 6.2-24.4 8-45.8 8.5-34.3.9-54.3-3.7-74.2-16.9-19.5-13.1-35.1-37.2-46.6-72.3-10.4-31.5-9.7-40.4 5.6-71 6.9-14 13.6-24.8 17-27.9 1.2-1.1 2.2-2.6 2.2-3.4s-8.2-30.6-18.2-66.1c-14.9-52.9-18.1-65.8-18.2-71.1-.1-20.5 19.8-34.1 37.9-26m15.2 166.7c-10 3.4-18.4 13.9-29.1 36.3-9.5 20.2-10.8 26.7-8.2 40.1 3.8 18.9 15.4 47.6 25.8 63.6 12.6 19.3 28.1 29.7 53.2 35.6 7.9 1.8 12.1 2.1 32.1 2.1 21.7 0 23.6-.2 33-2.7 18-4.8 32.8-13.7 42-25.5 9.5-12.1 18.8-34.3 21.9-52.7 1.6-9.6 4.1-37.5 5-56.5.7-14.1-.8-19.7-6.6-24.3-8.4-6.7-21.6-3.7-28.1 6.5-7.7 11.9-25.9 47.1-26.4 50.8-1.6 12 9.9 18.1 20.8 11.1 4.8-3 10.6-9.4 13.2-14.7 2.2-4.3 4.2-5.7 7.2-5 3.8 1 4.3 4.9 1.4 10.4-3.4 6.4-14.4 17.4-20.4 20.2-12.4 6-26.1.6-31.2-12.2l-1.5-3.8-3.2 2c-5.7 3.5-15 5.3-20.7 4.1-6.5-1.4-9.6-3.1-14.1-7.8-7-7.2-8.2-13.7-4.9-25.8 1.1-3.8 1.9-7 1.8-7.1s-4 .2-8.7.6c-4.7.5-14 .9-20.7.9-14.9.1-15.6 1.1-5 6.9 14.2 7.9 29.1 22.8 35.4 35.5 5 10 6.7 17.7 6 27.6-.7 9.3-2.4 13.1-6.1 13.1-4.1 0-4.7-2-4-11.7 1.1-15-3.8-27.3-16.1-39.9-7.1-7.3-20.6-16.8-28.8-20.3-6.3-2.7-7.2-4.8-4.7-10.6 1.1-2.6 2-5.2 2-5.9 0-3.6 3.2-4.3 22.8-5 22-.7 31.8-2 38-4.8 8.2-3.9 12.4-12.1 10-19.4-2-6-6.8-8.1-22.4-9.9-33.4-3.7-53-4.3-60.7-1.8m-34.3-156.8c-6.9 4.2-10.3 12-8.4 19.3 2 7.8 35.3 128.3 35.6 128.6.1.2 2.8-.5 6-1.4 4.4-1.3 9-1.7 17.9-1.6 6.6.1 13.2.4 14.8.8 1.5.3 2.7.1 2.7-.4 0-2.1-46.1-138.6-47.5-140.9-3.7-5.6-15.2-8-21.1-4.4m138.9-.4c-6.3 2.7-7.8 5.4-14.1 24.6-27.7 85.2-39.4 122-39 122.4.2.3 5.8 1.2 12.4 2 8.9 1.1 13.4 2.3 17.8 4.4l5.8 2.9 3-3.2c1.6-1.7 3.5-4.5 4.3-6.1.7-1.7 8.4-31.1 17-65.5 17-67.9 17.3-69.3 12.5-76-4.3-6-13-8.4-19.7-5.5m6.2 148.4c-2.2 1-5.8 3.8-8 6.2-9.3 10.1-8.9 9.4-9.1 17.3-.3 9.1-3.3 15.5-10 21.5-2.6 2.2-5 4.1-5.4 4.1-2.8 0-9.5 17.5-8.7 22.6 1.8 11.2 13.6 15.8 25.5 9.8 8.2-4.1 12.2-9.8 28.7-40.4 11.7-21.7 13.7-30.6 8.4-37.4-4.5-5.7-13.7-7.3-21.4-3.7" style="fill:#ebebeb" transform="translate(-572 -83)"/></svg>