<svg xml:space="preserve" fill="#ebebeb" style="fill-rule:evenodd;clip-rule:evenodd;stroke-linejoin:round;stroke-miterlimit:2" viewBox="0 0 466 315" xmlns="http://www.w3.org/2000/svg"><path d="M362.4 69.8c15.1 7.1 25.6 16.9 32.2 29.9l3.8 7.4 7.7-.3c6.6-.2 8.2 0 10.6 1.8 5.7 4.2 5.8 5.2 5.8 38.1V177l-3.2 3.2c-3 3-3.9 3.3-10.8 3.6-7.2.4-7.5.5-8.1 3.1-3.9 17.1-9.1 26.3-20.4 35.8-8.1 6.8-18.3 11.8-27.8 13.8-7.9 1.6-37.8 2-46.4.6-3.1-.5-9.3-3.5-19.4-9.6-20.1-12-25.5-13.7-45.4-14.2-14.1-.4-16.4-.2-25.5 2.1-11 2.8-17.6 5.9-33.6 15.8l-10.7 6.5-9.8.6c-30.9 2.1-45.6-.8-60.9-11.9-12.5-9.2-22.5-23.7-25.6-37.2l-1.2-5.2H67c-7.7 0-10.7-1.7-13.4-7.4-3-6.4-1.6-56.8 1.8-63.5 2.4-4.5 6.3-6.1 14.8-6.1h7.3l3.9-7.8c5.8-11.2 15.5-20.6 27.7-26.6 5.2-2.5 11.9-5 14.9-5.5s56.4-.8 118.5-.7l113 .1zm39 50.4c.3 2.9.6 16.7.6 30.6v25.3l5.3-.7c2.8-.4 5.5-1.2 6-1.8.4-.6.6-13.3.5-28.2-.2-21.2-.6-27.5-1.7-28.7-.9-1.2-2.9-1.7-6.4-1.7h-5zM131 74.7c-6 1.1-16.9 4.7-21.4 7.1-11 6-23.2 23.1-27.1 37.8-2.1 8.2-2.1 52 0 63 4 20.7 16.4 35.6 37 44 6.8 2.8 7.6 2.9 27.1 3.2 23 .4 22.5.5 36-8.3 11.1-7.2 20.2-11.8 29.4-14.7 6.7-2.1 9.4-2.3 26-2.3 18.2 0 18.7.1 27.1 3.1 4.8 1.7 14.7 6.5 22.1 10.7 20.8 11.8 18.5 11.2 39.8 11.2 17.7 0 18.9-.1 27.4-2.9 16.1-5.3 26.7-14.6 34-29.6l4.1-8.5.3-31.5c.2-18.9-.1-34.2-.8-38.4-1.6-10.7-5.1-16.9-14.9-26.7-9.4-9.4-14.7-12.6-25.6-15.5-6.5-1.7-13.9-1.8-112.5-2-58-.1-106.6 0-108 .3m-68.8 44.2c-1.5 5-1.6 52.4-.2 55.2.8 1.5 2.1 1.9 6 1.9h4.9l.4-27.8c.2-15.2.7-28.9 1.2-30.5l.7-2.7H63.3z" style="fill:#ebebeb"/></svg>