<?xml version="1.0" encoding="UTF-8" standalone="no"?><!DOCTYPE svg PUBLIC "-//W3C//DTD SVG 1.1//EN" "http://www.w3.org/Graphics/SVG/1.1/DTD/svg11.dtd"><svg width="100%" height="100%" viewBox="0 0 329 480" version="1.1" xmlns="http://www.w3.org/2000/svg" xmlns:xlink="http://www.w3.org/1999/xlink" xml:space="preserve" xmlns:serif="http://www.serif.com/" style="fill-rule:evenodd;clip-rule:evenodd;stroke-linejoin:round;stroke-miterlimit:2;"><path d="M125.9,23.5c4,2 7.9,6.9 9,11.3c0.6,2 1.5,15.8 2.1,30.7c1.8,44.8 2.4,51.3 4.9,53.9c1.8,1.9 2.1,3.5 2.1,9.9l0,7.7l47,0l0,-7c0,-8.1 2.6,-16 6.6,-20.4c1.5,-1.6 5.2,-4 8.2,-5.4c11.1,-5 24.3,-1.1 30.7,9.2c2.7,4.4 3,5.9 3.3,14.3c0.4,9.1 0.4,9.3 3,9.9c12.6,3.1 22.2,14.2 23.9,27.5c0.5,3.5 0.8,61.7 0.8,129.4l0,123l-2.3,5.7c-3.1,7.6 -10.8,16 -18,19.5l-5.7,2.8l-150,0l-5.5,-2.6c-6.6,-3.1 -13.1,-9.4 -16.2,-15.7c-2.2,-4.4 -2.3,-6.2 -2.9,-30.7c-0.3,-14.3 -0.6,-72.8 -0.5,-130l0.1,-104l2.7,-5.5c4.8,-9.9 12.5,-16.6 22.1,-19.4c1.4,-0.5 1.7,-1.8 1.7,-7.9c0,-5.7 0.4,-8 1.9,-9.8c1,-1.3 2.1,-3.3 2.4,-4.4c0.4,-1.1 1.3,-16.6 2.2,-34.5c2,-44 2.3,-47.4 4.9,-51.3c4.8,-7.1 14.4,-9.9 21.5,-6.2Zm-12.9,11.7c-1.1,1.8 -2,4.9 -2,6.8c0,1.9 -0.4,11.8 -0.9,22c-0.5,10.2 -1.3,26.5 -1.6,36.2l-0.6,17.8l11,0c6.1,0 11.1,-0.3 11.1,-0.8c0,-0.4 -0.5,-6.9 -1,-14.5c-0.6,-7.6 -1.4,-25.1 -2,-38.9c-1.1,-28.8 -1.7,-31.1 -8.3,-31.6c-3.2,-0.3 -3.9,0.1 -5.7,3Zm-10.8,97.5l0.3,3.8l16.3,0.3l16.2,0.2l0,-8l-33.1,0l0.3,3.7Zm106.9,-18.5c-5.6,2.7 -7.9,7.7 -7.5,16.3l0.2,6l28.2,0.6l0,-8c0,-7 -0.3,-8.3 -2.5,-10.9c-2.8,-3.4 -8.2,-6.2 -11.7,-6.2c-1.2,0 -4.3,1 -6.7,2.2Zm-117.2,34.2c-5.6,2 -9.6,5.3 -12.6,10.4l-2.8,4.7l0,125.5c0,97.4 0.3,126.4 1.2,129.6c2,6.3 6.5,11.8 12,14.5l4.8,2.4l71,0.3c64,0.2 71.4,0.1 75.4,-1.4c5.5,-2.1 10.6,-6.6 13.4,-11.8l2.2,-4.1l0,-255.2l-3,-4.9c-1.9,-3 -4.9,-6 -7.9,-7.9l-4.9,-3l-72.6,-0.2c-57.6,-0.2 -73.3,-0 -76.2,1.1Zm105.5,28.8c2.1,3 2,5 -0.4,7.6c-3.9,4.1 -11,1.8 -11,-3.6c0,-5.8 8.2,-8.7 11.4,-4Zm-50.5,78.5c3.3,4.1 0.7,9.2 -4.8,9.3c-5.6,0 -8.3,-7.3 -3.9,-10.4c3.3,-2.3 6.4,-1.9 8.7,1.1Zm0,-27.1c1.2,1.5 2.1,3.2 2.1,3.9c0,0.7 -0.9,2.4 -2.1,3.9c-3.8,4.8 -10.9,2.4 -10.9,-3.7c0,-6.5 7,-9.1 10.9,-4.1Zm-25.5,-0.7c2.6,2.8 1.8,8.2 -1.5,10c-7,3.9 -13,-4.7 -7.3,-10.4c2.1,-2.1 6.7,-1.9 8.8,0.4Zm11.8,68.5c5.6,1.6 11.5,5.6 13.9,9.3c1.3,1.9 1.9,4.6 1.9,8.5c-0,5 -0.4,6.2 -3.2,9.3c-1.7,2 -5.4,4.8 -8.2,6.3c-4.3,2.3 -6.3,2.7 -13.1,2.6c-18.6,0 -30.1,-12 -23.9,-24.9c2.2,-4.7 5.3,-7.3 12,-10c6.7,-2.8 13.8,-3.2 20.6,-1.1Zm-16.7,10.1c-8.7,4.5 -8.3,12 0.8,15.4c10.8,4.1 26.1,-4.3 20.1,-11c-4.6,-5.3 -14.9,-7.4 -20.9,-4.4Zm80.4,-77.9c2.7,3.4 2.6,5.2 -0.1,8.1c-4.1,4.4 -10.8,1.9 -10.8,-4c0,-6.5 7,-9.1 10.9,-4.1Zm26.5,70.8c12.4,6.1 14.2,19.8 3.6,27.5c-8.4,6.1 -21.7,7.2 -32.6,2.6c-12,-5 -15.2,-17.4 -6.8,-25.8c5.8,-5.8 11.6,-7.7 22.5,-7.3c5.9,0.2 8.9,0.9 13.3,3Zm-24.4,8.8c-4.5,3.1 -5.8,5.3 -4.4,7.5c4.9,7.8 21,8.4 25.9,0.9c1.6,-2.4 1.6,-2.8 0,-5.2c-3.6,-5.6 -15.4,-7.3 -21.5,-3.2Zm-2,-106.2c4,4 0.9,10.3 -5,10.3c-3.7,-0 -6,-2.3 -6,-6.2c0,-5.5 6.9,-8.2 11,-4.1Zm24.2,-25.3c3.8,3.4 1.1,10.3 -4,10.3c-5.7,-0 -8.5,-7.3 -4,-10.4c2.9,-2.1 5.7,-2 8,0.1Zm-50,-0c1.8,1.6 2.4,5.8 1,8c-2.3,3.6 -9.1,3.2 -11.1,-0.6c-1.2,-2.2 0.1,-7 2.2,-8.3c2,-1.3 6,-0.9 7.9,0.9Zm50,51c2.6,2.3 2.4,7.8 -0.4,9.7c-5,3.5 -10.2,1 -10.2,-4.9c0,-5.9 6.2,-8.8 10.6,-4.8Zm-100,-51c2.2,2 2.4,6.6 0.3,8.7c-4.2,4.2 -10.5,2 -10.5,-3.6c0,-5.9 6,-8.9 10.2,-5.1Zm50,78c2.2,2 2.4,7.6 0.2,9.3c-2.5,2.2 -7.5,1.6 -9.6,-1c-4.6,-5.7 3.9,-13.3 9.4,-8.3Zm50.7,-52c2.4,3 2,5.8 -1.1,8.5c-2.8,2.5 -5.5,2.2 -8.4,-0.8c-2,-1.9 -2.4,-3.1 -1.9,-5.2c1,-4 2.4,-5.2 6,-5.2c2.4,-0 3.9,0.7 5.4,2.7Zm-74.4,-25.3c3,4.6 -0.1,9.6 -5.9,9.6c-2.6,-0 -5.6,-3.2 -5.6,-6c-0,-5.7 8.4,-8.3 11.5,-3.6Zm23.7,24.3c2.2,2 2.4,7.6 0.2,9.3c-2.5,2.1 -7.5,1.6 -9.6,-0.9c-2.3,-3 -2.3,-4.2 0.3,-7.5c2.4,-3 6.3,-3.4 9.1,-0.9Zm-50,-0c2.2,2 2.4,6.6 0.3,8.7c-4.2,4.2 -10.5,2 -10.5,-3.6c0,-5.9 6,-8.9 10.2,-5.1Zm85.8,154.3c1.9,1.9 2,3.3 2,27.8c0,20.7 -0.3,26.2 -1.4,27.8c-1.4,1.8 -3.2,1.9 -41.2,2.2c-36.1,0.2 -39.8,0.1 -41.5,-1.4c-1.8,-1.6 -1.9,-3.6 -1.9,-27.8c0,-14.4 0.4,-26.6 0.8,-27.2c2.1,-3.1 5.1,-3.3 43,-3.4c36.9,-0 38.3,0.1 40.2,2Zm-74,47l66,-0l0,-39l-66,-0l0,39Zm12.5,-202.4c3.7,1.5 3.8,8.2 0.1,10.6c-2.3,1.6 -7.5,0.8 -8.6,-1.1c-3.3,-6.3 1.8,-12 8.5,-9.5Zm-24,54.9c3.2,3.1 3.1,5 -0.1,8.1c-1.9,2 -3.1,2.4 -5.2,1.9c-4,-1 -5.2,-2.4 -5.2,-6.1c0,-6 6.2,-8.3 10.5,-3.9Zm75.9,0.8c1.9,2.6 1.9,3 0.5,5.5c-3.4,6.1 -11.9,4.7 -11.9,-2c0,-6.9 7.2,-9.1 11.4,-3.5Zm23.4,-1.6c3.4,3 3.7,5.9 0.8,8.8c-1.4,1.4 -3.4,2.5 -4.6,2.5c-2.5,-0 -7,-4.2 -7,-6.5c0,-2.2 4.5,-6.5 6.8,-6.5c1.1,-0 2.9,0.8 4,1.7Zm-49.4,-27.1c2.1,2 2,7.3 -0.1,9.6c-2,2.2 -6.1,2.3 -8.5,0.1c-2.2,-2 -2.3,-7 -0.1,-9.5c2,-2.2 6.6,-2.4 8.7,-0.2Z" style="fill:#ebebeb;"/></svg>