<?xml version="1.0" encoding="UTF-8" standalone="no"?><!DOCTYPE svg PUBLIC "-//W3C//DTD SVG 1.1//EN" "http://www.w3.org/Graphics/SVG/1.1/DTD/svg11.dtd"><svg width="100%" height="100%" viewBox="0 0 373 301" version="1.1" xmlns="http://www.w3.org/2000/svg" xmlns:xlink="http://www.w3.org/1999/xlink" xml:space="preserve" xmlns:serif="http://www.serif.com/" style="fill-rule:evenodd;clip-rule:evenodd;stroke-linejoin:round;stroke-miterlimit:2;"><path d="M222.5,105.1c14.2,3 23.7,6.5 43.5,16c24.8,11.8 30.9,13.4 51.5,13.4c8.8,0 16.6,0.4 17.3,0.8c2,1.3 1.5,6.5 -0.8,7.7c-3.3,1.8 -20,2.4 -29,1.1c-13.3,-2 -24.4,-5.7 -42.1,-14.1c-31.4,-15 -40.8,-17.4 -66.4,-17.4c-15,-0 -18.4,0.3 -29,2.8c-22.3,5.1 -34.1,10.9 -66,32.2c-24,15.9 -31.7,20 -48.6,25.5c-13.9,4.5 -17,4.5 -18.2,-0c-0.9,-3.7 2.2,-6 10.8,-8.1c16.7,-4 27.4,-9.4 55.1,-27.6c29.2,-19.3 45.9,-27.3 66.4,-31.8c17.4,-3.9 38.9,-4.1 55.5,-0.5Zm2.3,63.8c13.1,2.7 25,7.1 44.8,16.4c24.5,11.5 32.1,13.3 52,12.2c13.1,-0.7 14.9,-0.1 14.2,4.7c-0.5,4 -4.8,5.1 -19.8,5.2c-18.8,0.1 -26,-2 -57.2,-16.5c-23.4,-10.9 -39.4,-14.9 -59.8,-14.9c-34.1,0 -61.3,10.9 -105.5,42.5c-14.8,10.5 -28.3,16.4 -48,21.1l-7.7,1.8l-1.9,-2.3c-4,-4.9 -1.6,-7.1 10.6,-9.9c18.2,-4.1 29.5,-9.8 53.6,-26.8c31.2,-21.9 55,-32 84.9,-35.8c7.9,-1 29.8,0.3 39.8,2.3Zm-0.3,-126.4c12.7,2.8 22.8,6.6 41.6,15.6c24.9,11.8 26.2,12.2 49,12.4c19.4,0.1 21.9,0.6 21.9,4.5c-0,0.9 -0.9,2.5 -2.1,3.6c-1.8,1.6 -3.9,1.8 -18.2,1.9c-14.7,0 -17.1,-0.3 -26,-2.8c-5.5,-1.5 -15.8,-5.5 -23,-8.8c-30.2,-14 -40.2,-17.2 -59,-18.9c-14.3,-1.2 -33.8,0.4 -48,4c-20.5,5.2 -31.2,10.5 -57.4,28.7c-24.6,17 -32.2,21.1 -50.9,27.1c-13.8,4.5 -14.1,4.5 -16.4,2.2c-2.3,-2.3 -2.6,-5.3 -0.7,-6.8c0.7,-0.6 6.9,-2.7 13.6,-4.7c19,-5.4 25.5,-9 57.3,-30.8c25.4,-17.5 47.2,-26.1 73.8,-29.1c7.9,-0.9 37.7,0.4 44.5,1.9Z" style="fill:#ebebeb;"/></svg>