<svg xml:space="preserve" fill="#ebebeb" style="fill-rule:evenodd;clip-rule:evenodd;stroke-linejoin:round;stroke-miterlimit:2" viewBox="0 0 422 397" xmlns="http://www.w3.org/2000/svg"><path d="M135.8 79.3c32.9 32.7 65.2 64.7 72 71.3 6.8 6.5 12.6 12.1 12.8 12.4.3.2 28-27 61.7-60.6C359.5 25.5 364.2 21 366.9 21c2.8 0 6.1 5.4 6.1 10.2 0 2.1.9 8.4 2 14 3.1 16.1 2.4 32.1-2.2 50.3-7.7 30.9-36 64.8-92.1 110.8-5.9 4.8-10.7 9.3-10.7 10.1 0 .7 6.8 8.2 15.2 16.5l15.1 15.2 7.3-7.2c6.8-6.8 7.5-7.2 9.8-6.1 4.4 2 4.4 5.5-.2 10.9-2.2 2.7-4.9 5.7-6.1 6.7-1.1 1.1-2.1 2.3-2.1 2.8 0 .6 12.6 13.8 28 29.6 31.5 32 33.7 35.1 32.7 44.6-1.4 14.2-13 24.9-26.7 24.9-9.5 0-12-1.9-43.2-33.4-15.8-15.9-29-28.9-29.5-28.9-.4 0-5.3 4-10.7 8.9-6.5 5.9-10.5 8.7-11.5 8.4-2-.7-5-4.4-5.1-6.1 0-.7 3.4-4.8 7.5-9.1s7.5-8.1 7.5-8.4c0-.6-33.7-27.2-36.8-29-.9-.6-2.9.4-6 2.8-2.6 2.1-10.7 8.3-18.1 13.8l-13.4 10.1 7.1 6.7c5.9 5.5 7.2 7.3 7.2 9.8 0 3-2.2 5.1-5.2 5.1-.8 0-5.8-3.9-11.1-8.6-5.4-4.7-10.1-8.4-10.5-8.2-.5.2-6.9 6.8-14.4 14.8s-20.9 21.7-29.9 30.6c-14.4 14.1-17.1 16.3-21.8 17.9-20.3 6.7-40.3-12.4-33.7-32.2 1.5-4.4 4.9-8.2 30.7-33.9 16-15.9 29.5-29.7 30.1-30.8.8-1.6 0-2.9-5.6-8.5-4.8-4.9-6.6-7.4-6.6-9.3 0-2.7 3.1-5.8 5.9-5.8.8 0 4.5 2.9 8.2 6.5s7.2 6.5 7.7 6.5c1.4 0 28.2-29.2 27.6-30.2-.3-.4-6.9-5.8-14.7-12.1-35.3-28.4-56.7-50.4-72.6-74.7C69.6 107.8 63 85.1 63 61c0-21.3 5.7-41 11.8-41 .8 0 28.2 26.7 61 59.3M290 272.5c-9.9 9.7-10.4 10.4-9.2 12.7 1.9 3.5 51.2 53.2 55.2 55.7 11.3 6.8 25.8-4.5 22.5-17.6-.4-1.8-9.6-11.8-26.4-28.8-14.2-14.3-26.8-27.5-28-29.3-1.2-1.7-2.5-3.1-2.9-3.1-.4.1-5.4 4.8-11.2 10.4M76.7 38.7c-2 3.5-3.1 13.6-3 25.8.3 35 13.2 59.5 51.2 97.5 12.9 12.9 36.2 32.7 47.9 40.8l5.4 3.6 17.4-17.9 17.5-17.9-8.3-8.1c-4.6-4.5-34.7-34.3-66.9-66.3S78.8 38 78.2 38s-1.3.3-1.5.7m36.8 250c-15.4 15.7-28.5 29.5-29.2 30.7-1.7 3-1.6 10.2.3 14.2 2 4.2 5.5 7 10.3 8.4 6.6 1.8 11.9-1.8 30.4-21.3 26.5-27.8 36.7-39.1 36.5-40.3-.2-.5-4.8-5.3-10.3-10.6l-10-9.6zm142-62.1c-1.6 1.4-8.3 6.9-14.8 12.1s-11.5 9.9-11 10.2c2.2 2 30.6 24.4 37 29.4.9.7 4-1.8 11-8.6 5.4-5.2 11.2-10.7 12.8-12.1l3-2.7-5.4-4.7c-3-2.6-10.6-9.5-16.9-15.5-6.3-5.9-11.7-10.7-12-10.7-.4.1-2 1.2-3.7 2.6m1.8-83.8c-57.2 57-104.6 104.7-105.2 105.8-.9 1.9.2 3.5 11 14.8 6.7 6.9 12.5 12.6 13.1 12.6 1.3 0 13-9 40.3-30.9 68.7-55.2 96.8-79.6 113.1-98.2 17.7-20.1 25.4-32.9 32.7-54.3 4.1-12 4.1-12.2 4.2-27.1 0-15.3-1.6-26.5-3.8-26.5-.7 0-48.1 46.7-105.4 103.8" style="fill:#ebebeb"/></svg>