<svg xml:space="preserve" fill="#ebebeb" style="fill-rule:evenodd;clip-rule:evenodd;stroke-linejoin:round;stroke-miterlimit:2" viewBox="0 0 397 392" xmlns="http://www.w3.org/2000/svg"><path d="M221 20.4c6.9.8 15.3 2.1 18.7 3 47.3 12.3 86.4 44.5 106.9 88.1 23.6 50.3 19.4 111.5-10.7 156.6-7.4 11-22.5 26.9-33.3 35.2-32.7 24.9-77.4 37.9-116.1 33.8-29.7-3.2-55.2-12.8-79-29.7-27.3-19.4-45.2-43.9-55.9-76.6-6.9-20.9-8.1-28.9-8.1-52.8 0-21.1.1-21.7 3.3-34.3 3.6-13.9 7.9-25.9 13.5-37.7 12-25.3 35.8-50.3 62.9-66.1 14.2-8.3 40.1-17.7 54.3-19.8 9.4-1.4 29.8-1.2 43.5.3m-53.7 13.1c-30.2 7.8-62.6 28.7-80.8 51.9C74.6 100.8 65.8 117.1 60 135c-4.6 13.8-5.9 20.8-7 36-1.4 19.5 2.7 44.5 10.3 62.3 12.3 29.1 28.2 49.3 52.7 66.9 7.9 5.6 23.2 13.8 29 15.3 2.3.7 2.3.5-1.1-3.1-15.2-16.3-22.5-34.6-22.3-56.4 0-13.8 1.9-21.8 7.9-34.5 6.3-13.4 11.6-19.9 22.6-27.7 18-12.9 30.4-17.4 51.7-18.8 13.5-.9 18.8-2.3 30.2-8 12.5-6.3 26.7-19.5 31.5-29.5 8.2-16.7 9.6-41.4 3.4-60.2-5.5-16.9-22.3-34.1-39.9-40.6-15.8-6-45.1-7.5-61.7-3.2m41 52.6c2.1.5 5.2 2.3 7 3.9 3 2.7 3.2 3.2 3.2 10.2 0 13.5-5.5 19.3-17.4 18.5-9.9-.7-15.1-5.7-15.9-15.1-1.1-13.4 9.4-21.3 23.1-17.5m53.6-40.5c1.2 1.6 4 5.1 6.2 7.9 5.4 6.8 10.5 17.4 13 27 3 11.8 3 31.8 0 44-6.3 25.3-24.5 46.3-47.9 55.4-11 4.2-14.9 5-28.7 6.1-13.5 1-20.4 2.9-34.1 9.5-10.3 5-18 11.4-25.5 21.4-6.8 8.9-9.6 15.4-11.5 26.3-6.4 36.9 13 67.4 50.4 79.2 23.3 7.3 47.4 5.1 75.7-6.9 21.3-9.1 33.1-17 49.1-32.9 17.6-17.6 28.5-35 35.7-57.1 6.2-18.9 8-33.8 6.6-55.9-2.7-44-24.5-83.5-60.6-110.3-10.1-7.5-22.8-14.9-27.2-15.8l-3.4-.7zM212 239.2c5.2 3.6 7.1 6.9 7.7 13.4.4 4.9.1 6.6-1.9 10.4-4.8 8.9-15.7 11.8-23.5 6.1s-10.8-13-8.4-20.4c2.7-8.1 7.9-11.6 17.2-11.7 4.2 0 6.4.6 8.9 2.2" style="fill:#ebebeb"/></svg>