<svg xml:space="preserve" fill="#ebebeb" style="fill-rule:evenodd;clip-rule:evenodd;stroke-linejoin:round;stroke-miterlimit:2" viewBox="0 0 354 314" xmlns="http://www.w3.org/2000/svg"><path d="M7144 8665c-60-25-163-166-228-312l-18-41-46 29c-53 34-173 81-250 99-49 11-56 11-80-7-67-50-90-288-46-473 22-89 84-216 134-273 24-26 41-49 39-50-2-2-40-13-84-26-168-47-301-136-349-233-46-92-30-225 36-295 12-13 20-24 17-25-2-2-48-25-102-52-191-97-291-224-291-371 0-61 5-82 32-138 98-198 409-352 852-422 163-26 568-32 750-11 343 40 607 127 783 260 216 162 246 384 75 555-57 57-167 130-238 157-25 9-46 18-48 20-2 1 10 21 28 45 40 56 64 137 55 192-16 94-94 191-203 250-56 31-214 87-244 87-26 0-23 6 23 58 142 162 200 491 123 698-22 61-50 69-145 45-81-21-192-67-238-100l-29-21-46 94c-45 89-120 201-162 238-33 29-67 37-100 23m60-187c35-47 102-176 116-224 12-40 12-41-38-110-28-38-63-95-79-126l-29-57-31 62c-17 35-54 91-81 126l-51 63 23 62c31 81 121 236 138 236 4 0 18-15 32-32m-483-225c76-37 110-63 174-127 122-123 182-257 203-455l8-83-53 6c-125 15-263 89-336 181-97 122-144 308-121 479 4 27 12 46 19 46s55-21 106-47m1033 10c30-182-36-408-153-523-86-85-230-149-335-150h-28l6 68c24 232 133 431 298 544 59 40 172 97 194 98 6 0 14-17 18-37m-839-779c85-26 101-28 265-28 165 0 180 2 260 29 102 33 144 34 274 1 125-32 193-64 250-116 79-73 80-146 2-218-110-101-316-161-634-182-366-26-760 45-924 165-139 102-94 227 112 311 63 25 268 75 290 70 8-2 56-16 105-32m-424-555c168-66 399-99 689-99 293 0 477 26 680 97 76 27 76 27 130 9 153-49 273-128 320-209 37-64 38-107 4-175-35-71-109-133-229-192-149-73-282-112-506-147-144-22-610-25-759-5-227 32-427 89-575 165-105 54-206 152-224 218-36 129 81 251 319 336 80 28 87 28 151 2" style="fill:#fff;fill-rule:nonzero" transform="matrix(.1 0 0 -.1 -534 892)"/></svg>