<?xml version="1.0" encoding="UTF-8" standalone="no"?>
<!DOCTYPE svg PUBLIC "-//W3C//DTD SVG 1.1//EN" "http://www.w3.org/Graphics/SVG/1.1/DTD/svg11.dtd">
<svg width="100%" height="100%" viewBox="0 0 1024 593" version="1.1" xmlns="http://www.w3.org/2000/svg" xmlns:xlink="http://www.w3.org/1999/xlink" xml:space="preserve" xmlns:serif="http://www.serif.com/" style="fill-rule:evenodd;clip-rule:evenodd;stroke-linejoin:round;stroke-miterlimit:2;">
    <g id="Artboard1" transform="matrix(1,0,0,1,0,-459)">
        <rect x="0" y="459" width="1024" height="593" style="fill:none;"/>
        <g id="Background" transform="matrix(1.5,0,0,1.5,-1.169223,20.749957)">
            <path d="M488.522,606.107C484.949,606.54 484.953,606.647 481.582,605.293C476.281,603.162 475.213,604.619 472.003,599.858C471.546,599.179 467.941,597.594 473.573,592.589C477.622,588.991 482.646,590.546 493.657,580.681C497.631,577.121 497.706,577.311 501.587,573.582C508.828,566.625 509.289,566.946 511.216,562.388C513.438,557.132 518.6,555.146 521.045,546.371C521.66,544.166 526.73,538.885 518.485,540.395C507.777,542.357 483.978,548.971 479.069,544.978C472.621,539.732 477.109,537.761 476.476,534.504C476.384,534.03 474.402,529.812 475.741,525.594C477.538,519.931 472.568,517.871 477.743,514.928C478.771,514.343 478.894,514.663 491.606,509.79C493.2,509.178 494.964,510.25 496.555,509.728C502.588,507.749 502.363,507.212 508.608,505.857C517.504,503.926 517.126,501.952 524.504,502.299C531.645,502.636 530.883,500.226 533.221,493.421C533.481,492.664 532.275,492.498 534.52,483.505C536.582,475.244 525.648,481.659 511.619,486.831C509.737,487.525 489.983,494.808 487.61,494.09C478.337,491.284 482.604,484.527 479.638,480.395C475.878,475.157 480.239,472.321 480.81,471.949C494.959,462.748 496.184,464.759 500.085,461.074C501.371,459.859 503.442,457.903 519.405,450.302C529.115,445.678 528.53,444.688 538.48,440.46C539.799,439.9 539.297,438.962 554.313,432.057C564.081,427.566 563.444,426.512 573.362,422.181C576.375,420.865 590.152,411.663 599.554,408.78C600.563,408.471 602.866,406.32 603.336,409.568C603.461,410.432 603.508,410.456 604.449,410.601C605.643,410.785 605.142,411.253 605.386,412.515L605.342,414.758C607.366,414.636 607.894,414.481 608.129,416.534C610.065,418.402 609.968,418.393 611.335,420.717C611.555,420.988 611.178,421.187 613.404,424.572C614.044,425.544 613.075,426.486 614.374,427.647C619.32,432.068 619.275,439.437 619.268,440.54L620.539,441.462C620.78,442.777 623.547,445.39 615.351,450.251C609.15,453.928 608.736,452.975 602.59,456.647C599.209,458.667 598.547,456.828 586.724,461.995C580.701,464.628 584.191,466.365 584.581,466.415C588.699,466.943 588.449,477.028 588.328,477.454C586.94,482.374 588.217,482.347 588.47,487.504C588.541,488.948 589.368,489.557 606.525,486.645C623.895,483.696 624.128,485.168 625.496,484.489C631.522,481.496 631.764,482.886 638.484,483.25C642.364,481.157 643.414,480.645 645.506,484.484C646.171,484.739 653.125,487.41 649.457,492.473C648.181,494.235 645.709,494.262 647.718,495.2C650.212,496.365 650.966,495.797 651.524,498.494C652.227,501.895 646.369,502.691 650.766,506.322C652.894,508.08 649.489,509.55 649.328,511.482C649.114,514.056 648.88,513.925 648.358,516.486C648,518.244 652.568,518.182 650.007,520.048C648.596,521.075 649.58,522.731 647.3,524.182C643.588,526.542 644.227,529.925 640.417,527.672C636.677,525.46 631.928,530.555 629.717,528.058C628.011,526.132 610.746,530.354 609.495,530.389C608.048,530.428 598.629,530.687 591.538,532.646C589.988,533.075 581.905,532.538 580.849,534.666C574.383,547.693 575.992,555.87 564.649,569.626C562.841,571.818 563.597,574.066 562.183,575.17C559.734,577.08 554.357,580.337 552.813,585.608C551.97,588.485 547.517,587.647 543.906,592.755C536.176,603.689 524.497,606.916 522.494,607.47C516.376,610.645 515.992,611.01 514.462,609.602C511.336,609.215 511.305,609.195 508.491,610.478C505.669,611.763 505.542,609.881 502.488,610.417C496.015,611.552 491.558,613.962 494.5,610.56C496.02,608.802 496.552,609.052 496.395,608.929C494.928,607.787 493.804,612.043 490.183,608.594L488.522,606.107ZM105.428,498.397C101.999,501.541 102.108,501.545 98.683,504.712C85.685,516.733 84.583,515.387 83.623,516.584C79.525,521.697 67.37,528.13 63.378,526.905C47.756,522.114 47.622,522.343 46.585,521.396C42.042,517.242 35.204,520.067 32.808,510.442C31.785,506.334 35.736,508.671 38.098,505.173C40.217,502.036 46.779,500.112 49.472,497.474C59.439,487.711 60.63,489.267 71.263,480.246C73.405,478.428 71.928,477.393 73.9,475.936C80.516,471.048 79.857,470.37 86.099,465.004C88.326,463.09 86.968,461.621 89.747,460.806C94.02,459.555 94.721,454.795 95.84,453.811C97.707,452.169 104.037,441.857 105.909,439.919C113.033,432.542 110.672,430.947 116.979,422.914C122.226,416.231 120.239,415.141 125.131,408.313C127.041,405.646 125.73,405.501 125.502,405.476C124.893,405.409 114.36,409.893 113.402,410.301C110.503,411.535 95.38,417.974 78.396,428.33C68.819,434.169 69.089,434.56 68.251,435.056C60.416,439.701 49.918,429.453 48.314,425.573C46.543,421.285 43.226,422.887 38.624,414.44C37.758,412.851 39.337,410.603 38.252,408.633C36.592,405.619 36.115,405.909 35.209,402.594C34.727,400.827 30.261,396.387 36.578,393.682C42.208,391.272 41.841,390.692 47.349,388.174C71.343,377.206 75.797,377.36 78.228,376.017C82.631,373.586 82.526,373.392 87.437,372.253C90.641,371.509 93.524,368.895 96.496,368.467C105.341,367.195 104.845,365.68 113.453,363.342C125.423,360.091 125.22,359.675 137.436,357.104C138.558,356.868 151.133,354.221 151.478,354.195C152.271,354.136 158.956,353.638 161.42,353.953C176.892,355.928 180.343,363.622 185.944,373.213C190.905,381.708 174.433,406.434 173.09,410.359C170.706,417.327 165.838,421.937 164.311,425.4C162.187,430.214 160.02,431.712 157.306,436.385C153.957,442.152 159.462,441.896 162.412,444.598C167.545,449.298 183.692,459.444 186.501,462.499C194.603,471.313 207.271,477.921 208.749,481.373C211.851,488.617 201.51,492.395 200.892,493.663C199.58,496.359 199.279,496.052 197.094,498.016C193.479,501.264 194.231,502.397 189.563,503.683C185.648,504.762 185.487,508.838 179.448,507.772C177.206,507.376 177.235,510.031 173.58,508.312C168.458,505.904 168.682,504.615 166.279,502.815C165.458,502.2 159.141,497.466 156.568,494.439C151.477,488.448 151.444,488.609 145.917,483.043C140.632,477.72 140.119,478.379 134.705,473.261C130.196,468.999 130.621,474.406 123.595,480.602C119.205,484.473 121.01,485.742 117.194,490.151C117.013,490.306 116.199,491.005 114.543,491.528C113.439,494.729 111.324,495.418 109.629,496.714C106.85,499.836 106.828,499.828 106.5,499.716C105.964,499.533 105.964,498.58 105.428,498.397ZM230.629,626.552C230.618,626.542 230.605,625.523 229.481,625.534C221.943,625.605 232.001,622.311 232.334,622.202C241.815,617.015 242.537,618.37 251.251,612.019C256.943,607.833 256.287,607.165 262.031,603.069C262.439,602.651 279.348,584.643 280.326,582.411C284.266,573.415 291.123,563.254 293.393,552.474C293.679,551.115 296.847,545.423 298.235,535.457C298.797,531.424 299.349,531.589 299.891,527.576C303.027,504.323 301.7,501.534 302.311,499.444C305.47,488.628 299.581,481.845 309.616,477.764C311.57,476.97 312.376,479.924 320.422,475.37C325.583,472.449 333.97,475.371 336.627,473.689C338.811,472.306 339.19,473.694 341.569,472.649C346.572,470.451 349.617,476.56 349.958,477.245C353.698,484.745 350.652,491.882 354.246,495.7C356.333,497.916 353.951,506.88 354.338,520.502C354.368,521.563 347.742,554.461 346.763,557.574C344.884,563.545 344.812,563.434 343.642,569.532C343.311,571.259 342.046,570.679 334.108,589.337C333.713,590.267 332.485,591.342 329.793,596.786C329.091,598.073 329.159,598.039 328.018,599.022C326.92,600.338 320.963,604.745 318.239,608.339C318.268,608.928 319.547,608.911 319.576,609.5C319.689,611.821 318.68,611.26 316.5,612.096C313.097,616.784 312.977,616.959 312.547,616.73L311.363,614.345C311.066,614.687 311.09,614.627 307.519,618.52C306.587,621.78 298.788,627.142 297.464,627.384C292.129,628.359 292.927,630.94 287.511,631.062C285.389,631.11 280.744,634.801 279.457,635.086C276.886,635.656 276.927,635.606 274.644,636.836C271.165,638.668 270.687,636.864 269.52,636.084C257.137,637.31 254.886,640.966 250.252,638.914L249.494,637.622C243.749,638.793 243.774,637.841 243.327,637.606C245.1,635.766 256.051,632.877 251.402,631.858C250.595,631.681 250.754,632.497 241.526,634.868C238.803,635.567 239.199,633.103 236.501,633.473C236.053,633.534 231.366,634.177 231.196,631.541C231.129,630.504 231.401,629.744 229.584,630.089C224.008,631.15 230.387,626.72 230.629,626.552ZM412.463,375.294C417.751,372.711 418.022,373.65 418.452,373.391C424.418,369.796 425.051,371.894 431.543,369.619C435.917,368.086 435.804,367.86 440.434,367.092C445.376,366.272 441.339,362.772 442.561,351.506C443.255,345.114 440.808,342.267 447.495,341.429C448.514,341.302 450.715,339.57 454.529,340.333C461.396,341.707 461.781,340.489 467.628,344.285C467.796,344.394 472.265,343.705 475.271,352.577C476.604,356.515 476.98,356.391 477.244,360.535C477.555,365.407 490.019,361.373 493.555,362.258C501.276,364.192 503.561,362.737 505.127,370.506C505.306,371.394 504.036,371.133 502.16,381.433C500.943,388.12 494.952,389.097 487.511,390.558C484.825,391.085 478.909,390.606 478.704,392.551C477.156,407.268 477.031,410.056 476.962,411.583C476.867,414.917 480.168,419.082 474.635,451.522C473.756,456.674 473.05,456.382 470.54,461.521C467.957,466.808 468.841,467.888 463.392,470.179C462.493,470.558 455.24,467.546 453.532,467.739C446.876,468.487 446.936,464.266 440.562,463.045C437.012,462.365 437.559,461.448 431.727,456.24C429.582,454.326 430.476,453.611 434.983,447.871C436.259,446.245 438.391,445.559 438.88,443.603C439.306,441.897 446.061,414.872 440.682,421.705C426.644,439.54 427.059,440.013 409.269,454.198C404.213,458.23 403.86,458.093 397.543,457.125C394.975,456.731 395.991,455.187 393.698,454.045C390.865,452.634 392.838,450.476 388.348,447.813C378.158,441.767 402.362,433.635 424.058,401.224C426.081,398.787 426.962,397.594 425.547,397.375C421.45,396.74 401.039,410.081 397.078,394.632C396.174,391.105 398.287,389.997 397.401,387.536C395.957,383.524 394.976,382.846 398.264,380.189C399.945,378.83 399.747,378.465 406.608,375.793L411.434,374.144C411.945,374.203 411.952,375.235 412.463,375.294ZM218.049,497.508C217.48,494.876 217.789,494.717 216.963,494.106C214.145,492.021 216.721,491.52 221.739,488.941C228.804,485.31 230.328,486.099 235.523,484.575C256.087,478.544 256.593,481.808 258.249,481.005C260.094,480.11 265.969,479.828 267.513,480.471C272.783,482.669 272.488,503.82 272.295,505.474C271.023,516.372 272.993,518.718 270.363,537.485C267.545,557.601 271.698,558.53 265.363,571.407C265.059,572.025 262.717,571.586 261.728,572.695C261.333,573.138 258.585,576.221 255.579,576.839C250.642,577.854 251.443,579.832 246.548,580.753C226.148,584.591 224.654,577.932 222.777,574.347C216.081,561.553 219.397,559.585 218.573,555.483C214.611,535.751 218.149,532.379 217.194,521.542C215.899,506.854 216.342,506.887 215.976,502.528C215.973,502.205 215.937,498.782 216.219,498.5C216.71,498.01 217.559,497.999 218.049,497.508ZM392.496,598.483C384.978,599.345 386.029,595.636 381.83,592.122C379.19,589.913 382.174,589.593 398.429,577.405C400.254,576.037 421.948,563.325 433.561,530.526C438.256,517.266 437.271,513.703 445.482,514.996C446.727,515.192 466.336,520.443 466.504,526.5C467.055,546.36 461.839,548.122 457.502,562.501C457.316,563.119 457.206,563.01 453.723,569.639C453.256,570.527 453.056,570.384 447.029,580.246C442.991,586.853 439.381,588.149 438.489,588.469C437.844,588.7 437.946,588.821 431.836,593.851C431.503,594.125 428.662,598.453 425.547,599C419.6,600.044 420.676,604.646 409.48,603.679C405.599,603.344 404.576,602.911 404.18,602.743L402.433,601.218C400.545,602.056 400.536,602.116 398.552,601.456L397.502,600.205C395.979,600.577 396.046,600.533 394.539,600.447L392.496,598.483ZM292.494,455.503C291.055,453.44 291.123,453.472 289.543,451.466C282.242,442.199 292.527,439.712 303.518,438.682C308.43,438.222 331.529,427.042 334.838,424.951C375.562,399.203 373.206,396.11 376.739,393.89C379.954,391.87 387.611,398.675 388.125,399.688C390.817,404.993 396.469,404.87 391.173,413.296C384.536,423.854 380.93,427.752 379.885,428.882C370.24,439.308 369.825,438.786 359.251,448.236C349.04,457.361 332.028,464.451 329.565,464.883C318.492,466.824 311.234,472.758 299.166,462.772C296.506,458.496 294.962,459.872 292.494,455.503ZM329.221,362.847C331.836,364.367 331.731,364.429 334.33,365.916L335.5,365.055C339.812,367.979 358.907,378.65 351.287,386.315C349.123,388.492 348.05,387.456 346.066,391.313C342.941,397.391 335.47,394.62 334.581,394.29C322.301,389.734 310.626,384.272 308.582,383.315C307.347,382.737 299.67,381.453 301.69,376.578C305.235,368.024 302.881,362.21 309.159,358.006C311.44,356.478 311.178,352.994 316.585,355.301C318.012,355.91 318.019,355.695 319.493,356.1C323.325,355.333 323.226,356.242 326.417,358.613C329.35,360.793 329.327,360.759 329.5,361.02C330.112,361.944 328.659,361.999 329.221,362.847ZM255.494,363.97C268.71,362.443 268.898,363.696 278.287,369.824C282.53,372.593 280.73,374.088 284.235,377.729C294.135,388.013 271.508,453.39 226.521,474.54C217.984,478.553 217.946,472.807 213.541,472.092C212.251,471.882 206.979,468.922 206.427,468.612C206.289,468.534 202.171,464.523 202.8,462.586C203.397,460.746 229.969,436.252 227.167,433.836C225.219,432.158 214.827,425.773 213.734,425.103C209.414,422.449 209.289,424.852 203.812,428.935C201.013,431.021 197.607,438.893 189.63,432.355C184.446,428.106 179.559,431.178 180.77,424.538C182.041,417.563 188.229,412.785 190.168,408.335C192.87,402.132 193.106,402.319 196.978,396.851C198.391,394.854 198.599,394.561 212.12,370.278C217.37,360.849 217.768,355.874 221.431,355.164C224.401,354.588 224.704,355.358 227.74,352.799C230.538,350.442 247.297,355.652 248.811,360.406C250.161,364.647 251.107,364.377 255.494,363.97ZM392.151,523.569C393.605,534.063 393.958,533.939 395.134,544.534C396.491,556.755 398.702,558.523 392.645,561.766C390.364,562.988 384.138,571.453 375.446,568.657C369.934,566.884 365.688,549.376 365.247,547.554C364.302,543.658 362.275,541.36 361.254,536.542C360.499,532.978 360.18,533.148 359.381,529.519C358.776,526.767 363.866,523.675 364.41,523.344C365.694,522.564 377.052,515.664 381.499,515.551C383.843,515.492 387.514,510.549 390.548,518.478C390.7,518.877 390.666,518.856 392.151,523.569ZM398.045,523.603C397.426,519.497 397.353,519.591 396.487,515.502C394.962,508.303 419.372,502.243 422.383,506.573C428.458,515.31 426.134,524.753 425.844,533.514C425.396,547.029 422.853,546.998 410.384,552.192C400.202,556.434 402.863,548.612 398.045,523.603ZM317.512,424.04C315.414,423.612 293.561,419.154 291.584,417.397C288.836,414.954 294.049,398.117 296.695,395.731C303.18,389.881 305.79,390.909 306.6,391.227C310.462,392.748 310.319,392.909 314.468,393.709C318.482,394.482 317.972,395.615 328.29,399.995C339.294,404.666 335.733,410.838 335.3,411.3C332.756,414.01 332.808,413.999 331.347,417.436C328.172,424.909 324.449,423.496 317.512,424.04ZM358.115,376.67C349.469,357.332 350.727,354.675 353.699,352.864C358.08,350.193 358.005,348.65 361.655,350.121C369.468,353.271 376.854,354.463 374.827,377.538C374.463,381.684 370.473,380.46 367.463,382.453C360.833,386.842 359.142,378.687 358.115,376.67ZM378.124,359.596C375.785,350.955 376.016,350.204 376.259,349.412C377.865,344.176 384.476,346.311 384.504,346.311C396.593,346.361 400.3,357.324 397.924,365.627C395.962,372.481 394.594,371.604 388.297,375.097C383.191,377.929 382.278,374.998 378.124,359.596Z" style="fill:rgb(14,14,14);"/>
        </g>
    </g>
</svg>
