<?xml version="1.0" standalone="no"?>
<!DOCTYPE svg PUBLIC "-//W3C//DTD SVG 20010904//EN"
 "http://www.w3.org/TR/2001/REC-SVG-20010904/DTD/svg10.dtd">
<svg version="1.0" xmlns="http://www.w3.org/2000/svg"
 width="1024.000000pt" height="1024.000000pt" viewBox="0 0 1024.000000 1024.000000"
 preserveAspectRatio="xMidYMid meet">
<metadata>
Created by potrace 1.16, written by Peter Selinger 2001-2019
</metadata>
<g transform="translate(0.000000,1024.000000) scale(0.100000,-0.100000)"
fill="#000000" stroke="none">
<path d="M4996 7659 c-100 -15 -192 -45 -842 -274 -938 -332 -916 -323 -1033
-431 -81 -75 -127 -142 -166 -239 -57 -145 -58 -160 -56 -975 3 -821 2 -830
-59 -937 -63 -110 -170 -166 -458 -238 -166 -41 -261 -74 -355 -122 -109 -56
-178 -117 -213 -189 -23 -48 -26 -63 -22 -127 6 -85 30 -138 86 -189 113 -102
287 -161 552 -187 58 -6 260 -15 450 -21 349 -10 507 -24 680 -62 261 -56 421
-134 750 -368 321 -227 416 -283 617 -364 433 -174 912 -210 1323 -101 187 50
316 139 374 257 29 58 55 170 56 233 1 111 45 203 121 251 131 82 280 108 764
134 328 17 490 49 651 126 202 96 272 262 185 438 -35 72 -74 111 -156 161
-74 44 -164 73 -270 86 -228 28 -379 91 -490 203 -77 77 -115 140 -142 232
-15 53 -18 139 -23 819 -7 847 -3 801 -79 960 -71 151 -193 267 -366 350 -92
45 -1296 510 -1395 539 -139 41 -340 56 -484 35z m389 -216 c39 -11 252 -90
475 -175 223 -86 502 -193 620 -237 305 -116 369 -149 461 -241 54 -53 85 -94
107 -141 68 -143 65 -107 72 -939 6 -743 6 -756 28 -828 93 -305 337 -478 753
-536 211 -30 319 -102 319 -214 0 -112 -182 -195 -485 -221 -66 -6 -210 -15
-320 -21 -361 -20 -530 -51 -691 -130 -106 -52 -175 -114 -214 -194 -26 -53
-33 -83 -44 -193 -9 -94 -19 -143 -35 -176 -74 -152 -299 -227 -686 -227 -230
0 -369 22 -580 92 -223 75 -400 171 -695 379 -387 272 -544 351 -821 413 -227
50 -369 63 -831 76 -428 12 -541 27 -678 87 -84 37 -110 67 -110 125 0 39 6
54 32 83 46 53 89 71 312 130 110 29 234 65 275 79 193 67 319 161 385 285 66
126 66 122 66 952 0 714 1 750 20 810 25 83 72 157 104 165 24 6 116 -27 791
-281 121 -46 294 -111 385 -145 91 -34 195 -78 232 -97 87 -45 160 -120 203
-208 72 -146 69 -102 75 -993 l5 -804 33 -29 c44 -39 90 -39 134 0 l33 29 6
809 c5 713 7 815 22 871 42 156 138 275 284 350 45 24 169 72 275 107 227 76
262 101 227 166 -32 60 -101 54 -399 -37 -469 -143 -562 -152 -800 -74 -149
49 -1243 460 -1300 489 -48 24 -55 32 -55 57 0 52 20 60 1255 493 169 60 298
97 390 115 63 11 297 -2 365 -21z"/>
</g>
</svg>
