<?xml version="1.0" standalone="no"?>
<!DOCTYPE svg PUBLIC "-//W3C//DTD SVG 20010904//EN"
 "http://www.w3.org/TR/2001/REC-SVG-20010904/DTD/svg10.dtd">
<svg version="1.0" xmlns="http://www.w3.org/2000/svg"
 width="1024.000000pt" height="1024.000000pt" viewBox="0 0 1024.000000 1024.000000"
 preserveAspectRatio="xMidYMid meet">
<metadata>
Created by potrace 1.16, written by Peter Selinger 2001-2019
</metadata>
<g transform="translate(0.000000,1024.000000) scale(0.100000,-0.100000)"
fill="#000000" stroke="none">
<path d="M5012 8973 l-3723 -3 -13 -33 c-11 -26 -13 -741 -11 -3839 1 -3688 2
-3808 20 -3828 l18 -20 3822 2 c3222 3 3825 5 3838 17 16 12 17 293 17 3842 0
3816 0 3829 -20 3849 -18 18 -31 20 -122 18 -57 -2 -1778 -4 -3826 -5z m3652
-590 c4 -153 6 -1749 6 -3546 -1 -2505 -4 -3269 -13 -3273 -7 -2 -1602 -5
-3545 -7 l-3532 -2 0 3553 0 3552 3538 0 3539 0 7 -277z"/>
<path d="M4872 8000 c-145 -12 -335 -44 -482 -81 -291 -75 -759 -306 -828
-409 -29 -42 -36 25 72 -670 46 -300 96 -628 111 -730 33 -232 96 -599 111
-649 2 -7 28 36 58 95 92 187 228 375 422 584 108 116 366 403 608 674 98 111
240 269 316 351 76 83 170 188 210 235 40 47 107 123 149 169 117 130 261 305
261 318 0 22 -207 72 -405 98 -147 19 -450 27 -603 15z"/>
<path d="M6022 7833 c-11 -10 -52 -58 -92 -108 -90 -112 -458 -532 -561 -640
-41 -44 -138 -152 -214 -240 -76 -88 -184 -209 -240 -270 -113 -123 -227 -257
-222 -262 2 -1 41 2 88 8 56 8 206 9 454 5 389 -7 531 -14 890 -46 121 -11
292 -24 380 -30 184 -11 656 -51 957 -81 114 -11 232 -19 262 -17 l54 3 -42
105 c-154 380 -432 777 -724 1033 -259 227 -562 416 -837 522 -102 40 -124 42
-153 18z"/>
<path d="M3298 7318 c-177 -137 -383 -352 -520 -543 -316 -442 -507 -1028
-508 -1552 l0 -122 29 -15 c16 -9 125 -56 242 -107 118 -50 279 -122 359 -159
80 -37 229 -104 330 -148 102 -44 268 -117 370 -162 281 -125 483 -211 486
-207 2 2 -12 25 -31 52 -90 125 -181 341 -234 553 -65 255 -224 1218 -366
2207 -38 268 -40 275 -54 275 -5 0 -51 -32 -103 -72z"/>
<path d="M5939 6055 c117 -122 198 -239 391 -570 138 -235 154 -263 446 -775
114 -201 260 -453 324 -560 299 -502 362 -606 376 -625 l15 -20 15 20 c43 56
131 216 183 331 199 440 294 909 278 1369 -9 246 -60 560 -114 702 l-27 72
-61 6 c-208 20 -762 68 -995 85 -151 11 -387 30 -525 41 -137 12 -286 24 -330
26 l-80 6 104 -108z"/>
<path d="M6393 4946 c-30 -155 -76 -286 -199 -568 -114 -261 -177 -422 -272
-698 -33 -96 -102 -294 -152 -440 -215 -621 -339 -993 -335 -1000 2 -4 15 -6
27 -4 253 37 327 54 531 120 352 115 678 302 982 565 154 133 369 364 401 432
l16 33 -137 235 c-76 129 -206 349 -290 489 -84 140 -241 410 -350 600 -108
190 -198 346 -199 347 -1 1 -11 -49 -23 -111z"/>
<path d="M2270 4920 c0 -57 24 -231 50 -360 107 -537 377 -1057 750 -1444 99
-103 278 -256 300 -256 28 0 134 56 420 222 157 91 357 206 445 255 88 50 213
123 278 162 113 68 398 223 500 272 26 13 47 26 47 30 0 4 -28 10 -62 14 -215
24 -486 119 -838 295 -41 20 -129 60 -195 88 -66 27 -239 104 -385 170 -146
66 -310 139 -365 162 -55 23 -286 125 -513 226 -227 101 -417 184 -422 184 -6
0 -10 -9 -10 -20z"/>
<path d="M5855 4038 c-27 -18 -163 -84 -301 -149 -138 -64 -300 -144 -360
-176 -60 -33 -185 -100 -279 -148 -93 -49 -210 -113 -260 -143 -79 -48 -591
-343 -970 -559 -71 -41 -145 -87 -164 -102 l-33 -27 83 -56 c323 -215 609
-329 1029 -412 180 -36 322 -48 513 -44 l168 3 154 460 c125 378 443 1301 470
1368 9 22 9 22 -50 -15z"/>
</g>
</svg>
