<?xml version="1.0" standalone="no"?>
<!DOCTYPE svg PUBLIC "-//W3C//DTD SVG 20010904//EN"
 "http://www.w3.org/TR/2001/REC-SVG-20010904/DTD/svg10.dtd">
<svg version="1.0" xmlns="http://www.w3.org/2000/svg"
 width="1024.000000pt" height="1024.000000pt" viewBox="0 0 1024.000000 1024.000000"
 preserveAspectRatio="xMidYMid meet">
<metadata>
Created by potrace 1.16, written by Peter Selinger 2001-2019
</metadata>
<g transform="translate(0.000000,1024.000000) scale(0.100000,-0.100000)"
fill="#000000" stroke="none">
<path d="M2505 8409 c-136 -20 -223 -62 -323 -154 -67 -62 -90 -107 -130 -254
-23 -86 -25 -114 -25 -276 0 -217 17 -324 99 -620 117 -421 309 -894 594
-1466 65 -129 120 -244 122 -254 3 -17 -29 -18 -769 -19 -728 -1 -773 -2 -790
-19 -16 -16 -18 -37 -18 -178 l0 -161 28 -24 28 -24 857 0 857 0 50 -24 c59
-28 87 -57 148 -152 25 -39 83 -129 131 -201 47 -72 91 -142 97 -156 10 -23 0
-40 -149 -240 -260 -347 -512 -732 -685 -1045 -64 -115 -195 -414 -225 -513
-60 -197 -54 -433 14 -578 42 -91 158 -210 249 -258 278 -146 713 -95 1266
148 207 90 268 121 454 227 285 162 512 301 628 387 71 52 122 83 130 79 7 -4
46 -33 88 -65 91 -69 195 -136 399 -259 366 -219 630 -348 932 -456 306 -110
429 -134 674 -134 183 0 268 16 382 72 132 65 251 218 287 369 24 104 20 268
-10 384 -93 358 -316 769 -734 1355 -80 112 -197 270 -258 350 -62 80 -113
151 -113 158 0 22 46 102 168 292 136 213 158 233 277 250 42 6 392 10 878 10
l808 0 24 25 c24 24 25 28 25 183 0 149 -1 160 -21 178 -20 18 -52 19 -784 24
-420 3 -766 8 -770 11 -3 4 39 94 93 200 251 487 426 894 547 1274 204 639
232 936 115 1248 -34 90 -79 147 -162 203 -185 126 -370 144 -622 60 -266 -89
-546 -267 -937 -595 -277 -233 -931 -891 -1210 -1216 -44 -52 -84 -95 -89 -95
-4 0 -81 82 -171 183 -175 196 -834 858 -1014 1017 -519 459 -944 711 -1265
750 -93 11 -91 11 -175 -1z m5229 -423 c22 -11 48 -35 58 -53 38 -64 17 -390
-38 -608 -44 -174 -189 -604 -274 -815 -91 -224 -308 -672 -445 -915 -176
-314 -496 -826 -520 -831 -10 -3 -30 23 -205 250 -47 62 -137 177 -202 256
-126 157 -333 414 -486 605 -53 66 -122 149 -154 185 -32 36 -58 72 -58 81 0
38 407 488 734 813 614 609 1032 926 1361 1030 126 40 159 40 229 2z m-5024
-1 c186 -49 474 -218 715 -418 362 -300 731 -653 1080 -1031 168 -183 325
-369 331 -393 6 -23 -52 -100 -351 -458 -82 -99 -199 -243 -260 -319 -60 -77
-146 -185 -190 -240 -45 -56 -127 -161 -184 -233 -56 -73 -107 -135 -112 -138
-5 -3 -33 31 -62 77 -145 224 -320 503 -369 588 -31 52 -83 141 -117 198 -70
118 -306 585 -375 744 -102 235 -265 698 -320 908 -63 244 -91 505 -67 622 17
80 60 118 134 118 29 0 95 -11 147 -25z m2516 -2272 c92 -103 319 -383 517
-637 65 -83 158 -200 206 -261 105 -130 234 -301 280 -368 l33 -49 -21 -29
c-50 -67 -350 -433 -454 -553 -122 -140 -461 -476 -576 -570 -63 -51 -75 -58
-94 -49 -68 31 -527 476 -721 698 -136 156 -361 431 -389 474 l-17 28 60 84
c33 46 99 134 147 195 49 62 149 190 225 286 258 330 691 848 708 848 5 0 48
-44 96 -97z m-1384 -1789 c261 -327 599 -684 874 -925 34 -30 65 -60 68 -68
10 -21 -35 -63 -144 -135 -306 -203 -845 -482 -1091 -564 -222 -74 -309 -92
-480 -99 -131 -5 -150 -4 -191 15 -168 74 -152 297 50 696 79 157 287 505 408
681 90 132 388 545 391 542 0 -1 52 -66 115 -143z m2845 -69 c242 -324 360
-496 516 -755 319 -530 400 -854 234 -942 -39 -21 -54 -23 -212 -23 -152 1
-182 4 -285 29 -234 58 -470 155 -815 338 -360 190 -655 379 -655 418 0 11 49
62 123 128 277 250 509 500 810 875 l118 147 23 -27 c13 -16 77 -100 143 -188z"/>
</g>
</svg>
