<?xml version="1.0" standalone="no"?>
<!DOCTYPE svg PUBLIC "-//W3C//DTD SVG 20010904//EN"
 "http://www.w3.org/TR/2001/REC-SVG-20010904/DTD/svg10.dtd">
<svg version="1.0" xmlns="http://www.w3.org/2000/svg"
 width="1024.000000pt" height="1024.000000pt" viewBox="0 0 1024.000000 1024.000000"
 preserveAspectRatio="xMidYMid meet">
<metadata>
Created by potrace 1.16, written by Peter Selinger 2001-2019
</metadata>
<g transform="translate(0.000000,1024.000000) scale(0.100000,-0.100000)"
fill="#000000" stroke="none">
<path d="M4890 7734 c-333 -40 -483 -70 -701 -144 -257 -87 -432 -172 -664
-326 -183 -120 -284 -202 -426 -344 -421 -420 -702 -971 -801 -1573 -18 -110
-22 -173 -22 -382 -1 -285 11 -383 74 -631 48 -188 94 -312 178 -484 l67 -135
5 -675 5 -675 28 -56 c33 -68 100 -132 171 -165 l53 -24 2279 2 2279 3 53 29
c66 37 116 92 151 165 l26 56 -4 662 -3 661 66 134 c88 179 140 320 191 523
61 238 79 387 78 625 -3 583 -205 1158 -582 1655 -106 140 -400 431 -541 537
-398 297 -833 475 -1325 544 -114 15 -550 28 -635 18z m450 -224 c650 -59
1200 -310 1641 -750 206 -206 358 -413 483 -659 281 -553 356 -1142 215 -1701
-11 -47 -24 -88 -28 -92 -3 -4 -6 131 -6 300 l0 307 -27 57 c-32 70 -96 135
-163 168 -41 20 -69 25 -162 28 l-112 4 -7 37 c-32 191 -99 401 -184 576 -162
336 -429 638 -745 845 -109 71 -318 172 -445 214 -695 231 -1502 77 -2032
-388 -351 -308 -584 -706 -679 -1156 -12 -58 -23 -111 -25 -117 -2 -9 -30 -13
-94 -13 -163 0 -264 -56 -330 -185 l-35 -68 -5 -315 -5 -316 -27 115 c-57 237
-63 286 -63 554 0 193 4 274 18 355 51 301 132 547 267 808 415 801 1196 1316
2111 1391 151 12 308 12 439 1z m40 -794 c640 -86 1188 -506 1443 -1106 47
-111 107 -308 121 -398 l6 -42 -291 2 -290 3 -33 100 c-45 138 -112 265 -201
383 -126 169 -267 284 -460 378 -302 147 -638 169 -950 62 -392 -134 -700
-443 -821 -823 l-31 -100 -287 -3 -286 -2 0 22 c0 13 11 68 24 123 165 679
678 1198 1339 1355 109 26 214 43 317 53 92 9 306 5 400 -7z m0 -806 c100 -26
241 -90 331 -150 93 -63 218 -192 284 -294 50 -76 107 -197 130 -273 l6 -23
-1010 0 c-652 0 -1011 3 -1011 10 0 5 11 38 24 73 140 371 454 620 861 681 76
11 302 -3 385 -24z m2011 -989 l29 -29 0 -899 0 -898 -2295 0 -2295 0 0 890
c0 807 2 893 16 914 38 53 -91 50 2297 51 l2219 0 29 -29z m-3931 -2052 c0 -7
-32 -128 -72 -270 l-72 -259 -214 0 -214 0 -29 29 -29 29 0 241 0 241 315 0
c228 0 315 -3 315 -11z m3175 -261 l71 -268 -1582 0 -1583 0 14 43 c7 23 42
145 76 270 l63 228 1435 -3 1435 -3 71 -267z m785 42 c0 -156 -4 -237 -12
-255 -22 -50 -49 -55 -270 -55 l-203 0 -70 257 c-38 141 -71 262 -73 270 -3
11 53 13 312 13 l316 0 0 -230z"/>
<path d="M3797 4425 c-164 -45 -295 -168 -352 -330 -34 -98 -35 -236 -1 -329
60 -168 189 -287 357 -331 45 -12 255 -15 1324 -15 1395 0 1330 -3 1440 60
116 66 198 166 243 294 21 61 24 83 20 171 -4 71 -11 116 -27 158 -53 136
-161 249 -290 304 l-66 28 -1300 2 c-1056 1 -1309 -1 -1348 -12z m260 -241
c125 -61 188 -203 148 -339 -13 -46 -28 -70 -73 -115 -65 -64 -124 -90 -209
-90 -147 0 -273 134 -273 291 0 216 212 348 407 253z m1601 16 c22 -20 22 -26
22 -272 0 -220 -2 -254 -17 -270 -15 -17 -45 -18 -533 -18 -513 0 -517 0 -536
21 -17 19 -19 42 -22 270 -3 239 -2 249 18 269 20 20 29 20 533 20 503 0 514
0 535 -20z m778 -10 c182 -79 223 -324 78 -462 -58 -54 -119 -82 -190 -86 -77
-5 -121 9 -182 57 -60 48 -102 125 -109 199 -7 71 8 127 50 188 79 118 224
160 353 104z"/>
<path d="M3849 2571 c-23 -24 -29 -38 -29 -75 0 -63 30 -96 93 -103 43 -5 49
-3 82 30 38 38 45 74 23 122 -27 60 -120 74 -169 26z"/>
<path d="M4301 2584 c-83 -59 -43 -194 58 -194 100 0 145 121 70 184 -36 31
-92 35 -128 10z"/>
<path d="M5809 2569 c-42 -46 -41 -99 5 -145 26 -26 42 -34 71 -34 49 0 105
53 105 99 0 68 -44 111 -115 111 -28 0 -44 -7 -66 -31z"/>
<path d="M6249 2571 c-24 -24 -29 -38 -29 -76 0 -100 105 -142 176 -71 26 26
34 42 34 71 0 29 -8 45 -34 71 -46 46 -104 48 -147 5z"/>
</g>
</svg>
