<?xml version="1.0" standalone="no"?>
<!DOCTYPE svg PUBLIC "-//W3C//DTD SVG 20010904//EN"
 "http://www.w3.org/TR/2001/REC-SVG-20010904/DTD/svg10.dtd">
<svg version="1.0" xmlns="http://www.w3.org/2000/svg"
 width="1024.000000pt" height="1024.000000pt" viewBox="0 0 1024.000000 1024.000000"
 preserveAspectRatio="xMidYMid meet">
<metadata>
Created by potrace 1.16, written by Peter Selinger 2001-2019
</metadata>
<g transform="translate(0.000000,1024.000000) scale(0.100000,-0.100000)"
fill="#000000" stroke="none">
<path d="M5045 7338 c-363 -391 -585 -930 -585 -1422 0 -463 238 -1006 593
-1355 64 -63 65 -63 90 -46 59 39 258 285 346 428 221 361 322 777 280 1155
-41 376 -193 754 -426 1064 -66 87 -210 248 -223 248 -4 0 -38 -33 -75 -72z"/>
<path d="M3536 6931 c-11 -16 -45 -177 -60 -282 -20 -135 -20 -373 -1 -504 89
-597 490 -1126 1105 -1457 75 -41 291 -138 306 -138 3 0 -15 24 -41 53 -59 65
-166 215 -233 328 -156 260 -245 536 -272 849 -12 148 -1 315 33 465 l23 100
-57 75 c-68 90 -180 200 -269 262 -98 69 -271 162 -398 213 -122 48 -128 50
-136 36z"/>
<path d="M6630 6919 c-99 -35 -323 -149 -420 -214 -118 -78 -213 -165 -300
-273 -64 -79 -67 -86 -59 -116 48 -160 63 -471 34 -669 -54 -362 -209 -702
-458 -1012 -36 -44 -64 -81 -62 -83 2 -2 11 1 22 7 10 5 88 43 173 84 249 118
442 248 622 417 302 283 510 658 579 1048 28 151 30 410 5 557 -26 154 -56
275 -69 274 -7 0 -37 -9 -67 -20z"/>
<path d="M2646 5914 c38 -214 161 -489 314 -707 80 -113 296 -332 406 -410
257 -182 536 -295 874 -353 114 -20 193 -27 372 -31 124 -3 234 -3 245 1 13 5
-13 20 -99 56 -350 144 -633 333 -878 586 -186 192 -309 372 -401 589 -43 100
-52 113 -96 142 -63 44 -196 98 -313 130 -79 21 -124 27 -263 31 l-168 4 7
-38z"/>
<path d="M7246 5934 c-138 -27 -393 -129 -428 -171 -6 -8 -26 -50 -44 -94
-155 -378 -463 -724 -877 -985 -108 -68 -360 -196 -464 -235 -35 -13 -63 -28
-63 -33 0 -14 453 0 570 19 466 72 820 237 1116 518 208 198 357 421 460 689
32 82 84 265 84 294 0 19 -257 18 -354 -2z"/>
<path d="M3470 4339 c-114 -22 -275 -65 -380 -101 -278 -96 -452 -211 -536
-354 -25 -43 -29 -59 -29 -129 0 -68 4 -89 29 -139 139 -282 733 -531 1551
-651 1255 -182 2737 1 3350 415 317 214 349 465 84 664 -82 62 -295 165 -430
210 -150 48 -342 89 -424 90 -65 1 -70 -1 -73 -21 -3 -19 5 -24 65 -41 37 -11
117 -34 176 -52 410 -119 657 -287 657 -445 0 -52 -23 -98 -77 -156 -233 -249
-892 -435 -1778 -500 -211 -16 -835 -16 -1055 0 -294 21 -551 53 -785 97 -670
128 -1085 346 -1085 570 0 47 39 111 100 167 123 111 339 205 728 317 65 19
73 24 70 43 -3 19 -10 22 -58 24 -30 1 -75 -3 -100 -8z"/>
<path d="M4075 4254 c-395 -71 -678 -220 -702 -369 -34 -210 419 -408 1137
-496 212 -26 804 -37 1039 -20 637 48 1127 198 1284 393 40 50 47 118 19 175
-57 111 -261 220 -542 287 -119 29 -289 52 -313 43 -25 -10 -21 -46 6 -52 286
-65 334 -79 463 -140 98 -47 168 -107 177 -153 29 -142 -329 -288 -863 -351
-411 -49 -1023 -43 -1420 15 -451 66 -760 195 -760 317 0 71 108 155 282 218
67 25 221 66 356 95 17 3 22 10 20 27 -3 19 -10 22 -53 24 -27 1 -86 -5 -130
-13z"/>
</g>
</svg>
