<?xml version="1.0" standalone="no"?>
<!DOCTYPE svg PUBLIC "-//W3C//DTD SVG 20010904//EN"
 "http://www.w3.org/TR/2001/REC-SVG-20010904/DTD/svg10.dtd">
<svg version="1.0" xmlns="http://www.w3.org/2000/svg"
 width="1024.000000pt" height="1024.000000pt" viewBox="0 0 1024.000000 1024.000000"
 preserveAspectRatio="xMidYMid meet">
<metadata>
Created by potrace 1.16, written by Peter Selinger 2001-2019
</metadata>
<g transform="translate(0.000000,1024.000000) scale(0.100000,-0.100000)"
fill="#000000" stroke="none">
<path d="M4805 8098 c-51 -44 -65 -77 -165 -372 -48 -143 -219 -646 -380
-1116 -161 -470 -329 -965 -374 -1100 -87 -258 -111 -314 -127 -305 -5 4 -18
23 -28 43 -21 41 -185 465 -374 969 -140 370 -146 383 -183 412 -60 47 -207
13 -269 -61 -37 -44 -67 -106 -241 -502 -175 -395 -215 -482 -237 -511 -15
-19 -30 -20 -579 -25 -555 -5 -564 -5 -603 -27 -77 -42 -112 -135 -102 -275 9
-130 52 -194 148 -218 30 -8 246 -10 704 -8 611 3 663 4 700 21 22 10 52 30
67 44 22 21 134 246 222 446 14 31 29 57 35 57 5 0 18 -24 29 -52 11 -29 41
-107 67 -173 43 -112 196 -523 400 -1075 90 -244 126 -317 172 -341 42 -22
166 -18 201 8 61 45 82 95 318 774 433 1244 636 1824 657 1872 16 40 22 46 33
35 15 -15 79 -228 193 -643 154 -559 250 -900 666 -2370 51 -181 117 -415 145
-520 57 -207 76 -253 123 -296 29 -26 38 -29 104 -29 66 0 75 3 107 30 49 44
69 91 121 295 26 99 125 484 222 855 457 1766 466 1800 482 1800 12 0 57 -103
167 -380 53 -135 107 -259 120 -277 13 -17 47 -43 76 -57 l53 -25 720 -2 c527
-1 731 1 763 10 93 26 147 123 147 267 0 70 -4 89 -30 140 -24 45 -41 65 -75
84 l-45 25 -612 5 c-445 4 -615 8 -624 17 -13 13 -176 411 -325 798 -245 631
-254 653 -314 710 -28 27 -39 30 -108 33 -68 3 -81 1 -112 -20 -58 -40 -92
-125 -174 -438 -41 -157 -151 -577 -245 -935 -94 -357 -202 -771 -241 -920
-83 -319 -90 -339 -100 -328 -5 4 -38 121 -75 258 -140 527 -880 3182 -910
3265 -25 70 -63 129 -95 145 -18 9 -57 15 -104 15 -70 0 -78 -2 -111 -32z"/>
</g>
</svg>
