<?xml version="1.0" standalone="no"?>
<!DOCTYPE svg PUBLIC "-//W3C//DTD SVG 20010904//EN"
 "http://www.w3.org/TR/2001/REC-SVG-20010904/DTD/svg10.dtd">
<svg version="1.0" xmlns="http://www.w3.org/2000/svg"
 width="1024.000000pt" height="1024.000000pt" viewBox="0 0 1024.000000 1024.000000"
 preserveAspectRatio="xMidYMid meet">
<metadata>
Created by potrace 1.16, written by Peter Selinger 2001-2019
</metadata>
<g transform="translate(0.000000,1024.000000) scale(0.100000,-0.100000)"
fill="#000000" stroke="none">
<path d="M4950 7351 c-109 -24 -157 -42 -248 -91 -141 -76 -233 -161 -320
-295 -144 -220 -174 -535 -75 -785 63 -157 198 -325 334 -416 196 -130 466
-176 689 -119 78 21 211 81 277 126 300 205 443 591 352 947 -63 248 -253 475
-485 577 -156 69 -366 91 -524 56z"/>
<path d="M7921 5600 c-125 -226 -345 -462 -571 -612 -182 -120 -465 -233 -710
-282 -231 -46 -369 -57 -850 -66 -557 -11 -709 -24 -1040 -90 -824 -165 -1555
-630 -2193 -1394 -128 -153 -203 -273 -184 -293 11 -11 97 48 183 125 400 360
827 507 1414 489 199 -6 264 -15 690 -97 344 -66 597 -107 740 -120 173 -15
539 -13 677 5 279 36 528 121 751 256 82 51 202 138 202 148 0 4 -30 2 -67 -5
-100 -19 -266 -28 -368 -19 l-90 8 85 17 c419 86 847 390 1110 790 192 293
290 619 290 969 0 135 -9 251 -19 251 -3 0 -26 -36 -50 -80z m-2257 -1605
l290 0 -90 -17 c-150 -28 -291 -38 -729 -48 -465 -11 -674 -28 -975 -81 -287
-50 -651 -163 -849 -263 -29 -15 -55 -25 -57 -23 -10 9 175 123 290 178 291
140 636 227 1026 258 64 6 269 7 460 3 190 -4 475 -7 634 -7z"/>
</g>
</svg>
