<?xml version="1.0" encoding="UTF-8" standalone="no"?>
<!DOCTYPE svg PUBLIC "-//W3C//DTD SVG 1.1//EN" "http://www.w3.org/Graphics/SVG/1.1/DTD/svg11.dtd">
<svg width="100%" height="100%" viewBox="0 0 680 680" version="1.1" xmlns="http://www.w3.org/2000/svg" xmlns:xlink="http://www.w3.org/1999/xlink" xml:space="preserve" xmlns:serif="http://www.serif.com/" style="fill-rule:evenodd;clip-rule:evenodd;stroke-linejoin:round;stroke-miterlimit:2;">
    <g id="Artboard1" transform="matrix(0.988819,0,0,1.05777,-169.526,-195.099)">
        <rect x="171.443" y="184.443" width="687.689" height="642.859" style="fill:none;"/>
        <g>
            <g transform="matrix(1.71298,0,0,1.57899,54.1709,31.8567)">
                <ellipse cx="269.189" cy="300.202" rx="197.776" ry="200.573" style="fill:rgb(255,0,0);"/>
            </g>
            <g transform="matrix(-1.22288,0.0183473,0.0246886,1.43798,1182.58,-1944.28)">
                <path d="M516.678,1805.78C489.098,1805.82 468.84,1805.84 455.905,1805.83C452.879,1805.83 450.199,1805.9 447.865,1806.03C445.064,1806.19 442.526,1805.58 439.913,1805.86C437.354,1806.14 434.794,1806.16 432.235,1805.91C428.347,1805.53 423.208,1807.33 421.707,1802.61C421.374,1801.57 421.465,1800.1 421.982,1798.19C424.583,1788.6 431.577,1782.37 442.964,1779.51C458.593,1775.59 475.186,1777.4 490.378,1782.02L490.399,1782.02C490.881,1782.16 491.41,1781.92 491.572,1781.49C491.574,1781.49 491.576,1781.48 491.578,1781.48C494.116,1774.15 497.617,1766.49 502.956,1760.65C512.047,1750.72 525.113,1747.88 539.542,1745.91C548.053,1744.76 556.647,1743.68 565.325,1742.68C565.792,1742.63 565.979,1742.4 565.888,1742C564.237,1734.12 561.703,1726.27 558.285,1718.45C558.091,1718 557.596,1717.69 557.046,1717.69C556.848,1717.69 556.651,1717.73 556.472,1717.81C551.271,1720.05 545.894,1722.75 540.768,1724.36C514.072,1732.79 484.063,1730.96 459.744,1717.7C459.409,1717.52 458.995,1717.5 458.643,1717.64C456.101,1718.72 453.583,1719.5 451.091,1720C445.223,1721.18 439.05,1722.38 432.573,1723.61C432.048,1723.71 431.914,1723.97 432.173,1724.38C435.282,1729.32 436.553,1734.12 435.986,1738.76C435.445,1743.1 433.223,1746.06 429.322,1747.63C427.284,1748.46 425.271,1748.11 422.895,1747.74C416.681,1746.76 415.78,1742.93 413.967,1738.4C412.429,1734.56 408.578,1732.31 404.014,1733.1C396.029,1734.47 391.094,1738.54 389.21,1745.3C388.272,1748.66 388.71,1752.54 388.86,1756.13C389.022,1759.85 385.496,1761.05 382.083,1761.81C380.774,1762.11 379.478,1762.12 378.194,1761.86C371.317,1760.45 367.979,1755.22 367.203,1749.44C365.97,1740.14 368.541,1731.79 374.918,1724.37C375.023,1724.25 375.08,1724.1 375.08,1723.95C375.08,1723.62 374.795,1723.33 374.418,1723.29C369.542,1722.65 365.19,1721.44 360.551,1724.53C357.213,1726.76 353.912,1731.56 348.423,1732.42C346.022,1732.8 343.896,1732.54 342.046,1731.65C331.068,1726.37 339.283,1712.31 345.81,1707.03C351.82,1702.18 359.072,1699.09 367.566,1697.76C367.974,1697.71 368.391,1697.75 368.766,1697.9C369.733,1698.26 370.342,1698 370.592,1697.09C372.918,1688.47 378.403,1683.23 387.047,1681.39C394.657,1679.76 401.209,1681.12 406.703,1685.44C412.967,1690.39 414.755,1697.69 417.819,1704.22C418.138,1704.91 418.937,1705.34 419.782,1705.27C426.742,1704.73 433.715,1703.51 440.7,1701.63C441.067,1701.53 441.134,1701.35 440.9,1701.08C427.788,1686.2 422.795,1669.92 425.921,1652.24C427.709,1642.09 432.698,1631.13 440.15,1622.7C442.034,1620.57 443.355,1618.42 444.114,1616.26C447.998,1605.12 451.57,1593.22 454.83,1580.56C455.492,1577.97 457.593,1572.19 462.069,1574.19C463.336,1574.76 464.141,1575.52 464.482,1576.46C467.108,1583.77 469.792,1590.94 472.535,1597.98C472.66,1598.32 472.902,1598.4 473.26,1598.23C473.952,1597.9 474.69,1597.62 475.473,1597.4C484.901,1594.75 491.566,1593.13 495.467,1592.53C497.034,1592.29 500.368,1592 505.47,1591.65C522.237,1590.5 538.292,1593.34 552.946,1600.49C553.73,1600.87 554.301,1600.7 554.659,1599.98C557.835,1593.56 561.053,1587.29 564.312,1581.18C564.987,1579.91 565.692,1578.95 566.425,1578.3C567.593,1577.28 569.487,1577.24 570.714,1578.2C571.401,1578.75 571.993,1579.38 572.491,1580.09C572.949,1580.74 573.328,1581.46 573.628,1582.25C579.067,1596.54 583.681,1610.34 591.008,1624.76C595.242,1633.11 598.106,1639.5 599.598,1643.93C602.549,1652.7 604.679,1660.97 605.987,1668.73C606.121,1669.55 606.625,1669.81 607.5,1669.5C617.595,1665.95 627.273,1662.72 636.534,1659.81C639.226,1658.97 642.344,1658.35 645.887,1657.95C665.868,1655.69 681.185,1662.88 689,1679.77C692.117,1686.51 695.118,1693.82 698.002,1701.71C698.34,1702.63 699.479,1703.15 700.528,1702.86C704.067,1701.86 709.818,1699.78 713.432,1700.14C722.343,1701.03 728.282,1704.78 731.25,1711.42C732.233,1713.62 732.192,1716 731.125,1718.55C729.724,1721.91 726.928,1723.58 722.735,1723.54C717.37,1723.49 715.245,1720.91 711.194,1719.5C710.452,1719.24 709.652,1719.22 708.793,1719.44C708.093,1719.62 707.964,1719.96 708.405,1720.47C713.715,1726.67 715.291,1733.42 713.132,1740.73C712.973,1741.28 713.136,1741.36 713.619,1741C714.286,1740.5 715.061,1740.22 715.945,1740.17C720.838,1739.86 725.648,1739.16 730.374,1738.08C742.853,1735.21 754.019,1728.49 766.573,1724.98C783.39,1720.29 804.171,1722.2 819.601,1730.51C827.853,1734.96 834.355,1744.84 826.728,1752.5C825.578,1753.66 824.257,1754.33 822.764,1754.53C817.55,1755.22 813.812,1754.92 809.335,1751.79C805.684,1749.25 801.683,1746.45 797.632,1744.89C782.878,1739.21 768.936,1744.64 755.257,1749.93C742.516,1754.86 729.587,1757.47 715.445,1758.1C709.193,1758.37 703.075,1758.74 697.089,1759.2C689,1759.83 681.035,1760.46 672.532,1761.72C662.496,1763.19 652.222,1764.61 641.71,1765.97C641.26,1766.03 641.01,1766.26 640.96,1766.65L639.135,1782.41C639.001,1783.59 639.589,1784.04 640.898,1783.76C650.292,1781.68 658.82,1779.94 666.48,1778.54C685.511,1775.08 712.969,1776.53 717.158,1797.98C717.914,1801.88 716.49,1804.37 712.887,1805.45L607.118,1805.45C607.118,1805.45 607.854,1797.89 607.888,1797.56C609.263,1785.13 610.951,1773.28 612.952,1762C612.96,1761.95 612.964,1761.91 612.964,1761.86C612.964,1761.35 612.49,1760.94 611.914,1760.94L611.776,1760.94C599.347,1762.42 585.444,1763.89 570.069,1765.36C568.761,1765.49 567.442,1765.61 566.113,1765.74C554.943,1766.79 546.695,1768 541.368,1769.37C534.716,1771.08 527.339,1773.6 524.25,1778.44C522.933,1780.53 521.804,1783.36 520.862,1786.93C519.786,1791.01 518.786,1795.12 517.861,1799.26M454.054,1678.67L455.567,1676.97C455.817,1676.69 455.863,1676.38 455.705,1676.05C454.467,1673.49 453.542,1670.69 452.204,1668.29C447.461,1659.77 442.843,1651.23 438.35,1642.66C438.315,1642.6 438.239,1642.55 438.156,1642.55C438.072,1642.55 437.996,1642.6 437.962,1642.66C432.335,1653.95 431.664,1665.35 435.949,1676.85C438.175,1682.83 441.655,1687.77 446.39,1691.68C450.266,1694.87 455.167,1696.81 460.056,1694.72C460.631,1694.48 460.948,1694.08 461.006,1693.52C461.315,1690.46 460.861,1687.56 459.644,1684.83C459.493,1684.48 459.214,1684.26 458.806,1684.18C456.188,1683.57 454.521,1682.1 453.804,1679.76C453.688,1679.36 453.771,1679 454.054,1678.67M457.339,1633.92C457.632,1634.01 458.096,1633.47 458.366,1632.73C458.636,1632 458.616,1631.32 458.322,1631.24C458.029,1631.15 457.565,1631.69 457.295,1632.43C457.025,1633.16 457.045,1633.84 457.339,1633.92M443.876,1786.43C444.76,1785.88 444.664,1785.64 443.589,1785.72C438.662,1786.06 430.56,1792.96 431.423,1797.54C431.764,1799.36 432.306,1799.4 433.048,1797.68C434.824,1793.55 438.433,1789.8 443.876,1786.43M500.081,1681.7C498.33,1684.21 493.954,1683.05 493.266,1680.15C493.202,1679.9 492.947,1679.72 492.656,1679.72C492.514,1679.72 492.377,1679.77 492.266,1679.85C486.864,1683.75 481.529,1688.18 476.261,1693.15C475.969,1693.43 475.973,1693.7 476.273,1693.97C485.201,1702.31 502.656,1703.37 513.747,1700.32C521.625,1698.15 528.522,1694.18 534.441,1688.42C544.969,1678.17 549.52,1664.24 546.957,1650.29C546.862,1649.75 546.329,1649.35 545.709,1649.35C545.545,1649.35 545.383,1649.38 545.232,1649.43C542.668,1650.33 539.83,1650.11 537.329,1651.04C527.026,1654.89 517.628,1660.04 509.133,1666.49C506.049,1668.82 502.99,1671.16 499.956,1673.52C499.345,1673.99 499.283,1674.83 499.818,1675.37C501.644,1677.23 501.731,1679.34 500.081,1681.7M383.633,1692.64L400.588,1692.6C400.671,1692.6 400.738,1692.54 400.738,1692.46L400.738,1692.38C400.728,1689.83 396.921,1687.73 392.305,1687.75L391.873,1687.75C387.262,1687.76 383.477,1689.88 383.483,1692.43L383.483,1692.51C383.483,1692.58 383.551,1692.64 383.633,1692.64M491.952,1605.64C491.764,1605.44 491.231,1605.55 490.772,1605.89C490.313,1606.22 490.09,1606.66 490.278,1606.86C490.467,1607.06 491,1606.95 491.459,1606.62C491.918,1606.28 492.141,1605.84 491.952,1605.64M471.871,1618.36C471.505,1618.05 470.836,1618.14 470.39,1618.55C469.945,1618.96 469.88,1619.55 470.247,1619.86C470.614,1620.17 471.283,1620.09 471.728,1619.68C472.174,1619.27 472.238,1618.67 471.871,1618.36M365.978,1706.99C366.003,1707.11 366.053,1707.3 366.128,1707.54C366.27,1708.01 366.545,1708.08 366.953,1707.75L367.529,1707.3C367.895,1707 368.325,1706.85 368.816,1706.85C371.125,1706.8 373.243,1706.95 375.168,1707.31C377.011,1707.65 377.152,1707.35 375.593,1706.41C372.518,1704.59 368.879,1704.17 364.678,1705.16C363.294,1705.48 361.948,1705.85 360.639,1706.25C357.676,1707.16 355.475,1709.27 353.399,1711.23C353.091,1711.52 353.158,1711.66 353.599,1711.67C354.083,1711.68 354.366,1711.49 354.45,1711.09C354.518,1710.76 354.806,1710.5 355.175,1710.44C355.992,1710.29 356.746,1709.98 357.438,1709.49C357.763,1709.26 358.084,1709.27 358.401,1709.51C358.492,1709.59 358.597,1709.64 358.713,1709.69C359.105,1709.82 359.459,1709.77 359.776,1709.52C361.01,1708.58 362.427,1707.96 364.027,1707.65C364.403,1707.58 364.699,1707.4 364.915,1707.12C365.057,1706.94 365.228,1706.82 365.428,1706.74C365.728,1706.62 365.911,1706.7 365.978,1706.99M486.139,1607.11C485.58,1607.35 485.184,1607.7 484.951,1608.18C484.709,1608.69 484.864,1608.81 485.414,1608.54L488.027,1607.29C488.235,1607.18 488.369,1607.03 488.427,1606.81C488.469,1606.64 488.444,1606.49 488.352,1606.37C488.152,1606.12 487.906,1606.08 487.614,1606.25L486.564,1606.89C486.431,1606.97 486.289,1607.05 486.139,1607.11M695.849,1738.76C696.707,1738.63 696.917,1736.09 696.314,1733.13C695.712,1730.18 694.51,1727.87 693.653,1728C692.796,1728.14 692.586,1730.68 693.188,1733.63C693.791,1736.58 694.992,1738.9 695.849,1738.76M478.599,1613.07L479.249,1612.1C479.483,1611.77 479.395,1611.68 478.987,1611.84C477.987,1612.23 477.553,1612.89 477.686,1613.82C477.745,1614.25 477.911,1614.28 478.187,1613.92C478.362,1613.69 478.491,1613.43 478.574,1613.14C478.574,1613.12 478.583,1613.09 478.599,1613.07M665.743,1731.48C661.716,1733.05 657.328,1729.94 655.915,1726.86C653.964,1722.62 656.277,1717.09 659.891,1714.17C664.851,1710.15 670.769,1708.28 677.646,1708.56C677.69,1708.57 677.734,1708.57 677.778,1708.56C678.18,1708.52 678.471,1708.2 678.423,1707.85C678.418,1707.81 678.409,1707.77 678.396,1707.74C674.783,1697.22 667.13,1680.24 651.663,1680.94C648.012,1681.11 644.124,1681.87 639.997,1683.22C634.179,1685.13 628.569,1687.18 623.167,1689.35C622.83,1689.48 622.613,1689.78 622.613,1690.11C622.613,1690.26 622.662,1690.41 622.755,1690.55C630.232,1701.31 635.5,1712.88 638.559,1725.25C639.751,1730.08 640.802,1737.77 641.71,1748.34C641.744,1748.7 641.965,1748.85 642.373,1748.77C644.29,1748.41 646.245,1748.09 648.237,1747.8C652.651,1747.15 657.228,1745.86 661.616,1745.28C667.08,1744.57 672.257,1742.89 678.109,1742.83C678.422,1742.82 678.678,1742.6 678.678,1742.32C678.678,1742.21 678.636,1742.1 678.559,1742.01C674.895,1737.82 675.333,1731.92 676.383,1727.02C676.817,1725.03 676.087,1724.62 674.195,1725.78C671.207,1727.63 669.431,1730.03 665.743,1731.48M461.994,1629.35L463.62,1629.94C463.771,1630 463.944,1629.93 464.007,1629.8L464.108,1629.6C465.225,1627.24 465.775,1625.15 465.326,1624.99L465.32,1624.99L464.795,1624.79L464.789,1624.79C464.339,1624.62 463.05,1626.43 461.932,1628.8L461.844,1629.01C461.783,1629.14 461.849,1629.29 461.994,1629.35M461.732,1622.67C462.84,1623.02 463.636,1622.44 464.12,1620.92C465.212,1619.89 465.887,1618.76 466.145,1617.53C466.22,1617.16 466.425,1616.86 466.758,1616.62C467.433,1616.14 468.421,1615.75 469.722,1615.43C470.191,1615.31 470.49,1614.9 470.409,1614.48C470.184,1613.24 470.859,1612.6 472.435,1612.56C473.402,1612.52 474.085,1612.19 474.485,1611.57C474.61,1611.38 474.761,1611.22 474.936,1611.08C478.095,1608.56 481.513,1606.1 485.189,1603.71C487.289,1602.34 487.064,1601.89 484.513,1602.37C478.82,1603.44 473.573,1605.21 468.771,1607.69C463.82,1610.25 458.806,1614.2 454.092,1617.68C452.066,1619.18 451.483,1620.96 452.341,1623.01C452.558,1623.54 452.391,1623.66 451.841,1623.38C451.524,1623.22 451.254,1623.05 451.028,1622.85C450.595,1622.47 450.178,1622.48 449.778,1622.88C447.661,1624.94 445.881,1627.23 444.439,1629.75C443.672,1631.07 442.713,1632.33 441.563,1633.54C441.387,1633.72 441.289,1633.95 441.289,1634.19C441.289,1634.61 441.597,1634.99 442.051,1635.12C444.727,1635.93 445.677,1639.03 446.565,1641.1C446.658,1641.32 446.903,1641.48 447.176,1641.48C447.316,1641.48 447.453,1641.44 447.565,1641.36L449.315,1640.2C449.766,1639.91 449.845,1639.55 449.553,1639.12C449.17,1638.57 449.257,1638.06 449.816,1637.62C450.043,1637.43 450.201,1637.18 450.266,1636.91C450.616,1635.4 451.299,1634.29 452.316,1633.56C454.942,1631.66 456.318,1628.22 457.78,1625.6C457.955,1625.28 458.279,1625.04 458.668,1624.94C460.152,1624.55 461.173,1623.8 461.732,1622.67" style="fill:white;"/>
            </g>
        </g>
    </g>
</svg>
